<svg xmlns="http://www.w3.org/2000/svg" width="201.057" height="71.601" viewBox="0 0 201.057 71.601"><defs><style>.a{fill:#492e85;}.b{fill:none;}</style></defs><g transform="translate(23.867 13.079)"><path class="a" d="M338.571,49.477v2.769A10.457,10.457,0,0,0,330.934,49C324.728,49,319,53.773,319,61.411a12.007,12.007,0,0,0,11.886,12.411,10.364,10.364,0,0,0,7.685-3.341v2.864h5.346V49.477ZM331.6,68.857a7.474,7.474,0,1,1,7.256-7.494A7.268,7.268,0,0,1,331.6,68.857Z" transform="translate(-190.595 -38.689)"/><path class="a" d="M287.848,50l-6.11,16.611L275.628,50H269.9l9.165,23.867h5.346L293.576,50Z" transform="translate(-164.932 -39.212)"/><path class="a" d="M230.811,49A12.318,12.318,0,0,0,218.4,61.506a11.175,11.175,0,0,0,.143,1.814h24.535a11.172,11.172,0,0,0,.143-1.814A12.318,12.318,0,0,0,230.811,49Zm-6.874,9.69a7.263,7.263,0,0,1,13.747,0Z" transform="translate(-138.016 -38.689)"/><path class="a" d="M232.431,86.719a7.468,7.468,0,0,1-6.54-3.819L221.5,85.43a12.833,12.833,0,0,0,21.862,0l-4.392-2.53A7.468,7.468,0,0,1,232.431,86.719Z" transform="translate(-139.636 -56.408)"/><path class="a" d="M178.111,49a9.123,9.123,0,0,0-7.065,3.246V49.477H165.7V73.344h5.346V60.218c0-4.01,2.578-6.492,5.824-6.492,3.628,0,5.537,2.387,5.537,6.158V73.344h5.442V59.454C187.849,52.962,184.125,49,178.111,49Z" transform="translate(-110.472 -38.689)"/><path class="a" d="M119.811,49A12.318,12.318,0,0,0,107.4,61.506a11.172,11.172,0,0,0,.143,1.814h24.535a11.172,11.172,0,0,0,.143-1.814A12.318,12.318,0,0,0,119.811,49Zm-6.874,9.69a7.263,7.263,0,0,1,13.747,0Z" transform="translate(-80.001 -38.689)"/><path class="a" d="M121.431,86.719a7.468,7.468,0,0,1-6.54-3.819L110.5,85.43a12.833,12.833,0,0,0,21.862,0l-4.392-2.53A7.468,7.468,0,0,1,121.431,86.719Z" transform="translate(-81.621 -56.408)"/><path class="a" d="M62.984,37.711a10.457,10.457,0,0,0-7.637,3.246V27.4H50V62.055h5.346V59.191a10.363,10.363,0,0,0,7.685,3.341A12.007,12.007,0,0,0,74.917,50.121C74.917,42.484,69.189,37.711,62.984,37.711Zm-.668,19.857a7.475,7.475,0,1,1,7.208-7.494A7.248,7.248,0,0,1,62.315,57.568Z" transform="translate(-50 -27.4)"/></g><rect class="b" width="201.057" height="71.601"/></svg>