<svg xmlns="http://www.w3.org/2000/svg" width="154.045" height="45.527" viewBox="0 0 154.045 45.527"><defs><style>.a{fill:#0051a5;}.b{fill:#fedf01;}.c{fill:#fff;}</style></defs><path class="a" d="M34.631,39.949a2.694,2.694,0,0,1-1.821,2.84,44.207,44.207,0,0,1-15.494,2.737A44.228,44.228,0,0,1,1.821,42.79,2.694,2.694,0,0,1,0,39.949V0H34.631Z"/><path class="b" d="M11.146,39.473c-4.816-3-6.4-4.32-6.539-6.281a4.77,4.77,0,0,1,.238-1.552l-.424-.3A3.916,3.916,0,0,0,3.8,33.368a4.785,4.785,0,0,0,.807,2.68,11.4,11.4,0,0,0,3.13,3,11.9,11.9,0,0,1,3.927,4.785h.264V41.873c2.545,1.443,4.785,2.8,5.887,5.225h.269C17.629,44.584,16.206,42.644,11.146,39.473Z" transform="translate(-1.834 -15.126)"/><path class="b" d="M33.244,33.52h-.336c0-1.79-1.64-2.276-3.358-2.276H24.19a9.064,9.064,0,0,1,.119,2.892H24.04c-.517-4.02-2.768-6.012-5.944-8.143v1.831h-.269a13.567,13.567,0,0,0-4.454-4.92h0L11.94,21.869V23.84H11.7a13.759,13.759,0,0,0-4.025-5.173c-2.069-1.873-2.923-3-3.409-4.284a6.084,6.084,0,0,1-.393-2.271,3.952,3.952,0,0,1,1.723-3.44v.745a3.813,3.813,0,0,0-.729,2.256,5.049,5.049,0,0,0,.559,2.3c1.149,2.261,5.1,5,7.6,6.71,7.8,5.2,9.359,6.115,10.652,8.893a6.767,6.767,0,0,1,.435,1.205l5.97-.916c.14,0,.445-.062.6-.067a5.929,5.929,0,0,0,1.707-1.723l-2.99-.233a9.277,9.277,0,0,1-.445.864h-.238c.083-.305.155-.605.212-.9l-.76-.057v-.16l.828-.1a14.951,14.951,0,0,0,.248-2.39l-3.766-.217v1.086h-.243c-.078-.372-.14-.745-.191-1.112l-.833-.031v-.248l.781-.047a17.041,17.041,0,0,1-.072-2.721l-2.2-.1a5,5,0,0,1,.29.605,7.243,7.243,0,0,1,.2,3.621h-.264a8.076,8.076,0,0,0-.585-2.463c-.605-1.438-1.976-2.706-4.263-4.18v1.837h-.269c-.76-2.411-2.659-3.751-5.479-5.173-2.323-1.2-3.047-2.633-2.918-4.858l.786.466a3.461,3.461,0,0,0,3.477,3.27,14.362,14.362,0,0,0,2.8-.352,6.815,6.815,0,0,1,3.477-.129V13.09h-.781a2.67,2.67,0,0,1-1.681.517,2.485,2.485,0,0,1-2.654-2.452c0-1.687,1.423-1.956,2.587-1.956.621,0,1.656,0,2-.041a.869.869,0,0,0,.579-.181.714.714,0,0,0,.207-.435,4.708,4.708,0,0,0,.036-.786V6.545H14.883V8.677L12.85,7.906V7.389h.973V6.545H10.2V4.776H8.954A1.449,1.449,0,0,0,7.48,6.142C7.428,7,7.816,7.725,8.7,7.725h.16V8.76H8.7A2.664,2.664,0,0,1,5.975,6.043,2.928,2.928,0,0,1,9.011,3.2h2.628V4.967H21.847V7.585a9.4,9.4,0,0,1-.067,1.407,1.624,1.624,0,0,1-.642,1.154,2.545,2.545,0,0,1-1.552.336c-.248,0-.973,0-1.842-.067-1.164-.072-1.49.378-1.552.792a1.438,1.438,0,0,0,0,.259,2.364,2.364,0,0,1,2.23-.445c1.552.486,1.981.517,2.783-.1l.078.181a1.888,1.888,0,0,1-.466.517h.709v4.03l2.318-1.386h6.519l3.2,1.671a1.035,1.035,0,0,1,.616.838,1.516,1.516,0,0,1-.181.957c-.093.155-.843,1.381-1.236,2.033a6.984,6.984,0,0,1-.8,10.218,3.57,3.57,0,0,1,1.914,1.418ZM18.758,11.791a1.845,1.845,0,0,0-1.945.414,1.821,1.821,0,0,0,.931.166,1.4,1.4,0,0,0,1-.559Zm-.517,5.81,2.587-1.552A3.8,3.8,0,0,0,19.1,15.63a22.2,22.2,0,0,0-3.1.517c.285.238,1.433.973,2.219,1.474Zm11.485.16.357-.517-.574-.7.093-.16,1.552.838-.336,1.035a6.782,6.782,0,0,1,.786.476l1-1.671-2.587-1.355H24.268l-4.656,2.8a12.111,12.111,0,0,1,2.25,1.925,7,7,0,0,1,5.613-2.964,7.1,7.1,0,0,1,2.23.31Zm-.486,6.544a14.077,14.077,0,0,0-.279-2.318l-3.042-.135A18.841,18.841,0,0,0,25.5,24.5Zm1.035-2.256a10.968,10.968,0,0,1,.047,2.183l3.016-.16a5.913,5.913,0,0,0-.564-1.925Zm-1.552-.988a10.611,10.611,0,0,0-.89-2.2h-.378a6.245,6.245,0,0,0-.631.047,18.847,18.847,0,0,0-.75,2.292Zm.838-1.826a13.5,13.5,0,0,1,.517,1.754l1.842-.1a5.97,5.97,0,0,0-2.354-1.666ZM32.949,27a5.08,5.08,0,0,0,.4-1.656l-3.135-.181a10.693,10.693,0,0,1-.621,2.25ZM25.23,19.344a5.639,5.639,0,0,0-2.421,2.023l2.147-.114a13.937,13.937,0,0,1,.274-1.909Z" transform="translate(-1.867 -1.543)"/><path class="c" d="M31.862,67.212a1.93,1.93,0,0,0,1.707-1.847c0-.926-.393-1.945-3.1-1.945H25.85v.072a1.4,1.4,0,0,1,.517.3,1.893,1.893,0,0,1,.429,1.366v6.886h3.787c2.069,0,3.621-.8,3.621-2.628A2.216,2.216,0,0,0,31.862,67.212ZM29.9,64.237c.973,0,1.635.212,1.635,1.252s-.885,1.418-1.9,1.418h-.869V64.237Zm.1,6.989H28.768V67.709h1.174c1.609,0,2.23.481,2.23,1.692,0,1.3-.807,1.831-2.173,1.831Z" transform="translate(-12.477 -30.61)"/><path class="c" d="M13.242,72.044H15.73L12.58,67.988c1.273-.341,2.225-1.035,2.225-2.3,0-1.485-.885-2.271-3.213-2.271H6.77v.072a1.593,1.593,0,0,1,.517.305,2.038,2.038,0,0,1,.44,1.521v6.725H9.719V68.221h.724ZM9.7,64.237h1.324c1.117,0,1.7.326,1.7,1.516,0,1.035-.76,1.687-1.987,1.687H9.709Z" transform="translate(-3.268 -30.61)"/><path class="c" d="M51.682,64.455a1.619,1.619,0,0,1,.7.7c0,.031.083,0,.083,0l.435-1.474a4.748,4.748,0,0,0-2.633-.564c-2.8,0-4.9,1.418-4.9,4.506,0,3.482,2.5,4.387,4.708,4.387a4.7,4.7,0,0,0,2.856-.652V70.327A3.435,3.435,0,0,1,50.647,71c-1.283,0-3.166-.585-3.208-3.451-.036-2.638,1.112-3.5,2.659-3.5a2.985,2.985,0,0,1,1.583.4Z" transform="translate(-21.893 -30.465)"/><path class="a" d="M107.449,14.627a7.677,7.677,0,0,1-2.825.688,4.226,4.226,0,0,1-4.594-4.542,4.252,4.252,0,0,1,4.491-4.542,6.446,6.446,0,0,1,2.644.6l-.59,1.314a2.587,2.587,0,0,0-2.069-1.035c-1.148,0-2.664.854-2.664,3.668,0,2.188,1.226,3.652,2.918,3.652a2.152,2.152,0,0,0,.988-.222V11.1h1.687v3.5Z" transform="translate(-48.28 -3.007)"/><path class="a" d="M120.663,17.381a3.285,3.285,0,0,1-3.316-3.446,3.3,3.3,0,0,1,3.29-3.456,2.73,2.73,0,0,1,2.918,2.83,4.438,4.438,0,0,1-.036.642l-4.506.088c.124,1.376.911,2.338,1.966,2.338a3.8,3.8,0,0,0,1.95-.662l.45.776A4.511,4.511,0,0,1,120.663,17.381Zm1.159-4.356c0-1.035-.517-1.6-1.164-1.6-.76,0-1.428.652-1.552,1.728Z" transform="translate(-56.636 -5.058)"/><path class="a" d="M136.084,12.41a2.721,2.721,0,0,0-1.743-.988c-.574,0-.988.29-.988.714,0,.548.7.74,1.428,1.035,1.035.4,2.214.916,2.214,2.116,0,1.33-1.3,2.106-2.638,2.106a5.51,5.51,0,0,1-2.706-.828l.652-1.159a3.477,3.477,0,0,0,2.069,1.035c.636,0,1.076-.285,1.076-.74,0-.517-.776-.786-1.516-1.112-.962-.424-2.126-.911-2.126-2.1s1.3-2.007,2.613-2.007a5.018,5.018,0,0,1,2.354.693Z" transform="translate(-63.542 -5.058)"/><path class="a" d="M148.715,14.594a4.547,4.547,0,0,1-2.276.75,1.4,1.4,0,0,1-1.092-.44,1.909,1.909,0,0,1-.362-1.273V6.808l1.552-.388V8.686h1.775v.962h-1.769v3.87c0,.486.248.652.574.652a3.854,3.854,0,0,0,1.278-.362Z" transform="translate(-69.975 -3.099)"/><path class="a" d="M155.616,6.822a.926.926,0,1,1,.926-.926.926.926,0,0,1-.926.926Zm-.766,7.662v-6.5H156.4v6.5Z" transform="translate(-74.662 -2.399)"/><path class="a" d="M164.24,17.424A3.285,3.285,0,0,1,161,13.968a3.27,3.27,0,1,1,6.534,0,3.3,3.3,0,0,1-3.29,3.456Zm0-5.96c-.916,0-1.614.962-1.614,2.5s.688,2.514,1.614,2.514,1.6-.988,1.6-2.514-.678-2.5-1.6-2.5Z" transform="translate(-77.703 -5.101)"/><path class="a" d="M180.316,17.108V13.486a2.7,2.7,0,0,0-.264-1.4,1.174,1.174,0,0,0-1.076-.517,2.587,2.587,0,0,0-1.138.3v5.241H176.25v-6.5h.362a1.454,1.454,0,0,0,.626.186,2.069,2.069,0,0,0,.662-.124,3.622,3.622,0,0,1,1.34-.264,2.587,2.587,0,0,1,2.24,1.128,3.305,3.305,0,0,1,.424,1.816v3.756Z" transform="translate(-85.068 -5.023)"/><path class="a" d="M108.149,45.48V41.688a2.913,2.913,0,0,0-.2-1.19,1.164,1.164,0,0,0-.978-.564,1.956,1.956,0,0,0-1.066.352,4.837,4.837,0,0,1,.1,1.242v3.963H104.46V41.248a1.842,1.842,0,0,0-.124-.812.957.957,0,0,0-.9-.517,2.121,2.121,0,0,0-1.117.367V45.48H100.73V38.988h.2a1.578,1.578,0,0,0,.688.186,16.39,16.39,0,0,1,1.987-.378,2.4,2.4,0,0,1,1.718.59,3.549,3.549,0,0,1,1.966-.59,2.364,2.364,0,0,1,2.1,1.1,3.621,3.621,0,0,1,.378,1.79v3.8h-1.593Z" transform="translate(-48.618 -18.723)"/><path class="a" d="M124.281,45.789a3.29,3.29,0,1,1,2.358-1.035A3.285,3.285,0,0,1,124.281,45.789Zm0-5.955c-.916,0-1.614.962-1.614,2.5s.688,2.514,1.614,2.514,1.6-.988,1.6-2.514S125.207,39.834,124.281,39.834Z" transform="translate(-58.397 -18.794)"/><path class="a" d="M140.632,45.473V41.852a2.721,2.721,0,0,0-.264-1.4,1.174,1.174,0,0,0-1.076-.517,2.654,2.654,0,0,0-1.138.3v5.241H136.56V38.98h.367a1.552,1.552,0,0,0,.626.186,2.225,2.225,0,0,0,.662-.124,3.621,3.621,0,0,1,1.34-.264,2.587,2.587,0,0,1,2.24,1.149,3.306,3.306,0,0,1,.424,1.816V45.5h-1.588Z" transform="translate(-65.911 -18.716)"/><path class="a" d="M156.421,42.636h-.347a1.49,1.49,0,0,0-.678-.186,1.961,1.961,0,0,0-.616.166,3.622,3.622,0,0,1-1.3.259,3.006,3.006,0,0,1-2.716-1.5,3.844,3.844,0,0,1-.44-1.9,3.409,3.409,0,0,1,1.324-2.851,3.487,3.487,0,0,1,2.069-.652,3.264,3.264,0,0,1,1.128.186V32.9h1.6v9.736Zm-1.609-5.546a3.213,3.213,0,0,0-.817-.135c-1.035,0-2.028.75-2.028,2.478,0,1.1.476,2.478,1.743,2.478a2.069,2.069,0,0,0,1.1-.352Z" transform="translate(-72.554 -15.879)"/><path class="a" d="M166.436,35.192a.926.926,0,1,1,.661-.268A.926.926,0,0,1,166.436,35.192Zm-.786,7.657V36.356h1.588v6.493Z" transform="translate(-79.889 -16.092)"/><path class="a" d="M178.1,45.479h-.347a1.3,1.3,0,0,0-.642-.186,1.816,1.816,0,0,0-.6.166,3.621,3.621,0,0,1-1.288.259,2.949,2.949,0,0,1-2.664-1.5,4.009,4.009,0,0,1-.429-1.9,3.456,3.456,0,0,1,1.324-2.9,3.373,3.373,0,0,1,1.992-.626,5.091,5.091,0,0,1,1.552.29l1.1-.248Zm-2.587-5.691c-.89,0-1.728.776-1.728,2.452a2.724,2.724,0,0,0,.724,2.142,1.288,1.288,0,0,0,.89.362,1.852,1.852,0,0,0,1.112-.414V40.073a1.961,1.961,0,0,0-1.014-.285Z" transform="translate(-83.075 -18.722)"/><path class="a" d="M188.863,42.636H187.27V32.9h1.593Z" transform="translate(-90.387 -15.879)"/><path class="a" d="M196.683,45.746a3.449,3.449,0,0,1-.026-6.9,2.73,2.73,0,0,1,2.918,2.83,4.474,4.474,0,0,1-.036.642l-4.506.083c.124,1.381.911,2.344,1.966,2.344a3.844,3.844,0,0,0,1.95-.647l.45.776A4.5,4.5,0,0,1,196.683,45.746Zm1.149-4.356c0-1.035-.517-1.6-1.164-1.6-.76,0-1.428.652-1.552,1.728Z" transform="translate(-93.327 -18.751)"/><path class="a" d="M219.906,42.636h-.352a1.474,1.474,0,0,0-.678-.186,1.935,1.935,0,0,0-.61.166,3.652,3.652,0,0,1-1.3.259,3.011,3.011,0,0,1-2.716-1.5,3.844,3.844,0,0,1-.44-1.9,3.4,3.4,0,0,1,1.33-2.851,3.471,3.471,0,0,1,2.038-.652,3.264,3.264,0,0,1,1.128.186V32.9h1.6Zm-1.6-5.546a3.171,3.171,0,0,0-.812-.135c-1.035,0-2.028.75-2.028,2.478,0,1.1.476,2.478,1.738,2.478a2.069,2.069,0,0,0,1.1-.352Z" transform="translate(-103.193 -15.879)"/><path class="a" d="M229,37.272a2.545,2.545,0,0,0,.874-1.552.823.823,0,0,0-.74-.786l-.047-.124a.957.957,0,0,1,.947-.89,1.035,1.035,0,0,1,1.035,1.035,4.4,4.4,0,0,1-1.728,2.664Z" transform="translate(-110.528 -16.372)"/><path class="a" d="M239.912,45.479h-.367a1.278,1.278,0,0,0-.636-.186,1.816,1.816,0,0,0-.6.166,3.621,3.621,0,0,1-1.288.259,2.964,2.964,0,0,1-2.67-1.5,4.009,4.009,0,0,1-.424-1.9,3.456,3.456,0,0,1,1.34-2.9,3.373,3.373,0,0,1,1.992-.626,5.091,5.091,0,0,1,1.552.29l1.1-.248Zm-2.587-5.691c-.885,0-1.728.776-1.728,2.452a2.707,2.707,0,0,0,.729,2.142,1.273,1.273,0,0,0,.89.362,1.868,1.868,0,0,0,1.112-.414V40.073a1.992,1.992,0,0,0-1.024-.285Z" transform="translate(-112.904 -18.722)"/><path class="a" d="M254.373,44.862a3.839,3.839,0,0,1-2.473.885,3.264,3.264,0,0,1-3.321-3.363,3.312,3.312,0,0,1,3.358-3.533,4.713,4.713,0,0,1,2.375.714l-.626,1.242c-.786-.75-1.2-1.035-1.826-1.035-.714,0-1.614.724-1.614,2.276,0,1.728.978,2.68,1.94,2.68a3.373,3.373,0,0,0,1.785-.626Z" transform="translate(-119.977 -18.751)"/><path class="a" d="M266.2,42.964a4.532,4.532,0,0,1-2.276.75,1.412,1.412,0,0,1-1.092-.44A1.914,1.914,0,0,1,262.475,42V35.178l1.552-.388v2.266h1.821V38h-1.78v3.87c0,.486.248.647.574.647a3.7,3.7,0,0,0,1.278-.362Z" transform="translate(-126.682 -16.792)"/><path class="a" d="M272.866,35.192a.926.926,0,1,1,.926-.926A.926.926,0,0,1,272.866,35.192Zm-.786,7.657V36.356h1.588v6.493Z" transform="translate(-131.253 -16.092)"/><path class="a" d="M283.041,33.985a3.1,3.1,0,0,0-1.335-.476c-.616,0-.952.517-.952,1.976v.466h1.775V36.9h-1.775v5.546H279.2V35.662a3.943,3.943,0,0,1,.362-1.93,2.437,2.437,0,0,1,2.266-1.226,5.324,5.324,0,0,1,1.666.3Z" transform="translate(-134.754 -15.687)"/><path class="a" d="M291.864,40.775a2.711,2.711,0,0,0-1.738-.988c-.579,0-.993.285-.993.714,0,.548.7.735,1.428,1.035,1.035.4,2.214.916,2.214,2.116,0,1.324-1.3,2.1-2.638,2.1a5.5,5.5,0,0,1-2.706-.823l.652-1.164a3.477,3.477,0,0,0,2.069,1.035c.636,0,1.076-.29,1.076-.74,0-.517-.776-.786-1.516-1.112-.962-.424-2.126-.916-2.126-2.106s1.3-2,2.618-2a5.122,5.122,0,0,1,2.354.688Z" transform="translate(-138.73 -18.746)"/></svg>