<?xml version="1.0" standalone="no"?>
<!DOCTYPE svg PUBLIC "-//W3C//DTD SVG 1.1//EN" "http://www.w3.org/Graphics/SVG/1.1/DTD/svg11.dtd" >
<svg xmlns="http://www.w3.org/2000/svg" xmlns:xlink="http://www.w3.org/1999/xlink" version="1.1">
<metadata>
Created by FontForge 20190801 at Thu Apr  9 21:56:25 2020
 By Jimmy Wärting
Copyright \(c\) 2019 The Manufacturers Life Insurance Company \(Manulife\) _ All Rights Reserved. The information contained herein, including without limitation font and typeface, is proprietary to Manulife and shall not be reproduced, copied in whole or in part, adapted, modified, or disseminated without the express written consent of Manulife.
</metadata>
<defs>
<font id="ManulifeJHSansOptimized" horiz-adv-x="592" >
  <font-face 
    font-family="Manulife JH Sans Optimized"
    font-weight="400"
    font-stretch="normal"
    units-per-em="1000"
    panose-1="0 0 5 0 0 0 0 0 0 0"
    ascent="800"
    descent="-200"
    x-height="522"
    cap-height="741"
    bbox="-384 -238 1000 1050"
    underline-thickness="67"
    underline-position="-171"
    stemh="64"
    stemv="74"
    unicode-range="U+000D-FB02"
  />
<missing-glyph horiz-adv-x="663" 
d="M95 0v741h473v-741h-473z" />
    <glyph glyph-name="f_i" unicode="fi" horiz-adv-x="525" 
d="M99 0v460h-78v62h78v91c0 89 44 143 130 143c32 0 62 -7 82 -16l-20 -61c-14 7 -33 13 -56 13c-45 0 -62 -32 -62 -76v-94h120l-11 -62h-109v-460h-74zM406 650c-28 0 -52 25 -52 53c0 29 24 53 52 53s53 -24 53 -53c0 -28 -25 -53 -53 -53zM370 0v522h74v-522h-74z" />
    <glyph glyph-name="f_l" unicode="fl" horiz-adv-x="525" 
d="M371 0v736l74 43v-779h-74zM99 0v460h-78v62h78v91c0 89 44 143 130 143c32 0 62 -7 82 -16l-20 -61c-14 7 -33 13 -56 13c-45 0 -62 -32 -62 -76v-94h120l-11 -62h-109v-460h-74z" />
    <glyph glyph-name=".notdef" horiz-adv-x="663" 
d="M95 0v741h473v-741h-473z" />
    <glyph glyph-name="NULL" horiz-adv-x="0" 
 />
    <glyph glyph-name="CR" unicode="&#xd;" horiz-adv-x="296" 
 />
    <glyph glyph-name="space" unicode=" " horiz-adv-x="222" 
 />
    <glyph glyph-name="space" unicode="&#xa0;" horiz-adv-x="222" 
 />
    <glyph glyph-name="A" unicode="A" horiz-adv-x="558" 
d="M477 0l-72 231h-254l-70 -231h-81l238 741h77l243 -741h-81zM170 294h215l-108 346h-2z" />
    <glyph glyph-name="Aacute" unicode="&#xc1;" horiz-adv-x="558" 
d="M403 942l-98 -137h-52l67 137h83zM477 0l-72 231h-254l-70 -231h-81l238 741h77l243 -741h-81zM170 294h215l-108 346h-2z" />
    <glyph glyph-name="Abreve" unicode="&#x102;" horiz-adv-x="558" 
d="M279 797c-84 0 -138 62 -152 145h53c11 -49 42 -92 99 -92s90 43 100 92h52c-13 -83 -69 -145 -152 -145zM477 0l-72 231h-254l-70 -231h-81l238 741h77l243 -741h-81zM170 294h215l-108 346h-2z" />
    <glyph glyph-name="uni1EAE" unicode="&#x1eae;" horiz-adv-x="558" 
d="M404 1041l-101 -105h-52l69 105h84zM279 797c-70 0 -122 41 -137 108h52c12 -39 42 -56 85 -56c42 0 74 17 85 56h52c-15 -67 -72 -108 -137 -108zM477 0l-72 231h-254l-70 -231h-81l238 741h77l243 -741h-81zM170 294h215l-108 346h-2z" />
    <glyph glyph-name="uni1EB6" unicode="&#x1eb6;" horiz-adv-x="558" 
d="M279 797c-84 0 -138 62 -152 145h53c11 -49 42 -92 99 -92s90 43 100 92h52c-13 -83 -69 -145 -152 -145zM558 0h-81l-72 231h-254l-70 -231h-81l238 741h77zM170 294h215l-108 346h-2zM278 -72c27 0 49 -21 49 -48s-22 -48 -49 -48s-48 21 -48 48s21 48 48 48z" />
    <glyph glyph-name="uni1EB0" unicode="&#x1eb0;" horiz-adv-x="558" 
d="M307 936h-52l-101 105h84zM279 797c-70 0 -122 41 -137 108h52c12 -39 42 -56 85 -56c42 0 74 17 85 56h52c-15 -67 -72 -108 -137 -108zM477 0l-72 231h-254l-70 -231h-81l238 741h77l243 -741h-81zM170 294h215l-108 346h-2z" />
    <glyph glyph-name="uni1EB2" unicode="&#x1eb2;" horiz-adv-x="558" 
d="M256 1006c-27 0 -52 -7 -78 -21l-10 43c28 14 61 22 95 22c64 0 96 -27 96 -64c0 -23 -15 -46 -55 -72h-61c44 31 57 48 57 63s-14 29 -44 29zM279 797c-70 0 -122 41 -137 108h52c12 -39 42 -56 85 -56c42 0 74 17 85 56h52c-15 -67 -72 -108 -137 -108zM477 0l-72 231
h-254l-70 -231h-81l238 741h77l243 -741h-81zM170 294h215l-108 346h-2z" />
    <glyph glyph-name="uni1EB4" unicode="&#x1eb4;" horiz-adv-x="558" 
d="M219 986c-17 0 -35 -16 -53 -46l-33 24c27 45 56 69 90 69c43 0 83 -41 115 -41c18 0 36 15 54 46l33 -25c-27 -44 -57 -68 -91 -68c-42 0 -82 41 -115 41zM279 849c42 0 73 17 85 56h52c-15 -67 -73 -108 -137 -108c-70 0 -122 41 -137 108h52c12 -39 42 -56 85 -56z
M477 0l-72 231h-254l-70 -231h-81l238 741h77l243 -741h-81zM170 294h215l-108 346h-2z" />
    <glyph glyph-name="Acircumflex" unicode="&#xc2;" horiz-adv-x="558" 
d="M278 895l-78 -90h-57l99 137h74l99 -137h-56zM477 0l-72 231h-254l-70 -231h-81l238 741h77l243 -741h-81zM170 294h215l-108 346h-2z" />
    <glyph glyph-name="uni1EA4" unicode="&#x1ea4;" horiz-adv-x="558" 
d="M404 1041l-102 -105h-51l69 105h84zM278 867l-76 -62h-59l99 99h74l99 -99h-57zM477 0l-72 231h-254l-70 -231h-81l238 741h77l243 -741h-81zM170 294h215l-108 346h-2z" />
    <glyph glyph-name="uni1EAC" unicode="&#x1eac;" horiz-adv-x="558" 
d="M278 895l-78 -90h-57l99 137h74l99 -137h-56zM558 0h-81l-72 231h-254l-70 -231h-81l238 741h77zM170 294h215l-108 346h-2zM278 -72c27 0 49 -21 49 -48s-22 -48 -49 -48s-48 21 -48 48s21 48 48 48z" />
    <glyph glyph-name="uni1EA6" unicode="&#x1ea6;" horiz-adv-x="558" 
d="M306 936h-52l-101 105h84zM278 867l-76 -62h-59l99 99h74l99 -99h-57zM477 0l-72 231h-254l-70 -231h-81l238 741h77l243 -741h-81zM170 294h215l-108 346h-2z" />
    <glyph glyph-name="uni1EA8" unicode="&#x1ea8;" horiz-adv-x="558" 
d="M375 991c-27 0 -52 -6 -77 -20l-11 43c28 14 61 22 94 22c65 0 98 -27 98 -64c0 -23 -17 -46 -56 -72h-62c44 31 58 48 58 63c0 14 -14 28 -44 28zM278 867l-76 -62h-59l99 99h74l99 -99h-57zM477 0l-72 231h-254l-70 -231h-81l238 741h77l243 -741h-81zM170 294h215
l-108 346h-2z" />
    <glyph glyph-name="uni1EAA" unicode="&#x1eaa;" horiz-adv-x="558" 
d="M219 986c-18 0 -35 -16 -54 -46l-32 24c26 45 56 69 90 69c42 0 82 -41 115 -41c17 0 35 15 53 46l34 -25c-27 -44 -57 -68 -91 -68c-42 0 -83 41 -115 41zM242 904h74l98 -99h-56l-79 62l-77 -62h-59zM477 0l-72 231h-254l-70 -231h-81l238 741h77l243 -741h-81z
M170 294h215l-108 346h-2z" />
    <glyph glyph-name="Adieresis" unicode="&#xc4;" horiz-adv-x="558" 
d="M191 838c-25 0 -46 21 -46 46c0 27 21 48 46 48c27 0 48 -21 48 -48c0 -25 -21 -46 -48 -46zM366 838c-26 0 -47 21 -47 46c0 27 21 48 47 48c27 0 47 -21 47 -48c0 -25 -20 -46 -47 -46zM477 0l-72 231h-254l-70 -231h-81l238 741h77l243 -741h-81zM170 294h215
l-108 346h-2z" />
    <glyph glyph-name="uni1EA0" unicode="&#x1ea0;" horiz-adv-x="558" 
d="M558 0h-81l-72 231h-254l-70 -231h-81l238 741h77zM170 294h215l-108 346h-2zM278 -72c27 0 49 -21 49 -48s-22 -48 -49 -48s-48 21 -48 48s21 48 48 48z" />
    <glyph glyph-name="Agrave" unicode="&#xc0;" horiz-adv-x="558" 
d="M305 805h-51l-99 137h83zM477 0l-72 231h-254l-70 -231h-81l238 741h77l243 -741h-81zM170 294h215l-108 346h-2z" />
    <glyph glyph-name="uni1EA2" unicode="&#x1ea2;" horiz-adv-x="558" 
d="M267 905c-27 0 -53 -6 -78 -20l-10 43c27 14 61 22 94 22c64 0 97 -27 97 -67c0 -23 -17 -50 -61 -78h-59c47 34 61 52 61 69s-14 31 -44 31zM477 0l-72 231h-254l-70 -231h-81l238 741h77l243 -741h-81zM170 294h215l-108 346h-2z" />
    <glyph glyph-name="Amacron" unicode="&#x100;" horiz-adv-x="558" 
d="M438 910v-55h-319v55h319zM477 0l-72 231h-254l-70 -231h-81l238 741h77l243 -741h-81zM170 294h215l-108 346h-2z" />
    <glyph glyph-name="Aogonek" unicode="&#x104;" horiz-adv-x="558" 
d="M548 0c-68 -34 -104 -73 -104 -109c0 -27 18 -38 42 -38c20 0 40 6 58 17v-45c-20 -12 -41 -17 -64 -17c-45 0 -88 21 -88 76c0 43 31 84 85 117l-72 230h-254l-70 -231h-81l238 741h77l243 -741h-10zM170 294h215l-108 346h-2z" />
    <glyph glyph-name="Aring" unicode="&#xc5;" horiz-adv-x="558" 
d="M477 0l-72 231h-254l-70 -231h-81l228 710c-27 16 -45 45 -45 79c0 50 42 92 93 92c50 0 92 -42 92 -92c0 -33 -17 -62 -43 -78l233 -711h-81zM276 836c-27 0 -48 -23 -48 -47c0 -26 21 -48 48 -48c25 0 47 22 47 48c0 24 -22 47 -47 47zM170 294h215l-108 346h-2z" />
    <glyph glyph-name="Atilde" unicode="&#xc3;" horiz-adv-x="558" 
d="M217 894c-29 0 -49 -27 -63 -51l-31 29c18 30 51 74 97 74c45 0 85 -47 123 -47c27 0 47 22 59 47l33 -24c-16 -30 -48 -78 -91 -78c-44 0 -91 50 -127 50zM477 0l-72 231h-254l-70 -231h-81l238 741h77l243 -741h-81zM170 294h215l-108 346h-2z" />
    <glyph glyph-name="AE" unicode="&#xc6;" horiz-adv-x="894" 
d="M523 64h340v-64h-418v231h-241l-122 -231h-85l406 741h439v-64h-319v-260h237v-64h-237v-289zM238 294h207v383h-4z" />
    <glyph glyph-name="B" unicode="B" horiz-adv-x="595" 
d="M90 0v741h189c203 0 254 -102 254 -194c0 -77 -42 -135 -115 -158c83 -28 132 -91 132 -181c0 -97 -55 -208 -243 -208h-217zM168 417h97c90 0 189 16 189 128c0 111 -93 134 -182 134h-104v-262zM168 62h108c158 0 195 64 195 145c0 87 -48 150 -194 150h-109v-295z" />
    <glyph glyph-name="C" unicode="C" horiz-adv-x="601" 
d="M325 -15c-167 0 -276 149 -276 385c0 241 105 385 276 385c123 0 203 -79 233 -195l-68 -36c-19 89 -69 168 -165 168c-116 0 -195 -117 -195 -322c0 -193 80 -322 195 -322c95 0 146 87 166 171l69 -38c-29 -113 -109 -196 -235 -196z" />
    <glyph glyph-name="Cacute" unicode="&#x106;" horiz-adv-x="601" 
d="M298 805l67 137h83l-98 -137h-52zM325 -15c-167 0 -276 149 -276 385c0 241 105 385 276 385c123 0 203 -79 233 -195l-68 -36c-19 89 -69 168 -165 168c-116 0 -195 -117 -195 -322c0 -193 80 -322 195 -322c95 0 146 87 166 171l69 -38c-29 -113 -109 -196 -235 -196z
" />
    <glyph glyph-name="Ccaron" unicode="&#x10c;" horiz-adv-x="601" 
d="M288 805l-99 137h57l78 -90l81 90h56l-99 -137h-74zM325 -15c-167 0 -276 149 -276 385c0 241 105 385 276 385c123 0 203 -79 233 -195l-68 -36c-19 89 -69 168 -165 168c-116 0 -195 -117 -195 -322c0 -193 80 -322 195 -322c95 0 146 87 166 171l69 -38
c-29 -113 -109 -196 -235 -196z" />
    <glyph glyph-name="Ccedilla" unicode="&#xc7;" horiz-adv-x="601" 
d="M560 181c-27 -106 -99 -186 -212 -195l-22 -34c45 -9 91 -25 91 -75c0 -54 -50 -79 -104 -79c-29 0 -70 7 -88 19l12 43c14 -10 48 -20 74 -20c29 0 49 11 49 34c0 32 -39 42 -106 47l44 65c-152 16 -249 161 -249 384c0 241 105 385 276 385c123 0 203 -79 233 -195
l-68 -36c-19 89 -69 168 -165 168c-116 0 -195 -117 -195 -322c0 -193 80 -322 195 -322c95 0 146 87 166 171z" />
    <glyph glyph-name="Ccircumflex" unicode="&#x108;" horiz-adv-x="601" 
d="M189 805l99 137h74l99 -137h-56l-81 90l-78 -90h-57zM325 -15c-167 0 -276 149 -276 385c0 241 105 385 276 385c123 0 203 -79 233 -195l-68 -36c-19 89 -69 168 -165 168c-116 0 -195 -117 -195 -322c0 -193 80 -322 195 -322c95 0 146 87 166 171l69 -38
c-29 -113 -109 -196 -235 -196z" />
    <glyph glyph-name="Cdotaccent" unicode="&#x10a;" horiz-adv-x="601" 
d="M324 836c-27 0 -48 22 -48 48c0 27 21 49 48 49s49 -22 49 -49c0 -26 -22 -48 -49 -48zM325 -15c-167 0 -276 149 -276 385c0 241 105 385 276 385c123 0 203 -79 233 -195l-68 -36c-19 89 -69 168 -165 168c-116 0 -195 -117 -195 -322c0 -193 80 -322 195 -322
c95 0 146 87 166 171l69 -38c-29 -113 -109 -196 -235 -196z" />
    <glyph glyph-name="D" unicode="D" horiz-adv-x="630" 
d="M90 0v741h170c232 0 327 -152 327 -369c0 -219 -105 -372 -319 -372h-178zM168 64h101c162 0 237 116 237 311c0 186 -74 302 -241 302h-97v-613z" />
    <glyph glyph-name="Eth" unicode="&#xd0;" horiz-adv-x="630" 
d="M260 741c232 0 327 -152 327 -369c0 -219 -105 -372 -319 -372h-178v362h-76v57h76v322h170zM269 64c162 0 237 116 237 311c0 186 -74 302 -241 302h-97v-258h151v-57h-151v-298h101z" />
    <glyph glyph-name="Dcaron" unicode="&#x10e;" horiz-adv-x="630" 
d="M268 805l-99 137h57l78 -90l81 90h56l-99 -137h-74zM90 0v741h170c232 0 327 -152 327 -369c0 -219 -105 -372 -319 -372h-178zM168 64h101c162 0 237 116 237 311c0 186 -74 302 -241 302h-97v-613z" />
    <glyph glyph-name="Dcroat" unicode="&#x110;" horiz-adv-x="630" 
d="M260 741c232 0 327 -152 327 -369c0 -219 -105 -372 -319 -372h-178v362h-76v57h76v322h170zM269 64c162 0 237 116 237 311c0 186 -74 302 -241 302h-97v-258h151v-57h-151v-298h101z" />
    <glyph glyph-name="E" unicode="E" horiz-adv-x="542" 
d="M90 0v741h400v-64h-322v-260h240v-64h-240v-289h343v-64h-421z" />
    <glyph glyph-name="Eacute" unicode="&#xc9;" horiz-adv-x="542" 
d="M265 805l67 137h83l-98 -137h-52zM90 0v741h400v-64h-322v-260h240v-64h-240v-289h343v-64h-421z" />
    <glyph glyph-name="Ebreve" unicode="&#x114;" horiz-adv-x="542" 
d="M292 797c-84 0 -138 62 -152 145h53c11 -49 42 -92 99 -92s90 43 100 92h52c-13 -83 -69 -145 -152 -145zM90 0v741h400v-64h-322v-260h240v-64h-240v-289h343v-64h-421z" />
    <glyph glyph-name="Ecaron" unicode="&#x11a;" horiz-adv-x="542" 
d="M255 805l-99 137h57l78 -90l81 90h56l-99 -137h-74zM90 0v741h400v-64h-322v-260h240v-64h-240v-289h343v-64h-421z" />
    <glyph glyph-name="Ecircumflex" unicode="&#xca;" horiz-adv-x="542" 
d="M156 805l99 137h74l99 -137h-56l-81 90l-78 -90h-57zM90 0v741h400v-64h-322v-260h240v-64h-240v-289h343v-64h-421z" />
    <glyph glyph-name="uni1EBE" unicode="&#x1ebe;" horiz-adv-x="542" 
d="M264 936l69 105h84l-102 -105h-51zM156 805l99 99h74l99 -99h-57l-80 62l-76 -62h-59zM90 0v741h400v-64h-322v-260h240v-64h-240v-289h343v-64h-421z" />
    <glyph glyph-name="uni1EC6" unicode="&#x1ec6;" horiz-adv-x="542" 
d="M156 805l99 137h74l99 -137h-56l-81 90l-78 -90h-57zM90 0v741h400v-64h-322v-260h240v-64h-240v-289h343v-64h-421zM301 -168c-27 0 -48 21 -48 48s21 48 48 48s49 -21 49 -48s-22 -48 -49 -48z" />
    <glyph glyph-name="uni1EC0" unicode="&#x1ec0;" horiz-adv-x="542" 
d="M267 936l-101 105h84l69 -105h-52zM156 805l99 99h74l99 -99h-57l-80 62l-76 -62h-59zM90 0v741h400v-64h-322v-260h240v-64h-240v-289h343v-64h-421z" />
    <glyph glyph-name="uni1EC2" unicode="&#x1ec2;" horiz-adv-x="542" 
d="M374 900c44 31 58 48 58 63c0 14 -14 28 -44 28c-27 0 -52 -6 -77 -20l-11 43c28 14 61 22 94 22c65 0 98 -27 98 -64c0 -23 -17 -46 -56 -72h-62zM156 805l99 99h74l99 -99h-57l-80 62l-76 -62h-59zM90 0v741h400v-64h-322v-260h240v-64h-240v-289h343v-64h-421z" />
    <glyph glyph-name="uni1EC4" unicode="&#x1ec4;" horiz-adv-x="542" 
d="M178 940l-32 24c26 45 56 69 90 69c42 0 82 -41 115 -41c17 0 35 15 53 46l34 -25c-27 -44 -57 -68 -91 -68c-42 0 -83 41 -115 41c-18 0 -35 -16 -54 -46zM156 805l99 99h74l98 -99h-56l-79 62l-77 -62h-59zM90 0v741h400v-64h-322v-260h240v-64h-240v-289h343v-64h-421
z" />
    <glyph glyph-name="Edieresis" unicode="&#xcb;" horiz-adv-x="542" 
d="M204 838c-25 0 -46 21 -46 46c0 27 21 48 46 48c27 0 48 -21 48 -48c0 -25 -21 -46 -48 -46zM379 838c-26 0 -47 21 -47 46c0 27 21 48 47 48c27 0 47 -21 47 -48c0 -25 -20 -46 -47 -46zM90 0v741h400v-64h-322v-260h240v-64h-240v-289h343v-64h-421z" />
    <glyph glyph-name="Edotaccent" unicode="&#x116;" horiz-adv-x="542" 
d="M291 836c-27 0 -48 22 -48 48c0 27 21 49 48 49s49 -22 49 -49c0 -26 -22 -48 -49 -48zM90 0v741h400v-64h-322v-260h240v-64h-240v-289h343v-64h-421z" />
    <glyph glyph-name="uni1EB8" unicode="&#x1eb8;" horiz-adv-x="542" 
d="M90 0v741h400v-64h-322v-260h240v-64h-240v-289h343v-64h-421zM301 -168c-27 0 -48 21 -48 48s21 48 48 48s49 -21 49 -48s-22 -48 -49 -48z" />
    <glyph glyph-name="Egrave" unicode="&#xc8;" horiz-adv-x="542" 
d="M267 805l-99 137h83l67 -137h-51zM90 0v741h400v-64h-322v-260h240v-64h-240v-289h343v-64h-421z" />
    <glyph glyph-name="uni1EBA" unicode="&#x1eba;" horiz-adv-x="542" 
d="M263 805c47 34 61 52 61 69s-14 31 -44 31c-27 0 -53 -6 -78 -20l-10 43c27 14 61 22 94 22c64 0 97 -27 97 -67c0 -23 -17 -50 -61 -78h-59zM90 0v741h400v-64h-322v-260h240v-64h-240v-289h343v-64h-421z" />
    <glyph glyph-name="Emacron" unicode="&#x112;" horiz-adv-x="542" 
d="M132 855v55h319v-55h-319zM90 0v741h400v-64h-322v-260h240v-64h-240v-289h343v-64h-421z" />
    <glyph glyph-name="Eogonek" unicode="&#x118;" horiz-adv-x="542" 
d="M511 0c-68 -34 -104 -73 -104 -109c0 -27 18 -38 42 -38c20 0 40 6 58 17v-45c-20 -12 -41 -17 -64 -17c-45 0 -88 21 -88 76c0 43 30 84 83 116h-348v741h400v-64h-322v-260h240v-64h-240v-289h343v-64z" />
    <glyph glyph-name="uni1EBC" unicode="&#x1ebc;" horiz-adv-x="542" 
d="M166 843l-31 29c18 30 51 74 97 74c45 0 85 -47 123 -47c27 0 47 22 59 47l33 -24c-16 -30 -48 -78 -91 -78c-44 0 -91 50 -127 50c-29 0 -49 -27 -63 -51zM90 0v741h400v-64h-322v-260h240v-64h-240v-289h343v-64h-421z" />
    <glyph glyph-name="F" unicode="F" horiz-adv-x="485" 
d="M90 0v741h378v-64h-300v-260h228v-64h-228v-353h-78z" />
    <glyph glyph-name="G" unicode="G" horiz-adv-x="621" 
d="M325 -14c-167 0 -276 148 -276 384c0 242 105 385 277 385c125 0 202 -80 231 -193l-66 -33c-20 85 -67 163 -166 163c-116 0 -195 -117 -195 -322c0 -197 79 -321 195 -321c98 0 165 78 165 191v47h-148v63h227v-350h-63l-5 89c-33 -67 -98 -103 -176 -103z" />
    <glyph glyph-name="Gbreve" unicode="&#x11e;" horiz-adv-x="621" 
d="M327 797c-84 0 -138 62 -152 145h53c11 -49 42 -92 99 -92s90 43 100 92h52c-13 -83 -69 -145 -152 -145zM325 -14c-167 0 -276 148 -276 384c0 242 105 385 277 385c125 0 202 -80 231 -193l-66 -33c-20 85 -67 163 -166 163c-116 0 -195 -117 -195 -322
c0 -197 79 -321 195 -321c98 0 165 78 165 191v47h-148v63h227v-350h-63l-5 89c-33 -67 -98 -103 -176 -103z" />
    <glyph glyph-name="Gcircumflex" unicode="&#x11c;" horiz-adv-x="621" 
d="M192 805l99 137h74l99 -137h-56l-81 90l-78 -90h-57zM325 -14c-167 0 -276 148 -276 384c0 242 105 385 277 385c125 0 202 -80 231 -193l-66 -33c-20 85 -67 163 -166 163c-116 0 -195 -117 -195 -322c0 -197 79 -321 195 -321c98 0 165 78 165 191v47h-148v63h227v-350
h-63l-5 89c-33 -67 -98 -103 -176 -103z" />
    <glyph glyph-name="uni0122" unicode="&#x122;" horiz-adv-x="621" 
d="M325 -14c-167 0 -276 148 -276 384c0 242 105 385 277 385c125 0 202 -80 231 -193l-66 -33c-20 85 -67 163 -166 163c-116 0 -195 -117 -195 -322c0 -197 79 -321 195 -321c98 0 165 78 165 191v47h-148v63h227v-350h-63l-5 89c-33 -67 -98 -103 -176 -103zM218 -195
l67 137h83l-98 -137h-52z" />
    <glyph glyph-name="Gdotaccent" unicode="&#x120;" horiz-adv-x="621" 
d="M326 836c-27 0 -48 22 -48 48c0 27 21 49 48 49s49 -22 49 -49c0 -26 -22 -48 -49 -48zM325 -14c-167 0 -276 148 -276 384c0 242 105 385 277 385c125 0 202 -80 231 -193l-66 -33c-20 85 -67 163 -166 163c-116 0 -195 -117 -195 -322c0 -197 79 -321 195 -321
c98 0 165 78 165 191v47h-148v63h227v-350h-63l-5 89c-33 -67 -98 -103 -176 -103z" />
    <glyph glyph-name="H" unicode="H" horiz-adv-x="653" 
d="M90 0v741h78v-315h317v315h78v-741h-78v362h-317v-362h-78z" />
    <glyph glyph-name="Hbar" unicode="&#x126;" horiz-adv-x="652" 
d="M630 617v-57h-67v-560h-78v362h-317v-362h-78v560h-68v57h68v124h78v-124h317v124h78v-124h67zM485 426v134h-317v-134h317z" />
    <glyph glyph-name="Hcircumflex" unicode="&#x124;" horiz-adv-x="653" 
d="M191 805l99 137h74l99 -137h-56l-81 90l-78 -90h-57zM90 0v741h78v-315h317v315h78v-741h-78v362h-317v-362h-78z" />
    <glyph glyph-name="I" unicode="I" horiz-adv-x="258" 
d="M90 0v741h78v-741h-78z" />
    <glyph glyph-name="IJ" unicode="&#x132;" horiz-adv-x="704" 
d="M90 0v741h78v-741h-78zM430 -14c-101 0 -161 60 -153 163l72 31c-8 -69 20 -126 83 -126c64 0 108 41 108 142v545h78v-538c0 -161 -86 -217 -188 -217z" />
    <glyph glyph-name="Iacute" unicode="&#xcd;" horiz-adv-x="258" 
d="M103 805l67 137h83l-98 -137h-52zM90 0v741h78v-741h-78z" />
    <glyph glyph-name="Ibreve" unicode="&#x12c;" horiz-adv-x="258" 
d="M130 797c-84 0 -138 62 -152 145h53c11 -49 42 -92 99 -92s90 43 100 92h52c-13 -83 -69 -145 -152 -145zM90 0v741h78v-741h-78z" />
    <glyph glyph-name="Icircumflex" unicode="&#xce;" horiz-adv-x="258" 
d="M-6 805l99 137h74l99 -137h-56l-81 90l-78 -90h-57zM90 0v741h78v-741h-78z" />
    <glyph glyph-name="Idieresis" unicode="&#xcf;" horiz-adv-x="258" 
d="M42 838c-25 0 -46 21 -46 46c0 27 21 48 46 48c27 0 48 -21 48 -48c0 -25 -21 -46 -48 -46zM217 838c-26 0 -47 21 -47 46c0 27 21 48 47 48c27 0 47 -21 47 -48c0 -25 -20 -46 -47 -46zM90 0v741h78v-741h-78z" />
    <glyph glyph-name="Idotaccent" unicode="&#x130;" horiz-adv-x="258" 
d="M129 836c-27 0 -48 22 -48 48c0 27 21 49 48 49s49 -22 49 -49c0 -26 -22 -48 -49 -48zM90 0v741h78v-741h-78z" />
    <glyph glyph-name="uni1ECA" unicode="&#x1eca;" horiz-adv-x="258" 
d="M90 0v741h78v-741h-78zM129 -168c-27 0 -48 21 -48 48s21 48 48 48s49 -21 49 -48s-22 -48 -49 -48z" />
    <glyph glyph-name="Igrave" unicode="&#xcc;" horiz-adv-x="258" 
d="M105 805l-99 137h83l67 -137h-51zM90 0v741h78v-741h-78z" />
    <glyph glyph-name="uni1EC8" unicode="&#x1ec8;" horiz-adv-x="258" 
d="M101 805c47 34 61 52 61 69s-14 31 -44 31c-27 0 -53 -6 -78 -20l-10 43c27 14 61 22 94 22c64 0 97 -27 97 -67c0 -23 -17 -50 -61 -78h-59zM90 0v741h78v-741h-78z" />
    <glyph glyph-name="Imacron" unicode="&#x12a;" horiz-adv-x="258" 
d="M-30 855v55h319v-55h-319zM90 0v741h78v-741h-78z" />
    <glyph glyph-name="Iogonek" unicode="&#x12e;" horiz-adv-x="258" 
d="M90 741h78v-741h-9c-68 -34 -104 -73 -104 -109c0 -27 18 -38 42 -38c20 0 40 6 58 17v-45c-20 -12 -41 -17 -64 -17c-45 0 -88 21 -88 76c0 44 32 86 87 118v739z" />
    <glyph glyph-name="Itilde" unicode="&#x128;" horiz-adv-x="258" 
d="M4 843l-31 29c18 30 51 74 97 74c45 0 85 -47 123 -47c27 0 47 22 59 47l33 -24c-16 -30 -48 -78 -91 -78c-44 0 -91 50 -127 50c-29 0 -49 -27 -63 -51zM90 0v741h78v-741h-78z" />
    <glyph glyph-name="J" unicode="J" horiz-adv-x="446" 
d="M172 -14c-101 0 -161 60 -153 163l72 31c-8 -69 20 -126 83 -126c64 0 108 41 108 142v545h78v-538c0 -161 -86 -217 -188 -217z" />
    <glyph glyph-name="Jcircumflex" unicode="&#x134;" horiz-adv-x="446" 
d="M185 805l99 137h74l99 -137h-56l-81 90l-78 -90h-57zM172 -14c-101 0 -161 60 -153 163l72 31c-8 -69 20 -126 83 -126c64 0 108 41 108 142v545h78v-538c0 -161 -86 -217 -188 -217z" />
    <glyph glyph-name="K" unicode="K" horiz-adv-x="582" 
d="M579 0h-89l-202 400l-120 -156v-244h-78v741h78v-388l295 388h88l-209 -275z" />
    <glyph glyph-name="uni0136" unicode="&#x136;" horiz-adv-x="582" 
d="M342 466l237 -466h-89l-202 400l-120 -156v-244h-78v741h78v-388l295 388h88zM220 -195l67 137h83l-98 -137h-52z" />
    <glyph glyph-name="L" unicode="L" horiz-adv-x="497" 
d="M90 0v741h78v-677h315v-64h-393z" />
    <glyph glyph-name="Lacute" unicode="&#x139;" horiz-adv-x="497" 
d="M101 805l67 137h83l-98 -137h-52zM90 0v741h78v-677h315v-64h-393z" />
    <glyph glyph-name="Lcaron" unicode="&#x13d;" horiz-adv-x="497" 
d="M258 599l9 180h74l-30 -180h-53zM90 0v741h78v-677h315v-64h-393z" />
    <glyph glyph-name="uni013B" unicode="&#x13b;" horiz-adv-x="497" 
d="M90 0v741h78v-677h315v-64h-393zM177 -195l67 137h83l-98 -137h-52z" />
    <glyph glyph-name="Ldot" unicode="&#x13f;" horiz-adv-x="503" 
d="M90 0v741h78v-677h315v-64h-393zM373 330c-32 0 -57 25 -57 58c0 32 25 59 57 59c33 0 59 -27 59 -59c0 -33 -26 -58 -59 -58z" />
    <glyph glyph-name="Lslash" unicode="&#x141;" horiz-adv-x="497" 
d="M168 64h315v-64h-393v301l-71 -34l-22 45l93 45v384h78v-345l171 83l22 -46l-193 -94v-275z" />
    <glyph glyph-name="M" unicode="M" horiz-adv-x="773" 
d="M90 0v741h94l202 -369h2l204 369h91v-741h-77v619h-2l-218 -394l-217 394h-2v-619h-77z" />
    <glyph glyph-name="N" unicode="N" horiz-adv-x="684" 
d="M90 0v741h89l336 -596h2v596h77v-741h-79l-345 613h-2v-613h-78z" />
    <glyph glyph-name="Nacute" unicode="&#x143;" horiz-adv-x="684" 
d="M323 805l67 137h83l-98 -137h-52zM90 0v741h89l336 -596h2v596h77v-741h-79l-345 613h-2v-613h-78z" />
    <glyph glyph-name="Ncaron" unicode="&#x147;" horiz-adv-x="684" 
d="M313 805l-99 137h57l78 -90l81 90h56l-99 -137h-74zM90 0v741h89l336 -596h2v596h77v-741h-79l-345 613h-2v-613h-78z" />
    <glyph glyph-name="uni0145" unicode="&#x145;" horiz-adv-x="684" 
d="M90 0v741h89l336 -596h2v596h77v-741h-79l-345 613h-2v-613h-78zM222 -195l67 137h83l-98 -137h-52z" />
    <glyph glyph-name="Eng" unicode="&#x14a;" horiz-adv-x="684" 
d="M410 -168c-48 0 -88 17 -114 45l40 63c15 -25 41 -39 73 -39c55 0 95 26 105 99l-344 613h-2v-613h-78v741h89l336 -593h2v593h77v-691c0 -162 -83 -218 -184 -218z" />
    <glyph glyph-name="Ntilde" unicode="&#xd1;" horiz-adv-x="684" 
d="M224 843l-31 29c18 30 51 74 97 74c45 0 85 -47 123 -47c27 0 47 22 59 47l33 -24c-16 -30 -48 -78 -91 -78c-44 0 -91 50 -127 50c-29 0 -49 -27 -63 -51zM90 0v741h89l336 -596h2v596h77v-741h-79l-345 613h-2v-613h-78z" />
    <glyph glyph-name="O" unicode="O" horiz-adv-x="640" 
d="M320 -15c-167 0 -271 151 -271 385c0 235 104 385 271 385c168 0 271 -150 271 -385c0 -234 -103 -385 -271 -385zM320 48c117 0 190 122 190 322c0 201 -73 323 -190 323c-116 0 -190 -122 -190 -323c0 -200 74 -322 190 -322z" />
    <glyph glyph-name="Oacute" unicode="&#xd3;" horiz-adv-x="640" 
d="M294 805l67 137h83l-98 -137h-52zM320 -15c-167 0 -271 151 -271 385c0 235 104 385 271 385c168 0 271 -150 271 -385c0 -234 -103 -385 -271 -385zM320 48c117 0 190 122 190 322c0 201 -73 323 -190 323c-116 0 -190 -122 -190 -323c0 -200 74 -322 190 -322z" />
    <glyph glyph-name="Obreve" unicode="&#x14e;" horiz-adv-x="640" 
d="M320 797c-84 0 -138 62 -152 145h53c11 -49 42 -92 99 -92s90 43 100 92h52c-13 -83 -69 -145 -152 -145zM320 -15c-167 0 -271 151 -271 385c0 235 104 385 271 385c168 0 271 -150 271 -385c0 -234 -103 -385 -271 -385zM320 48c117 0 190 122 190 322
c0 201 -73 323 -190 323c-116 0 -190 -122 -190 -323c0 -200 74 -322 190 -322z" />
    <glyph glyph-name="Ocircumflex" unicode="&#xd4;" horiz-adv-x="640" 
d="M184 805l99 137h74l99 -137h-56l-81 90l-78 -90h-57zM320 -15c-167 0 -271 151 -271 385c0 235 104 385 271 385c168 0 271 -150 271 -385c0 -234 -103 -385 -271 -385zM320 48c117 0 190 122 190 322c0 201 -73 323 -190 323c-116 0 -190 -122 -190 -323
c0 -200 74 -322 190 -322z" />
    <glyph glyph-name="uni1ED0" unicode="&#x1ed0;" horiz-adv-x="640" 
d="M292 936l69 105h84l-102 -105h-51zM184 805l99 99h74l99 -99h-57l-80 62l-76 -62h-59zM320 -15c-167 0 -271 151 -271 385c0 235 104 385 271 385c168 0 271 -150 271 -385c0 -234 -103 -385 -271 -385zM320 48c117 0 190 122 190 322c0 201 -73 323 -190 323
c-116 0 -190 -122 -190 -323c0 -200 74 -322 190 -322z" />
    <glyph glyph-name="uni1ED8" unicode="&#x1ed8;" horiz-adv-x="640" 
d="M184 805l99 137h74l99 -137h-56l-81 90l-78 -90h-57zM320 -15c-167 0 -271 151 -271 385c0 235 104 385 271 385c168 0 271 -150 271 -385c0 -234 -103 -385 -271 -385zM320 48c117 0 190 122 190 322c0 201 -73 323 -190 323c-116 0 -190 -122 -190 -323
c0 -200 74 -322 190 -322zM320 -168c-27 0 -48 21 -48 48s21 48 48 48s49 -21 49 -48s-22 -48 -49 -48z" />
    <glyph glyph-name="uni1ED2" unicode="&#x1ed2;" horiz-adv-x="640" 
d="M295 936l-101 105h84l69 -105h-52zM184 805l99 99h74l99 -99h-57l-80 62l-76 -62h-59zM320 -15c-167 0 -271 151 -271 385c0 235 104 385 271 385c168 0 271 -150 271 -385c0 -234 -103 -385 -271 -385zM320 48c117 0 190 122 190 322c0 201 -73 323 -190 323
c-116 0 -190 -122 -190 -323c0 -200 74 -322 190 -322z" />
    <glyph glyph-name="uni1ED4" unicode="&#x1ed4;" horiz-adv-x="640" 
d="M402 900c44 31 58 48 58 63c0 14 -14 28 -44 28c-27 0 -52 -6 -77 -20l-11 43c28 14 61 22 94 22c65 0 98 -27 98 -64c0 -23 -17 -46 -56 -72h-62zM184 805l99 99h74l99 -99h-57l-80 62l-76 -62h-59zM320 -15c-167 0 -271 151 -271 385c0 235 104 385 271 385
c168 0 271 -150 271 -385c0 -234 -103 -385 -271 -385zM320 48c117 0 190 122 190 322c0 201 -73 323 -190 323c-116 0 -190 -122 -190 -323c0 -200 74 -322 190 -322z" />
    <glyph glyph-name="uni1ED6" unicode="&#x1ed6;" horiz-adv-x="640" 
d="M206 940l-32 24c26 45 56 69 90 69c42 0 82 -41 115 -41c17 0 35 15 53 46l34 -25c-27 -44 -57 -68 -91 -68c-42 0 -83 41 -115 41c-18 0 -35 -16 -54 -46zM184 805l99 99h74l98 -99h-56l-79 62l-77 -62h-59zM320 -15c-167 0 -271 151 -271 385c0 235 104 385 271 385
c168 0 271 -150 271 -385c0 -234 -103 -385 -271 -385zM320 48c117 0 190 122 190 322c0 201 -73 323 -190 323c-116 0 -190 -122 -190 -323c0 -200 74 -322 190 -322z" />
    <glyph glyph-name="Odieresis" unicode="&#xd6;" horiz-adv-x="640" 
d="M232 838c-25 0 -46 21 -46 46c0 27 21 48 46 48c27 0 48 -21 48 -48c0 -25 -21 -46 -48 -46zM407 838c-26 0 -47 21 -47 46c0 27 21 48 47 48c27 0 47 -21 47 -48c0 -25 -20 -46 -47 -46zM320 -15c-167 0 -271 151 -271 385c0 235 104 385 271 385
c168 0 271 -150 271 -385c0 -234 -103 -385 -271 -385zM320 48c117 0 190 122 190 322c0 201 -73 323 -190 323c-116 0 -190 -122 -190 -323c0 -200 74 -322 190 -322z" />
    <glyph glyph-name="uni1ECC" unicode="&#x1ecc;" horiz-adv-x="640" 
d="M320 -15c-167 0 -271 151 -271 385c0 235 104 385 271 385c168 0 271 -150 271 -385c0 -234 -103 -385 -271 -385zM320 48c117 0 190 122 190 322c0 201 -73 323 -190 323c-116 0 -190 -122 -190 -323c0 -200 74 -322 190 -322zM320 -168c-27 0 -48 21 -48 48
s21 48 48 48s49 -21 49 -48s-22 -48 -49 -48z" />
    <glyph glyph-name="Ograve" unicode="&#xd2;" horiz-adv-x="640" 
d="M295 805l-99 137h83l67 -137h-51zM320 -15c-167 0 -271 151 -271 385c0 235 104 385 271 385c168 0 271 -150 271 -385c0 -234 -103 -385 -271 -385zM320 48c117 0 190 122 190 322c0 201 -73 323 -190 323c-116 0 -190 -122 -190 -323c0 -200 74 -322 190 -322z" />
    <glyph glyph-name="uni1ECE" unicode="&#x1ece;" horiz-adv-x="640" 
d="M291 805c47 34 61 52 61 69s-14 31 -44 31c-27 0 -53 -6 -78 -20l-10 43c27 14 61 22 94 22c64 0 97 -27 97 -67c0 -23 -17 -50 -61 -78h-59zM320 -15c-167 0 -271 151 -271 385c0 235 104 385 271 385c168 0 271 -150 271 -385c0 -234 -103 -385 -271 -385zM320 48
c117 0 190 122 190 322c0 201 -73 323 -190 323c-116 0 -190 -122 -190 -323c0 -200 74 -322 190 -322z" />
    <glyph glyph-name="Ohorn" unicode="&#x1a0;" horiz-adv-x="640" 
d="M486 689c67 -66 105 -177 105 -319c0 -234 -103 -385 -271 -385c-167 0 -271 151 -271 385c0 235 104 385 271 385h1v0h1h1h1c49 -1 92 -14 130 -14c37 0 52 21 52 60c0 22 -3 47 -11 76h68c9 -31 11 -52 11 -80c0 -61 -34 -102 -88 -108zM320 48c117 0 190 122 190 322
c0 201 -73 323 -190 323c-116 0 -190 -122 -190 -323c0 -200 74 -322 190 -322z" />
    <glyph glyph-name="uni1EDA" unicode="&#x1eda;" horiz-adv-x="640" 
d="M444 955l-98 -137h-52l67 137h83zM486 689c67 -66 105 -177 105 -319c0 -234 -103 -385 -271 -385c-167 0 -271 151 -271 385c0 235 104 385 271 385h1v0h1h1h1c49 -1 92 -14 130 -14c37 0 52 21 52 60c0 22 -3 47 -11 76h68c9 -31 11 -52 11 -80
c0 -61 -34 -102 -88 -108zM320 48c117 0 190 122 190 322c0 201 -73 323 -190 323c-116 0 -190 -122 -190 -323c0 -200 74 -322 190 -322z" />
    <glyph glyph-name="uni1EE2" unicode="&#x1ee2;" horiz-adv-x="640" 
d="M486 689c67 -66 105 -177 105 -319c0 -234 -103 -385 -271 -385c-167 0 -271 151 -271 385c0 235 104 385 271 385h1v0h1h1h1c49 -1 92 -14 130 -14c37 0 52 21 52 60c0 22 -3 47 -11 76h68c9 -31 11 -52 11 -80c0 -61 -34 -102 -88 -108zM320 48c117 0 190 122 190 322
c0 201 -73 323 -190 323c-116 0 -190 -122 -190 -323c0 -200 74 -322 190 -322zM320 -72c27 0 49 -21 49 -48s-22 -48 -49 -48s-48 21 -48 48s21 48 48 48z" />
    <glyph glyph-name="uni1EDC" unicode="&#x1edc;" horiz-adv-x="640" 
d="M346 818h-51l-99 137h83zM486 689c67 -66 105 -177 105 -319c0 -234 -103 -385 -271 -385c-167 0 -271 151 -271 385c0 235 104 385 271 385h1v0h1h1h1c49 -1 92 -14 130 -14c37 0 52 21 52 60c0 22 -3 47 -11 76h68c9 -31 11 -52 11 -80c0 -61 -34 -102 -88 -108z
M320 48c117 0 190 122 190 322c0 201 -73 323 -190 323c-116 0 -190 -122 -190 -323c0 -200 74 -322 190 -322z" />
    <glyph glyph-name="uni1EDE" unicode="&#x1ede;" horiz-adv-x="640" 
d="M309 918c-27 0 -53 -6 -78 -20l-10 43c27 14 61 22 94 22c64 0 97 -27 97 -67c0 -23 -17 -50 -61 -78h-59c47 34 61 52 61 69s-14 31 -44 31zM486 689c67 -66 105 -177 105 -319c0 -234 -103 -385 -271 -385c-167 0 -271 151 -271 385c0 235 104 385 271 385h1v0h1h1h1
c49 -1 92 -14 130 -14c37 0 52 21 52 60c0 22 -3 47 -11 76h68c9 -31 11 -52 11 -80c0 -61 -34 -102 -88 -108zM320 48c117 0 190 122 190 322c0 201 -73 323 -190 323c-116 0 -190 -122 -190 -323c0 -200 74 -322 190 -322z" />
    <glyph glyph-name="uni1EE0" unicode="&#x1ee0;" horiz-adv-x="640" 
d="M258 907c-29 0 -49 -27 -63 -51l-31 29c18 30 51 74 97 74c45 0 85 -47 123 -47c27 0 47 22 59 47l33 -24c-16 -30 -48 -78 -91 -78c-44 0 -91 50 -127 50zM486 689c67 -66 105 -177 105 -319c0 -234 -103 -385 -271 -385c-167 0 -271 151 -271 385
c0 235 104 385 271 385h1v0h1h1h1c49 -1 92 -14 130 -14c37 0 52 21 52 60c0 22 -3 47 -11 76h68c9 -31 11 -52 11 -80c0 -61 -34 -102 -88 -108zM320 48c117 0 190 122 190 322c0 201 -73 323 -190 323c-116 0 -190 -122 -190 -323c0 -200 74 -322 190 -322z" />
    <glyph glyph-name="Ohungarumlaut" unicode="&#x150;" horiz-adv-x="640" 
d="M218 805l68 137h75l-98 -137h-45zM378 805l69 137h74l-98 -137h-45zM320 -15c-167 0 -271 151 -271 385c0 235 104 385 271 385c168 0 271 -150 271 -385c0 -234 -103 -385 -271 -385zM320 48c117 0 190 122 190 322c0 201 -73 323 -190 323c-116 0 -190 -122 -190 -323
c0 -200 74 -322 190 -322z" />
    <glyph glyph-name="Omacron" unicode="&#x14c;" horiz-adv-x="640" 
d="M160 855v55h319v-55h-319zM320 -15c-167 0 -271 151 -271 385c0 235 104 385 271 385c168 0 271 -150 271 -385c0 -234 -103 -385 -271 -385zM320 48c117 0 190 122 190 322c0 201 -73 323 -190 323c-116 0 -190 -122 -190 -323c0 -200 74 -322 190 -322z" />
    <glyph glyph-name="Oslash" unicode="&#xd8;" horiz-adv-x="640" 
d="M598 742l-70 -106c41 -66 63 -157 63 -266c0 -234 -103 -385 -271 -385c-70 0 -129 26 -174 74l-60 -91l-44 30l70 106c-41 66 -63 157 -63 266c0 235 104 385 271 385c70 0 129 -26 174 -74l60 91zM153 170l2 -1l299 452c-33 44 -75 72 -134 72
c-116 0 -190 -122 -190 -323c0 -70 8 -119 23 -200zM320 47c116 0 190 122 190 323c0 70 -8 119 -23 200l-2 1l-299 -452c33 -44 75 -72 134 -72z" />
    <glyph glyph-name="Otilde" unicode="&#xd5;" horiz-adv-x="640" 
d="M194 843l-31 29c18 30 51 74 97 74c45 0 85 -47 123 -47c27 0 47 22 59 47l33 -24c-16 -30 -48 -78 -91 -78c-44 0 -91 50 -127 50c-29 0 -49 -27 -63 -51zM320 -15c-167 0 -271 151 -271 385c0 235 104 385 271 385c168 0 271 -150 271 -385c0 -234 -103 -385 -271 -385
zM320 48c117 0 190 122 190 322c0 201 -73 323 -190 323c-116 0 -190 -122 -190 -323c0 -200 74 -322 190 -322z" />
    <glyph glyph-name="OE" unicode="&#x152;" horiz-adv-x="898" 
d="M867 64v-64h-407c-37 -10 -77 -15 -113 -15c-180 0 -298 138 -298 385s118 385 298 385c33 0 73 -5 107 -14h392v-64h-314v-260h232v-64h-232v-289h335zM130 370c0 -213 88 -322 220 -322c29 0 71 5 103 17v609c-33 13 -74 19 -104 19c-131 0 -219 -110 -219 -323z" />
    <glyph glyph-name="P" unicode="P" horiz-adv-x="572" 
d="M90 0v741h211c142 0 239 -67 239 -205c0 -132 -95 -208 -260 -208h-112v-328h-78zM168 393h109c118 0 184 41 184 142c0 99 -63 142 -178 142h-115v-284z" />
    <glyph glyph-name="Thorn" unicode="&#xde;" horiz-adv-x="572" 
d="M90 0v741h78v-136h129c175 0 243 -107 243 -205c0 -95 -56 -207 -261 -207h-111v-193h-78zM168 257h88c96 0 205 21 205 142c0 125 -113 142 -207 142h-86v-284z" />
    <glyph glyph-name="Q" unicode="Q" horiz-adv-x="640" 
d="M361 -12c12 -72 49 -102 116 -102c15 0 33 3 51 6l-20 -64c-18 -2 -35 -4 -52 -4c-84 0 -154 45 -167 163c-149 18 -240 164 -240 383c0 235 104 385 271 385c168 0 271 -150 271 -385c0 -214 -86 -359 -230 -382zM130 370c0 -200 74 -322 190 -322
c117 0 190 122 190 322c0 201 -73 323 -190 323c-116 0 -190 -122 -190 -323z" />
    <glyph glyph-name="R" unicode="R" horiz-adv-x="579" 
d="M546 0h-87l-142 341c-9 -1 -20 -1 -30 -1h-119v-340h-78v741h201c165 0 248 -82 248 -204c0 -84 -50 -153 -144 -182zM168 404h120c122 0 171 56 171 134c0 85 -54 139 -169 139h-122v-273z" />
    <glyph glyph-name="Racute" unicode="&#x154;" horiz-adv-x="579" 
d="M416 942l-98 -137h-52l67 137h83zM546 0h-87l-142 341c-9 -1 -20 -1 -30 -1h-119v-340h-78v741h201c165 0 248 -82 248 -204c0 -84 -50 -153 -144 -182zM168 404h120c122 0 171 56 171 134c0 85 -54 139 -169 139h-122v-273z" />
    <glyph glyph-name="Rcaron" unicode="&#x158;" horiz-adv-x="579" 
d="M330 805h-74l-99 137h57l78 -90l81 90h56zM546 0h-87l-142 341c-9 -1 -20 -1 -30 -1h-119v-340h-78v741h201c165 0 248 -82 248 -204c0 -84 -50 -153 -144 -182zM168 404h120c122 0 171 56 171 134c0 85 -54 139 -169 139h-122v-273z" />
    <glyph glyph-name="uni0156" unicode="&#x156;" horiz-adv-x="579" 
d="M395 355l151 -355h-87l-142 341c-9 -1 -20 -1 -30 -1h-119v-340h-78v741h201c165 0 248 -82 248 -204c0 -84 -50 -153 -144 -182zM168 404h120c122 0 171 56 171 134c0 85 -54 139 -169 139h-122v-273zM205 -195l67 137h83l-98 -137h-52z" />
    <glyph glyph-name="S" unicode="S" horiz-adv-x="562" 
d="M290 -14c-123 0 -216 66 -245 190l74 41c13 -98 83 -167 173 -167c81 0 146 50 146 139c0 185 -365 127 -365 368c0 121 96 198 216 198c110 0 194 -63 212 -169l-66 -40c-15 83 -66 146 -148 146c-76 0 -135 -53 -135 -128c0 -185 365 -125 365 -371
c0 -119 -86 -207 -227 -207z" />
    <glyph glyph-name="Sacute" unicode="&#x15a;" horiz-adv-x="562" 
d="M262 805l67 137h83l-98 -137h-52zM290 -14c-123 0 -216 66 -245 190l74 41c13 -98 83 -167 173 -167c81 0 146 50 146 139c0 185 -365 127 -365 368c0 121 96 198 216 198c110 0 194 -63 212 -169l-66 -40c-15 83 -66 146 -148 146c-76 0 -135 -53 -135 -128
c0 -185 365 -125 365 -371c0 -119 -86 -207 -227 -207z" />
    <glyph glyph-name="Scaron" unicode="&#x160;" horiz-adv-x="562" 
d="M252 805l-99 137h57l78 -90l81 90h56l-99 -137h-74zM290 -14c-123 0 -216 66 -245 190l74 41c13 -98 83 -167 173 -167c81 0 146 50 146 139c0 185 -365 127 -365 368c0 121 96 198 216 198c110 0 194 -63 212 -169l-66 -40c-15 83 -66 146 -148 146
c-76 0 -135 -53 -135 -128c0 -185 365 -125 365 -371c0 -119 -86 -207 -227 -207z" />
    <glyph glyph-name="Scedilla" unicode="&#x15e;" horiz-adv-x="562" 
d="M517 193c0 -112 -77 -197 -204 -206l-22 -35c45 -9 91 -25 91 -75c0 -54 -50 -79 -104 -79c-29 0 -70 7 -88 19l12 43c14 -10 48 -20 74 -20c29 0 49 11 49 34c0 32 -39 42 -106 47l44 66c-109 9 -191 74 -218 189l74 41c13 -98 83 -167 173 -167c81 0 146 50 146 139
c0 185 -365 127 -365 368c0 121 96 198 216 198c110 0 194 -63 212 -169l-66 -40c-15 83 -66 146 -148 146c-76 0 -135 -53 -135 -128c0 -185 365 -125 365 -371z" />
    <glyph glyph-name="Scircumflex" unicode="&#x15c;" horiz-adv-x="562" 
d="M153 805l99 137h74l99 -137h-56l-81 90l-78 -90h-57zM290 -14c-123 0 -216 66 -245 190l74 41c13 -98 83 -167 173 -167c81 0 146 50 146 139c0 185 -365 127 -365 368c0 121 96 198 216 198c110 0 194 -63 212 -169l-66 -40c-15 83 -66 146 -148 146
c-76 0 -135 -53 -135 -128c0 -185 365 -125 365 -371c0 -119 -86 -207 -227 -207z" />
    <glyph glyph-name="uni0218" unicode="&#x218;" horiz-adv-x="562" 
d="M290 -14c-123 0 -216 66 -245 190l74 41c13 -98 83 -167 173 -167c81 0 146 50 146 139c0 185 -365 127 -365 368c0 121 96 198 216 198c110 0 194 -63 212 -169l-66 -40c-15 83 -66 146 -148 146c-76 0 -135 -53 -135 -128c0 -185 365 -125 365 -371
c0 -119 -86 -207 -227 -207zM187 -195l67 137h83l-98 -137h-52z" />
    <glyph glyph-name="T" unicode="T" horiz-adv-x="492" 
d="M207 0v677h-197v64h472v-64h-197v-677h-78z" />
    <glyph glyph-name="Tbar" unicode="&#x166;" horiz-adv-x="491" 
d="M482 677h-197v-258h120v-57h-120v-362h-78v362h-122v57h122v258h-197v64h472v-64z" />
    <glyph glyph-name="Tcaron" unicode="&#x164;" horiz-adv-x="492" 
d="M209 805l-99 137h57l78 -90l81 90h56l-99 -137h-74zM207 0v677h-197v64h472v-64h-197v-677h-78z" />
    <glyph glyph-name="uni0162" unicode="&#x162;" horiz-adv-x="492" 
d="M207 0v677h-197v64h472v-64h-197v-677h-78zM139 -195l67 137h83l-98 -137h-52z" />
    <glyph glyph-name="uni021A" unicode="&#x21a;" horiz-adv-x="492" 
d="M207 0v677h-197v64h472v-64h-197v-677h-78zM139 -195l67 137h83l-98 -137h-52z" />
    <glyph glyph-name="U" unicode="U" horiz-adv-x="638" 
d="M318 -14c-117 0 -232 62 -232 245v510h79v-471c0 -118 23 -215 153 -215c131 0 156 97 156 215v471h78v-510c0 -183 -116 -245 -234 -245z" />
    <glyph glyph-name="Uacute" unicode="&#xda;" horiz-adv-x="638" 
d="M293 805l67 137h83l-98 -137h-52zM318 -14c-117 0 -232 62 -232 245v510h79v-471c0 -118 23 -215 153 -215c131 0 156 97 156 215v471h78v-510c0 -183 -116 -245 -234 -245z" />
    <glyph glyph-name="Ubreve" unicode="&#x16c;" horiz-adv-x="638" 
d="M319 797c-84 0 -138 62 -152 145h53c11 -49 42 -92 99 -92s90 43 100 92h52c-13 -83 -69 -145 -152 -145zM318 -14c-117 0 -232 62 -232 245v510h79v-471c0 -118 23 -215 153 -215c131 0 156 97 156 215v471h78v-510c0 -183 -116 -245 -234 -245z" />
    <glyph glyph-name="Ucircumflex" unicode="&#xdb;" horiz-adv-x="638" 
d="M183 805l99 137h74l99 -137h-56l-81 90l-78 -90h-57zM318 -14c-117 0 -232 62 -232 245v510h79v-471c0 -118 23 -215 153 -215c131 0 156 97 156 215v471h78v-510c0 -183 -116 -245 -234 -245z" />
    <glyph glyph-name="Udieresis" unicode="&#xdc;" horiz-adv-x="638" 
d="M231 838c-25 0 -46 21 -46 46c0 27 21 48 46 48c27 0 48 -21 48 -48c0 -25 -21 -46 -48 -46zM406 838c-26 0 -47 21 -47 46c0 27 21 48 47 48c27 0 47 -21 47 -48c0 -25 -20 -46 -47 -46zM318 -14c-117 0 -232 62 -232 245v510h79v-471c0 -118 23 -215 153 -215
c131 0 156 97 156 215v471h78v-510c0 -183 -116 -245 -234 -245z" />
    <glyph glyph-name="uni1EE4" unicode="&#x1ee4;" horiz-adv-x="638" 
d="M318 -14c-117 0 -232 62 -232 245v510h79v-471c0 -118 23 -215 153 -215c131 0 156 97 156 215v471h78v-510c0 -183 -116 -245 -234 -245zM318 -168c-27 0 -48 21 -48 48s21 48 48 48s49 -21 49 -48s-22 -48 -49 -48z" />
    <glyph glyph-name="Ugrave" unicode="&#xd9;" horiz-adv-x="638" 
d="M294 805l-99 137h83l67 -137h-51zM318 -14c-117 0 -232 62 -232 245v510h79v-471c0 -118 23 -215 153 -215c131 0 156 97 156 215v471h78v-510c0 -183 -116 -245 -234 -245z" />
    <glyph glyph-name="uni1EE6" unicode="&#x1ee6;" horiz-adv-x="638" 
d="M290 805c47 34 61 52 61 69s-14 31 -44 31c-27 0 -53 -6 -78 -20l-10 43c27 14 61 22 94 22c64 0 97 -27 97 -67c0 -23 -17 -50 -61 -78h-59zM318 -14c-117 0 -232 62 -232 245v510h79v-471c0 -118 23 -215 153 -215c131 0 156 97 156 215v471h78v-510
c0 -183 -116 -245 -234 -245z" />
    <glyph glyph-name="Uhorn" unicode="&#x1af;" horiz-adv-x="638" 
d="M629 877c9 -31 11 -52 11 -80c0 -65 -37 -102 -88 -108v-458c0 -183 -116 -245 -234 -245c-117 0 -232 62 -232 245v510h79v-471c0 -118 23 -215 153 -215c131 0 156 97 156 215v471h46c38 0 53 21 53 60c0 22 -3 47 -12 76h68z" />
    <glyph glyph-name="uni1EE8" unicode="&#x1ee8;" horiz-adv-x="638" 
d="M443 942l-98 -137h-52l67 137h83zM629 877c9 -31 11 -52 11 -80c0 -65 -37 -102 -88 -108v-458c0 -183 -116 -245 -234 -245c-117 0 -232 62 -232 245v510h79v-471c0 -118 23 -215 153 -215c131 0 156 97 156 215v471h46c38 0 53 21 53 60c0 22 -3 47 -12 76h68z" />
    <glyph glyph-name="uni1EF0" unicode="&#x1ef0;" horiz-adv-x="638" 
d="M629 877c9 -31 11 -52 11 -80c0 -65 -37 -102 -88 -108v-458c0 -183 -116 -245 -234 -245c-117 0 -232 62 -232 245v510h79v-471c0 -118 23 -215 153 -215c131 0 156 97 156 215v471h46c38 0 53 21 53 60c0 22 -3 47 -12 76h68zM318 -72c27 0 49 -21 49 -48
s-22 -48 -49 -48s-48 21 -48 48s21 48 48 48z" />
    <glyph glyph-name="uni1EEA" unicode="&#x1eea;" horiz-adv-x="638" 
d="M345 805h-51l-99 137h83zM629 877c9 -31 11 -52 11 -80c0 -65 -37 -102 -88 -108v-458c0 -183 -116 -245 -234 -245c-117 0 -232 62 -232 245v510h79v-471c0 -118 23 -215 153 -215c131 0 156 97 156 215v471h46c38 0 53 21 53 60c0 22 -3 47 -12 76h68z" />
    <glyph glyph-name="uni1EEC" unicode="&#x1eec;" horiz-adv-x="638" 
d="M307 905c-27 0 -53 -6 -78 -20l-10 43c27 14 61 22 94 22c64 0 97 -27 97 -67c0 -23 -17 -50 -61 -78h-59c47 34 61 52 61 69s-14 31 -44 31zM629 877c9 -31 11 -52 11 -80c0 -65 -37 -102 -88 -108v-458c0 -183 -116 -245 -234 -245c-117 0 -232 62 -232 245v510h79
v-471c0 -118 23 -215 153 -215c131 0 156 97 156 215v471h46c38 0 53 21 53 60c0 22 -3 47 -12 76h68z" />
    <glyph glyph-name="uni1EEE" unicode="&#x1eee;" horiz-adv-x="638" 
d="M257 894c-29 0 -49 -27 -63 -51l-31 29c18 30 51 74 97 74c45 0 85 -47 123 -47c27 0 47 22 59 47l33 -24c-16 -30 -48 -78 -91 -78c-44 0 -91 50 -127 50zM629 877c9 -31 11 -52 11 -80c0 -65 -37 -102 -88 -108v-458c0 -183 -116 -245 -234 -245
c-117 0 -232 62 -232 245v510h79v-471c0 -118 23 -215 153 -215c131 0 156 97 156 215v471h46c38 0 53 21 53 60c0 22 -3 47 -12 76h68z" />
    <glyph glyph-name="Uhungarumlaut" unicode="&#x170;" horiz-adv-x="638" 
d="M217 805l68 137h75l-98 -137h-45zM377 805l69 137h74l-98 -137h-45zM318 -14c-117 0 -232 62 -232 245v510h79v-471c0 -118 23 -215 153 -215c131 0 156 97 156 215v471h78v-510c0 -183 -116 -245 -234 -245z" />
    <glyph glyph-name="Umacron" unicode="&#x16a;" horiz-adv-x="638" 
d="M159 855v55h319v-55h-319zM318 -14c-117 0 -232 62 -232 245v510h79v-471c0 -118 23 -215 153 -215c131 0 156 97 156 215v471h78v-510c0 -183 -116 -245 -234 -245z" />
    <glyph glyph-name="Uogonek" unicode="&#x172;" horiz-adv-x="638" 
d="M396 -192c-44 0 -87 21 -87 76c0 29 23 69 69 108c-19 -4 -42 -6 -60 -6c-117 0 -232 62 -232 245v510h79v-471c0 -118 23 -215 153 -215c131 0 156 97 156 215v471h78v-510c0 -91 -28 -147 -67 -186c-87 -87 -124 -119 -124 -154c0 -27 18 -38 43 -38c19 0 39 6 57 17
v-45c-20 -12 -40 -17 -65 -17z" />
    <glyph glyph-name="Uring" unicode="&#x16e;" horiz-adv-x="638" 
d="M319 785c-46 0 -84 39 -84 85s38 85 84 85c47 0 85 -39 85 -85s-38 -85 -85 -85zM319 825c26 0 46 21 46 45s-20 46 -46 46c-24 0 -45 -22 -45 -46s21 -45 45 -45zM318 -14c-117 0 -232 62 -232 245v510h79v-471c0 -118 23 -215 153 -215c131 0 156 97 156 215v471h78
v-510c0 -183 -116 -245 -234 -245z" />
    <glyph glyph-name="Utilde" unicode="&#x168;" horiz-adv-x="638" 
d="M194 843l-31 29c18 30 51 74 97 74c45 0 85 -47 123 -47c27 0 47 22 59 47l33 -24c-16 -30 -48 -78 -91 -78c-44 0 -91 50 -127 50c-29 0 -49 -27 -63 -51zM318 -14c-117 0 -232 62 -232 245v510h79v-471c0 -118 23 -215 153 -215c131 0 156 97 156 215v471h78v-510
c0 -183 -116 -245 -234 -245z" />
    <glyph glyph-name="V" unicode="V" horiz-adv-x="525" 
d="M223 0l-222 741h81l177 -626h2l185 626h78l-228 -741h-73z" />
    <glyph glyph-name="W" unicode="W" horiz-adv-x="787" 
d="M172 0l-156 741h75l122 -621h2l136 621h82l128 -619h2l134 619h74l-169 -741h-83l-128 619h-2l-135 -619h-82z" />
    <glyph glyph-name="Wacute" unicode="&#x1e82;" horiz-adv-x="787" 
d="M364 805l67 137h83l-98 -137h-52zM172 0l-156 741h75l122 -621h2l136 621h82l128 -619h2l134 619h74l-169 -741h-83l-128 619h-2l-135 -619h-82z" />
    <glyph glyph-name="Wcircumflex" unicode="&#x174;" horiz-adv-x="787" 
d="M255 805l99 137h74l99 -137h-56l-81 90l-78 -90h-57zM172 0l-156 741h75l122 -621h2l136 621h82l128 -619h2l134 619h74l-169 -741h-83l-128 619h-2l-135 -619h-82z" />
    <glyph glyph-name="Wdieresis" unicode="&#x1e84;" horiz-adv-x="787" 
d="M302 838c-25 0 -46 21 -46 46c0 27 21 48 46 48c27 0 48 -21 48 -48c0 -25 -21 -46 -48 -46zM477 838c-26 0 -47 21 -47 46c0 27 21 48 47 48c27 0 47 -21 47 -48c0 -25 -20 -46 -47 -46zM172 0l-156 741h75l122 -621h2l136 621h82l128 -619h2l134 619h74l-169 -741h-83
l-128 619h-2l-135 -619h-82z" />
    <glyph glyph-name="Wgrave" unicode="&#x1e80;" horiz-adv-x="787" 
d="M365 805l-99 137h83l67 -137h-51zM172 0l-156 741h75l122 -621h2l136 621h82l128 -619h2l134 619h74l-169 -741h-83l-128 619h-2l-135 -619h-82z" />
    <glyph glyph-name="X" unicode="X" horiz-adv-x="547" 
d="M316 386l213 -386h-91l-166 317h-1l-170 -317h-83l209 387l-195 354h90l149 -287h1l152 287h85z" />
    <glyph glyph-name="Y" unicode="Y" horiz-adv-x="533" 
d="M231 0v308l-227 433h84l182 -363h1l179 363h80l-221 -433v-308h-78z" />
    <glyph glyph-name="Yacute" unicode="&#xdd;" horiz-adv-x="533" 
d="M244 805l67 137h83l-98 -137h-52zM231 0v308l-227 433h84l182 -363h1l179 363h80l-221 -433v-308h-78z" />
    <glyph glyph-name="Ycircumflex" unicode="&#x176;" horiz-adv-x="533" 
d="M134 805l99 137h74l99 -137h-56l-81 90l-78 -90h-57zM231 0v308l-227 433h84l182 -363h1l179 363h80l-221 -433v-308h-78z" />
    <glyph glyph-name="Ydieresis" unicode="&#x178;" horiz-adv-x="533" 
d="M182 838c-25 0 -46 21 -46 46c0 27 21 48 46 48c27 0 48 -21 48 -48c0 -25 -21 -46 -48 -46zM357 838c-26 0 -47 21 -47 46c0 27 21 48 47 48c27 0 47 -21 47 -48c0 -25 -20 -46 -47 -46zM231 0v308l-227 433h84l182 -363h1l179 363h80l-221 -433v-308h-78z" />
    <glyph glyph-name="uni1EF4" unicode="&#x1ef4;" horiz-adv-x="533" 
d="M231 0v308l-227 433h84l182 -363h1l179 363h80l-221 -433v-308h-78zM269 -168c-27 0 -48 21 -48 48s21 48 48 48s49 -21 49 -48s-22 -48 -49 -48z" />
    <glyph glyph-name="Ygrave" unicode="&#x1ef2;" horiz-adv-x="533" 
d="M245 805l-99 137h83l67 -137h-51zM231 0v308l-227 433h84l182 -363h1l179 363h80l-221 -433v-308h-78z" />
    <glyph glyph-name="uni1EF6" unicode="&#x1ef6;" horiz-adv-x="533" 
d="M241 805c47 34 61 52 61 69s-14 31 -44 31c-27 0 -53 -6 -78 -20l-10 43c27 14 61 22 94 22c64 0 97 -27 97 -67c0 -23 -17 -50 -61 -78h-59zM231 0v308l-227 433h84l182 -363h1l179 363h80l-221 -433v-308h-78z" />
    <glyph glyph-name="uni1EF8" unicode="&#x1ef8;" horiz-adv-x="533" 
d="M145 843l-31 29c18 30 51 74 97 74c45 0 85 -47 123 -47c27 0 47 22 59 47l33 -24c-16 -30 -48 -78 -91 -78c-44 0 -91 50 -127 50c-29 0 -49 -27 -63 -51zM231 0v308l-227 433h84l182 -363h1l179 363h80l-221 -433v-308h-78z" />
    <glyph glyph-name="Z" unicode="Z" horiz-adv-x="497" 
d="M463 741v-62l-338 -614h338v-65h-429v57l340 620h-312v64h401z" />
    <glyph glyph-name="Zacute" unicode="&#x179;" horiz-adv-x="497" 
d="M373 942l-98 -137h-52l67 137h83zM463 741v-62l-338 -614h338v-65h-429v57l340 620h-312v64h401z" />
    <glyph glyph-name="Zcaron" unicode="&#x17d;" horiz-adv-x="497" 
d="M287 805h-74l-99 137h57l78 -90l81 90h56zM463 741v-62l-338 -614h338v-65h-429v57l340 620h-312v64h401z" />
    <glyph glyph-name="Zdotaccent" unicode="&#x17b;" horiz-adv-x="497" 
d="M248 836c-27 0 -48 22 -48 48c0 27 21 49 48 49s49 -22 49 -49c0 -26 -22 -48 -49 -48zM463 741v-62l-338 -614h338v-65h-429v57l340 620h-312v64h401z" />
    <glyph glyph-name="a" unicode="a" horiz-adv-x="502" 
d="M201 -14c-80 0 -152 57 -152 158c0 112 76 163 232 185c56 7 71 17 71 65c0 56 -36 83 -89 83c-58 0 -106 -37 -136 -82l-41 51c41 53 99 90 184 90c98 0 155 -49 155 -157v-379h-73v65c-45 -45 -88 -79 -151 -79zM218 45c50 0 99 43 132 86v150h-2l-64 -9
c-113 -16 -162 -53 -162 -126c0 -61 36 -101 96 -101z" />
    <glyph glyph-name="aacute" unicode="&#xe1;" horiz-adv-x="502" 
d="M233 604l67 137h83l-98 -137h-52zM201 -14c-80 0 -152 57 -152 158c0 112 76 163 232 185c56 7 71 17 71 65c0 56 -36 83 -89 83c-58 0 -106 -37 -136 -82l-41 51c41 53 99 90 184 90c98 0 155 -49 155 -157v-379h-73v65c-45 -45 -88 -79 -151 -79zM218 45
c50 0 99 43 132 86v150h-2l-64 -9c-113 -16 -162 -53 -162 -126c0 -61 36 -101 96 -101z" />
    <glyph glyph-name="abreve" unicode="&#x103;" horiz-adv-x="502" 
d="M260 596c-84 0 -138 62 -152 145h53c11 -49 42 -92 99 -92s90 43 100 92h52c-13 -83 -69 -145 -152 -145zM201 -14c-80 0 -152 57 -152 158c0 112 76 163 232 185c56 7 71 17 71 65c0 56 -36 83 -89 83c-58 0 -106 -37 -136 -82l-41 51c41 53 99 90 184 90
c98 0 155 -49 155 -157v-379h-73v65c-45 -45 -88 -79 -151 -79zM218 45c50 0 99 43 132 86v150h-2l-64 -9c-113 -16 -162 -53 -162 -126c0 -61 36 -101 96 -101z" />
    <glyph glyph-name="uni1EAF" unicode="&#x1eaf;" horiz-adv-x="502" 
d="M232 735l69 105h84l-101 -105h-52zM260 596c-70 0 -122 41 -137 108h52c12 -39 42 -56 85 -56c42 0 74 17 85 56h52c-15 -67 -72 -108 -137 -108zM201 -14c-80 0 -152 57 -152 158c0 112 76 163 232 185c56 7 71 17 71 65c0 56 -36 83 -89 83c-58 0 -106 -37 -136 -82
l-41 51c41 53 99 90 184 90c98 0 155 -49 155 -157v-379h-73v65c-45 -45 -88 -79 -151 -79zM218 45c50 0 99 43 132 86v150h-2l-64 -9c-113 -16 -162 -53 -162 -126c0 -61 36 -101 96 -101z" />
    <glyph glyph-name="uni1EB7" unicode="&#x1eb7;" horiz-adv-x="502" 
d="M260 596c-84 0 -138 62 -152 145h53c11 -49 42 -92 99 -92s90 43 100 92h52c-13 -83 -69 -145 -152 -145zM201 -14c-80 0 -152 57 -152 158c0 112 76 163 232 185c56 7 71 17 71 65c0 56 -36 83 -89 83c-58 0 -106 -37 -136 -82l-41 51c41 53 99 90 184 90
c98 0 155 -49 155 -157v-379h-73v65c-45 -45 -88 -79 -151 -79zM218 45c50 0 99 43 132 86v150h-2l-64 -9c-113 -16 -162 -53 -162 -126c0 -61 36 -101 96 -101zM237 -168c-27 0 -48 21 -48 48s21 48 48 48s49 -21 49 -48s-22 -48 -49 -48z" />
    <glyph glyph-name="uni1EB1" unicode="&#x1eb1;" horiz-adv-x="502" 
d="M236 735l-101 105h84l69 -105h-52zM260 596c-70 0 -122 41 -137 108h52c12 -39 42 -56 85 -56c42 0 74 17 85 56h52c-15 -67 -72 -108 -137 -108zM201 -14c-80 0 -152 57 -152 158c0 112 76 163 232 185c56 7 71 17 71 65c0 56 -36 83 -89 83c-58 0 -106 -37 -136 -82
l-41 51c41 53 99 90 184 90c98 0 155 -49 155 -157v-379h-73v65c-45 -45 -88 -79 -151 -79zM218 45c50 0 99 43 132 86v150h-2l-64 -9c-113 -16 -162 -53 -162 -126c0 -61 36 -101 96 -101z" />
    <glyph glyph-name="uni1EB3" unicode="&#x1eb3;" horiz-adv-x="502" 
d="M224 713c44 31 57 48 57 63s-14 29 -44 29c-27 0 -52 -7 -78 -21l-10 43c28 14 61 22 95 22c64 0 96 -27 96 -64c0 -23 -15 -46 -55 -72h-61zM260 596c-70 0 -122 41 -137 108h52c12 -39 42 -56 85 -56c42 0 74 17 85 56h52c-15 -67 -72 -108 -137 -108zM201 -14
c-80 0 -152 57 -152 158c0 112 76 163 232 185c56 7 71 17 71 65c0 56 -36 83 -89 83c-58 0 -106 -37 -136 -82l-41 51c41 53 99 90 184 90c98 0 155 -49 155 -157v-379h-73v65c-45 -45 -88 -79 -151 -79zM218 45c50 0 99 43 132 86v150h-2l-64 -9
c-113 -16 -162 -53 -162 -126c0 -61 36 -101 96 -101z" />
    <glyph glyph-name="uni1EB5" unicode="&#x1eb5;" horiz-adv-x="502" 
d="M146 739l-33 24c27 45 56 69 90 69c43 0 83 -41 115 -41c18 0 36 15 54 46l33 -25c-27 -44 -57 -68 -91 -68c-42 0 -82 41 -115 41c-17 0 -35 -16 -53 -46zM259 596c-70 0 -122 41 -137 108h52c12 -39 42 -56 85 -56c42 0 73 17 85 56h52c-15 -67 -73 -108 -137 -108z
M201 -14c-80 0 -152 57 -152 158c0 112 76 163 232 185c56 7 71 17 71 65c0 56 -36 83 -89 83c-58 0 -106 -37 -136 -82l-41 51c41 53 99 90 184 90c98 0 155 -49 155 -157v-379h-73v65c-45 -45 -88 -79 -151 -79zM218 45c50 0 99 43 132 86v150h-2l-64 -9
c-113 -16 -162 -53 -162 -126c0 -61 36 -101 96 -101z" />
    <glyph glyph-name="acircumflex" unicode="&#xe2;" horiz-adv-x="502" 
d="M124 604l99 137h74l99 -137h-56l-81 90l-78 -90h-57zM201 -14c-80 0 -152 57 -152 158c0 112 76 163 232 185c56 7 71 17 71 65c0 56 -36 83 -89 83c-58 0 -106 -37 -136 -82l-41 51c41 53 99 90 184 90c98 0 155 -49 155 -157v-379h-73v65c-45 -45 -88 -79 -151 -79z
M218 45c50 0 99 43 132 86v150h-2l-64 -9c-113 -16 -162 -53 -162 -126c0 -61 36 -101 96 -101z" />
    <glyph glyph-name="uni1EA5" unicode="&#x1ea5;" horiz-adv-x="502" 
d="M232 735l69 105h84l-102 -105h-51zM124 604l99 99h74l99 -99h-57l-80 62l-76 -62h-59zM201 -14c-80 0 -152 57 -152 158c0 112 76 163 232 185c56 7 71 17 71 65c0 56 -36 83 -89 83c-58 0 -106 -37 -136 -82l-41 51c41 53 99 90 184 90c98 0 155 -49 155 -157v-379h-73
v65c-45 -45 -88 -79 -151 -79zM218 45c50 0 99 43 132 86v150h-2l-64 -9c-113 -16 -162 -53 -162 -126c0 -61 36 -101 96 -101z" />
    <glyph glyph-name="uni1EAD" unicode="&#x1ead;" horiz-adv-x="502" 
d="M124 604l99 137h74l99 -137h-56l-81 90l-78 -90h-57zM201 -14c-80 0 -152 57 -152 158c0 112 76 163 232 185c56 7 71 17 71 65c0 56 -36 83 -89 83c-58 0 -106 -37 -136 -82l-41 51c41 53 99 90 184 90c98 0 155 -49 155 -157v-379h-73v65c-45 -45 -88 -79 -151 -79z
M218 45c50 0 99 43 132 86v150h-2l-64 -9c-113 -16 -162 -53 -162 -126c0 -61 36 -101 96 -101zM237 -168c-27 0 -48 21 -48 48s21 48 48 48s49 -21 49 -48s-22 -48 -49 -48z" />
    <glyph glyph-name="uni1EA7" unicode="&#x1ea7;" horiz-adv-x="502" 
d="M235 735l-101 105h84l69 -105h-52zM124 604l99 99h74l99 -99h-57l-80 62l-76 -62h-59zM201 -14c-80 0 -152 57 -152 158c0 112 76 163 232 185c56 7 71 17 71 65c0 56 -36 83 -89 83c-58 0 -106 -37 -136 -82l-41 51c41 53 99 90 184 90c98 0 155 -49 155 -157v-379h-73
v65c-45 -45 -88 -79 -151 -79zM218 45c50 0 99 43 132 86v150h-2l-64 -9c-113 -16 -162 -53 -162 -126c0 -61 36 -101 96 -101z" />
    <glyph glyph-name="uni1EA9" unicode="&#x1ea9;" horiz-adv-x="502" 
d="M342 699c44 31 58 48 58 63c0 14 -14 28 -44 28c-27 0 -52 -6 -77 -20l-11 43c28 14 61 22 94 22c65 0 98 -27 98 -64c0 -23 -17 -46 -56 -72h-62zM124 604l99 99h74l99 -99h-57l-80 62l-76 -62h-59zM201 -14c-80 0 -152 57 -152 158c0 112 76 163 232 185
c56 7 71 17 71 65c0 56 -36 83 -89 83c-58 0 -106 -37 -136 -82l-41 51c41 53 99 90 184 90c98 0 155 -49 155 -157v-379h-73v65c-45 -45 -88 -79 -151 -79zM218 45c50 0 99 43 132 86v150h-2l-64 -9c-113 -16 -162 -53 -162 -126c0 -61 36 -101 96 -101z" />
    <glyph glyph-name="uni1EAB" unicode="&#x1eab;" horiz-adv-x="502" 
d="M146 739l-32 24c26 45 56 69 90 69c42 0 82 -41 115 -41c17 0 35 15 53 46l34 -25c-27 -44 -57 -68 -91 -68c-42 0 -83 41 -115 41c-18 0 -35 -16 -54 -46zM124 604l99 99h74l98 -99h-56l-79 62l-77 -62h-59zM201 -14c-80 0 -152 57 -152 158c0 112 76 163 232 185
c56 7 71 17 71 65c0 56 -36 83 -89 83c-58 0 -106 -37 -136 -82l-41 51c41 53 99 90 184 90c98 0 155 -49 155 -157v-379h-73v65c-45 -45 -88 -79 -151 -79zM218 45c50 0 99 43 132 86v150h-2l-64 -9c-113 -16 -162 -53 -162 -126c0 -61 36 -101 96 -101z" />
    <glyph glyph-name="adieresis" unicode="&#xe4;" horiz-adv-x="502" 
d="M172 637c-25 0 -46 21 -46 46c0 27 21 48 46 48c27 0 48 -21 48 -48c0 -25 -21 -46 -48 -46zM347 637c-26 0 -47 21 -47 46c0 27 21 48 47 48c27 0 47 -21 47 -48c0 -25 -20 -46 -47 -46zM201 -14c-80 0 -152 57 -152 158c0 112 76 163 232 185c56 7 71 17 71 65
c0 56 -36 83 -89 83c-58 0 -106 -37 -136 -82l-41 51c41 53 99 90 184 90c98 0 155 -49 155 -157v-379h-73v65c-45 -45 -88 -79 -151 -79zM218 45c50 0 99 43 132 86v150h-2l-64 -9c-113 -16 -162 -53 -162 -126c0 -61 36 -101 96 -101z" />
    <glyph glyph-name="uni1EA1" unicode="&#x1ea1;" horiz-adv-x="502" 
d="M201 -14c-80 0 -152 57 -152 158c0 112 76 163 232 185c56 7 71 17 71 65c0 56 -36 83 -89 83c-58 0 -106 -37 -136 -82l-41 51c41 53 99 90 184 90c98 0 155 -49 155 -157v-379h-73v65c-45 -45 -88 -79 -151 -79zM218 45c50 0 99 43 132 86v150h-2l-64 -9
c-113 -16 -162 -53 -162 -126c0 -61 36 -101 96 -101zM237 -168c-27 0 -48 21 -48 48s21 48 48 48s49 -21 49 -48s-22 -48 -49 -48z" />
    <glyph glyph-name="agrave" unicode="&#xe0;" horiz-adv-x="502" 
d="M235 604l-99 137h83l67 -137h-51zM201 -14c-80 0 -152 57 -152 158c0 112 76 163 232 185c56 7 71 17 71 65c0 56 -36 83 -89 83c-58 0 -106 -37 -136 -82l-41 51c41 53 99 90 184 90c98 0 155 -49 155 -157v-379h-73v65c-45 -45 -88 -79 -151 -79zM218 45
c50 0 99 43 132 86v150h-2l-64 -9c-113 -16 -162 -53 -162 -126c0 -61 36 -101 96 -101z" />
    <glyph glyph-name="uni1EA3" unicode="&#x1ea3;" horiz-adv-x="502" 
d="M231 604c47 34 61 52 61 69s-14 31 -44 31c-27 0 -53 -6 -78 -20l-10 43c27 14 61 22 94 22c64 0 97 -27 97 -67c0 -23 -17 -50 -61 -78h-59zM201 -14c-80 0 -152 57 -152 158c0 112 76 163 232 185c56 7 71 17 71 65c0 56 -36 83 -89 83c-58 0 -106 -37 -136 -82l-41 51
c41 53 99 90 184 90c98 0 155 -49 155 -157v-379h-73v65c-45 -45 -88 -79 -151 -79zM218 45c50 0 99 43 132 86v150h-2l-64 -9c-113 -16 -162 -53 -162 -126c0 -61 36 -101 96 -101z" />
    <glyph glyph-name="amacron" unicode="&#x101;" horiz-adv-x="502" 
d="M100 654v55h319v-55h-319zM201 -14c-80 0 -152 57 -152 158c0 112 76 163 232 185c56 7 71 17 71 65c0 56 -36 83 -89 83c-58 0 -106 -37 -136 -82l-41 51c41 53 99 90 184 90c98 0 155 -49 155 -157v-379h-73v65c-45 -45 -88 -79 -151 -79zM218 45c50 0 99 43 132 86
v150h-2l-64 -9c-113 -16 -162 -53 -162 -126c0 -61 36 -101 96 -101z" />
    <glyph glyph-name="aogonek" unicode="&#x105;" horiz-adv-x="502" 
d="M270 536c98 0 155 -49 155 -157v-379h-5c-68 -34 -104 -73 -104 -109c0 -27 18 -38 42 -38c20 0 40 6 58 17v-45c-20 -12 -41 -17 -64 -17c-45 0 -88 21 -88 76c0 44 32 86 88 119v62c-45 -45 -88 -79 -151 -79c-80 0 -152 57 -152 158c0 112 76 163 232 185
c56 7 71 17 71 65c0 56 -36 83 -89 83c-58 0 -106 -37 -136 -82l-41 51c41 53 99 90 184 90zM350 131v150h-2l-64 -9c-113 -16 -162 -53 -162 -126c0 -61 36 -101 96 -101c50 0 99 43 132 86z" />
    <glyph glyph-name="aring" unicode="&#xe5;" horiz-adv-x="502" 
d="M259 584c-46 0 -84 39 -84 85s38 85 84 85c47 0 85 -39 85 -85s-38 -85 -85 -85zM259 624c26 0 46 21 46 45s-20 46 -46 46c-24 0 -45 -22 -45 -46s21 -45 45 -45zM201 -14c-80 0 -152 57 -152 158c0 112 76 163 232 185c56 7 71 17 71 65c0 56 -36 83 -89 83
c-58 0 -106 -37 -136 -82l-41 51c41 53 99 90 184 90c98 0 155 -49 155 -157v-379h-73v65c-45 -45 -88 -79 -151 -79zM218 45c50 0 99 43 132 86v150h-2l-64 -9c-113 -16 -162 -53 -162 -126c0 -61 36 -101 96 -101z" />
    <glyph glyph-name="atilde" unicode="&#xe3;" horiz-adv-x="502" 
d="M134 642l-31 29c18 30 51 74 97 74c45 0 85 -47 123 -47c27 0 47 22 59 47l33 -24c-16 -30 -48 -78 -91 -78c-44 0 -91 50 -127 50c-29 0 -49 -27 -63 -51zM201 -14c-80 0 -152 57 -152 158c0 112 76 163 232 185c56 7 71 17 71 65c0 56 -36 83 -89 83
c-58 0 -106 -37 -136 -82l-41 51c41 53 99 90 184 90c98 0 155 -49 155 -157v-379h-73v65c-45 -45 -88 -79 -151 -79zM218 45c50 0 99 43 132 86v150h-2l-64 -9c-113 -16 -162 -53 -162 -126c0 -61 36 -101 96 -101z" />
    <glyph glyph-name="ae" unicode="&#xe6;" horiz-adv-x="796" 
d="M748 252h-326c-1 -148 62 -208 144 -208c56 0 103 43 130 90l47 -43c-36 -58 -98 -105 -186 -105c-84 0 -140 41 -174 104c-55 -73 -107 -104 -174 -104c-89 0 -160 49 -160 150c0 118 93 159 219 177c70 9 84 20 84 81c0 48 -36 83 -89 83c-60 0 -109 -41 -136 -82
l-41 51c41 53 99 90 184 90c66 0 113 -23 133 -78c36 52 89 78 157 78c133 0 189 -110 189 -259c0 -9 0 -16 -1 -25zM554 479c-87 0 -127 -92 -129 -174h247c2 89 -31 174 -118 174zM218 45c50 0 97 39 143 102c-9 36 -14 75 -14 116v3l-87 -11c-73 -11 -138 -39 -138 -117
c0 -60 36 -93 96 -93z" />
    <glyph glyph-name="b" unicode="b" horiz-adv-x="530" 
d="M285 -14c-58 0 -97 28 -134 70v-56h-70v736l74 43v-311c35 36 80 68 133 68c87 0 193 -73 193 -278c0 -207 -115 -272 -196 -272zM270 47c64 0 137 60 137 206c0 101 -39 216 -137 216c-53 0 -92 -36 -115 -78v-255c21 -41 66 -89 115 -89z" />
    <glyph glyph-name="c" unicode="c" horiz-adv-x="485" 
d="M261 -15c-125 0 -215 92 -215 276c0 180 89 275 215 275c91 0 141 -49 172 -119l-60 -38c-17 50 -51 100 -115 100c-110 0 -135 -125 -135 -218c0 -111 31 -219 138 -219c69 0 102 55 122 110l61 -36c-32 -76 -99 -131 -183 -131z" />
    <glyph glyph-name="cacute" unicode="&#x107;" horiz-adv-x="485" 
d="M231 604l67 137h83l-98 -137h-52zM261 -15c-125 0 -215 92 -215 276c0 180 89 275 215 275c91 0 141 -49 172 -119l-60 -38c-17 50 -51 100 -115 100c-110 0 -135 -125 -135 -218c0 -111 31 -219 138 -219c69 0 102 55 122 110l61 -36c-32 -76 -99 -131 -183 -131z" />
    <glyph glyph-name="ccaron" unicode="&#x10d;" horiz-adv-x="485" 
d="M220 604l-99 137h57l78 -90l81 90h56l-99 -137h-74zM261 -15c-125 0 -215 92 -215 276c0 180 89 275 215 275c91 0 141 -49 172 -119l-60 -38c-17 50 -51 100 -115 100c-110 0 -135 -125 -135 -218c0 -111 31 -219 138 -219c69 0 102 55 122 110l61 -36
c-32 -76 -99 -131 -183 -131z" />
    <glyph glyph-name="ccedilla" unicode="&#xe7;" horiz-adv-x="485" 
d="M444 116c-29 -70 -88 -122 -162 -130l-22 -34c45 -9 91 -25 91 -75c0 -54 -50 -79 -104 -79c-29 0 -70 7 -88 19l12 43c14 -10 48 -20 74 -20c29 0 49 11 49 34c0 32 -39 42 -106 47l44 66c-110 13 -186 105 -186 274c0 180 89 275 215 275c91 0 141 -49 172 -119
l-60 -38c-17 50 -51 100 -115 100c-110 0 -135 -125 -135 -218c0 -111 31 -219 138 -219c69 0 102 55 122 110z" />
    <glyph glyph-name="ccircumflex" unicode="&#x109;" horiz-adv-x="485" 
d="M121 604l99 137h74l99 -137h-56l-81 90l-78 -90h-57zM261 -15c-125 0 -215 92 -215 276c0 180 89 275 215 275c91 0 141 -49 172 -119l-60 -38c-17 50 -51 100 -115 100c-110 0 -135 -125 -135 -218c0 -111 31 -219 138 -219c69 0 102 55 122 110l61 -36
c-32 -76 -99 -131 -183 -131z" />
    <glyph glyph-name="cdotaccent" unicode="&#x10b;" horiz-adv-x="485" 
d="M256 635c-27 0 -48 22 -48 48c0 27 21 49 48 49s49 -22 49 -49c0 -26 -22 -48 -49 -48zM261 -15c-125 0 -215 92 -215 276c0 180 89 275 215 275c91 0 141 -49 172 -119l-60 -38c-17 50 -51 100 -115 100c-110 0 -135 -125 -135 -218c0 -111 31 -219 138 -219
c69 0 102 55 122 110l61 -36c-32 -76 -99 -131 -183 -131z" />
    <glyph glyph-name="d" unicode="d" horiz-adv-x="530" 
d="M244 -14c-80 0 -196 63 -196 271c0 203 108 279 195 279c53 0 96 -32 132 -68v268l74 43v-779h-70v56c-38 -42 -76 -70 -135 -70zM259 50c50 0 95 47 116 89v255c-24 40 -63 80 -116 80c-102 0 -137 -115 -137 -218c0 -140 69 -206 137 -206z" />
    <glyph glyph-name="eth" unicode="&#xf0;" horiz-adv-x="511" 
d="M263 669c135 -132 202 -244 202 -412c0 -176 -85 -271 -210 -271c-122 0 -209 93 -209 275c0 181 85 275 210 275c15 0 31 -2 47 -6c-26 30 -60 66 -95 100l-90 -63l-29 40l82 58c-20 18 -39 35 -57 50l45 50c24 -21 47 -41 68 -61l78 55l28 -40zM256 43
c112 0 134 127 134 218s-22 218 -134 218c-113 0 -133 -127 -133 -218s20 -218 133 -218z" />
    <glyph glyph-name="dcaron" unicode="&#x10f;" horiz-adv-x="530" 
d="M244 -14c-80 0 -196 63 -196 271c0 203 108 279 195 279c53 0 96 -32 132 -68v268l74 43v-779h-70v56c-38 -42 -76 -70 -135 -70zM498 599l9 180h74l-30 -180h-53zM259 50c50 0 95 47 116 89v255c-24 40 -63 80 -116 80c-102 0 -137 -115 -137 -218
c0 -140 69 -206 137 -206z" />
    <glyph glyph-name="dcroat" unicode="&#x111;" horiz-adv-x="528" 
d="M509 672v-57h-60v-615h-70v56c-38 -42 -76 -70 -135 -70c-80 0 -196 63 -196 271c0 203 108 279 195 279c53 0 96 -32 132 -68v147h-109v57h109v64l74 43v-107h60zM375 139v255c-24 40 -63 80 -116 80c-102 0 -137 -115 -137 -218c0 -140 69 -206 137 -206
c50 0 95 47 116 89z" />
    <glyph glyph-name="e" unicode="e" horiz-adv-x="495" 
d="M257 -14c-126 0 -211 93 -211 277c0 177 84 273 214 273c132 0 188 -110 188 -259c0 -9 0 -16 -1 -25h-325c-1 -148 61 -208 144 -208c56 0 103 43 130 90l46 -43c-36 -58 -98 -105 -185 -105zM125 305h247c1 89 -31 174 -119 174c-87 0 -127 -92 -128 -174z" />
    <glyph glyph-name="eacute" unicode="&#xe9;" horiz-adv-x="495" 
d="M231 604l67 137h83l-98 -137h-52zM257 -14c-126 0 -211 93 -211 277c0 177 84 273 214 273c132 0 188 -110 188 -259c0 -9 0 -16 -1 -25h-325c-1 -148 61 -208 144 -208c56 0 103 43 130 90l46 -43c-36 -58 -98 -105 -185 -105zM125 305h247c1 89 -31 174 -119 174
c-87 0 -127 -92 -128 -174z" />
    <glyph glyph-name="ebreve" unicode="&#x115;" horiz-adv-x="495" 
d="M257 596c-84 0 -138 62 -152 145h53c11 -49 42 -92 99 -92s90 43 100 92h52c-13 -83 -69 -145 -152 -145zM257 -14c-126 0 -211 93 -211 277c0 177 84 273 214 273c132 0 188 -110 188 -259c0 -9 0 -16 -1 -25h-325c-1 -148 61 -208 144 -208c56 0 103 43 130 90l46 -43
c-36 -58 -98 -105 -185 -105zM125 305h247c1 89 -31 174 -119 174c-87 0 -127 -92 -128 -174z" />
    <glyph glyph-name="ecaron" unicode="&#x11b;" horiz-adv-x="495" 
d="M220 604l-99 137h57l78 -90l81 90h56l-99 -137h-74zM257 -14c-126 0 -211 93 -211 277c0 177 84 273 214 273c132 0 188 -110 188 -259c0 -9 0 -16 -1 -25h-325c-1 -148 61 -208 144 -208c56 0 103 43 130 90l46 -43c-36 -58 -98 -105 -185 -105zM125 305h247
c1 89 -31 174 -119 174c-87 0 -127 -92 -128 -174z" />
    <glyph glyph-name="ecircumflex" unicode="&#xea;" horiz-adv-x="495" 
d="M121 604l99 137h74l99 -137h-56l-81 90l-78 -90h-57zM257 -14c-126 0 -211 93 -211 277c0 177 84 273 214 273c132 0 188 -110 188 -259c0 -9 0 -16 -1 -25h-325c-1 -148 61 -208 144 -208c56 0 103 43 130 90l46 -43c-36 -58 -98 -105 -185 -105zM125 305h247
c1 89 -31 174 -119 174c-87 0 -127 -92 -128 -174z" />
    <glyph glyph-name="uni1EBF" unicode="&#x1ebf;" horiz-adv-x="495" 
d="M229 735l69 105h84l-102 -105h-51zM121 604l99 99h74l99 -99h-57l-80 62l-76 -62h-59zM257 -14c-126 0 -211 93 -211 277c0 177 84 273 214 273c132 0 188 -110 188 -259c0 -9 0 -16 -1 -25h-325c-1 -148 61 -208 144 -208c56 0 103 43 130 90l46 -43
c-36 -58 -98 -105 -185 -105zM125 305h247c1 89 -31 174 -119 174c-87 0 -127 -92 -128 -174z" />
    <glyph glyph-name="uni1EC7" unicode="&#x1ec7;" horiz-adv-x="495" 
d="M121 604l99 137h74l99 -137h-56l-81 90l-78 -90h-57zM257 -14c-126 0 -211 93 -211 277c0 177 84 273 214 273c132 0 188 -110 188 -259c0 -9 0 -16 -1 -25h-325c-1 -148 61 -208 144 -208c56 0 103 43 130 90l46 -43c-36 -58 -98 -105 -185 -105zM125 305h247
c1 89 -31 174 -119 174c-87 0 -127 -92 -128 -174zM255 -168c-27 0 -48 21 -48 48s21 48 48 48s49 -21 49 -48s-22 -48 -49 -48z" />
    <glyph glyph-name="uni1EC1" unicode="&#x1ec1;" horiz-adv-x="495" 
d="M232 735l-101 105h84l69 -105h-52zM121 604l99 99h74l99 -99h-57l-80 62l-76 -62h-59zM257 -14c-126 0 -211 93 -211 277c0 177 84 273 214 273c132 0 188 -110 188 -259c0 -9 0 -16 -1 -25h-325c-1 -148 61 -208 144 -208c56 0 103 43 130 90l46 -43
c-36 -58 -98 -105 -185 -105zM125 305h247c1 89 -31 174 -119 174c-87 0 -127 -92 -128 -174z" />
    <glyph glyph-name="uni1EC3" unicode="&#x1ec3;" horiz-adv-x="495" 
d="M339 699c44 31 58 48 58 63c0 14 -14 28 -44 28c-27 0 -52 -6 -77 -20l-11 43c28 14 61 22 94 22c65 0 98 -27 98 -64c0 -23 -17 -46 -56 -72h-62zM121 604l99 99h74l99 -99h-57l-80 62l-76 -62h-59zM257 -14c-126 0 -211 93 -211 277c0 177 84 273 214 273
c132 0 188 -110 188 -259c0 -9 0 -16 -1 -25h-325c-1 -148 61 -208 144 -208c56 0 103 43 130 90l46 -43c-36 -58 -98 -105 -185 -105zM125 305h247c1 89 -31 174 -119 174c-87 0 -127 -92 -128 -174z" />
    <glyph glyph-name="uni1EC5" unicode="&#x1ec5;" horiz-adv-x="495" 
d="M143 739l-32 24c26 45 56 69 90 69c42 0 82 -41 115 -41c17 0 35 15 53 46l34 -25c-27 -44 -57 -68 -91 -68c-42 0 -83 41 -115 41c-18 0 -35 -16 -54 -46zM121 604l99 99h74l98 -99h-56l-79 62l-77 -62h-59zM257 -14c-126 0 -211 93 -211 277c0 177 84 273 214 273
c132 0 188 -110 188 -259c0 -9 0 -16 -1 -25h-325c-1 -148 61 -208 144 -208c56 0 103 43 130 90l46 -43c-36 -58 -98 -105 -185 -105zM125 305h247c1 89 -31 174 -119 174c-87 0 -127 -92 -128 -174z" />
    <glyph glyph-name="edieresis" unicode="&#xeb;" horiz-adv-x="495" 
d="M169 637c-25 0 -46 21 -46 46c0 27 21 48 46 48c27 0 48 -21 48 -48c0 -25 -21 -46 -48 -46zM344 637c-26 0 -47 21 -47 46c0 27 21 48 47 48c27 0 47 -21 47 -48c0 -25 -20 -46 -47 -46zM257 -14c-126 0 -211 93 -211 277c0 177 84 273 214 273c132 0 188 -110 188 -259
c0 -9 0 -16 -1 -25h-325c-1 -148 61 -208 144 -208c56 0 103 43 130 90l46 -43c-36 -58 -98 -105 -185 -105zM125 305h247c1 89 -31 174 -119 174c-87 0 -127 -92 -128 -174z" />
    <glyph glyph-name="edotaccent" unicode="&#x117;" horiz-adv-x="495" 
d="M256 635c-27 0 -48 22 -48 48c0 27 21 49 48 49s49 -22 49 -49c0 -26 -22 -48 -49 -48zM257 -14c-126 0 -211 93 -211 277c0 177 84 273 214 273c132 0 188 -110 188 -259c0 -9 0 -16 -1 -25h-325c-1 -148 61 -208 144 -208c56 0 103 43 130 90l46 -43
c-36 -58 -98 -105 -185 -105zM125 305h247c1 89 -31 174 -119 174c-87 0 -127 -92 -128 -174z" />
    <glyph glyph-name="uni1EB9" unicode="&#x1eb9;" horiz-adv-x="495" 
d="M257 -14c-126 0 -211 93 -211 277c0 177 84 273 214 273c132 0 188 -110 188 -259c0 -9 0 -16 -1 -25h-325c-1 -148 61 -208 144 -208c56 0 103 43 130 90l46 -43c-36 -58 -98 -105 -185 -105zM125 305h247c1 89 -31 174 -119 174c-87 0 -127 -92 -128 -174zM255 -168
c-27 0 -48 21 -48 48s21 48 48 48s49 -21 49 -48s-22 -48 -49 -48z" />
    <glyph glyph-name="egrave" unicode="&#xe8;" horiz-adv-x="495" 
d="M232 604l-99 137h83l67 -137h-51zM257 -14c-126 0 -211 93 -211 277c0 177 84 273 214 273c132 0 188 -110 188 -259c0 -9 0 -16 -1 -25h-325c-1 -148 61 -208 144 -208c56 0 103 43 130 90l46 -43c-36 -58 -98 -105 -185 -105zM125 305h247c1 89 -31 174 -119 174
c-87 0 -127 -92 -128 -174z" />
    <glyph glyph-name="uni1EBB" unicode="&#x1ebb;" horiz-adv-x="495" 
d="M228 604c47 34 61 52 61 69s-14 31 -44 31c-27 0 -53 -6 -78 -20l-10 43c27 14 61 22 94 22c64 0 97 -27 97 -67c0 -23 -17 -50 -61 -78h-59zM257 -14c-126 0 -211 93 -211 277c0 177 84 273 214 273c132 0 188 -110 188 -259c0 -9 0 -16 -1 -25h-325
c-1 -148 61 -208 144 -208c56 0 103 43 130 90l46 -43c-36 -58 -98 -105 -185 -105zM125 305h247c1 89 -31 174 -119 174c-87 0 -127 -92 -128 -174z" />
    <glyph glyph-name="emacron" unicode="&#x113;" horiz-adv-x="495" 
d="M97 654v55h319v-55h-319zM257 -14c-126 0 -211 93 -211 277c0 177 84 273 214 273c132 0 188 -110 188 -259c0 -9 0 -16 -1 -25h-325c-1 -148 61 -208 144 -208c56 0 103 43 130 90l46 -43c-36 -58 -98 -105 -185 -105zM125 305h247c1 89 -31 174 -119 174
c-87 0 -127 -92 -128 -174z" />
    <glyph glyph-name="eogonek" unicode="&#x119;" horiz-adv-x="495" 
d="M366 -192c-45 0 -88 21 -88 76c0 35 22 75 57 117c-23 -11 -51 -15 -78 -15c-126 0 -211 93 -211 277c0 177 84 273 214 273c132 0 188 -110 188 -259c0 -9 0 -16 -1 -25h-325c-1 -148 61 -208 144 -208c56 0 103 43 130 90l46 -43c-66 -98 -112 -156 -112 -198
c0 -29 18 -40 43 -40c19 0 39 6 57 17v-45c-20 -12 -40 -17 -64 -17zM125 305h247c1 89 -31 174 -119 174c-87 0 -127 -92 -128 -174z" />
    <glyph glyph-name="uni1EBD" unicode="&#x1ebd;" horiz-adv-x="495" 
d="M131 642l-31 29c18 30 51 74 97 74c45 0 85 -47 123 -47c27 0 47 22 59 47l33 -24c-16 -30 -48 -78 -91 -78c-44 0 -91 50 -127 50c-29 0 -49 -27 -63 -51zM257 -14c-126 0 -211 93 -211 277c0 177 84 273 214 273c132 0 188 -110 188 -259c0 -9 0 -16 -1 -25h-325
c-1 -148 61 -208 144 -208c56 0 103 43 130 90l46 -43c-36 -58 -98 -105 -185 -105zM125 305h247c1 89 -31 174 -119 174c-87 0 -127 -92 -128 -174z" />
    <glyph glyph-name="f" unicode="f" horiz-adv-x="290" 
d="M99 0v460h-78v62h78v91c0 89 44 143 131 143c34 0 67 -8 85 -17l-20 -61c-13 7 -35 14 -58 14c-47 0 -64 -32 -64 -76v-94h120l-11 -62h-109v-460h-74z" />
    <glyph glyph-name="g" unicode="g" horiz-adv-x="524" 
d="M495 481c-3 1 -15 4 -24 4c-18 0 -35 -5 -61 -21c20 -28 32 -65 32 -107c0 -109 -84 -179 -188 -179c-33 0 -63 6 -89 18c-25 -20 -40 -41 -40 -60c0 -24 40 -36 102 -42l88 -7c107 -10 179 -41 179 -123c0 -95 -95 -144 -236 -144c-149 0 -225 51 -225 127
c0 50 34 81 88 102c-40 15 -61 41 -61 74c0 35 15 58 64 100c-38 31 -59 78 -59 133c0 109 83 180 191 180c48 0 90 -14 122 -38c32 29 60 46 96 46c10 0 18 -1 21 -1v-62zM253 230c75 0 117 53 117 127c0 72 -37 128 -114 128s-119 -60 -119 -130c0 -69 43 -125 116 -125z
M292 24l-104 11c-63 -20 -90 -40 -90 -81c0 -56 71 -79 167 -79c79 0 162 20 162 80c0 44 -43 59 -135 69z" />
    <glyph glyph-name="gbreve" unicode="&#x11f;" horiz-adv-x="524" 
d="M256 596c-84 0 -138 62 -152 145h53c11 -49 42 -92 99 -92s90 43 100 92h52c-13 -83 -69 -145 -152 -145zM495 481c-3 1 -15 4 -24 4c-18 0 -35 -5 -61 -21c20 -28 32 -65 32 -107c0 -109 -84 -179 -188 -179c-33 0 -63 6 -89 18c-25 -20 -40 -41 -40 -60
c0 -24 40 -36 102 -42l88 -7c107 -10 179 -41 179 -123c0 -95 -95 -144 -236 -144c-149 0 -225 51 -225 127c0 50 34 81 88 102c-40 15 -61 41 -61 74c0 35 15 58 64 100c-38 31 -59 78 -59 133c0 109 83 180 191 180c48 0 90 -14 122 -38c32 29 60 46 96 46
c10 0 18 -1 21 -1v-62zM253 230c75 0 117 53 117 127c0 72 -37 128 -114 128s-119 -60 -119 -130c0 -69 43 -125 116 -125zM292 24l-104 11c-63 -20 -90 -40 -90 -81c0 -56 71 -79 167 -79c79 0 162 20 162 80c0 44 -43 59 -135 69z" />
    <glyph glyph-name="gcircumflex" unicode="&#x11d;" horiz-adv-x="524" 
d="M255 694l-78 -90h-57l99 137h74l99 -137h-56zM495 481c-3 1 -15 4 -24 4c-18 0 -35 -5 -61 -21c20 -28 32 -65 32 -107c0 -109 -84 -179 -188 -179c-33 0 -63 6 -89 18c-25 -20 -40 -41 -40 -60c0 -24 40 -36 102 -42l88 -7c107 -10 179 -41 179 -123
c0 -95 -95 -144 -236 -144c-149 0 -225 51 -225 127c0 50 34 81 88 102c-40 15 -61 41 -61 74c0 35 15 58 64 100c-38 31 -59 78 -59 133c0 109 83 180 191 180c48 0 90 -14 122 -38c32 29 60 46 96 46c10 0 18 -1 21 -1v-62zM253 230c75 0 117 53 117 127
c0 72 -37 128 -114 128s-119 -60 -119 -130c0 -69 43 -125 116 -125zM292 24l-104 11c-63 -20 -90 -40 -90 -81c0 -56 71 -79 167 -79c79 0 162 20 162 80c0 44 -43 59 -135 69z" />
    <glyph glyph-name="uni0123" unicode="&#x123;" horiz-adv-x="524" 
d="M361 741l-67 -137h-83l99 137h51zM495 481c-3 1 -15 4 -24 4c-18 0 -35 -5 -61 -21c20 -28 32 -65 32 -107c0 -109 -84 -179 -188 -179c-33 0 -63 6 -89 18c-25 -20 -40 -41 -40 -60c0 -24 40 -36 102 -42l88 -7c107 -10 179 -41 179 -123c0 -95 -95 -144 -236 -144
c-149 0 -225 51 -225 127c0 50 34 81 88 102c-40 15 -61 41 -61 74c0 35 15 58 64 100c-38 31 -59 78 -59 133c0 109 83 180 191 180c48 0 90 -14 122 -38c32 29 60 46 96 46c10 0 18 -1 21 -1v-62zM253 230c75 0 117 53 117 127c0 72 -37 128 -114 128s-119 -60 -119 -130
c0 -69 43 -125 116 -125zM292 24l-104 11c-63 -20 -90 -40 -90 -81c0 -56 71 -79 167 -79c79 0 162 20 162 80c0 44 -43 59 -135 69z" />
    <glyph glyph-name="gdotaccent" unicode="&#x121;" horiz-adv-x="524" 
d="M255 635c-27 0 -48 22 -48 48c0 27 21 49 48 49s49 -22 49 -49c0 -26 -22 -48 -49 -48zM495 481c-3 1 -15 4 -24 4c-18 0 -35 -5 -61 -21c20 -28 32 -65 32 -107c0 -109 -84 -179 -188 -179c-33 0 -63 6 -89 18c-25 -20 -40 -41 -40 -60c0 -24 40 -36 102 -42l88 -7
c107 -10 179 -41 179 -123c0 -95 -95 -144 -236 -144c-149 0 -225 51 -225 127c0 50 34 81 88 102c-40 15 -61 41 -61 74c0 35 15 58 64 100c-38 31 -59 78 -59 133c0 109 83 180 191 180c48 0 90 -14 122 -38c32 29 60 46 96 46c10 0 18 -1 21 -1v-62zM253 230
c75 0 117 53 117 127c0 72 -37 128 -114 128s-119 -60 -119 -130c0 -69 43 -125 116 -125zM292 24l-104 11c-63 -20 -90 -40 -90 -81c0 -56 71 -79 167 -79c79 0 162 20 162 80c0 44 -43 59 -135 69z" />
    <glyph glyph-name="h" unicode="h" horiz-adv-x="516" 
d="M81 0v736l74 43v-312c39 35 88 69 152 69c69 0 131 -37 131 -163v-373h-74v371c0 47 -21 105 -79 105c-51 0 -102 -44 -130 -71v-405h-74z" />
    <glyph glyph-name="hbar" unicode="&#x127;" horiz-adv-x="516" 
d="M307 536c69 0 131 -37 131 -163v-373h-74v371c0 47 -21 105 -79 105c-51 0 -102 -44 -130 -71v-405h-74v615h-62v57h62v64l74 43v-107h107v-57h-107v-148c39 35 88 69 152 69z" />
    <glyph glyph-name="hcircumflex" unicode="&#x125;" horiz-adv-x="516" 
d="M-17 819l99 137h74l99 -137h-56l-81 90l-78 -90h-57zM81 0v736l74 43v-312c39 35 88 69 152 69c69 0 131 -37 131 -163v-373h-74v371c0 47 -21 105 -79 105c-51 0 -102 -44 -130 -71v-405h-74z" />
    <glyph glyph-name="i" unicode="i" horiz-adv-x="235" 
d="M116 650c-28 0 -52 25 -52 53c0 29 24 53 52 53s53 -24 53 -53c0 -28 -25 -53 -53 -53zM80 0v522h74v-522h-74z" />
    <glyph glyph-name="dotlessi" unicode="&#x131;" horiz-adv-x="235" 
d="M81 0v522h74v-522h-74z" />
    <glyph glyph-name="iacute" unicode="&#xed;" horiz-adv-x="235" 
d="M91 604l67 137h83l-98 -137h-52zM81 0v522h74v-522h-74z" />
    <glyph glyph-name="ibreve" unicode="&#x12d;" horiz-adv-x="235" 
d="M118 596c-84 0 -138 62 -152 145h53c11 -49 42 -92 99 -92s90 43 100 92h52c-13 -83 -69 -145 -152 -145zM81 0v522h74v-522h-74z" />
    <glyph glyph-name="icircumflex" unicode="&#xee;" horiz-adv-x="235" 
d="M-18 604l99 137h74l99 -137h-56l-81 90l-78 -90h-57zM81 0v522h74v-522h-74z" />
    <glyph glyph-name="idieresis" unicode="&#xef;" horiz-adv-x="235" 
d="M30 637c-25 0 -46 21 -46 46c0 27 21 48 46 48c27 0 48 -21 48 -48c0 -25 -21 -46 -48 -46zM205 637c-26 0 -47 21 -47 46c0 27 21 48 47 48c27 0 47 -21 47 -48c0 -25 -20 -46 -47 -46zM81 0v522h74v-522h-74z" />
    <glyph glyph-name="uni1ECB" unicode="&#x1ecb;" horiz-adv-x="235" 
d="M116 650c-28 0 -52 25 -52 53c0 29 24 53 52 53s53 -24 53 -53c0 -28 -25 -53 -53 -53zM80 0v522h74v-522h-74zM120 -168c-27 0 -48 21 -48 48s21 48 48 48s49 -21 49 -48s-22 -48 -49 -48z" />
    <glyph glyph-name="igrave" unicode="&#xec;" horiz-adv-x="235" 
d="M92 604l-99 137h83l67 -137h-51zM81 0v522h74v-522h-74z" />
    <glyph glyph-name="uni1EC9" unicode="&#x1ec9;" horiz-adv-x="235" 
d="M88 604c47 34 61 52 61 69s-14 31 -44 31c-27 0 -53 -6 -78 -20l-10 43c27 14 61 22 94 22c64 0 97 -27 97 -67c0 -23 -17 -50 -61 -78h-59zM81 0v522h74v-522h-74z" />
    <glyph glyph-name="ij" unicode="&#x133;" horiz-adv-x="470" 
d="M116 650c-28 0 -52 25 -52 53c0 29 24 53 52 53s53 -24 53 -53c0 -28 -25 -53 -53 -53zM351 650c-28 0 -52 25 -52 53c0 29 24 53 52 53s53 -24 53 -53c0 -28 -25 -53 -53 -53zM80 0v522h74v-522h-74zM271 -180c-13 0 -29 2 -43 5v62c12 -2 26 -4 35 -4c45 0 52 28 52 82
v557h74v-558c0 -103 -28 -144 -118 -144z" />
    <glyph glyph-name="imacron" unicode="&#x12b;" horiz-adv-x="235" 
d="M-43 654v55h319v-55h-319zM81 0v522h74v-522h-74z" />
    <glyph glyph-name="iogonek" unicode="&#x12f;" horiz-adv-x="235" 
d="M116 650c-28 0 -52 25 -52 53c0 29 24 53 52 53s53 -24 53 -53c0 -28 -25 -53 -53 -53zM80 2v520h74v-522h-6c-68 -34 -103 -73 -103 -109c0 -27 18 -38 42 -38c19 0 39 6 57 17v-45c-19 -12 -40 -17 -64 -17c-44 0 -87 21 -87 76c0 44 32 86 87 118z" />
    <glyph glyph-name="itilde" unicode="&#x129;" horiz-adv-x="235" 
d="M-8 642l-31 29c18 30 51 74 97 74c45 0 85 -47 123 -47c27 0 47 22 59 47l33 -24c-16 -30 -48 -78 -91 -78c-44 0 -91 50 -127 50c-29 0 -49 -27 -63 -51zM81 0v522h74v-522h-74z" />
    <glyph glyph-name="j" unicode="j" horiz-adv-x="235" 
d="M116 650c-28 0 -52 25 -52 53c0 29 24 53 52 53s53 -24 53 -53c0 -28 -25 -53 -53 -53zM36 -180c-13 0 -29 2 -43 5v62c12 -2 26 -4 35 -4c45 0 52 28 52 82v557h74v-558c0 -103 -28 -144 -118 -144z" />
    <glyph glyph-name="uni0237" unicode="&#x237;" horiz-adv-x="235" 
d="M37 -180c-13 0 -29 2 -43 5v62c11 -2 25 -4 35 -4c45 0 52 28 52 82v557h74v-558c0 -103 -28 -144 -118 -144z" />
    <glyph glyph-name="jcircumflex" unicode="&#x135;" horiz-adv-x="235" 
d="M-18 604l99 137h74l99 -137h-56l-81 90l-78 -90h-57zM37 -180c-13 0 -29 2 -43 5v62c11 -2 25 -4 35 -4c45 0 52 28 52 82v557h74v-558c0 -103 -28 -144 -118 -144z" />
    <glyph glyph-name="k" unicode="k" horiz-adv-x="470" 
d="M461 0h-85l-139 288l-82 -98v-190h-74v751l74 42v-386c0 -44 -2 -94 -3 -132h1c19 26 41 57 64 85l135 162h88l-150 -178z" />
    <glyph glyph-name="uni0137" unicode="&#x137;" horiz-adv-x="470" 
d="M290 344l171 -344h-85l-139 288l-82 -98v-190h-74v751l74 42v-386c0 -44 -2 -94 -3 -132h1c19 26 41 57 64 85l135 162h88zM156 -195l67 137h83l-98 -137h-52z" />
    <glyph glyph-name="kgreenlandic" unicode="&#x138;" horiz-adv-x="470" 
d="M461 0h-85l-139 288l-82 -98v-190h-74v522h74v-115c0 -44 -2 -94 -3 -132h1c19 26 41 57 64 85l135 162h88l-150 -178z" />
    <glyph glyph-name="l" unicode="l" horiz-adv-x="235" 
d="M81 0v736l74 43v-779h-74z" />
    <glyph glyph-name="lacute" unicode="&#x13a;" horiz-adv-x="235" 
d="M92 818l67 137h83l-98 -137h-52zM81 0v736l74 43v-779h-74z" />
    <glyph glyph-name="lcaron" unicode="&#x13e;" horiz-adv-x="235" 
d="M81 0v736l74 43v-779h-74zM204 599l9 180h74l-30 -180h-53z" />
    <glyph glyph-name="uni013C" unicode="&#x13c;" horiz-adv-x="235" 
d="M81 0v736l74 43v-779h-74zM11 -195l67 137h83l-98 -137h-52z" />
    <glyph glyph-name="ldot" unicode="&#x140;" horiz-adv-x="308" 
d="M81 0v736l74 43v-779h-74zM271 323c-33 0 -57 25 -57 57c0 33 24 59 57 59c32 0 59 -26 59 -59c0 -32 -27 -57 -59 -57z" />
    <glyph glyph-name="lslash" unicode="&#x142;" horiz-adv-x="237" 
d="M251 436l-94 -46v-390h-74v354l-77 -38l-20 45l97 48v327l74 43v-334l74 36z" />
    <glyph glyph-name="m" unicode="m" horiz-adv-x="790" 
d="M81 0v522h74v-55c39 35 84 69 149 69c55 0 97 -21 118 -78c49 44 93 78 159 78c75 0 131 -42 131 -161v-375h-74v377c0 43 -18 99 -76 99c-52 0 -100 -43 -128 -72v-404h-75v377c0 43 -18 99 -76 99c-52 0 -100 -43 -128 -72v-404h-74z" />
    <glyph glyph-name="n" unicode="n" horiz-adv-x="516" 
d="M81 0v522h74v-55c39 35 88 69 152 69c69 0 131 -37 131 -163v-373h-74v371c0 47 -21 105 -79 105c-51 0 -102 -44 -130 -71v-405h-74z" />
    <glyph glyph-name="nacute" unicode="&#x144;" horiz-adv-x="516" 
d="M235 604l67 137h83l-98 -137h-52zM81 0v522h74v-55c39 35 88 69 152 69c69 0 131 -37 131 -163v-373h-74v371c0 47 -21 105 -79 105c-51 0 -102 -44 -130 -71v-405h-74z" />
    <glyph glyph-name="napostrophe" unicode="&#x149;" horiz-adv-x="516" 
d="M80 604l26 137h79l-51 -137h-54zM81 0v522h74v-55c39 35 88 69 152 69c69 0 131 -37 131 -163v-373h-74v371c0 47 -21 105 -79 105c-51 0 -102 -44 -130 -71v-405h-74z" />
    <glyph glyph-name="ncaron" unicode="&#x148;" horiz-adv-x="516" 
d="M225 604l-99 137h57l78 -90l81 90h56l-99 -137h-74zM81 0v522h74v-55c39 35 88 69 152 69c69 0 131 -37 131 -163v-373h-74v371c0 47 -21 105 -79 105c-51 0 -102 -44 -130 -71v-405h-74z" />
    <glyph glyph-name="uni0146" unicode="&#x146;" horiz-adv-x="516" 
d="M81 0v522h74v-55c39 35 88 69 152 69c69 0 131 -37 131 -163v-373h-74v371c0 47 -21 105 -79 105c-51 0 -102 -44 -130 -71v-405h-74zM153 -195l67 137h83l-98 -137h-52z" />
    <glyph glyph-name="eng" unicode="&#x14b;" horiz-adv-x="516" 
d="M321 -180c-13 0 -30 2 -43 5v62c11 -2 25 -4 35 -4c45 0 51 28 51 82v406c0 47 -21 105 -79 105c-51 0 -102 -44 -130 -71v-405h-74v522h74v-55c39 35 88 69 152 69c69 0 131 -37 131 -163v-409c0 -103 -27 -144 -117 -144z" />
    <glyph glyph-name="ntilde" unicode="&#xf1;" horiz-adv-x="516" 
d="M136 642l-31 29c18 30 51 74 97 74c45 0 85 -47 123 -47c27 0 47 22 59 47l33 -24c-16 -30 -48 -78 -91 -78c-44 0 -91 50 -127 50c-29 0 -49 -27 -63 -51zM81 0v522h74v-55c39 35 88 69 152 69c69 0 131 -37 131 -163v-373h-74v371c0 47 -21 105 -79 105
c-51 0 -102 -44 -130 -71v-405h-74z" />
    <glyph glyph-name="o" unicode="o" horiz-adv-x="511" 
d="M256 -14c-123 0 -210 93 -210 275s87 275 210 275c125 0 209 -93 209 -275s-85 -275 -209 -275zM256 43c112 0 134 127 134 218s-22 218 -134 218c-113 0 -133 -127 -133 -218s20 -218 133 -218z" />
    <glyph glyph-name="oacute" unicode="&#xf3;" horiz-adv-x="511" 
d="M229 604l67 137h83l-98 -137h-52zM256 -14c-123 0 -210 93 -210 275s87 275 210 275c125 0 209 -93 209 -275s-85 -275 -209 -275zM256 43c112 0 134 127 134 218s-22 218 -134 218c-113 0 -133 -127 -133 -218s20 -218 133 -218z" />
    <glyph glyph-name="obreve" unicode="&#x14f;" horiz-adv-x="511" 
d="M256 596c-84 0 -138 62 -152 145h53c11 -49 42 -92 99 -92s90 43 100 92h52c-13 -83 -69 -145 -152 -145zM256 -14c-123 0 -210 93 -210 275s87 275 210 275c125 0 209 -93 209 -275s-85 -275 -209 -275zM256 43c112 0 134 127 134 218s-22 218 -134 218
c-113 0 -133 -127 -133 -218s20 -218 133 -218z" />
    <glyph glyph-name="ocircumflex" unicode="&#xf4;" horiz-adv-x="511" 
d="M120 604l99 137h74l99 -137h-56l-81 90l-78 -90h-57zM256 -14c-123 0 -210 93 -210 275s87 275 210 275c125 0 209 -93 209 -275s-85 -275 -209 -275zM256 43c112 0 134 127 134 218s-22 218 -134 218c-113 0 -133 -127 -133 -218s20 -218 133 -218z" />
    <glyph glyph-name="uni1ED1" unicode="&#x1ed1;" horiz-adv-x="511" 
d="M228 735l69 105h84l-102 -105h-51zM120 604l99 99h74l99 -99h-57l-80 62l-76 -62h-59zM256 -14c-123 0 -210 93 -210 275s87 275 210 275c125 0 209 -93 209 -275s-85 -275 -209 -275zM256 43c112 0 134 127 134 218s-22 218 -134 218c-113 0 -133 -127 -133 -218
s20 -218 133 -218z" />
    <glyph glyph-name="uni1ED9" unicode="&#x1ed9;" horiz-adv-x="511" 
d="M120 604l99 137h74l99 -137h-56l-81 90l-78 -90h-57zM256 -14c-123 0 -210 93 -210 275s87 275 210 275c125 0 209 -93 209 -275s-85 -275 -209 -275zM256 43c112 0 134 127 134 218s-22 218 -134 218c-113 0 -133 -127 -133 -218s20 -218 133 -218zM255 -168
c-27 0 -48 21 -48 48s21 48 48 48s49 -21 49 -48s-22 -48 -49 -48z" />
    <glyph glyph-name="uni1ED3" unicode="&#x1ed3;" horiz-adv-x="511" 
d="M231 735l-101 105h84l69 -105h-52zM120 604l99 99h74l99 -99h-57l-80 62l-76 -62h-59zM256 -14c-123 0 -210 93 -210 275s87 275 210 275c125 0 209 -93 209 -275s-85 -275 -209 -275zM256 43c112 0 134 127 134 218s-22 218 -134 218c-113 0 -133 -127 -133 -218
s20 -218 133 -218z" />
    <glyph glyph-name="uni1ED5" unicode="&#x1ed5;" horiz-adv-x="511" 
d="M338 699c44 31 58 48 58 63c0 14 -14 28 -44 28c-27 0 -52 -6 -77 -20l-11 43c28 14 61 22 94 22c65 0 98 -27 98 -64c0 -23 -17 -46 -56 -72h-62zM120 604l99 99h74l99 -99h-57l-80 62l-76 -62h-59zM256 -14c-123 0 -210 93 -210 275s87 275 210 275
c125 0 209 -93 209 -275s-85 -275 -209 -275zM256 43c112 0 134 127 134 218s-22 218 -134 218c-113 0 -133 -127 -133 -218s20 -218 133 -218z" />
    <glyph glyph-name="uni1ED7" unicode="&#x1ed7;" horiz-adv-x="511" 
d="M141 739l-32 24c26 45 56 69 90 69c42 0 82 -41 115 -41c17 0 35 15 53 46l34 -25c-27 -44 -57 -68 -91 -68c-42 0 -83 41 -115 41c-18 0 -35 -16 -54 -46zM119 604l99 99h74l98 -99h-56l-79 62l-77 -62h-59zM256 -14c-123 0 -210 93 -210 275s87 275 210 275
c125 0 209 -93 209 -275s-85 -275 -209 -275zM256 43c112 0 134 127 134 218s-22 218 -134 218c-113 0 -133 -127 -133 -218s20 -218 133 -218z" />
    <glyph glyph-name="odieresis" unicode="&#xf6;" horiz-adv-x="511" 
d="M168 637c-25 0 -46 21 -46 46c0 27 21 48 46 48c27 0 48 -21 48 -48c0 -25 -21 -46 -48 -46zM343 637c-26 0 -47 21 -47 46c0 27 21 48 47 48c27 0 47 -21 47 -48c0 -25 -20 -46 -47 -46zM256 -14c-123 0 -210 93 -210 275s87 275 210 275c125 0 209 -93 209 -275
s-85 -275 -209 -275zM256 43c112 0 134 127 134 218s-22 218 -134 218c-113 0 -133 -127 -133 -218s20 -218 133 -218z" />
    <glyph glyph-name="uni1ECD" unicode="&#x1ecd;" horiz-adv-x="511" 
d="M256 -14c-123 0 -210 93 -210 275s87 275 210 275c125 0 209 -93 209 -275s-85 -275 -209 -275zM256 43c112 0 134 127 134 218s-22 218 -134 218c-113 0 -133 -127 -133 -218s20 -218 133 -218zM255 -168c-27 0 -48 21 -48 48s21 48 48 48s49 -21 49 -48
s-22 -48 -49 -48z" />
    <glyph glyph-name="ograve" unicode="&#xf2;" horiz-adv-x="511" 
d="M231 604l-99 137h83l67 -137h-51zM256 -14c-123 0 -210 93 -210 275s87 275 210 275c125 0 209 -93 209 -275s-85 -275 -209 -275zM256 43c112 0 134 127 134 218s-22 218 -134 218c-113 0 -133 -127 -133 -218s20 -218 133 -218z" />
    <glyph glyph-name="uni1ECF" unicode="&#x1ecf;" horiz-adv-x="511" 
d="M227 604c47 34 61 52 61 69s-14 31 -44 31c-27 0 -53 -6 -78 -20l-10 43c27 14 61 22 94 22c64 0 97 -27 97 -67c0 -23 -17 -50 -61 -78h-59zM256 -14c-123 0 -210 93 -210 275s87 275 210 275c125 0 209 -93 209 -275s-85 -275 -209 -275zM256 43c112 0 134 127 134 218
s-22 218 -134 218c-113 0 -133 -127 -133 -218s20 -218 133 -218z" />
    <glyph glyph-name="ohorn" unicode="&#x1a1;" horiz-adv-x="511" 
d="M476 578c0 -55 -29 -93 -74 -104c40 -46 63 -117 63 -213c0 -182 -85 -275 -209 -275c-123 0 -210 93 -210 275s87 275 210 275h1v0c49 0 72 -14 103 -14c35 0 50 20 50 59c0 22 -3 48 -11 77h65c9 -30 12 -52 12 -80zM256 43c112 0 134 127 134 218s-22 218 -134 218
c-113 0 -133 -127 -133 -218s20 -218 133 -218z" />
    <glyph glyph-name="uni1EDB" unicode="&#x1edb;" horiz-adv-x="511" 
d="M379 741l-98 -137h-52l67 137h83zM476 578c0 -55 -29 -93 -74 -104c40 -46 63 -117 63 -213c0 -182 -85 -275 -209 -275c-123 0 -210 93 -210 275s87 275 210 275h1v0c49 0 72 -14 103 -14c35 0 50 20 50 59c0 22 -3 48 -11 77h65c9 -30 12 -52 12 -80zM256 43
c112 0 134 127 134 218s-22 218 -134 218c-113 0 -133 -127 -133 -218s20 -218 133 -218z" />
    <glyph glyph-name="uni1EE3" unicode="&#x1ee3;" horiz-adv-x="511" 
d="M476 578c0 -55 -29 -93 -74 -104c40 -46 63 -117 63 -213c0 -182 -85 -275 -209 -275c-123 0 -210 93 -210 275s87 275 210 275h1v0c49 0 72 -14 103 -14c35 0 50 20 50 59c0 22 -3 48 -11 77h65c9 -30 12 -52 12 -80zM256 43c112 0 134 127 134 218s-22 218 -134 218
c-113 0 -133 -127 -133 -218s20 -218 133 -218zM255 -72c27 0 49 -21 49 -48s-22 -48 -49 -48s-48 21 -48 48s21 48 48 48z" />
    <glyph glyph-name="uni1EDD" unicode="&#x1edd;" horiz-adv-x="511" 
d="M282 604h-51l-99 137h83zM476 578c0 -55 -29 -93 -74 -104c40 -46 63 -117 63 -213c0 -182 -85 -275 -209 -275c-123 0 -210 93 -210 275s87 275 210 275h1v0c49 0 72 -14 103 -14c35 0 50 20 50 59c0 22 -3 48 -11 77h65c9 -30 12 -52 12 -80zM256 43
c112 0 134 127 134 218s-22 218 -134 218c-113 0 -133 -127 -133 -218s20 -218 133 -218z" />
    <glyph glyph-name="uni1EDF" unicode="&#x1edf;" horiz-adv-x="511" 
d="M244 704c-27 0 -53 -6 -78 -20l-10 43c27 14 61 22 94 22c64 0 97 -27 97 -67c0 -23 -17 -50 -61 -78h-59c47 34 61 52 61 69s-14 31 -44 31zM476 578c0 -55 -29 -93 -74 -104c40 -46 63 -117 63 -213c0 -182 -85 -275 -209 -275c-123 0 -210 93 -210 275s87 275 210 275
h1v0c49 0 72 -14 103 -14c35 0 50 20 50 59c0 22 -3 48 -11 77h65c9 -30 12 -52 12 -80zM256 43c112 0 134 127 134 218s-22 218 -134 218c-113 0 -133 -127 -133 -218s20 -218 133 -218z" />
    <glyph glyph-name="uni1EE1" unicode="&#x1ee1;" horiz-adv-x="511" 
d="M193 693c-29 0 -49 -27 -63 -51l-31 29c18 30 51 74 97 74c45 0 85 -47 123 -47c27 0 47 22 59 47l33 -24c-16 -30 -48 -78 -91 -78c-44 0 -91 50 -127 50zM476 578c0 -55 -29 -93 -74 -104c40 -46 63 -117 63 -213c0 -182 -85 -275 -209 -275c-123 0 -210 93 -210 275
s87 275 210 275h1v0c49 0 72 -14 103 -14c35 0 50 20 50 59c0 22 -3 48 -11 77h65c9 -30 12 -52 12 -80zM256 43c112 0 134 127 134 218s-22 218 -134 218c-113 0 -133 -127 -133 -218s20 -218 133 -218z" />
    <glyph glyph-name="ohungarumlaut" unicode="&#x151;" horiz-adv-x="511" 
d="M154 604l68 137h75l-98 -137h-45zM314 604l69 137h74l-98 -137h-45zM256 -14c-123 0 -210 93 -210 275s87 275 210 275c125 0 209 -93 209 -275s-85 -275 -209 -275zM256 43c112 0 134 127 134 218s-22 218 -134 218c-113 0 -133 -127 -133 -218s20 -218 133 -218z" />
    <glyph glyph-name="omacron" unicode="&#x14d;" horiz-adv-x="511" 
d="M95 654v55h319v-55h-319zM256 -14c-123 0 -210 93 -210 275s87 275 210 275c125 0 209 -93 209 -275s-85 -275 -209 -275zM256 43c112 0 134 127 134 218s-22 218 -134 218c-113 0 -133 -127 -133 -218s20 -218 133 -218z" />
    <glyph glyph-name="oslash" unicode="&#xf8;" horiz-adv-x="511" 
d="M409 464c35 -46 56 -114 56 -203c0 -182 -85 -275 -209 -275c-45 0 -85 12 -118 37l-37 -61l-41 26l43 70c-36 46 -57 114 -57 203c0 182 85 275 209 275c45 0 86 -12 118 -37l38 61l41 -26zM255 479c-112 0 -133 -127 -133 -218c0 -70 11 -115 16 -141h2l201 326
c-25 23 -55 33 -86 33zM256 43c113 0 134 127 134 218c0 70 -11 115 -17 141h-2l-200 -326c25 -23 54 -33 85 -33z" />
    <glyph glyph-name="otilde" unicode="&#xf5;" horiz-adv-x="511" 
d="M130 642l-31 29c18 30 51 74 97 74c45 0 85 -47 123 -47c27 0 47 22 59 47l33 -24c-16 -30 -48 -78 -91 -78c-44 0 -91 50 -127 50c-29 0 -49 -27 -63 -51zM256 -14c-123 0 -210 93 -210 275s87 275 210 275c125 0 209 -93 209 -275s-85 -275 -209 -275zM256 43
c112 0 134 127 134 218s-22 218 -134 218c-113 0 -133 -127 -133 -218s20 -218 133 -218z" />
    <glyph glyph-name="oe" unicode="&#x153;" horiz-adv-x="834" 
d="M256 -14c-123 0 -210 93 -210 275s87 275 210 275c76 0 136 -35 169 -110c33 73 94 110 174 110c133 0 188 -110 188 -259c0 -9 0 -16 -1 -25h-325c-2 -148 62 -208 145 -208c55 0 102 43 129 90l46 -43c-36 -58 -97 -105 -185 -105c-77 0 -138 34 -171 110
c-33 -76 -93 -110 -169 -110zM256 43c112 0 134 127 134 218s-22 218 -134 218c-113 0 -133 -127 -133 -218s20 -218 133 -218zM463 305h248c1 89 -31 174 -118 174c-88 0 -128 -92 -130 -174z" />
    <glyph glyph-name="p" unicode="p" horiz-adv-x="530" 
d="M81 -168v690h74v-54c35 36 75 68 132 68c87 0 194 -75 194 -279c0 -207 -115 -271 -196 -271c-55 0 -96 28 -130 69v-223h-74zM270 45c60 0 137 47 137 208c0 103 -39 218 -137 218c-50 0 -91 -37 -115 -78v-258c21 -42 66 -90 115 -90z" />
    <glyph glyph-name="thorn" unicode="&#xfe;" horiz-adv-x="530" 
d="M81 -168v904l74 43v-311c35 36 75 68 132 68c87 0 194 -75 194 -279c0 -207 -115 -271 -196 -271c-55 0 -96 28 -130 69v-223h-74zM270 45c60 0 137 47 137 208c0 103 -39 218 -137 218c-53 0 -92 -37 -115 -78v-258c21 -42 66 -90 115 -90z" />
    <glyph glyph-name="q" unicode="q" horiz-adv-x="530" 
d="M375 -179v233c-37 -40 -75 -68 -131 -68c-80 0 -196 63 -196 271c0 203 108 279 195 279c56 0 98 -30 133 -66v52h73v-677zM262 48c47 0 92 45 113 83v267c-24 37 -64 74 -116 74c-99 0 -137 -108 -137 -219c0 -145 78 -205 140 -205z" />
    <glyph glyph-name="r" unicode="r" horiz-adv-x="352" 
d="M81 0v522h74v-102c49 70 94 113 163 113c14 0 26 -3 26 -3v-74c-10 2 -21 4 -33 4c-51 0 -94 -33 -156 -121v-339h-74z" />
    <glyph glyph-name="racute" unicode="&#x155;" horiz-adv-x="352" 
d="M190 604l67 137h83l-98 -137h-52zM81 0v522h74v-102c49 70 94 113 163 113c14 0 26 -3 26 -3v-74c-10 2 -21 4 -33 4c-51 0 -94 -33 -156 -121v-339h-74z" />
    <glyph glyph-name="rcaron" unicode="&#x159;" horiz-adv-x="352" 
d="M180 604l-99 137h57l78 -90l81 90h56l-99 -137h-74zM81 0v522h74v-102c49 70 94 113 163 113c14 0 26 -3 26 -3v-74c-10 2 -21 4 -33 4c-51 0 -94 -33 -156 -121v-339h-74z" />
    <glyph glyph-name="uni0157" unicode="&#x157;" horiz-adv-x="352" 
d="M81 0v522h74v-102c49 70 94 113 163 113c14 0 26 -3 26 -3v-74c-10 2 -21 4 -33 4c-51 0 -94 -33 -156 -121v-339h-74zM13 -195l67 137h83l-98 -137h-52z" />
    <glyph glyph-name="s" unicode="s" horiz-adv-x="453" 
d="M233 -14c-75 0 -140 31 -184 94l48 48c30 -47 79 -83 139 -83c56 0 106 30 106 89c0 136 -282 66 -282 253c0 95 75 149 169 149c63 0 121 -26 159 -73l-39 -51c-30 37 -70 66 -122 66c-54 0 -98 -29 -98 -83c0 -135 283 -66 283 -253c0 -97 -78 -156 -179 -156z" />
    <glyph glyph-name="sacute" unicode="&#x15b;" horiz-adv-x="453" 
d="M202 604l67 137h83l-98 -137h-52zM233 -14c-75 0 -140 31 -184 94l48 48c30 -47 79 -83 139 -83c56 0 106 30 106 89c0 136 -282 66 -282 253c0 95 75 149 169 149c63 0 121 -26 159 -73l-39 -51c-30 37 -70 66 -122 66c-54 0 -98 -29 -98 -83c0 -135 283 -66 283 -253
c0 -97 -78 -156 -179 -156z" />
    <glyph glyph-name="scaron" unicode="&#x161;" horiz-adv-x="453" 
d="M192 604l-99 137h57l78 -90l81 90h56l-99 -137h-74zM233 -14c-75 0 -140 31 -184 94l48 48c30 -47 79 -83 139 -83c56 0 106 30 106 89c0 136 -282 66 -282 253c0 95 75 149 169 149c63 0 121 -26 159 -73l-39 -51c-30 37 -70 66 -122 66c-54 0 -98 -29 -98 -83
c0 -135 283 -66 283 -253c0 -97 -78 -156 -179 -156z" />
    <glyph glyph-name="scedilla" unicode="&#x15f;" horiz-adv-x="453" 
d="M412 142c0 -89 -66 -146 -154 -155l-23 -35c45 -9 91 -25 91 -75c0 -54 -50 -79 -104 -79c-29 0 -70 7 -88 19l12 43c14 -10 48 -20 74 -20c29 0 49 11 49 34c0 32 -39 42 -106 47l44 66c-64 7 -119 37 -158 93l48 48c30 -47 79 -83 139 -83c56 0 106 30 106 89
c0 136 -282 66 -282 253c0 95 75 149 169 149c63 0 121 -26 159 -73l-39 -51c-30 37 -70 66 -122 66c-54 0 -98 -29 -98 -83c0 -135 283 -66 283 -253z" />
    <glyph glyph-name="scircumflex" unicode="&#x15d;" horiz-adv-x="453" 
d="M93 604l99 137h74l99 -137h-56l-81 90l-78 -90h-57zM233 -14c-75 0 -140 31 -184 94l48 48c30 -47 79 -83 139 -83c56 0 106 30 106 89c0 136 -282 66 -282 253c0 95 75 149 169 149c63 0 121 -26 159 -73l-39 -51c-30 37 -70 66 -122 66c-54 0 -98 -29 -98 -83
c0 -135 283 -66 283 -253c0 -97 -78 -156 -179 -156z" />
    <glyph glyph-name="uni0219" unicode="&#x219;" horiz-adv-x="453" 
d="M233 -14c-75 0 -140 31 -184 94l48 48c30 -47 79 -83 139 -83c56 0 106 30 106 89c0 136 -282 66 -282 253c0 95 75 149 169 149c63 0 121 -26 159 -73l-39 -51c-30 37 -70 66 -122 66c-54 0 -98 -29 -98 -83c0 -135 283 -66 283 -253c0 -97 -78 -156 -179 -156z
M131 -195l67 137h83l-98 -137h-52z" />
    <glyph glyph-name="germandbls" unicode="&#xdf;" horiz-adv-x="529" 
d="M292 -13c-14 0 -38 2 -53 8v59c14 -7 30 -8 41 -8c76 0 123 82 123 194c0 87 -33 172 -149 172h-14v58h6c70 1 122 39 122 117c0 65 -38 116 -104 116c-52 0 -109 -31 -109 -130v-573h-74v563c0 168 110 201 182 201c114 0 176 -71 176 -169c0 -66 -30 -121 -93 -148
c105 -31 135 -122 135 -216c0 -175 -103 -244 -189 -244z" />
    <glyph glyph-name="longs" unicode="&#x17f;" horiz-adv-x="261" 
d="M99 0v460h-78v62h78v91c0 89 44 143 131 143c34 0 67 -8 85 -17l-20 -61c-13 7 -35 14 -58 14c-47 0 -64 -32 -64 -76v-616h-74z" />
    <glyph glyph-name="t" unicode="t" horiz-adv-x="318" 
d="M209 -14c-76 0 -111 44 -111 151v323h-76v62h76v139l74 45v-184h117v-62h-117v-337c0 -48 17 -76 55 -76c22 0 46 13 63 26l2 -63c-20 -12 -49 -24 -83 -24z" />
    <glyph glyph-name="tbar" unicode="&#x167;" horiz-adv-x="319" 
d="M291 73l2 -63c-20 -12 -50 -24 -83 -24c-76 0 -111 44 -111 151v117h-75v55h75v151h-77v62h77v139l74 45v-184h117v-62h-117v-151h114v-55h-114v-131c0 -48 17 -76 55 -76c22 0 45 13 63 26z" />
    <glyph glyph-name="tcaron" unicode="&#x165;" horiz-adv-x="318" 
d="M239 599l9 180h74l-30 -180h-53zM209 -14c-76 0 -111 44 -111 151v323h-76v62h76v139l74 45v-184h117v-62h-117v-337c0 -48 17 -76 55 -76c22 0 46 13 63 26l2 -63c-20 -12 -49 -24 -83 -24z" />
    <glyph glyph-name="uni0163" unicode="&#x163;" horiz-adv-x="318" 
d="M209 -14c-76 0 -111 44 -111 151v323h-76v62h76v139l74 45v-184h117v-62h-117v-337c0 -48 17 -76 55 -76c22 0 46 13 63 26l2 -63c-20 -12 -49 -24 -83 -24zM89 -195l67 137h83l-98 -137h-52z" />
    <glyph glyph-name="uni021B" unicode="&#x21b;" horiz-adv-x="318" 
d="M209 -14c-76 0 -111 44 -111 151v323h-76v62h76v139l74 45v-184h117v-62h-117v-337c0 -48 17 -76 55 -76c22 0 46 13 63 26l2 -63c-20 -12 -49 -24 -83 -24zM89 -195l67 137h83l-98 -137h-52z" />
    <glyph glyph-name="u" unicode="u" horiz-adv-x="516" 
d="M209 -14c-68 0 -131 37 -131 162v374h74v-372c0 -44 20 -104 80 -104c50 0 100 43 130 71v405h74v-522h-74v54c-40 -34 -88 -68 -153 -68z" />
    <glyph glyph-name="uacute" unicode="&#xfa;" horiz-adv-x="516" 
d="M235 604l67 137h83l-98 -137h-52zM209 -14c-68 0 -131 37 -131 162v374h74v-372c0 -44 20 -104 80 -104c50 0 100 43 130 71v405h74v-522h-74v54c-40 -34 -88 -68 -153 -68z" />
    <glyph glyph-name="ubreve" unicode="&#x16d;" horiz-adv-x="516" 
d="M261 596c-84 0 -138 62 -152 145h53c11 -49 42 -92 99 -92s90 43 100 92h52c-13 -83 -69 -145 -152 -145zM209 -14c-68 0 -131 37 -131 162v374h74v-372c0 -44 20 -104 80 -104c50 0 100 43 130 71v405h74v-522h-74v54c-40 -34 -88 -68 -153 -68z" />
    <glyph glyph-name="ucircumflex" unicode="&#xfb;" horiz-adv-x="516" 
d="M126 604l99 137h74l99 -137h-56l-81 90l-78 -90h-57zM209 -14c-68 0 -131 37 -131 162v374h74v-372c0 -44 20 -104 80 -104c50 0 100 43 130 71v405h74v-522h-74v54c-40 -34 -88 -68 -153 -68z" />
    <glyph glyph-name="udieresis" unicode="&#xfc;" horiz-adv-x="516" 
d="M173 637c-25 0 -46 21 -46 46c0 27 21 48 46 48c27 0 48 -21 48 -48c0 -25 -21 -46 -48 -46zM348 637c-26 0 -47 21 -47 46c0 27 21 48 47 48c27 0 47 -21 47 -48c0 -25 -20 -46 -47 -46zM209 -14c-68 0 -131 37 -131 162v374h74v-372c0 -44 20 -104 80 -104
c50 0 100 43 130 71v405h74v-522h-74v54c-40 -34 -88 -68 -153 -68z" />
    <glyph glyph-name="uni1EE5" unicode="&#x1ee5;" horiz-adv-x="516" 
d="M209 -14c-68 0 -131 37 -131 162v374h74v-372c0 -44 20 -104 80 -104c50 0 100 43 130 71v405h74v-522h-74v54c-40 -34 -88 -68 -153 -68zM250 -168c-27 0 -48 21 -48 48s21 48 48 48s49 -21 49 -48s-22 -48 -49 -48z" />
    <glyph glyph-name="ugrave" unicode="&#xf9;" horiz-adv-x="516" 
d="M236 604l-99 137h83l67 -137h-51zM209 -14c-68 0 -131 37 -131 162v374h74v-372c0 -44 20 -104 80 -104c50 0 100 43 130 71v405h74v-522h-74v54c-40 -34 -88 -68 -153 -68z" />
    <glyph glyph-name="uni1EE7" unicode="&#x1ee7;" horiz-adv-x="516" 
d="M232 604c47 34 61 52 61 69s-14 31 -44 31c-27 0 -53 -6 -78 -20l-10 43c27 14 61 22 94 22c64 0 97 -27 97 -67c0 -23 -17 -50 -61 -78h-59zM209 -14c-68 0 -131 37 -131 162v374h74v-372c0 -44 20 -104 80 -104c50 0 100 43 130 71v405h74v-522h-74v54
c-40 -34 -88 -68 -153 -68z" />
    <glyph glyph-name="uhorn" unicode="&#x1b0;" horiz-adv-x="516" 
d="M523 578c0 -64 -38 -101 -87 -106v-472h-74v54c-40 -34 -88 -68 -153 -68c-68 0 -131 37 -131 162v374h74v-372c0 -44 20 -104 80 -104c50 0 100 43 130 71v405h42c38 0 53 19 53 59c0 22 -2 48 -11 77h66c8 -30 11 -52 11 -80z" />
    <glyph glyph-name="uni1EE9" unicode="&#x1ee9;" horiz-adv-x="516" 
d="M382 741l-98 -137h-52l67 137h83zM523 578c0 -64 -38 -101 -87 -106v-472h-74v54c-40 -34 -88 -68 -153 -68c-68 0 -131 37 -131 162v374h74v-372c0 -44 20 -104 80 -104c50 0 100 43 130 71v405h42c38 0 53 19 53 59c0 22 -2 48 -11 77h66c8 -30 11 -52 11 -80z" />
    <glyph glyph-name="uni1EF1" unicode="&#x1ef1;" horiz-adv-x="516" 
d="M523 578c0 -64 -38 -101 -87 -106v-472h-74v54c-40 -34 -88 -68 -153 -68c-68 0 -131 37 -131 162v374h74v-372c0 -44 20 -104 80 -104c50 0 100 43 130 71v405h42c38 0 53 19 53 59c0 22 -2 48 -11 77h66c8 -30 11 -52 11 -80zM257 -72c27 0 49 -21 49 -48
s-22 -48 -49 -48s-48 21 -48 48s21 48 48 48z" />
    <glyph glyph-name="uni1EEB" unicode="&#x1eeb;" horiz-adv-x="516" 
d="M284 604h-51l-99 137h83zM523 578c0 -64 -38 -101 -87 -106v-472h-74v54c-40 -34 -88 -68 -153 -68c-68 0 -131 37 -131 162v374h74v-372c0 -44 20 -104 80 -104c50 0 100 43 130 71v405h42c38 0 53 19 53 59c0 22 -2 48 -11 77h66c8 -30 11 -52 11 -80z" />
    <glyph glyph-name="uni1EED" unicode="&#x1eed;" horiz-adv-x="516" 
d="M246 704c-27 0 -53 -6 -78 -20l-10 43c27 14 61 22 94 22c64 0 97 -27 97 -67c0 -23 -17 -50 -61 -78h-59c47 34 61 52 61 69s-14 31 -44 31zM523 578c0 -64 -38 -101 -87 -106v-472h-74v54c-40 -34 -88 -68 -153 -68c-68 0 -131 37 -131 162v374h74v-372
c0 -44 20 -104 80 -104c50 0 100 43 130 71v405h42c38 0 53 19 53 59c0 22 -2 48 -11 77h66c8 -30 11 -52 11 -80z" />
    <glyph glyph-name="uni1EEF" unicode="&#x1eef;" horiz-adv-x="516" 
d="M196 693c-29 0 -49 -27 -63 -51l-31 29c18 30 51 74 97 74c45 0 85 -47 123 -47c27 0 47 22 59 47l33 -24c-16 -30 -48 -78 -91 -78c-44 0 -91 50 -127 50zM523 578c0 -64 -38 -101 -87 -106v-472h-74v54c-40 -34 -88 -68 -153 -68c-68 0 -131 37 -131 162v374h74v-372
c0 -44 20 -104 80 -104c50 0 100 43 130 71v405h42c38 0 53 19 53 59c0 22 -2 48 -11 77h66c8 -30 11 -52 11 -80z" />
    <glyph glyph-name="uhungarumlaut" unicode="&#x171;" horiz-adv-x="516" 
d="M160 604l68 137h75l-98 -137h-45zM320 604l69 137h74l-98 -137h-45zM209 -14c-68 0 -131 37 -131 162v374h74v-372c0 -44 20 -104 80 -104c50 0 100 43 130 71v405h74v-522h-74v54c-40 -34 -88 -68 -153 -68z" />
    <glyph glyph-name="umacron" unicode="&#x16b;" horiz-adv-x="516" 
d="M101 654v55h319v-55h-319zM209 -14c-68 0 -131 37 -131 162v374h74v-372c0 -44 20 -104 80 -104c50 0 100 43 130 71v405h74v-522h-74v54c-40 -34 -88 -68 -153 -68z" />
    <glyph glyph-name="uogonek" unicode="&#x173;" horiz-adv-x="516" 
d="M362 522h74v-522h-7c-68 -34 -104 -73 -104 -109c0 -27 18 -38 42 -38c20 0 40 6 58 17v-45c-20 -12 -41 -17 -64 -17c-45 0 -88 21 -88 76c0 44 33 87 89 119v51c-40 -34 -88 -68 -153 -68c-68 0 -131 37 -131 162v374h74v-372c0 -44 20 -104 80 -104
c50 0 100 43 130 71v405z" />
    <glyph glyph-name="uring" unicode="&#x16f;" horiz-adv-x="516" 
d="M261 584c-46 0 -84 39 -84 85s38 85 84 85c47 0 85 -39 85 -85s-38 -85 -85 -85zM261 624c26 0 46 21 46 45s-20 46 -46 46c-24 0 -45 -22 -45 -46s21 -45 45 -45zM209 -14c-68 0 -131 37 -131 162v374h74v-372c0 -44 20 -104 80 -104c50 0 100 43 130 71v405h74v-522
h-74v54c-40 -34 -88 -68 -153 -68z" />
    <glyph glyph-name="utilde" unicode="&#x169;" horiz-adv-x="516" 
d="M136 642l-31 29c18 30 51 74 97 74c45 0 85 -47 123 -47c27 0 47 22 59 47l33 -24c-16 -30 -48 -78 -91 -78c-44 0 -91 50 -127 50c-29 0 -49 -27 -63 -51zM209 -14c-68 0 -131 37 -131 162v374h74v-372c0 -44 20 -104 80 -104c50 0 100 43 130 71v405h74v-522h-74v54
c-40 -34 -88 -68 -153 -68z" />
    <glyph glyph-name="v" unicode="v" horiz-adv-x="420" 
d="M167 0l-165 522h80l130 -449h2l129 449h75l-161 -522h-90z" />
    <glyph glyph-name="w" unicode="w" horiz-adv-x="636" 
d="M138 0l-133 522h70l103 -435h1l104 435h78l97 -434h1l105 434h67l-137 -522h-77l-97 428h-2l-102 -428h-78z" />
    <glyph glyph-name="wacute" unicode="&#x1e83;" horiz-adv-x="636" 
d="M293 604l67 137h83l-98 -137h-52zM138 0l-133 522h70l103 -435h1l104 435h78l97 -434h1l105 434h67l-137 -522h-77l-97 428h-2l-102 -428h-78z" />
    <glyph glyph-name="wcircumflex" unicode="&#x175;" horiz-adv-x="636" 
d="M184 604l99 137h74l99 -137h-56l-81 90l-78 -90h-57zM138 0l-133 522h70l103 -435h1l104 435h78l97 -434h1l105 434h67l-137 -522h-77l-97 428h-2l-102 -428h-78z" />
    <glyph glyph-name="wdieresis" unicode="&#x1e85;" horiz-adv-x="636" 
d="M232 637c-25 0 -46 21 -46 46c0 27 21 48 46 48c27 0 48 -21 48 -48c0 -25 -21 -46 -48 -46zM407 637c-26 0 -47 21 -47 46c0 27 21 48 47 48c27 0 47 -21 47 -48c0 -25 -20 -46 -47 -46zM138 0l-133 522h70l103 -435h1l104 435h78l97 -434h1l105 434h67l-137 -522h-77
l-97 428h-2l-102 -428h-78z" />
    <glyph glyph-name="wgrave" unicode="&#x1e81;" horiz-adv-x="636" 
d="M295 604l-99 137h83l67 -137h-51zM138 0l-133 522h70l103 -435h1l104 435h78l97 -434h1l105 434h67l-137 -522h-77l-97 428h-2l-102 -428h-78z" />
    <glyph glyph-name="x" unicode="x" horiz-adv-x="456" 
d="M265 277l173 -277h-85l-133 221h-2l-123 -221h-77l160 273l-157 249h84l116 -196h2l110 196h77z" />
    <glyph glyph-name="y" unicode="y" horiz-adv-x="441" 
d="M76 -185c-19 0 -41 3 -58 8l7 63c13 -5 27 -8 42 -8c80 0 107 57 128 124l-187 520h79l146 -423h1l132 423h72l-184 -555c-31 -93 -72 -152 -178 -152z" />
    <glyph glyph-name="yacute" unicode="&#xfd;" horiz-adv-x="441" 
d="M211 604l67 137h83l-98 -137h-52zM76 -185c-19 0 -41 3 -58 8l7 63c13 -5 27 -8 42 -8c80 0 107 57 128 124l-187 520h79l146 -423h1l132 423h72l-184 -555c-31 -93 -72 -152 -178 -152z" />
    <glyph glyph-name="ycircumflex" unicode="&#x177;" horiz-adv-x="441" 
d="M102 604l99 137h74l99 -137h-56l-81 90l-78 -90h-57zM76 -185c-19 0 -41 3 -58 8l7 63c13 -5 27 -8 42 -8c80 0 107 57 128 124l-187 520h79l146 -423h1l132 423h72l-184 -555c-31 -93 -72 -152 -178 -152z" />
    <glyph glyph-name="ydieresis" unicode="&#xff;" horiz-adv-x="441" 
d="M150 637c-25 0 -46 21 -46 46c0 27 21 48 46 48c27 0 48 -21 48 -48c0 -25 -21 -46 -48 -46zM325 637c-26 0 -47 21 -47 46c0 27 21 48 47 48c27 0 47 -21 47 -48c0 -25 -20 -46 -47 -46zM76 -185c-19 0 -41 3 -58 8l7 63c13 -5 27 -8 42 -8c80 0 107 57 128 124
l-187 520h79l146 -423h1l132 423h72l-184 -555c-31 -93 -72 -152 -178 -152z" />
    <glyph glyph-name="uni1EF5" unicode="&#x1ef5;" horiz-adv-x="441" 
d="M76 -185c-19 0 -41 3 -58 8l7 63c13 -5 27 -8 42 -8c80 0 107 57 128 124l-187 520h79l146 -423h1l132 423h72l-184 -555c-31 -93 -72 -152 -178 -152zM339 -168c-27 0 -48 21 -48 48s21 48 48 48s49 -21 49 -48s-22 -48 -49 -48z" />
    <glyph glyph-name="ygrave" unicode="&#x1ef3;" horiz-adv-x="441" 
d="M212 604l-99 137h83l67 -137h-51zM76 -185c-19 0 -41 3 -58 8l7 63c13 -5 27 -8 42 -8c80 0 107 57 128 124l-187 520h79l146 -423h1l132 423h72l-184 -555c-31 -93 -72 -152 -178 -152z" />
    <glyph glyph-name="uni1EF7" unicode="&#x1ef7;" horiz-adv-x="441" 
d="M208 604c47 34 61 52 61 69s-14 31 -44 31c-27 0 -53 -6 -78 -20l-10 43c27 14 61 22 94 22c64 0 97 -27 97 -67c0 -23 -17 -50 -61 -78h-59zM76 -185c-19 0 -41 3 -58 8l7 63c13 -5 27 -8 42 -8c80 0 107 57 128 124l-187 520h79l146 -423h1l132 423h72l-184 -555
c-31 -93 -72 -152 -178 -152z" />
    <glyph glyph-name="uni1EF9" unicode="&#x1ef9;" horiz-adv-x="441" 
d="M112 642l-31 29c18 30 51 74 97 74c45 0 85 -47 123 -47c27 0 47 22 59 47l33 -24c-16 -30 -48 -78 -91 -78c-44 0 -91 50 -127 50c-29 0 -49 -27 -63 -51zM76 -185c-19 0 -41 3 -58 8l7 63c13 -5 27 -8 42 -8c80 0 107 57 128 124l-187 520h79l146 -423h1l132 423h72
l-184 -555c-31 -93 -72 -152 -178 -152z" />
    <glyph glyph-name="z" unicode="z" horiz-adv-x="414" 
d="M385 522v-46l-268 -415h268v-61h-356v50l264 411h-242v61h334z" />
    <glyph glyph-name="zacute" unicode="&#x17a;" horiz-adv-x="414" 
d="M334 741l-98 -137h-52l67 137h83zM385 522v-46l-268 -415h268v-61h-356v50l264 411h-242v61h334z" />
    <glyph glyph-name="zcaron" unicode="&#x17e;" horiz-adv-x="414" 
d="M247 604h-74l-99 137h57l78 -90l81 90h56zM385 522v-46l-268 -415h268v-61h-356v50l264 411h-242v61h334z" />
    <glyph glyph-name="zdotaccent" unicode="&#x17c;" horiz-adv-x="414" 
d="M209 635c-27 0 -48 22 -48 48c0 27 21 49 48 49s49 -22 49 -49c0 -26 -22 -48 -49 -48zM385 522v-46l-268 -415h268v-61h-356v50l264 411h-242v61h334z" />
    <glyph glyph-name="f.calt" horiz-adv-x="290" 
d="M99 0v460h-78v62h78v91c0 89 44 143 131 143c34 0 67 -8 85 -17l-20 -61c-13 7 -35 14 -58 14c-47 0 -64 -32 -64 -76v-94h99l-12 -62h-87v-460h-74z" />
    <glyph glyph-name="t.calt" horiz-adv-x="318" 
d="M209 -14c-76 0 -111 44 -111 151v323h-76v62h76v139l74 45v-184h113v-62h-113v-337c0 -48 17 -76 55 -76c22 0 46 13 63 26l2 -63c-20 -12 -49 -24 -83 -24z" />
    <glyph glyph-name="f.calt2" horiz-adv-x="290" 
d="M99 0v460h-78v62h78v91c0 89 44 143 130 143c32 0 62 -7 82 -16l-20 -61c-14 7 -33 13 -56 13c-45 0 -62 -32 -62 -76v-94h120l-11 -62h-109v-460h-74z" />
    <glyph glyph-name="i.locl" horiz-adv-x="235" 
d="M116 650c-28 0 -52 25 -52 53c0 29 24 53 52 53s53 -24 53 -53c0 -28 -25 -53 -53 -53zM80 0v522h74v-522h-74z" />
    <glyph glyph-name="g.ss01" horiz-adv-x="530" 
d="M252 -182c-82 0 -162 37 -180 116l63 41c6 -58 57 -92 117 -92c63 0 123 38 123 140v69c-39 -42 -76 -68 -133 -68c-78 0 -194 44 -194 252c0 203 109 260 193 260c61 0 101 -29 138 -66l3 52h67v-495c0 -135 -80 -209 -197 -209zM256 87c56 0 95 42 119 82v229
c-24 42 -60 74 -116 74c-97 0 -137 -88 -137 -196c0 -149 78 -189 134 -189z" />
    <glyph glyph-name="gbreve.ss01" horiz-adv-x="530" 
d="M254 596c-84 0 -138 62 -152 145h53c11 -49 42 -92 99 -92s90 43 100 92h52c-13 -83 -69 -145 -152 -145zM252 -182c-82 0 -162 37 -180 116l63 41c6 -58 57 -92 117 -92c63 0 123 38 123 140v69c-39 -42 -76 -68 -133 -68c-78 0 -194 44 -194 252c0 203 109 260 193 260
c61 0 101 -29 138 -66l3 52h67v-495c0 -135 -80 -209 -197 -209zM256 87c56 0 95 42 119 82v229c-24 42 -60 74 -116 74c-97 0 -137 -88 -137 -196c0 -149 78 -189 134 -189z" />
    <glyph glyph-name="gcircumflex.ss01" horiz-adv-x="530" 
d="M119 604l99 137h74l99 -137h-56l-81 90l-78 -90h-57zM252 -182c-82 0 -162 37 -180 116l63 41c6 -58 57 -92 117 -92c63 0 123 38 123 140v69c-39 -42 -76 -68 -133 -68c-78 0 -194 44 -194 252c0 203 109 260 193 260c61 0 101 -29 138 -66l3 52h67v-495
c0 -135 -80 -209 -197 -209zM256 87c56 0 95 42 119 82v229c-24 42 -60 74 -116 74c-97 0 -137 -88 -137 -196c0 -149 78 -189 134 -189z" />
    <glyph glyph-name="uni0123.ss01" horiz-adv-x="530" 
d="M209 604l99 137h51l-67 -137h-83zM252 -182c-82 0 -162 37 -180 116l63 41c6 -58 57 -92 117 -92c63 0 123 38 123 140v69c-39 -42 -76 -68 -133 -68c-78 0 -194 44 -194 252c0 203 109 260 193 260c61 0 101 -29 138 -66l3 52h67v-495c0 -135 -80 -209 -197 -209z
M256 87c56 0 95 42 119 82v229c-24 42 -60 74 -116 74c-97 0 -137 -88 -137 -196c0 -149 78 -189 134 -189z" />
    <glyph glyph-name="gdotaccent.ss01" horiz-adv-x="530" 
d="M254 635c-27 0 -48 22 -48 48c0 27 21 49 48 49s49 -22 49 -49c0 -26 -22 -48 -49 -48zM252 -182c-82 0 -162 37 -180 116l63 41c6 -58 57 -92 117 -92c63 0 123 38 123 140v69c-39 -42 -76 -68 -133 -68c-78 0 -194 44 -194 252c0 203 109 260 193 260
c61 0 101 -29 138 -66l3 52h67v-495c0 -135 -80 -209 -197 -209zM256 87c56 0 95 42 119 82v229c-24 42 -60 74 -116 74c-97 0 -137 -88 -137 -196c0 -149 78 -189 134 -189z" />
    <glyph glyph-name="T_h" horiz-adv-x="898" 
d="M689 536c68 0 131 -37 131 -163v-373h-74v371c0 47 -21 105 -79 105c-51 0 -102 -44 -131 -71v-405h-74v677h-177v-677h-78v677h-197v64h461l65 38v-312c40 35 89 69 153 69z" />
    <glyph glyph-name="ordfeminine" unicode="&#xaa;" horiz-adv-x="360" 
d="M145 416c-52 0 -100 35 -100 99c0 73 53 101 148 115c31 3 41 8 41 35c0 32 -21 51 -52 51c-35 0 -64 -23 -85 -53l-27 35c27 34 65 57 118 57c60 0 99 -30 99 -98v-232h-53v35c-25 -25 -54 -44 -89 -44zM152 457c32 0 60 22 81 50v89l-52 -8c-50 -6 -83 -25 -83 -75
c0 -36 22 -56 54 -56z" />
    <glyph glyph-name="ordmasculine" unicode="&#xba;" horiz-adv-x="360" 
d="M180 416c-78 0 -134 55 -134 170c0 114 56 169 134 169s134 -56 134 -169c0 -114 -56 -170 -134 -170zM180 455c66 0 79 76 79 131c0 54 -13 130 -79 130s-80 -75 -80 -130c0 -56 14 -131 80 -131z" />
    <glyph glyph-name="pi" unicode="&#x3c0;" horiz-adv-x="600" 
d="M492 -14c-70 0 -111 44 -111 151v323h-209v-460h-74v460h-76v62h551v-62h-117v-337c0 -48 17 -76 54 -76c22 0 45 13 63 27l2 -63c-20 -12 -49 -25 -83 -25z" />
    <glyph glyph-name="zero" unicode="0" 
d="M296 -14c-178 0 -237 192 -237 383c0 187 52 387 237 387c186 0 237 -200 237 -387c0 -191 -58 -383 -237 -383zM296 50c144 0 161 202 161 319s-16 323 -161 323c-144 0 -160 -206 -160 -323s17 -319 160 -319z" />
    <glyph glyph-name="one" unicode="1" 
d="M152 0v62h114v572c-30 -36 -76 -66 -138 -87l-18 60c72 23 139 69 173 134h61v-679h114v-62h-306z" />
    <glyph glyph-name="two" unicode="2" 
d="M81 0v68c100 245 356 307 356 481c0 77 -48 142 -128 142c-90 0 -148 -84 -144 -173l-67 35c-2 113 92 202 215 202c129 0 205 -89 205 -202c0 -215 -270 -275 -359 -489h359v-64h-437z" />
    <glyph glyph-name="three" unicode="3" 
d="M290 -15c-101 0 -192 57 -228 154l66 41c25 -74 85 -132 163 -132c90 0 151 57 151 148c0 124 -79 164 -190 164c-13 0 -27 0 -42 -2v64c18 -3 34 -4 54 -4c108 0 163 57 163 140c0 82 -53 133 -136 133c-69 0 -121 -49 -138 -107l-62 36c32 81 112 135 212 135
c117 0 199 -82 199 -188c0 -83 -36 -139 -127 -176c97 -27 146 -99 146 -185c0 -137 -100 -221 -231 -221z" />
    <glyph glyph-name="four" unicode="4" 
d="M356 0v180h-301v67l277 494h103v-498h110v-63h-110v-180h-79zM128 243h228v414h-1z" />
    <glyph glyph-name="five" unicode="5" 
d="M285 -16c-98 0 -176 52 -207 147l64 43c20 -78 76 -126 147 -126c108 0 154 101 154 197c0 119 -64 189 -143 189c-62 0 -113 -45 -140 -95l-63 15l21 387h348v-65h-284l-20 -258c45 55 98 80 153 80c137 0 208 -121 208 -246c0 -143 -89 -268 -238 -268z" />
    <glyph glyph-name="six" unicode="6" 
d="M310 -16c-121 0 -242 101 -242 349c0 285 127 423 277 423c55 0 108 -15 145 -49l-32 -64c-27 28 -65 47 -111 47c-86 0 -190 -81 -200 -326c51 62 113 106 180 106c95 0 205 -70 205 -232c0 -188 -133 -254 -222 -254zM309 50c68 0 144 53 144 189
c0 81 -44 166 -132 166c-80 0 -137 -63 -172 -127c6 -179 100 -228 160 -228z" />
    <glyph glyph-name="seven" unicode="7" 
d="M156 0c29 206 142 452 292 676h-346v65h422v-52c-141 -224 -263 -499 -280 -689h-88z" />
    <glyph glyph-name="eight" unicode="8" 
d="M368 393c86 -44 167 -97 167 -208c0 -120 -105 -201 -240 -201c-129 0 -238 77 -238 197c0 112 82 165 170 209c-77 40 -143 90 -143 186c0 111 106 180 217 180c112 0 211 -65 211 -178c0 -96 -67 -146 -144 -185zM159 577c0 -76 65 -115 141 -152c74 37 136 77 136 152
c0 70 -58 114 -136 114c-68 0 -141 -38 -141 -114zM297 49c87 0 163 47 163 139c0 89 -80 129 -166 169c-84 -39 -161 -80 -161 -168c0 -91 75 -140 164 -140z" />
    <glyph glyph-name="nine" unicode="9" 
d="M247 -16c-63 0 -115 26 -158 65l43 54c31 -29 71 -53 116 -53c85 0 187 82 196 327c-50 -63 -113 -106 -179 -106c-79 0 -205 60 -205 232c0 187 133 253 221 253c122 0 243 -100 243 -348c0 -285 -127 -424 -277 -424zM268 336c80 0 140 62 175 127
c-6 179 -100 227 -160 227c-69 0 -144 -52 -144 -188c0 -81 41 -166 129 -166z" />
    <glyph glyph-name="zero.lf" 
d="M296 -14c-178 0 -237 192 -237 383c0 187 52 387 237 387c186 0 237 -200 237 -387c0 -191 -58 -383 -237 -383zM296 50c144 0 161 202 161 319s-16 323 -161 323c-144 0 -160 -206 -160 -323s17 -319 160 -319z" />
    <glyph glyph-name="one.lf" horiz-adv-x="394" 
d="M182 0v634c-30 -36 -75 -66 -137 -87l-18 60c72 23 138 69 172 134h61v-741h-78z" />
    <glyph glyph-name="two.lf" 
d="M81 0v68c100 245 356 307 356 481c0 77 -48 142 -128 142c-90 0 -148 -84 -144 -173l-67 35c-2 113 92 202 215 202c129 0 205 -89 205 -202c0 -215 -270 -275 -359 -489h359v-64h-437z" />
    <glyph glyph-name="three.lf" 
d="M290 -15c-101 0 -192 57 -228 154l66 41c25 -74 85 -132 163 -132c90 0 151 57 151 148c0 124 -79 164 -190 164c-13 0 -27 0 -42 -2v64c18 -3 34 -4 54 -4c108 0 163 57 163 140c0 82 -53 133 -136 133c-69 0 -121 -49 -138 -107l-62 36c32 81 112 135 212 135
c117 0 199 -82 199 -188c0 -83 -36 -139 -127 -176c97 -27 146 -99 146 -185c0 -137 -100 -221 -231 -221z" />
    <glyph glyph-name="four.lf" 
d="M356 0v180h-301v67l277 494h103v-498h110v-63h-110v-180h-79zM128 243h228v414h-1z" />
    <glyph glyph-name="five.lf" 
d="M285 -16c-98 0 -176 52 -207 147l64 43c20 -78 76 -126 147 -126c108 0 154 101 154 197c0 119 -64 189 -143 189c-62 0 -113 -45 -140 -95l-63 15l21 387h348v-65h-284l-20 -258c45 55 98 80 153 80c137 0 208 -121 208 -246c0 -143 -89 -268 -238 -268z" />
    <glyph glyph-name="six.lf" 
d="M310 -16c-121 0 -242 101 -242 349c0 285 127 423 277 423c55 0 108 -15 145 -49l-32 -64c-27 28 -65 47 -111 47c-86 0 -190 -81 -200 -326c51 62 113 106 180 106c95 0 205 -70 205 -232c0 -188 -133 -254 -222 -254zM309 50c68 0 144 53 144 189
c0 81 -44 166 -132 166c-80 0 -137 -63 -172 -127c6 -179 100 -228 160 -228z" />
    <glyph glyph-name="seven.lf" 
d="M156 0c29 206 142 452 292 676h-346v65h422v-52c-141 -224 -263 -499 -280 -689h-88z" />
    <glyph glyph-name="eight.lf" 
d="M368 393c86 -44 167 -97 167 -208c0 -120 -105 -201 -240 -201c-129 0 -238 77 -238 197c0 112 82 165 170 209c-77 40 -143 90 -143 186c0 111 106 180 217 180c112 0 211 -65 211 -178c0 -96 -67 -146 -144 -185zM159 577c0 -76 65 -115 141 -152c74 37 136 77 136 152
c0 70 -58 114 -136 114c-68 0 -141 -38 -141 -114zM297 49c87 0 163 47 163 139c0 89 -80 129 -166 169c-84 -39 -161 -80 -161 -168c0 -91 75 -140 164 -140z" />
    <glyph glyph-name="nine.lf" 
d="M247 -16c-63 0 -115 26 -158 65l43 54c31 -29 71 -53 116 -53c85 0 187 82 196 327c-50 -63 -113 -106 -179 -106c-79 0 -205 60 -205 232c0 187 133 253 221 253c122 0 243 -100 243 -348c0 -285 -127 -424 -277 -424zM268 336c80 0 140 62 175 127
c-6 179 -100 227 -160 227c-69 0 -144 -52 -144 -188c0 -81 41 -166 129 -166z" />
    <glyph glyph-name="zero.osf" horiz-adv-x="554" 
d="M278 -14c-124 0 -219 92 -219 281s95 280 219 280c123 0 217 -91 217 -280s-94 -281 -217 -281zM278 43c112 0 141 127 141 224s-29 223 -141 223c-113 0 -142 -126 -142 -223s29 -224 142 -224z" />
    <glyph glyph-name="one.osf" horiz-adv-x="455" 
d="M107 0v61h116v381c-29 -33 -80 -63 -125 -81l-16 59c67 26 127 68 158 128h57v-487h111v-61h-301z" />
    <glyph glyph-name="two.osf" horiz-adv-x="529" 
d="M81 0v68c83 170 299 178 299 326c0 67 -42 106 -106 106c-70 0 -122 -52 -117 -139l-65 34c-3 102 80 165 187 165c101 0 175 -56 175 -163c0 -188 -220 -191 -296 -336h297v-61h-374z" />
    <glyph glyph-name="three.osf" horiz-adv-x="580" 
d="M284 -206c-101 0 -186 54 -222 151l64 39c26 -76 81 -131 160 -131c89 0 146 59 146 151c0 122 -73 162 -182 162c-15 0 -27 0 -41 -2v64c18 -3 31 -3 52 -3c106 0 156 59 156 141c0 83 -48 134 -130 134c-69 0 -117 -47 -135 -106l-61 34c32 81 107 132 207 132
c117 0 192 -77 192 -184c0 -83 -35 -142 -127 -178c98 -28 146 -99 146 -184c0 -138 -93 -220 -225 -220z" />
    <glyph glyph-name="four.osf" horiz-adv-x="572" 
d="M356 -189v189h-301v65l277 480h97v-484h96v-61h-96v-189h-73zM125 61h231v404h-1z" />
    <glyph glyph-name="five.osf" horiz-adv-x="582" 
d="M281 -200c-98 0 -172 51 -203 145l62 41c21 -78 75 -127 144 -127c109 0 152 103 152 199c0 119 -61 189 -140 189c-62 0 -108 -45 -138 -95l-62 15l22 378h342v-63h-284l-16 -252c51 56 96 80 150 80c138 0 203 -119 203 -244c0 -144 -83 -266 -232 -266z" />
    <glyph glyph-name="six.osf" 
d="M310 -16c-121 0 -242 101 -242 349c0 285 127 423 277 423c55 0 108 -15 145 -49l-32 -64c-27 28 -65 47 -111 47c-86 0 -190 -81 -200 -326c51 62 113 106 180 106c95 0 205 -70 205 -232c0 -188 -133 -254 -222 -254zM309 50c68 0 144 53 144 189
c0 81 -44 166 -132 166c-80 0 -137 -63 -172 -127c6 -179 100 -228 160 -228z" />
    <glyph glyph-name="seven.osf" horiz-adv-x="581" 
d="M154 -196c33 205 149 460 284 676h-336v65h410v-52c-136 -225 -254 -499 -277 -689h-81z" />
    <glyph glyph-name="eight.osf" 
d="M368 393c86 -44 167 -97 167 -208c0 -120 -105 -201 -240 -201c-129 0 -238 77 -238 197c0 112 82 165 170 209c-77 40 -143 90 -143 186c0 111 106 180 217 180c112 0 211 -65 211 -178c0 -96 -67 -146 -144 -185zM159 577c0 -76 65 -115 141 -152c74 37 136 77 136 152
c0 70 -58 114 -136 114c-68 0 -141 -38 -141 -114zM297 49c87 0 163 47 163 139c0 89 -80 129 -166 169c-84 -39 -161 -80 -161 -168c0 -91 75 -140 164 -140z" />
    <glyph glyph-name="nine.osf" horiz-adv-x="573" 
d="M238 -212c-63 0 -111 26 -154 64l42 51c30 -29 68 -54 113 -54c88 0 184 84 193 334c-53 -69 -107 -109 -177 -109c-96 0 -195 75 -195 233c0 161 111 251 218 251c115 0 227 -91 227 -355c0 -269 -116 -415 -267 -415zM262 135c80 0 133 65 167 130
c-2 67 -19 232 -149 232c-91 0 -146 -82 -146 -188c0 -89 39 -174 128 -174z" />
    <glyph glyph-name="zero.tosf" 
d="M297 -14c-124 0 -219 92 -219 281s95 280 219 280c123 0 217 -91 217 -280s-94 -281 -217 -281zM297 43c112 0 141 127 141 224s-29 223 -141 223c-113 0 -142 -126 -142 -223s29 -224 142 -224z" />
    <glyph glyph-name="one.tosf" 
d="M161 0v61h115v381c-29 -33 -79 -63 -124 -81l-16 59c67 26 126 68 158 128h57v-487h111v-61h-301z" />
    <glyph glyph-name="two.tosf" 
d="M110 0v68c83 170 299 178 299 326c0 67 -42 106 -105 106c-71 0 -123 -52 -118 -139l-65 34c-3 102 80 165 187 165c101 0 175 -56 175 -163c0 -188 -220 -191 -296 -336h297v-61h-374z" />
    <glyph glyph-name="three.tosf" 
d="M275 -206c-101 0 -185 54 -222 151l65 39c25 -76 80 -131 159 -131c89 0 146 59 146 151c0 122 -72 162 -182 162c-15 0 -26 0 -41 -2v64c18 -3 31 -3 52 -3c106 0 156 59 156 141c0 83 -48 134 -130 134c-69 0 -117 -47 -134 -106l-62 34c32 81 107 132 207 132
c117 0 192 -77 192 -184c0 -83 -35 -142 -126 -178c97 -28 145 -99 145 -184c0 -138 -93 -220 -225 -220z" />
    <glyph glyph-name="four.tosf" 
d="M372 -189v189h-301v65l277 480h97v-484h96v-61h-96v-189h-73zM141 61h231v404h-1z" />
    <glyph glyph-name="five.tosf" 
d="M291 -200c-97 0 -172 51 -203 145l63 41c20 -78 74 -127 144 -127c109 0 152 103 152 199c0 119 -62 189 -141 189c-62 0 -108 -45 -138 -95l-61 15l21 378h342v-63h-284l-16 -252c51 56 96 80 151 80c137 0 202 -119 202 -244c0 -144 -83 -266 -232 -266z" />
    <glyph glyph-name="six.tosf" 
d="M316 -16c-121 0 -242 101 -242 349c0 285 127 423 277 423c55 0 108 -15 145 -49l-32 -64c-27 28 -65 47 -111 47c-86 0 -190 -81 -200 -326c51 62 113 106 180 106c95 0 205 -70 205 -232c0 -188 -133 -254 -222 -254zM315 50c68 0 144 53 144 189
c0 81 -44 166 -132 166c-80 0 -137 -63 -172 -127c6 -179 100 -228 160 -228z" />
    <glyph glyph-name="seven.tosf" 
d="M150 -196c33 205 149 460 284 676h-336v65h410v-52c-136 -225 -254 -499 -277 -689h-81z" />
    <glyph glyph-name="eight.tosf" 
d="M365 393c86 -44 167 -97 167 -208c0 -120 -105 -201 -240 -201c-129 0 -238 77 -238 197c0 112 82 165 170 209c-77 40 -143 90 -143 186c0 111 106 180 217 180c112 0 211 -65 211 -178c0 -96 -67 -146 -144 -185zM156 577c0 -76 65 -115 141 -152c74 37 136 77 136 152
c0 70 -58 114 -136 114c-68 0 -141 -38 -141 -114zM294 49c87 0 163 47 163 139c0 89 -80 129 -166 169c-84 -39 -161 -80 -161 -168c0 -91 75 -140 164 -140z" />
    <glyph glyph-name="nine.tosf" 
d="M244 -212c-63 0 -111 26 -154 64l42 51c30 -29 68 -54 113 -54c88 0 184 84 193 334c-53 -69 -107 -109 -177 -109c-96 0 -195 75 -195 233c0 161 111 251 218 251c115 0 227 -91 227 -355c0 -269 -116 -415 -267 -415zM268 135c80 0 133 65 167 130
c-2 67 -19 232 -149 232c-91 0 -146 -82 -146 -188c0 -89 39 -174 128 -174z" />
    <glyph glyph-name="uni2080" unicode="&#x2080;" horiz-adv-x="391" 
d="M195 -109c-119 0 -159 114 -159 230c0 114 35 233 159 233c126 0 159 -119 159 -233c0 -116 -38 -230 -159 -230zM195 -58c85 0 94 112 94 179c0 66 -8 182 -94 182c-84 0 -94 -116 -94 -182c0 -67 11 -179 94 -179z" />
    <glyph glyph-name="uni2081" unicode="&#x2081;" horiz-adv-x="390" 
d="M91 -100v50h74v305c-21 -20 -53 -33 -86 -44l-15 48c50 17 91 37 114 82h53v-391h71v-50h-211z" />
    <glyph glyph-name="uni2082" unicode="&#x2082;" horiz-adv-x="390" 
d="M49 -100v50c50 142 227 175 227 278c0 42 -28 76 -73 76c-52 0 -87 -51 -84 -107l-58 30c-1 72 61 127 144 127c87 0 139 -53 139 -123c0 -136 -181 -165 -225 -280h224v-51h-294z" />
    <glyph glyph-name="uni2083" unicode="&#x2083;" horiz-adv-x="390" 
d="M196 -109c-68 0 -128 38 -153 99l53 33c17 -47 55 -81 101 -81c52 0 89 28 89 80c0 65 -48 87 -114 87c-8 0 -18 0 -33 -2v52c19 -2 30 -2 41 -2c63 0 97 31 97 74c0 47 -33 73 -80 73c-41 0 -73 -30 -85 -66l-52 29c22 52 78 87 145 87c80 0 135 -50 135 -118
c0 -43 -25 -79 -69 -101c58 -20 81 -59 81 -108c0 -85 -66 -136 -156 -136z" />
    <glyph glyph-name="uni2084" unicode="&#x2084;" horiz-adv-x="390" 
d="M225 -100v106h-195v49l182 286h76v-284h70v-51h-70v-106h-63zM91 57h134v212h-1z" />
    <glyph glyph-name="uni2085" unicode="&#x2085;" horiz-adv-x="390" 
d="M186 -109c-65 0 -120 35 -141 96l55 33c14 -49 48 -78 88 -78c64 0 91 52 91 107c0 65 -38 102 -84 102c-40 0 -70 -28 -85 -57l-52 12l14 235h238v-51h-185l-9 -123c23 23 57 35 89 35c91 0 140 -71 140 -149c0 -88 -59 -162 -159 -162z" />
    <glyph glyph-name="uni2086" unicode="&#x2086;" horiz-adv-x="390" 
d="M200 -109c-81 0 -163 60 -163 211c0 174 85 252 185 252c36 0 72 -10 102 -34l-25 -50c-23 20 -49 32 -75 32c-49 0 -107 -33 -119 -158c31 30 67 46 106 46c63 0 138 -42 138 -142c0 -117 -90 -157 -149 -157zM199 -57c39 0 83 29 83 105c0 44 -24 91 -75 91
c-47 0 -81 -32 -102 -67c4 -98 59 -129 94 -129z" />
    <glyph glyph-name="uni2087" unicode="&#x2087;" horiz-adv-x="390" 
d="M93 -100c19 124 89 260 180 390h-213v51h285v-39c-91 -132 -168 -287 -180 -402h-72z" />
    <glyph glyph-name="uni2088" unicode="&#x2088;" horiz-adv-x="390" 
d="M260 141c51 -24 96 -57 96 -126c0 -78 -71 -124 -163 -124s-158 43 -158 122c0 67 46 99 98 122c-45 22 -81 52 -81 108c0 70 67 111 149 111c80 0 140 -41 140 -111c0 -53 -36 -81 -81 -102zM117 243c0 -40 40 -59 87 -78c41 17 73 38 73 78c0 39 -35 59 -78 59
c-39 0 -82 -18 -82 -59zM194 -58c51 0 98 25 98 76c0 50 -50 71 -104 93c-47 -20 -88 -44 -88 -93c0 -50 45 -76 94 -76z" />
    <glyph glyph-name="uni2089" unicode="&#x2089;" horiz-adv-x="390" 
d="M166 -109c-43 0 -80 18 -111 43l35 46c23 -21 50 -37 77 -37c46 0 110 38 117 167c-29 -31 -68 -54 -107 -54c-54 0 -138 37 -138 142c0 115 88 156 150 156c80 0 161 -61 161 -211c0 -173 -84 -252 -184 -252zM180 107c46 0 83 32 104 69c-3 98 -60 126 -96 126
c-39 0 -85 -28 -85 -104c0 -45 25 -91 77 -91z" />
    <glyph glyph-name="zero.dnom" horiz-adv-x="391" 
d="M195 -9c-119 0 -159 114 -159 230c0 114 35 233 159 233c126 0 159 -119 159 -233c0 -116 -38 -230 -159 -230zM195 42c85 0 94 112 94 179c0 66 -8 182 -94 182c-84 0 -94 -116 -94 -182c0 -67 11 -179 94 -179z" />
    <glyph glyph-name="one.dnom" horiz-adv-x="390" 
d="M91 0v50h74v305c-21 -20 -53 -33 -86 -44l-15 48c50 17 91 37 114 82h53v-391h71v-50h-211z" />
    <glyph glyph-name="two.dnom" horiz-adv-x="390" 
d="M49 0v50c50 142 227 175 227 278c0 42 -28 76 -73 76c-52 0 -87 -51 -84 -107l-58 30c-1 72 61 127 144 127c87 0 139 -53 139 -123c0 -136 -181 -165 -225 -280h224v-51h-294z" />
    <glyph glyph-name="three.dnom" horiz-adv-x="390" 
d="M196 -9c-68 0 -128 38 -153 99l53 33c17 -47 55 -81 101 -81c52 0 89 28 89 80c0 65 -48 87 -114 87c-8 0 -18 0 -33 -2v52c19 -2 30 -2 41 -2c63 0 97 31 97 74c0 47 -33 73 -80 73c-41 0 -73 -30 -85 -66l-52 29c22 52 78 87 145 87c80 0 135 -50 135 -118
c0 -43 -25 -79 -69 -101c58 -20 81 -59 81 -108c0 -85 -66 -136 -156 -136z" />
    <glyph glyph-name="four.dnom" horiz-adv-x="390" 
d="M225 0v106h-195v49l182 286h76v-284h70v-51h-70v-106h-63zM91 157h134v212h-1z" />
    <glyph glyph-name="five.dnom" horiz-adv-x="390" 
d="M186 -9c-65 0 -120 35 -141 96l55 33c14 -49 48 -78 88 -78c64 0 91 52 91 107c0 65 -38 102 -84 102c-40 0 -70 -28 -85 -57l-52 12l14 235h238v-51h-185l-9 -123c23 23 57 35 89 35c91 0 140 -71 140 -149c0 -88 -59 -162 -159 -162z" />
    <glyph glyph-name="six.dnom" horiz-adv-x="390" 
d="M200 -9c-81 0 -163 60 -163 211c0 174 85 252 185 252c36 0 72 -10 102 -34l-25 -50c-23 20 -49 32 -75 32c-49 0 -107 -33 -119 -158c31 30 67 46 106 46c63 0 138 -42 138 -142c0 -117 -90 -157 -149 -157zM199 43c39 0 83 29 83 105c0 44 -24 91 -75 91
c-47 0 -81 -32 -102 -67c4 -98 59 -129 94 -129z" />
    <glyph glyph-name="seven.dnom" horiz-adv-x="390" 
d="M93 0c19 124 89 260 180 390h-213v51h285v-39c-91 -132 -168 -287 -180 -402h-72z" />
    <glyph glyph-name="eight.dnom" horiz-adv-x="390" 
d="M260 241c51 -24 96 -57 96 -126c0 -78 -71 -124 -163 -124s-158 43 -158 122c0 67 46 99 98 122c-45 22 -81 52 -81 108c0 70 67 111 149 111c80 0 140 -41 140 -111c0 -53 -36 -81 -81 -102zM117 343c0 -40 40 -59 87 -78c41 17 73 38 73 78c0 39 -35 59 -78 59
c-39 0 -82 -18 -82 -59zM194 42c51 0 98 25 98 76c0 50 -50 71 -104 93c-47 -20 -88 -44 -88 -93c0 -50 45 -76 94 -76z" />
    <glyph glyph-name="nine.dnom" horiz-adv-x="390" 
d="M166 -9c-43 0 -80 18 -111 43l35 46c23 -21 50 -37 77 -37c46 0 110 38 117 167c-29 -31 -68 -54 -107 -54c-54 0 -138 37 -138 142c0 115 88 156 150 156c80 0 161 -61 161 -211c0 -173 -84 -252 -184 -252zM180 207c46 0 83 32 104 69c-3 98 -60 126 -96 126
c-39 0 -85 -28 -85 -104c0 -45 25 -91 77 -91z" />
    <glyph glyph-name="zero.numr" horiz-adv-x="391" 
d="M195 291c-119 0 -159 114 -159 230c0 114 35 233 159 233c126 0 159 -119 159 -233c0 -116 -38 -230 -159 -230zM195 342c85 0 94 112 94 179c0 66 -8 182 -94 182c-84 0 -94 -116 -94 -182c0 -67 11 -179 94 -179z" />
    <glyph glyph-name="one.numr" horiz-adv-x="390" 
d="M91 300v50h74v305c-21 -20 -53 -33 -86 -44l-15 48c50 17 91 37 114 82h53v-391h71v-50h-211z" />
    <glyph glyph-name="two.numr" horiz-adv-x="390" 
d="M49 300v50c50 142 227 175 227 278c0 42 -28 76 -73 76c-52 0 -87 -51 -84 -107l-58 30c-1 72 61 127 144 127c87 0 139 -53 139 -123c0 -136 -181 -165 -225 -280h224v-51h-294z" />
    <glyph glyph-name="three.numr" horiz-adv-x="390" 
d="M196 291c-68 0 -128 38 -153 99l53 33c17 -47 55 -81 101 -81c52 0 89 28 89 80c0 65 -48 87 -114 87c-8 0 -18 0 -33 -2v52c19 -2 30 -2 41 -2c63 0 97 31 97 74c0 47 -33 73 -80 73c-41 0 -73 -30 -85 -66l-52 29c22 52 78 87 145 87c80 0 135 -50 135 -118
c0 -43 -25 -79 -69 -101c58 -20 81 -59 81 -108c0 -85 -66 -136 -156 -136z" />
    <glyph glyph-name="four.numr" horiz-adv-x="390" 
d="M225 300v106h-195v49l182 286h76v-284h70v-51h-70v-106h-63zM91 457h134v212h-1z" />
    <glyph glyph-name="five.numr" horiz-adv-x="390" 
d="M186 291c-65 0 -120 35 -141 96l55 33c14 -49 48 -78 88 -78c64 0 91 52 91 107c0 65 -38 102 -84 102c-40 0 -70 -28 -85 -57l-52 12l14 235h238v-51h-185l-9 -123c23 23 57 35 89 35c91 0 140 -71 140 -149c0 -88 -59 -162 -159 -162z" />
    <glyph glyph-name="six.numr" horiz-adv-x="390" 
d="M200 291c-81 0 -163 60 -163 211c0 174 85 252 185 252c36 0 72 -10 102 -34l-25 -50c-23 20 -49 32 -75 32c-49 0 -107 -33 -119 -158c31 30 67 46 106 46c63 0 138 -42 138 -142c0 -117 -90 -157 -149 -157zM199 343c39 0 83 29 83 105c0 44 -24 91 -75 91
c-47 0 -81 -32 -102 -67c4 -98 59 -129 94 -129z" />
    <glyph glyph-name="seven.numr" horiz-adv-x="390" 
d="M93 300c19 124 89 260 180 390h-213v51h285v-39c-91 -132 -168 -287 -180 -402h-72z" />
    <glyph glyph-name="eight.numr" horiz-adv-x="390" 
d="M260 541c51 -24 96 -57 96 -126c0 -78 -71 -124 -163 -124s-158 43 -158 122c0 67 46 99 98 122c-45 22 -81 52 -81 108c0 70 67 111 149 111c80 0 140 -41 140 -111c0 -53 -36 -81 -81 -102zM117 643c0 -40 40 -59 87 -78c41 17 73 38 73 78c0 39 -35 59 -78 59
c-39 0 -82 -18 -82 -59zM194 342c51 0 98 25 98 76c0 50 -50 71 -104 93c-47 -20 -88 -44 -88 -93c0 -50 45 -76 94 -76z" />
    <glyph glyph-name="nine.numr" horiz-adv-x="390" 
d="M166 291c-43 0 -80 18 -111 43l35 46c23 -21 50 -37 77 -37c46 0 110 38 117 167c-29 -31 -68 -54 -107 -54c-54 0 -138 37 -138 142c0 115 88 156 150 156c80 0 161 -61 161 -211c0 -173 -84 -252 -184 -252zM180 507c46 0 83 32 104 69c-3 98 -60 126 -96 126
c-39 0 -85 -28 -85 -104c0 -45 25 -91 77 -91z" />
    <glyph glyph-name="uni2070" unicode="&#x2070;" horiz-adv-x="391" 
d="M195 396c-119 0 -159 114 -159 230c0 114 35 233 159 233c126 0 159 -119 159 -233c0 -116 -38 -230 -159 -230zM195 447c85 0 94 112 94 179c0 66 -8 182 -94 182c-84 0 -94 -116 -94 -182c0 -67 11 -179 94 -179z" />
    <glyph glyph-name="uni00B9" unicode="&#xb9;" horiz-adv-x="390" 
d="M91 405v50h74v305c-21 -20 -53 -33 -86 -44l-15 48c50 17 91 37 114 82h53v-391h71v-50h-211z" />
    <glyph glyph-name="uni00B2" unicode="&#xb2;" horiz-adv-x="390" 
d="M49 405v50c50 142 227 175 227 278c0 42 -28 76 -73 76c-52 0 -87 -51 -84 -107l-58 30c-1 72 61 127 144 127c87 0 139 -53 139 -123c0 -136 -181 -165 -225 -280h224v-51h-294z" />
    <glyph glyph-name="uni00B3" unicode="&#xb3;" horiz-adv-x="390" 
d="M196 396c-68 0 -128 38 -153 99l53 33c17 -47 55 -81 101 -81c52 0 89 28 89 80c0 65 -48 87 -114 87c-8 0 -18 0 -33 -2v52c19 -2 30 -2 41 -2c63 0 97 31 97 74c0 47 -33 73 -80 73c-41 0 -73 -30 -85 -66l-52 29c22 52 78 87 145 87c80 0 135 -50 135 -118
c0 -43 -25 -79 -69 -101c58 -20 81 -59 81 -108c0 -85 -66 -136 -156 -136z" />
    <glyph glyph-name="uni2074" unicode="&#x2074;" horiz-adv-x="390" 
d="M225 405v106h-195v49l182 286h76v-284h70v-51h-70v-106h-63zM91 562h134v212h-1z" />
    <glyph glyph-name="uni2075" unicode="&#x2075;" horiz-adv-x="390" 
d="M186 396c-65 0 -120 35 -141 96l55 33c14 -49 48 -78 88 -78c64 0 91 52 91 107c0 65 -38 102 -84 102c-40 0 -70 -28 -85 -57l-52 12l14 235h238v-51h-185l-9 -123c23 23 57 35 89 35c91 0 140 -71 140 -149c0 -88 -59 -162 -159 -162z" />
    <glyph glyph-name="uni2076" unicode="&#x2076;" horiz-adv-x="390" 
d="M200 396c-81 0 -163 60 -163 211c0 174 85 252 185 252c36 0 72 -10 102 -34l-25 -50c-23 20 -49 32 -75 32c-49 0 -107 -33 -119 -158c31 30 67 46 106 46c63 0 138 -42 138 -142c0 -117 -90 -157 -149 -157zM199 448c39 0 83 29 83 105c0 44 -24 91 -75 91
c-47 0 -81 -32 -102 -67c4 -98 59 -129 94 -129z" />
    <glyph glyph-name="uni2077" unicode="&#x2077;" horiz-adv-x="390" 
d="M93 405c19 124 89 260 180 390h-213v51h285v-39c-91 -132 -168 -287 -180 -402h-72z" />
    <glyph glyph-name="uni2078" unicode="&#x2078;" horiz-adv-x="390" 
d="M260 646c51 -24 96 -57 96 -126c0 -78 -71 -124 -163 -124s-158 43 -158 122c0 67 46 99 98 122c-45 22 -81 52 -81 108c0 70 67 111 149 111c80 0 140 -41 140 -111c0 -53 -36 -81 -81 -102zM117 748c0 -40 40 -59 87 -78c41 17 73 38 73 78c0 39 -35 59 -78 59
c-39 0 -82 -18 -82 -59zM194 447c51 0 98 25 98 76c0 50 -50 71 -104 93c-47 -20 -88 -44 -88 -93c0 -50 45 -76 94 -76z" />
    <glyph glyph-name="uni2079" unicode="&#x2079;" horiz-adv-x="390" 
d="M166 396c-43 0 -80 18 -111 43l35 46c23 -21 50 -37 77 -37c46 0 110 38 117 167c-29 -31 -68 -54 -107 -54c-54 0 -138 37 -138 142c0 115 88 156 150 156c80 0 161 -61 161 -211c0 -173 -84 -252 -184 -252zM180 612c46 0 83 32 104 69c-3 98 -60 126 -96 126
c-39 0 -85 -28 -85 -104c0 -45 25 -91 77 -91z" />
    <glyph glyph-name="fraction" unicode="&#x2044;" horiz-adv-x="121" 
d="M-173 0l402 741h65l-403 -741h-64z" />
    <glyph glyph-name="onehalf" unicode="&#xbd;" horiz-adv-x="901" 
d="M91 300v50h74v305c-21 -20 -53 -33 -86 -44l-15 48c50 17 91 37 114 82h53v-391h71v-50h-211zM217 0l402 741h65l-403 -741h-64zM560 0v50c50 142 227 175 227 278c0 42 -28 76 -73 76c-52 0 -87 -51 -84 -107l-58 30c-1 72 61 127 144 127c87 0 139 -53 139 -123
c0 -136 -181 -165 -225 -280h224v-51h-294z" />
    <glyph glyph-name="uni2153" unicode="&#x2153;" horiz-adv-x="901" 
d="M91 300v50h74v305c-21 -20 -53 -33 -86 -44l-15 48c50 17 91 37 114 82h53v-391h71v-50h-211zM217 0l402 741h65l-403 -741h-64zM707 -9c-68 0 -128 38 -153 99l53 33c17 -47 55 -81 101 -81c52 0 89 28 89 80c0 65 -48 87 -114 87c-8 0 -18 0 -33 -2v52
c19 -2 30 -2 41 -2c63 0 97 31 97 74c0 47 -33 73 -80 73c-41 0 -73 -30 -85 -66l-52 29c22 52 78 87 145 87c80 0 135 -50 135 -118c0 -43 -25 -79 -69 -101c58 -20 81 -59 81 -108c0 -85 -66 -136 -156 -136z" />
    <glyph glyph-name="uni2154" unicode="&#x2154;" horiz-adv-x="936" 
d="M49 300v50c50 142 227 175 227 278c0 42 -28 76 -73 76c-52 0 -87 -51 -84 -107l-58 30c-1 72 61 127 144 127c87 0 139 -53 139 -123c0 -136 -181 -165 -225 -280h224v-51h-294zM252 0l402 741h65l-403 -741h-64zM742 -9c-68 0 -128 38 -153 99l53 33
c17 -47 55 -81 101 -81c52 0 89 28 89 80c0 65 -48 87 -114 87c-8 0 -18 0 -33 -2v52c19 -2 30 -2 41 -2c63 0 97 31 97 74c0 47 -33 73 -80 73c-41 0 -73 -30 -85 -66l-52 29c22 52 78 87 145 87c80 0 135 -50 135 -118c0 -43 -25 -79 -69 -101c58 -20 81 -59 81 -108
c0 -85 -66 -136 -156 -136z" />
    <glyph glyph-name="onequarter" unicode="&#xbc;" horiz-adv-x="889" 
d="M91 300v50h74v305c-21 -20 -53 -33 -86 -44l-15 48c50 17 91 37 114 82h53v-391h71v-50h-211zM217 0l402 741h65l-403 -741h-64zM724 0v106h-195v49l182 286h76v-284h70v-51h-70v-106h-63zM590 157h134v212h-1z" />
    <glyph glyph-name="threequarters" unicode="&#xbe;" horiz-adv-x="889" 
d="M196 291c-68 0 -128 38 -153 99l53 33c17 -47 55 -81 101 -81c52 0 89 28 89 80c0 65 -48 87 -114 87c-8 0 -18 0 -33 -2v52c19 -2 30 -2 41 -2c63 0 97 31 97 74c0 47 -33 73 -80 73c-41 0 -73 -30 -85 -66l-52 29c22 52 78 87 145 87c80 0 135 -50 135 -118
c0 -43 -25 -79 -69 -101c58 -20 81 -59 81 -108c0 -85 -66 -136 -156 -136zM217 0l402 741h65l-403 -741h-64zM724 0v106h-195v49l182 286h76v-284h70v-51h-70v-106h-63zM590 157h134v212h-1z" />
    <glyph glyph-name="uni2155" unicode="&#x2155;" horiz-adv-x="933" 
d="M91 300v50h74v305c-21 -20 -53 -33 -86 -44l-15 48c50 17 91 37 114 82h53v-391h71v-50h-211zM217 0l402 741h65l-403 -741h-64zM729 -9c-65 0 -120 35 -141 96l55 33c14 -49 48 -78 88 -78c64 0 91 52 91 107c0 65 -38 102 -84 102c-40 0 -70 -28 -85 -57l-52 12l14 235
h238v-51h-185l-9 -123c23 23 57 35 89 35c91 0 140 -71 140 -149c0 -88 -59 -162 -159 -162z" />
    <glyph glyph-name="uni2156" unicode="&#x2156;" horiz-adv-x="968" 
d="M49 300v50c50 142 227 175 227 278c0 42 -28 76 -73 76c-52 0 -87 -51 -84 -107l-58 30c-1 72 61 127 144 127c87 0 139 -53 139 -123c0 -136 -181 -165 -225 -280h224v-51h-294zM252 0l402 741h65l-403 -741h-64zM764 -9c-65 0 -120 35 -141 96l55 33
c14 -49 48 -78 88 -78c64 0 91 52 91 107c0 65 -38 102 -84 102c-40 0 -70 -28 -85 -57l-52 12l14 235h238v-51h-185l-9 -123c23 23 57 35 89 35c91 0 140 -71 140 -149c0 -88 -59 -162 -159 -162z" />
    <glyph glyph-name="uni2157" unicode="&#x2157;" horiz-adv-x="933" 
d="M196 291c-68 0 -128 38 -153 99l53 33c17 -47 55 -81 101 -81c52 0 89 28 89 80c0 65 -48 87 -114 87c-8 0 -18 0 -33 -2v52c19 -2 30 -2 41 -2c63 0 97 31 97 74c0 47 -33 73 -80 73c-41 0 -73 -30 -85 -66l-52 29c22 52 78 87 145 87c80 0 135 -50 135 -118
c0 -43 -25 -79 -69 -101c58 -20 81 -59 81 -108c0 -85 -66 -136 -156 -136zM217 0l402 741h65l-403 -741h-64zM729 -9c-65 0 -120 35 -141 96l55 33c14 -49 48 -78 88 -78c64 0 91 52 91 107c0 65 -38 102 -84 102c-40 0 -70 -28 -85 -57l-52 12l14 235h238v-51h-185
l-9 -123c23 23 57 35 89 35c91 0 140 -71 140 -149c0 -88 -59 -162 -159 -162z" />
    <glyph glyph-name="uni2158" unicode="&#x2158;" horiz-adv-x="933" 
d="M225 300v106h-195v49l182 286h76v-284h70v-51h-70v-106h-63zM217 0l402 741h65l-403 -741h-64zM91 457h134v212h-1zM729 -9c-65 0 -120 35 -141 96l55 33c14 -49 48 -78 88 -78c64 0 91 52 91 107c0 65 -38 102 -84 102c-40 0 -70 -28 -85 -57l-52 12l14 235h238v-51
h-185l-9 -123c23 23 57 35 89 35c91 0 140 -71 140 -149c0 -88 -59 -162 -159 -162z" />
    <glyph glyph-name="uni2159" unicode="&#x2159;" horiz-adv-x="901" 
d="M91 300v50h74v305c-21 -20 -53 -33 -86 -44l-15 48c50 17 91 37 114 82h53v-391h71v-50h-211zM217 0l402 741h65l-403 -741h-64zM711 -9c-81 0 -163 60 -163 211c0 174 85 252 185 252c36 0 72 -10 102 -34l-25 -50c-23 20 -49 32 -75 32c-49 0 -107 -33 -119 -158
c31 30 67 46 106 46c63 0 138 -42 138 -142c0 -117 -90 -157 -149 -157zM710 43c39 0 83 29 83 105c0 44 -24 91 -75 91c-47 0 -81 -32 -102 -67c4 -98 59 -129 94 -129z" />
    <glyph glyph-name="uni215A" unicode="&#x215a;" horiz-adv-x="901" 
d="M186 291c-65 0 -120 35 -141 96l55 33c14 -49 48 -78 88 -78c64 0 91 52 91 107c0 65 -38 102 -84 102c-40 0 -70 -28 -85 -57l-52 12l14 235h238v-51h-185l-9 -123c23 23 57 35 89 35c91 0 140 -71 140 -149c0 -88 -59 -162 -159 -162zM217 0l402 741h65l-403 -741h-64z
M711 -9c-81 0 -163 60 -163 211c0 174 85 252 185 252c36 0 72 -10 102 -34l-25 -50c-23 20 -49 32 -75 32c-49 0 -107 -33 -119 -158c31 30 67 46 106 46c63 0 138 -42 138 -142c0 -117 -90 -157 -149 -157zM710 43c39 0 83 29 83 105c0 44 -24 91 -75 91
c-47 0 -81 -32 -102 -67c4 -98 59 -129 94 -129z" />
    <glyph glyph-name="uni2150" unicode="&#x2150;" horiz-adv-x="936" 
d="M91 300v50h74v305c-21 -20 -53 -33 -86 -44l-15 48c50 17 91 37 114 82h53v-391h71v-50h-211zM217 0l402 741h65l-403 -741h-64zM639 0c19 124 89 260 180 390h-213v51h285v-39c-91 -132 -168 -287 -180 -402h-72z" />
    <glyph glyph-name="two_fraction_seven" horiz-adv-x="972" 
d="M49 300v50c50 142 227 175 227 278c0 42 -28 76 -73 76c-52 0 -87 -51 -84 -107l-58 30c-1 72 61 127 144 127c87 0 139 -53 139 -123c0 -136 -181 -165 -225 -280h224v-51h-294zM252 0l402 741h65l-403 -741h-64zM675 0c19 124 89 260 180 390h-213v51h285v-39
c-91 -132 -168 -287 -180 -402h-72z" />
    <glyph glyph-name="three_fraction_seven" horiz-adv-x="936" 
d="M196 291c-68 0 -128 38 -153 99l53 33c17 -47 55 -81 101 -81c52 0 89 28 89 80c0 65 -48 87 -114 87c-8 0 -18 0 -33 -2v52c19 -2 30 -2 41 -2c63 0 97 31 97 74c0 47 -33 73 -80 73c-41 0 -73 -30 -85 -66l-52 29c22 52 78 87 145 87c80 0 135 -50 135 -118
c0 -43 -25 -79 -69 -101c58 -20 81 -59 81 -108c0 -85 -66 -136 -156 -136zM217 0l402 741h65l-403 -741h-64zM639 0c19 124 89 260 180 390h-213v51h285v-39c-91 -132 -168 -287 -180 -402h-72z" />
    <glyph glyph-name="four_fraction_seven" horiz-adv-x="936" 
d="M225 300v106h-195v49l182 286h76v-284h70v-51h-70v-106h-63zM217 0l402 741h65l-403 -741h-64zM91 457h134v212h-1zM639 0c19 124 89 260 180 390h-213v51h285v-39c-91 -132 -168 -287 -180 -402h-72z" />
    <glyph glyph-name="five_fraction_seven" horiz-adv-x="936" 
d="M186 291c-65 0 -120 35 -141 96l55 33c14 -49 48 -78 88 -78c64 0 91 52 91 107c0 65 -38 102 -84 102c-40 0 -70 -28 -85 -57l-52 12l14 235h238v-51h-185l-9 -123c23 23 57 35 89 35c91 0 140 -71 140 -149c0 -88 -59 -162 -159 -162zM217 0l402 741h65l-403 -741h-64z
M639 0c19 124 89 260 180 390h-213v51h285v-39c-91 -132 -168 -287 -180 -402h-72z" />
    <glyph glyph-name="six_fraction_seven" horiz-adv-x="936" 
d="M200 291c-81 0 -163 60 -163 211c0 174 85 252 185 252c36 0 72 -10 102 -34l-25 -50c-23 20 -49 32 -75 32c-49 0 -107 -33 -119 -158c31 30 67 46 106 46c63 0 138 -42 138 -142c0 -117 -90 -157 -149 -157zM217 0l402 741h65l-403 -741h-64zM199 343
c39 0 83 29 83 105c0 44 -24 91 -75 91c-47 0 -81 -32 -102 -67c4 -98 59 -129 94 -129zM639 0c19 124 89 260 180 390h-213v51h285v-39c-91 -132 -168 -287 -180 -402h-72z" />
    <glyph glyph-name="oneeighth" unicode="&#x215b;" horiz-adv-x="901" 
d="M91 350h74v305c-21 -20 -53 -33 -86 -44l-15 48c50 17 91 37 114 82h53v-391h71v-50h-211v50zM619 741h65l-403 -741h-64zM771 241c51 -24 96 -57 96 -126c0 -78 -71 -124 -163 -124s-158 43 -158 122c0 67 46 99 98 122c-45 22 -81 52 -81 108c0 70 67 111 149 111
c80 0 140 -41 140 -111c0 -53 -36 -81 -81 -102zM628 343c0 -40 40 -59 87 -78c41 17 73 38 73 78c0 39 -35 59 -78 59c-39 0 -82 -18 -82 -59zM705 42c51 0 98 25 98 76c0 50 -50 71 -104 93c-47 -20 -88 -44 -88 -93c0 -50 45 -76 94 -76z" />
    <glyph glyph-name="threeeighths" unicode="&#x215c;" horiz-adv-x="901" 
d="M352 427c0 -85 -66 -136 -156 -136c-68 0 -128 38 -153 99l53 33c17 -47 55 -81 101 -81c52 0 89 28 89 80c0 65 -48 87 -114 87c-8 0 -18 0 -33 -2v52c19 -2 30 -2 41 -2c63 0 97 31 97 74c0 47 -33 73 -80 73c-41 0 -73 -30 -85 -66l-52 29c22 52 78 87 145 87
c80 0 135 -50 135 -118c0 -43 -25 -79 -69 -101c58 -20 81 -59 81 -108zM619 741h65l-403 -741h-64zM771 241c51 -24 96 -57 96 -126c0 -78 -71 -124 -163 -124s-158 43 -158 122c0 67 46 99 98 122c-45 22 -81 52 -81 108c0 70 67 111 149 111c80 0 140 -41 140 -111
c0 -53 -36 -81 -81 -102zM628 343c0 -40 40 -59 87 -78c41 17 73 38 73 78c0 39 -35 59 -78 59c-39 0 -82 -18 -82 -59zM705 42c51 0 98 25 98 76c0 50 -50 71 -104 93c-47 -20 -88 -44 -88 -93c0 -50 45 -76 94 -76z" />
    <glyph glyph-name="fiveeighths" unicode="&#x215d;" horiz-adv-x="901" 
d="M345 453c0 -88 -59 -162 -159 -162c-65 0 -120 35 -141 96l55 33c14 -49 48 -78 88 -78c64 0 91 52 91 107c0 65 -38 102 -84 102c-40 0 -70 -28 -85 -57l-52 12l14 235h238v-51h-185l-9 -123c23 23 57 35 89 35c91 0 140 -71 140 -149zM619 741h65l-403 -741h-64z
M771 241c51 -24 96 -57 96 -126c0 -78 -71 -124 -163 -124s-158 43 -158 122c0 67 46 99 98 122c-45 22 -81 52 -81 108c0 70 67 111 149 111c80 0 140 -41 140 -111c0 -53 -36 -81 -81 -102zM628 343c0 -40 40 -59 87 -78c41 17 73 38 73 78c0 39 -35 59 -78 59
c-39 0 -82 -18 -82 -59zM705 42c51 0 98 25 98 76c0 50 -50 71 -104 93c-47 -20 -88 -44 -88 -93c0 -50 45 -76 94 -76z" />
    <glyph glyph-name="seveneighths" unicode="&#x215e;" horiz-adv-x="815" 
d="M165 300h-72c19 124 89 260 180 390h-213v51h285v-39c-91 -132 -168 -287 -180 -402zM533 741h65l-403 -741h-64zM685 241c51 -24 96 -57 96 -126c0 -78 -71 -124 -163 -124s-158 43 -158 122c0 67 46 99 98 122c-45 22 -81 52 -81 108c0 70 67 111 149 111
c80 0 140 -41 140 -111c0 -53 -36 -81 -81 -102zM542 343c0 -40 40 -59 87 -78c41 17 73 38 73 78c0 39 -35 59 -78 59c-39 0 -82 -18 -82 -59zM619 42c51 0 98 25 98 76c0 50 -50 71 -104 93c-47 -20 -88 -44 -88 -93c0 -50 45 -76 94 -76z" />
    <glyph glyph-name="uni2151" unicode="&#x2151;" horiz-adv-x="901" 
d="M91 300v50h74v305c-21 -20 -53 -33 -86 -44l-15 48c50 17 91 37 114 82h53v-391h71v-50h-211zM217 0l402 741h65l-403 -741h-64zM677 -9c-43 0 -80 18 -111 43l35 46c23 -21 50 -37 77 -37c46 0 110 38 117 167c-29 -31 -68 -54 -107 -54c-54 0 -138 37 -138 142
c0 115 88 156 150 156c80 0 161 -61 161 -211c0 -173 -84 -252 -184 -252zM691 207c46 0 83 32 104 69c-3 98 -60 126 -96 126c-39 0 -85 -28 -85 -104c0 -45 25 -91 77 -91z" />
    <glyph glyph-name="two_fraction_nine" horiz-adv-x="936" 
d="M49 300v50c50 142 227 175 227 278c0 42 -28 76 -73 76c-52 0 -87 -51 -84 -107l-58 30c-1 72 61 127 144 127c87 0 139 -53 139 -123c0 -136 -181 -165 -225 -280h224v-51h-294zM252 0l402 741h65l-403 -741h-64zM712 -9c-43 0 -80 18 -111 43l35 46
c23 -21 50 -37 77 -37c46 0 110 38 117 167c-29 -31 -68 -54 -107 -54c-54 0 -138 37 -138 142c0 115 88 156 150 156c80 0 161 -61 161 -211c0 -173 -84 -252 -184 -252zM726 207c46 0 83 32 104 69c-3 98 -60 126 -96 126c-39 0 -85 -28 -85 -104c0 -45 25 -91 77 -91z
" />
    <glyph glyph-name="four_fraction_nine" horiz-adv-x="901" 
d="M225 300v106h-195v49l182 286h76v-284h70v-51h-70v-106h-63zM217 0l402 741h65l-403 -741h-64zM91 457h134v212h-1zM677 -9c-43 0 -80 18 -111 43l35 46c23 -21 50 -37 77 -37c46 0 110 38 117 167c-29 -31 -68 -54 -107 -54c-54 0 -138 37 -138 142
c0 115 88 156 150 156c80 0 161 -61 161 -211c0 -173 -84 -252 -184 -252zM691 207c46 0 83 32 104 69c-3 98 -60 126 -96 126c-39 0 -85 -28 -85 -104c0 -45 25 -91 77 -91z" />
    <glyph glyph-name="five_fraction_nine" horiz-adv-x="901" 
d="M186 291c-65 0 -120 35 -141 96l55 33c14 -49 48 -78 88 -78c64 0 91 52 91 107c0 65 -38 102 -84 102c-40 0 -70 -28 -85 -57l-52 12l14 235h238v-51h-185l-9 -123c23 23 57 35 89 35c91 0 140 -71 140 -149c0 -88 -59 -162 -159 -162zM217 0l402 741h65l-403 -741h-64z
M677 -9c-43 0 -80 18 -111 43l35 46c23 -21 50 -37 77 -37c46 0 110 38 117 167c-29 -31 -68 -54 -107 -54c-54 0 -138 37 -138 142c0 115 88 156 150 156c80 0 161 -61 161 -211c0 -173 -84 -252 -184 -252zM691 207c46 0 83 32 104 69c-3 98 -60 126 -96 126
c-39 0 -85 -28 -85 -104c0 -45 25 -91 77 -91z" />
    <glyph glyph-name="seven_fraction_nine" horiz-adv-x="815" 
d="M93 300c19 124 89 260 180 390h-213v51h285v-39c-91 -132 -168 -287 -180 -402h-72zM131 0l402 741h65l-403 -741h-64zM591 -9c-43 0 -80 18 -111 43l35 46c23 -21 50 -37 77 -37c46 0 110 38 117 167c-29 -31 -68 -54 -107 -54c-54 0 -138 37 -138 142
c0 115 88 156 150 156c80 0 161 -61 161 -211c0 -173 -84 -252 -184 -252zM605 207c46 0 83 32 104 69c-3 98 -60 126 -96 126c-39 0 -85 -28 -85 -104c0 -45 25 -91 77 -91z" />
    <glyph glyph-name="eight_fraction_nine" horiz-adv-x="916" 
d="M356 415c0 -78 -71 -124 -163 -124s-158 43 -158 122c0 67 46 99 98 122c-45 22 -81 52 -81 108c0 70 67 111 149 111c80 0 140 -41 140 -111c0 -53 -36 -81 -81 -102c51 -24 96 -57 96 -126zM634 741h65l-403 -741h-64zM117 643c0 -40 40 -59 87 -78c41 17 73 38 73 78
c0 39 -35 59 -78 59c-39 0 -82 -18 -82 -59zM194 342c51 0 98 25 98 76c0 50 -50 71 -104 93c-47 -20 -88 -44 -88 -93c0 -50 45 -76 94 -76zM715 454c80 0 161 -61 161 -211c0 -173 -84 -252 -184 -252c-43 0 -80 18 -111 43l35 46c23 -21 50 -37 77 -37
c46 0 110 38 117 167c-29 -31 -68 -54 -107 -54c-54 0 -138 37 -138 142c0 115 88 156 150 156zM706 207c46 0 83 32 104 69c-3 98 -60 126 -96 126c-39 0 -85 -28 -85 -104c0 -45 25 -91 77 -91z" />
    <glyph glyph-name="period" unicode="." horiz-adv-x="270" 
d="M134 -10c-32 0 -57 25 -57 57c0 33 25 59 57 59c33 0 59 -26 59 -59c0 -32 -26 -57 -59 -57z" />
    <glyph glyph-name="comma" unicode="," horiz-adv-x="270" 
d="M99 -152l-41 27c30 38 56 78 69 116c-27 6 -50 26 -50 56c0 33 25 59 57 59c33 0 59 -26 59 -62c0 -56 -46 -136 -94 -196z" />
    <glyph glyph-name="colon" unicode=":" horiz-adv-x="270" 
d="M134 372c-32 0 -57 25 -57 57c0 33 25 59 57 59c33 0 59 -26 59 -59c0 -32 -26 -57 -59 -57zM134 -10c-32 0 -57 25 -57 57c0 33 25 59 57 59c33 0 59 -26 59 -59c0 -32 -26 -57 -59 -57z" />
    <glyph glyph-name="semicolon" unicode=";" horiz-adv-x="270" 
d="M134 372c-32 0 -57 25 -57 57c0 33 25 59 57 59c33 0 59 -26 59 -59c0 -32 -26 -57 -59 -57zM99 -152l-41 27c30 38 56 78 69 116c-27 6 -50 26 -50 56c0 33 25 59 57 59c33 0 59 -26 59 -62c0 -56 -46 -136 -94 -196z" />
    <glyph glyph-name="ellipsis" unicode="&#x2026;" horiz-adv-x="830" 
d="M134 -10c-32 0 -57 25 -57 57c0 33 25 59 57 59c33 0 59 -26 59 -59c0 -32 -26 -57 -59 -57zM414 -10c-33 0 -57 25 -57 57c0 33 24 59 57 59c32 0 59 -26 59 -59c0 -32 -27 -57 -59 -57zM694 -10c-33 0 -57 25 -57 57c0 33 24 59 57 59s59 -26 59 -59
c0 -32 -26 -57 -59 -57z" />
    <glyph glyph-name="exclam" unicode="!" horiz-adv-x="267" 
d="M110 240l-22 501h95l-21 -501h-52zM133 -10c-32 0 -57 25 -57 57c0 33 25 59 57 59c33 0 58 -26 58 -59c0 -32 -25 -57 -58 -57z" />
    <glyph glyph-name="exclamdown" unicode="&#xa1;" horiz-adv-x="267" 
d="M133 536c33 0 58 -25 58 -57c0 -33 -25 -59 -58 -59c-32 0 -57 26 -57 59c0 32 25 57 57 57zM110 286h52l21 -501h-95z" />
    <glyph glyph-name="question" unicode="?" horiz-adv-x="391" 
d="M134 240v35c0 163 142 197 142 324c0 45 -23 92 -78 92c-47 0 -78 -37 -93 -86l-55 43c21 63 79 108 149 108c91 0 152 -57 152 -153c0 -154 -157 -201 -157 -332v-31h-60zM162 -10c-31 0 -56 25 -56 57c0 33 25 59 56 59c33 0 59 -26 59 -59c0 -32 -26 -57 -59 -57z" />
    <glyph glyph-name="questiondown" unicode="&#xbf;" horiz-adv-x="391" 
d="M229 537c32 0 56 -25 56 -58c0 -32 -24 -59 -56 -59c-33 0 -59 27 -59 59c0 33 26 58 59 58zM257 286v-34c0 -163 -142 -197 -142 -324c0 -45 24 -93 78 -93c47 0 79 38 94 86l54 -43c-21 -62 -79 -107 -149 -107c-91 0 -152 57 -152 153c0 153 157 200 157 332v30h60z
" />
    <glyph glyph-name="periodcentered" unicode="&#xb7;" horiz-adv-x="270" 
d="M134 220c-32 0 -57 25 -57 58c0 32 25 59 57 59c33 0 59 -27 59 -59c0 -33 -26 -58 -59 -58z" />
    <glyph glyph-name="bullet" unicode="&#x2022;" horiz-adv-x="438" 
d="M218 198c-93 0 -170 77 -170 171c0 95 77 172 170 172c95 0 172 -77 172 -172c0 -94 -77 -171 -172 -171z" />
    <glyph glyph-name="asterisk" unicode="*" horiz-adv-x="424" 
d="M148 466l-40 28l68 90l-108 32l15 46l107 -35l-2 114h49l-2 -114l106 35l15 -46l-108 -32l68 -91l-40 -27l-64 92z" />
    <glyph glyph-name="numbersign" unicode="#" 
d="M537 463h-101l-25 -185h96v-59h-104l-29 -219h-59l29 219h-136l-29 -219h-60l29 219h-93v59h101l25 185h-96v59h104l29 219h60l-29 -219h135l29 219h60l-29 -219h93v-59zM352 278l24 185h-135l-25 -185h136z" />
    <glyph glyph-name="slash" unicode="/" horiz-adv-x="441" 
d="M-17 -11l400 763h65l-401 -763h-64z" />
    <glyph glyph-name="backslash" unicode="\" horiz-adv-x="441" 
d="M394 -11l-401 763h65l400 -763h-64z" />
    <glyph glyph-name="colon.calt" horiz-adv-x="270" 
d="M134 482c-32 0 -57 25 -57 57c0 33 25 59 57 59c33 0 59 -26 59 -59c0 -32 -26 -57 -59 -57zM134 100c-32 0 -57 25 -57 57c0 33 25 59 57 59c33 0 59 -26 59 -59c0 -32 -26 -57 -59 -57z" />
    <glyph glyph-name="exclamdown.case" horiz-adv-x="267" 
d="M133 751c33 0 58 -25 58 -57c0 -33 -25 -59 -58 -59c-32 0 -57 26 -57 59c0 32 25 57 57 57zM110 501h52l21 -501h-95z" />
    <glyph glyph-name="questiondown.case" horiz-adv-x="391" 
d="M229 751c32 0 56 -24 56 -57s-24 -59 -56 -59c-33 0 -59 26 -59 59s26 57 59 57zM257 501v-35c0 -162 -142 -196 -142 -323c0 -45 24 -93 78 -93c47 0 79 38 94 86l54 -43c-21 -63 -79 -107 -149 -107c-91 0 -152 56 -152 153c0 153 157 200 157 332v30h60z" />
    <glyph glyph-name="bullet.ss02" horiz-adv-x="438" 
d="M218 232c-74 0 -136 62 -136 137c0 76 62 138 136 138c76 0 138 -62 138 -138c0 -75 -62 -137 -138 -137z" />
    <glyph glyph-name="parenleft" unicode="(" horiz-adv-x="302" 
d="M255 -193c-107 80 -193 256 -193 488s88 409 194 486l33 -45c-91 -77 -163 -225 -163 -440c0 -216 73 -369 163 -441z" />
    <glyph glyph-name="parenright" unicode=")" horiz-adv-x="302" 
d="M46 781c108 -79 194 -255 194 -488c0 -232 -88 -409 -195 -486l-32 46c91 77 163 225 163 439c0 217 -74 369 -163 441z" />
    <glyph glyph-name="braceleft" unicode="{" horiz-adv-x="304" 
d="M269 -167c-112 0 -154 54 -154 181v102c0 79 -27 131 -93 143v62c69 10 93 59 93 138v98c0 126 41 184 153 184h23v-50h-14c-92 -2 -101 -54 -101 -156v-82c0 -72 -30 -141 -105 -164v-2c67 -18 105 -82 105 -148v-104c0 -101 10 -150 101 -152h14v-50h-22z" />
    <glyph glyph-name="braceright" unicode="}" horiz-adv-x="304" 
d="M35 741c112 0 154 -54 154 -181v-102c0 -79 27 -131 93 -143v-62c-68 -9 -93 -59 -93 -138v-98c0 -126 -41 -184 -153 -184h-22v50h13c92 2 101 54 101 156v82c0 72 30 141 106 164v2c-67 19 -106 82 -106 148v104c0 101 -10 150 -101 152h-13v50h21z" />
    <glyph glyph-name="bracketleft" unicode="[" horiz-adv-x="302" 
d="M106 -167v908h178v-51h-114v-806h114v-51h-178z" />
    <glyph glyph-name="bracketright" unicode="]" horiz-adv-x="302" 
d="M195 741v-908h-177v51h114v806h-114v51h177z" />
    <glyph glyph-name="parenleft.case" horiz-adv-x="302" 
d="M255 -136c-107 80 -193 256 -193 488s88 409 194 486l33 -45c-91 -77 -163 -225 -163 -440c0 -216 73 -369 163 -441z" />
    <glyph glyph-name="parenright.case" horiz-adv-x="302" 
d="M46 838c108 -79 194 -255 194 -488c0 -232 -88 -409 -195 -486l-32 46c91 77 163 225 163 439c0 217 -74 369 -163 441z" />
    <glyph glyph-name="braceleft.case" horiz-adv-x="304" 
d="M269 -110c-112 0 -154 54 -154 181v102c0 79 -27 131 -93 143v62c69 10 93 59 93 138v98c0 126 41 184 153 184h23v-50h-14c-92 -2 -101 -54 -101 -156v-82c0 -72 -30 -141 -105 -164v-2c67 -18 105 -82 105 -148v-104c0 -101 10 -150 101 -152h14v-50h-22z" />
    <glyph glyph-name="braceright.case" horiz-adv-x="304" 
d="M35 798c112 0 154 -54 154 -181v-102c0 -79 27 -131 93 -143v-62c-68 -9 -93 -59 -93 -138v-98c0 -126 -41 -184 -153 -184h-22v50h13c92 2 101 54 101 156v82c0 72 30 141 106 164v2c-67 19 -106 82 -106 148v104c0 101 -10 150 -101 152h-13v50h21z" />
    <glyph glyph-name="bracketleft.case" horiz-adv-x="302" 
d="M106 -110v908h178v-51h-114v-806h114v-51h-178z" />
    <glyph glyph-name="bracketright.case" horiz-adv-x="302" 
d="M195 798v-908h-177v51h114v806h-114v51h177z" />
    <glyph glyph-name="hyphen" unicode="-" horiz-adv-x="263" 
d="M34 243v63h196v-63h-196z" />
    <glyph glyph-name="uni00AD" unicode="&#xad;" horiz-adv-x="263" 
d="M34 243v63h196v-63h-196z" />
    <glyph glyph-name="endash" unicode="&#x2013;" horiz-adv-x="499" 
d="M34 243v63h431v-63h-431z" />
    <glyph glyph-name="emdash" unicode="&#x2014;" horiz-adv-x="975" 
d="M34 243v63h907v-63h-907z" />
    <glyph glyph-name="underscore" unicode="_" horiz-adv-x="400" 
d="M-15 -126v63h431v-63h-431z" />
    <glyph glyph-name="hyphen.case" horiz-adv-x="263" 
d="M34 361v63h196v-63h-196z" />
    <glyph glyph-name="endash.case" horiz-adv-x="499" 
d="M34 361v63h431v-63h-431z" />
    <glyph glyph-name="emdash.case" horiz-adv-x="975" 
d="M34 361v63h907v-63h-907z" />
    <glyph glyph-name="quotesinglbase" unicode="&#x201a;" horiz-adv-x="162" 
d="M53 -151l-34 23c31 42 62 100 72 139c-31 3 -50 24 -50 51c0 29 22 53 51 53c28 0 51 -24 51 -62c0 -62 -53 -154 -90 -204z" />
    <glyph glyph-name="quotedblbase" unicode="&#x201e;" horiz-adv-x="321" 
d="M53 -151l-34 23c31 42 62 100 72 139c-31 3 -50 24 -50 51c0 29 22 53 51 53c28 0 51 -24 51 -62c0 -62 -53 -154 -90 -204zM212 -151l-34 23c30 42 61 100 72 139c-31 3 -50 24 -50 51c0 29 22 53 51 53c28 0 51 -24 51 -62c0 -62 -53 -154 -90 -204z" />
    <glyph glyph-name="quotedblleft" unicode="&#x201c;" horiz-adv-x="321" 
d="M109 755l34 -22c-30 -43 -61 -101 -71 -140c30 -2 49 -23 49 -51c0 -29 -21 -52 -51 -52c-28 0 -51 23 -51 61c0 62 54 155 90 204zM267 755l34 -22c-30 -43 -61 -101 -71 -140c30 -2 49 -23 49 -51c0 -29 -21 -52 -50 -52s-52 23 -52 61c0 62 54 155 90 204z" />
    <glyph glyph-name="quotedblright" unicode="&#x201d;" horiz-adv-x="321" 
d="M53 485l-34 23c31 43 62 101 72 140c-31 2 -50 23 -50 51c0 29 22 52 51 52c28 0 51 -23 51 -61c0 -63 -53 -155 -90 -205zM212 485l-34 23c30 43 61 101 72 140c-31 2 -50 23 -50 51c0 29 22 52 51 52c28 0 51 -23 51 -61c0 -63 -53 -155 -90 -205z" />
    <glyph glyph-name="quoteleft" unicode="&#x2018;" horiz-adv-x="162" 
d="M109 755l34 -22c-30 -43 -61 -101 -71 -140c30 -2 49 -23 49 -51c0 -29 -21 -52 -51 -52c-28 0 -51 23 -51 61c0 62 54 155 90 204z" />
    <glyph glyph-name="quoteright" unicode="&#x2019;" horiz-adv-x="162" 
d="M53 485l-34 23c31 43 62 101 72 140c-31 2 -50 23 -50 51c0 29 22 52 51 52c28 0 51 -23 51 -61c0 -63 -53 -155 -90 -205z" />
    <glyph glyph-name="guillemotleft" unicode="&#xab;" horiz-adv-x="451" 
d="M161 100l-116 176l116 175h70l-111 -175l111 -176h-70zM337 100l-117 176l117 175h70l-112 -175l112 -176h-70z" />
    <glyph glyph-name="guillemotright" unicode="&#xbb;" horiz-adv-x="451" 
d="M115 464l116 -176l-116 -175h-70l111 175l-111 176h70zM290 464l117 -176l-117 -175h-70l112 175l-112 176h70z" />
    <glyph glyph-name="guilsinglleft" unicode="&#x2039;" horiz-adv-x="276" 
d="M161 100l-116 176l116 175h70l-111 -175l111 -176h-70z" />
    <glyph glyph-name="guilsinglright" unicode="&#x203a;" horiz-adv-x="276" 
d="M115 464l116 -176l-116 -175h-70l111 175l-111 176h70z" />
    <glyph glyph-name="quotedbl" unicode="&#x22;" horiz-adv-x="380" 
d="M80 499v242h64v-242h-64zM236 499v242h64v-242h-64z" />
    <glyph glyph-name="quotesingle" unicode="'" horiz-adv-x="224" 
d="M80 499v242h64v-242h-64z" />
    <glyph glyph-name="guillemotleft.case" horiz-adv-x="451" 
d="M161 181l-116 176l116 175h70l-111 -175l111 -176h-70zM337 181l-117 176l117 175h70l-112 -175l112 -176h-70z" />
    <glyph glyph-name="guillemotright.case" horiz-adv-x="451" 
d="M115 531l116 -175l-116 -176h-70l111 176l-111 175h70zM290 531l117 -175l-117 -176h-70l112 176l-112 175h70z" />
    <glyph glyph-name="guilsinglleft.case" horiz-adv-x="276" 
d="M161 181l-116 176l116 175h70l-111 -175l111 -176h-70z" />
    <glyph glyph-name="guilsinglright.case" horiz-adv-x="276" 
d="M115 531l116 -175l-116 -176h-70l111 176l-111 175h70z" />
    <glyph glyph-name="cent" unicode="&#xa2;" horiz-adv-x="560" 
d="M480 230c-29 -67 -84 -119 -159 -129v-101h-57v101c-118 15 -182 121 -182 274c0 162 72 258 182 272v94h57v-93c76 -9 119 -55 148 -117l-60 -37c-17 49 -51 99 -114 99c-108 0 -137 -113 -137 -218c0 -122 34 -218 136 -218c71 0 104 55 125 110z" />
    <glyph glyph-name="currency" unicode="&#xa4;" 
d="M534 389c0 -56 -19 -106 -49 -145l42 -42l-43 -45l-44 42c-41 -32 -92 -50 -145 -50s-104 18 -145 49l-41 -41l-44 45l41 41c-30 39 -48 88 -48 144c0 55 18 105 48 144l-41 42l44 45l42 -42c42 32 93 50 146 50c52 0 103 -18 144 -49l43 41l43 -45l-41 -41
c30 -39 48 -88 48 -143zM296 209c103 0 176 81 176 179c0 97 -73 178 -176 178c-102 0 -176 -81 -176 -178c0 -98 74 -179 176 -179z" />
    <glyph glyph-name="dollar" unicode="$" 
d="M531 201c0 -119 -93 -195 -204 -204v-91h-57v92c-93 11 -167 69 -206 135l55 51c34 -70 87 -112 151 -122v293c-94 38 -188 82 -188 203c0 107 78 176 188 187v90h57v-90c80 -8 142 -54 174 -116l-55 -45c-27 58 -66 89 -119 97v-271c99 -39 204 -81 204 -209zM154 568
c0 -71 51 -106 116 -135v248c-61 -7 -116 -42 -116 -113zM327 60c70 9 132 53 132 132c0 76 -60 111 -132 141v-273z" />
    <glyph glyph-name="Euro" unicode="&#x20ac;" 
d="M505 155l50 -52c-34 -70 -96 -117 -185 -117c-141 0 -218 114 -236 289h-71v54h67v30c0 24 1 49 3 72h-70v54h77c25 154 101 270 247 270c60 0 105 -19 140 -51l-18 -76c-29 36 -69 63 -126 63c-101 0 -150 -91 -168 -206h258l-15 -54h-249c-2 -23 -3 -47 -3 -71v-31h226
l-14 -54h-208c14 -147 69 -225 160 -225c66 0 111 42 135 105z" />
    <glyph glyph-name="florin" unicode="&#x192;" horiz-adv-x="560" 
d="M435 691c-57 0 -75 -34 -84 -114l-16 -149h116v-59h-122l-38 -367c-12 -119 -58 -170 -161 -170c-22 0 -41 3 -41 3l4 63c5 -1 19 -5 39 -5c57 0 76 33 85 114l37 362h-112v59h118l16 154c13 120 58 170 162 170c22 0 40 -3 40 -3l-4 -62c-4 1 -19 4 -39 4z" />
    <glyph glyph-name="sterling" unicode="&#xa3;" horiz-adv-x="560" 
d="M501 121l56 -23c-19 -57 -50 -113 -123 -113c-54 0 -105 41 -154 81c-31 -50 -79 -81 -142 -81c-64 0 -116 37 -116 103c0 61 50 103 115 103c38 0 75 -13 109 -31c1 10 2 21 2 32c0 63 -18 118 -36 174h-130v59h111c-12 40 -21 82 -21 128c0 113 69 202 184 202
c77 0 136 -41 161 -106l-56 -46c-14 52 -56 89 -109 89c-74 0 -103 -68 -103 -136c0 -44 11 -87 24 -131h156v-59h-138c15 -48 27 -98 27 -152c0 -32 -4 -63 -13 -90c52 -35 97 -71 129 -71c33 0 50 18 67 68zM141 37c40 0 71 26 89 66c-29 20 -59 34 -89 34
c-33 0 -60 -19 -60 -50c0 -33 30 -50 60 -50z" />
    <glyph glyph-name="yen" unicode="&#xa5;" horiz-adv-x="560" 
d="M529 741l-193 -357h159v-59h-172v-92h172v-59h-172v-174h-79v174h-180v59h180v92h-180v59h166l-199 357h82l171 -309h1l167 309h77z" />
    <glyph glyph-name="cent.case" horiz-adv-x="606" 
d="M562 188c-29 -104 -99 -184 -210 -194v-87h-57v88c-149 18 -244 161 -244 375c0 217 98 357 244 375v90h57v-89c110 -10 180 -87 208 -195l-68 -35c-17 80 -59 154 -140 166v-624c79 14 123 92 141 168zM132 370c0 -169 66 -289 163 -311v622
c-98 -20 -163 -134 -163 -311z" />
    <glyph glyph-name="uni2219" unicode="&#x2219;" horiz-adv-x="270" 
d="M134 220c-32 0 -57 25 -57 58c0 32 25 59 57 59c33 0 59 -27 59 -59c0 -33 -26 -58 -59 -58z" />
    <glyph glyph-name="uni2215" unicode="&#x2215;" horiz-adv-x="121" 
d="M-166 0l393 741h60l-393 -741h-60z" />
    <glyph glyph-name="plus" unicode="+" 
d="M265 20v204h-202v59h202v204h62v-204h202v-59h-202v-204h-62z" />
    <glyph glyph-name="minus" unicode="&#x2212;" 
d="M63 224v59h466v-59h-466z" />
    <glyph glyph-name="multiply" unicode="&#xd7;" 
d="M468 38l-173 173l-172 -172l-41 42l172 172l-172 172l41 42l172 -173l173 174l42 -42l-172 -173l172 -173z" />
    <glyph glyph-name="divide" unicode="&#xf7;" 
d="M295 393c-30 0 -54 24 -54 55c0 32 24 57 54 57c32 0 57 -25 57 -57c0 -31 -25 -55 -57 -55zM63 224v59h466v-59h-466zM295 10c-30 0 -54 24 -54 55s24 56 54 56c32 0 57 -25 57 -56s-25 -55 -57 -55z" />
    <glyph glyph-name="equal" unicode="=" 
d="M63 318v60h466v-60h-466zM63 123v59h466v-59h-466z" />
    <glyph glyph-name="notequal" unicode="&#x2260;" 
d="M529 318h-151l-93 -136h244v-59h-284l-97 -141h-71l96 141h-110v59h151l93 136h-244v60h285l96 141h72l-97 -141h110v-60z" />
    <glyph glyph-name="greater" unicode="&#x3e;" 
d="M63 14v62l406 180l-406 172v62l466 -202v-64z" />
    <glyph glyph-name="less" unicode="&#x3c;" 
d="M529 14l-466 210v64l466 202v-62l-405 -172l405 -180v-62z" />
    <glyph glyph-name="greaterequal" unicode="&#x2265;" 
d="M64 103v61l405 180l-405 172v62l466 -201v-65zM63 0v60h466v-60h-466z" />
    <glyph glyph-name="lessequal" unicode="&#x2264;" 
d="M530 103l-466 209v65l466 201v-62l-405 -172l405 -180v-61zM63 0v60h466v-60h-466z" />
    <glyph glyph-name="plusminus" unicode="&#xb1;" 
d="M265 141v143h-202v60h202v151h62v-151h202v-60h-202v-143h-62zM63 0v60h466v-60h-466z" />
    <glyph glyph-name="approxequal" unicode="&#x2248;" 
d="M105 290l-40 22c18 47 63 99 124 99c70 0 163 -61 218 -61c35 0 65 29 78 59l43 -16c-17 -52 -64 -102 -123 -102c-68 0 -167 62 -218 62c-39 0 -67 -39 -82 -63zM105 99l-40 23c18 47 63 98 124 98c70 0 163 -61 218 -61c35 0 65 29 78 60l43 -17
c-17 -52 -64 -102 -123 -102c-68 0 -167 63 -218 63c-39 0 -67 -39 -82 -64z" />
    <glyph glyph-name="asciitilde" unicode="~" 
d="M105 195l-40 22c18 47 63 99 124 99c70 0 163 -61 218 -61c35 0 65 29 78 59l43 -17c-17 -51 -64 -101 -123 -101c-68 0 -167 62 -218 62c-39 0 -67 -39 -82 -63z" />
    <glyph glyph-name="logicalnot" unicode="&#xac;" 
d="M468 20v204h-405v59h466v-263h-61z" />
    <glyph glyph-name="asciicircum" unicode="^" horiz-adv-x="610" 
d="M67 316l204 425h67l205 -425h-61l-178 353l-176 -353h-61z" />
    <glyph glyph-name="infinity" unicode="&#x221e;" 
d="M168 164c-53 0 -108 39 -108 101c0 60 53 100 109 100c46 0 85 -28 129 -72c43 43 75 72 125 72c58 0 109 -37 109 -98c0 -62 -55 -103 -108 -103c-48 0 -90 32 -127 72c-46 -44 -84 -72 -129 -72zM172 202c15 0 39 7 101 62c-57 50 -81 62 -102 62
c-32 0 -61 -27 -61 -60c0 -34 28 -64 62 -64zM422 202c30 0 60 27 60 63c0 33 -27 61 -62 61c-25 0 -52 -16 -98 -63c25 -24 64 -61 100 -61z" />
    <glyph glyph-name="integral" unicode="&#x222b;" horiz-adv-x="567" 
d="M130 -168c-22 0 -41 3 -41 3l4 63c5 -1 19 -5 39 -5c57 0 76 33 85 114l59 575c13 120 58 170 162 170c22 0 40 -3 40 -3l-4 -62c-4 1 -19 4 -39 4c-57 0 -75 -34 -84 -114l-60 -575c-12 -119 -58 -170 -161 -170z" />
    <glyph glyph-name="uni2126" unicode="&#x2126;" horiz-adv-x="650" 
d="M50 0v64h114c-71 70 -113 175 -113 316c0 236 107 375 274 375s274 -139 274 -375c0 -142 -44 -247 -114 -316h116v-64h-198v60c57 47 115 135 115 314c0 213 -78 319 -193 319s-193 -106 -193 -319c0 -179 58 -267 114 -314v-60h-196z" />
    <glyph glyph-name="uni2206" unicode="&#x2206;" horiz-adv-x="558" 
d="M0 0l238 741h77l243 -741h-558zM100 64h357l-180 576h-2z" />
    <glyph glyph-name="product" unicode="&#x220f;" horiz-adv-x="663" 
d="M95 -167v908h473v-908h-78v844h-317v-844h-78z" />
    <glyph glyph-name="summation" unicode="&#x2211;" horiz-adv-x="548" 
d="M139 -98h377v-64h-454v64l225 406l-225 369v64h433v-64h-350l212 -347v-36z" />
    <glyph glyph-name="radical" unicode="&#x221a;" 
d="M232 -161l-137 471h-87v57h142l122 -450h1l225 824h64l-251 -902h-79z" />
    <glyph glyph-name="partialdiff" unicode="&#x2202;" horiz-adv-x="520" 
d="M163 765c164 -141 306 -279 306 -508c0 -176 -84 -271 -209 -271c-123 0 -209 93 -209 275s86 275 209 275c17 0 33 -2 48 -5c-49 56 -124 131 -189 184zM261 43c112 0 133 127 133 218s-21 218 -133 218c-113 0 -134 -127 -134 -218s21 -218 134 -218z" />
    <glyph glyph-name="uni00B5" unicode="&#xb5;" horiz-adv-x="519" 
d="M364 522h74v-522h-74v54c-39 -34 -88 -68 -153 -68c-21 0 -40 4 -56 12v-166h-74v690h74v-372c0 -44 20 -104 79 -104c51 0 101 43 130 71v405z" />
    <glyph glyph-name="percent" unicode="%" horiz-adv-x="700" 
d="M169 370c-106 0 -135 100 -135 191s26 194 135 194c108 0 135 -103 135 -194s-29 -191 -135 -191zM118 0l405 741h59l-405 -741h-59zM169 423c63 0 72 78 72 138c0 62 -8 141 -72 141c-65 0 -73 -79 -73 -141c0 -60 9 -138 73 -138zM531 -14c-106 0 -135 101 -135 191
c0 91 26 194 135 194c108 0 135 -103 135 -194c0 -90 -29 -191 -135 -191zM531 39c64 0 72 78 72 138c0 61 -7 141 -72 141s-73 -80 -73 -141c0 -60 9 -138 73 -138z" />
    <glyph glyph-name="perthousand" unicode="&#x2030;" horiz-adv-x="1034" 
d="M169 370c-106 0 -135 100 -135 191s26 194 135 194c108 0 135 -103 135 -194s-29 -191 -135 -191zM118 0l405 741h59l-405 -741h-59zM169 423c63 0 72 78 72 138c0 62 -8 141 -72 141c-65 0 -73 -79 -73 -141c0 -60 9 -138 73 -138zM531 -14c-106 0 -135 101 -135 191
c0 91 26 194 135 194c108 0 135 -103 135 -194c0 -90 -29 -191 -135 -191zM865 -14c-106 0 -135 101 -135 191c0 91 27 194 135 194c109 0 135 -103 135 -194c0 -90 -29 -191 -135 -191zM531 39c64 0 72 78 72 138c0 61 -7 141 -72 141s-73 -80 -73 -141
c0 -60 9 -138 73 -138zM865 39c64 0 73 78 73 138c0 61 -8 141 -73 141s-72 -80 -72 -141c0 -60 8 -138 72 -138z" />
    <glyph glyph-name="plus.case" 
d="M265 115v204h-202v59h202v204h62v-204h202v-59h-202v-204h-62z" />
    <glyph glyph-name="minus.case" 
d="M63 319v59h466v-59h-466z" />
    <glyph glyph-name="multiply.case" 
d="M468 133l-173 173l-172 -172l-41 42l172 172l-172 172l41 42l172 -173l173 174l42 -42l-172 -173l172 -173z" />
    <glyph glyph-name="divide.case" 
d="M295 488c-30 0 -54 24 -54 55c0 32 24 57 54 57c32 0 57 -25 57 -57c0 -31 -25 -55 -57 -55zM63 319v59h466v-59h-466zM295 105c-30 0 -54 24 -54 55s24 56 54 56c32 0 57 -25 57 -56s-25 -55 -57 -55z" />
    <glyph glyph-name="equal.case" 
d="M63 413v60h466v-60h-466zM63 218v59h466v-59h-466z" />
    <glyph glyph-name="notequal.case" 
d="M529 413h-151l-93 -136h244v-59h-284l-97 -141h-71l96 141h-110v59h151l93 136h-244v60h285l96 141h72l-97 -141h110v-60z" />
    <glyph glyph-name="greater.case" 
d="M63 109v62l406 180l-406 172v62l466 -202v-64z" />
    <glyph glyph-name="less.case" 
d="M529 109l-466 210v64l466 202v-62l-405 -172l405 -180v-62z" />
    <glyph glyph-name="approxequal.case" 
d="M105 385l-40 22c18 47 63 99 124 99c70 0 163 -61 218 -61c35 0 65 29 78 59l43 -16c-17 -52 -64 -102 -123 -102c-68 0 -167 62 -218 62c-39 0 -67 -39 -82 -63zM105 194l-40 23c18 47 63 98 124 98c70 0 163 -61 218 -61c35 0 65 29 78 60l43 -17
c-17 -52 -64 -102 -123 -102c-68 0 -167 63 -218 63c-39 0 -67 -39 -82 -64z" />
    <glyph glyph-name="logicalnot.case" 
d="M468 115v204h-405v59h466v-263h-61z" />
    <glyph glyph-name="asciitilde.case" 
d="M105 290l-40 22c18 47 63 99 124 99c70 0 163 -61 218 -61c35 0 65 29 78 59l43 -17c-17 -51 -64 -101 -123 -101c-68 0 -167 62 -218 62c-39 0 -67 -39 -82 -63z" />
    <glyph glyph-name="infinity.case" 
d="M168 259c-53 0 -108 39 -108 101c0 60 53 100 109 100c46 0 85 -28 129 -72c43 43 75 72 125 72c58 0 109 -37 109 -98c0 -62 -55 -103 -108 -103c-48 0 -90 32 -127 72c-46 -44 -84 -72 -129 -72zM172 297c15 0 39 7 101 62c-57 50 -81 62 -102 62
c-32 0 -61 -27 -61 -60c0 -34 28 -64 62 -64zM422 297c30 0 60 27 60 63c0 33 -27 61 -62 61c-25 0 -52 -16 -98 -63c25 -24 64 -61 100 -61z" />
    <glyph glyph-name="lozenge" unicode="&#x25ca;" horiz-adv-x="517" 
d="M226 -163l-196 459l195 460h65l197 -460l-200 -459h-61zM256 -71h2l157 367l-157 370h-2l-152 -370z" />
    <glyph glyph-name="uni2713" unicode="&#x2713;" horiz-adv-x="645" 
d="M517 692l94 -57l-398 -585h-59l-120 254l104 42l62 -141z" />
    <glyph glyph-name="uni2764" unicode="&#x2764;" horiz-adv-x="1126" 
d="M152 -71v744l174 176v-746zM475 -71v744l174 176v-746zM801 -71v744l173 176v-746z" />
    <glyph glyph-name="at" unicode="@" horiz-adv-x="833" 
d="M431 -121c-216 0 -385 174 -385 386s169 385 385 385c199 0 355 -147 355 -330c0 -161 -121 -272 -223 -272c-53 0 -92 31 -96 77c-37 -47 -79 -77 -133 -77c-78 0 -126 58 -126 149c0 133 101 283 229 283c58 0 92 -33 106 -78h2l21 57h56l-93 -278
c-17 -50 -10 -84 40 -84c87 0 165 108 165 226c0 164 -142 276 -304 276c-184 0 -330 -144 -330 -334c0 -188 146 -334 335 -334c99 0 197 42 255 115l16 -49c-65 -73 -170 -118 -275 -118zM347 95c90 0 167 170 167 250c0 41 -18 90 -75 90c-95 0 -167 -134 -167 -234
c0 -63 21 -106 75 -106z" />
    <glyph glyph-name="ampersand" unicode="&#x26;" horiz-adv-x="621" 
d="M498 122c43 -33 85 -53 118 -53l-4 -71c-47 -1 -102 26 -158 70c-52 -50 -118 -82 -198 -82c-113 0 -213 85 -213 203c0 108 72 167 148 218c-32 68 -52 133 -52 185c0 91 58 164 151 164c84 0 140 -56 140 -142c0 -111 -79 -168 -157 -222c45 -82 109 -164 173 -225
c35 55 60 123 69 190l63 -34c-13 -73 -40 -144 -80 -201zM207 596c0 -44 15 -96 40 -151c63 44 117 90 117 166c0 49 -30 84 -77 84c-55 0 -80 -50 -80 -99zM263 49c53 0 101 25 140 64c-70 66 -136 154 -185 241c-56 -41 -101 -87 -101 -160c0 -77 62 -145 146 -145z" />
    <glyph glyph-name="paragraph" unicode="&#xb6;" horiz-adv-x="622" 
d="M267 -163v578h-51c-100 0 -172 71 -172 157c0 87 69 169 182 169h301v-904h-54v854h-152v-854h-54z" />
    <glyph glyph-name="section" unicode="&#xa7;" horiz-adv-x="533" 
d="M389 126c44 -31 75 -71 75 -133c0 -94 -82 -159 -199 -159c-97 0 -184 53 -207 156l57 43c19 -91 71 -135 153 -135c70 0 125 31 125 92c0 147 -340 115 -340 319c0 64 35 116 100 158c-41 30 -70 70 -70 130c0 93 80 159 184 159c97 0 169 -53 192 -148l-56 -44
c-16 79 -62 128 -139 128c-58 0 -110 -31 -110 -91c0 -148 333 -116 333 -320c0 -63 -34 -114 -98 -155zM120 321c0 -91 121 -117 219 -166c50 32 80 69 80 115c0 91 -120 117 -216 167c-51 -32 -83 -70 -83 -116z" />
    <glyph glyph-name="copyright" unicode="&#xa9;" horiz-adv-x="870" 
d="M434 -14c-215 0 -384 171 -384 384c0 214 169 385 384 385c217 0 386 -171 386 -385c0 -213 -169 -384 -386 -384zM434 36c191 0 330 144 330 334c0 191 -141 335 -330 335c-190 0 -329 -144 -329 -335c0 -190 142 -334 329 -334zM434 128c-108 0 -196 85 -196 242
c0 152 82 244 196 244c92 0 146 -52 169 -133l-58 -16c-12 57 -43 100 -111 100c-104 0 -125 -108 -125 -194c0 -85 21 -194 125 -194c64 0 101 45 112 100l58 -16c-20 -79 -77 -133 -170 -133z" />
    <glyph glyph-name="registered" unicode="&#xae;" horiz-adv-x="870" 
d="M434 -14c-215 0 -384 171 -384 384c0 214 169 385 384 385c217 0 386 -171 386 -385c0 -213 -169 -384 -386 -384zM434 36c191 0 330 144 330 334c0 191 -141 335 -330 335c-190 0 -329 -144 -329 -335c0 -190 142 -334 329 -334zM283 130v468h165
c125 0 158 -69 158 -133c0 -56 -40 -105 -108 -121l98 -214h-65l-91 205h-99v-205h-58zM341 384h78c91 0 122 32 122 84c0 69 -51 81 -116 81h-84v-165z" />
    <glyph glyph-name="trademark" unicode="&#x2122;" horiz-adv-x="893" 
d="M156 344v349h-121v48h303v-48h-121v-349h-61zM404 344v397h84l109 -191h2l108 191h83v-397h-60v328h-2l-132 -233l-130 233h-2v-328h-60z" />
    <glyph glyph-name="degree" unicode="&#xb0;" horiz-adv-x="380" 
d="M190 475c-76 0 -137 62 -137 138s61 138 137 138s138 -62 138 -138s-62 -138 -138 -138zM190 527c48 0 87 38 87 86s-39 87 -87 87c-49 0 -86 -39 -86 -87s38 -86 86 -86z" />
    <glyph glyph-name="bar" unicode="|" horiz-adv-x="226" 
d="M82 -238v979h62v-979h-62z" />
    <glyph glyph-name="brokenbar" unicode="&#xa6;" horiz-adv-x="226" 
d="M82 370v371h62v-371h-62zM82 -238v403h62v-403h-62z" />
    <glyph glyph-name="dagger" unicode="&#x2020;" horiz-adv-x="538" 
d="M231 -155v627h-171v61h171v208h75v-208h172v-61h-172v-627h-75z" />
    <glyph glyph-name="uni2113" unicode="&#x2113;" horiz-adv-x="481" 
d="M308 43c35 0 67 20 98 49l28 -50c-39 -39 -86 -57 -139 -57c-81 0 -144 51 -144 157v70c-25 -19 -53 -39 -83 -60l-33 56c44 29 82 56 116 80v292c0 114 62 175 149 175c77 0 134 -52 134 -151c0 -121 -47 -206 -215 -340v-103c0 -94 45 -118 89 -118zM219 586v-245
c116 96 153 168 153 255c0 71 -27 104 -75 104c-50 0 -78 -39 -78 -114z" />
    <glyph glyph-name="daggerdbl" unicode="&#x2021;" horiz-adv-x="538" 
d="M231 -155v202h-171v62h171v369h-171v61h171v202h75v-202h172v-61h-172v-369h172v-62h-172v-202h-75z" />
    <glyph glyph-name="estimated" unicode="&#x212e;" horiz-adv-x="943" 
d="M476 -12c-237 0 -428 173 -428 382c0 210 191 382 426 382s421 -175 421 -389h-679c-7 0 -11 -3 -11 -12v-167c0 -90 172 -153 276 -153c96 0 178 36 241 109h82c-75 -93 -194 -152 -328 -152zM216 403h511c7 0 11 3 11 10v147c0 16 -6 36 -19 50
c-65 69 -152 102 -249 102c-95 0 -182 -31 -244 -102c-12 -14 -21 -34 -21 -50v-147c0 -7 4 -10 11 -10z" />
    <glyph glyph-name="ampersand.alt" horiz-adv-x="621" 
d="M498 122c43 -33 85 -53 118 -53l-4 -71c-47 -1 -102 26 -158 70c-52 -50 -118 -82 -198 -82c-113 0 -213 85 -213 203c0 108 72 167 147 219c-32 67 -51 132 -51 184c0 91 58 164 151 164c86 0 140 -59 140 -142c0 -9 -1 -16 -1 -23l-77 -41c9 22 12 41 12 61
c0 49 -30 84 -77 84c-55 0 -80 -50 -80 -99c0 -124 119 -315 239 -429c35 55 60 123 69 190l63 -34c-13 -73 -40 -144 -80 -201zM263 49c53 0 101 25 140 64c-70 66 -136 154 -185 242c-56 -42 -101 -88 -101 -161c0 -77 62 -145 146 -145z" />
    <glyph glyph-name="at.case" horiz-adv-x="837" 
d="M434 -19c-217 0 -385 174 -385 386s168 385 384 385c200 0 356 -147 356 -330c0 -161 -122 -272 -223 -272c-54 0 -93 31 -96 77c-38 -47 -79 -77 -133 -77c-78 0 -126 58 -126 149c0 133 101 283 228 283c58 0 93 -32 106 -78h3l20 57h56l-93 -278
c-16 -50 -10 -84 40 -84c88 0 166 108 166 226c0 164 -143 276 -304 276c-185 0 -330 -144 -330 -334c0 -188 145 -334 334 -334c100 0 198 42 255 115l16 -48c-64 -74 -169 -119 -274 -119zM349 197c90 0 168 170 168 250c0 41 -19 90 -76 90c-95 0 -166 -134 -166 -234
c0 -63 21 -106 74 -106z" />
    <glyph glyph-name="bar.case" horiz-adv-x="226" 
d="M82 -171v979h62v-979h-62z" />
    <glyph glyph-name="brokenbar.case" horiz-adv-x="226" 
d="M82 437v371h62v-371h-62zM82 -171v403h62v-403h-62z" />
    <glyph glyph-name="uni02C9" unicode="&#x2c9;" horiz-adv-x="415" 
d="M48 654v55h319v-55h-319z" />
    <glyph glyph-name="uni0308" unicode="&#x308;" horiz-adv-x="0" 
d="M-270 637c-25 0 -46 21 -46 46c0 27 21 48 46 48c27 0 48 -21 48 -48c0 -25 -21 -46 -48 -46zM-95 637c-26 0 -47 21 -47 46c0 27 21 48 47 48c27 0 47 -21 47 -48c0 -25 -20 -46 -47 -46z" />
    <glyph glyph-name="uni0307" unicode="&#x307;" horiz-adv-x="0" 
d="M-97 635c-27 0 -48 22 -48 48c0 27 21 49 48 49s49 -22 49 -49c0 -26 -22 -48 -49 -48z" />
    <glyph glyph-name="gravecomb" unicode="&#x300;" horiz-adv-x="0" 
d="M-99 604l-99 137h83l67 -137h-51z" />
    <glyph glyph-name="acutecomb" unicode="&#x301;" horiz-adv-x="0" 
d="M-198 604l67 137h83l-98 -137h-52z" />
    <glyph glyph-name="uni030B" unicode="&#x30b;" horiz-adv-x="0" 
d="M-351 604l68 137h75l-98 -137h-45zM-191 604l69 137h74l-98 -137h-45z" />
    <glyph glyph-name="uni0302" unicode="&#x302;" horiz-adv-x="0" 
d="M-320 604l99 137h74l99 -137h-56l-81 90l-78 -90h-57z" />
    <glyph glyph-name="circumflexcomb_hookcomb" horiz-adv-x="0" 
d="M-166 699c44 31 58 48 58 63c0 14 -14 28 -44 28c-27 0 -52 -6 -77 -20l-11 43c28 14 61 22 94 22c65 0 98 -27 98 -64c0 -23 -17 -46 -56 -72h-62zM-384 604l99 99h74l99 -99h-57l-80 62l-76 -62h-59z" />
    <glyph glyph-name="uni030C" unicode="&#x30c;" horiz-adv-x="0" 
d="M-221 604l-99 137h57l78 -90l81 90h56l-99 -137h-74z" />
    <glyph glyph-name="uni0306" unicode="&#x306;" horiz-adv-x="0" 
d="M-200 596c-84 0 -138 62 -152 145h53c11 -49 42 -92 99 -92s90 43 100 92h52c-13 -83 -69 -145 -152 -145z" />
    <glyph glyph-name="brevecomb_hookcomb" horiz-adv-x="0" 
d="M-221 713c44 31 57 48 57 63s-14 29 -44 29c-27 0 -52 -7 -78 -21l-10 43c28 14 61 22 95 22c64 0 96 -27 96 -64c0 -23 -15 -46 -55 -72h-61zM-185 596c-70 0 -122 41 -137 108h52c12 -39 42 -56 85 -56c42 0 74 17 85 56h52c-15 -67 -72 -108 -137 -108z" />
    <glyph glyph-name="uni030A" unicode="&#x30a;" horiz-adv-x="0" 
d="M-133 584c-46 0 -84 39 -84 85s38 85 84 85c47 0 85 -39 85 -85s-38 -85 -85 -85zM-133 624c26 0 46 21 46 45s-20 46 -46 46c-24 0 -45 -22 -45 -46s21 -45 45 -45z" />
    <glyph glyph-name="tildecomb" unicode="&#x303;" horiz-adv-x="0" 
d="M-329 642l-31 29c18 30 51 74 97 74c45 0 85 -47 123 -47c27 0 47 22 59 47l33 -24c-16 -30 -48 -78 -91 -78c-44 0 -91 50 -127 50c-29 0 -49 -27 -63 -51z" />
    <glyph glyph-name="uni0304" unicode="&#x304;" horiz-adv-x="0" 
d="M-367 654v55h319v-55h-319z" />
    <glyph glyph-name="hookabovecomb" unicode="&#x309;" horiz-adv-x="0" 
d="M-168 604c47 34 61 52 61 69s-14 31 -44 31c-27 0 -53 -6 -78 -20l-10 43c27 14 61 22 94 22c64 0 97 -27 97 -67c0 -23 -17 -50 -61 -78h-59z" />
    <glyph glyph-name="uni0312" unicode="&#x312;" horiz-adv-x="0" 
d="M-198 604l99 137h51l-67 -137h-83z" />
    <glyph glyph-name="uni0315" unicode="&#x315;" horiz-adv-x="0" 
d="M-131 561l9 180h74l-30 -180h-53z" />
    <glyph glyph-name="dotbelowcomb" unicode="&#x323;" horiz-adv-x="0" 
d="M-97 -168c-27 0 -48 21 -48 48s21 48 48 48s49 -21 49 -48s-22 -48 -49 -48z" />
    <glyph glyph-name="uni0326" unicode="&#x326;" horiz-adv-x="0" 
d="M-198 -195l67 137h83l-98 -137h-52z" />
    <glyph glyph-name="uni0327" unicode="&#x327;" horiz-adv-x="0" 
d="M-139 -48c45 -9 91 -25 91 -75c0 -54 -50 -79 -104 -79c-29 0 -70 7 -88 19l12 43c14 -10 48 -20 74 -20c29 0 49 11 49 34c0 32 -39 42 -106 47l57 85h50z" />
    <glyph glyph-name="uni0328" unicode="&#x328;" horiz-adv-x="0" 
d="M-116 -192c-45 0 -88 21 -88 76c0 50 42 98 113 132l43 -16c-68 -34 -104 -73 -104 -109c0 -27 18 -38 42 -38c20 0 40 6 58 17v-45c-20 -12 -41 -17 -64 -17z" />
    <glyph glyph-name="dieresis" unicode="&#xa8;" horiz-adv-x="364" 
d="M94 637c-25 0 -46 21 -46 46c0 27 21 48 46 48c27 0 48 -21 48 -48c0 -25 -21 -46 -48 -46zM269 637c-26 0 -47 21 -47 46c0 27 21 48 47 48c27 0 47 -21 47 -48c0 -25 -20 -46 -47 -46z" />
    <glyph glyph-name="dotaccent" unicode="&#x2d9;" horiz-adv-x="193" 
d="M96 635c-27 0 -48 22 -48 48c0 27 21 49 48 49s49 -22 49 -49c0 -26 -22 -48 -49 -48z" />
    <glyph glyph-name="grave" unicode="`" horiz-adv-x="246" 
d="M147 604l-99 137h83l67 -137h-51z" />
    <glyph glyph-name="acute" unicode="&#xb4;" horiz-adv-x="246" 
d="M48 604l67 137h83l-98 -137h-52z" />
    <glyph glyph-name="hungarumlaut" unicode="&#x2dd;" horiz-adv-x="399" 
d="M48 604l68 137h75l-98 -137h-45zM208 604l69 137h74l-98 -137h-45z" />
    <glyph glyph-name="circumflex" unicode="&#x2c6;" horiz-adv-x="368" 
d="M48 604l99 137h74l99 -137h-56l-81 90l-78 -90h-57z" />
    <glyph glyph-name="caron" unicode="&#x2c7;" horiz-adv-x="368" 
d="M147 604l-99 137h57l78 -90l81 90h56l-99 -137h-74z" />
    <glyph glyph-name="breve" unicode="&#x2d8;" horiz-adv-x="400" 
d="M200 596c-84 0 -138 62 -152 145h53c11 -49 42 -92 99 -92s90 43 100 92h52c-13 -83 -69 -145 -152 -145z" />
    <glyph glyph-name="ring" unicode="&#x2da;" horiz-adv-x="265" 
d="M132 584c-46 0 -84 39 -84 85s38 85 84 85c47 0 85 -39 85 -85s-38 -85 -85 -85zM132 624c26 0 46 21 46 45s-20 46 -46 46c-24 0 -45 -22 -45 -46s21 -45 45 -45z" />
    <glyph glyph-name="tilde" unicode="&#x2dc;" horiz-adv-x="408" 
d="M79 642l-31 29c18 30 51 74 97 74c45 0 85 -47 123 -47c27 0 47 22 59 47l33 -24c-16 -30 -48 -78 -91 -78c-44 0 -91 50 -127 50c-29 0 -49 -27 -63 -51z" />
    <glyph glyph-name="macron" unicode="&#xaf;" horiz-adv-x="415" 
d="M48 654v55h319v-55h-319z" />
    <glyph glyph-name="cedilla" unicode="&#xb8;" horiz-adv-x="288" 
d="M149 -48c45 -9 91 -25 91 -75c0 -54 -50 -79 -104 -79c-29 0 -70 7 -88 19l12 43c14 -10 48 -20 74 -20c29 0 49 11 49 34c0 32 -39 42 -106 47l57 85h50z" />
    <glyph glyph-name="ogonek" unicode="&#x2db;" horiz-adv-x="252" 
d="M136 -192c-45 0 -88 21 -88 76c0 50 42 98 113 132l43 -16c-68 -34 -104 -73 -104 -109c0 -27 18 -38 42 -38c20 0 40 6 58 17v-45c-20 -12 -41 -17 -64 -17z" />
    <glyph glyph-name="uni03060301" horiz-adv-x="0" 
d="M-213 735l69 105h84l-101 -105h-52zM-185 596c-70 0 -122 41 -137 108h52c12 -39 42 -56 85 -56c42 0 74 17 85 56h52c-15 -67 -72 -108 -137 -108z" />
    <glyph glyph-name="uni03060300" horiz-adv-x="0" 
d="M-209 735l-101 105h84l69 -105h-52zM-185 596c-70 0 -122 41 -137 108h52c12 -39 42 -56 85 -56c42 0 74 17 85 56h52c-15 -67 -72 -108 -137 -108z" />
    <glyph glyph-name="uni03060303" horiz-adv-x="0" 
d="M-309 739l-33 24c27 45 56 69 90 69c43 0 83 -41 115 -41c18 0 36 15 54 46l33 -25c-27 -44 -57 -68 -91 -68c-42 0 -82 41 -115 41c-17 0 -35 -16 -53 -46zM-196 596c-70 0 -122 41 -137 108h52c12 -39 42 -56 85 -56c42 0 73 17 85 56h52c-15 -67 -73 -108 -137 -108z
" />
    <glyph glyph-name="uni03020301" horiz-adv-x="0" 
d="M-212 735l69 105h84l-102 -105h-51zM-320 604l99 99h74l99 -99h-57l-80 62l-76 -62h-59z" />
    <glyph glyph-name="uni03020300" horiz-adv-x="0" 
d="M-209 735l-101 105h84l69 -105h-52zM-320 604l99 99h74l99 -99h-57l-80 62l-76 -62h-59z" />
    <glyph glyph-name="uni03020303" horiz-adv-x="0" 
d="M-308 739l-32 24c26 45 56 69 90 69c42 0 82 -41 115 -41c17 0 35 15 53 46l34 -25c-27 -44 -57 -68 -91 -68c-42 0 -83 41 -115 41c-18 0 -35 -16 -54 -46zM-330 604l99 99h74l98 -99h-56l-79 62l-77 -62h-59z" />
    <glyph glyph-name="ncomma" horiz-adv-x="201" 
d="M48 604l26 137h79l-51 -137h-54z" />
    </font>
</defs>
</svg>
