<?xml version="1.0" standalone="no"?>
<!DOCTYPE svg PUBLIC "-//W3C//DTD SVG 1.1//EN" "http://www.w3.org/Graphics/SVG/1.1/DTD/svg11.dtd" >
<svg xmlns="http://www.w3.org/2000/svg" xmlns:xlink="http://www.w3.org/1999/xlink" version="1.1">
<metadata>
Created by FontForge 20190801 at Wed Jan 29 13:34:58 2020
 By Jimmy Wärting
Copyright (c) 2019 The Manufacturers Life Insurance Company (Manulife) - All Rights Reserved. The information contained herein, including without limitation font and typeface, is proprietary to Manulife and shall not be reproduced, copied in whole or in part, adapted, modified, or disseminated without the express written consent of Manulife.
</metadata>
<defs>
<font id="ManulifeJHSansTest4_2-Bold" horiz-adv-x="592" >
  <font-face 
    font-family="Manulife JH Sans Test 4_2"
    font-weight="700"
    font-stretch="normal"
    units-per-em="1000"
    panose-1="0 0 8 0 0 0 0 0 0 0"
    ascent="800"
    descent="-200"
    x-height="533"
    cap-height="741"
    bbox="-434 -238 1162 1056"
    underline-thickness="118"
    underline-position="-171"
    unicode-range="U+000D-FB02"
  />
<missing-glyph horiz-adv-x="732" 
d="M95 741h542v-741h-542v741z" />
    <glyph glyph-name="f_i" unicode="fi" horiz-adv-x="642" 
d="M24 416v117h70v57q0 70 43 118t127 48q61 0 114 -24l-38 -107q-30 11 -53 11q-52 0 -52 -63v-40h116l-22 -117h-94v-416h-141v416h-70zM434.5 615.5q-24.5 24.5 -24.5 57.5q0 34 24.5 58t57.5 24q34 0 58 -24t24 -58q0 -33 -24 -57.5t-58 -24.5q-33 0 -57.5 24.5z
M422 533h141v-533h-141v533z" />
    <glyph glyph-name="f_l" unicode="fl" horiz-adv-x="642" 
d="M24 416v117h70v57q0 70 43 118t127 48q61 0 114 -24l-38 -107q-30 11 -53 11q-52 0 -52 -63v-40h116l-22 -117h-94v-416h-141v416h-70zM422 722l141 57v-779h-141v722z" />
    <glyph glyph-name=".notdef" horiz-adv-x="732" 
d="M95 741h542v-741h-542v741z" />
    <glyph glyph-name="NULL" horiz-adv-x="0" 
 />
    <glyph glyph-name="nonmarkingreturn" unicode="&#xd;" horiz-adv-x="296" 
 />
    <glyph glyph-name="space" unicode=" " horiz-adv-x="222" 
 />
    <glyph glyph-name="space" unicode="&#xa0;" horiz-adv-x="222" 
 />
    <glyph glyph-name="A" unicode="A" horiz-adv-x="618" 
d="M477 0l-53 186h-230l-53 -186h-151l236 741h162l240 -741h-151zM227 303h164l-80 282h-4z" />
    <glyph glyph-name="Aacute" unicode="&#xc1;" horiz-adv-x="618" 
d="M477 0l-53 186h-230l-53 -186h-151l236 741h162l240 -741h-151zM227 303h164l-80 282h-4zM317 941h135l-98 -137h-93z" />
    <glyph glyph-name="Abreve" unicode="&#x102;" horiz-adv-x="618" 
d="M477 0l-53 186h-230l-53 -186h-151l236 741h162l240 -741h-151zM227 303h164l-80 282h-4zM193 833.5q-46 37.5 -50 107.5h88q4 -29 26.5 -44.5t51.5 -15.5q30 0 52.5 15.5t25.5 44.5h89q-5 -71 -50.5 -108t-116.5 -37q-70 0 -116 37.5z" />
    <glyph glyph-name="uni1EAE" unicode="&#x1eae;" horiz-adv-x="618" 
d="M477 0l-53 186h-230l-53 -186h-151l236 741h162l240 -741h-151zM227 303h164l-80 282h-4zM326 1040h136l-108 -105h-93zM191 825.5q-43 29.5 -48 82.5h88q4 -16 26 -24.5t52 -8.5t52.5 8.5t25.5 24.5h89q-6 -52 -50 -82t-117 -30q-75 0 -118 29.5z" />
    <glyph glyph-name="uni1EB6" unicode="&#x1eb6;" horiz-adv-x="618" 
d="M477 0l-53 186h-230l-53 -186h-151l236 741h162l240 -741h-151zM227 303h164l-80 282h-4zM193 833.5q-46 37.5 -50 107.5h88q4 -29 26.5 -44.5t51.5 -15.5q30 0 52.5 15.5t25.5 44.5h89q-5 -71 -50.5 -108t-116.5 -37q-70 0 -116 37.5zM254 -182q-23 23 -23 55t23 55
t55 23t55 -23t23 -55t-23 -55t-55 -23t-55 23z" />
    <glyph glyph-name="uni1EB0" unicode="&#x1eb0;" horiz-adv-x="618" 
d="M477 0l-53 186h-230l-53 -186h-151l236 741h162l240 -741h-151zM227 303h164l-80 282h-4zM157 1040h135l66 -105h-93zM191 825.5q-43 29.5 -48 82.5h88q4 -16 26 -24.5t52 -8.5t52.5 8.5t25.5 24.5h89q-6 -52 -50 -82t-117 -30q-75 0 -118 29.5z" />
    <glyph glyph-name="uni1EB2" unicode="&#x1eb2;" horiz-adv-x="618" 
d="M477 0l-53 186h-230l-53 -186h-151l236 741h162l240 -741h-151zM227 303h164l-80 282h-4zM290 959q0 12 -9 19t-26 7q-30 0 -62 -16l-15 68q38 19 95 19q55 0 84 -20t29 -56q0 -14 -11 -32.5t-29 -31.5h-84q28 21 28 43zM191 825.5q-43 29.5 -48 82.5h88q4 -16 26 -24.5
t52 -8.5t52.5 8.5t25.5 24.5h89q-6 -52 -50 -82t-117 -30q-75 0 -118 29.5z" />
    <glyph glyph-name="uni1EB4" unicode="&#x1eb4;" horiz-adv-x="618" 
d="M477 0l-53 186h-230l-53 -186h-151l236 741h162l240 -741h-151zM227 303h164l-80 282h-4zM248 1043q15 0 30 -5t42 -15q3 -1 21.5 -8.5t30.5 -7.5q27 0 54 38l43 -49q-42 -63 -99 -63q-15 0 -31 5.5t-40 15.5q-3 1 -21.5 8.5t-31.5 7.5q-26 0 -54 -39l-43 49q42 63 99 63
zM191 825.5q-43 29.5 -48 82.5h88q4 -16 26 -24.5t52 -8.5t52.5 8.5t25.5 24.5h89q-6 -52 -50 -82t-117 -30q-75 0 -118 29.5z" />
    <glyph glyph-name="Acircumflex" unicode="&#xc2;" horiz-adv-x="618" 
d="M477 0l-53 186h-230l-53 -186h-151l236 741h162l240 -741h-151zM227 303h164l-80 282h-4zM242 941h134l94 -137h-102l-59 80l-57 -80h-104z" />
    <glyph glyph-name="uni1EA4" unicode="&#x1ea4;" horiz-adv-x="618" 
d="M477 0l-53 186h-230l-53 -186h-151l236 741h162l240 -741h-151zM227 303h164l-80 282h-4zM330 1040h135l-108 -105h-93zM242 903h134l94 -99h-102l-59 51l-57 -51h-104z" />
    <glyph glyph-name="uni1EAC" unicode="&#x1eac;" horiz-adv-x="618" 
d="M477 0l-53 186h-230l-53 -186h-151l236 741h162l240 -741h-151zM227 303h164l-80 282h-4zM242 941h134l94 -137h-102l-59 80l-57 -80h-104zM254 -182q-23 23 -23 55t23 55t55 23t55 -23t23 -55t-23 -55t-55 -23t-55 23z" />
    <glyph glyph-name="uni1EA6" unicode="&#x1ea6;" horiz-adv-x="618" 
d="M477 0l-53 186h-230l-53 -186h-151l236 741h162l240 -741h-151zM227 303h164l-80 282h-4zM152 1040h136l65 -105h-93zM242 903h134l94 -99h-102l-59 51l-57 -51h-104z" />
    <glyph glyph-name="uni1EA8" unicode="&#x1ea8;" horiz-adv-x="618" 
d="M477 0l-53 186h-230l-53 -186h-151l236 741h162l240 -741h-151zM227 303h164l-80 282h-4zM438 959q0 12 -9 19t-26 7q-30 0 -62 -16l-15 68q38 19 95 19q55 0 84 -20t29 -56q0 -14 -11 -32.5t-29 -31.5h-84q28 22 28 43zM242 903h134l94 -99h-102l-59 51l-57 -51h-104z
" />
    <glyph glyph-name="uni1EAA" unicode="&#x1eaa;" horiz-adv-x="618" 
d="M477 0l-53 186h-230l-53 -186h-151l236 741h162l240 -741h-151zM227 303h164l-80 282h-4zM248 1043q15 0 31 -5t40 -15q38 -16 52 -16q28 0 55 38l43 -49q-42 -63 -99 -63q-15 0 -32 5.5t-40 15.5q-3 1 -21.5 8.5t-30.5 7.5q-25 0 -55 -39l-42 49q40 63 99 63zM242 903
h134l94 -99h-102l-59 51l-57 -51h-104z" />
    <glyph glyph-name="Adieresis" unicode="&#xc4;" horiz-adv-x="618" 
d="M477 0l-53 186h-230l-53 -186h-151l236 741h162l240 -741h-151zM227 303h164l-80 282h-4zM167 821q-21 21 -21 51t21 51.5t51 21.5t51.5 -21.5t21.5 -51.5t-21.5 -51t-51.5 -21t-51 21zM349.5 821q-21.5 21 -21.5 51t21.5 51.5t51.5 21.5t51 -21.5t21 -51.5t-21 -51
t-51 -21t-51.5 21z" />
    <glyph glyph-name="uni1EA0" unicode="&#x1ea0;" horiz-adv-x="618" 
d="M477 0l-53 186h-230l-53 -186h-151l236 741h162l240 -741h-151zM227 303h164l-80 282h-4zM254 -182q-23 23 -23 55t23 55t55 23t55 -23t23 -55t-23 -55t-55 -23t-55 23z" />
    <glyph glyph-name="Agrave" unicode="&#xc0;" horiz-adv-x="618" 
d="M477 0l-53 186h-230l-53 -186h-151l236 741h162l240 -741h-151zM227 303h164l-80 282h-4zM167 941h135l56 -137h-93z" />
    <glyph glyph-name="uni1EA2" unicode="&#x1ea2;" horiz-adv-x="618" 
d="M477 0l-53 186h-230l-53 -186h-151l236 741h162l240 -741h-151zM227 303h164l-80 282h-4zM291.5 832.5q8.5 11.5 8.5 22.5q0 12 -9 19t-26 7q-30 0 -62 -16l-15 68q17 9 42.5 14t52.5 5q55 0 84 -20t29 -56q0 -16 -12 -35t-38 -37h-85q22 17 30.5 28.5z" />
    <glyph glyph-name="Amacron" unicode="&#x100;" horiz-adv-x="618" 
d="M477 0l-53 186h-230l-53 -186h-151l236 741h162l240 -741h-151zM227 303h164l-80 282h-4zM143 941h333v-90h-333v90z" />
    <glyph glyph-name="Aogonek" unicode="&#x104;" horiz-adv-x="618" 
d="M517 -38q-28 -25 -28 -52q0 -14 11.5 -22.5t26.5 -8.5q29 0 59 20v-69q-32 -22 -76 -22q-46 0 -75.5 23t-29.5 64q0 66 71 107l-52 184h-230l-53 -186h-151l236 741h162l240 -741h-41q-42 -13 -70 -38zM227 303h164l-80 282h-4z" />
    <glyph glyph-name="Aring" unicode="&#xc5;" horiz-adv-x="618" 
d="M424 186h-230l-53 -186h-151l226 710q-27 30 -27 75q0 49 35 84t84 35t84 -35t35 -84q0 -45 -28 -76l229 -709h-151zM277 815.5q-13 -13.5 -13 -30.5q0 -18 13 -31t31 -13t31 13t13 31q0 17 -13 30.5t-31 13.5t-31 -13.5zM227 303h164l-80 282h-4z" />
    <glyph glyph-name="Atilde" unicode="&#xc3;" horiz-adv-x="618" 
d="M477 0l-53 186h-230l-53 -186h-151l236 741h162l240 -741h-151zM227 303h164l-80 282h-4zM251 959q14 0 28 -5t35 -14q14 -6 28 -11t25 -5q19 0 30.5 10t25.5 30l46 -51q-18 -31 -42.5 -53.5t-53.5 -22.5q-15 0 -31 5t-38 15q-38 17 -56 17q-20 0 -31.5 -10.5
t-25.5 -32.5l-42 54q47 74 102 74z" />
    <glyph glyph-name="AE" unicode="&#xc6;" horiz-adv-x="973" 
d="M613 126h321v-126h-469v186h-225l-96 -186h-161l412 741h521v-126h-303v-177h250v-126h-250v-186zM300 303h165v312h-4z" />
    <glyph glyph-name="B" unicode="B" horiz-adv-x="657" 
d="M304 741q169 0 235 -52.5t66 -151.5q0 -101 -94 -153q51 -25 79.5 -70t28.5 -101q0 -62 -31.5 -110.5t-86 -75.5t-121.5 -27h-290v741h214zM414.5 457.5q37.5 17.5 37.5 72.5q0 57 -38.5 75.5t-110.5 18.5h-64v-184h66q72 0 109.5 17.5zM435.5 140.5q30.5 23.5 30.5 83.5
q0 59 -38 81.5t-116 22.5h-73v-211h96q70 0 100.5 23.5z" />
    <glyph glyph-name="C" unicode="C" horiz-adv-x="636" 
d="M170 40q-69 55 -102.5 143t-33.5 186t33.5 185.5t102.5 142.5t170 55q106 0 176.5 -54.5t95.5 -155.5l-135 -68q-4 70 -39 115.5t-98 45.5q-59 0 -93.5 -43.5t-47.5 -103.5t-13 -119q0 -99 34.5 -183t119.5 -84q62 0 97.5 46.5t39.5 116.5l134 -72q-24 -98 -95 -153
t-176 -55q-101 0 -170 55z" />
    <glyph glyph-name="Cacute" unicode="&#x106;" horiz-adv-x="636" 
d="M170 40q-69 55 -102.5 143t-33.5 186t33.5 185.5t102.5 142.5t170 55q106 0 176.5 -54.5t95.5 -155.5l-135 -68q-4 70 -39 115.5t-98 45.5q-59 0 -93.5 -43.5t-47.5 -103.5t-13 -119q0 -99 34.5 -183t119.5 -84q62 0 97.5 46.5t39.5 116.5l134 -72q-24 -98 -95 -153
t-176 -55q-101 0 -170 55zM348 941h135l-98 -137h-93z" />
    <glyph glyph-name="Ccaron" unicode="&#x10c;" horiz-adv-x="636" 
d="M170 40q-69 55 -102.5 143t-33.5 186t33.5 185.5t102.5 142.5t170 55q106 0 176.5 -54.5t95.5 -155.5l-135 -68q-4 70 -39 115.5t-98 45.5q-59 0 -93.5 -43.5t-47.5 -103.5t-13 -119q0 -99 34.5 -183t119.5 -84q62 0 97.5 46.5t39.5 116.5l134 -72q-24 -98 -95 -153
t-176 -55q-101 0 -170 55zM179 941h104l57 -80l59 80h102l-94 -137h-134z" />
    <glyph glyph-name="Ccedilla" unicode="&#xc7;" horiz-adv-x="636" 
d="M437.5 148.5q35.5 46.5 39.5 116.5l134 -72q-22 -89 -82 -142.5t-150 -63.5l-18 -33q39 -10 61 -29.5t22 -53.5q0 -46 -36 -74.5t-82 -28.5q-26 0 -51.5 5t-38.5 14l15 68q4 -1 22.5 -8.5t37.5 -7.5q43 0 43 31q0 35 -71 35q-19 0 -30 -1l47 84q-88 11 -148 67.5t-89 139
t-29 174.5q0 98 33.5 185.5t102.5 142.5t170 55q106 0 176.5 -54.5t95.5 -155.5l-135 -68q-4 70 -39 115.5t-98 45.5q-59 0 -93.5 -43.5t-47.5 -103.5t-13 -119q0 -99 34.5 -183t119.5 -84q62 0 97.5 46.5z" />
    <glyph glyph-name="Ccircumflex" unicode="&#x108;" horiz-adv-x="636" 
d="M170 40q-69 55 -102.5 143t-33.5 186t33.5 185.5t102.5 142.5t170 55q106 0 176.5 -54.5t95.5 -155.5l-135 -68q-4 70 -39 115.5t-98 45.5q-59 0 -93.5 -43.5t-47.5 -103.5t-13 -119q0 -99 34.5 -183t119.5 -84q62 0 97.5 46.5t39.5 116.5l134 -72q-24 -98 -95 -153
t-176 -55q-101 0 -170 55zM273 941h134l94 -137h-102l-59 80l-57 -80h-104z" />
    <glyph glyph-name="Cdotaccent" unicode="&#x10a;" horiz-adv-x="636" 
d="M170 40q-69 55 -102.5 143t-33.5 186t33.5 185.5t102.5 142.5t170 55q106 0 176.5 -54.5t95.5 -155.5l-135 -68q-4 70 -39 115.5t-98 45.5q-59 0 -93.5 -43.5t-47.5 -103.5t-13 -119q0 -99 34.5 -183t119.5 -84q62 0 97.5 46.5t39.5 116.5l134 -72q-24 -98 -95 -153
t-176 -55q-101 0 -170 55zM285 817q-23 23 -23 55t23 55t55 23t55 -23t23 -55t-23 -55t-55 -23t-55 23z" />
    <glyph glyph-name="D" unicode="D" horiz-adv-x="687" 
d="M291 741q187 0 274.5 -100.5t87.5 -270.5q0 -106 -37 -190t-111.5 -132t-181.5 -48h-233v741h201zM452 189q49 63 49 199q0 116 -50.5 171.5t-155.5 55.5h-56v-489h72q92 0 141 63z" />
    <glyph glyph-name="Eth" unicode="&#xd0;" horiz-adv-x="687" 
d="M565.5 640.5q87.5 -100.5 87.5 -270.5q0 -106 -37 -190t-111.5 -132t-181.5 -48h-233v330h-76v100h76v311h201q187 0 274.5 -100.5zM452 189q49 63 49 199q0 116 -50.5 171.5t-155.5 55.5h-56v-185h108v-100h-108v-204h72q92 0 141 63z" />
    <glyph glyph-name="Dcaron" unicode="&#x10e;" horiz-adv-x="687" 
d="M291 741q187 0 274.5 -100.5t87.5 -270.5q0 -106 -37 -190t-111.5 -132t-181.5 -48h-233v741h201zM452 189q49 63 49 199q0 116 -50.5 171.5t-155.5 55.5h-56v-489h72q92 0 141 63zM182 941h104l57 -80l59 80h102l-94 -137h-134z" />
    <glyph glyph-name="Dcroat" unicode="&#x110;" horiz-adv-x="687" 
d="M565.5 640.5q87.5 -100.5 87.5 -270.5q0 -106 -37 -190t-111.5 -132t-181.5 -48h-233v330h-76v100h76v311h201q187 0 274.5 -100.5zM452 189q49 63 49 199q0 116 -50.5 171.5t-155.5 55.5h-56v-185h108v-100h-108v-204h72q92 0 141 63z" />
    <glyph glyph-name="E" unicode="E" horiz-adv-x="608" 
d="M90 741h461v-126h-312v-177h259v-126h-259v-186h330v-126h-479v741z" />
    <glyph glyph-name="Eacute" unicode="&#xc9;" horiz-adv-x="608" 
d="M90 741h461v-126h-312v-177h259v-126h-259v-186h330v-126h-479v741zM329 941h135l-98 -137h-93z" />
    <glyph glyph-name="Ebreve" unicode="&#x114;" horiz-adv-x="608" 
d="M90 741h461v-126h-312v-177h259v-126h-259v-186h330v-126h-479v741zM205 833.5q-46 37.5 -50 107.5h88q4 -29 26.5 -44.5t51.5 -15.5q30 0 52.5 15.5t25.5 44.5h89q-5 -71 -50.5 -108t-116.5 -37q-70 0 -116 37.5z" />
    <glyph glyph-name="Ecaron" unicode="&#x11a;" horiz-adv-x="608" 
d="M90 741h461v-126h-312v-177h259v-126h-259v-186h330v-126h-479v741zM160 941h104l57 -80l59 80h102l-94 -137h-134z" />
    <glyph glyph-name="Ecircumflex" unicode="&#xca;" horiz-adv-x="608" 
d="M90 741h461v-126h-312v-177h259v-126h-259v-186h330v-126h-479v741zM254 941h134l94 -137h-102l-59 80l-57 -80h-104z" />
    <glyph glyph-name="uni1EBE" unicode="&#x1ebe;" horiz-adv-x="608" 
d="M90 741h461v-126h-312v-177h259v-126h-259v-186h330v-126h-479v741zM342 1040h135l-108 -105h-93zM254 903h134l94 -99h-102l-59 51l-57 -51h-104z" />
    <glyph glyph-name="uni1EC6" unicode="&#x1ec6;" horiz-adv-x="608" 
d="M90 741h461v-126h-312v-177h259v-126h-259v-186h330v-126h-479v741zM254 941h134l94 -137h-102l-59 80l-57 -80h-104zM274 -182q-23 23 -23 55t23 55t55 23t55 -23t23 -55t-23 -55t-55 -23t-55 23z" />
    <glyph glyph-name="uni1EC0" unicode="&#x1ec0;" horiz-adv-x="608" 
d="M90 741h461v-126h-312v-177h259v-126h-259v-186h330v-126h-479v741zM164 1040h136l65 -105h-93zM254 903h134l94 -99h-102l-59 51l-57 -51h-104z" />
    <glyph glyph-name="uni1EC2" unicode="&#x1ec2;" horiz-adv-x="608" 
d="M90 741h461v-126h-312v-177h259v-126h-259v-186h330v-126h-479v741zM450 959q0 12 -9 19t-26 7q-30 0 -62 -16l-15 68q38 19 95 19q55 0 84 -20t29 -56q0 -14 -11 -32.5t-29 -31.5h-84q28 22 28 43zM254 903h134l94 -99h-102l-59 51l-57 -51h-104z" />
    <glyph glyph-name="uni1EC4" unicode="&#x1ec4;" horiz-adv-x="608" 
d="M90 741h461v-126h-312v-177h259v-126h-259v-186h330v-126h-479v741zM260 1043q15 0 31 -5t40 -15q38 -16 52 -16q28 0 55 38l43 -49q-42 -63 -99 -63q-15 0 -32 5.5t-40 15.5q-3 1 -21.5 8.5t-30.5 7.5q-25 0 -55 -39l-42 49q40 63 99 63zM254 903h134l94 -99h-102
l-59 51l-57 -51h-104z" />
    <glyph glyph-name="Edieresis" unicode="&#xcb;" horiz-adv-x="608" 
d="M90 741h461v-126h-312v-177h259v-126h-259v-186h330v-126h-479v741zM179 821q-21 21 -21 51t21 51.5t51 21.5t51.5 -21.5t21.5 -51.5t-21.5 -51t-51.5 -21t-51 21zM361.5 821q-21.5 21 -21.5 51t21.5 51.5t51.5 21.5t51 -21.5t21 -51.5t-21 -51t-51 -21t-51.5 21z" />
    <glyph glyph-name="Edotaccent" unicode="&#x116;" horiz-adv-x="608" 
d="M90 741h461v-126h-312v-177h259v-126h-259v-186h330v-126h-479v741zM266 817q-23 23 -23 55t23 55t55 23t55 -23t23 -55t-23 -55t-55 -23t-55 23z" />
    <glyph glyph-name="uni1EB8" unicode="&#x1eb8;" horiz-adv-x="608" 
d="M90 741h461v-126h-312v-177h259v-126h-259v-186h330v-126h-479v741zM274 -182q-23 23 -23 55t23 55t55 23t55 -23t23 -55t-23 -55t-55 -23t-55 23z" />
    <glyph glyph-name="Egrave" unicode="&#xc8;" horiz-adv-x="608" 
d="M90 741h461v-126h-312v-177h259v-126h-259v-186h330v-126h-479v741zM179 941h135l56 -137h-93z" />
    <glyph glyph-name="uni1EBA" unicode="&#x1eba;" horiz-adv-x="608" 
d="M90 741h461v-126h-312v-177h259v-126h-259v-186h330v-126h-479v741zM303.5 832.5q8.5 11.5 8.5 22.5q0 12 -9 19t-26 7q-30 0 -62 -16l-15 68q17 9 42.5 14t52.5 5q55 0 84 -20t29 -56q0 -16 -12 -35t-38 -37h-85q22 17 30.5 28.5z" />
    <glyph glyph-name="Emacron" unicode="&#x112;" horiz-adv-x="608" 
d="M90 741h461v-126h-312v-177h259v-126h-259v-186h330v-126h-479v741zM155 941h333v-90h-333v90z" />
    <glyph glyph-name="Eogonek" unicode="&#x118;" horiz-adv-x="608" 
d="M499 -38q-28 -25 -28 -52q0 -14 11.5 -22.5t26.5 -8.5q29 0 59 20v-69q-32 -22 -76 -22q-46 0 -75.5 23t-29.5 64q0 64 68 105h-365v741h461v-126h-312v-177h259v-126h-259v-186h330v-126q-42 -13 -70 -38z" />
    <glyph glyph-name="uni1EBC" unicode="&#x1ebc;" horiz-adv-x="608" 
d="M90 741h461v-126h-312v-177h259v-126h-259v-186h330v-126h-479v741zM263 959q14 0 28 -5t35 -14q14 -6 28 -11t25 -5q19 0 30.5 10t25.5 30l46 -51q-18 -31 -42.5 -53.5t-53.5 -22.5q-15 0 -31 5t-38 15q-38 17 -56 17q-20 0 -31.5 -10.5t-25.5 -32.5l-42 54
q47 74 102 74z" />
    <glyph glyph-name="F" unicode="F" horiz-adv-x="570" 
d="M90 741h461v-126h-312v-177h241v-126h-241v-312h-149v741z" />
    <glyph glyph-name="G" unicode="G" horiz-adv-x="653" 
d="M170 43.5q-69 54.5 -102.5 141.5t-33.5 185q0 99 34 186t103.5 141.5t172.5 54.5q108 0 175.5 -53t88.5 -148l-128 -59q-8 64 -39.5 103.5t-100.5 39.5q-85 0 -119.5 -83t-34.5 -182q0 -98 34.5 -181t119.5 -83q73 0 102 34.5t29 100.5v14h-130v117h272v-372h-104l-13 59
q-24 -37 -65.5 -53.5t-90.5 -16.5q-101 0 -170 54.5z" />
    <glyph glyph-name="Gbreve" unicode="&#x11e;" horiz-adv-x="653" 
d="M170 43.5q-69 54.5 -102.5 141.5t-33.5 185q0 99 34 186t103.5 141.5t172.5 54.5q108 0 175.5 -53t88.5 -148l-128 -59q-8 64 -39.5 103.5t-100.5 39.5q-85 0 -119.5 -83t-34.5 -182q0 -98 34.5 -181t119.5 -83q73 0 102 34.5t29 100.5v14h-130v117h272v-372h-104l-13 59
q-24 -37 -65.5 -53.5t-90.5 -16.5q-101 0 -170 54.5zM229 833.5q-46 37.5 -50 107.5h88q4 -29 26.5 -44.5t51.5 -15.5q30 0 52.5 15.5t25.5 44.5h89q-5 -71 -50.5 -108t-116.5 -37q-70 0 -116 37.5z" />
    <glyph glyph-name="Gcircumflex" unicode="&#x11c;" horiz-adv-x="653" 
d="M170 43.5q-69 54.5 -102.5 141.5t-33.5 185q0 99 34 186t103.5 141.5t172.5 54.5q108 0 175.5 -53t88.5 -148l-128 -59q-8 64 -39.5 103.5t-100.5 39.5q-85 0 -119.5 -83t-34.5 -182q0 -98 34.5 -181t119.5 -83q73 0 102 34.5t29 100.5v14h-130v117h272v-372h-104l-13 59
q-24 -37 -65.5 -53.5t-90.5 -16.5q-101 0 -170 54.5zM278 941h134l94 -137h-102l-59 80l-57 -80h-104z" />
    <glyph glyph-name="uni0122" unicode="&#x122;" horiz-adv-x="653" 
d="M170 43.5q-69 54.5 -102.5 141.5t-33.5 185q0 99 34 186t103.5 141.5t172.5 54.5q108 0 175.5 -53t88.5 -148l-128 -59q-8 64 -39.5 103.5t-100.5 39.5q-85 0 -119.5 -83t-34.5 -182q0 -98 34.5 -181t119.5 -83q73 0 102 34.5t29 100.5v14h-130v117h272v-372h-104l-13 59
q-24 -37 -65.5 -53.5t-90.5 -16.5q-101 0 -170 54.5zM277 -58h135l-98 -137h-93z" />
    <glyph glyph-name="Gdotaccent" unicode="&#x120;" horiz-adv-x="653" 
d="M170 43.5q-69 54.5 -102.5 141.5t-33.5 185q0 99 34 186t103.5 141.5t172.5 54.5q108 0 175.5 -53t88.5 -148l-128 -59q-8 64 -39.5 103.5t-100.5 39.5q-85 0 -119.5 -83t-34.5 -182q0 -98 34.5 -181t119.5 -83q73 0 102 34.5t29 100.5v14h-130v117h272v-372h-104l-13 59
q-24 -37 -65.5 -53.5t-90.5 -16.5q-101 0 -170 54.5zM290 817q-23 23 -23 55t23 55t55 23t55 -23t23 -55t-23 -55t-55 -23t-55 23z" />
    <glyph glyph-name="H" unicode="H" horiz-adv-x="722" 
d="M90 741h149v-290h245v290h148v-741h-148v326h-245v-326h-149v741z" />
    <glyph glyph-name="Hbar" unicode="&#x126;" horiz-adv-x="722" 
d="M708 648v-99h-76v-549h-148v326h-245v-326h-149v549h-76v99h76v93h149v-93h245v93h148v-93h76zM484 451v98h-245v-98h245z" />
    <glyph glyph-name="Hcircumflex" unicode="&#x124;" horiz-adv-x="722" 
d="M90 741h149v-290h245v290h148v-741h-148v326h-245v-326h-149v741zM295 941h134l94 -137h-102l-59 80l-57 -80h-104z" />
    <glyph glyph-name="I" unicode="I" horiz-adv-x="329" 
d="M90 741h149v-741h-149v741z" />
    <glyph glyph-name="IJ" unicode="&#x132;" horiz-adv-x="850" 
d="M90 741h149v-741h-149v741zM392.5 34.5q-51.5 45.5 -47.5 138.5l134 56q-1 -9 -1 -26q0 -44 18 -70.5t51 -26.5q31 0 50.5 24.5t19.5 70.5v540h148v-512q0 -136 -62 -188t-160 -52q-99 0 -150.5 45.5z" />
    <glyph glyph-name="Iacute" unicode="&#xcd;" horiz-adv-x="329" 
d="M90 741h149v-741h-149v741zM173 941h135l-98 -137h-93z" />
    <glyph glyph-name="Ibreve" unicode="&#x12c;" horiz-adv-x="329" 
d="M90 741h149v-741h-149v741zM49 833.5q-46 37.5 -50 107.5h88q4 -29 26.5 -44.5t51.5 -15.5q30 0 52.5 15.5t25.5 44.5h89q-5 -71 -50.5 -108t-116.5 -37q-70 0 -116 37.5z" />
    <glyph glyph-name="Icircumflex" unicode="&#xce;" horiz-adv-x="329" 
d="M90 741h149v-741h-149v741zM98 941h134l94 -137h-102l-59 80l-57 -80h-104z" />
    <glyph glyph-name="Idieresis" unicode="&#xcf;" horiz-adv-x="329" 
d="M90 741h149v-741h-149v741zM23 821q-21 21 -21 51t21 51.5t51 21.5t51.5 -21.5t21.5 -51.5t-21.5 -51t-51.5 -21t-51 21zM205.5 821q-21.5 21 -21.5 51t21.5 51.5t51.5 21.5t51 -21.5t21 -51.5t-21 -51t-51 -21t-51.5 21z" />
    <glyph glyph-name="Idotaccent" unicode="&#x130;" horiz-adv-x="329" 
d="M90 741h149v-741h-149v741zM110 817q-23 23 -23 55t23 55t55 23t55 -23t23 -55t-23 -55t-55 -23t-55 23z" />
    <glyph glyph-name="uni1ECA" unicode="&#x1eca;" horiz-adv-x="329" 
d="M90 741h149v-741h-149v741zM110 -182q-23 23 -23 55t23 55t55 23t55 -23t23 -55t-23 -55t-55 -23t-55 23z" />
    <glyph glyph-name="Igrave" unicode="&#xcc;" horiz-adv-x="329" 
d="M90 741h149v-741h-149v741zM23 941h135l56 -137h-93z" />
    <glyph glyph-name="uni1EC8" unicode="&#x1ec8;" horiz-adv-x="329" 
d="M90 741h149v-741h-149v741zM147.5 832.5q8.5 11.5 8.5 22.5q0 12 -9 19t-26 7q-30 0 -62 -16l-15 68q17 9 42.5 14t52.5 5q55 0 84 -20t29 -56q0 -16 -12 -35t-38 -37h-85q22 17 30.5 28.5z" />
    <glyph glyph-name="Imacron" unicode="&#x12a;" horiz-adv-x="329" 
d="M90 741h149v-741h-149v741zM-1 941h333v-90h-333v90z" />
    <glyph glyph-name="Iogonek" unicode="&#x12e;" horiz-adv-x="329" 
d="M239 741v-741h-38q-42 -13 -70 -38t-28 -52q0 -14 11.5 -22.5t26.5 -8.5q29 0 59 20v-69q-32 -22 -76 -22q-46 0 -75.5 23t-29.5 64q0 65 71 107v739h149z" />
    <glyph glyph-name="Itilde" unicode="&#x128;" horiz-adv-x="329" 
d="M90 741h149v-741h-149v741zM107 959q14 0 28 -5t35 -14q14 -6 28 -11t25 -5q19 0 30.5 10t25.5 30l46 -51q-18 -31 -42.5 -53.5t-53.5 -22.5q-15 0 -31 5t-38 15q-38 17 -56 17q-20 0 -31.5 -10.5t-25.5 -32.5l-42 54q47 74 102 74z" />
    <glyph glyph-name="J" unicode="J" horiz-adv-x="521" 
d="M63.5 34.5q-51.5 45.5 -47.5 138.5l134 56q-1 -9 -1 -26q0 -44 18 -70.5t51 -26.5q31 0 50.5 24.5t19.5 70.5v540h148v-512q0 -136 -62 -188t-160 -52q-99 0 -150.5 45.5z" />
    <glyph glyph-name="Jcircumflex" unicode="&#x134;" horiz-adv-x="521" 
d="M63.5 34.5q-51.5 45.5 -47.5 138.5l134 56q-1 -9 -1 -26q0 -44 18 -70.5t51 -26.5q31 0 50.5 24.5t19.5 70.5v540h148v-512q0 -136 -62 -188t-160 -52q-99 0 -150.5 45.5zM296 941h134l94 -137h-102l-59 80l-57 -80h-104z" />
    <glyph glyph-name="K" unicode="K" horiz-adv-x="668" 
d="M665 0h-170l-180 330l-76 -100v-230h-149v741h149v-310l226 310h172l-221 -290z" />
    <glyph glyph-name="uni0136" unicode="&#x136;" horiz-adv-x="668" 
d="M665 0h-170l-180 330l-76 -100v-230h-149v741h149v-310l226 310h172l-221 -290zM306 -58h135l-98 -137h-93z" />
    <glyph glyph-name="L" unicode="L" horiz-adv-x="566" 
d="M90 741h149v-615h308v-126h-457v741z" />
    <glyph glyph-name="Lacute" unicode="&#x139;" horiz-adv-x="566" 
d="M90 741h149v-615h308v-126h-457v741zM173 941h135l-98 -137h-93z" />
    <glyph glyph-name="Lcaron" unicode="&#x13d;" horiz-adv-x="566" 
d="M90 741h149v-615h308v-126h-457v741zM306 779h126l-34 -194h-101z" />
    <glyph glyph-name="uni013B" unicode="&#x13b;" horiz-adv-x="566" 
d="M90 741h149v-615h308v-126h-457v741zM264 -58h135l-98 -137h-93z" />
    <glyph glyph-name="Ldot" unicode="&#x13f;" horiz-adv-x="574" 
d="M90 741h149v-615h308v-126h-457v741zM387.5 335.5q-25.5 25.5 -25.5 60.5t25.5 60.5t60.5 25.5t60 -25.5t25 -60.5t-25.5 -60.5t-59.5 -25.5q-35 0 -60.5 25.5z" />
    <glyph glyph-name="Lslash" unicode="&#x141;" horiz-adv-x="566" 
d="M239 126h308v-126h-457v294l-57 -28l-36 75l93 45v355h149v-282l100 49l36 -76l-136 -66v-240z" />
    <glyph glyph-name="M" unicode="M" horiz-adv-x="889" 
d="M90 741h170l185 -303h2l186 303h166v-741h-149v520h-2l-203 -331l-204 331h-2v-520h-149v741z" />
    <glyph glyph-name="N" unicode="N" horiz-adv-x="770" 
d="M90 741h167l275 -491h2v491h146v-741h-156l-286 510h-2v-510h-146v741z" />
    <glyph glyph-name="Nacute" unicode="&#x143;" horiz-adv-x="770" 
d="M90 741h167l275 -491h2v491h146v-741h-156l-286 510h-2v-510h-146v741zM393 941h135l-98 -137h-93z" />
    <glyph glyph-name="Ncaron" unicode="&#x147;" horiz-adv-x="770" 
d="M90 741h167l275 -491h2v491h146v-741h-156l-286 510h-2v-510h-146v741zM224 941h104l57 -80l59 80h102l-94 -137h-134z" />
    <glyph glyph-name="uni0145" unicode="&#x145;" horiz-adv-x="770" 
d="M90 741h167l275 -491h2v491h146v-741h-156l-286 510h-2v-510h-146v741zM319 -58h135l-98 -137h-93z" />
    <glyph glyph-name="Eng" unicode="&#x14a;" horiz-adv-x="770" 
d="M360 -158.5q-44 23.5 -67 64.5l89 83q13 -24 33.5 -39t46.5 -15q24 0 41 16.5t22 48.5l-287 510h-2v-510h-146v741h167l275 -489h2v489h146v-683q0 -240 -222 -240q-54 0 -98 23.5z" />
    <glyph glyph-name="Ntilde" unicode="&#xd1;" horiz-adv-x="770" 
d="M90 741h167l275 -491h2v491h146v-741h-156l-286 510h-2v-510h-146v741zM327 959q14 0 28 -5t35 -14q14 -6 28 -11t25 -5q19 0 30.5 10t25.5 30l46 -51q-18 -31 -42.5 -53.5t-53.5 -22.5q-15 0 -31 5t-38 15q-38 17 -56 17q-20 0 -31.5 -10.5t-25.5 -32.5l-42 54
q47 74 102 74z" />
    <glyph glyph-name="O" unicode="O" horiz-adv-x="679" 
d="M170 40q-69 55 -102.5 143t-33.5 186t33.5 185.5t102.5 142.5t170 55q100 0 169 -55t102.5 -142.5t33.5 -185.5t-33.5 -186t-102.5 -143t-169 -55q-101 0 -170 55zM458.5 186q34.5 84 34.5 183q0 58 -13 118.5t-47 104t-93 43.5t-93.5 -43.5t-47.5 -103.5t-13 -119
q0 -99 34.5 -183t119.5 -84q84 0 118.5 84z" />
    <glyph glyph-name="Oacute" unicode="&#xd3;" horiz-adv-x="679" 
d="M170 40q-69 55 -102.5 143t-33.5 186t33.5 185.5t102.5 142.5t170 55q100 0 169 -55t102.5 -142.5t33.5 -185.5t-33.5 -186t-102.5 -143t-169 -55q-101 0 -170 55zM458.5 186q34.5 84 34.5 183q0 58 -13 118.5t-47 104t-93 43.5t-93.5 -43.5t-47.5 -103.5t-13 -119
q0 -99 34.5 -183t119.5 -84q84 0 118.5 84zM348 941h135l-98 -137h-93z" />
    <glyph glyph-name="Obreve" unicode="&#x14e;" horiz-adv-x="679" 
d="M170 40q-69 55 -102.5 143t-33.5 186t33.5 185.5t102.5 142.5t170 55q100 0 169 -55t102.5 -142.5t33.5 -185.5t-33.5 -186t-102.5 -143t-169 -55q-101 0 -170 55zM458.5 186q34.5 84 34.5 183q0 58 -13 118.5t-47 104t-93 43.5t-93.5 -43.5t-47.5 -103.5t-13 -119
q0 -99 34.5 -183t119.5 -84q84 0 118.5 84zM224 833.5q-46 37.5 -50 107.5h88q4 -29 26.5 -44.5t51.5 -15.5q30 0 52.5 15.5t25.5 44.5h89q-5 -71 -50.5 -108t-116.5 -37q-70 0 -116 37.5z" />
    <glyph glyph-name="Ocircumflex" unicode="&#xd4;" horiz-adv-x="679" 
d="M170 40q-69 55 -102.5 143t-33.5 186t33.5 185.5t102.5 142.5t170 55q100 0 169 -55t102.5 -142.5t33.5 -185.5t-33.5 -186t-102.5 -143t-169 -55q-101 0 -170 55zM458.5 186q34.5 84 34.5 183q0 58 -13 118.5t-47 104t-93 43.5t-93.5 -43.5t-47.5 -103.5t-13 -119
q0 -99 34.5 -183t119.5 -84q84 0 118.5 84zM273 941h134l94 -137h-102l-59 80l-57 -80h-104z" />
    <glyph glyph-name="uni1ED0" unicode="&#x1ed0;" horiz-adv-x="679" 
d="M170 40q-69 55 -102.5 143t-33.5 186t33.5 185.5t102.5 142.5t170 55q100 0 169 -55t102.5 -142.5t33.5 -185.5t-33.5 -186t-102.5 -143t-169 -55q-101 0 -170 55zM458.5 186q34.5 84 34.5 183q0 58 -13 118.5t-47 104t-93 43.5t-93.5 -43.5t-47.5 -103.5t-13 -119
q0 -99 34.5 -183t119.5 -84q84 0 118.5 84zM361 1040h135l-108 -105h-93zM273 903h134l94 -99h-102l-59 51l-57 -51h-104z" />
    <glyph glyph-name="uni1ED8" unicode="&#x1ed8;" horiz-adv-x="679" 
d="M170 40q-69 55 -102.5 143t-33.5 186t33.5 185.5t102.5 142.5t170 55q100 0 169 -55t102.5 -142.5t33.5 -185.5t-33.5 -186t-102.5 -143t-169 -55q-101 0 -170 55zM458.5 186q34.5 84 34.5 183q0 58 -13 118.5t-47 104t-93 43.5t-93.5 -43.5t-47.5 -103.5t-13 -119
q0 -99 34.5 -183t119.5 -84q84 0 118.5 84zM273 941h134l94 -137h-102l-59 80l-57 -80h-104zM285 -182q-23 23 -23 55t23 55t55 23t55 -23t23 -55t-23 -55t-55 -23t-55 23z" />
    <glyph glyph-name="uni1ED2" unicode="&#x1ed2;" horiz-adv-x="679" 
d="M170 40q-69 55 -102.5 143t-33.5 186t33.5 185.5t102.5 142.5t170 55q100 0 169 -55t102.5 -142.5t33.5 -185.5t-33.5 -186t-102.5 -143t-169 -55q-101 0 -170 55zM458.5 186q34.5 84 34.5 183q0 58 -13 118.5t-47 104t-93 43.5t-93.5 -43.5t-47.5 -103.5t-13 -119
q0 -99 34.5 -183t119.5 -84q84 0 118.5 84zM183 1040h136l65 -105h-93zM273 903h134l94 -99h-102l-59 51l-57 -51h-104z" />
    <glyph glyph-name="uni1ED4" unicode="&#x1ed4;" horiz-adv-x="679" 
d="M170 40q-69 55 -102.5 143t-33.5 186t33.5 185.5t102.5 142.5t170 55q100 0 169 -55t102.5 -142.5t33.5 -185.5t-33.5 -186t-102.5 -143t-169 -55q-101 0 -170 55zM458.5 186q34.5 84 34.5 183q0 58 -13 118.5t-47 104t-93 43.5t-93.5 -43.5t-47.5 -103.5t-13 -119
q0 -99 34.5 -183t119.5 -84q84 0 118.5 84zM469 959q0 12 -9 19t-26 7q-30 0 -62 -16l-15 68q38 19 95 19q55 0 84 -20t29 -56q0 -14 -11 -32.5t-29 -31.5h-84q28 22 28 43zM273 903h134l94 -99h-102l-59 51l-57 -51h-104z" />
    <glyph glyph-name="uni1ED6" unicode="&#x1ed6;" horiz-adv-x="679" 
d="M170 40q-69 55 -102.5 143t-33.5 186t33.5 185.5t102.5 142.5t170 55q100 0 169 -55t102.5 -142.5t33.5 -185.5t-33.5 -186t-102.5 -143t-169 -55q-101 0 -170 55zM458.5 186q34.5 84 34.5 183q0 58 -13 118.5t-47 104t-93 43.5t-93.5 -43.5t-47.5 -103.5t-13 -119
q0 -99 34.5 -183t119.5 -84q84 0 118.5 84zM279 1043q15 0 31 -5t40 -15q38 -16 52 -16q28 0 55 38l43 -49q-42 -63 -99 -63q-15 0 -32 5.5t-40 15.5q-3 1 -21.5 8.5t-30.5 7.5q-25 0 -55 -39l-42 49q40 63 99 63zM273 903h134l94 -99h-102l-59 51l-57 -51h-104z" />
    <glyph glyph-name="Odieresis" unicode="&#xd6;" horiz-adv-x="679" 
d="M170 40q-69 55 -102.5 143t-33.5 186t33.5 185.5t102.5 142.5t170 55q100 0 169 -55t102.5 -142.5t33.5 -185.5t-33.5 -186t-102.5 -143t-169 -55q-101 0 -170 55zM458.5 186q34.5 84 34.5 183q0 58 -13 118.5t-47 104t-93 43.5t-93.5 -43.5t-47.5 -103.5t-13 -119
q0 -99 34.5 -183t119.5 -84q84 0 118.5 84zM198 821q-21 21 -21 51t21 51.5t51 21.5t51.5 -21.5t21.5 -51.5t-21.5 -51t-51.5 -21t-51 21zM380.5 821q-21.5 21 -21.5 51t21.5 51.5t51.5 21.5t51 -21.5t21 -51.5t-21 -51t-51 -21t-51.5 21z" />
    <glyph glyph-name="uni1ECC" unicode="&#x1ecc;" horiz-adv-x="679" 
d="M170 40q-69 55 -102.5 143t-33.5 186t33.5 185.5t102.5 142.5t170 55q100 0 169 -55t102.5 -142.5t33.5 -185.5t-33.5 -186t-102.5 -143t-169 -55q-101 0 -170 55zM458.5 186q34.5 84 34.5 183q0 58 -13 118.5t-47 104t-93 43.5t-93.5 -43.5t-47.5 -103.5t-13 -119
q0 -99 34.5 -183t119.5 -84q84 0 118.5 84zM285 -182q-23 23 -23 55t23 55t55 23t55 -23t23 -55t-23 -55t-55 -23t-55 23z" />
    <glyph glyph-name="Ograve" unicode="&#xd2;" horiz-adv-x="679" 
d="M170 40q-69 55 -102.5 143t-33.5 186t33.5 185.5t102.5 142.5t170 55q100 0 169 -55t102.5 -142.5t33.5 -185.5t-33.5 -186t-102.5 -143t-169 -55q-101 0 -170 55zM458.5 186q34.5 84 34.5 183q0 58 -13 118.5t-47 104t-93 43.5t-93.5 -43.5t-47.5 -103.5t-13 -119
q0 -99 34.5 -183t119.5 -84q84 0 118.5 84zM198 941h135l56 -137h-93z" />
    <glyph glyph-name="uni1ECE" unicode="&#x1ece;" horiz-adv-x="679" 
d="M170 40q-69 55 -102.5 143t-33.5 186t33.5 185.5t102.5 142.5t170 55q100 0 169 -55t102.5 -142.5t33.5 -185.5t-33.5 -186t-102.5 -143t-169 -55q-101 0 -170 55zM458.5 186q34.5 84 34.5 183q0 58 -13 118.5t-47 104t-93 43.5t-93.5 -43.5t-47.5 -103.5t-13 -119
q0 -99 34.5 -183t119.5 -84q84 0 118.5 84zM322.5 832.5q8.5 11.5 8.5 22.5q0 12 -9 19t-26 7q-30 0 -62 -16l-15 68q17 9 42.5 14t52.5 5q55 0 84 -20t29 -56q0 -16 -12 -35t-38 -37h-85q22 17 30.5 28.5z" />
    <glyph glyph-name="Ohorn" unicode="&#x1a0;" horiz-adv-x="679" 
d="M627.5 700.5q-22.5 -36.5 -72.5 -48.5q44 -55 67 -129t23 -154q0 -98 -33.5 -186t-102.5 -143t-169 -55q-101 0 -170 55t-102.5 143t-33.5 186t33.5 185.5t102.5 142.5t170 55q29 0 77 -6q37 -5 63 -5q27 0 39.5 12.5t12.5 39.5q0 31 -12 70h119q6 -25 8.5 -42t2.5 -40
q0 -44 -22.5 -80.5zM458.5 186q34.5 84 34.5 183q0 58 -13 118.5t-47 104t-93 43.5t-93.5 -43.5t-47.5 -103.5t-13 -119q0 -99 34.5 -183t119.5 -84q84 0 118.5 84z" />
    <glyph glyph-name="uni1EDA" unicode="&#x1eda;" horiz-adv-x="679" 
d="M627.5 700.5q-22.5 -36.5 -72.5 -48.5q44 -55 67 -129t23 -154q0 -98 -33.5 -186t-102.5 -143t-169 -55q-101 0 -170 55t-102.5 143t-33.5 186t33.5 185.5t102.5 142.5t170 55q29 0 77 -6q37 -5 63 -5q27 0 39.5 12.5t12.5 39.5q0 31 -12 70h119q6 -25 8.5 -42t2.5 -40
q0 -44 -22.5 -80.5zM458.5 186q34.5 84 34.5 183q0 58 -13 118.5t-47 104t-93 43.5t-93.5 -43.5t-47.5 -103.5t-13 -119q0 -99 34.5 -183t119.5 -84q84 0 118.5 84zM348 947h135l-98 -137h-93z" />
    <glyph glyph-name="uni1EE2" unicode="&#x1ee2;" horiz-adv-x="679" 
d="M627.5 700.5q-22.5 -36.5 -72.5 -48.5q44 -55 67 -129t23 -154q0 -98 -33.5 -186t-102.5 -143t-169 -55q-101 0 -170 55t-102.5 143t-33.5 186t33.5 185.5t102.5 142.5t170 55q29 0 77 -6q37 -5 63 -5q27 0 39.5 12.5t12.5 39.5q0 31 -12 70h119q6 -25 8.5 -42t2.5 -40
q0 -44 -22.5 -80.5zM458.5 186q34.5 84 34.5 183q0 58 -13 118.5t-47 104t-93 43.5t-93.5 -43.5t-47.5 -103.5t-13 -119q0 -99 34.5 -183t119.5 -84q84 0 118.5 84zM285 -182q-23 23 -23 55t23 55t55 23t55 -23t23 -55t-23 -55t-55 -23t-55 23z" />
    <glyph glyph-name="uni1EDC" unicode="&#x1edc;" horiz-adv-x="679" 
d="M627.5 700.5q-22.5 -36.5 -72.5 -48.5q44 -55 67 -129t23 -154q0 -98 -33.5 -186t-102.5 -143t-169 -55q-101 0 -170 55t-102.5 143t-33.5 186t33.5 185.5t102.5 142.5t170 55q29 0 77 -6q37 -5 63 -5q27 0 39.5 12.5t12.5 39.5q0 31 -12 70h119q6 -25 8.5 -42t2.5 -40
q0 -44 -22.5 -80.5zM458.5 186q34.5 84 34.5 183q0 58 -13 118.5t-47 104t-93 43.5t-93.5 -43.5t-47.5 -103.5t-13 -119q0 -99 34.5 -183t119.5 -84q84 0 118.5 84zM198 947h135l56 -137h-93z" />
    <glyph glyph-name="uni1EDE" unicode="&#x1ede;" horiz-adv-x="679" 
d="M627.5 700.5q-22.5 -36.5 -72.5 -48.5q44 -55 67 -129t23 -154q0 -98 -33.5 -186t-102.5 -143t-169 -55q-101 0 -170 55t-102.5 143t-33.5 186t33.5 185.5t102.5 142.5t170 55q29 0 77 -6q37 -5 63 -5q27 0 39.5 12.5t12.5 39.5q0 31 -12 70h119q6 -25 8.5 -42t2.5 -40
q0 -44 -22.5 -80.5zM458.5 186q34.5 84 34.5 183q0 58 -13 118.5t-47 104t-93 43.5t-93.5 -43.5t-47.5 -103.5t-13 -119q0 -99 34.5 -183t119.5 -84q84 0 118.5 84zM322.5 838.5q8.5 11.5 8.5 22.5q0 12 -9 19t-26 7q-30 0 -62 -16l-15 68q17 9 42.5 14t52.5 5q55 0 84 -20
t29 -56q0 -16 -12 -35t-38 -37h-85q22 17 30.5 28.5z" />
    <glyph glyph-name="uni1EE0" unicode="&#x1ee0;" horiz-adv-x="679" 
d="M627.5 700.5q-22.5 -36.5 -72.5 -48.5q44 -55 67 -129t23 -154q0 -98 -33.5 -186t-102.5 -143t-169 -55q-101 0 -170 55t-102.5 143t-33.5 186t33.5 185.5t102.5 142.5t170 55q29 0 77 -6q37 -5 63 -5q27 0 39.5 12.5t12.5 39.5q0 31 -12 70h119q6 -25 8.5 -42t2.5 -40
q0 -44 -22.5 -80.5zM458.5 186q34.5 84 34.5 183q0 58 -13 118.5t-47 104t-93 43.5t-93.5 -43.5t-47.5 -103.5t-13 -119q0 -99 34.5 -183t119.5 -84q84 0 118.5 84zM282 965q14 0 28 -5t35 -14q14 -6 28 -11t25 -5q19 0 30.5 10t25.5 30l46 -51q-18 -31 -42.5 -53.5
t-53.5 -22.5q-15 0 -31 5t-38 15q-38 17 -56 17q-20 0 -31.5 -10.5t-25.5 -32.5l-42 54q47 74 102 74z" />
    <glyph glyph-name="Ohungarumlaut" unicode="&#x150;" horiz-adv-x="679" 
d="M170 40q-69 55 -102.5 143t-33.5 186t33.5 185.5t102.5 142.5t170 55q100 0 169 -55t102.5 -142.5t33.5 -185.5t-33.5 -186t-102.5 -143t-169 -55q-101 0 -170 55zM458.5 186q34.5 84 34.5 183q0 58 -13 118.5t-47 104t-93 43.5t-93.5 -43.5t-47.5 -103.5t-13 -119
q0 -99 34.5 -183t119.5 -84q84 0 118.5 84zM284 941h97l-79 -137h-74zM434 941h97l-79 -137h-74z" />
    <glyph glyph-name="Omacron" unicode="&#x14c;" horiz-adv-x="679" 
d="M170 40q-69 55 -102.5 143t-33.5 186t33.5 185.5t102.5 142.5t170 55q100 0 169 -55t102.5 -142.5t33.5 -185.5t-33.5 -186t-102.5 -143t-169 -55q-101 0 -170 55zM458.5 186q34.5 84 34.5 183q0 58 -13 118.5t-47 104t-93 43.5t-93.5 -43.5t-47.5 -103.5t-13 -119
q0 -99 34.5 -183t119.5 -84q84 0 118.5 84zM174 941h333v-90h-333v90z" />
    <glyph glyph-name="Oslash" unicode="&#xd8;" horiz-adv-x="679" 
d="M625 514.5q20 -70.5 20 -145.5q0 -98 -33.5 -186t-102.5 -143t-169 -55q-96 0 -165 52l-50 -77l-72 48l60 91q-39 54 -59 124.5t-20 145.5q0 98 33.5 185.5t102.5 142.5t170 55q94 0 164 -51l50 76l72 -47l-60 -92q39 -53 59 -123.5zM187 328q2 -28 2 -44q0 -39 -8 -72
l3 -2l250 384q-41 41 -94 41q-59 0 -93.5 -43.5t-47.5 -103.5t-13 -119zM492 410q-2 28 -2 43q0 39 8 72l-3 2l-250 -384q41 -41 95 -41q84 0 118.5 84t34.5 183z" />
    <glyph glyph-name="Otilde" unicode="&#xd5;" horiz-adv-x="679" 
d="M170 40q-69 55 -102.5 143t-33.5 186t33.5 185.5t102.5 142.5t170 55q100 0 169 -55t102.5 -142.5t33.5 -185.5t-33.5 -186t-102.5 -143t-169 -55q-101 0 -170 55zM458.5 186q34.5 84 34.5 183q0 58 -13 118.5t-47 104t-93 43.5t-93.5 -43.5t-47.5 -103.5t-13 -119
q0 -99 34.5 -183t119.5 -84q84 0 118.5 84zM282 959q14 0 28 -5t35 -14q14 -6 28 -11t25 -5q19 0 30.5 10t25.5 30l46 -51q-18 -31 -42.5 -53.5t-53.5 -22.5q-15 0 -31 5t-38 15q-38 17 -56 17q-20 0 -31.5 -10.5t-25.5 -32.5l-42 54q47 74 102 74z" />
    <glyph glyph-name="OE" unicode="&#x152;" horiz-adv-x="985" 
d="M946 0h-474q-29 -8 -53.5 -11.5t-54.5 -3.5q-102 0 -176.5 46t-114 132.5t-39.5 205.5q0 118 39.5 204.5t114 132.5t175.5 46q43 0 104 -11h461v-126h-312v-177h259v-126h-259v-186h330v-126zM232 176q46 -74 139 -74q21 0 48 4t48 11v502q-21 7 -48.5 11.5t-50.5 4.5
q-91 0 -136.5 -74.5t-45.5 -192.5t46 -192z" />
    <glyph glyph-name="P" unicode="P" horiz-adv-x="637" 
d="M376 741q72 0 127.5 -28.5t86 -80.5t30.5 -118q0 -61 -27 -113t-90 -84.5t-164 -32.5h-100v-284h-149v741h286zM429.5 432.5q37.5 22.5 37.5 79.5q0 103 -118 103h-110v-205h87q66 0 103.5 22.5z" />
    <glyph glyph-name="Thorn" unicode="&#xde;" horiz-adv-x="637" 
d="M239 741v-114h137q72 0 127 -29t86 -80.5t31 -117.5q0 -61 -27 -113t-90 -84.5t-164 -32.5h-100v-170h-149v741h149zM429.5 318q37.5 23 37.5 80q0 103 -118 103h-110v-206h87q66 0 103.5 23z" />
    <glyph glyph-name="Q" unicode="Q" horiz-adv-x="679" 
d="M417 -66q19 -19 62 -19q29 0 69 9l-44 -106q-38 -6 -59 -6q-165 0 -168 179q-80 17 -135 74t-81.5 137t-26.5 167q0 98 33.5 185.5t102.5 142.5t170 55q100 0 169 -55t102.5 -142.5t33.5 -185.5q0 -88 -27.5 -169t-83 -138t-137.5 -72q1 -37 20 -56zM220.5 186
q34.5 -84 119.5 -84q84 0 118.5 84t34.5 183q0 58 -13 118.5t-47 104t-93 43.5t-93.5 -43.5t-47.5 -103.5t-13 -119q0 -99 34.5 -183z" />
    <glyph glyph-name="R" unicode="R" horiz-adv-x="661" 
d="M485 0l-133 302h-13h-100v-302h-149v741h293q80 0 133.5 -33.5t78.5 -83.5t25 -101q0 -66 -32.5 -115.5t-92.5 -76.5l147 -331h-157zM346 428q57 0 89 20.5t32 70.5q0 46 -26 71t-74 25h-128v-187h107z" />
    <glyph glyph-name="Racute" unicode="&#x154;" horiz-adv-x="661" 
d="M485 0l-133 302h-13h-100v-302h-149v741h293q80 0 133.5 -33.5t78.5 -83.5t25 -101q0 -66 -32.5 -115.5t-92.5 -76.5l147 -331h-157zM346 428q57 0 89 20.5t32 70.5q0 46 -26 71t-74 25h-128v-187h107zM349 941h135l-98 -137h-93z" />
    <glyph glyph-name="Rcaron" unicode="&#x158;" horiz-adv-x="661" 
d="M485 0l-133 302h-13h-100v-302h-149v741h293q80 0 133.5 -33.5t78.5 -83.5t25 -101q0 -66 -32.5 -115.5t-92.5 -76.5l147 -331h-157zM346 428q57 0 89 20.5t32 70.5q0 46 -26 71t-74 25h-128v-187h107zM180 941h104l57 -80l59 80h102l-94 -137h-134z" />
    <glyph glyph-name="uni0156" unicode="&#x156;" horiz-adv-x="661" 
d="M485 0l-133 302h-13h-100v-302h-149v741h293q80 0 133.5 -33.5t78.5 -83.5t25 -101q0 -66 -32.5 -115.5t-92.5 -76.5l147 -331h-157zM346 428q57 0 89 20.5t32 70.5q0 46 -26 71t-74 25h-128v-187h107zM294 -58h135l-98 -137h-93z" />
    <glyph glyph-name="S" unicode="S" horiz-adv-x="583" 
d="M127.5 33q-67.5 44 -91.5 134l142 72q3 -58 34.5 -93.5t82.5 -35.5q46 0 76.5 24t30.5 70q0 30 -18.5 50t-45.5 32.5t-76 28.5q-66 22 -108 43t-71.5 62.5t-29.5 107.5q0 65 33 116t88.5 79.5t119.5 28.5q91 0 153 -47.5t77 -132.5l-132 -62q-4 49 -32 84.5t-71 35.5
q-37 0 -63.5 -24t-26.5 -61q0 -29 17.5 -48t44 -30.5t71.5 -26.5q68 -22 110.5 -44t73.5 -67t31 -119q0 -50 -26 -101t-83 -85.5t-142 -34.5q-101 0 -168.5 44z" />
    <glyph glyph-name="Sacute" unicode="&#x15a;" horiz-adv-x="583" 
d="M127.5 33q-67.5 44 -91.5 134l142 72q3 -58 34.5 -93.5t82.5 -35.5q46 0 76.5 24t30.5 70q0 30 -18.5 50t-45.5 32.5t-76 28.5q-66 22 -108 43t-71.5 62.5t-29.5 107.5q0 65 33 116t88.5 79.5t119.5 28.5q91 0 153 -47.5t77 -132.5l-132 -62q-4 49 -32 84.5t-71 35.5
q-37 0 -63.5 -24t-26.5 -61q0 -29 17.5 -48t44 -30.5t71.5 -26.5q68 -22 110.5 -44t73.5 -67t31 -119q0 -50 -26 -101t-83 -85.5t-142 -34.5q-101 0 -168.5 44zM297 941h135l-98 -137h-93z" />
    <glyph glyph-name="Scaron" unicode="&#x160;" horiz-adv-x="583" 
d="M127.5 33q-67.5 44 -91.5 134l142 72q3 -58 34.5 -93.5t82.5 -35.5q46 0 76.5 24t30.5 70q0 30 -18.5 50t-45.5 32.5t-76 28.5q-66 22 -108 43t-71.5 62.5t-29.5 107.5q0 65 33 116t88.5 79.5t119.5 28.5q91 0 153 -47.5t77 -132.5l-132 -62q-4 49 -32 84.5t-71 35.5
q-37 0 -63.5 -24t-26.5 -61q0 -29 17.5 -48t44 -30.5t71.5 -26.5q68 -22 110.5 -44t73.5 -67t31 -119q0 -50 -26 -101t-83 -85.5t-142 -34.5q-101 0 -168.5 44zM128 941h104l57 -80l59 80h102l-94 -137h-134z" />
    <glyph glyph-name="Scedilla" unicode="&#x15e;" horiz-adv-x="583" 
d="M524 115.5q-23 -47.5 -71.5 -82.5t-122.5 -42l-20 -37q39 -10 61 -29.5t22 -53.5q0 -46 -36 -74.5t-82 -28.5q-26 0 -51.5 5t-38.5 14l15 68q4 -1 22.5 -8.5t37.5 -7.5q43 0 43 31q0 35 -71 35q-19 0 -30 -1l49 87q-83 9 -138.5 53t-76.5 123l142 72q3 -58 34.5 -93.5
t82.5 -35.5q46 0 76.5 24t30.5 70q0 30 -18.5 50t-45.5 32.5t-76 28.5q-66 22 -108 43t-71.5 62.5t-29.5 107.5q0 65 33 116t88.5 79.5t119.5 28.5q91 0 153 -47.5t77 -132.5l-132 -62q-4 49 -32 84.5t-71 35.5q-37 0 -63.5 -24t-26.5 -61q0 -29 17.5 -48t44 -30.5
t71.5 -26.5q68 -22 110.5 -44t73.5 -67t31 -119q0 -47 -23 -94.5z" />
    <glyph glyph-name="Scircumflex" unicode="&#x15c;" horiz-adv-x="583" 
d="M127.5 33q-67.5 44 -91.5 134l142 72q3 -58 34.5 -93.5t82.5 -35.5q46 0 76.5 24t30.5 70q0 30 -18.5 50t-45.5 32.5t-76 28.5q-66 22 -108 43t-71.5 62.5t-29.5 107.5q0 65 33 116t88.5 79.5t119.5 28.5q91 0 153 -47.5t77 -132.5l-132 -62q-4 49 -32 84.5t-71 35.5
q-37 0 -63.5 -24t-26.5 -61q0 -29 17.5 -48t44 -30.5t71.5 -26.5q68 -22 110.5 -44t73.5 -67t31 -119q0 -50 -26 -101t-83 -85.5t-142 -34.5q-101 0 -168.5 44zM222 941h134l94 -137h-102l-59 80l-57 -80h-104z" />
    <glyph glyph-name="uni0218" unicode="&#x218;" horiz-adv-x="583" 
d="M127.5 33q-67.5 44 -91.5 134l142 72q3 -58 34.5 -93.5t82.5 -35.5q46 0 76.5 24t30.5 70q0 30 -18.5 50t-45.5 32.5t-76 28.5q-66 22 -108 43t-71.5 62.5t-29.5 107.5q0 65 33 116t88.5 79.5t119.5 28.5q91 0 153 -47.5t77 -132.5l-132 -62q-4 49 -32 84.5t-71 35.5
q-37 0 -63.5 -24t-26.5 -61q0 -29 17.5 -48t44 -30.5t71.5 -26.5q68 -22 110.5 -44t73.5 -67t31 -119q0 -50 -26 -101t-83 -85.5t-142 -34.5q-101 0 -168.5 44zM223 -58h135l-98 -137h-93z" />
    <glyph glyph-name="T" unicode="T" horiz-adv-x="549" 
d="M200 615h-192v126h533v-126h-192v-615h-149v615z" />
    <glyph glyph-name="Tbar" unicode="&#x166;" horiz-adv-x="549" 
d="M541 615h-192v-185h92v-100h-92v-330h-149v330h-92v100h92v185h-192v126h533v-126z" />
    <glyph glyph-name="Tcaron" unicode="&#x164;" horiz-adv-x="549" 
d="M200 615h-192v126h533v-126h-192v-615h-149v615zM113 941h104l57 -80l59 80h102l-94 -137h-134z" />
    <glyph glyph-name="uni0162" unicode="&#x162;" horiz-adv-x="549" 
d="M200 615h-192v126h533v-126h-192v-615h-149v615zM208 -58h135l-98 -137h-93z" />
    <glyph glyph-name="uni021A" unicode="&#x21a;" horiz-adv-x="549" 
d="M200 615h-192v126h533v-126h-192v-615h-149v615zM208 -58h135l-98 -137h-93z" />
    <glyph glyph-name="U" unicode="U" horiz-adv-x="692" 
d="M156 52.5q-71 63.5 -71 176.5v512h149v-465q0 -90 27 -126t85 -36q59 0 86 36t27 126v465h148v-512q0 -113 -71 -176.5t-190 -63.5t-190 63.5z" />
    <glyph glyph-name="Uacute" unicode="&#xda;" horiz-adv-x="692" 
d="M156 52.5q-71 63.5 -71 176.5v512h149v-465q0 -90 27 -126t85 -36q59 0 86 36t27 126v465h148v-512q0 -113 -71 -176.5t-190 -63.5t-190 63.5zM354 941h135l-98 -137h-93z" />
    <glyph glyph-name="Ubreve" unicode="&#x16c;" horiz-adv-x="692" 
d="M156 52.5q-71 63.5 -71 176.5v512h149v-465q0 -90 27 -126t85 -36q59 0 86 36t27 126v465h148v-512q0 -113 -71 -176.5t-190 -63.5t-190 63.5zM230 833.5q-46 37.5 -50 107.5h88q4 -29 26.5 -44.5t51.5 -15.5q30 0 52.5 15.5t25.5 44.5h89q-5 -71 -50.5 -108t-116.5 -37
q-70 0 -116 37.5z" />
    <glyph glyph-name="Ucircumflex" unicode="&#xdb;" horiz-adv-x="692" 
d="M156 52.5q-71 63.5 -71 176.5v512h149v-465q0 -90 27 -126t85 -36q59 0 86 36t27 126v465h148v-512q0 -113 -71 -176.5t-190 -63.5t-190 63.5zM279 941h134l94 -137h-102l-59 80l-57 -80h-104z" />
    <glyph glyph-name="Udieresis" unicode="&#xdc;" horiz-adv-x="692" 
d="M156 52.5q-71 63.5 -71 176.5v512h149v-465q0 -90 27 -126t85 -36q59 0 86 36t27 126v465h148v-512q0 -113 -71 -176.5t-190 -63.5t-190 63.5zM204 821q-21 21 -21 51t21 51.5t51 21.5t51.5 -21.5t21.5 -51.5t-21.5 -51t-51.5 -21t-51 21zM386.5 821q-21.5 21 -21.5 51
t21.5 51.5t51.5 21.5t51 -21.5t21 -51.5t-21 -51t-51 -21t-51.5 21z" />
    <glyph glyph-name="uni1EE4" unicode="&#x1ee4;" horiz-adv-x="692" 
d="M156 52.5q-71 63.5 -71 176.5v512h149v-465q0 -90 27 -126t85 -36q59 0 86 36t27 126v465h148v-512q0 -113 -71 -176.5t-190 -63.5t-190 63.5zM291 -182q-23 23 -23 55t23 55t55 23t55 -23t23 -55t-23 -55t-55 -23t-55 23z" />
    <glyph glyph-name="Ugrave" unicode="&#xd9;" horiz-adv-x="692" 
d="M156 52.5q-71 63.5 -71 176.5v512h149v-465q0 -90 27 -126t85 -36q59 0 86 36t27 126v465h148v-512q0 -113 -71 -176.5t-190 -63.5t-190 63.5zM204 941h135l56 -137h-93z" />
    <glyph glyph-name="uni1EE6" unicode="&#x1ee6;" horiz-adv-x="692" 
d="M156 52.5q-71 63.5 -71 176.5v512h149v-465q0 -90 27 -126t85 -36q59 0 86 36t27 126v465h148v-512q0 -113 -71 -176.5t-190 -63.5t-190 63.5zM328.5 832.5q8.5 11.5 8.5 22.5q0 12 -9 19t-26 7q-30 0 -62 -16l-15 68q17 9 42.5 14t52.5 5q55 0 84 -20t29 -56
q0 -16 -12 -35t-38 -37h-85q22 17 30.5 28.5z" />
    <glyph glyph-name="Uhorn" unicode="&#x1af;" horiz-adv-x="692" 
d="M690.5 821q2.5 -17 2.5 -40q0 -45 -21 -78t-65 -50v-424q0 -113 -71 -176.5t-190 -63.5t-190 63.5t-71 176.5v512h149v-465q0 -90 27 -126t85 -36q59 0 86 36t27 126v465h63q28 0 40.5 12.5t12.5 39.5q0 31 -12 70h119q6 -25 8.5 -42z" />
    <glyph glyph-name="uni1EE8" unicode="&#x1ee8;" horiz-adv-x="692" 
d="M690.5 821q2.5 -17 2.5 -40q0 -45 -21 -78t-65 -50v-424q0 -113 -71 -176.5t-190 -63.5t-190 63.5t-71 176.5v512h149v-465q0 -90 27 -126t85 -36q59 0 86 36t27 126v465h63q28 0 40.5 12.5t12.5 39.5q0 31 -12 70h119q6 -25 8.5 -42zM354 941h135l-98 -137h-93z" />
    <glyph glyph-name="uni1EF0" unicode="&#x1ef0;" horiz-adv-x="692" 
d="M690.5 821q2.5 -17 2.5 -40q0 -45 -21 -78t-65 -50v-424q0 -113 -71 -176.5t-190 -63.5t-190 63.5t-71 176.5v512h149v-465q0 -90 27 -126t85 -36q59 0 86 36t27 126v465h63q28 0 40.5 12.5t12.5 39.5q0 31 -12 70h119q6 -25 8.5 -42zM291 -182q-23 23 -23 55t23 55
t55 23t55 -23t23 -55t-23 -55t-55 -23t-55 23z" />
    <glyph glyph-name="uni1EEA" unicode="&#x1eea;" horiz-adv-x="692" 
d="M690.5 821q2.5 -17 2.5 -40q0 -45 -21 -78t-65 -50v-424q0 -113 -71 -176.5t-190 -63.5t-190 63.5t-71 176.5v512h149v-465q0 -90 27 -126t85 -36q59 0 86 36t27 126v465h63q28 0 40.5 12.5t12.5 39.5q0 31 -12 70h119q6 -25 8.5 -42zM204 941h135l56 -137h-93z" />
    <glyph glyph-name="uni1EEC" unicode="&#x1eec;" horiz-adv-x="692" 
d="M690.5 821q2.5 -17 2.5 -40q0 -45 -21 -78t-65 -50v-424q0 -113 -71 -176.5t-190 -63.5t-190 63.5t-71 176.5v512h149v-465q0 -90 27 -126t85 -36q59 0 86 36t27 126v465h63q28 0 40.5 12.5t12.5 39.5q0 31 -12 70h119q6 -25 8.5 -42zM328.5 832.5q8.5 11.5 8.5 22.5
q0 12 -9 19t-26 7q-30 0 -62 -16l-15 68q17 9 42.5 14t52.5 5q55 0 84 -20t29 -56q0 -16 -12 -35t-38 -37h-85q22 17 30.5 28.5z" />
    <glyph glyph-name="uni1EEE" unicode="&#x1eee;" horiz-adv-x="692" 
d="M690.5 821q2.5 -17 2.5 -40q0 -45 -21 -78t-65 -50v-424q0 -113 -71 -176.5t-190 -63.5t-190 63.5t-71 176.5v512h149v-465q0 -90 27 -126t85 -36q59 0 86 36t27 126v465h63q28 0 40.5 12.5t12.5 39.5q0 31 -12 70h119q6 -25 8.5 -42zM288 959q14 0 28 -5t35 -14
q14 -6 28 -11t25 -5q19 0 30.5 10t25.5 30l46 -51q-18 -31 -42.5 -53.5t-53.5 -22.5q-15 0 -31 5t-38 15q-38 17 -56 17q-20 0 -31.5 -10.5t-25.5 -32.5l-42 54q47 74 102 74z" />
    <glyph glyph-name="Uhungarumlaut" unicode="&#x170;" horiz-adv-x="692" 
d="M156 52.5q-71 63.5 -71 176.5v512h149v-465q0 -90 27 -126t85 -36q59 0 86 36t27 126v465h148v-512q0 -113 -71 -176.5t-190 -63.5t-190 63.5zM290 941h97l-79 -137h-74zM440 941h97l-79 -137h-74z" />
    <glyph glyph-name="Umacron" unicode="&#x16a;" horiz-adv-x="692" 
d="M156 52.5q-71 63.5 -71 176.5v512h149v-465q0 -90 27 -126t85 -36q59 0 86 36t27 126v465h148v-512q0 -113 -71 -176.5t-190 -63.5t-190 63.5zM180 941h333v-90h-333v90z" />
    <glyph glyph-name="Uogonek" unicode="&#x172;" horiz-adv-x="692" 
d="M349.5 -169q-29.5 23 -29.5 64q0 53 70 96q-28 -2 -44 -2q-119 0 -190 63.5t-71 176.5v512h149v-465q0 -90 27 -126t85 -36q59 0 86 36t27 126v465h148v-512q0 -107 -65 -172q-26 -26 -63 -56q-40 -33 -57.5 -52t-17.5 -39q0 -14 11.5 -22.5t26.5 -8.5q29 0 59 20v-69
q-32 -22 -76 -22q-46 0 -75.5 23z" />
    <glyph glyph-name="Uring" unicode="&#x16e;" horiz-adv-x="692" 
d="M156 52.5q-71 63.5 -71 176.5v512h149v-465q0 -90 27 -126t85 -36q59 0 86 36t27 126v465h148v-512q0 -113 -71 -176.5t-190 -63.5t-190 63.5zM284 812q-26 26 -26 62q0 37 26 63t62 26q37 0 63 -26t26 -63q0 -36 -26 -62t-63 -26q-36 0 -62 26zM371.5 848.5
q10.5 10.5 10.5 25.5q0 14 -10.5 25t-25.5 11t-25.5 -11t-10.5 -25q0 -15 10.5 -25.5t25.5 -10.5t25.5 10.5z" />
    <glyph glyph-name="Utilde" unicode="&#x168;" horiz-adv-x="692" 
d="M156 52.5q-71 63.5 -71 176.5v512h149v-465q0 -90 27 -126t85 -36q59 0 86 36t27 126v465h148v-512q0 -113 -71 -176.5t-190 -63.5t-190 63.5zM288 959q14 0 28 -5t35 -14q14 -6 28 -11t25 -5q19 0 30.5 10t25.5 30l46 -51q-18 -31 -42.5 -53.5t-53.5 -22.5q-15 0 -31 5
t-38 15q-38 17 -56 17q-20 0 -31.5 -10.5t-25.5 -32.5l-42 54q47 74 102 74z" />
    <glyph glyph-name="V" unicode="V" horiz-adv-x="567" 
d="M-10 741h153l139 -551h2l139 551h154l-226 -741h-135z" />
    <glyph glyph-name="W" unicode="W" horiz-adv-x="815" 
d="M-8 741h147l89 -522h2l92 522h164l92 -522h2l96 522h147l-169 -741h-152l-99 512h-2l-100 -512h-152z" />
    <glyph glyph-name="Wacute" unicode="&#x1e82;" horiz-adv-x="815" 
d="M-8 741h147l89 -522h2l92 522h164l92 -522h2l96 522h147l-169 -741h-152l-99 512h-2l-100 -512h-152zM416 941h135l-98 -137h-93z" />
    <glyph glyph-name="Wcircumflex" unicode="&#x174;" horiz-adv-x="815" 
d="M-8 741h147l89 -522h2l92 522h164l92 -522h2l96 522h147l-169 -741h-152l-99 512h-2l-100 -512h-152zM341 941h134l94 -137h-102l-59 80l-57 -80h-104z" />
    <glyph glyph-name="Wdieresis" unicode="&#x1e84;" horiz-adv-x="815" 
d="M-8 741h147l89 -522h2l92 522h164l92 -522h2l96 522h147l-169 -741h-152l-99 512h-2l-100 -512h-152zM266 821q-21 21 -21 51t21 51.5t51 21.5t51.5 -21.5t21.5 -51.5t-21.5 -51t-51.5 -21t-51 21zM448.5 821q-21.5 21 -21.5 51t21.5 51.5t51.5 21.5t51 -21.5t21 -51.5
t-21 -51t-51 -21t-51.5 21z" />
    <glyph glyph-name="Wgrave" unicode="&#x1e80;" horiz-adv-x="815" 
d="M-8 741h147l89 -522h2l92 522h164l92 -522h2l96 522h147l-169 -741h-152l-99 512h-2l-100 -512h-152zM266 941h135l56 -137h-93z" />
    <glyph glyph-name="X" unicode="X" horiz-adv-x="614" 
d="M389 377l225 -377h-173l-133 241h-2l-141 -241h-165l226 378l-206 363h173l118 -237h2l128 237h165z" />
    <glyph glyph-name="Y" unicode="Y" horiz-adv-x="617" 
d="M233 299l-243 442h158l159 -324h2l165 324h153l-246 -442v-299h-148v299z" />
    <glyph glyph-name="Yacute" unicode="&#xdd;" horiz-adv-x="617" 
d="M233 299l-243 442h158l159 -324h2l165 324h153l-246 -442v-299h-148v299zM317 941h135l-98 -137h-93z" />
    <glyph glyph-name="Ycircumflex" unicode="&#x176;" horiz-adv-x="617" 
d="M233 299l-243 442h158l159 -324h2l165 324h153l-246 -442v-299h-148v299zM242 941h134l94 -137h-102l-59 80l-57 -80h-104z" />
    <glyph glyph-name="Ydieresis" unicode="&#x178;" horiz-adv-x="617" 
d="M233 299l-243 442h158l159 -324h2l165 324h153l-246 -442v-299h-148v299zM167 821q-21 21 -21 51t21 51.5t51 21.5t51.5 -21.5t21.5 -51.5t-21.5 -51t-51.5 -21t-51 21zM349.5 821q-21.5 21 -21.5 51t21.5 51.5t51.5 21.5t51 -21.5t21 -51.5t-21 -51t-51 -21t-51.5 21z
" />
    <glyph glyph-name="uni1EF4" unicode="&#x1ef4;" horiz-adv-x="617" 
d="M233 299l-243 442h158l159 -324h2l165 324h153l-246 -442v-299h-148v299zM254 -182q-23 23 -23 55t23 55t55 23t55 -23t23 -55t-23 -55t-55 -23t-55 23z" />
    <glyph glyph-name="Ygrave" unicode="&#x1ef2;" horiz-adv-x="617" 
d="M233 299l-243 442h158l159 -324h2l165 324h153l-246 -442v-299h-148v299zM167 941h135l56 -137h-93z" />
    <glyph glyph-name="uni1EF6" unicode="&#x1ef6;" horiz-adv-x="617" 
d="M233 299l-243 442h158l159 -324h2l165 324h153l-246 -442v-299h-148v299zM291.5 832.5q8.5 11.5 8.5 22.5q0 12 -9 19t-26 7q-30 0 -62 -16l-15 68q17 9 42.5 14t52.5 5q55 0 84 -20t29 -56q0 -16 -12 -35t-38 -37h-85q22 17 30.5 28.5z" />
    <glyph glyph-name="uni1EF8" unicode="&#x1ef8;" horiz-adv-x="617" 
d="M233 299l-243 442h158l159 -324h2l165 324h153l-246 -442v-299h-148v299zM251 959q14 0 28 -5t35 -14q14 -6 28 -11t25 -5q19 0 30.5 10t25.5 30l46 -51q-18 -31 -42.5 -53.5t-53.5 -22.5q-15 0 -31 5t-38 15q-38 17 -56 17q-20 0 -31.5 -10.5t-25.5 -32.5l-42 54
q47 74 102 74z" />
    <glyph glyph-name="Z" unicode="Z" horiz-adv-x="559" 
d="M521 741v-120l-313 -495h313v-126h-483v116l312 499h-302v126h473z" />
    <glyph glyph-name="Zacute" unicode="&#x179;" horiz-adv-x="559" 
d="M521 741v-120l-313 -495h313v-126h-483v116l312 499h-302v126h473zM288 941h135l-98 -137h-93z" />
    <glyph glyph-name="Zcaron" unicode="&#x17d;" horiz-adv-x="559" 
d="M521 741v-120l-313 -495h313v-126h-483v116l312 499h-302v126h473zM119 941h104l57 -80l59 80h102l-94 -137h-134z" />
    <glyph glyph-name="Zdotaccent" unicode="&#x17b;" horiz-adv-x="559" 
d="M521 741v-120l-313 -495h313v-126h-483v116l312 499h-302v126h473zM225 817q-23 23 -23 55t23 55t55 23t55 -23t23 -55t-23 -55t-55 -23t-55 23z" />
    <glyph glyph-name="a" unicode="a" horiz-adv-x="570" 
d="M88.5 33q-48.5 44 -48.5 117q0 82 55.5 123t177.5 57q36 5 53 10.5t23.5 14.5t6.5 28q0 25 -17 40t-47 15q-39 0 -72 -19t-57 -55l-75 87q71 94 208 94q100 0 148.5 -45t48.5 -124v-376h-134v58q-36 -37 -68 -53t-79 -16q-75 0 -123.5 44zM352 162v82h-2l-74 -11
q-50 -7 -74 -26.5t-24 -54.5q0 -26 15.5 -43t46.5 -17q60 0 112 70z" />
    <glyph glyph-name="aacute" unicode="&#xe1;" horiz-adv-x="570" 
d="M88.5 33q-48.5 44 -48.5 117q0 82 55.5 123t177.5 57q36 5 53 10.5t23.5 14.5t6.5 28q0 25 -17 40t-47 15q-39 0 -72 -19t-57 -55l-75 87q71 94 208 94q100 0 148.5 -45t48.5 -124v-376h-134v58q-36 -37 -68 -53t-79 -16q-75 0 -123.5 44zM352 162v82h-2l-74 -11
q-50 -7 -74 -26.5t-24 -54.5q0 -26 15.5 -43t46.5 -17q60 0 112 70zM300 741h135l-98 -137h-93z" />
    <glyph glyph-name="abreve" unicode="&#x103;" horiz-adv-x="570" 
d="M88.5 33q-48.5 44 -48.5 117q0 82 55.5 123t177.5 57q36 5 53 10.5t23.5 14.5t6.5 28q0 25 -17 40t-47 15q-39 0 -72 -19t-57 -55l-75 87q71 94 208 94q100 0 148.5 -45t48.5 -124v-376h-134v58q-36 -37 -68 -53t-79 -16q-75 0 -123.5 44zM352 162v82h-2l-74 -11
q-50 -7 -74 -26.5t-24 -54.5q0 -26 15.5 -43t46.5 -17q60 0 112 70zM176 633.5q-46 37.5 -50 107.5h88q4 -29 26.5 -44.5t51.5 -15.5q30 0 52.5 15.5t25.5 44.5h89q-5 -71 -50.5 -108t-116.5 -37q-70 0 -116 37.5z" />
    <glyph glyph-name="uni1EAF" unicode="&#x1eaf;" horiz-adv-x="570" 
d="M88.5 33q-48.5 44 -48.5 117q0 82 55.5 123t177.5 57q36 5 53 10.5t23.5 14.5t6.5 28q0 25 -17 40t-47 15q-39 0 -72 -19t-57 -55l-75 87q71 94 208 94q100 0 148.5 -45t48.5 -124v-376h-134v58q-36 -37 -68 -53t-79 -16q-75 0 -123.5 44zM352 162v82h-2l-74 -11
q-50 -7 -74 -26.5t-24 -54.5q0 -26 15.5 -43t46.5 -17q60 0 112 70zM309 840h136l-108 -105h-93zM174 625.5q-43 29.5 -48 82.5h88q4 -16 26 -24.5t52 -8.5t52.5 8.5t25.5 24.5h89q-6 -52 -50 -82t-117 -30q-75 0 -118 29.5z" />
    <glyph glyph-name="uni1EB7" unicode="&#x1eb7;" horiz-adv-x="570" 
d="M88.5 33q-48.5 44 -48.5 117q0 82 55.5 123t177.5 57q36 5 53 10.5t23.5 14.5t6.5 28q0 25 -17 40t-47 15q-39 0 -72 -19t-57 -55l-75 87q71 94 208 94q100 0 148.5 -45t48.5 -124v-376h-134v58q-36 -37 -68 -53t-79 -16q-75 0 -123.5 44zM352 162v82h-2l-74 -11
q-50 -7 -74 -26.5t-24 -54.5q0 -26 15.5 -43t46.5 -17q60 0 112 70zM176 633.5q-46 37.5 -50 107.5h88q4 -29 26.5 -44.5t51.5 -15.5q30 0 52.5 15.5t25.5 44.5h89q-5 -71 -50.5 -108t-116.5 -37q-70 0 -116 37.5zM222 -182q-23 23 -23 55t23 55t55 23t55 -23t23 -55
t-23 -55t-55 -23t-55 23z" />
    <glyph glyph-name="uni1EB1" unicode="&#x1eb1;" horiz-adv-x="570" 
d="M88.5 33q-48.5 44 -48.5 117q0 82 55.5 123t177.5 57q36 5 53 10.5t23.5 14.5t6.5 28q0 25 -17 40t-47 15q-39 0 -72 -19t-57 -55l-75 87q71 94 208 94q100 0 148.5 -45t48.5 -124v-376h-134v58q-36 -37 -68 -53t-79 -16q-75 0 -123.5 44zM352 162v82h-2l-74 -11
q-50 -7 -74 -26.5t-24 -54.5q0 -26 15.5 -43t46.5 -17q60 0 112 70zM140 840h135l66 -105h-93zM174 625.5q-43 29.5 -48 82.5h88q4 -16 26 -24.5t52 -8.5t52.5 8.5t25.5 24.5h89q-6 -52 -50 -82t-117 -30q-75 0 -118 29.5z" />
    <glyph glyph-name="uni1EB3" unicode="&#x1eb3;" horiz-adv-x="570" 
d="M88.5 33q-48.5 44 -48.5 117q0 82 55.5 123t177.5 57q36 5 53 10.5t23.5 14.5t6.5 28q0 25 -17 40t-47 15q-39 0 -72 -19t-57 -55l-75 87q71 94 208 94q100 0 148.5 -45t48.5 -124v-376h-134v58q-36 -37 -68 -53t-79 -16q-75 0 -123.5 44zM352 162v82h-2l-74 -11
q-50 -7 -74 -26.5t-24 -54.5q0 -26 15.5 -43t46.5 -17q60 0 112 70zM273 759q0 12 -9 19t-26 7q-30 0 -62 -16l-15 68q38 19 95 19q55 0 84 -20t29 -56q0 -14 -11 -32.5t-29 -31.5h-84q28 21 28 43zM174 625.5q-43 29.5 -48 82.5h88q4 -16 26 -24.5t52 -8.5t52.5 8.5
t25.5 24.5h89q-6 -52 -50 -82t-117 -30q-75 0 -118 29.5z" />
    <glyph glyph-name="uni1EB5" unicode="&#x1eb5;" horiz-adv-x="570" 
d="M88.5 33q-48.5 44 -48.5 117q0 82 55.5 123t177.5 57q36 5 53 10.5t23.5 14.5t6.5 28q0 25 -17 40t-47 15q-39 0 -72 -19t-57 -55l-75 87q71 94 208 94q100 0 148.5 -45t48.5 -124v-376h-134v58q-36 -37 -68 -53t-79 -16q-75 0 -123.5 44zM352 162v82h-2l-74 -11
q-50 -7 -74 -26.5t-24 -54.5q0 -26 15.5 -43t46.5 -17q60 0 112 70zM231 843q15 0 30 -5t42 -15q3 -1 21.5 -8.5t30.5 -7.5q27 0 54 38l43 -49q-42 -63 -99 -63q-15 0 -31 5.5t-40 15.5q-3 1 -21.5 8.5t-31.5 7.5q-26 0 -54 -39l-43 49q42 63 99 63zM174 625.5
q-43 29.5 -48 82.5h88q4 -16 26 -24.5t52 -8.5t52.5 8.5t25.5 24.5h89q-6 -52 -50 -82t-117 -30q-75 0 -118 29.5z" />
    <glyph glyph-name="acircumflex" unicode="&#xe2;" horiz-adv-x="570" 
d="M88.5 33q-48.5 44 -48.5 117q0 82 55.5 123t177.5 57q36 5 53 10.5t23.5 14.5t6.5 28q0 25 -17 40t-47 15q-39 0 -72 -19t-57 -55l-75 87q71 94 208 94q100 0 148.5 -45t48.5 -124v-376h-134v58q-36 -37 -68 -53t-79 -16q-75 0 -123.5 44zM352 162v82h-2l-74 -11
q-50 -7 -74 -26.5t-24 -54.5q0 -26 15.5 -43t46.5 -17q60 0 112 70zM225 741h134l94 -137h-102l-59 80l-57 -80h-104z" />
    <glyph glyph-name="uni1EA5" unicode="&#x1ea5;" horiz-adv-x="570" 
d="M88.5 33q-48.5 44 -48.5 117q0 82 55.5 123t177.5 57q36 5 53 10.5t23.5 14.5t6.5 28q0 25 -17 40t-47 15q-39 0 -72 -19t-57 -55l-75 87q71 94 208 94q100 0 148.5 -45t48.5 -124v-376h-134v58q-36 -37 -68 -53t-79 -16q-75 0 -123.5 44zM352 162v82h-2l-74 -11
q-50 -7 -74 -26.5t-24 -54.5q0 -26 15.5 -43t46.5 -17q60 0 112 70zM313 840h135l-108 -105h-93zM225 703h134l94 -99h-102l-59 51l-57 -51h-104z" />
    <glyph glyph-name="uni1EAD" unicode="&#x1ead;" horiz-adv-x="570" 
d="M88.5 33q-48.5 44 -48.5 117q0 82 55.5 123t177.5 57q36 5 53 10.5t23.5 14.5t6.5 28q0 25 -17 40t-47 15q-39 0 -72 -19t-57 -55l-75 87q71 94 208 94q100 0 148.5 -45t48.5 -124v-376h-134v58q-36 -37 -68 -53t-79 -16q-75 0 -123.5 44zM352 162v82h-2l-74 -11
q-50 -7 -74 -26.5t-24 -54.5q0 -26 15.5 -43t46.5 -17q60 0 112 70zM225 741h134l94 -137h-102l-59 80l-57 -80h-104zM222 -182q-23 23 -23 55t23 55t55 23t55 -23t23 -55t-23 -55t-55 -23t-55 23z" />
    <glyph glyph-name="uni1EA7" unicode="&#x1ea7;" horiz-adv-x="570" 
d="M88.5 33q-48.5 44 -48.5 117q0 82 55.5 123t177.5 57q36 5 53 10.5t23.5 14.5t6.5 28q0 25 -17 40t-47 15q-39 0 -72 -19t-57 -55l-75 87q71 94 208 94q100 0 148.5 -45t48.5 -124v-376h-134v58q-36 -37 -68 -53t-79 -16q-75 0 -123.5 44zM352 162v82h-2l-74 -11
q-50 -7 -74 -26.5t-24 -54.5q0 -26 15.5 -43t46.5 -17q60 0 112 70zM135 840h136l65 -105h-93zM225 703h134l94 -99h-102l-59 51l-57 -51h-104z" />
    <glyph glyph-name="uni1EA9" unicode="&#x1ea9;" horiz-adv-x="570" 
d="M88.5 33q-48.5 44 -48.5 117q0 82 55.5 123t177.5 57q36 5 53 10.5t23.5 14.5t6.5 28q0 25 -17 40t-47 15q-39 0 -72 -19t-57 -55l-75 87q71 94 208 94q100 0 148.5 -45t48.5 -124v-376h-134v58q-36 -37 -68 -53t-79 -16q-75 0 -123.5 44zM352 162v82h-2l-74 -11
q-50 -7 -74 -26.5t-24 -54.5q0 -26 15.5 -43t46.5 -17q60 0 112 70zM421 759q0 12 -9 19t-26 7q-30 0 -62 -16l-15 68q38 19 95 19q55 0 84 -20t29 -56q0 -14 -11 -32.5t-29 -31.5h-84q28 22 28 43zM225 703h134l94 -99h-102l-59 51l-57 -51h-104z" />
    <glyph glyph-name="uni1EAB" unicode="&#x1eab;" horiz-adv-x="570" 
d="M88.5 33q-48.5 44 -48.5 117q0 82 55.5 123t177.5 57q36 5 53 10.5t23.5 14.5t6.5 28q0 25 -17 40t-47 15q-39 0 -72 -19t-57 -55l-75 87q71 94 208 94q100 0 148.5 -45t48.5 -124v-376h-134v58q-36 -37 -68 -53t-79 -16q-75 0 -123.5 44zM352 162v82h-2l-74 -11
q-50 -7 -74 -26.5t-24 -54.5q0 -26 15.5 -43t46.5 -17q60 0 112 70zM231 843q15 0 31 -5t40 -15q38 -16 52 -16q28 0 55 38l43 -49q-42 -63 -99 -63q-15 0 -32 5.5t-40 15.5q-3 1 -21.5 8.5t-30.5 7.5q-25 0 -55 -39l-42 49q40 63 99 63zM225 703h134l94 -99h-102l-59 51
l-57 -51h-104z" />
    <glyph glyph-name="adieresis" unicode="&#xe4;" horiz-adv-x="570" 
d="M88.5 33q-48.5 44 -48.5 117q0 82 55.5 123t177.5 57q36 5 53 10.5t23.5 14.5t6.5 28q0 25 -17 40t-47 15q-39 0 -72 -19t-57 -55l-75 87q71 94 208 94q100 0 148.5 -45t48.5 -124v-376h-134v58q-36 -37 -68 -53t-79 -16q-75 0 -123.5 44zM352 162v82h-2l-74 -11
q-50 -7 -74 -26.5t-24 -54.5q0 -26 15.5 -43t46.5 -17q60 0 112 70zM150 621q-21 21 -21 51t21 51.5t51 21.5t51.5 -21.5t21.5 -51.5t-21.5 -51t-51.5 -21t-51 21zM332.5 621q-21.5 21 -21.5 51t21.5 51.5t51.5 21.5t51 -21.5t21 -51.5t-21 -51t-51 -21t-51.5 21z" />
    <glyph glyph-name="uni1EA1" unicode="&#x1ea1;" horiz-adv-x="570" 
d="M88.5 33q-48.5 44 -48.5 117q0 82 55.5 123t177.5 57q36 5 53 10.5t23.5 14.5t6.5 28q0 25 -17 40t-47 15q-39 0 -72 -19t-57 -55l-75 87q71 94 208 94q100 0 148.5 -45t48.5 -124v-376h-134v58q-36 -37 -68 -53t-79 -16q-75 0 -123.5 44zM352 162v82h-2l-74 -11
q-50 -7 -74 -26.5t-24 -54.5q0 -26 15.5 -43t46.5 -17q60 0 112 70zM222 -182q-23 23 -23 55t23 55t55 23t55 -23t23 -55t-23 -55t-55 -23t-55 23z" />
    <glyph glyph-name="agrave" unicode="&#xe0;" horiz-adv-x="570" 
d="M88.5 33q-48.5 44 -48.5 117q0 82 55.5 123t177.5 57q36 5 53 10.5t23.5 14.5t6.5 28q0 25 -17 40t-47 15q-39 0 -72 -19t-57 -55l-75 87q71 94 208 94q100 0 148.5 -45t48.5 -124v-376h-134v58q-36 -37 -68 -53t-79 -16q-75 0 -123.5 44zM352 162v82h-2l-74 -11
q-50 -7 -74 -26.5t-24 -54.5q0 -26 15.5 -43t46.5 -17q60 0 112 70zM150 741h135l56 -137h-93z" />
    <glyph glyph-name="uni1EA3" unicode="&#x1ea3;" horiz-adv-x="570" 
d="M88.5 33q-48.5 44 -48.5 117q0 82 55.5 123t177.5 57q36 5 53 10.5t23.5 14.5t6.5 28q0 25 -17 40t-47 15q-39 0 -72 -19t-57 -55l-75 87q71 94 208 94q100 0 148.5 -45t48.5 -124v-376h-134v58q-36 -37 -68 -53t-79 -16q-75 0 -123.5 44zM352 162v82h-2l-74 -11
q-50 -7 -74 -26.5t-24 -54.5q0 -26 15.5 -43t46.5 -17q60 0 112 70zM274.5 632.5q8.5 11.5 8.5 22.5q0 12 -9 19t-26 7q-30 0 -62 -16l-15 68q17 9 42.5 14t52.5 5q55 0 84 -20t29 -56q0 -16 -12 -35t-38 -37h-85q22 17 30.5 28.5z" />
    <glyph glyph-name="amacron" unicode="&#x101;" horiz-adv-x="570" 
d="M88.5 33q-48.5 44 -48.5 117q0 82 55.5 123t177.5 57q36 5 53 10.5t23.5 14.5t6.5 28q0 25 -17 40t-47 15q-39 0 -72 -19t-57 -55l-75 87q71 94 208 94q100 0 148.5 -45t48.5 -124v-376h-134v58q-36 -37 -68 -53t-79 -16q-75 0 -123.5 44zM352 162v82h-2l-74 -11
q-50 -7 -74 -26.5t-24 -54.5q0 -26 15.5 -43t46.5 -17q60 0 112 70zM126 741h333v-90h-333v90z" />
    <glyph glyph-name="aogonek" unicode="&#x105;" horiz-adv-x="570" 
d="M444.5 500q48.5 -45 48.5 -124v-376h-20q-42 -13 -70 -38t-28 -52q0 -14 11.5 -22.5t26.5 -8.5q29 0 59 20v-69q-32 -22 -76 -22q-46 0 -75.5 23t-29.5 64q0 64 68 105v58q-36 -37 -68 -53t-79 -16q-75 0 -123.5 44t-48.5 117q0 82 55.5 123t177.5 57q36 5 53 10.5
t23.5 14.5t6.5 28q0 25 -17 40t-47 15q-39 0 -72 -19t-57 -55l-75 87q71 94 208 94q100 0 148.5 -45zM352 244h-2l-74 -11q-50 -7 -74 -26.5t-24 -54.5q0 -26 15.5 -43t46.5 -17q60 0 112 70v82z" />
    <glyph glyph-name="aring" unicode="&#xe5;" horiz-adv-x="570" 
d="M88.5 33q-48.5 44 -48.5 117q0 82 55.5 123t177.5 57q36 5 53 10.5t23.5 14.5t6.5 28q0 25 -17 40t-47 15q-39 0 -72 -19t-57 -55l-75 87q71 94 208 94q100 0 148.5 -45t48.5 -124v-376h-134v58q-36 -37 -68 -53t-79 -16q-75 0 -123.5 44zM352 162v82h-2l-74 -11
q-50 -7 -74 -26.5t-24 -54.5q0 -26 15.5 -43t46.5 -17q60 0 112 70zM230 612q-26 26 -26 62q0 37 26 63t62 26q37 0 63 -26t26 -63q0 -36 -26 -62t-63 -26q-36 0 -62 26zM317.5 648.5q10.5 10.5 10.5 25.5q0 14 -10.5 25t-25.5 11t-25.5 -11t-10.5 -25q0 -15 10.5 -25.5
t25.5 -10.5t25.5 10.5z" />
    <glyph glyph-name="atilde" unicode="&#xe3;" horiz-adv-x="570" 
d="M88.5 33q-48.5 44 -48.5 117q0 82 55.5 123t177.5 57q36 5 53 10.5t23.5 14.5t6.5 28q0 25 -17 40t-47 15q-39 0 -72 -19t-57 -55l-75 87q71 94 208 94q100 0 148.5 -45t48.5 -124v-376h-134v58q-36 -37 -68 -53t-79 -16q-75 0 -123.5 44zM352 162v82h-2l-74 -11
q-50 -7 -74 -26.5t-24 -54.5q0 -26 15.5 -43t46.5 -17q60 0 112 70zM234 759q14 0 28 -5t35 -14q14 -6 28 -11t25 -5q19 0 30.5 10t25.5 30l46 -51q-18 -31 -42.5 -53.5t-53.5 -22.5q-15 0 -31 5t-38 15q-38 17 -56 17q-20 0 -31.5 -10.5t-25.5 -32.5l-42 54q47 74 102 74z
" />
    <glyph glyph-name="ae" unicode="&#xe6;" horiz-adv-x="850" 
d="M488 233q-3 -33 9 -65.5t36.5 -53t59.5 -20.5q39 0 70.5 24.5t49.5 62.5l86 -73q-35 -56 -89.5 -87.5t-129.5 -31.5q-57 0 -101.5 23.5t-75.5 64.5q-75 -88 -182 -88q-84 0 -132.5 43.5t-48.5 117.5q0 82 55.5 123t177.5 57q36 5 53 10.5t23.5 14.5t6.5 28q0 25 -17 40
t-47 15q-39 0 -76 -24t-53 -50l-75 87q71 94 208 94q102 0 148 -49q56 49 144 49q103 0 164.5 -69.5t61.5 -229.5v-13h-326zM517.5 406q-22.5 -35 -24.5 -84h183q0 51 -22.5 85t-69.5 34q-44 0 -66.5 -35zM359 170q-11 36 -12 74l-76 -12q-93 -13 -93 -80q0 -26 15.5 -43
t46.5 -17q63 0 119 78z" />
    <glyph glyph-name="b" unicode="b" 
d="M268 2q-30 13 -63 43v-45h-126v722l141 57v-298q38 33 65.5 48.5t65.5 15.5q43 0 88 -27t76 -86.5t31 -151.5q0 -156 -57.5 -223.5t-148.5 -67.5q-42 0 -72 13zM387.5 143q20.5 51 20.5 118q0 60 -21 109t-73 49q-28 0 -49 -15t-45 -43v-206q20 -29 41 -46t50 -17
q56 0 76.5 51z" />
    <glyph glyph-name="c" unicode="c" horiz-adv-x="524" 
d="M145 28q-53 39 -80 102.5t-27 136.5t26.5 136.5t79.5 102.5t128 39q92 0 141 -41.5t76 -118.5l-119 -55q-10 51 -30 81t-68 30q-50 0 -69.5 -53t-19.5 -121t19 -121.5t70 -53.5q48 0 67.5 30.5t29.5 82.5l121 -53q-22 -75 -80.5 -119t-137.5 -44q-74 0 -127 39z" />
    <glyph glyph-name="cacute" unicode="&#x107;" horiz-adv-x="524" 
d="M145 28q-53 39 -80 102.5t-27 136.5t26.5 136.5t79.5 102.5t128 39q92 0 141 -41.5t76 -118.5l-119 -55q-10 51 -30 81t-68 30q-50 0 -69.5 -53t-19.5 -121t19 -121.5t70 -53.5q48 0 67.5 30.5t29.5 82.5l121 -53q-22 -75 -80.5 -119t-137.5 -44q-74 0 -127 39zM282 741
h135l-98 -137h-93z" />
    <glyph glyph-name="ccaron" unicode="&#x10d;" horiz-adv-x="524" 
d="M145 28q-53 39 -80 102.5t-27 136.5t26.5 136.5t79.5 102.5t128 39q92 0 141 -41.5t76 -118.5l-119 -55q-10 51 -30 81t-68 30q-50 0 -69.5 -53t-19.5 -121t19 -121.5t70 -53.5q48 0 67.5 30.5t29.5 82.5l121 -53q-22 -75 -80.5 -119t-137.5 -44q-74 0 -127 39zM113 741
h104l57 -80l59 80h102l-94 -137h-134z" />
    <glyph glyph-name="ccedilla" unicode="&#xe7;" horiz-adv-x="524" 
d="M428 48.5q-44 -41.5 -106 -54.5l-21 -40q39 -10 61 -29.5t22 -53.5q0 -46 -36 -74.5t-82 -28.5q-26 0 -51.5 5t-38.5 14l15 68q4 -1 22.5 -8.5t37.5 -7.5q43 0 43 31q0 35 -71 35q-19 0 -30 -1l49 87q-65 8 -111 48.5t-69.5 100.5t-23.5 127q0 73 26.5 136.5t79.5 102.5
t128 39q92 0 141 -41.5t76 -118.5l-119 -55q-10 51 -30 81t-68 30q-50 0 -69.5 -53t-19.5 -121t19 -121.5t70 -53.5q48 0 67.5 30.5t29.5 82.5l121 -53q-18 -62 -62 -103.5z" />
    <glyph glyph-name="ccircumflex" unicode="&#x109;" horiz-adv-x="524" 
d="M145 28q-53 39 -80 102.5t-27 136.5t26.5 136.5t79.5 102.5t128 39q92 0 141 -41.5t76 -118.5l-119 -55q-10 51 -30 81t-68 30q-50 0 -69.5 -53t-19.5 -121t19 -121.5t70 -53.5q48 0 67.5 30.5t29.5 82.5l121 -53q-22 -75 -80.5 -119t-137.5 -44q-74 0 -127 39zM207 741
h134l94 -137h-102l-59 80l-57 -80h-104z" />
    <glyph glyph-name="cdotaccent" unicode="&#x10b;" horiz-adv-x="524" 
d="M145 28q-53 39 -80 102.5t-27 136.5t26.5 136.5t79.5 102.5t128 39q92 0 141 -41.5t76 -118.5l-119 -55q-10 51 -30 81t-68 30q-50 0 -69.5 -53t-19.5 -121t19 -121.5t70 -53.5q48 0 67.5 30.5t29.5 82.5l121 -53q-22 -75 -80.5 -119t-137.5 -44q-74 0 -127 39zM219 617
q-23 23 -23 55t23 55t55 23t55 -23t23 -55t-23 -55t-55 -23t-55 23z" />
    <glyph glyph-name="d" unicode="d" 
d="M103.5 56.5q-57.5 67.5 -57.5 223.5q0 92 31 151.5t76 86.5t88 27q38 0 65.5 -15.5t65.5 -48.5v241l141 57v-779h-125v45q-34 -30 -63.5 -43t-72.5 -13q-91 0 -148.5 67.5zM372 170v205q-22 27 -44 42.5t-50 15.5q-52 0 -73 -49t-21 -109q0 -66 20.5 -116t76.5 -50
q53 0 91 61z" />
    <glyph glyph-name="eth" unicode="&#xf0;" horiz-adv-x="544" 
d="M454.5 471q51.5 -98 51.5 -204q0 -74 -27 -137.5t-80 -102t-127 -38.5t-127 38.5t-80 102t-27 137.5q0 70 24 132t74 101.5t123 43.5q-44 47 -58 60l-57 -48l-40 48l51 43q-11 8 -20 17l-20 16l85 85l46 -41l40 33l39 -46l-35 -30q113 -112 164.5 -210zM342.5 145.5
q19.5 53.5 19.5 121.5q0 67 -19.5 120.5t-70.5 53.5q-50 0 -69.5 -53t-19.5 -121t19 -121.5t70 -53.5t70.5 53.5z" />
    <glyph glyph-name="dcaron" unicode="&#x10f;" 
d="M103.5 56.5q-57.5 67.5 -57.5 223.5q0 92 31 151.5t76 86.5t88 27q38 0 65.5 -15.5t65.5 -48.5v241l141 57v-779h-125v45q-34 -30 -63.5 -43t-72.5 -13q-91 0 -148.5 67.5zM372 170v205q-22 27 -44 42.5t-50 15.5q-52 0 -73 -49t-21 -109q0 -66 20.5 -116t76.5 -50
q53 0 91 61zM554 779h126l-34 -194h-101z" />
    <glyph glyph-name="dcroat" unicode="&#x111;" 
d="M573 590h-60v-590h-125v45q-34 -30 -63.5 -43t-72.5 -13q-91 0 -148.5 67.5t-57.5 223.5q0 92 31 151.5t76 86.5t88 27q38 0 65.5 -15.5t65.5 -48.5v109h-114v100h114v32l141 57v-89h60v-100zM372 375q-22 27 -44 42.5t-50 15.5q-52 0 -73 -49t-21 -109q0 -66 20.5 -116
t76.5 -50q53 0 91 61v205z" />
    <glyph glyph-name="e" unicode="e" horiz-adv-x="541" 
d="M145 28q-53 39 -80 102.5t-27 136.5t27.5 136.5t82.5 102.5t132 39q103 0 164 -69.5t61 -229.5v-13h-325q-3 -33 9 -65.5t36.5 -53t58.5 -20.5q40 0 71.5 24.5t48.5 62.5l87 -73q-76 -119 -219 -119q-74 0 -127 39zM345 407q-22 34 -69 34q-44 0 -67 -35t-25 -84h183
q0 51 -22 85z" />
    <glyph glyph-name="eacute" unicode="&#xe9;" horiz-adv-x="541" 
d="M145 28q-53 39 -80 102.5t-27 136.5t27.5 136.5t82.5 102.5t132 39q103 0 164 -69.5t61 -229.5v-13h-325q-3 -33 9 -65.5t36.5 -53t58.5 -20.5q40 0 71.5 24.5t48.5 62.5l87 -73q-76 -119 -219 -119q-74 0 -127 39zM345 407q-22 34 -69 34q-44 0 -67 -35t-25 -84h183
q0 51 -22 85zM285 741h135l-98 -137h-93z" />
    <glyph glyph-name="ebreve" unicode="&#x115;" horiz-adv-x="541" 
d="M145 28q-53 39 -80 102.5t-27 136.5t27.5 136.5t82.5 102.5t132 39q103 0 164 -69.5t61 -229.5v-13h-325q-3 -33 9 -65.5t36.5 -53t58.5 -20.5q40 0 71.5 24.5t48.5 62.5l87 -73q-76 -119 -219 -119q-74 0 -127 39zM345 407q-22 34 -69 34q-44 0 -67 -35t-25 -84h183
q0 51 -22 85zM161 633.5q-46 37.5 -50 107.5h88q4 -29 26.5 -44.5t51.5 -15.5q30 0 52.5 15.5t25.5 44.5h89q-5 -71 -50.5 -108t-116.5 -37q-70 0 -116 37.5z" />
    <glyph glyph-name="ecaron" unicode="&#x11b;" horiz-adv-x="541" 
d="M145 28q-53 39 -80 102.5t-27 136.5t27.5 136.5t82.5 102.5t132 39q103 0 164 -69.5t61 -229.5v-13h-325q-3 -33 9 -65.5t36.5 -53t58.5 -20.5q40 0 71.5 24.5t48.5 62.5l87 -73q-76 -119 -219 -119q-74 0 -127 39zM345 407q-22 34 -69 34q-44 0 -67 -35t-25 -84h183
q0 51 -22 85zM116 741h104l57 -80l59 80h102l-94 -137h-134z" />
    <glyph glyph-name="ecircumflex" unicode="&#xea;" horiz-adv-x="541" 
d="M145 28q-53 39 -80 102.5t-27 136.5t27.5 136.5t82.5 102.5t132 39q103 0 164 -69.5t61 -229.5v-13h-325q-3 -33 9 -65.5t36.5 -53t58.5 -20.5q40 0 71.5 24.5t48.5 62.5l87 -73q-76 -119 -219 -119q-74 0 -127 39zM345 407q-22 34 -69 34q-44 0 -67 -35t-25 -84h183
q0 51 -22 85zM210 741h134l94 -137h-102l-59 80l-57 -80h-104z" />
    <glyph glyph-name="uni1EBF" unicode="&#x1ebf;" horiz-adv-x="541" 
d="M145 28q-53 39 -80 102.5t-27 136.5t27.5 136.5t82.5 102.5t132 39q103 0 164 -69.5t61 -229.5v-13h-325q-3 -33 9 -65.5t36.5 -53t58.5 -20.5q40 0 71.5 24.5t48.5 62.5l87 -73q-76 -119 -219 -119q-74 0 -127 39zM345 407q-22 34 -69 34q-44 0 -67 -35t-25 -84h183
q0 51 -22 85zM298 840h135l-108 -105h-93zM210 703h134l94 -99h-102l-59 51l-57 -51h-104z" />
    <glyph glyph-name="uni1EC7" unicode="&#x1ec7;" horiz-adv-x="541" 
d="M145 28q-53 39 -80 102.5t-27 136.5t27.5 136.5t82.5 102.5t132 39q103 0 164 -69.5t61 -229.5v-13h-325q-3 -33 9 -65.5t36.5 -53t58.5 -20.5q40 0 71.5 24.5t48.5 62.5l87 -73q-76 -119 -219 -119q-74 0 -127 39zM345 407q-22 34 -69 34q-44 0 -67 -35t-25 -84h183
q0 51 -22 85zM210 741h134l94 -137h-102l-59 80l-57 -80h-104zM217 -182q-23 23 -23 55t23 55t55 23t55 -23t23 -55t-23 -55t-55 -23t-55 23z" />
    <glyph glyph-name="uni1EC1" unicode="&#x1ec1;" horiz-adv-x="541" 
d="M145 28q-53 39 -80 102.5t-27 136.5t27.5 136.5t82.5 102.5t132 39q103 0 164 -69.5t61 -229.5v-13h-325q-3 -33 9 -65.5t36.5 -53t58.5 -20.5q40 0 71.5 24.5t48.5 62.5l87 -73q-76 -119 -219 -119q-74 0 -127 39zM345 407q-22 34 -69 34q-44 0 -67 -35t-25 -84h183
q0 51 -22 85zM120 840h136l65 -105h-93zM210 703h134l94 -99h-102l-59 51l-57 -51h-104z" />
    <glyph glyph-name="uni1EC3" unicode="&#x1ec3;" horiz-adv-x="541" 
d="M145 28q-53 39 -80 102.5t-27 136.5t27.5 136.5t82.5 102.5t132 39q103 0 164 -69.5t61 -229.5v-13h-325q-3 -33 9 -65.5t36.5 -53t58.5 -20.5q40 0 71.5 24.5t48.5 62.5l87 -73q-76 -119 -219 -119q-74 0 -127 39zM345 407q-22 34 -69 34q-44 0 -67 -35t-25 -84h183
q0 51 -22 85zM406 759q0 12 -9 19t-26 7q-30 0 -62 -16l-15 68q38 19 95 19q55 0 84 -20t29 -56q0 -14 -11 -32.5t-29 -31.5h-84q28 22 28 43zM210 703h134l94 -99h-102l-59 51l-57 -51h-104z" />
    <glyph glyph-name="uni1EC5" unicode="&#x1ec5;" horiz-adv-x="541" 
d="M145 28q-53 39 -80 102.5t-27 136.5t27.5 136.5t82.5 102.5t132 39q103 0 164 -69.5t61 -229.5v-13h-325q-3 -33 9 -65.5t36.5 -53t58.5 -20.5q40 0 71.5 24.5t48.5 62.5l87 -73q-76 -119 -219 -119q-74 0 -127 39zM345 407q-22 34 -69 34q-44 0 -67 -35t-25 -84h183
q0 51 -22 85zM216 843q15 0 31 -5t40 -15q38 -16 52 -16q28 0 55 38l43 -49q-42 -63 -99 -63q-15 0 -32 5.5t-40 15.5q-3 1 -21.5 8.5t-30.5 7.5q-25 0 -55 -39l-42 49q40 63 99 63zM210 703h134l94 -99h-102l-59 51l-57 -51h-104z" />
    <glyph glyph-name="edieresis" unicode="&#xeb;" horiz-adv-x="541" 
d="M145 28q-53 39 -80 102.5t-27 136.5t27.5 136.5t82.5 102.5t132 39q103 0 164 -69.5t61 -229.5v-13h-325q-3 -33 9 -65.5t36.5 -53t58.5 -20.5q40 0 71.5 24.5t48.5 62.5l87 -73q-76 -119 -219 -119q-74 0 -127 39zM345 407q-22 34 -69 34q-44 0 -67 -35t-25 -84h183
q0 51 -22 85zM135 621q-21 21 -21 51t21 51.5t51 21.5t51.5 -21.5t21.5 -51.5t-21.5 -51t-51.5 -21t-51 21zM317.5 621q-21.5 21 -21.5 51t21.5 51.5t51.5 21.5t51 -21.5t21 -51.5t-21 -51t-51 -21t-51.5 21z" />
    <glyph glyph-name="edotaccent" unicode="&#x117;" horiz-adv-x="541" 
d="M145 28q-53 39 -80 102.5t-27 136.5t27.5 136.5t82.5 102.5t132 39q103 0 164 -69.5t61 -229.5v-13h-325q-3 -33 9 -65.5t36.5 -53t58.5 -20.5q40 0 71.5 24.5t48.5 62.5l87 -73q-76 -119 -219 -119q-74 0 -127 39zM345 407q-22 34 -69 34q-44 0 -67 -35t-25 -84h183
q0 51 -22 85zM222 617q-23 23 -23 55t23 55t55 23t55 -23t23 -55t-23 -55t-55 -23t-55 23z" />
    <glyph glyph-name="uni1EB9" unicode="&#x1eb9;" horiz-adv-x="541" 
d="M145 28q-53 39 -80 102.5t-27 136.5t27.5 136.5t82.5 102.5t132 39q103 0 164 -69.5t61 -229.5v-13h-325q-3 -33 9 -65.5t36.5 -53t58.5 -20.5q40 0 71.5 24.5t48.5 62.5l87 -73q-76 -119 -219 -119q-74 0 -127 39zM345 407q-22 34 -69 34q-44 0 -67 -35t-25 -84h183
q0 51 -22 85zM217 -182q-23 23 -23 55t23 55t55 23t55 -23t23 -55t-23 -55t-55 -23t-55 23z" />
    <glyph glyph-name="egrave" unicode="&#xe8;" horiz-adv-x="541" 
d="M145 28q-53 39 -80 102.5t-27 136.5t27.5 136.5t82.5 102.5t132 39q103 0 164 -69.5t61 -229.5v-13h-325q-3 -33 9 -65.5t36.5 -53t58.5 -20.5q40 0 71.5 24.5t48.5 62.5l87 -73q-76 -119 -219 -119q-74 0 -127 39zM345 407q-22 34 -69 34q-44 0 -67 -35t-25 -84h183
q0 51 -22 85zM135 741h135l56 -137h-93z" />
    <glyph glyph-name="uni1EBB" unicode="&#x1ebb;" horiz-adv-x="541" 
d="M145 28q-53 39 -80 102.5t-27 136.5t27.5 136.5t82.5 102.5t132 39q103 0 164 -69.5t61 -229.5v-13h-325q-3 -33 9 -65.5t36.5 -53t58.5 -20.5q40 0 71.5 24.5t48.5 62.5l87 -73q-76 -119 -219 -119q-74 0 -127 39zM345 407q-22 34 -69 34q-44 0 -67 -35t-25 -84h183
q0 51 -22 85zM259.5 632.5q8.5 11.5 8.5 22.5q0 12 -9 19t-26 7q-30 0 -62 -16l-15 68q17 9 42.5 14t52.5 5q55 0 84 -20t29 -56q0 -16 -12 -35t-38 -37h-85q22 17 30.5 28.5z" />
    <glyph glyph-name="emacron" unicode="&#x113;" horiz-adv-x="541" 
d="M145 28q-53 39 -80 102.5t-27 136.5t27.5 136.5t82.5 102.5t132 39q103 0 164 -69.5t61 -229.5v-13h-325q-3 -33 9 -65.5t36.5 -53t58.5 -20.5q40 0 71.5 24.5t48.5 62.5l87 -73q-76 -119 -219 -119q-74 0 -127 39zM345 407q-22 34 -69 34q-44 0 -67 -35t-25 -84h183
q0 51 -22 85zM111 741h333v-90h-333v90z" />
    <glyph glyph-name="eogonek" unicode="&#x119;" horiz-adv-x="541" 
d="M327.5 -169q-29.5 23 -29.5 64q0 28 12 50.5t39 53.5q-34 -10 -77 -10q-74 0 -127 39t-80 102.5t-27 136.5t27.5 136.5t82.5 102.5t132 39q103 0 164 -69.5t61 -229.5v-13h-325q-3 -33 9 -65.5t36.5 -53t58.5 -20.5q40 0 71.5 24.5t48.5 62.5l87 -73q-54 -77 -81 -121.5
t-27 -70.5q0 -18 11.5 -27.5t26.5 -9.5q28 0 58 20v-69q-32 -22 -75 -22q-47 0 -76.5 23zM345 407q-22 34 -69 34q-44 0 -67 -35t-25 -84h183q0 51 -22 85z" />
    <glyph glyph-name="uni1EBD" unicode="&#x1ebd;" horiz-adv-x="541" 
d="M145 28q-53 39 -80 102.5t-27 136.5t27.5 136.5t82.5 102.5t132 39q103 0 164 -69.5t61 -229.5v-13h-325q-3 -33 9 -65.5t36.5 -53t58.5 -20.5q40 0 71.5 24.5t48.5 62.5l87 -73q-76 -119 -219 -119q-74 0 -127 39zM345 407q-22 34 -69 34q-44 0 -67 -35t-25 -84h183
q0 51 -22 85zM219 759q14 0 28 -5t35 -14q14 -6 28 -11t25 -5q19 0 30.5 10t25.5 30l46 -51q-18 -31 -42.5 -53.5t-53.5 -22.5q-15 0 -31 5t-38 15q-38 17 -56 17q-20 0 -31.5 -10.5t-25.5 -32.5l-42 54q47 74 102 74z" />
    <glyph glyph-name="f" unicode="f" horiz-adv-x="343" 
d="M24 416v117h70v57q0 70 43 118t127 48q60 0 116 -25l-38 -107q-33 12 -54 12q-53 0 -53 -63v-40h116l-22 -117h-94v-416h-141v416h-70z" />
    <glyph glyph-name="g" unicode="g" horiz-adv-x="553" 
d="M504.5 74.5q40.5 -30.5 40.5 -90.5q0 -76 -59.5 -123.5t-204.5 -47.5q-129 0 -188.5 39.5t-59.5 98.5q0 30 15 49.5t42 35.5q-38 31 -38 73q0 27 13.5 52.5t48.5 62.5q-29 26 -45.5 60.5t-16.5 73.5q0 57 29.5 99.5t78.5 65t107 22.5q73 0 131 -37q24 22 45.5 32.5
t53.5 10.5q19 0 39 -3v-99q-31 11 -45 11q-17 0 -34 -12q25 -42 25 -90q0 -57 -29.5 -99.5t-79 -65t-107.5 -22.5q-35 0 -72 10q-7 -6 -13 -15.5t-6 -18.5q0 -15 14.5 -21.5t52.5 -8.5l144 -7q78 -5 118.5 -35.5zM208 424.5q-18 -28.5 -18 -68.5q0 -42 19 -67.5t57 -25.5
q41 0 59.5 28.5t18.5 68.5q0 42 -19 67.5t-58 25.5q-41 0 -59 -28.5zM381.5 -79q47.5 11 47.5 40q0 17 -21 22.5t-82 8.5l-143 10l-11 1q-24 -13 -24 -37q0 -32 42 -44t92 -12q52 0 99.5 11z" />
    <glyph glyph-name="gbreve" unicode="&#x11f;" horiz-adv-x="553" 
d="M504.5 74.5q40.5 -30.5 40.5 -90.5q0 -76 -59.5 -123.5t-204.5 -47.5q-129 0 -188.5 39.5t-59.5 98.5q0 30 15 49.5t42 35.5q-38 31 -38 73q0 27 13.5 52.5t48.5 62.5q-29 26 -45.5 60.5t-16.5 73.5q0 57 29.5 99.5t78.5 65t107 22.5q73 0 131 -37q24 22 45.5 32.5
t53.5 10.5q19 0 39 -3v-99q-31 11 -45 11q-17 0 -34 -12q25 -42 25 -90q0 -57 -29.5 -99.5t-79 -65t-107.5 -22.5q-35 0 -72 10q-7 -6 -13 -15.5t-6 -18.5q0 -15 14.5 -21.5t52.5 -8.5l144 -7q78 -5 118.5 -35.5zM208 424.5q-18 -28.5 -18 -68.5q0 -42 19 -67.5t57 -25.5
q41 0 59.5 28.5t18.5 68.5q0 42 -19 67.5t-58 25.5q-41 0 -59 -28.5zM381.5 -79q47.5 11 47.5 40q0 17 -21 22.5t-82 8.5l-143 10l-11 1q-24 -13 -24 -37q0 -32 42 -44t92 -12q52 0 99.5 11zM152 633.5q-46 37.5 -50 107.5h88q4 -29 26.5 -44.5t51.5 -15.5q30 0 52.5 15.5
t25.5 44.5h89q-5 -71 -50.5 -108t-116.5 -37q-70 0 -116 37.5z" />
    <glyph glyph-name="gcircumflex" unicode="&#x11d;" horiz-adv-x="553" 
d="M504.5 74.5q40.5 -30.5 40.5 -90.5q0 -76 -59.5 -123.5t-204.5 -47.5q-129 0 -188.5 39.5t-59.5 98.5q0 30 15 49.5t42 35.5q-38 31 -38 73q0 27 13.5 52.5t48.5 62.5q-29 26 -45.5 60.5t-16.5 73.5q0 57 29.5 99.5t78.5 65t107 22.5q73 0 131 -37q24 22 45.5 32.5
t53.5 10.5q19 0 39 -3v-99q-31 11 -45 11q-17 0 -34 -12q25 -42 25 -90q0 -57 -29.5 -99.5t-79 -65t-107.5 -22.5q-35 0 -72 10q-7 -6 -13 -15.5t-6 -18.5q0 -15 14.5 -21.5t52.5 -8.5l144 -7q78 -5 118.5 -35.5zM208 424.5q-18 -28.5 -18 -68.5q0 -42 19 -67.5t57 -25.5
q41 0 59.5 28.5t18.5 68.5q0 42 -19 67.5t-58 25.5q-41 0 -59 -28.5zM381.5 -79q47.5 11 47.5 40q0 17 -21 22.5t-82 8.5l-143 10l-11 1q-24 -13 -24 -37q0 -32 42 -44t92 -12q52 0 99.5 11zM201 741h134l94 -137h-102l-59 80l-57 -80h-104z" />
    <glyph glyph-name="uni0123" unicode="&#x123;" horiz-adv-x="553" 
d="M504.5 74.5q40.5 -30.5 40.5 -90.5q0 -76 -59.5 -123.5t-204.5 -47.5q-129 0 -188.5 39.5t-59.5 98.5q0 30 15 49.5t42 35.5q-38 31 -38 73q0 27 13.5 52.5t48.5 62.5q-29 26 -45.5 60.5t-16.5 73.5q0 57 29.5 99.5t78.5 65t107 22.5q73 0 131 -37q24 22 45.5 32.5
t53.5 10.5q19 0 39 -3v-99q-31 11 -45 11q-17 0 -34 -12q25 -42 25 -90q0 -57 -29.5 -99.5t-79 -65t-107.5 -22.5q-35 0 -72 10q-7 -6 -13 -15.5t-6 -18.5q0 -15 14.5 -21.5t52.5 -8.5l144 -7q78 -5 118.5 -35.5zM208 424.5q-18 -28.5 -18 -68.5q0 -42 19 -67.5t57 -25.5
q41 0 59.5 28.5t18.5 68.5q0 42 -19 67.5t-58 25.5q-41 0 -59 -28.5zM381.5 -79q47.5 11 47.5 40q0 17 -21 22.5t-82 8.5l-143 10l-11 1q-24 -13 -24 -37q0 -32 42 -44t92 -12q52 0 99.5 11zM295 741h93l-56 -137h-135z" />
    <glyph glyph-name="gdotaccent" unicode="&#x121;" horiz-adv-x="553" 
d="M504.5 74.5q40.5 -30.5 40.5 -90.5q0 -76 -59.5 -123.5t-204.5 -47.5q-129 0 -188.5 39.5t-59.5 98.5q0 30 15 49.5t42 35.5q-38 31 -38 73q0 27 13.5 52.5t48.5 62.5q-29 26 -45.5 60.5t-16.5 73.5q0 57 29.5 99.5t78.5 65t107 22.5q73 0 131 -37q24 22 45.5 32.5
t53.5 10.5q19 0 39 -3v-99q-31 11 -45 11q-17 0 -34 -12q25 -42 25 -90q0 -57 -29.5 -99.5t-79 -65t-107.5 -22.5q-35 0 -72 10q-7 -6 -13 -15.5t-6 -18.5q0 -15 14.5 -21.5t52.5 -8.5l144 -7q78 -5 118.5 -35.5zM208 424.5q-18 -28.5 -18 -68.5q0 -42 19 -67.5t57 -25.5
q41 0 59.5 28.5t18.5 68.5q0 42 -19 67.5t-58 25.5q-41 0 -59 -28.5zM381.5 -79q47.5 11 47.5 40q0 17 -21 22.5t-82 8.5l-143 10l-11 1q-24 -13 -24 -37q0 -32 42 -44t92 -12q52 0 99.5 11zM213 617q-23 23 -23 55t23 55t55 23t55 -23t23 -55t-23 -55t-55 -23t-55 23z" />
    <glyph glyph-name="h" unicode="h" horiz-adv-x="596" 
d="M220 779v-301q37 30 77 48.5t80 18.5q56 0 99 -39t43 -128v-378h-141v327q0 50 -11 76.5t-46 26.5q-27 0 -51 -15t-50 -39v-376h-141v722z" />
    <glyph glyph-name="hbar" unicode="&#x127;" horiz-adv-x="596" 
d="M476 506q43 -39 43 -128v-378h-141v327q0 50 -11 76.5t-46 26.5q-27 0 -51 -15t-50 -39v-376h-141v590h-60v100h60v32l141 57v-89h113v-100h-113v-112q37 30 77 48.5t80 18.5q56 0 99 -39z" />
    <glyph glyph-name="hcircumflex" unicode="&#x125;" horiz-adv-x="596" 
d="M220 779v-301q37 30 77 48.5t80 18.5q56 0 99 -39t43 -128v-378h-141v327q0 50 -11 76.5t-46 26.5q-27 0 -51 -15t-50 -39v-376h-141v722zM85 957h134l94 -137h-102l-59 80l-57 -80h-104z" />
    <glyph glyph-name="i" unicode="i" horiz-adv-x="299" 
d="M91.5 615.5q-24.5 24.5 -24.5 57.5q0 34 24.5 58t57.5 24q34 0 58 -24t24 -58q0 -33 -24 -57.5t-58 -24.5q-33 0 -57.5 24.5zM79 533h141v-533h-141v533z" />
    <glyph glyph-name="dotlessi" unicode="&#x131;" horiz-adv-x="299" 
d="M79 533h141v-533h-141v533z" />
    <glyph glyph-name="iacute" unicode="&#xed;" horiz-adv-x="299" 
d="M79 533h141v-533h-141v533zM157 741h135l-98 -137h-93z" />
    <glyph glyph-name="ibreve" unicode="&#x12d;" horiz-adv-x="299" 
d="M79 533h141v-533h-141v533zM33 633.5q-46 37.5 -50 107.5h88q4 -29 26.5 -44.5t51.5 -15.5q30 0 52.5 15.5t25.5 44.5h89q-5 -71 -50.5 -108t-116.5 -37q-70 0 -116 37.5z" />
    <glyph glyph-name="icircumflex" unicode="&#xee;" horiz-adv-x="299" 
d="M79 533h141v-533h-141v533zM82 741h134l94 -137h-102l-59 80l-57 -80h-104z" />
    <glyph glyph-name="idieresis" unicode="&#xef;" horiz-adv-x="299" 
d="M79 533h141v-533h-141v533zM7 621q-21 21 -21 51t21 51.5t51 21.5t51.5 -21.5t21.5 -51.5t-21.5 -51t-51.5 -21t-51 21zM189.5 621q-21.5 21 -21.5 51t21.5 51.5t51.5 21.5t51 -21.5t21 -51.5t-21 -51t-51 -21t-51.5 21z" />
    <glyph glyph-name="uni1ECB" unicode="&#x1ecb;" horiz-adv-x="299" 
d="M91.5 615.5q-24.5 24.5 -24.5 57.5q0 34 24.5 58t57.5 24q34 0 58 -24t24 -58q0 -33 -24 -57.5t-58 -24.5q-33 0 -57.5 24.5zM79 533h141v-533h-141v533zM99 -182q-23 23 -23 55t23 55t55 23t55 -23t23 -55t-23 -55t-55 -23t-55 23z" />
    <glyph glyph-name="igrave" unicode="&#xec;" horiz-adv-x="299" 
d="M79 533h141v-533h-141v533zM7 741h135l56 -137h-93z" />
    <glyph glyph-name="uni1EC9" unicode="&#x1ec9;" horiz-adv-x="299" 
d="M79 533h141v-533h-141v533zM131.5 632.5q8.5 11.5 8.5 22.5q0 12 -9 19t-26 7q-30 0 -62 -16l-15 68q17 9 42.5 14t52.5 5q55 0 84 -20t29 -56q0 -16 -12 -35t-38 -37h-85q22 17 30.5 28.5z" />
    <glyph glyph-name="ij" unicode="&#x133;" horiz-adv-x="598" 
d="M91.5 615.5q-24.5 24.5 -24.5 57.5q0 34 24.5 58t57.5 24q34 0 58 -24t24 -58q0 -33 -24 -57.5t-58 -24.5q-33 0 -57.5 24.5zM79 533h141v-533h-141v533zM390.5 615.5q-24.5 24.5 -24.5 57.5q0 34 24.5 58t57.5 24q34 0 58 -24t24 -58q0 -33 -24 -57.5t-58 -24.5
q-33 0 -57.5 24.5zM280 -182v113q32 -4 42 -4q30 0 43 18t13 63v525h141v-529q0 -96 -41.5 -143t-136.5 -47q-32 0 -61 4z" />
    <glyph glyph-name="imacron" unicode="&#x12b;" horiz-adv-x="299" 
d="M79 533h141v-533h-141v533zM-17 741h333v-90h-333v90z" />
    <glyph glyph-name="iogonek" unicode="&#x12f;" horiz-adv-x="299" 
d="M91.5 615.5q-24.5 24.5 -24.5 57.5q0 34 24.5 58t57.5 24q34 0 58 -24t24 -58q0 -33 -24 -57.5t-58 -24.5q-33 0 -57.5 24.5zM79 533h141v-533h-22q-42 -13 -70 -38t-28 -52q0 -14 11.5 -22.5t26.5 -8.5q29 0 59 20v-69q-32 -22 -76 -22q-46 0 -75.5 23t-29.5 64
q0 64 68 105h-5v533z" />
    <glyph glyph-name="itilde" unicode="&#x129;" horiz-adv-x="299" 
d="M79 533h141v-533h-141v533zM91 759q14 0 28 -5t35 -14q14 -6 28 -11t25 -5q19 0 30.5 10t25.5 30l46 -51q-18 -31 -42.5 -53.5t-53.5 -22.5q-15 0 -31 5t-38 15q-38 17 -56 17q-20 0 -31.5 -10.5t-25.5 -32.5l-42 54q47 74 102 74z" />
    <glyph glyph-name="j" unicode="j" horiz-adv-x="299" 
d="M91.5 615.5q-24.5 24.5 -24.5 57.5q0 34 24.5 58t57.5 24q34 0 58 -24t24 -58q0 -33 -24 -57.5t-58 -24.5q-33 0 -57.5 24.5zM-19 -182v113q32 -4 42 -4q30 0 43 18t13 63v525h141v-529q0 -96 -41.5 -143t-136.5 -47q-32 0 -61 4z" />
    <glyph glyph-name="uni0237" unicode="&#x237;" horiz-adv-x="299" 
d="M-19 -182v113q32 -4 42 -4q30 0 43 18t13 63v525h141v-529q0 -96 -41.5 -143t-136.5 -47q-32 0 -61 4z" />
    <glyph glyph-name="jcircumflex" unicode="&#x135;" horiz-adv-x="299" 
d="M-19 -182v113q32 -4 42 -4q30 0 43 18t13 63v525h141v-529q0 -96 -41.5 -143t-136.5 -47q-32 0 -61 4zM82 741h134l94 -137h-102l-59 80l-57 -80h-104z" />
    <glyph glyph-name="k" unicode="k" horiz-adv-x="552" 
d="M388 0l-119 223l-49 -62v-161h-141v722l141 57v-328q0 -84 -2 -126h1q54 80 79 113l70 95h162l-163 -202l179 -331h-158z" />
    <glyph glyph-name="uni0137" unicode="&#x137;" horiz-adv-x="552" 
d="M388 0l-119 223l-49 -62v-161h-141v722l141 57v-328q0 -84 -2 -126h1q54 80 79 113l70 95h162l-163 -202l179 -331h-158zM238 -58h135l-98 -137h-93z" />
    <glyph glyph-name="kgreenlandic" unicode="&#x138;" horiz-adv-x="552" 
d="M388 0l-119 223l-49 -62v-161h-141v533h141v-82q0 -84 -2 -126h1q54 80 79 113l70 95h162l-163 -202l179 -331h-158z" />
    <glyph glyph-name="l" unicode="l" horiz-adv-x="299" 
d="M79 722l141 57v-779h-141v722z" />
    <glyph glyph-name="lacute" unicode="&#x13a;" horiz-adv-x="299" 
d="M79 722l141 57v-779h-141v722zM161 957h135l-98 -137h-93z" />
    <glyph glyph-name="lcaron" unicode="&#x13e;" horiz-adv-x="299" 
d="M79 722l141 57v-779h-141v722zM260 779h126l-34 -194h-101z" />
    <glyph glyph-name="uni013C" unicode="&#x13c;" horiz-adv-x="299" 
d="M79 722l141 57v-779h-141v722zM83 -58h135l-98 -137h-93z" />
    <glyph glyph-name="ldot" unicode="&#x140;" horiz-adv-x="384" 
d="M79 722l141 57v-779h-141v722zM277.5 316.5q-25.5 25.5 -25.5 60.5t25.5 60.5t60.5 25.5t60 -25.5t25 -60.5t-25.5 -60.5t-59.5 -25.5q-35 0 -60.5 25.5z" />
    <glyph glyph-name="lslash" unicode="&#x142;" horiz-adv-x="301" 
d="M306 424l-86 -42v-382h-141v313l-52 -26l-31 74l83 41v320l141 57v-308l55 27z" />
    <glyph glyph-name="m" unicode="m" horiz-adv-x="906" 
d="M220 533v-55q81 67 159 67q49 0 82.5 -18t53.5 -56q44 36 82 55t83 19q65 0 107 -42t42 -117v-386h-141v348q0 39 -10.5 61t-45.5 22q-32 0 -60 -17t-47 -45v-369h-141v349q0 38 -10.5 60t-46.5 22q-32 0 -59.5 -17t-47.5 -45v-369h-141v533h141z" />
    <glyph glyph-name="n" unicode="n" horiz-adv-x="596" 
d="M220 533v-55q37 30 77 48.5t80 18.5q56 0 99 -39t43 -128v-378h-141v327q0 50 -11 76.5t-46 26.5q-27 0 -51 -15t-50 -39v-376h-141v533h141z" />
    <glyph glyph-name="nacute" unicode="&#x144;" horiz-adv-x="596" 
d="M220 533v-55q37 30 77 48.5t80 18.5q56 0 99 -39t43 -128v-378h-141v327q0 50 -11 76.5t-46 26.5q-27 0 -51 -15t-50 -39v-376h-141v533h141zM314 741h135l-98 -137h-93z" />
    <glyph glyph-name="napostrophe" unicode="&#x149;" horiz-adv-x="596" 
d="M220 533v-55q37 30 77 48.5t80 18.5q56 0 99 -39t43 -128v-378h-141v327q0 50 -11 76.5t-46 26.5q-27 0 -51 -15t-50 -39v-376h-141v533h141zM114 741h145l-80 -137h-102z" />
    <glyph glyph-name="ncaron" unicode="&#x148;" horiz-adv-x="596" 
d="M220 533v-55q37 30 77 48.5t80 18.5q56 0 99 -39t43 -128v-378h-141v327q0 50 -11 76.5t-46 26.5q-27 0 -51 -15t-50 -39v-376h-141v533h141zM145 741h104l57 -80l59 80h102l-94 -137h-134z" />
    <glyph glyph-name="uni0146" unicode="&#x146;" horiz-adv-x="596" 
d="M220 533v-55q37 30 77 48.5t80 18.5q56 0 99 -39t43 -128v-378h-141v327q0 50 -11 76.5t-46 26.5q-27 0 -51 -15t-50 -39v-376h-141v533h141zM232 -58h135l-98 -137h-93z" />
    <glyph glyph-name="eng" unicode="&#x14b;" horiz-adv-x="596" 
d="M280 -182v113q32 -4 42 -4q30 0 43 18t13 63v319q0 50 -11 76.5t-46 26.5q-27 0 -51 -15t-50 -39v-376h-141v533h141v-55q37 30 77 48.5t80 18.5q56 0 99 -39t43 -128v-374q0 -96 -41.5 -143t-136.5 -47q-32 0 -61 4z" />
    <glyph glyph-name="ntilde" unicode="&#xf1;" horiz-adv-x="596" 
d="M220 533v-55q37 30 77 48.5t80 18.5q56 0 99 -39t43 -128v-378h-141v327q0 50 -11 76.5t-46 26.5q-27 0 -51 -15t-50 -39v-376h-141v533h141zM248 759q14 0 28 -5t35 -14q14 -6 28 -11t25 -5q19 0 30.5 10t25.5 30l46 -51q-18 -31 -42.5 -53.5t-53.5 -22.5q-15 0 -31 5
t-38 15q-38 17 -56 17q-20 0 -31.5 -10.5t-25.5 -32.5l-42 54q47 74 102 74z" />
    <glyph glyph-name="o" unicode="o" horiz-adv-x="544" 
d="M145 27.5q-53 38.5 -80 102t-27 137.5t26.5 137.5t79.5 102t128 38.5t128 -38.5t79.5 -102t26.5 -137.5t-27 -137.5t-80 -102t-127 -38.5t-127 38.5zM342.5 145.5q19.5 53.5 19.5 121.5q0 67 -19.5 120.5t-70.5 53.5q-50 0 -69.5 -53t-19.5 -121t19 -121.5t70 -53.5
t70.5 53.5z" />
    <glyph glyph-name="oacute" unicode="&#xf3;" horiz-adv-x="544" 
d="M145 27.5q-53 38.5 -80 102t-27 137.5t26.5 137.5t79.5 102t128 38.5t128 -38.5t79.5 -102t26.5 -137.5t-27 -137.5t-80 -102t-127 -38.5t-127 38.5zM342.5 145.5q19.5 53.5 19.5 121.5q0 67 -19.5 120.5t-70.5 53.5q-50 0 -69.5 -53t-19.5 -121t19 -121.5t70 -53.5
t70.5 53.5zM280 741h135l-98 -137h-93z" />
    <glyph glyph-name="obreve" unicode="&#x14f;" horiz-adv-x="544" 
d="M145 27.5q-53 38.5 -80 102t-27 137.5t26.5 137.5t79.5 102t128 38.5t128 -38.5t79.5 -102t26.5 -137.5t-27 -137.5t-80 -102t-127 -38.5t-127 38.5zM342.5 145.5q19.5 53.5 19.5 121.5q0 67 -19.5 120.5t-70.5 53.5q-50 0 -69.5 -53t-19.5 -121t19 -121.5t70 -53.5
t70.5 53.5zM156 633.5q-46 37.5 -50 107.5h88q4 -29 26.5 -44.5t51.5 -15.5q30 0 52.5 15.5t25.5 44.5h89q-5 -71 -50.5 -108t-116.5 -37q-70 0 -116 37.5z" />
    <glyph glyph-name="ocircumflex" unicode="&#xf4;" horiz-adv-x="544" 
d="M145 27.5q-53 38.5 -80 102t-27 137.5t26.5 137.5t79.5 102t128 38.5t128 -38.5t79.5 -102t26.5 -137.5t-27 -137.5t-80 -102t-127 -38.5t-127 38.5zM342.5 145.5q19.5 53.5 19.5 121.5q0 67 -19.5 120.5t-70.5 53.5q-50 0 -69.5 -53t-19.5 -121t19 -121.5t70 -53.5
t70.5 53.5zM205 741h134l94 -137h-102l-59 80l-57 -80h-104z" />
    <glyph glyph-name="uni1ED1" unicode="&#x1ed1;" horiz-adv-x="544" 
d="M145 27.5q-53 38.5 -80 102t-27 137.5t26.5 137.5t79.5 102t128 38.5t128 -38.5t79.5 -102t26.5 -137.5t-27 -137.5t-80 -102t-127 -38.5t-127 38.5zM342.5 145.5q19.5 53.5 19.5 121.5q0 67 -19.5 120.5t-70.5 53.5q-50 0 -69.5 -53t-19.5 -121t19 -121.5t70 -53.5
t70.5 53.5zM293 840h135l-108 -105h-93zM205 703h134l94 -99h-102l-59 51l-57 -51h-104z" />
    <glyph glyph-name="uni1ED9" unicode="&#x1ed9;" horiz-adv-x="544" 
d="M145 27.5q-53 38.5 -80 102t-27 137.5t26.5 137.5t79.5 102t128 38.5t128 -38.5t79.5 -102t26.5 -137.5t-27 -137.5t-80 -102t-127 -38.5t-127 38.5zM342.5 145.5q19.5 53.5 19.5 121.5q0 67 -19.5 120.5t-70.5 53.5q-50 0 -69.5 -53t-19.5 -121t19 -121.5t70 -53.5
t70.5 53.5zM205 741h134l94 -137h-102l-59 80l-57 -80h-104zM217 -182q-23 23 -23 55t23 55t55 23t55 -23t23 -55t-23 -55t-55 -23t-55 23z" />
    <glyph glyph-name="uni1ED3" unicode="&#x1ed3;" horiz-adv-x="544" 
d="M145 27.5q-53 38.5 -80 102t-27 137.5t26.5 137.5t79.5 102t128 38.5t128 -38.5t79.5 -102t26.5 -137.5t-27 -137.5t-80 -102t-127 -38.5t-127 38.5zM342.5 145.5q19.5 53.5 19.5 121.5q0 67 -19.5 120.5t-70.5 53.5q-50 0 -69.5 -53t-19.5 -121t19 -121.5t70 -53.5
t70.5 53.5zM115 840h136l65 -105h-93zM205 703h134l94 -99h-102l-59 51l-57 -51h-104z" />
    <glyph glyph-name="uni1ED5" unicode="&#x1ed5;" horiz-adv-x="544" 
d="M145 27.5q-53 38.5 -80 102t-27 137.5t26.5 137.5t79.5 102t128 38.5t128 -38.5t79.5 -102t26.5 -137.5t-27 -137.5t-80 -102t-127 -38.5t-127 38.5zM342.5 145.5q19.5 53.5 19.5 121.5q0 67 -19.5 120.5t-70.5 53.5q-50 0 -69.5 -53t-19.5 -121t19 -121.5t70 -53.5
t70.5 53.5zM401 759q0 12 -9 19t-26 7q-30 0 -62 -16l-15 68q38 19 95 19q55 0 84 -20t29 -56q0 -14 -11 -32.5t-29 -31.5h-84q28 22 28 43zM205 703h134l94 -99h-102l-59 51l-57 -51h-104z" />
    <glyph glyph-name="uni1ED7" unicode="&#x1ed7;" horiz-adv-x="544" 
d="M145 27.5q-53 38.5 -80 102t-27 137.5t26.5 137.5t79.5 102t128 38.5t128 -38.5t79.5 -102t26.5 -137.5t-27 -137.5t-80 -102t-127 -38.5t-127 38.5zM342.5 145.5q19.5 53.5 19.5 121.5q0 67 -19.5 120.5t-70.5 53.5q-50 0 -69.5 -53t-19.5 -121t19 -121.5t70 -53.5
t70.5 53.5zM211 843q15 0 31 -5t40 -15q38 -16 52 -16q28 0 55 38l43 -49q-42 -63 -99 -63q-15 0 -32 5.5t-40 15.5q-3 1 -21.5 8.5t-30.5 7.5q-25 0 -55 -39l-42 49q40 63 99 63zM205 703h134l94 -99h-102l-59 51l-57 -51h-104z" />
    <glyph glyph-name="odieresis" unicode="&#xf6;" horiz-adv-x="544" 
d="M145 27.5q-53 38.5 -80 102t-27 137.5t26.5 137.5t79.5 102t128 38.5t128 -38.5t79.5 -102t26.5 -137.5t-27 -137.5t-80 -102t-127 -38.5t-127 38.5zM342.5 145.5q19.5 53.5 19.5 121.5q0 67 -19.5 120.5t-70.5 53.5q-50 0 -69.5 -53t-19.5 -121t19 -121.5t70 -53.5
t70.5 53.5zM130 621q-21 21 -21 51t21 51.5t51 21.5t51.5 -21.5t21.5 -51.5t-21.5 -51t-51.5 -21t-51 21zM312.5 621q-21.5 21 -21.5 51t21.5 51.5t51.5 21.5t51 -21.5t21 -51.5t-21 -51t-51 -21t-51.5 21z" />
    <glyph glyph-name="uni1ECD" unicode="&#x1ecd;" horiz-adv-x="544" 
d="M145 27.5q-53 38.5 -80 102t-27 137.5t26.5 137.5t79.5 102t128 38.5t128 -38.5t79.5 -102t26.5 -137.5t-27 -137.5t-80 -102t-127 -38.5t-127 38.5zM342.5 145.5q19.5 53.5 19.5 121.5q0 67 -19.5 120.5t-70.5 53.5q-50 0 -69.5 -53t-19.5 -121t19 -121.5t70 -53.5
t70.5 53.5zM217 -182q-23 23 -23 55t23 55t55 23t55 -23t23 -55t-23 -55t-55 -23t-55 23z" />
    <glyph glyph-name="ograve" unicode="&#xf2;" horiz-adv-x="544" 
d="M145 27.5q-53 38.5 -80 102t-27 137.5t26.5 137.5t79.5 102t128 38.5t128 -38.5t79.5 -102t26.5 -137.5t-27 -137.5t-80 -102t-127 -38.5t-127 38.5zM342.5 145.5q19.5 53.5 19.5 121.5q0 67 -19.5 120.5t-70.5 53.5q-50 0 -69.5 -53t-19.5 -121t19 -121.5t70 -53.5
t70.5 53.5zM130 741h135l56 -137h-93z" />
    <glyph glyph-name="uni1ECF" unicode="&#x1ecf;" horiz-adv-x="544" 
d="M145 27.5q-53 38.5 -80 102t-27 137.5t26.5 137.5t79.5 102t128 38.5t128 -38.5t79.5 -102t26.5 -137.5t-27 -137.5t-80 -102t-127 -38.5t-127 38.5zM342.5 145.5q19.5 53.5 19.5 121.5q0 67 -19.5 120.5t-70.5 53.5q-50 0 -69.5 -53t-19.5 -121t19 -121.5t70 -53.5
t70.5 53.5zM254.5 632.5q8.5 11.5 8.5 22.5q0 12 -9 19t-26 7q-30 0 -62 -16l-15 68q17 9 42.5 14t52.5 5q55 0 84 -20t29 -56q0 -16 -12 -35t-38 -37h-85q22 17 30.5 28.5z" />
    <glyph glyph-name="ohorn" unicode="&#x1a1;" horiz-adv-x="544" 
d="M503.5 504.5q-17.5 -31.5 -53.5 -48.5q27 -38 41.5 -87t14.5 -102q0 -74 -27 -137.5t-80 -102t-127 -38.5t-127 38.5t-80 102t-27 137.5t26.5 137.5t79.5 102t128 38.5h1v0h1h1q28 0 60 -6q22 -4 29 -4q22 0 32.5 11.5t10.5 39.5q0 31 -11 69h113q7 -24 9.5 -41t2.5 -41
q0 -37 -17.5 -68.5zM342.5 145.5q19.5 53.5 19.5 121.5q0 67 -19.5 120.5t-70.5 53.5q-50 0 -69.5 -53t-19.5 -121t19 -121.5t70 -53.5t70.5 53.5z" />
    <glyph glyph-name="uni1EDB" unicode="&#x1edb;" horiz-adv-x="544" 
d="M503.5 504.5q-17.5 -31.5 -53.5 -48.5q27 -38 41.5 -87t14.5 -102q0 -74 -27 -137.5t-80 -102t-127 -38.5t-127 38.5t-80 102t-27 137.5t26.5 137.5t79.5 102t128 38.5h1v0h1h1q28 0 60 -6q22 -4 29 -4q22 0 32.5 11.5t10.5 39.5q0 31 -11 69h113q7 -24 9.5 -41t2.5 -41
q0 -37 -17.5 -68.5zM342.5 145.5q19.5 53.5 19.5 121.5q0 67 -19.5 120.5t-70.5 53.5q-50 0 -69.5 -53t-19.5 -121t19 -121.5t70 -53.5t70.5 53.5zM280 741h135l-98 -137h-93z" />
    <glyph glyph-name="uni1EE3" unicode="&#x1ee3;" horiz-adv-x="544" 
d="M503.5 504.5q-17.5 -31.5 -53.5 -48.5q27 -38 41.5 -87t14.5 -102q0 -74 -27 -137.5t-80 -102t-127 -38.5t-127 38.5t-80 102t-27 137.5t26.5 137.5t79.5 102t128 38.5h1v0h1h1q28 0 60 -6q22 -4 29 -4q22 0 32.5 11.5t10.5 39.5q0 31 -11 69h113q7 -24 9.5 -41t2.5 -41
q0 -37 -17.5 -68.5zM342.5 145.5q19.5 53.5 19.5 121.5q0 67 -19.5 120.5t-70.5 53.5q-50 0 -69.5 -53t-19.5 -121t19 -121.5t70 -53.5t70.5 53.5zM217 -182q-23 23 -23 55t23 55t55 23t55 -23t23 -55t-23 -55t-55 -23t-55 23z" />
    <glyph glyph-name="uni1EDD" unicode="&#x1edd;" horiz-adv-x="544" 
d="M503.5 504.5q-17.5 -31.5 -53.5 -48.5q27 -38 41.5 -87t14.5 -102q0 -74 -27 -137.5t-80 -102t-127 -38.5t-127 38.5t-80 102t-27 137.5t26.5 137.5t79.5 102t128 38.5h1v0h1h1q28 0 60 -6q22 -4 29 -4q22 0 32.5 11.5t10.5 39.5q0 31 -11 69h113q7 -24 9.5 -41t2.5 -41
q0 -37 -17.5 -68.5zM342.5 145.5q19.5 53.5 19.5 121.5q0 67 -19.5 120.5t-70.5 53.5q-50 0 -69.5 -53t-19.5 -121t19 -121.5t70 -53.5t70.5 53.5zM130 741h135l56 -137h-93z" />
    <glyph glyph-name="uni1EDF" unicode="&#x1edf;" horiz-adv-x="544" 
d="M503.5 504.5q-17.5 -31.5 -53.5 -48.5q27 -38 41.5 -87t14.5 -102q0 -74 -27 -137.5t-80 -102t-127 -38.5t-127 38.5t-80 102t-27 137.5t26.5 137.5t79.5 102t128 38.5h1v0h1h1q28 0 60 -6q22 -4 29 -4q22 0 32.5 11.5t10.5 39.5q0 31 -11 69h113q7 -24 9.5 -41t2.5 -41
q0 -37 -17.5 -68.5zM342.5 145.5q19.5 53.5 19.5 121.5q0 67 -19.5 120.5t-70.5 53.5q-50 0 -69.5 -53t-19.5 -121t19 -121.5t70 -53.5t70.5 53.5zM254.5 632.5q8.5 11.5 8.5 22.5q0 12 -9 19t-26 7q-30 0 -62 -16l-15 68q17 9 42.5 14t52.5 5q55 0 84 -20t29 -56
q0 -16 -12 -35t-38 -37h-85q22 17 30.5 28.5z" />
    <glyph glyph-name="uni1EE1" unicode="&#x1ee1;" horiz-adv-x="544" 
d="M503.5 504.5q-17.5 -31.5 -53.5 -48.5q27 -38 41.5 -87t14.5 -102q0 -74 -27 -137.5t-80 -102t-127 -38.5t-127 38.5t-80 102t-27 137.5t26.5 137.5t79.5 102t128 38.5h1v0h1h1q28 0 60 -6q22 -4 29 -4q22 0 32.5 11.5t10.5 39.5q0 31 -11 69h113q7 -24 9.5 -41t2.5 -41
q0 -37 -17.5 -68.5zM342.5 145.5q19.5 53.5 19.5 121.5q0 67 -19.5 120.5t-70.5 53.5q-50 0 -69.5 -53t-19.5 -121t19 -121.5t70 -53.5t70.5 53.5zM214 759q14 0 28 -5t35 -14q14 -6 28 -11t25 -5q19 0 30.5 10t25.5 30l46 -51q-18 -31 -42.5 -53.5t-53.5 -22.5q-15 0 -31 5
t-38 15q-38 17 -56 17q-20 0 -31.5 -10.5t-25.5 -32.5l-42 54q47 74 102 74z" />
    <glyph glyph-name="ohungarumlaut" unicode="&#x151;" horiz-adv-x="544" 
d="M145 27.5q-53 38.5 -80 102t-27 137.5t26.5 137.5t79.5 102t128 38.5t128 -38.5t79.5 -102t26.5 -137.5t-27 -137.5t-80 -102t-127 -38.5t-127 38.5zM342.5 145.5q19.5 53.5 19.5 121.5q0 67 -19.5 120.5t-70.5 53.5q-50 0 -69.5 -53t-19.5 -121t19 -121.5t70 -53.5
t70.5 53.5zM216 741h97l-79 -137h-74zM366 741h97l-79 -137h-74z" />
    <glyph glyph-name="omacron" unicode="&#x14d;" horiz-adv-x="544" 
d="M145 27.5q-53 38.5 -80 102t-27 137.5t26.5 137.5t79.5 102t128 38.5t128 -38.5t79.5 -102t26.5 -137.5t-27 -137.5t-80 -102t-127 -38.5t-127 38.5zM342.5 145.5q19.5 53.5 19.5 121.5q0 67 -19.5 120.5t-70.5 53.5q-50 0 -69.5 -53t-19.5 -121t19 -121.5t70 -53.5
t70.5 53.5zM106 741h333v-90h-333v90z" />
    <glyph glyph-name="oslash" unicode="&#xf8;" horiz-adv-x="544" 
d="M490 377q16 -52 16 -110q0 -74 -27 -137.5t-80 -102t-127 -38.5q-66 0 -116 31l-37 -58l-58 38l42 66q-32 38 -48.5 90.5t-16.5 110.5q0 74 26.5 137.5t79.5 102t128 38.5q66 0 116 -31l37 57l59 -38l-42 -66q32 -38 48 -90zM181.5 221q-1.5 -16 -7.5 -34l3 -2l150 234
q-23 22 -55 22q-50 0 -69.5 -53t-19.5 -121q0 -30 -1.5 -46zM363.5 312q1.5 16 6.5 35l-3 2l-150 -235q23 -22 55 -22q51 0 70.5 53.5t19.5 121.5q0 29 1.5 45z" />
    <glyph glyph-name="otilde" unicode="&#xf5;" horiz-adv-x="544" 
d="M145 27.5q-53 38.5 -80 102t-27 137.5t26.5 137.5t79.5 102t128 38.5t128 -38.5t79.5 -102t26.5 -137.5t-27 -137.5t-80 -102t-127 -38.5t-127 38.5zM342.5 145.5q19.5 53.5 19.5 121.5q0 67 -19.5 120.5t-70.5 53.5q-50 0 -69.5 -53t-19.5 -121t19 -121.5t70 -53.5
t70.5 53.5zM214 759q14 0 28 -5t35 -14q14 -6 28 -11t25 -5q19 0 30.5 10t25.5 30l46 -51q-18 -31 -42.5 -53.5t-53.5 -22.5q-15 0 -31 5t-38 15q-38 17 -56 17q-20 0 -31.5 -10.5t-25.5 -32.5l-42 54q47 74 102 74z" />
    <glyph glyph-name="oe" unicode="&#x153;" horiz-adv-x="860" 
d="M145 27.5q-53 38.5 -80 102t-27 137.5t26.5 137.5t79.5 102t128 38.5q101 0 160 -72q62 72 167 72q103 0 164 -69.5t61 -229.5v-13h-325q-3 -33 9 -65.5t36.5 -53t59.5 -20.5q39 0 70.5 24.5t49.5 62.5l86 -73q-76 -119 -219 -119q-100 0 -159 70q-59 -70 -160 -70
q-74 0 -127 38.5zM342.5 145.5q19.5 53.5 19.5 121.5q0 67 -19.5 120.5t-70.5 53.5q-50 0 -69.5 -53t-19.5 -121t19 -121.5t70 -53.5t70.5 53.5zM664 407q-22 34 -69 34q-44 0 -67 -35.5t-24 -83.5h182q0 51 -22 85z" />
    <glyph glyph-name="p" unicode="p" 
d="M220 533v-52q38 33 65.5 48.5t65.5 15.5q43 0 88 -27t76 -86.5t31 -151.5q0 -156 -57.5 -223.5t-148.5 -67.5q-66 0 -120 49v-220h-141v715h141zM387.5 143q20.5 51 20.5 118q0 60 -21 109t-73 49q-28 0 -49 -15t-45 -43v-206q20 -29 41 -46t50 -17q56 0 76.5 51z" />
    <glyph glyph-name="thorn" unicode="&#xfe;" 
d="M220 779v-298q38 33 65.5 48.5t65.5 15.5q43 0 88 -27t76 -86.5t31 -151.5q0 -156 -57.5 -223.5t-148.5 -67.5q-66 0 -120 49v-220h-141v904zM387.5 143q20.5 51 20.5 118q0 60 -21 109t-73 49q-28 0 -49 -15t-45 -43v-206q20 -29 41 -46t50 -17q56 0 76.5 51z" />
    <glyph glyph-name="q" unicode="q" 
d="M310.5 0q-26.5 -11 -58.5 -11q-91 0 -148.5 67.5t-57.5 223.5q0 92 31 151.5t76 86.5t88 27q50 0 77 -12.5t59 -43.5v44h136v-696l-141 -38v235q-35 -23 -61.5 -34zM372 139v243q-30 40 -81 40q-59 0 -83 -47t-24 -112q0 -64 24.5 -112t82.5 -48q40 0 81 36z" />
    <glyph glyph-name="r" unicode="r" horiz-adv-x="422" 
d="M220 533v-93q35 52 72.5 78.5t90.5 26.5q11 0 26 -2v-139q-16 3 -35 3q-44 0 -78.5 -23.5t-75.5 -73.5v-310h-141v533h141z" />
    <glyph glyph-name="racute" unicode="&#x155;" horiz-adv-x="422" 
d="M220 533v-93q35 52 72.5 78.5t90.5 26.5q11 0 26 -2v-139q-16 3 -35 3q-44 0 -78.5 -23.5t-75.5 -73.5v-310h-141v533h141zM241 741h135l-98 -137h-93z" />
    <glyph glyph-name="rcaron" unicode="&#x159;" horiz-adv-x="422" 
d="M220 533v-93q35 52 72.5 78.5t90.5 26.5q11 0 26 -2v-139q-16 3 -35 3q-44 0 -78.5 -23.5t-75.5 -73.5v-310h-141v533h141zM72 741h104l57 -80l59 80h102l-94 -137h-134z" />
    <glyph glyph-name="uni0157" unicode="&#x157;" horiz-adv-x="422" 
d="M220 533v-93q35 52 72.5 78.5t90.5 26.5q11 0 26 -2v-139q-16 3 -35 3q-44 0 -78.5 -23.5t-75.5 -73.5v-310h-141v533h141zM89 -58h135l-98 -137h-93z" />
    <glyph glyph-name="s" unicode="s" horiz-adv-x="464" 
d="M117.5 16.5q-47.5 27.5 -80.5 80.5l89 86q19 -35 48.5 -60t67.5 -25q24 0 43.5 12t19.5 37q0 27 -23 39.5t-73 24.5q-51 13 -83.5 27t-56 45.5t-23.5 84.5q0 56 27 96t71 60.5t96 20.5q56 0 99.5 -24t72.5 -60l-70 -91q-58 65 -107 65q-29 0 -44 -15t-15 -36
q0 -26 23 -38.5t72 -26.5q51 -14 83.5 -28.5t56 -45.5t23.5 -84q0 -84 -57.5 -128t-141.5 -44q-70 0 -117.5 27.5z" />
    <glyph glyph-name="sacute" unicode="&#x15b;" horiz-adv-x="464" 
d="M117.5 16.5q-47.5 27.5 -80.5 80.5l89 86q19 -35 48.5 -60t67.5 -25q24 0 43.5 12t19.5 37q0 27 -23 39.5t-73 24.5q-51 13 -83.5 27t-56 45.5t-23.5 84.5q0 56 27 96t71 60.5t96 20.5q56 0 99.5 -24t72.5 -60l-70 -91q-58 65 -107 65q-29 0 -44 -15t-15 -36
q0 -26 23 -38.5t72 -26.5q51 -14 83.5 -28.5t56 -45.5t23.5 -84q0 -84 -57.5 -128t-141.5 -44q-70 0 -117.5 27.5zM246 741h135l-98 -137h-93z" />
    <glyph glyph-name="scaron" unicode="&#x161;" horiz-adv-x="464" 
d="M117.5 16.5q-47.5 27.5 -80.5 80.5l89 86q19 -35 48.5 -60t67.5 -25q24 0 43.5 12t19.5 37q0 27 -23 39.5t-73 24.5q-51 13 -83.5 27t-56 45.5t-23.5 84.5q0 56 27 96t71 60.5t96 20.5q56 0 99.5 -24t72.5 -60l-70 -91q-58 65 -107 65q-29 0 -44 -15t-15 -36
q0 -26 23 -38.5t72 -26.5q51 -14 83.5 -28.5t56 -45.5t23.5 -84q0 -84 -57.5 -128t-141.5 -44q-70 0 -117.5 27.5zM77 741h104l57 -80l59 80h102l-94 -137h-134z" />
    <glyph glyph-name="scedilla" unicode="&#x15f;" horiz-adv-x="464" 
d="M392.5 47.5q-41.5 -42.5 -108.5 -54.5l-21 -39q39 -10 61 -29.5t22 -53.5q0 -46 -36 -74.5t-82 -28.5q-26 0 -51.5 5t-38.5 14l15 68q4 -1 22.5 -8.5t37.5 -7.5q43 0 43 31q0 35 -71 35q-19 0 -30 -1l48 87q-56 6 -96.5 33t-69.5 73l89 86q19 -35 48.5 -60t67.5 -25
q24 0 43.5 12t19.5 37q0 27 -23 39.5t-73 24.5q-51 13 -83.5 27t-56 45.5t-23.5 84.5q0 56 27 96t71 60.5t96 20.5q56 0 99.5 -24t72.5 -60l-70 -91q-58 65 -107 65q-29 0 -44 -15t-15 -36q0 -26 23 -38.5t72 -26.5q51 -14 83.5 -28.5t56 -45.5t23.5 -84q0 -71 -41.5 -113.5
z" />
    <glyph glyph-name="scircumflex" unicode="&#x15d;" horiz-adv-x="464" 
d="M117.5 16.5q-47.5 27.5 -80.5 80.5l89 86q19 -35 48.5 -60t67.5 -25q24 0 43.5 12t19.5 37q0 27 -23 39.5t-73 24.5q-51 13 -83.5 27t-56 45.5t-23.5 84.5q0 56 27 96t71 60.5t96 20.5q56 0 99.5 -24t72.5 -60l-70 -91q-58 65 -107 65q-29 0 -44 -15t-15 -36
q0 -26 23 -38.5t72 -26.5q51 -14 83.5 -28.5t56 -45.5t23.5 -84q0 -84 -57.5 -128t-141.5 -44q-70 0 -117.5 27.5zM171 741h134l94 -137h-102l-59 80l-57 -80h-104z" />
    <glyph glyph-name="uni0219" unicode="&#x219;" horiz-adv-x="464" 
d="M117.5 16.5q-47.5 27.5 -80.5 80.5l89 86q19 -35 48.5 -60t67.5 -25q24 0 43.5 12t19.5 37q0 27 -23 39.5t-73 24.5q-51 13 -83.5 27t-56 45.5t-23.5 84.5q0 56 27 96t71 60.5t96 20.5q56 0 99.5 -24t72.5 -60l-70 -91q-58 65 -107 65q-29 0 -44 -15t-15 -36
q0 -26 23 -38.5t72 -26.5q51 -14 83.5 -28.5t56 -45.5t23.5 -84q0 -84 -57.5 -128t-141.5 -44q-70 0 -117.5 27.5zM176 -58h135l-98 -137h-93z" />
    <glyph glyph-name="germandbls" unicode="&#xdf;" horiz-adv-x="585" 
d="M290 -3v104q20 -4 27 -4q44 0 65 45.5t21 94.5q0 53 -21.5 93t-71.5 40q-9 0 -20 -2v103h3q41 0 64 22t23 64q0 35 -19 56.5t-54 21.5q-54 0 -70.5 -32.5t-16.5 -91.5v-511h-141v516q0 79 30.5 132t80 78.5t109.5 25.5q105 0 162 -51t57 -136q0 -44 -20.5 -79.5
t-58.5 -56.5q55 -24 81 -80t26 -122q0 -64 -22.5 -118.5t-68 -87t-110.5 -32.5q-26 0 -55 8z" />
    <glyph glyph-name="longs" unicode="&#x17f;" horiz-adv-x="311" 
d="M24 416v117h70v57q0 70 43 118t127 48q60 0 116 -25l-38 -107q-33 12 -54 12q-53 0 -53 -63v-573h-141v416h-70z" />
    <glyph glyph-name="t" unicode="t" horiz-adv-x="368" 
d="M132.5 28.5q-39.5 39.5 -39.5 125.5v262h-66v117h66v124l141 67v-191h110v-117h-110v-267q0 -22 12 -37.5t39 -15.5q29 0 59 16v-110q-39 -13 -91 -13q-81 0 -120.5 39.5z" />
    <glyph glyph-name="tbar" unicode="&#x167;" horiz-adv-x="368" 
d="M234 416v-109h100v-90h-100v-68q0 -22 12 -37.5t39 -15.5q29 0 59 16v-110q-39 -13 -91 -13q-81 0 -120.5 39.5t-39.5 125.5v63h-56v90h56v109h-66v117h66v124l141 67v-191h110v-117h-110z" />
    <glyph glyph-name="tcaron" unicode="&#x165;" horiz-adv-x="368" 
d="M132.5 28.5q-39.5 39.5 -39.5 125.5v262h-66v117h66v124l141 67v-191h110v-117h-110v-267q0 -22 12 -37.5t39 -15.5q29 0 59 16v-110q-39 -13 -91 -13q-81 0 -120.5 39.5zM286 778h126l-34 -194h-101z" />
    <glyph glyph-name="uni0163" unicode="&#x163;" horiz-adv-x="368" 
d="M132.5 28.5q-39.5 39.5 -39.5 125.5v262h-66v117h66v124l141 67v-191h110v-117h-110v-267q0 -22 12 -37.5t39 -15.5q29 0 59 16v-110q-39 -13 -91 -13q-81 0 -120.5 39.5zM137 -58h135l-98 -137h-93z" />
    <glyph glyph-name="uni021B" unicode="&#x21b;" horiz-adv-x="368" 
d="M132.5 28.5q-39.5 39.5 -39.5 125.5v262h-66v117h66v124l141 67v-191h110v-117h-110v-267q0 -22 12 -37.5t39 -15.5q29 0 59 16v-110q-39 -13 -91 -13q-81 0 -120.5 39.5zM137 -58h135l-98 -137h-93z" />
    <glyph glyph-name="u" unicode="u" horiz-adv-x="596" 
d="M120 28q-43 39 -43 127v378h141v-328q0 -47 10 -75t48 -28q28 0 51.5 15.5t48.5 42.5v373h141v-533h-141v55q-80 -66 -159 -66q-54 0 -97 39z" />
    <glyph glyph-name="uacute" unicode="&#xfa;" horiz-adv-x="596" 
d="M120 28q-43 39 -43 127v378h141v-328q0 -47 10 -75t48 -28q28 0 51.5 15.5t48.5 42.5v373h141v-533h-141v55q-80 -66 -159 -66q-54 0 -97 39zM306 741h135l-98 -137h-93z" />
    <glyph glyph-name="ubreve" unicode="&#x16d;" horiz-adv-x="596" 
d="M120 28q-43 39 -43 127v378h141v-328q0 -47 10 -75t48 -28q28 0 51.5 15.5t48.5 42.5v373h141v-533h-141v55q-80 -66 -159 -66q-54 0 -97 39zM182 633.5q-46 37.5 -50 107.5h88q4 -29 26.5 -44.5t51.5 -15.5q30 0 52.5 15.5t25.5 44.5h89q-5 -71 -50.5 -108t-116.5 -37
q-70 0 -116 37.5z" />
    <glyph glyph-name="ucircumflex" unicode="&#xfb;" horiz-adv-x="596" 
d="M120 28q-43 39 -43 127v378h141v-328q0 -47 10 -75t48 -28q28 0 51.5 15.5t48.5 42.5v373h141v-533h-141v55q-80 -66 -159 -66q-54 0 -97 39zM231 741h134l94 -137h-102l-59 80l-57 -80h-104z" />
    <glyph glyph-name="udieresis" unicode="&#xfc;" horiz-adv-x="596" 
d="M120 28q-43 39 -43 127v378h141v-328q0 -47 10 -75t48 -28q28 0 51.5 15.5t48.5 42.5v373h141v-533h-141v55q-80 -66 -159 -66q-54 0 -97 39zM156 621q-21 21 -21 51t21 51.5t51 21.5t51.5 -21.5t21.5 -51.5t-21.5 -51t-51.5 -21t-51 21zM338.5 621q-21.5 21 -21.5 51
t21.5 51.5t51.5 21.5t51 -21.5t21 -51.5t-21 -51t-51 -21t-51.5 21z" />
    <glyph glyph-name="uni1EE5" unicode="&#x1ee5;" horiz-adv-x="596" 
d="M120 28q-43 39 -43 127v378h141v-328q0 -47 10 -75t48 -28q28 0 51.5 15.5t48.5 42.5v373h141v-533h-141v55q-80 -66 -159 -66q-54 0 -97 39zM243 -182q-23 23 -23 55t23 55t55 23t55 -23t23 -55t-23 -55t-55 -23t-55 23z" />
    <glyph glyph-name="ugrave" unicode="&#xf9;" horiz-adv-x="596" 
d="M120 28q-43 39 -43 127v378h141v-328q0 -47 10 -75t48 -28q28 0 51.5 15.5t48.5 42.5v373h141v-533h-141v55q-80 -66 -159 -66q-54 0 -97 39zM156 741h135l56 -137h-93z" />
    <glyph glyph-name="uni1EE7" unicode="&#x1ee7;" horiz-adv-x="596" 
d="M120 28q-43 39 -43 127v378h141v-328q0 -47 10 -75t48 -28q28 0 51.5 15.5t48.5 42.5v373h141v-533h-141v55q-80 -66 -159 -66q-54 0 -97 39zM280.5 632.5q8.5 11.5 8.5 22.5q0 12 -9 19t-26 7q-30 0 -62 -16l-15 68q17 9 42.5 14t52.5 5q55 0 84 -20t29 -56
q0 -16 -12 -35t-38 -37h-85q22 17 30.5 28.5z" />
    <glyph glyph-name="uhorn" unicode="&#x1b0;" horiz-adv-x="596" 
d="M580.5 497q-22.5 -32 -63.5 -48v-449h-141v55q-80 -66 -159 -66q-54 0 -97 39t-43 127v378h141v-328q0 -47 10 -75t48 -28q28 0 51.5 15.5t48.5 42.5v373h57q31 0 43.5 11.5t12.5 41.5q0 31 -11 69h113q7 -24 9.5 -41t2.5 -41q0 -44 -22.5 -76z" />
    <glyph glyph-name="uni1EE9" unicode="&#x1ee9;" horiz-adv-x="596" 
d="M580.5 497q-22.5 -32 -63.5 -48v-449h-141v55q-80 -66 -159 -66q-54 0 -97 39t-43 127v378h141v-328q0 -47 10 -75t48 -28q28 0 51.5 15.5t48.5 42.5v373h57q31 0 43.5 11.5t12.5 41.5q0 31 -11 69h113q7 -24 9.5 -41t2.5 -41q0 -44 -22.5 -76zM306 741h135l-98 -137h-93
z" />
    <glyph glyph-name="uni1EF1" unicode="&#x1ef1;" horiz-adv-x="596" 
d="M580.5 497q-22.5 -32 -63.5 -48v-449h-141v55q-80 -66 -159 -66q-54 0 -97 39t-43 127v378h141v-328q0 -47 10 -75t48 -28q28 0 51.5 15.5t48.5 42.5v373h57q31 0 43.5 11.5t12.5 41.5q0 31 -11 69h113q7 -24 9.5 -41t2.5 -41q0 -44 -22.5 -76zM243 -182q-23 23 -23 55
t23 55t55 23t55 -23t23 -55t-23 -55t-55 -23t-55 23z" />
    <glyph glyph-name="uni1EEB" unicode="&#x1eeb;" horiz-adv-x="596" 
d="M580.5 497q-22.5 -32 -63.5 -48v-449h-141v55q-80 -66 -159 -66q-54 0 -97 39t-43 127v378h141v-328q0 -47 10 -75t48 -28q28 0 51.5 15.5t48.5 42.5v373h57q31 0 43.5 11.5t12.5 41.5q0 31 -11 69h113q7 -24 9.5 -41t2.5 -41q0 -44 -22.5 -76zM156 741h135l56 -137h-93z
" />
    <glyph glyph-name="uni1EED" unicode="&#x1eed;" horiz-adv-x="596" 
d="M580.5 497q-22.5 -32 -63.5 -48v-449h-141v55q-80 -66 -159 -66q-54 0 -97 39t-43 127v378h141v-328q0 -47 10 -75t48 -28q28 0 51.5 15.5t48.5 42.5v373h57q31 0 43.5 11.5t12.5 41.5q0 31 -11 69h113q7 -24 9.5 -41t2.5 -41q0 -44 -22.5 -76zM280.5 632.5
q8.5 11.5 8.5 22.5q0 12 -9 19t-26 7q-30 0 -62 -16l-15 68q17 9 42.5 14t52.5 5q55 0 84 -20t29 -56q0 -16 -12 -35t-38 -37h-85q22 17 30.5 28.5z" />
    <glyph glyph-name="uni1EEF" unicode="&#x1eef;" horiz-adv-x="596" 
d="M580.5 497q-22.5 -32 -63.5 -48v-449h-141v55q-80 -66 -159 -66q-54 0 -97 39t-43 127v378h141v-328q0 -47 10 -75t48 -28q28 0 51.5 15.5t48.5 42.5v373h57q31 0 43.5 11.5t12.5 41.5q0 31 -11 69h113q7 -24 9.5 -41t2.5 -41q0 -44 -22.5 -76zM240 759q14 0 28 -5
t35 -14q14 -6 28 -11t25 -5q19 0 30.5 10t25.5 30l46 -51q-18 -31 -42.5 -53.5t-53.5 -22.5q-15 0 -31 5t-38 15q-38 17 -56 17q-20 0 -31.5 -10.5t-25.5 -32.5l-42 54q47 74 102 74z" />
    <glyph glyph-name="uhungarumlaut" unicode="&#x171;" horiz-adv-x="596" 
d="M120 28q-43 39 -43 127v378h141v-328q0 -47 10 -75t48 -28q28 0 51.5 15.5t48.5 42.5v373h141v-533h-141v55q-80 -66 -159 -66q-54 0 -97 39zM242 741h97l-79 -137h-74zM392 741h97l-79 -137h-74z" />
    <glyph glyph-name="umacron" unicode="&#x16b;" horiz-adv-x="596" 
d="M120 28q-43 39 -43 127v378h141v-328q0 -47 10 -75t48 -28q28 0 51.5 15.5t48.5 42.5v373h141v-533h-141v55q-80 -66 -159 -66q-54 0 -97 39zM132 741h333v-90h-333v90z" />
    <glyph glyph-name="uogonek" unicode="&#x173;" horiz-adv-x="596" 
d="M517 533v-533h-28q-42 -13 -70 -38t-28 -52q0 -14 11.5 -22.5t26.5 -8.5q29 0 59 20v-69q-32 -22 -76 -22q-46 0 -75.5 23t-29.5 64q0 65 69 105v55q-80 -66 -159 -66q-54 0 -97 39t-43 127v378h141v-328q0 -47 10 -75t48 -28q28 0 51.5 15.5t48.5 42.5v373h141z" />
    <glyph glyph-name="uring" unicode="&#x16f;" horiz-adv-x="596" 
d="M120 28q-43 39 -43 127v378h141v-328q0 -47 10 -75t48 -28q28 0 51.5 15.5t48.5 42.5v373h141v-533h-141v55q-80 -66 -159 -66q-54 0 -97 39zM236 612q-26 26 -26 62q0 37 26 63t62 26q37 0 63 -26t26 -63q0 -36 -26 -62t-63 -26q-36 0 -62 26zM323.5 648.5
q10.5 10.5 10.5 25.5q0 14 -10.5 25t-25.5 11t-25.5 -11t-10.5 -25q0 -15 10.5 -25.5t25.5 -10.5t25.5 10.5z" />
    <glyph glyph-name="utilde" unicode="&#x169;" horiz-adv-x="596" 
d="M120 28q-43 39 -43 127v378h141v-328q0 -47 10 -75t48 -28q28 0 51.5 15.5t48.5 42.5v373h141v-533h-141v55q-80 -66 -159 -66q-54 0 -97 39zM240 759q14 0 28 -5t35 -14q14 -6 28 -11t25 -5q19 0 30.5 10t25.5 30l46 -51q-18 -31 -42.5 -53.5t-53.5 -22.5q-15 0 -31 5
t-38 15q-38 17 -56 17q-20 0 -31.5 -10.5t-25.5 -32.5l-42 54q47 74 102 74z" />
    <glyph glyph-name="v" unicode="v" horiz-adv-x="470" 
d="M-3 533h148l93 -382h2l92 382h141l-161 -533h-149z" />
    <glyph glyph-name="w" unicode="w" horiz-adv-x="659" 
d="M0 533h129l64 -353h2l68 353h142l59 -353h2l72 353h121l-136 -533h-133l-62 357h-2l-65 -357h-132z" />
    <glyph glyph-name="wacute" unicode="&#x1e83;" horiz-adv-x="659" 
d="M0 533h129l64 -353h2l68 353h142l59 -353h2l72 353h121l-136 -533h-133l-62 357h-2l-65 -357h-132zM338 741h135l-98 -137h-93z" />
    <glyph glyph-name="wcircumflex" unicode="&#x175;" horiz-adv-x="659" 
d="M0 533h129l64 -353h2l68 353h142l59 -353h2l72 353h121l-136 -533h-133l-62 357h-2l-65 -357h-132zM263 741h134l94 -137h-102l-59 80l-57 -80h-104z" />
    <glyph glyph-name="wdieresis" unicode="&#x1e85;" horiz-adv-x="659" 
d="M0 533h129l64 -353h2l68 353h142l59 -353h2l72 353h121l-136 -533h-133l-62 357h-2l-65 -357h-132zM188 621q-21 21 -21 51t21 51.5t51 21.5t51.5 -21.5t21.5 -51.5t-21.5 -51t-51.5 -21t-51 21zM370.5 621q-21.5 21 -21.5 51t21.5 51.5t51.5 21.5t51 -21.5t21 -51.5
t-21 -51t-51 -21t-51.5 21z" />
    <glyph glyph-name="wgrave" unicode="&#x1e81;" horiz-adv-x="659" 
d="M0 533h129l64 -353h2l68 353h142l59 -353h2l72 353h121l-136 -533h-133l-62 357h-2l-65 -357h-132zM188 741h135l56 -137h-93z" />
    <glyph glyph-name="x" unicode="x" horiz-adv-x="516" 
d="M336 279l176 -279h-159l-98 171h-2l-96 -171h-153l176 269l-166 264h159l87 -151h2l89 151h154z" />
    <glyph glyph-name="y" unicode="y" horiz-adv-x="497" 
d="M23 -186v121q15 -5 30.5 -9t30.5 -4q44 0 66.5 22.5t36.5 68.5l-190 520h152l107 -349h2l97 349h145l-206 -576q-19 -54 -39 -86t-54 -49.5t-88 -17.5q-42 0 -90 10z" />
    <glyph glyph-name="yacute" unicode="&#xfd;" horiz-adv-x="497" 
d="M23 -186v121q15 -5 30.5 -9t30.5 -4q44 0 66.5 22.5t36.5 68.5l-190 520h152l107 -349h2l97 349h145l-206 -576q-19 -54 -39 -86t-54 -49.5t-88 -17.5q-42 0 -90 10zM267 741h135l-98 -137h-93z" />
    <glyph glyph-name="ycircumflex" unicode="&#x177;" horiz-adv-x="497" 
d="M23 -186v121q15 -5 30.5 -9t30.5 -4q44 0 66.5 22.5t36.5 68.5l-190 520h152l107 -349h2l97 349h145l-206 -576q-19 -54 -39 -86t-54 -49.5t-88 -17.5q-42 0 -90 10zM192 741h134l94 -137h-102l-59 80l-57 -80h-104z" />
    <glyph glyph-name="ydieresis" unicode="&#xff;" horiz-adv-x="497" 
d="M23 -186v121q15 -5 30.5 -9t30.5 -4q44 0 66.5 22.5t36.5 68.5l-190 520h152l107 -349h2l97 349h145l-206 -576q-19 -54 -39 -86t-54 -49.5t-88 -17.5q-42 0 -90 10zM117 621q-21 21 -21 51t21 51.5t51 21.5t51.5 -21.5t21.5 -51.5t-21.5 -51t-51.5 -21t-51 21z
M299.5 621q-21.5 21 -21.5 51t21.5 51.5t51.5 21.5t51 -21.5t21 -51.5t-21 -51t-51 -21t-51.5 21z" />
    <glyph glyph-name="uni1EF5" unicode="&#x1ef5;" horiz-adv-x="497" 
d="M23 -186v121q15 -5 30.5 -9t30.5 -4q44 0 66.5 22.5t36.5 68.5l-190 520h152l107 -349h2l97 349h145l-206 -576q-19 -54 -39 -86t-54 -49.5t-88 -17.5q-42 0 -90 10zM337 -182q-23 23 -23 55t23 55t55 23t55 -23t23 -55t-23 -55t-55 -23t-55 23z" />
    <glyph glyph-name="ygrave" unicode="&#x1ef3;" horiz-adv-x="497" 
d="M23 -186v121q15 -5 30.5 -9t30.5 -4q44 0 66.5 22.5t36.5 68.5l-190 520h152l107 -349h2l97 349h145l-206 -576q-19 -54 -39 -86t-54 -49.5t-88 -17.5q-42 0 -90 10zM117 741h135l56 -137h-93z" />
    <glyph glyph-name="uni1EF7" unicode="&#x1ef7;" horiz-adv-x="497" 
d="M23 -186v121q15 -5 30.5 -9t30.5 -4q44 0 66.5 22.5t36.5 68.5l-190 520h152l107 -349h2l97 349h145l-206 -576q-19 -54 -39 -86t-54 -49.5t-88 -17.5q-42 0 -90 10zM241.5 632.5q8.5 11.5 8.5 22.5q0 12 -9 19t-26 7q-30 0 -62 -16l-15 68q17 9 42.5 14t52.5 5
q55 0 84 -20t29 -56q0 -16 -12 -35t-38 -37h-85q22 17 30.5 28.5z" />
    <glyph glyph-name="uni1EF9" unicode="&#x1ef9;" horiz-adv-x="497" 
d="M23 -186v121q15 -5 30.5 -9t30.5 -4q44 0 66.5 22.5t36.5 68.5l-190 520h152l107 -349h2l97 349h145l-206 -576q-19 -54 -39 -86t-54 -49.5t-88 -17.5q-42 0 -90 10zM201 759q14 0 28 -5t35 -14q14 -6 28 -11t25 -5q19 0 30.5 10t25.5 30l46 -51q-18 -31 -42.5 -53.5
t-53.5 -22.5q-15 0 -31 5t-38 15q-38 17 -56 17q-20 0 -31.5 -10.5t-25.5 -32.5l-42 54q47 74 102 74z" />
    <glyph glyph-name="z" unicode="z" horiz-adv-x="489" 
d="M457 533v-100l-249 -322h249v-111h-425v95l245 327h-229v111h409z" />
    <glyph glyph-name="zacute" unicode="&#x17a;" horiz-adv-x="489" 
d="M457 533v-100l-249 -322h249v-111h-425v95l245 327h-229v111h409zM254 741h135l-98 -137h-93z" />
    <glyph glyph-name="zcaron" unicode="&#x17e;" horiz-adv-x="489" 
d="M457 533v-100l-249 -322h249v-111h-425v95l245 327h-229v111h409zM85 741h104l57 -80l59 80h102l-94 -137h-134z" />
    <glyph glyph-name="zdotaccent" unicode="&#x17c;" horiz-adv-x="489" 
d="M457 533v-100l-249 -322h249v-111h-425v95l245 327h-229v111h409zM191 617q-23 23 -23 55t23 55t55 23t55 -23t23 -55t-23 -55t-55 -23t-55 23z" />
    <glyph glyph-name="f.calt" horiz-adv-x="343" 
d="M24 416v117h70v57q0 70 43 118t127 48q60 0 116 -25l-38 -107q-33 12 -54 12q-53 0 -53 -63v-40h101l-22 -117h-79v-416h-141v416h-70z" />
    <glyph glyph-name="t.calt" horiz-adv-x="368" 
d="M132.5 28.5q-39.5 39.5 -39.5 125.5v262h-66v117h66v124l141 67v-191h110v-117h-110v-267q0 -22 12 -37.5t39 -15.5q29 0 59 16v-110q-39 -13 -91 -13q-81 0 -120.5 39.5z" />
    <glyph glyph-name="f.calt2" horiz-adv-x="343" 
d="M24 416v117h70v57q0 70 43 118t127 48q61 0 114 -24l-38 -107q-30 11 -53 11q-52 0 -52 -63v-40h116l-22 -117h-94v-416h-141v416h-70z" />
    <glyph glyph-name="i.locl" horiz-adv-x="299" 
d="M91.5 615.5q-24.5 24.5 -24.5 57.5q0 34 24.5 58t57.5 24q34 0 58 -24t24 -58q0 -33 -24 -57.5t-58 -24.5q-33 0 -57.5 24.5zM79 533h141v-533h-141v533z" />
    <glyph glyph-name="g.ss01" 
d="M138 -164.5q-57 25.5 -92 81.5l103 73q17 -28 47.5 -45.5t69.5 -17.5q44 0 75 24.5t31 70.5v50q-39 -26 -64.5 -35.5t-59.5 -9.5q-88 0 -145 59.5t-57 199.5q0 148 60 203.5t142 55.5q46 0 77.5 -14t62.5 -42l12 44h113v-492q0 -53 -23 -105.5t-78 -89t-146 -36.5
q-71 0 -128 25.5zM330.5 149.5q19.5 8.5 41.5 27.5v205q-30 40 -83 40q-59 0 -82 -39.5t-23 -98.5q0 -62 24 -102.5t80 -40.5q23 0 42.5 8.5z" />
    <glyph glyph-name="gbreve.ss01" 
d="M138 -164.5q-57 25.5 -92 81.5l103 73q17 -28 47.5 -45.5t69.5 -17.5q44 0 75 24.5t31 70.5v50q-39 -26 -64.5 -35.5t-59.5 -9.5q-88 0 -145 59.5t-57 199.5q0 148 60 203.5t142 55.5q46 0 77.5 -14t62.5 -42l12 44h113v-492q0 -53 -23 -105.5t-78 -89t-146 -36.5
q-71 0 -128 25.5zM330.5 149.5q19.5 8.5 41.5 27.5v205q-30 40 -83 40q-59 0 -82 -39.5t-23 -98.5q0 -62 24 -102.5t80 -40.5q23 0 42.5 8.5zM166 633.5q-46 37.5 -50 107.5h88q4 -29 26.5 -44.5t51.5 -15.5q30 0 52.5 15.5t25.5 44.5h89q-5 -71 -50.5 -108t-116.5 -37
q-70 0 -116 37.5z" />
    <glyph glyph-name="gcircumflex.ss01" 
d="M138 -164.5q-57 25.5 -92 81.5l103 73q17 -28 47.5 -45.5t69.5 -17.5q44 0 75 24.5t31 70.5v50q-39 -26 -64.5 -35.5t-59.5 -9.5q-88 0 -145 59.5t-57 199.5q0 148 60 203.5t142 55.5q46 0 77.5 -14t62.5 -42l12 44h113v-492q0 -53 -23 -105.5t-78 -89t-146 -36.5
q-71 0 -128 25.5zM330.5 149.5q19.5 8.5 41.5 27.5v205q-30 40 -83 40q-59 0 -82 -39.5t-23 -98.5q0 -62 24 -102.5t80 -40.5q23 0 42.5 8.5zM215 741h134l94 -137h-102l-59 80l-57 -80h-104z" />
    <glyph glyph-name="uni0123.ss01" 
d="M138 -164.5q-57 25.5 -92 81.5l103 73q17 -28 47.5 -45.5t69.5 -17.5q44 0 75 24.5t31 70.5v50q-39 -26 -64.5 -35.5t-59.5 -9.5q-88 0 -145 59.5t-57 199.5q0 148 60 203.5t142 55.5q46 0 77.5 -14t62.5 -42l12 44h113v-492q0 -53 -23 -105.5t-78 -89t-146 -36.5
q-71 0 -128 25.5zM330.5 149.5q19.5 8.5 41.5 27.5v205q-30 40 -83 40q-59 0 -82 -39.5t-23 -98.5q0 -62 24 -102.5t80 -40.5q23 0 42.5 8.5zM309 741h93l-56 -137h-135z" />
    <glyph glyph-name="gdotaccent.ss01" 
d="M138 -164.5q-57 25.5 -92 81.5l103 73q17 -28 47.5 -45.5t69.5 -17.5q44 0 75 24.5t31 70.5v50q-39 -26 -64.5 -35.5t-59.5 -9.5q-88 0 -145 59.5t-57 199.5q0 148 60 203.5t142 55.5q46 0 77.5 -14t62.5 -42l12 44h113v-492q0 -53 -23 -105.5t-78 -89t-146 -36.5
q-71 0 -128 25.5zM330.5 149.5q19.5 8.5 41.5 27.5v205q-30 40 -83 40q-59 0 -82 -39.5t-23 -98.5q0 -62 24 -102.5t80 -40.5q23 0 42.5 8.5zM227 617q-23 23 -23 55t23 55t55 23t55 -23t23 -55t-23 -55t-55 -23t-55 23z" />
    <glyph glyph-name="T_h" horiz-adv-x="1011" 
d="M891 506q43 -39 43 -128v-378h-141v327q0 50 -11 76.5t-46 26.5q-27 0 -51 -15t-50 -39v-376h-141v615h-145v-615h-149v615h-192v126h533l94 38v-301q37 30 77 48.5t80 18.5q56 0 99 -39z" />
    <glyph glyph-name="ordfeminine" unicode="&#xaa;" horiz-adv-x="365" 
d="M64 442q-30 27 -30 71q0 53 38.5 77.5t128.5 37.5q13 1 18 6.5t5 16.5q0 16 -9 24.5t-25 8.5q-25 0 -43.5 -9.5t-37.5 -31.5l-46 53q49 57 136 57q114 0 114 -103v-228h-87v28q-18 -14 -41 -24.5t-44 -10.5q-47 0 -77 27zM193.5 493q16.5 12 28.5 29v47l-46 -7
q-25 -4 -38 -15t-13 -32q0 -34 33 -34q19 0 35.5 12z" />
    <glyph glyph-name="ordmasculine" unicode="&#xba;" horiz-adv-x="365" 
d="M76.5 464.5q-38.5 49.5 -38.5 119.5q0 45 17 83.5t49.5 62t78.5 23.5q68 0 106 -49.5t38 -119.5t-38 -119.5t-106 -49.5t-106.5 49.5zM221.5 512.5q10.5 31.5 10.5 71.5q0 41 -10.5 72t-38.5 31q-29 0 -40 -31.5t-11 -71.5t11 -71.5t40 -31.5q28 0 38.5 31.5z" />
    <glyph glyph-name="pi" unicode="&#x3c0;" horiz-adv-x="654" 
d="M439 30.5q-45 41.5 -45 123.5v262h-164v-416h-140v416h-66v117h621v-117h-110v-267q0 -22 12.5 -37.5t39.5 -15.5t58 21v-111q-57 -17 -91 -17q-70 0 -115 41.5z" />
    <glyph glyph-name="zero" unicode="0" 
d="M160 27.5q-62 38.5 -100.5 122.5t-38.5 214q0 191 73.5 289.5t201.5 98.5q129 0 202 -98.5t73 -289.5q0 -130 -38.5 -214t-100.5 -122.5t-136 -38.5t-136 38.5zM401.5 185q24.5 75 24.5 179q0 68 -7 123.5t-35.5 99.5t-87.5 44q-58 0 -86.5 -44t-35.5 -99.5t-7 -123.5
q0 -105 24 -179.5t105 -74.5t105.5 75z" />
    <glyph glyph-name="one" unicode="1" 
d="M232 117v441q-21 -20 -55.5 -36.5t-72.5 -25.5l-32 106q62 15 116 48.5t86 90.5h106v-624h124v-117h-396v117h124z" />
    <glyph glyph-name="two" unicode="2" 
d="M130 234.5q45 48.5 119 115.5q49 44 77 72t46 58.5t18 62.5q0 39 -25 65.5t-64 26.5q-49 0 -77.5 -36.5t-28.5 -91.5q0 -10 2 -30l-138 49q-3 70 28.5 121t87.5 78t125 27q81 0 135.5 -29t81 -78t26.5 -109q0 -56 -25 -102.5t-62 -82t-97 -83.5q-55 -44 -88 -75t-56 -67
h326v-126h-489v124q33 62 78 110.5z" />
    <glyph glyph-name="three" unicode="3" 
d="M172.5 8.5q-54.5 23.5 -92 68.5t-48.5 108l138 48q3 -60 36 -95.5t88 -35.5q43 0 74.5 32.5t31.5 76.5q0 64 -38.5 93t-104.5 29q-25 0 -52 -3v115q33 -7 56 -7q55 0 90.5 27t35.5 81q0 39 -26.5 64t-67.5 25q-42 0 -73 -33.5t-33 -79.5l-129 63q24 76 91.5 121.5
t151.5 45.5q58 0 111 -24.5t86.5 -70t33.5 -106.5q0 -57 -28 -93.5t-84 -64.5q58 -22 92 -67t34 -106q0 -70 -35.5 -123.5t-94.5 -82.5t-126 -29q-63 0 -117.5 23.5z" />
    <glyph glyph-name="four" unicode="4" 
d="M321 172h-291v108l266 461h174v-451h92v-118h-92v-172h-149v172zM321 290v263h-2l-144 -263h146z" />
    <glyph glyph-name="five" unicode="5" 
d="M129.5 30.5q-67.5 45.5 -87.5 132.5l133 61q5 -56 35.5 -89t76.5 -33q52 0 84 42t32 101q0 57 -30.5 99.5t-84.5 42.5q-37 0 -65 -20.5t-37 -54.5l-129 31l12 398h414v-126h-293l-4 -158q62 55 143 55q68 0 119.5 -35.5t79 -93.5t27.5 -125q0 -77 -36.5 -139.5t-99 -98
t-137.5 -35.5q-85 0 -152.5 45.5z" />
    <glyph glyph-name="six" unicode="6" 
d="M175 24.5q-62 39.5 -100.5 124.5t-38.5 215q0 128 38 215t103 130t145 43q141 0 206 -113l-98 -98q-33 86 -106 86q-43 0 -72.5 -28t-43.5 -70t-13 -83q39 21 70.5 32t66.5 11q50 0 102 -26.5t87 -80.5t35 -132q0 -84 -38.5 -144t-96 -90.5t-110.5 -30.5q-74 0 -136 39.5
zM382 148q28 38 28 94q0 48 -26 84.5t-73 36.5q-34 0 -62 -14.5t-59 -41.5q-1 -73 24.5 -135t86.5 -62q53 0 81 38z" />
    <glyph glyph-name="seven" unicode="7" 
d="M183.5 305.5q63.5 155.5 186.5 309.5h-306v126h481v-81q-118 -160 -190 -332.5t-79 -327.5h-168q12 150 75.5 305.5z" />
    <glyph glyph-name="eight" unicode="8" 
d="M520.5 311.5q34.5 -44.5 34.5 -112.5q0 -52 -29.5 -101.5t-89 -81t-142.5 -31.5q-82 0 -140.5 31t-87.5 78.5t-29 95.5q0 68 34 113t94 80q-50 30 -78 71t-28 102q0 57 30.5 101.5t84 69.5t121.5 25q66 0 119.5 -23.5t84.5 -66t31 -96.5q0 -61 -27.5 -102.5t-77.5 -73.5
q61 -34 95.5 -78.5zM226 496.5q25 -24.5 72 -47.5q44 24 67.5 48.5t23.5 58.5q0 33 -26.5 53.5t-67.5 20.5t-67.5 -20.5t-26.5 -53.5q0 -35 25 -59.5zM380.5 131q29.5 24 29.5 68q0 42 -30 68.5t-88 53.5q-53 -26 -81 -54t-28 -68q0 -42 32 -67t81 -25q55 0 84.5 24z" />
    <glyph glyph-name="nine" unicode="9" 
d="M140.5 20q-57.5 35 -94.5 94l115 76q16 -34 44 -57t64 -23q42 0 71.5 29t43.5 72t13 84q-37 -21 -69 -32t-68 -11q-50 0 -102 26t-87 79.5t-35 132.5q0 84 39 143.5t96 89t110 29.5q74 0 136 -38.5t100.5 -122.5t38.5 -214q0 -128 -38 -216t-103 -132t-145 -44
q-72 0 -129.5 35zM344 392.5q29 14.5 58 41.5q2 72 -23.5 132.5t-87.5 60.5q-53 0 -81 -37t-28 -93q0 -48 26 -83.5t73 -35.5q34 0 63 14.5z" />
    <glyph glyph-name="zero.lf" 
d="M160 27.5q-62 38.5 -100.5 122.5t-38.5 214q0 191 73.5 289.5t201.5 98.5q129 0 202 -98.5t73 -289.5q0 -130 -38.5 -214t-100.5 -122.5t-136 -38.5t-136 38.5zM401.5 185q24.5 75 24.5 179q0 68 -7 123.5t-35.5 99.5t-87.5 44q-58 0 -86.5 -44t-35.5 -99.5t-7 -123.5
q0 -105 24 -179.5t105 -74.5t105.5 75z" />
    <glyph glyph-name="one.lf" horiz-adv-x="450" 
d="M127.5 521.5q-33.5 -16.5 -71.5 -25.5l-31 106q61 15 114.5 48.5t86.5 90.5h106v-741h-148v559q-23 -21 -56.5 -37.5z" />
    <glyph glyph-name="two.lf" 
d="M130 234.5q45 48.5 119 115.5q49 44 77 72t46 58.5t18 62.5q0 39 -25 65.5t-64 26.5q-49 0 -77.5 -36.5t-28.5 -91.5q0 -10 2 -30l-138 49q-3 70 28.5 121t87.5 78t125 27q81 0 135.5 -29t81 -78t26.5 -109q0 -56 -25 -102.5t-62 -82t-97 -83.5q-55 -44 -88 -75t-56 -67
h326v-126h-489v124q33 62 78 110.5z" />
    <glyph glyph-name="three.lf" 
d="M172.5 8.5q-54.5 23.5 -92 68.5t-48.5 108l138 48q3 -60 36 -95.5t88 -35.5q43 0 74.5 32.5t31.5 76.5q0 64 -38.5 93t-104.5 29q-25 0 -52 -3v115q33 -7 56 -7q55 0 90.5 27t35.5 81q0 39 -26.5 64t-67.5 25q-42 0 -73 -33.5t-33 -79.5l-129 63q24 76 91.5 121.5
t151.5 45.5q58 0 111 -24.5t86.5 -70t33.5 -106.5q0 -57 -28 -93.5t-84 -64.5q58 -22 92 -67t34 -106q0 -70 -35.5 -123.5t-94.5 -82.5t-126 -29q-63 0 -117.5 23.5z" />
    <glyph glyph-name="four.lf" 
d="M321 172h-291v108l266 461h174v-451h92v-118h-92v-172h-149v172zM321 290v263h-2l-144 -263h146z" />
    <glyph glyph-name="five.lf" 
d="M129.5 30.5q-67.5 45.5 -87.5 132.5l133 61q5 -56 35.5 -89t76.5 -33q52 0 84 42t32 101q0 57 -30.5 99.5t-84.5 42.5q-37 0 -65 -20.5t-37 -54.5l-129 31l12 398h414v-126h-293l-4 -158q62 55 143 55q68 0 119.5 -35.5t79 -93.5t27.5 -125q0 -77 -36.5 -139.5t-99 -98
t-137.5 -35.5q-85 0 -152.5 45.5z" />
    <glyph glyph-name="six.lf" 
d="M175 24.5q-62 39.5 -100.5 124.5t-38.5 215q0 128 38 215t103 130t145 43q141 0 206 -113l-98 -98q-33 86 -106 86q-43 0 -72.5 -28t-43.5 -70t-13 -83q39 21 70.5 32t66.5 11q50 0 102 -26.5t87 -80.5t35 -132q0 -84 -38.5 -144t-96 -90.5t-110.5 -30.5q-74 0 -136 39.5
zM382 148q28 38 28 94q0 48 -26 84.5t-73 36.5q-34 0 -62 -14.5t-59 -41.5q-1 -73 24.5 -135t86.5 -62q53 0 81 38z" />
    <glyph glyph-name="seven.lf" 
d="M183.5 305.5q63.5 155.5 186.5 309.5h-306v126h481v-81q-118 -160 -190 -332.5t-79 -327.5h-168q12 150 75.5 305.5z" />
    <glyph glyph-name="eight.lf" 
d="M520.5 311.5q34.5 -44.5 34.5 -112.5q0 -52 -29.5 -101.5t-89 -81t-142.5 -31.5q-82 0 -140.5 31t-87.5 78.5t-29 95.5q0 68 34 113t94 80q-50 30 -78 71t-28 102q0 57 30.5 101.5t84 69.5t121.5 25q66 0 119.5 -23.5t84.5 -66t31 -96.5q0 -61 -27.5 -102.5t-77.5 -73.5
q61 -34 95.5 -78.5zM226 496.5q25 -24.5 72 -47.5q44 24 67.5 48.5t23.5 58.5q0 33 -26.5 53.5t-67.5 20.5t-67.5 -20.5t-26.5 -53.5q0 -35 25 -59.5zM380.5 131q29.5 24 29.5 68q0 42 -30 68.5t-88 53.5q-53 -26 -81 -54t-28 -68q0 -42 32 -67t81 -25q55 0 84.5 24z" />
    <glyph glyph-name="nine.lf" 
d="M140.5 20q-57.5 35 -94.5 94l115 76q16 -34 44 -57t64 -23q42 0 71.5 29t43.5 72t13 84q-37 -21 -69 -32t-68 -11q-50 0 -102 26t-87 79.5t-35 132.5q0 84 39 143.5t96 89t110 29.5q74 0 136 -38.5t100.5 -122.5t38.5 -214q0 -128 -38 -216t-103 -132t-145 -44
q-72 0 -129.5 35zM344 392.5q29 14.5 58 41.5q2 72 -23.5 132.5t-87.5 60.5q-53 0 -81 -37t-28 -93q0 -48 26 -83.5t73 -35.5q34 0 63 14.5z" />
    <glyph glyph-name="zero.osf" horiz-adv-x="530" 
d="M134 25q-55 36 -84 101t-29 150q0 86 28.5 151t83.5 101t132 36t132 -36t83.5 -101t28.5 -151q0 -85 -29 -150t-84 -101t-131 -36t-131 36zM341 144.5q23 52.5 23 131.5q0 80 -23 132t-76 52t-76 -52t-23 -132q0 -79 23 -131.5t76 -52.5t76 52.5z" />
    <glyph glyph-name="one.osf" horiz-adv-x="469" 
d="M197 114v247q-29 -26 -107 -53l-29 106q134 46 180 127h97v-427h113v-114h-383v114h129z" />
    <glyph glyph-name="two.osf" horiz-adv-x="535" 
d="M127.5 195.5q41.5 32.5 103.5 70.5q61 38 88.5 64t27.5 62q0 31 -20 48.5t-51 17.5q-39 0 -62.5 -28t-23.5 -69q0 -7 2 -23l-132 52q-2 48 24.5 87.5t78 62t120.5 22.5q100 0 151.5 -47t51.5 -126q0 -50 -20.5 -84t-50.5 -55.5t-82 -50.5q-44 -25 -70 -42t-48 -40h269
v-117h-432v115q34 48 75.5 80.5z" />
    <glyph glyph-name="three.osf" horiz-adv-x="561" 
d="M112.5 -145.5q-64.5 46.5 -80.5 139.5l132 49q8 -123 115 -123q43 0 69.5 31t26.5 76q0 62 -31 90t-91 28q-29 0 -54 -4v115q24 -6 57 -6q49 0 77.5 25t28.5 78q0 42 -20 66.5t-59 24.5q-43 0 -71.5 -29.5t-30.5 -75.5l-123 63q23 75 84.5 114.5t146.5 39.5
q58 0 106.5 -21.5t77.5 -63.5t29 -103q0 -59 -26.5 -97.5t-80.5 -65.5q58 -23 89 -65.5t31 -104.5q0 -70 -32 -121.5t-86.5 -78.5t-122.5 -27q-97 0 -161.5 46.5z" />
    <glyph glyph-name="four.osf" horiz-adv-x="582" 
d="M324 0h-294v108l269 437h161v-428h92v-117h-92v-196h-136v196zM324 117v252h-2l-153 -252h155z" />
    <glyph glyph-name="five.osf" horiz-adv-x="557" 
d="M122 -154.5q-60 42.5 -80 130.5l127 61q5 -57 31 -89.5t70 -32.5q52 0 79.5 41t27.5 102q0 60 -26 101t-80 41q-36 0 -59.5 -20t-32.5 -54l-124 30l14 389h388v-117h-273l-5 -163q33 29 63.5 42t69.5 13q68 0 115 -34t70 -90.5t23 -124.5q0 -78 -32 -139t-89.5 -95
t-132.5 -34q-84 0 -144 42.5z" />
    <glyph glyph-name="six.osf" 
d="M175 24.5q-62 39.5 -100.5 124.5t-38.5 215q0 128 38 215t103 130t145 43q141 0 206 -113l-98 -98q-33 86 -106 86q-43 0 -72.5 -28t-43.5 -70t-13 -83q39 21 70.5 32t66.5 11q50 0 102 -26.5t87 -80.5t35 -132q0 -84 -38.5 -144t-96 -90.5t-110.5 -30.5q-74 0 -136 39.5
zM382 148q28 38 28 94q0 48 -26 84.5t-73 36.5q-34 0 -62 -14.5t-59 -41.5q-1 -73 24.5 -135t86.5 -62q53 0 81 38z" />
    <glyph glyph-name="seven.osf" horiz-adv-x="573" 
d="M196 109.5q73 169.5 162 309.5h-294v126h462v-81q-102 -162 -176 -334t-101 -326h-151q25 136 98 305.5z" />
    <glyph glyph-name="eight.osf" 
d="M520.5 311.5q34.5 -44.5 34.5 -112.5q0 -52 -29.5 -101.5t-89 -81t-142.5 -31.5q-82 0 -140.5 31t-87.5 78.5t-29 95.5q0 68 34 113t94 80q-50 30 -78 71t-28 102q0 57 30.5 101.5t84 69.5t121.5 25q66 0 119.5 -23.5t84.5 -66t31 -96.5q0 -61 -27.5 -102.5t-77.5 -73.5
q61 -34 95.5 -78.5zM226 496.5q25 -24.5 72 -47.5q44 24 67.5 48.5t23.5 58.5q0 33 -26.5 53.5t-67.5 20.5t-67.5 -20.5t-26.5 -53.5q0 -35 25 -59.5zM380.5 131q29.5 24 29.5 68q0 42 -30 68.5t-88 53.5q-53 -26 -81 -54t-28 -68q0 -42 32 -67t81 -25q55 0 84.5 24z" />
    <glyph glyph-name="nine.osf" horiz-adv-x="572" 
d="M48 -83l110 73q37 -79 100 -79q65 0 94.5 55t29.5 139q-37 -24 -67 -36t-65 -12q-50 0 -99.5 25.5t-82 79t-32.5 131.5q0 84 36.5 144t90.5 89.5t107 29.5q74 0 134 -38.5t96 -122.5t36 -215q0 -129 -36 -216.5t-98 -130.5t-142 -43q-133 0 -212 127zM333 192.5
q27 14.5 56 43.5q2 78 -20.5 139t-86.5 61q-55 0 -80.5 -38t-25.5 -97q0 -50 23.5 -86.5t70.5 -36.5q36 0 63 14.5z" />
    <glyph glyph-name="zero.tosf" 
d="M165 25q-55 36 -84 101t-29 150q0 86 28.5 151t83.5 101t132 36t132 -36t83.5 -101t28.5 -151q0 -85 -29 -150t-84 -101t-131 -36t-131 36zM372 144.5q23 52.5 23 131.5q0 80 -23 132t-76 52t-76 -52t-23 -132q0 -79 23 -131.5t76 -52.5t76 52.5z" />
    <glyph glyph-name="one.tosf" 
d="M252 114v247q-29 -26 -107 -53l-29 106q134 46 180 127h97v-427h113v-114h-383v114h129z" />
    <glyph glyph-name="two.tosf" 
d="M153.5 195.5q41.5 32.5 103.5 70.5q61 38 88.5 64t27.5 62q0 31 -20 48.5t-51 17.5q-39 0 -62.5 -28t-23.5 -69q0 -7 2 -23l-132 52q-2 48 24.5 87.5t78 62t120.5 22.5q100 0 151.5 -47t51.5 -126q0 -50 -20.5 -84t-50.5 -55.5t-82 -50.5q-44 -25 -70 -42t-48 -40h269
v-117h-432v115q34 48 75.5 80.5z" />
    <glyph glyph-name="three.tosf" 
d="M107.5 -145.5q-64.5 46.5 -80.5 139.5l132 49q8 -123 115 -123q43 0 69.5 31t26.5 76q0 62 -31 90t-91 28q-29 0 -54 -4v115q24 -6 57 -6q49 0 77.5 25t28.5 78q0 42 -20 66.5t-59 24.5q-43 0 -71.5 -29.5t-30.5 -75.5l-123 63q23 75 84.5 114.5t146.5 39.5
q58 0 106.5 -21.5t77.5 -63.5t29 -103q0 -59 -26.5 -97.5t-80.5 -65.5q58 -23 89 -65.5t31 -104.5q0 -70 -32 -121.5t-86.5 -78.5t-122.5 -27q-97 0 -161.5 46.5z" />
    <glyph glyph-name="four.tosf" 
d="M340 0h-294v108l269 437h161v-428h92v-117h-92v-196h-136v196zM340 117v252h-2l-153 -252h155z" />
    <glyph glyph-name="five.tosf" 
d="M139 -154.5q-60 42.5 -80 130.5l127 61q5 -57 31 -89.5t70 -32.5q52 0 79.5 41t27.5 102q0 60 -26 101t-80 41q-36 0 -59.5 -20t-32.5 -54l-124 30l14 389h388v-117h-273l-5 -163q33 29 63.5 42t69.5 13q68 0 115 -34t70 -90.5t23 -124.5q0 -78 -32 -139t-89.5 -95
t-132.5 -34q-84 0 -144 42.5z" />
    <glyph glyph-name="six.tosf" 
d="M175 24.5q-62 39.5 -100.5 124.5t-38.5 215q0 128 38 215t103 130t145 43q141 0 206 -113l-98 -98q-33 86 -106 86q-43 0 -72.5 -28t-43.5 -70t-13 -83q39 21 70.5 32t66.5 11q50 0 102 -26.5t87 -80.5t35 -132q0 -84 -38.5 -144t-96 -90.5t-110.5 -30.5q-74 0 -136 39.5
zM382 148q28 38 28 94q0 48 -26 84.5t-73 36.5q-34 0 -62 -14.5t-59 -41.5q-1 -73 24.5 -135t86.5 -62q53 0 81 38z" />
    <glyph glyph-name="seven.tosf" 
d="M195 109.5q73 169.5 162 309.5h-294v126h462v-81q-102 -162 -176 -334t-101 -326h-151q25 136 98 305.5z" />
    <glyph glyph-name="eight.tosf" 
d="M520.5 311.5q34.5 -44.5 34.5 -112.5q0 -52 -29.5 -101.5t-89 -81t-142.5 -31.5q-82 0 -140.5 31t-87.5 78.5t-29 95.5q0 68 34 113t94 80q-50 30 -78 71t-28 102q0 57 30.5 101.5t84 69.5t121.5 25q66 0 119.5 -23.5t84.5 -66t31 -96.5q0 -61 -27.5 -102.5t-77.5 -73.5
q61 -34 95.5 -78.5zM226 496.5q25 -24.5 72 -47.5q44 24 67.5 48.5t23.5 58.5q0 33 -26.5 53.5t-67.5 20.5t-67.5 -20.5t-26.5 -53.5q0 -35 25 -59.5zM380.5 131q29.5 24 29.5 68q0 42 -30 68.5t-88 53.5q-53 -26 -81 -54t-28 -68q0 -42 32 -67t81 -25q55 0 84.5 24z" />
    <glyph glyph-name="nine.tosf" 
d="M48 -83l110 73q37 -79 100 -79q65 0 94.5 55t29.5 139q-37 -24 -67 -36t-65 -12q-50 0 -99.5 25.5t-82 79t-32.5 131.5q0 84 36.5 144t90.5 89.5t107 29.5q74 0 134 -38.5t96 -122.5t36 -215q0 -129 -36 -216.5t-98 -130.5t-142 -43q-133 0 -212 127zM333 192.5
q27 14.5 56 43.5q2 78 -20.5 139t-86.5 61q-55 0 -80.5 -38t-25.5 -97q0 -50 23.5 -86.5t70.5 -36.5q36 0 63 14.5z" />
    <glyph glyph-name="uni2080" unicode="&#x2080;" horiz-adv-x="390" 
d="M103.5 -92.5q-41.5 23.5 -67.5 74.5t-26 129q0 116 49.5 176.5t135.5 60.5q87 0 136 -60t49 -177q0 -115 -53.5 -171t-131.5 -56q-50 0 -91.5 23.5zM255 12q14 42 14 99q0 62 -13.5 106.5t-60.5 44.5q-46 0 -59 -44.5t-13 -106.5q0 -57 13.5 -99t58.5 -42q46 0 60 42z
" />
    <glyph glyph-name="uni2081" unicode="&#x2081;" horiz-adv-x="390" 
d="M145 -26v236q-35 -22 -81 -29l-19 76q92 22 128 84h84v-367h79v-84h-271v84h80z" />
    <glyph glyph-name="uni2082" unicode="&#x2082;" horiz-adv-x="390" 
d="M75 41q30 29 79 64q48 35 70 58.5t22 53.5q0 20 -13.5 33.5t-34.5 13.5q-25 0 -40 -21t-15 -52q0 -8 2 -24l-110 34q-2 68 44.5 107.5t118.5 39.5q80 0 121.5 -38.5t41.5 -96.5q0 -37 -19 -67.5t-45 -52.5t-67 -50q-32 -22 -48.5 -36t-21.5 -28h200v-89h-329v82
q14 40 44 69z" />
    <glyph glyph-name="uni2083" unicode="&#x2083;" horiz-adv-x="390" 
d="M81 -83q-49 33 -59 93l102 33q2 -36 23 -55.5t51 -19.5q25 0 42 15.5t17 41.5q0 30 -23.5 46t-61.5 16q-16 0 -32 -2v81q20 -3 37 -3q31 0 51.5 14t20.5 40q0 23 -15.5 35t-37.5 12q-25 0 -44 -17.5t-23 -46.5l-92 41q16 49 62.5 78t103.5 29q40 0 76 -15.5t58.5 -44.5
t22.5 -69q0 -31 -15.5 -52t-47.5 -37q72 -34 72 -103q0 -43 -24 -75.5t-63.5 -50t-85.5 -17.5q-66 0 -115 33z" />
    <glyph glyph-name="uni2084" unicode="&#x2084;" horiz-adv-x="390" 
d="M205 -8h-189v72l175 277h122v-266h59v-83h-59v-102h-108v102zM205 75v138h-1l-85 -138h86z" />
    <glyph glyph-name="uni2085" unicode="&#x2085;" horiz-adv-x="390" 
d="M78 -86.5q-46 29.5 -59 86.5l105 38q3 -33 19 -51t43 -18q29 0 46.5 22t17.5 54q0 30 -17.5 52.5t-47.5 22.5q-20 0 -36 -13t-21 -33l-99 22l9 245h281v-89h-186l-3 -64q39 21 81 21q46 0 81 -22t54 -58t19 -77q0 -48 -24.5 -86t-66.5 -60t-93 -22q-57 0 -103 29.5z" />
    <glyph glyph-name="uni2086" unicode="&#x2086;" horiz-adv-x="390" 
d="M109.5 -92.5q-41.5 23.5 -67.5 74.5t-26 129t25.5 131t69 79.5t97.5 26.5q92 0 142 -76l-69 -62q-17 23 -33.5 36t-38.5 13q-31 0 -50.5 -26t-23.5 -60q40 19 78 19q34 0 69.5 -15.5t59.5 -48.5t24 -82q0 -52 -26.5 -88.5t-65 -55t-73.5 -18.5q-50 0 -91.5 23.5z
M238.5 -8q15.5 20 15.5 50q0 24 -14.5 43t-38.5 19q-35 0 -70 -28q-1 -38 13.5 -71t48.5 -33q30 0 45.5 20z" />
    <glyph glyph-name="uni2087" unicode="&#x2087;" horiz-adv-x="390" 
d="M223 252h-186v89h325v-57q-74 -94 -120 -196.5t-52 -197.5h-126q17 191 159 362z" />
    <glyph glyph-name="uni2088" unicode="&#x2088;" horiz-adv-x="391" 
d="M370 14q0 -56 -43.5 -93t-133.5 -37q-89 0 -130.5 37t-41.5 93q0 39 20 64.5t55 45.5q-62 39 -62 102q0 55 46.5 88.5t115.5 33.5t113.5 -33t44.5 -89q0 -29 -16 -51t-45 -40q77 -42 77 -121zM159 194.5q15 -11.5 45 -22.5q20 11 30.5 23t10.5 28q0 19 -15.5 28.5
t-35.5 9.5q-19 0 -34.5 -10t-15.5 -28q0 -17 15 -28.5zM239 -17q19 13 19 34t-18.5 35t-54.5 29q-25 -14 -39 -29.5t-14 -34.5q0 -21 19.5 -34t43.5 -13q25 0 44 13z" />
    <glyph glyph-name="uni2089" unicode="&#x2089;" horiz-adv-x="390" 
d="M91.5 -93.5q-39.5 22.5 -66.5 62.5l84 55q10 -22 29 -37t40 -15q31 0 51 25t22 60q-41 -18 -77 -18q-35 0 -70 16t-58.5 49.5t-23.5 82.5q0 51 26 87.5t65.5 55t79.5 18.5q45 0 85.5 -24t66.5 -75t26 -129q0 -77 -25.5 -130t-68.5 -79.5t-96 -26.5q-50 0 -89.5 22.5z
M223.5 132.5q15.5 4.5 30.5 17.5q1 43 -13 76t-50 33q-27 0 -43 -19t-16 -48q0 -26 15 -45t42 -19q19 0 34.5 4.5z" />
    <glyph glyph-name="zero.dnom" horiz-adv-x="390" 
d="M103.5 17.5q-41.5 23.5 -67.5 74.5t-26 129q0 116 49.5 176.5t135.5 60.5q87 0 136 -60t49 -177q0 -115 -53.5 -171t-131.5 -56q-50 0 -91.5 23.5zM255 122q14 42 14 99q0 62 -13.5 106.5t-60.5 44.5q-46 0 -59 -44.5t-13 -106.5q0 -57 13.5 -99t58.5 -42q46 0 60 42z
" />
    <glyph glyph-name="one.dnom" horiz-adv-x="390" 
d="M145 84v236q-35 -22 -81 -29l-19 76q92 22 128 84h84v-367h79v-84h-271v84h80z" />
    <glyph glyph-name="two.dnom" horiz-adv-x="390" 
d="M75 151q30 29 79 64q48 35 70 58.5t22 53.5q0 20 -13.5 33.5t-34.5 13.5q-25 0 -40 -21t-15 -52q0 -8 2 -24l-110 34q-2 68 44.5 107.5t118.5 39.5q80 0 121.5 -38.5t41.5 -96.5q0 -37 -19 -67.5t-45 -52.5t-67 -50q-32 -22 -48.5 -36t-21.5 -28h200v-89h-329v82
q14 40 44 69z" />
    <glyph glyph-name="three.dnom" horiz-adv-x="390" 
d="M81 27q-49 33 -59 93l102 33q2 -36 23 -55.5t51 -19.5q25 0 42 15.5t17 41.5q0 30 -23.5 46t-61.5 16q-16 0 -32 -2v81q20 -3 37 -3q31 0 51.5 14t20.5 40q0 23 -15.5 35t-37.5 12q-25 0 -44 -17.5t-23 -46.5l-92 41q16 49 62.5 78t103.5 29q40 0 76 -15.5t58.5 -44.5
t22.5 -69q0 -31 -15.5 -52t-47.5 -37q72 -34 72 -103q0 -43 -24 -75.5t-63.5 -50t-85.5 -17.5q-66 0 -115 33z" />
    <glyph glyph-name="four.dnom" horiz-adv-x="390" 
d="M205 102h-189v72l175 277h122v-266h59v-83h-59v-102h-108v102zM205 185v138h-1l-85 -138h86z" />
    <glyph glyph-name="five.dnom" horiz-adv-x="390" 
d="M78 23.5q-46 29.5 -59 86.5l105 38q3 -33 19 -51t43 -18q29 0 46.5 22t17.5 54q0 30 -17.5 52.5t-47.5 22.5q-20 0 -36 -13t-21 -33l-99 22l9 245h281v-89h-186l-3 -64q39 21 81 21q46 0 81 -22t54 -58t19 -77q0 -48 -24.5 -86t-66.5 -60t-93 -22q-57 0 -103 29.5z" />
    <glyph glyph-name="six.dnom" horiz-adv-x="390" 
d="M109.5 17.5q-41.5 23.5 -67.5 74.5t-26 129t25.5 131t69 79.5t97.5 26.5q92 0 142 -76l-69 -62q-17 23 -33.5 36t-38.5 13q-31 0 -50.5 -26t-23.5 -60q40 19 78 19q34 0 69.5 -15.5t59.5 -48.5t24 -82q0 -52 -26.5 -88.5t-65 -55t-73.5 -18.5q-50 0 -91.5 23.5z
M238.5 102q15.5 20 15.5 50q0 24 -14.5 43t-38.5 19q-35 0 -70 -28q-1 -38 13.5 -71t48.5 -33q30 0 45.5 20z" />
    <glyph glyph-name="seven.dnom" horiz-adv-x="390" 
d="M223 362h-186v89h325v-57q-74 -94 -120 -196.5t-52 -197.5h-126q17 191 159 362z" />
    <glyph glyph-name="eight.dnom" horiz-adv-x="391" 
d="M370 124q0 -56 -43.5 -93t-133.5 -37q-89 0 -130.5 37t-41.5 93q0 39 20 64.5t55 45.5q-62 39 -62 102q0 55 46.5 88.5t115.5 33.5t113.5 -33t44.5 -89q0 -29 -16 -51t-45 -40q77 -42 77 -121zM159 304.5q15 -11.5 45 -22.5q20 11 30.5 23t10.5 28q0 19 -15.5 28.5
t-35.5 9.5q-19 0 -34.5 -10t-15.5 -28q0 -17 15 -28.5zM239 93q19 13 19 34t-18.5 35t-54.5 29q-25 -14 -39 -29.5t-14 -34.5q0 -21 19.5 -34t43.5 -13q25 0 44 13z" />
    <glyph glyph-name="nine.dnom" horiz-adv-x="390" 
d="M91.5 16.5q-39.5 22.5 -66.5 62.5l84 55q10 -22 29 -37t40 -15q31 0 51 25t22 60q-41 -18 -77 -18q-35 0 -70 16t-58.5 49.5t-23.5 82.5q0 51 26 87.5t65.5 55t79.5 18.5q45 0 85.5 -24t66.5 -75t26 -129q0 -77 -25.5 -130t-68.5 -79.5t-96 -26.5q-50 0 -89.5 22.5z
M223.5 242.5q15.5 4.5 30.5 17.5q1 43 -13 76t-50 33q-27 0 -43 -19t-16 -48q0 -26 15 -45t42 -19q19 0 34.5 4.5z" />
    <glyph glyph-name="zero.numr" horiz-adv-x="390" 
d="M103.5 307.5q-41.5 23.5 -67.5 74.5t-26 129q0 116 49.5 176.5t135.5 60.5q87 0 136 -60t49 -177q0 -115 -53.5 -171t-131.5 -56q-50 0 -91.5 23.5zM255 412q14 42 14 99q0 62 -13.5 106.5t-60.5 44.5q-46 0 -59 -44.5t-13 -106.5q0 -57 13.5 -99t58.5 -42q46 0 60 42z
" />
    <glyph glyph-name="one.numr" horiz-adv-x="390" 
d="M145 374v236q-35 -22 -81 -29l-19 76q92 22 128 84h84v-367h79v-84h-271v84h80z" />
    <glyph glyph-name="two.numr" horiz-adv-x="390" 
d="M75 441q30 29 79 64q48 35 70 58.5t22 53.5q0 20 -13.5 33.5t-34.5 13.5q-25 0 -40 -21t-15 -52q0 -8 2 -24l-110 34q-2 68 44.5 107.5t118.5 39.5q80 0 121.5 -38.5t41.5 -96.5q0 -37 -19 -67.5t-45 -52.5t-67 -50q-32 -22 -48.5 -36t-21.5 -28h200v-89h-329v82
q14 40 44 69z" />
    <glyph glyph-name="three.numr" horiz-adv-x="390" 
d="M81 317q-49 33 -59 93l102 33q2 -36 23 -55.5t51 -19.5q25 0 42 15.5t17 41.5q0 30 -23.5 46t-61.5 16q-16 0 -32 -2v81q20 -3 37 -3q31 0 51.5 14t20.5 40q0 23 -15.5 35t-37.5 12q-25 0 -44 -17.5t-23 -46.5l-92 41q16 49 62.5 78t103.5 29q40 0 76 -15.5t58.5 -44.5
t22.5 -69q0 -31 -15.5 -52t-47.5 -37q72 -34 72 -103q0 -43 -24 -75.5t-63.5 -50t-85.5 -17.5q-66 0 -115 33z" />
    <glyph glyph-name="four.numr" horiz-adv-x="390" 
d="M205 392h-189v72l175 277h122v-266h59v-83h-59v-102h-108v102zM205 475v138h-1l-85 -138h86z" />
    <glyph glyph-name="five.numr" horiz-adv-x="390" 
d="M78 313.5q-46 29.5 -59 86.5l105 38q3 -33 19 -51t43 -18q29 0 46.5 22t17.5 54q0 30 -17.5 52.5t-47.5 22.5q-20 0 -36 -13t-21 -33l-99 22l9 245h281v-89h-186l-3 -64q39 21 81 21q46 0 81 -22t54 -58t19 -77q0 -48 -24.5 -86t-66.5 -60t-93 -22q-57 0 -103 29.5z" />
    <glyph glyph-name="six.numr" horiz-adv-x="390" 
d="M109.5 307.5q-41.5 23.5 -67.5 74.5t-26 129t25.5 131t69 79.5t97.5 26.5q92 0 142 -76l-69 -62q-17 23 -33.5 36t-38.5 13q-31 0 -50.5 -26t-23.5 -60q40 19 78 19q34 0 69.5 -15.5t59.5 -48.5t24 -82q0 -52 -26.5 -88.5t-65 -55t-73.5 -18.5q-50 0 -91.5 23.5z
M238.5 392q15.5 20 15.5 50q0 24 -14.5 43t-38.5 19q-35 0 -70 -28q-1 -38 13.5 -71t48.5 -33q30 0 45.5 20z" />
    <glyph glyph-name="seven.numr" horiz-adv-x="390" 
d="M223 652h-186v89h325v-57q-74 -94 -120 -196.5t-52 -197.5h-126q17 191 159 362z" />
    <glyph glyph-name="eight.numr" horiz-adv-x="391" 
d="M370 414q0 -56 -43.5 -93t-133.5 -37q-89 0 -130.5 37t-41.5 93q0 39 20 64.5t55 45.5q-62 39 -62 102q0 55 46.5 88.5t115.5 33.5t113.5 -33t44.5 -89q0 -29 -16 -51t-45 -40q77 -42 77 -121zM159 594.5q15 -11.5 45 -22.5q20 11 30.5 23t10.5 28q0 19 -15.5 28.5
t-35.5 9.5q-19 0 -34.5 -10t-15.5 -28q0 -17 15 -28.5zM239 383q19 13 19 34t-18.5 35t-54.5 29q-25 -14 -39 -29.5t-14 -34.5q0 -21 19.5 -34t43.5 -13q25 0 44 13z" />
    <glyph glyph-name="nine.numr" horiz-adv-x="390" 
d="M91.5 306.5q-39.5 22.5 -66.5 62.5l84 55q10 -22 29 -37t40 -15q31 0 51 25t22 60q-41 -18 -77 -18q-35 0 -70 16t-58.5 49.5t-23.5 82.5q0 51 26 87.5t65.5 55t79.5 18.5q45 0 85.5 -24t66.5 -75t26 -129q0 -77 -25.5 -130t-68.5 -79.5t-96 -26.5q-50 0 -89.5 22.5z
M223.5 532.5q15.5 4.5 30.5 17.5q1 43 -13 76t-50 33q-27 0 -43 -19t-16 -48q0 -26 15 -45t42 -19q19 0 34.5 4.5z" />
    <glyph glyph-name="uni2070" unicode="&#x2070;" horiz-adv-x="390" 
d="M103.5 412.5q-41.5 23.5 -67.5 74.5t-26 129q0 116 49.5 176.5t135.5 60.5q87 0 136 -60t49 -177q0 -115 -53.5 -171t-131.5 -56q-50 0 -91.5 23.5zM255 517q14 42 14 99q0 62 -13.5 106.5t-60.5 44.5q-46 0 -59 -44.5t-13 -106.5q0 -57 13.5 -99t58.5 -42q46 0 60 42z
" />
    <glyph glyph-name="uni00B9" unicode="&#xb9;" horiz-adv-x="390" 
d="M145 479v236q-35 -22 -81 -29l-19 76q92 22 128 84h84v-367h79v-84h-271v84h80z" />
    <glyph glyph-name="uni00B2" unicode="&#xb2;" horiz-adv-x="390" 
d="M75 546q30 29 79 64q48 35 70 58.5t22 53.5q0 20 -13.5 33.5t-34.5 13.5q-25 0 -40 -21t-15 -52q0 -8 2 -24l-110 34q-2 68 44.5 107.5t118.5 39.5q80 0 121.5 -38.5t41.5 -96.5q0 -37 -19 -67.5t-45 -52.5t-67 -50q-32 -22 -48.5 -36t-21.5 -28h200v-89h-329v82
q14 40 44 69z" />
    <glyph glyph-name="uni00B3" unicode="&#xb3;" horiz-adv-x="390" 
d="M81 422q-49 33 -59 93l102 33q2 -36 23 -55.5t51 -19.5q25 0 42 15.5t17 41.5q0 30 -23.5 46t-61.5 16q-16 0 -32 -2v81q20 -3 37 -3q31 0 51.5 14t20.5 40q0 23 -15.5 35t-37.5 12q-25 0 -44 -17.5t-23 -46.5l-92 41q16 49 62.5 78t103.5 29q40 0 76 -15.5t58.5 -44.5
t22.5 -69q0 -31 -15.5 -52t-47.5 -37q72 -34 72 -103q0 -43 -24 -75.5t-63.5 -50t-85.5 -17.5q-66 0 -115 33z" />
    <glyph glyph-name="uni2074" unicode="&#x2074;" horiz-adv-x="390" 
d="M205 497h-189v72l175 277h122v-266h59v-83h-59v-102h-108v102zM205 580v138h-1l-85 -138h86z" />
    <glyph glyph-name="uni2075" unicode="&#x2075;" horiz-adv-x="390" 
d="M78 418.5q-46 29.5 -59 86.5l105 38q3 -33 19 -51t43 -18q29 0 46.5 22t17.5 54q0 30 -17.5 52.5t-47.5 22.5q-20 0 -36 -13t-21 -33l-99 22l9 245h281v-89h-186l-3 -64q39 21 81 21q46 0 81 -22t54 -58t19 -77q0 -48 -24.5 -86t-66.5 -60t-93 -22q-57 0 -103 29.5z" />
    <glyph glyph-name="uni2076" unicode="&#x2076;" horiz-adv-x="390" 
d="M109.5 412.5q-41.5 23.5 -67.5 74.5t-26 129t25.5 131t69 79.5t97.5 26.5q92 0 142 -76l-69 -62q-17 23 -33.5 36t-38.5 13q-31 0 -50.5 -26t-23.5 -60q40 19 78 19q34 0 69.5 -15.5t59.5 -48.5t24 -82q0 -52 -26.5 -88.5t-65 -55t-73.5 -18.5q-50 0 -91.5 23.5z
M238.5 497q15.5 20 15.5 50q0 24 -14.5 43t-38.5 19q-35 0 -70 -28q-1 -38 13.5 -71t48.5 -33q30 0 45.5 20z" />
    <glyph glyph-name="uni2077" unicode="&#x2077;" horiz-adv-x="390" 
d="M223 757h-186v89h325v-57q-74 -94 -120 -196.5t-52 -197.5h-126q17 191 159 362z" />
    <glyph glyph-name="uni2078" unicode="&#x2078;" horiz-adv-x="391" 
d="M370 519q0 -56 -43.5 -93t-133.5 -37q-89 0 -130.5 37t-41.5 93q0 39 20 64.5t55 45.5q-62 39 -62 102q0 55 46.5 88.5t115.5 33.5t113.5 -33t44.5 -89q0 -29 -16 -51t-45 -40q77 -42 77 -121zM159 699.5q15 -11.5 45 -22.5q20 11 30.5 23t10.5 28q0 19 -15.5 28.5
t-35.5 9.5q-19 0 -34.5 -10t-15.5 -28q0 -17 15 -28.5zM239 488q19 13 19 34t-18.5 35t-54.5 29q-25 -14 -39 -29.5t-14 -34.5q0 -21 19.5 -34t43.5 -13q25 0 44 13z" />
    <glyph glyph-name="uni2079" unicode="&#x2079;" horiz-adv-x="390" 
d="M91.5 411.5q-39.5 22.5 -66.5 62.5l84 55q10 -22 29 -37t40 -15q31 0 51 25t22 60q-41 -18 -77 -18q-35 0 -70 16t-58.5 49.5t-23.5 82.5q0 51 26 87.5t65.5 55t79.5 18.5q45 0 85.5 -24t66.5 -75t26 -129q0 -77 -25.5 -130t-68.5 -79.5t-96 -26.5q-50 0 -89.5 22.5z
M223.5 637.5q15.5 4.5 30.5 17.5q1 43 -13 76t-50 33q-27 0 -43 -19t-16 -48q0 -26 15 -45t42 -19q19 0 34.5 4.5z" />
    <glyph glyph-name="fraction" unicode="&#x2044;" horiz-adv-x="170" 
d="M237 741h109l-414 -741h-108z" />
    <glyph glyph-name="onehalf" unicode="&#xbd;" horiz-adv-x="950" 
d="M145 374v236q-35 -22 -81 -29l-19 76q92 22 128 84h84v-367h79v-84h-271v84h80zM627 741h109l-414 -741h-108zM635 151q30 29 79 64q48 35 70 58.5t22 53.5q0 20 -13.5 33.5t-34.5 13.5q-25 0 -40 -21t-15 -52q0 -8 2 -24l-110 34q-2 68 44.5 107.5t118.5 39.5
q80 0 121.5 -38.5t41.5 -96.5q0 -37 -19 -67.5t-45 -52.5t-67 -50q-32 -22 -48.5 -36t-21.5 -28h200v-89h-329v82q14 40 44 69z" />
    <glyph glyph-name="uni2153" unicode="&#x2153;" horiz-adv-x="950" 
d="M145 374v236q-35 -22 -81 -29l-19 76q92 22 128 84h84v-367h79v-84h-271v84h80zM627 741h109l-414 -741h-108zM641 27q-49 33 -59 93l102 33q2 -36 23 -55.5t51 -19.5q25 0 42 15.5t17 41.5q0 30 -23.5 46t-61.5 16q-16 0 -32 -2v81q19 -3 37 -3q31 0 51.5 14t20.5 40
q0 23 -15.5 35t-37.5 12q-25 0 -44 -17.5t-23 -46.5l-92 41q16 49 62.5 78t103.5 29q40 0 76 -15.5t58.5 -44.5t22.5 -69q0 -31 -15.5 -52t-47.5 -37q72 -34 72 -103q0 -43 -24 -75.5t-63.5 -50t-85.5 -17.5q-66 0 -115 33z" />
    <glyph glyph-name="uni2154" unicode="&#x2154;" horiz-adv-x="977" 
d="M75 441q30 29 79 64q48 35 70 58.5t22 53.5q0 20 -13.5 33.5t-34.5 13.5q-25 0 -40 -21t-15 -52q0 -8 2 -24l-110 34q-2 68 44.5 107.5t118.5 39.5q80 0 121.5 -38.5t41.5 -96.5q0 -37 -19 -67.5t-45 -52.5t-67 -50q-32 -22 -48.5 -36t-21.5 -28h200v-89h-329v82
q14 40 44 69zM654 741h109l-414 -741h-108zM668 27q-49 33 -59 93l102 33q2 -36 23 -55.5t51 -19.5q25 0 42 15.5t17 41.5q0 30 -23.5 46t-61.5 16q-16 0 -32 -2v81q20 -3 37 -3q31 0 51.5 14t20.5 40q0 23 -15.5 35t-37.5 12q-25 0 -44 -17.5t-23 -46.5l-92 41
q16 49 62.5 78t103.5 29q40 0 76 -15.5t58.5 -44.5t22.5 -69q0 -31 -15.5 -52t-47.5 -37q72 -34 72 -103q0 -43 -24 -75.5t-63.5 -50t-85.5 -17.5q-66 0 -115 33z" />
    <glyph glyph-name="onequarter" unicode="&#xbc;" horiz-adv-x="902" 
d="M145 374v236q-35 -22 -81 -29l-19 76q92 22 128 84h84v-367h79v-84h-271v84h80zM627 741h109l-414 -741h-108zM717 102h-189v72l175 277h122v-266h59v-83h-59v-102h-108v102zM717 185v138h-1l-85 -138h86z" />
    <glyph glyph-name="threequarters" unicode="&#xbe;" horiz-adv-x="902" 
d="M81 317q-49 33 -59 93l102 33q2 -36 23 -55.5t51 -19.5q25 0 42 15.5t17 41.5q0 30 -23.5 46t-61.5 16q-16 0 -32 -2v81q20 -3 37 -3q31 0 51.5 14t20.5 40q0 23 -15.5 35t-37.5 12q-25 0 -44 -17.5t-23 -46.5l-92 41q16 49 62.5 78t103.5 29q40 0 76 -15.5t58.5 -44.5
t22.5 -69q0 -31 -15.5 -52t-47.5 -37q72 -34 72 -103q0 -43 -24 -75.5t-63.5 -50t-85.5 -17.5q-66 0 -115 33zM627 741h109l-414 -741h-108zM717 102h-189v72l175 277h122v-266h59v-83h-59v-102h-108v102zM717 185v138h-1l-85 -138h86z" />
    <glyph glyph-name="uni2155" unicode="&#x2155;" horiz-adv-x="979" 
d="M145 374v236q-35 -22 -81 -29l-19 76q92 22 128 84h84v-367h79v-84h-271v84h80zM627 741h109l-414 -741h-108zM667 23.5q-46 29.5 -59 86.5l105 38q3 -33 19 -51t43 -18q29 0 46.5 22t17.5 54q0 30 -17.5 52.5t-47.5 22.5q-20 0 -36 -13t-21 -33l-99 22l9 245h281v-89
h-186l-3 -64q39 21 81 21q46 0 81 -22t54 -58t19 -77q0 -48 -24.5 -86t-66.5 -60t-93 -22q-57 0 -103 29.5z" />
    <glyph glyph-name="uni2156" unicode="&#x2156;" horiz-adv-x="1006" 
d="M75 441q30 29 79 64q48 35 70 58.5t22 53.5q0 20 -13.5 33.5t-34.5 13.5q-25 0 -40 -21t-15 -52q0 -8 2 -24l-110 34q-2 68 44.5 107.5t118.5 39.5q80 0 121.5 -38.5t41.5 -96.5q0 -37 -19 -67.5t-45 -52.5t-67 -50q-32 -22 -48.5 -36t-21.5 -28h200v-89h-329v82
q14 40 44 69zM654 741h109l-414 -741h-108zM694 23.5q-46 29.5 -59 86.5l105 38q3 -33 19 -51t43 -18q29 0 46.5 22t17.5 54q0 30 -17.5 52.5t-47.5 22.5q-20 0 -36 -13t-21 -33l-99 22l9 245h281v-89h-186l-3 -64q39 21 81 21q46 0 81 -22t54 -58t19 -77q0 -48 -24.5 -86
t-66.5 -60t-93 -22q-57 0 -103 29.5z" />
    <glyph glyph-name="uni2157" unicode="&#x2157;" horiz-adv-x="979" 
d="M81 317q-49 33 -59 93l102 33q2 -36 23 -55.5t51 -19.5q25 0 42 15.5t17 41.5q0 30 -23.5 46t-61.5 16q-16 0 -32 -2v81q20 -3 37 -3q31 0 51.5 14t20.5 40q0 23 -15.5 35t-37.5 12q-25 0 -44 -17.5t-23 -46.5l-92 41q16 49 62.5 78t103.5 29q40 0 76 -15.5t58.5 -44.5
t22.5 -69q0 -31 -15.5 -52t-47.5 -37q72 -34 72 -103q0 -43 -24 -75.5t-63.5 -50t-85.5 -17.5q-66 0 -115 33zM627 741h109l-414 -741h-108zM667 23.5q-46 29.5 -59 86.5l105 38q3 -33 19 -51t43 -18q29 0 46.5 22t17.5 54q0 30 -17.5 52.5t-47.5 22.5q-20 0 -36 -13
t-21 -33l-99 22l9 245h281v-89h-186l-3 -64q39 21 81 21q46 0 81 -22t54 -58t19 -77q0 -48 -24.5 -86t-66.5 -60t-93 -22q-57 0 -103 29.5z" />
    <glyph glyph-name="uni2158" unicode="&#x2158;" horiz-adv-x="979" 
d="M205 392h-189v72l175 277h122v-266h59v-83h-59v-102h-108v102zM627 741h109l-414 -741h-108zM205 475v138h-1l-85 -138h86zM667 23.5q-46 29.5 -59 86.5l105 38q3 -33 19 -51t43 -18q29 0 46.5 22t17.5 54q0 30 -17.5 52.5t-47.5 22.5q-20 0 -36 -13t-21 -33l-99 22
l9 245h281v-89h-186l-3 -64q39 21 81 21q46 0 81 -22t54 -58t19 -77q0 -48 -24.5 -86t-66.5 -60t-93 -22q-57 0 -103 29.5z" />
    <glyph glyph-name="uni2159" unicode="&#x2159;" horiz-adv-x="950" 
d="M145 374v236q-35 -22 -81 -29l-19 76q92 22 128 84h84v-367h79v-84h-271v84h80zM627 741h109l-414 -741h-108zM669.5 17.5q-41.5 23.5 -67.5 74.5t-26 129t25.5 131t69 79.5t97.5 26.5q92 0 142 -76l-69 -62q-17 23 -33.5 36t-38.5 13q-31 0 -50.5 -26t-23.5 -60
q40 19 78 19q34 0 69.5 -15.5t59.5 -48.5t24 -82q0 -52 -26.5 -88.5t-65 -55t-73.5 -18.5q-50 0 -91.5 23.5zM798.5 102q15.5 20 15.5 50q0 24 -14.5 43t-38.5 19q-35 0 -70 -28q-1 -38 13.5 -71t48.5 -33q30 0 45.5 20z" />
    <glyph glyph-name="uni215A" unicode="&#x215a;" horiz-adv-x="950" 
d="M78 313.5q-46 29.5 -59 86.5l105 38q3 -33 19 -51t43 -18q29 0 46.5 22t17.5 54q0 30 -17.5 52.5t-47.5 22.5q-20 0 -36 -13t-21 -33l-99 22l9 245h281v-89h-186l-3 -64q39 21 81 21q46 0 81 -22t54 -58t19 -77q0 -48 -24.5 -86t-66.5 -60t-93 -22q-57 0 -103 29.5z
M627 741h109l-414 -741h-108zM669.5 17.5q-41.5 23.5 -67.5 74.5t-26 129t25.5 131t69 79.5t97.5 26.5q92 0 142 -76l-69 -62q-17 23 -33.5 36t-38.5 13q-31 0 -50.5 -26t-23.5 -60q40 19 78 19q34 0 69.5 -15.5t59.5 -48.5t24 -82q0 -52 -26.5 -88.5t-65 -55t-73.5 -18.5
q-50 0 -91.5 23.5zM798.5 102q15.5 20 15.5 50q0 24 -14.5 43t-38.5 19q-35 0 -70 -28q-1 -38 13.5 -71t48.5 -33q30 0 45.5 20z" />
    <glyph glyph-name="uni2150" unicode="&#x2150;" horiz-adv-x="977" 
d="M145 374v236q-35 -22 -81 -29l-19 76q92 22 128 84h84v-367h79v-84h-271v84h80zM627 741h109l-414 -741h-108zM810 362h-186v89h325v-57q-74 -94 -120 -196.5t-52 -197.5h-126q17 191 159 362z" />
    <glyph glyph-name="two_fraction_seven" horiz-adv-x="1004" 
d="M75 441q30 29 79 64q48 35 70 58.5t22 53.5q0 20 -13.5 33.5t-34.5 13.5q-25 0 -40 -21t-15 -52q0 -8 2 -24l-110 34q-2 68 44.5 107.5t118.5 39.5q80 0 121.5 -38.5t41.5 -96.5q0 -37 -19 -67.5t-45 -52.5t-67 -50q-32 -22 -48.5 -36t-21.5 -28h200v-89h-329v82
q14 40 44 69zM654 741h109l-414 -741h-108zM837 362h-186v89h325v-57q-74 -94 -120 -196.5t-52 -197.5h-126q17 191 159 362z" />
    <glyph glyph-name="three_fraction_seven" horiz-adv-x="977" 
d="M81 317q-49 33 -59 93l102 33q2 -36 23 -55.5t51 -19.5q25 0 42 15.5t17 41.5q0 30 -23.5 46t-61.5 16q-16 0 -32 -2v81q20 -3 37 -3q31 0 51.5 14t20.5 40q0 23 -15.5 35t-37.5 12q-25 0 -44 -17.5t-23 -46.5l-92 41q16 49 62.5 78t103.5 29q40 0 76 -15.5t58.5 -44.5
t22.5 -69q0 -31 -15.5 -52t-47.5 -37q72 -34 72 -103q0 -43 -24 -75.5t-63.5 -50t-85.5 -17.5q-66 0 -115 33zM627 741h109l-414 -741h-108zM810 362h-186v89h325v-57q-74 -94 -120 -196.5t-52 -197.5h-126q17 191 159 362z" />
    <glyph glyph-name="four_fraction_seven" horiz-adv-x="977" 
d="M205 392h-189v72l175 277h122v-266h59v-83h-59v-102h-108v102zM627 741h109l-414 -741h-108zM205 475v138h-1l-85 -138h86zM810 362h-186v89h325v-57q-74 -94 -120 -196.5t-52 -197.5h-126q17 191 159 362z" />
    <glyph glyph-name="five_fraction_seven" horiz-adv-x="977" 
d="M78 313.5q-46 29.5 -59 86.5l105 38q3 -33 19 -51t43 -18q29 0 46.5 22t17.5 54q0 30 -17.5 52.5t-47.5 22.5q-20 0 -36 -13t-21 -33l-99 22l9 245h281v-89h-186l-3 -64q39 21 81 21q46 0 81 -22t54 -58t19 -77q0 -48 -24.5 -86t-66.5 -60t-93 -22q-57 0 -103 29.5z
M627 741h109l-414 -741h-108zM810 362h-186v89h325v-57q-74 -94 -120 -196.5t-52 -197.5h-126q17 191 159 362z" />
    <glyph glyph-name="six_fraction_seven" horiz-adv-x="977" 
d="M109.5 307.5q-41.5 23.5 -67.5 74.5t-26 129t25.5 131t69 79.5t97.5 26.5q92 0 142 -76l-69 -62q-17 23 -33.5 36t-38.5 13q-31 0 -50.5 -26t-23.5 -60q40 19 78 19q34 0 69.5 -15.5t59.5 -48.5t24 -82q0 -52 -26.5 -88.5t-65 -55t-73.5 -18.5q-50 0 -91.5 23.5zM627 741
h109l-414 -741h-108zM238.5 392q15.5 20 15.5 50q0 24 -14.5 43t-38.5 19q-35 0 -70 -28q-1 -38 13.5 -71t48.5 -33q30 0 45.5 20zM810 362h-186v89h325v-57q-74 -94 -120 -196.5t-52 -197.5h-126q17 191 159 362z" />
    <glyph glyph-name="oneeighth" unicode="&#x215b;" horiz-adv-x="951" 
d="M145 374v236q-35 -22 -81 -29l-19 76q92 22 128 84h84v-367h79v-84h-271v84h80zM627 741h109l-414 -741h-108zM930 124q0 -56 -43.5 -93t-133.5 -37q-89 0 -130.5 37t-41.5 93q0 39 20 64.5t55 45.5q-62 39 -62 102q0 55 46.5 88.5t115.5 33.5t113.5 -33t44.5 -89
q0 -29 -16 -51t-45 -40q77 -42 77 -121zM719 304.5q15 -11.5 45 -22.5q20 11 30.5 23t10.5 28q0 19 -15.5 28.5t-35.5 9.5q-19 0 -34.5 -10t-15.5 -28q0 -17 15 -28.5zM799 93q19 13 19 34t-18.5 35t-54.5 29q-25 -14 -39 -29.5t-14 -34.5q0 -21 19.5 -34t43.5 -13
q25 0 44 13z" />
    <glyph glyph-name="threeeighths" unicode="&#x215c;" horiz-adv-x="951" 
d="M345 351.5q-24 -32.5 -63.5 -50t-85.5 -17.5q-66 0 -115 33t-59 93l102 33q2 -36 23 -55.5t51 -19.5q25 0 42 15.5t17 41.5q0 30 -23.5 46t-61.5 16q-16 0 -32 -2v81q20 -3 37 -3q31 0 51.5 14t20.5 40q0 23 -15.5 35t-37.5 12q-25 0 -44 -17.5t-23 -46.5l-92 41
q16 49 62.5 78t103.5 29q40 0 76 -15.5t58.5 -44.5t22.5 -69q0 -31 -15.5 -52t-47.5 -37q72 -34 72 -103q0 -43 -24 -75.5zM627 741h109l-414 -741h-108zM930 124q0 -56 -43.5 -93t-133.5 -37q-89 0 -130.5 37t-41.5 93q0 39 20 64.5t55 45.5q-62 39 -62 102q0 55 46.5 88.5
t115.5 33.5t113.5 -33t44.5 -89q0 -29 -16 -51t-45 -40q77 -42 77 -121zM719 304.5q15 -11.5 45 -22.5q20 11 30.5 23t10.5 28q0 19 -15.5 28.5t-35.5 9.5q-19 0 -34.5 -10t-15.5 -28q0 -17 15 -28.5zM799 93q19 13 19 34t-18.5 35t-54.5 29q-25 -14 -39 -29.5t-14 -34.5
q0 -21 19.5 -34t43.5 -13q25 0 44 13z" />
    <glyph glyph-name="fiveeighths" unicode="&#x215d;" horiz-adv-x="951" 
d="M340.5 366q-24.5 -38 -66.5 -60t-93 -22q-57 0 -103 29.5t-59 86.5l105 38q3 -33 19 -51t43 -18q29 0 46.5 22t17.5 54q0 30 -17.5 52.5t-47.5 22.5q-20 0 -36 -13t-21 -33l-99 22l9 245h281v-89h-186l-3 -64q39 21 81 21q46 0 81 -22t54 -58t19 -77q0 -48 -24.5 -86z
M627 741h109l-414 -741h-108zM930 124q0 -56 -43.5 -93t-133.5 -37q-89 0 -130.5 37t-41.5 93q0 39 20 64.5t55 45.5q-62 39 -62 102q0 55 46.5 88.5t115.5 33.5t113.5 -33t44.5 -89q0 -29 -16 -51t-45 -40q77 -42 77 -121zM719 304.5q15 -11.5 45 -22.5q20 11 30.5 23
t10.5 28q0 19 -15.5 28.5t-35.5 9.5q-19 0 -34.5 -10t-15.5 -28q0 -17 15 -28.5zM799 93q19 13 19 34t-18.5 35t-54.5 29q-25 -14 -39 -29.5t-14 -34.5q0 -21 19.5 -34t43.5 -13q25 0 44 13z" />
    <glyph glyph-name="seveneighths" unicode="&#x215e;" horiz-adv-x="865" 
d="M64 290q17 191 159 362h-186v89h325v-57q-74 -94 -120 -196.5t-52 -197.5h-126zM541 741h109l-414 -741h-108zM844 124q0 -56 -43.5 -93t-133.5 -37q-89 0 -130.5 37t-41.5 93q0 39 20 64.5t55 45.5q-62 39 -62 102q0 55 46.5 88.5t115.5 33.5t113.5 -33t44.5 -89
q0 -29 -16 -51t-45 -40q77 -42 77 -121zM633 304.5q15 -11.5 45 -22.5q20 11 30.5 23t10.5 28q0 19 -15.5 28.5t-35.5 9.5q-19 0 -34.5 -10t-15.5 -28q0 -17 15 -28.5zM713 93q19 13 19 34t-18.5 35t-54.5 29q-25 -14 -39 -29.5t-14 -34.5q0 -21 19.5 -34t43.5 -13
q25 0 44 13z" />
    <glyph glyph-name="uni2151" unicode="&#x2151;" horiz-adv-x="950" 
d="M145 374v236q-35 -22 -81 -29l-19 76q92 22 128 84h84v-367h79v-84h-271v84h80zM627 741h109l-414 -741h-108zM651.5 16.5q-39.5 22.5 -66.5 62.5l84 55q10 -22 29 -37t40 -15q31 0 51 25t22 60q-41 -18 -77 -18q-35 0 -70 16t-58.5 49.5t-23.5 82.5q0 51 26 87.5
t65.5 55t79.5 18.5q45 0 85.5 -24t66.5 -75t26 -129q0 -77 -25.5 -130t-68.5 -79.5t-96 -26.5q-50 0 -89.5 22.5zM783.5 242.5q15.5 4.5 30.5 17.5q1 43 -13 76t-50 33q-27 0 -43 -19t-16 -48q0 -26 15 -45t42 -19q19 0 34.5 4.5z" />
    <glyph glyph-name="two_fraction_nine" horiz-adv-x="977" 
d="M75 441q30 29 79 64q48 35 70 58.5t22 53.5q0 20 -13.5 33.5t-34.5 13.5q-25 0 -40 -21t-15 -52q0 -8 2 -24l-110 34q-2 68 44.5 107.5t118.5 39.5q80 0 121.5 -38.5t41.5 -96.5q0 -37 -19 -67.5t-45 -52.5t-67 -50q-32 -22 -48.5 -36t-21.5 -28h200v-89h-329v82
q14 40 44 69zM654 741h109l-414 -741h-108zM678.5 16.5q-39.5 22.5 -66.5 62.5l84 55q10 -22 29 -37t40 -15q31 0 51 25t22 60q-41 -18 -77 -18q-35 0 -70 16t-58.5 49.5t-23.5 82.5q0 51 26 87.5t65.5 55t79.5 18.5q45 0 85.5 -24t66.5 -75t26 -129q0 -77 -25.5 -130
t-68.5 -79.5t-96 -26.5q-50 0 -89.5 22.5zM810.5 242.5q15.5 4.5 30.5 17.5q1 43 -13 76t-50 33q-27 0 -43 -19t-16 -48q0 -26 14.5 -45t42.5 -19q19 0 34.5 4.5z" />
    <glyph glyph-name="four_fraction_nine" horiz-adv-x="950" 
d="M205 392h-189v72l175 277h122v-266h59v-83h-59v-102h-108v102zM627 741h109l-414 -741h-108zM205 475v138h-1l-85 -138h86zM651.5 16.5q-39.5 22.5 -66.5 62.5l84 55q10 -22 29 -37t40 -15q31 0 51 25t22 60q-41 -18 -77 -18q-35 0 -70 16t-58.5 49.5t-23.5 82.5
q0 51 26 87.5t65.5 55t79.5 18.5q45 0 85.5 -24t66.5 -75t26 -129q0 -77 -25.5 -130t-68.5 -79.5t-96 -26.5q-50 0 -89.5 22.5zM783.5 242.5q15.5 4.5 30.5 17.5q1 43 -13 76t-50 33q-27 0 -43 -19t-16 -48q0 -26 15 -45t42 -19q19 0 34.5 4.5z" />
    <glyph glyph-name="five_fraction_nine" horiz-adv-x="950" 
d="M78 313.5q-46 29.5 -59 86.5l105 38q3 -33 19 -51t43 -18q29 0 46.5 22t17.5 54q0 30 -17.5 52.5t-47.5 22.5q-20 0 -36 -13t-21 -33l-99 22l9 245h281v-89h-186l-3 -64q39 21 81 21q46 0 81 -22t54 -58t19 -77q0 -48 -24.5 -86t-66.5 -60t-93 -22q-57 0 -103 29.5z
M627 741h109l-414 -741h-108zM651.5 16.5q-39.5 22.5 -66.5 62.5l84 55q10 -22 29 -37t40 -15q31 0 51 25t22 60q-41 -18 -77 -18q-35 0 -70 16t-58.5 49.5t-23.5 82.5q0 51 26 87.5t65.5 55t79.5 18.5q45 0 85.5 -24t66.5 -75t26 -129q0 -77 -25.5 -130t-68.5 -79.5
t-96 -26.5q-50 0 -89.5 22.5zM783.5 242.5q15.5 4.5 30.5 17.5q1 43 -13 76t-50 33q-27 0 -43 -19t-16 -48q0 -26 15 -45t42 -19q19 0 34.5 4.5z" />
    <glyph glyph-name="seven_fraction_nine" horiz-adv-x="864" 
d="M223 652h-186v89h325v-57q-74 -94 -120 -196.5t-52 -197.5h-126q17 191 159 362zM541 741h109l-414 -741h-108zM565.5 16.5q-39.5 22.5 -66.5 62.5l84 55q10 -22 29 -37t40 -15q31 0 51 25t22 60q-41 -18 -77 -18q-35 0 -70 16t-58.5 49.5t-23.5 82.5q0 51 26 87.5
t65.5 55t79.5 18.5q45 0 85.5 -24t66.5 -75t26 -129q0 -77 -25.5 -130t-68.5 -79.5t-96 -26.5q-50 0 -89.5 22.5zM697.5 242.5q15.5 4.5 30.5 17.5q1 43 -13 76t-50 33q-27 0 -43 -19t-16 -48q0 -26 15 -45t42 -19q19 0 34.5 4.5z" />
    <glyph glyph-name="eight_fraction_nine" horiz-adv-x="951" 
d="M326.5 321q-43.5 -37 -133.5 -37q-89 0 -130.5 37t-41.5 93q0 39 20 64.5t55 45.5q-62 39 -62 102q0 55 46.5 88.5t115.5 33.5t113.5 -33t44.5 -89q0 -29 -16 -51t-45 -40q77 -42 77 -121q0 -56 -43.5 -93zM628 741h109l-414 -741h-108zM159 594.5q15 -11.5 45 -22.5
q20 11 30.5 23t10.5 28q0 19 -15.5 28.5t-35.5 9.5q-19 0 -34.5 -10t-15.5 -28q0 -17 15 -28.5zM239 383q19 13 19 34t-18.5 35t-54.5 29q-25 -14 -39 -29.5t-14 -34.5q0 -21 19.5 -34t43.5 -13q25 0 44 13zM839.5 434q40.5 -24 66.5 -75t26 -129q0 -77 -25.5 -130
t-68.5 -79.5t-96 -26.5q-50 0 -89.5 22.5t-66.5 62.5l84 55q10 -22 29 -37t40 -15q31 0 51 25t22 60q-41 -18 -77 -18q-35 0 -70 16t-58.5 49.5t-23.5 82.5q0 51 26 87.5t65.5 55t79.5 18.5q45 0 85.5 -24zM802 336q-14 33 -50 33q-27 0 -43 -19t-16 -48q0 -26 15 -45
t42 -19q19 0 34.5 4.5t30.5 17.5q1 43 -13 76z" />
    <glyph glyph-name="period" unicode="." horiz-adv-x="277" 
d="M78.5 15.5q-25.5 25.5 -25.5 60.5t25.5 60.5t60.5 25.5t60 -25.5t25 -60.5t-25.5 -60.5t-59.5 -25.5q-35 0 -60.5 25.5z" />
    <glyph glyph-name="comma" unicode="," horiz-adv-x="277" 
d="M86 -59q22 30 31 55q-28 8 -46 29.5t-18 50.5q0 35 25.5 60.5t60.5 25.5t60 -25.5t25 -60.5q0 -53 -40.5 -122.5t-93.5 -113.5l-57 43q31 28 53 58z" />
    <glyph glyph-name="colon" unicode=":" horiz-adv-x="277" 
d="M78.5 15.5q-25.5 25.5 -25.5 60.5t25.5 60.5t60.5 25.5t60 -25.5t25 -60.5t-25.5 -60.5t-59.5 -25.5q-35 0 -60.5 25.5zM78.5 342.5q-25.5 25.5 -25.5 60.5t25.5 60.5t60.5 25.5t60 -25.5t25 -60.5t-25.5 -60.5t-59.5 -25.5q-35 0 -60.5 25.5z" />
    <glyph glyph-name="semicolon" unicode=";" horiz-adv-x="277" 
d="M86 -59q22 30 31 55q-28 8 -46 29.5t-18 50.5q0 35 25.5 60.5t60.5 25.5t60 -25.5t25 -60.5q0 -53 -40.5 -122.5t-93.5 -113.5l-57 43q31 28 53 58zM78.5 342.5q-25.5 25.5 -25.5 60.5t25.5 60.5t60.5 25.5t60 -25.5t25 -60.5t-25.5 -60.5t-59.5 -25.5q-35 0 -60.5 25.5z
" />
    <glyph glyph-name="ellipsis" unicode="&#x2026;" horiz-adv-x="869" 
d="M78.5 15.5q-25.5 25.5 -25.5 60.5t25.5 60.5t60.5 25.5t60 -25.5t25 -60.5t-25.5 -60.5t-59.5 -25.5q-35 0 -60.5 25.5zM374.5 15.5q-25.5 25.5 -25.5 60.5t25.5 60.5t60.5 25.5t60 -25.5t25 -60.5t-25.5 -60.5t-59.5 -25.5q-35 0 -60.5 25.5zM670.5 15.5
q-25.5 25.5 -25.5 60.5t25.5 60.5t60.5 25.5t60 -25.5t25 -60.5t-25.5 -60.5t-59.5 -25.5q-35 0 -60.5 25.5z" />
    <glyph glyph-name="exclam" unicode="!" horiz-adv-x="335" 
d="M88 741h161l-22 -515h-117zM107.5 15.5q-25.5 25.5 -25.5 60.5t25.5 60.5t60.5 25.5t60 -25.5t25 -60.5t-25.5 -60.5t-59.5 -25.5q-35 0 -60.5 25.5z" />
    <glyph glyph-name="exclamdown" unicode="&#xa1;" horiz-adv-x="335" 
d="M227.5 517.5q25.5 -25.5 25.5 -60.5t-25 -60.5t-60 -25.5t-60.5 25.5t-25.5 60.5t25.5 60.5t60.5 25.5q34 0 59.5 -25.5zM110 307h117l22 -515h-161z" />
    <glyph glyph-name="question" unicode="?" horiz-adv-x="456" 
d="M143 335.5q14 35.5 33.5 62t51.5 62.5q35 40 51 65t16 54q0 23 -16.5 39.5t-39.5 16.5q-35 0 -60.5 -25t-29.5 -67l-106 67q16 65 70 103.5t121 38.5q83 0 136 -42.5t53 -123.5q0 -40 -11.5 -70t-27.5 -50.5t-44 -50.5q-28 -29 -44.5 -50t-28 -51t-11.5 -71v-17h-127v31
q0 43 14 78.5zM131.5 15.5q-25.5 25.5 -25.5 60.5t25 60.5t60 25.5t60.5 -25.5t25.5 -60.5t-25.5 -60.5t-60.5 -25.5q-34 0 -59.5 25.5z" />
    <glyph glyph-name="questiondown" unicode="&#xbf;" horiz-adv-x="456" 
d="M324.5 519.5q25.5 -25.5 25.5 -60.5t-25 -60.5t-60 -25.5t-60.5 25.5t-25.5 60.5t25.5 60.5t60.5 25.5q34 0 59.5 -25.5zM313 199.5q-14 -35.5 -33.5 -62t-51.5 -62.5q-35 -40 -51 -65t-16 -54q0 -23 16.5 -39.5t39.5 -16.5q35 0 60.5 25t29.5 67l106 -67
q-16 -65 -70 -103.5t-121 -38.5q-83 0 -136 42.5t-53 123.5q0 40 11.5 70t27.5 50.5t44 50.5q28 29 44.5 50t28 51t11.5 71v17h127v-31q0 -43 -14 -78.5z" />
    <glyph glyph-name="periodcentered" unicode="&#xb7;" horiz-adv-x="277" 
d="M78.5 225.5q-25.5 25.5 -25.5 60.5t25.5 60.5t60.5 25.5t60 -25.5t25 -60.5t-25.5 -60.5t-59.5 -25.5q-35 0 -60.5 25.5z" />
    <glyph glyph-name="bullet" unicode="&#x2022;" horiz-adv-x="438" 
d="M133 221q-39 23 -62 62.5t-23 85.5q0 47 23 86.5t62 62.5t85 23q47 0 86.5 -23t62.5 -62.5t23 -86.5q0 -46 -23 -85.5t-62.5 -62.5t-86.5 -23q-46 0 -85 23z" />
    <glyph glyph-name="asterisk" unicode="*" horiz-adv-x="448" 
d="M82 455l77 91l-116 28l30 93l111 -45l-9 119h97l-8 -119l110 45l31 -93l-116 -28l77 -91l-79 -58l-63 102l-63 -102z" />
    <glyph glyph-name="numbersign" unicode="#" 
d="M554 428h-98l-22 -115h84v-105h-104l-40 -208h-101l40 208h-96l-40 -208h-101l40 208h-78v105h98l22 115h-84v105h104l40 208h101l-40 -208h96l40 208h101l-40 -208h78v-105zM333 313l22 115h-96l-22 -115h96z" />
    <glyph glyph-name="slash" unicode="/" horiz-adv-x="510" 
d="M406 741h104l-406 -741h-104z" />
    <glyph glyph-name="backslash" unicode="\" horiz-adv-x="511" 
d="M0 741h106l405 -741h-105z" />
    <glyph glyph-name="colon.calt" horiz-adv-x="277" 
d="M78.5 139.5q-25.5 25.5 -25.5 60.5t25.5 60.5t60.5 25.5t60 -25.5t25 -60.5t-25.5 -60.5t-59.5 -25.5q-35 0 -60.5 25.5zM78.5 466.5q-25.5 25.5 -25.5 60.5t25.5 60.5t60.5 25.5t60 -25.5t25 -60.5t-25.5 -60.5t-59.5 -25.5q-35 0 -60.5 25.5z" />
    <glyph glyph-name="exclamdown.case" horiz-adv-x="335" 
d="M227.5 725.5q25.5 -25.5 25.5 -60.5t-25 -60.5t-60 -25.5t-60.5 25.5t-25.5 60.5t25.5 60.5t60.5 25.5q34 0 59.5 -25.5zM110 515h117l22 -515h-161z" />
    <glyph glyph-name="questiondown.case" horiz-adv-x="456" 
d="M324.5 727.5q25.5 -25.5 25.5 -60.5t-25 -60.5t-60 -25.5t-60.5 25.5t-25.5 60.5t25.5 60.5t60.5 25.5q34 0 59.5 -25.5zM313 407.5q-14 -35.5 -33.5 -62t-51.5 -62.5q-35 -40 -51 -65t-16 -54q0 -23 16.5 -39.5t39.5 -16.5q35 0 60.5 25t29.5 67l106 -67
q-16 -65 -70 -103.5t-121 -38.5q-83 0 -136 42.5t-53 123.5q0 40 11.5 70t27.5 50.5t44 50.5q28 29 44.5 50t28 51t11.5 71v17h127v-31q0 -43 -14 -78.5z" />
    <glyph glyph-name="bullet.ss02" horiz-adv-x="438" 
d="M150.5 250.5q-31.5 18.5 -50 50t-18.5 68.5t18.5 69t50 50.5t67.5 18.5q37 0 69 -18.5t50.5 -50.5t18.5 -69t-18.5 -68.5t-50.5 -50t-69 -18.5q-36 0 -67.5 18.5z" />
    <glyph glyph-name="parenleft" unicode="(" horiz-adv-x="313" 
d="M150.5 -78q-49.5 72 -79.5 169t-30 208t30 208.5t80 169.5t109 112l50 -79q-71 -59 -115.5 -164.5t-44.5 -245.5q0 -143 45.5 -250t115.5 -161l-51 -81q-60 42 -109.5 114z" />
    <glyph glyph-name="parenright" unicode=")" horiz-adv-x="313" 
d="M162.5 674q49.5 -72 79.5 -169t30 -208t-30 -208.5t-80 -169.5t-109 -112l-50 79q71 59 115.5 164.5t44.5 245.5q0 143 -45.5 250t-115.5 161l51 81q60 -42 109.5 -114z" />
    <glyph glyph-name="braceleft" unicode="{" horiz-adv-x="323" 
d="M112 -18v166q0 39 -20.5 62t-57.5 23v93q37 0 57.5 23t20.5 62v166q0 164 137 164h74v-97h-38q-36 0 -49.5 -21.5t-13.5 -65.5v-142q0 -54 -26.5 -89.5t-65.5 -44.5v-3q39 -9 65.5 -44.5t26.5 -89.5v-142q0 -44 13.5 -65.5t49.5 -21.5h38v-97h-74q-137 0 -137 164z" />
    <glyph glyph-name="braceright" unicode="}" horiz-adv-x="323" 
d="M211 577v-166q0 -39 20.5 -62t57.5 -23v-93q-37 0 -57.5 -23t-20.5 -62v-166q0 -164 -137 -164h-74v97h38q36 0 49.5 21.5t13.5 65.5v142q0 54 26.5 89.5t65.5 44.5v3q-39 9 -65.5 44.5t-26.5 89.5v142q0 44 -13.5 65.5t-49.5 21.5h-38v97h74q137 0 137 -164z" />
    <glyph glyph-name="bracketleft" unicode="[" horiz-adv-x="313" 
d="M74 741h239v-102h-129v-719h129v-102h-239v923z" />
    <glyph glyph-name="bracketright" unicode="]" horiz-adv-x="313" 
d="M0 -182v102h129v719h-129v102h239v-923h-239z" />
    <glyph glyph-name="parenleft.case" horiz-adv-x="313" 
d="M150.5 -21q-49.5 72 -79.5 169t-30 208t30 208.5t80 169.5t109 112l50 -79q-71 -59 -115.5 -164.5t-44.5 -245.5q0 -143 45.5 -250t115.5 -161l-51 -81q-60 42 -109.5 114z" />
    <glyph glyph-name="parenright.case" horiz-adv-x="313" 
d="M162.5 731q49.5 -72 79.5 -169t30 -208t-30 -208.5t-80 -169.5t-109 -112l-50 79q71 59 115.5 164.5t44.5 245.5q0 143 -45.5 250t-115.5 161l51 81q60 -42 109.5 -114z" />
    <glyph glyph-name="braceleft.case" horiz-adv-x="323" 
d="M112 39v166q0 39 -20.5 62t-57.5 23v93q37 0 57.5 23t20.5 62v166q0 164 137 164h74v-97h-38q-36 0 -49.5 -21.5t-13.5 -65.5v-142q0 -54 -26.5 -89.5t-65.5 -44.5v-3q39 -9 65.5 -44.5t26.5 -89.5v-142q0 -44 13.5 -65.5t49.5 -21.5h38v-97h-74q-137 0 -137 164z" />
    <glyph glyph-name="braceright.case" horiz-adv-x="323" 
d="M211 634v-166q0 -39 20.5 -62t57.5 -23v-93q-37 0 -57.5 -23t-20.5 -62v-166q0 -164 -137 -164h-74v97h38q36 0 49.5 21.5t13.5 65.5v142q0 54 26.5 89.5t65.5 44.5v3q-39 9 -65.5 44.5t-26.5 89.5v142q0 44 -13.5 65.5t-49.5 21.5h-38v97h74q137 0 137 -164z" />
    <glyph glyph-name="bracketleft.case" horiz-adv-x="313" 
d="M74 798h239v-102h-129v-719h129v-102h-239v923z" />
    <glyph glyph-name="bracketright.case" horiz-adv-x="313" 
d="M0 -125v102h129v719h-129v102h239v-923h-239z" />
    <glyph glyph-name="hyphen" unicode="-" horiz-adv-x="316" 
d="M33 341h250v-118h-250v118z" />
    <glyph glyph-name="uni00AD" unicode="&#xad;" horiz-adv-x="316" 
d="M33 341h250v-118h-250v118z" />
    <glyph glyph-name="endash" unicode="&#x2013;" horiz-adv-x="504" 
d="M33 341h438v-118h-438v118z" />
    <glyph glyph-name="emdash" unicode="&#x2014;" horiz-adv-x="980" 
d="M33 341h914v-118h-914v118z" />
    <glyph glyph-name="underscore" unicode="_" horiz-adv-x="404" 
d="M-17 -49h438v-118h-438v118z" />
    <glyph glyph-name="hyphen.case" horiz-adv-x="316" 
d="M33 459h250v-118h-250v118z" />
    <glyph glyph-name="endash.case" horiz-adv-x="504" 
d="M33 459h438v-118h-438v118z" />
    <glyph glyph-name="emdash.case" horiz-adv-x="980" 
d="M33 459h914v-118h-914v118z" />
    <glyph glyph-name="quotesinglbase" unicode="&#x201a;" horiz-adv-x="191" 
d="M56.5 -60q21.5 35 30.5 60q-24 7 -39 26.5t-15 45.5q0 32 21.5 55t52.5 23t52 -23.5t21 -57.5q0 -53 -35.5 -117.5t-81.5 -109.5l-52 38q24 25 45.5 60z" />
    <glyph glyph-name="quotedblbase" unicode="&#x201e;" horiz-adv-x="377" 
d="M56.5 -60q21.5 35 30.5 60q-24 7 -39 26.5t-15 45.5q0 32 21.5 55t52.5 23t52 -23.5t21 -57.5q0 -53 -35.5 -117.5t-81.5 -109.5l-52 38q24 25 45.5 60zM242.5 -60q21.5 35 30.5 60q-24 7 -39 26.5t-15 45.5q0 32 21.5 55t52.5 23t52 -23.5t21 -57.5q0 -53 -35.5 -117.5
t-81.5 -109.5l-52 38q24 25 45.5 60z" />
    <glyph glyph-name="quotedblleft" unicode="&#x201c;" horiz-adv-x="377" 
d="M134.5 662q-21.5 -35 -30.5 -60q24 -7 39 -26.5t15 -45.5q0 -32 -21.5 -55t-52.5 -23t-52 23.5t-21 57.5q0 53 35.5 117.5t81.5 109.5l52 -38q-24 -25 -45.5 -60zM320.5 662q-21.5 -35 -30.5 -60q24 -7 39 -26.5t15 -45.5q0 -32 -21.5 -55t-52.5 -23t-52 23.5t-21 57.5
q0 53 35.5 117.5t81.5 109.5l52 -38q-24 -25 -45.5 -60z" />
    <glyph glyph-name="quotedblright" unicode="&#x201d;" horiz-adv-x="377" 
d="M56.5 541q21.5 35 30.5 60q-24 7 -39 26.5t-15 45.5q0 32 21.5 55t52.5 23t52 -23.5t21 -57.5q0 -53 -35.5 -117.5t-81.5 -109.5l-52 38q24 25 45.5 60zM242.5 541q21.5 35 30.5 60q-24 7 -39 26.5t-15 45.5q0 32 21.5 55t52.5 23t52 -23.5t21 -57.5q0 -53 -35.5 -117.5
t-81.5 -109.5l-52 38q24 25 45.5 60z" />
    <glyph glyph-name="quoteleft" unicode="&#x2018;" horiz-adv-x="191" 
d="M134.5 662q-21.5 -35 -30.5 -60q24 -7 39 -26.5t15 -45.5q0 -32 -21.5 -55t-52.5 -23t-52 23.5t-21 57.5q0 53 35.5 117.5t81.5 109.5l52 -38q-24 -25 -45.5 -60z" />
    <glyph glyph-name="quoteright" unicode="&#x2019;" horiz-adv-x="191" 
d="M56.5 541q21.5 35 30.5 60q-24 7 -39 26.5t-15 45.5q0 32 21.5 55t52.5 23t52 -23.5t21 -57.5q0 -53 -35.5 -117.5t-81.5 -109.5l-52 38q24 25 45.5 60z" />
    <glyph glyph-name="guillemotleft" unicode="&#xab;" horiz-adv-x="456" 
d="M37 282l88 212h104l-80 -212l80 -212h-104zM227 282l88 212h104l-80 -212l80 -212h-104z" />
    <glyph glyph-name="guillemotright" unicode="&#xbb;" horiz-adv-x="456" 
d="M141 70h-104l80 212l-80 212h104l88 -212zM331 70h-104l80 212l-80 212h104l88 -212z" />
    <glyph glyph-name="guilsinglleft" unicode="&#x2039;" horiz-adv-x="266" 
d="M37 282l88 212h104l-80 -212l80 -212h-104z" />
    <glyph glyph-name="guilsinglright" unicode="&#x203a;" horiz-adv-x="266" 
d="M141 70h-104l80 212l-80 212h104l88 -212z" />
    <glyph glyph-name="quotedbl" unicode="&#x22;" horiz-adv-x="402" 
d="M55 741h116v-266h-116v266zM231 741h116v-266h-116v266z" />
    <glyph glyph-name="quotesingle" unicode="'" horiz-adv-x="226" 
d="M55 741h116v-266h-116v266z" />
    <glyph glyph-name="guillemotleft.case" horiz-adv-x="456" 
d="M37 349l88 212h104l-80 -212l80 -212h-104zM227 349l88 212h104l-80 -212l80 -212h-104z" />
    <glyph glyph-name="guillemotright.case" horiz-adv-x="456" 
d="M141 136h-104l80 212l-80 212h104l88 -212zM331 136h-104l80 212l-80 212h104l88 -212z" />
    <glyph glyph-name="guilsinglleft.case" horiz-adv-x="266" 
d="M37 349l88 212h104l-80 -212l80 -212h-104z" />
    <glyph glyph-name="guilsinglright.case" horiz-adv-x="266" 
d="M141 136h-104l80 212l-80 212h104l88 -212z" />
    <glyph glyph-name="cent" unicode="&#xa2;" 
d="M467 163q-43 -43 -106 -55v-108h-91v106q-65 11 -108.5 53t-64.5 101t-21 121q0 117 54 188t140 86v86h91v-86q66 -11 105.5 -52t61.5 -104l-119 -55q-11 51 -29.5 81t-61.5 30q-51 0 -74 -43t-23 -131q0 -87 21.5 -130.5t67.5 -43.5q48 0 67.5 30t30.5 82l121 -52
q-19 -61 -62 -104z" />
    <glyph glyph-name="currency" unicode="&#xa4;" 
d="M502 252l42 -40l-71 -72l-43 42q-63 -41 -135 -41q-73 0 -133 40l-42 -41l-71 72l40 40q-39 62 -39 135q0 72 39 134l-40 41l71 71l41 -40q63 41 136 41t136 -41l40 40l71 -71l-40 -39q39 -62 39 -134q0 -77 -41 -137zM371 260q33 20 52 54t19 74t-19 74t-52 53.5
t-75 19.5t-75 -19.5t-52 -53.5t-19 -74t19 -74t52 -54t75 -20t75 20z" />
    <glyph glyph-name="dollar" unicode="$" 
d="M505.5 65.5q-55.5 -58.5 -143.5 -71.5v-90h-92v89q-152 19 -235 163l116 86q25 -64 65 -95.5t98 -31.5q47 0 77 21t30 64q0 34 -32 56.5t-102 54.5q-68 31 -111 57t-74 68.5t-31 102.5q0 82 55 140t144 69v89h92v-89q59 -9 103.5 -42t76.5 -99l-109 -79
q-19 51 -48.5 74.5t-74.5 23.5q-41 0 -70 -20t-29 -55q0 -36 33.5 -59.5t103.5 -54.5q68 -31 110 -56.5t72.5 -67.5t30.5 -101q0 -88 -55.5 -146.5z" />
    <glyph glyph-name="Euro" unicode="&#x20ac;" 
d="M579 93q-37 -53 -91 -78.5t-115 -25.5q-105 0 -174 69.5t-91 194.5h-65v86h56q-1 10 -1 31q0 18 2 50h-57v86h68q23 116 89.5 181t175.5 65q103 0 169 -58l-34 -128q-33 29 -66.5 47t-72.5 18q-92 0 -117 -125h241l-20 -86h-231q-1 -16 -1 -50v-31h212l-20 -86h-184
q12 -76 42 -109.5t78 -33.5q78 0 118 84z" />
    <glyph glyph-name="florin" unicode="&#x192;" 
d="M415 606.5q-15 -17.5 -20 -64.5l-11 -105h102v-106h-114l-35 -329q-10 -101 -58 -142.5t-147 -41.5q-28 0 -54 4v122q27 -9 57 -9q28 0 43 17.5t20 64.5l34 314h-92v106h103l13 120q10 101 58 142.5t147 41.5q28 0 54 -4v-122q-27 9 -57 9q-28 0 -43 -17.5z" />
    <glyph glyph-name="sterling" unicode="&#xa3;" 
d="M608 123q-26 -60 -64.5 -97t-97.5 -37q-35 0 -72 18.5t-80 50.5q-29 -33 -69 -51t-87 -18q-62 0 -102 34.5t-40 96.5q0 53 36.5 88.5t89.5 35.5q43 0 91 -20q-6 52 -30 116h-124v106h85q-13 49 -13 104q0 62 29.5 107.5t80 70t111.5 24.5q64 0 112 -27t76 -79l-105 -96
q-8 37 -31.5 61t-53.5 24q-34 0 -51.5 -24.5t-17.5 -60.5q0 -45 19 -104h150v-106h-115q17 -58 17 -112q0 -40 -9 -76q31 -19 50.5 -28.5t33.5 -9.5q24 0 41.5 13.5t31.5 46.5zM178 90.5q19 12.5 29 32.5q-40 27 -66 27q-18 0 -29.5 -8t-11.5 -26q0 -17 12 -27.5t29 -10.5
q18 0 37 12.5z" />
    <glyph glyph-name="yen" unicode="&#xa5;" 
d="M558 741l-161 -377h120v-104h-147v-70h147v-103h-147v-87h-149v87h-146v103h146v70h-146v104h119l-159 377h149l111 -305h2l117 305h144z" />
    <glyph glyph-name="cent.case" horiz-adv-x="644" 
d="M440.5 148.5q35.5 46.5 39.5 116.5l134 -72q-21 -86 -79 -139.5t-145 -65.5v-84h-91v84q-86 12 -145 68.5t-88 139t-29 173.5t29 173t88 138.5t145 68.5v88h91v-88q87 -11 145 -64t80 -143l-135 -68q-4 70 -39 115.5t-98 45.5q-85 0 -119 -83.5t-34 -182.5t34 -183
t119 -84q62 0 97.5 46.5z" />
    <glyph glyph-name="uni2219" unicode="&#x2219;" horiz-adv-x="277" 
d="M78.5 225.5q-25.5 25.5 -25.5 60.5t25.5 60.5t60.5 25.5t60 -25.5t25 -60.5t-25.5 -60.5t-59.5 -25.5q-35 0 -60.5 25.5z" />
    <glyph glyph-name="uni2215" unicode="&#x2215;" horiz-adv-x="169" 
d="M228 741h89l-375 -741h-90z" />
    <glyph glyph-name="plus" unicode="+" 
d="M242 183h-176v104h176v183h109v-183h176v-104h-176v-183h-109v183z" />
    <glyph glyph-name="minus" unicode="&#x2212;" 
d="M66 287h461v-104h-461v104z" />
    <glyph glyph-name="multiply" unicode="&#xd7;" 
d="M296 161l-160 -160l-73 73l160 160l-160 160l73 74l160 -160l160 160l74 -74l-160 -160l160 -160l-74 -73z" />
    <glyph glyph-name="divide" unicode="&#xf7;" 
d="M242 358q-23 23 -23 54q0 32 23 55t54 23t54 -23t23 -55q0 -31 -22.5 -54t-54.5 -23q-31 0 -54 23zM66 287h461v-104h-461v104zM242 13q-23 23 -23 54q0 32 23 54.5t54 22.5q32 0 54.5 -22.5t22.5 -54.5q0 -31 -22.5 -54t-54.5 -23q-31 0 -54 23z" />
    <glyph glyph-name="equal" unicode="=" 
d="M66 402h461v-104h-461v104zM66 171h461v-103h-461v103z" />
    <glyph glyph-name="notequal" unicode="&#x2260;" horiz-adv-x="593" 
d="M527 298h-137l-74 -127h211v-103h-272l-57 -96h-113l57 96h-76v103h136l75 127h-211v104h272l56 95h114l-56 -95h75v-104z" />
    <glyph glyph-name="greater" unicode="&#x3e;" 
d="M66 119l347 116l-347 117v103l461 -162v-118l-461 -159v103z" />
    <glyph glyph-name="less" unicode="&#x3c;" 
d="M66 175v118l461 162v-103l-348 -117l348 -116v-103z" />
    <glyph glyph-name="greaterequal" unicode="&#x2265;" 
d="M66 239l347 116l-347 117v103l461 -162v-118l-461 -159v103zM66 104h461v-104h-461v104z" />
    <glyph glyph-name="lessequal" unicode="&#x2264;" 
d="M66 295v118l461 162v-103l-348 -117l348 -116v-103zM66 104h461v-104h-461v104z" />
    <glyph glyph-name="plusminus" unicode="&#xb1;" 
d="M242 255h-176v104h176v111h109v-111h176v-104h-176v-110h-109v110zM66 104h461v-104h-461v104z" />
    <glyph glyph-name="approxequal" unicode="&#x2248;" 
d="M79 324q16 34 46 56.5t67 22.5q23 0 51 -5t72 -14q66 -15 90 -15q17 0 27.5 9.5t13.5 24.5h79q2 -34 -13.5 -68t-45.5 -56t-69 -22q-23 0 -52 5.5t-73 15.5q-60 16 -83 16q-17 0 -28.5 -11t-13.5 -26h-81q-3 33 13 67zM79 134q16 34 46 56t67 22q23 0 51 -5t72 -14
q66 -15 90 -15q17 0 27.5 9.5t13.5 24.5h79q2 -34 -13.5 -67.5t-45.5 -55.5t-69 -22q-23 0 -52 5.5t-73 15.5q-60 16 -83 16q-17 0 -28.5 -11t-13.5 -26h-81q-3 33 13 67z" />
    <glyph glyph-name="asciitilde" unicode="~" 
d="M79 229q16 34 46 56.5t67 22.5q39 0 123 -20q66 -15 90 -15q16 0 27 10t14 25h79q2 -34 -13.5 -68t-45.5 -56t-69 -22q-23 0 -52 5.5t-73 15.5q-60 16 -83 16q-17 0 -28.5 -11t-13.5 -26h-81q-3 33 13 67z" />
    <glyph glyph-name="logicalnot" unicode="&#xac;" 
d="M417 183h-351v104h461v-287h-110v183z" />
    <glyph glyph-name="asciicircum" unicode="^" horiz-adv-x="557" 
d="M218 741h118l162 -405h-103l-117 292l-116 -292h-103z" />
    <glyph glyph-name="infinity" unicode="&#x221e;" 
d="M91.5 190q-34.5 30 -34.5 77q0 46 34.5 76t79.5 30q35 0 64.5 -17.5t60.5 -50.5q33 34 60.5 51t63.5 17q48 0 81.5 -29t33.5 -75q0 -32 -16.5 -57t-43 -38.5t-55.5 -13.5q-34 0 -64 18.5t-59 49.5q-39 -35 -66 -51.5t-60 -16.5q-45 0 -79.5 30zM250 267q-48 43 -72 43
q-18 0 -31.5 -12.5t-13.5 -29.5q0 -18 13 -31.5t32 -13.5q23 0 72 44zM445.5 236q13.5 13 13.5 31q0 17 -13 30t-32 13q-23 0 -71 -43q44 -44 71 -44q18 0 31.5 13z" />
    <glyph glyph-name="integral" unicode="&#x222b;" horiz-adv-x="593" 
d="M78 -178v122q27 -9 57 -9q28 0 43 17.5t20 64.5l58 540q10 101 58 142.5t147 41.5q28 0 54 -4v-122q-27 9 -57 9q-28 0 -43 -17.5t-20 -64.5l-58 -540q-10 -101 -58 -142.5t-147 -41.5q-28 0 -54 4z" />
    <glyph glyph-name="uni2126" unicode="&#x2126;" horiz-adv-x="685" 
d="M132 126q-96 122 -96 262q0 97 33.5 180t102.5 133.5t171 50.5q101 0 170 -50.5t102.5 -133.5t33.5 -180q0 -138 -97 -262h97v-126h-220v116q67 123 67 272q0 95 -34.5 171t-119.5 76t-119 -76t-34 -171q0 -149 67 -272v-116h-220v126h96z" />
    <glyph glyph-name="uni2206" unicode="&#x2206;" horiz-adv-x="618" 
d="M226 741h162l240 -741h-638zM443 117l-132 468h-4l-132 -468h268z" />
    <glyph glyph-name="product" unicode="&#x220f;" horiz-adv-x="732" 
d="M95 741h542v-922h-148v796h-245v-796h-149v922z" />
    <glyph glyph-name="summation" unicode="&#x2211;" horiz-adv-x="615" 
d="M223 -36h351v-126h-498v125l191 335l-191 317v126h480v-126h-324l175 -280v-52z" />
    <glyph glyph-name="radical" unicode="&#x221a;" 
d="M87 289h-87v89h170l97 -388h1l194 751h105l-242 -897h-121z" />
    <glyph glyph-name="partialdiff" unicode="&#x2202;" horiz-adv-x="556" 
d="M360.5 615q65.5 -73 108.5 -161.5t43 -186.5q0 -74 -27 -137.5t-80 -102t-127 -38.5t-127 38.5t-80 102t-27 137.5q0 72 25 134t74.5 101t120.5 42q-60 67 -143 136l85 85q89 -77 154.5 -150zM348.5 145.5q19.5 53.5 19.5 121.5q0 67 -19.5 120.5t-70.5 53.5
q-50 0 -69.5 -53t-19.5 -121t19 -121.5t70 -53.5t70.5 53.5z" />
    <glyph glyph-name="uni00B5" unicode="&#xb5;" horiz-adv-x="598" 
d="M519 533v-533h-141v55q-79 -65 -157 -66v-171h-142v715h141v-328q0 -47 10 -75t48 -28q28 0 51.5 15.5t48.5 42.5v373h141z" />
    <glyph glyph-name="percent" unicode="%" horiz-adv-x="812" 
d="M67 423q-39 53 -39 132q0 85 36.5 141t122.5 56q85 0 122 -56.5t37 -140.5q0 -78 -39 -131.5t-120 -53.5t-120 53zM549 741h89l-375 -741h-90zM227 484.5q9 28.5 9 76.5q0 51 -8.5 78.5t-40.5 27.5q-33 0 -41.5 -27.5t-8.5 -78.5q0 -48 9 -76.5t41 -28.5q31 0 40 28.5z
M505 42q-39 53 -39 131q0 85 36.5 141t122.5 56t122.5 -56t36.5 -141q0 -78 -39 -131t-120 -53t-120 53zM665 103q9 29 9 76q0 51 -8.5 78.5t-40.5 27.5q-33 0 -41.5 -27.5t-8.5 -78.5q0 -47 9 -76t41 -29q31 0 40 29z" />
    <glyph glyph-name="perthousand" unicode="&#x2030;" horiz-adv-x="1190" 
d="M67 423q-39 53 -39 132q0 85 36.5 141t122.5 56q85 0 122 -56.5t37 -140.5q0 -78 -39 -131.5t-120 -53.5t-120 53zM549 741h89l-375 -741h-90zM227 484.5q9 28.5 9 76.5q0 51 -8.5 78.5t-40.5 27.5q-33 0 -41.5 -27.5t-8.5 -78.5q0 -48 9 -76.5t41 -28.5q31 0 40 28.5z
M505 42q-39 53 -39 131q0 85 36.5 141t122.5 56t122.5 -56t36.5 -141q0 -78 -39 -131t-120 -53t-120 53zM883 42q-39 53 -39 131q0 85 36.5 141t122.5 56t122.5 -56t36.5 -141q0 -78 -39 -131t-120 -53t-120 53zM665 103q9 29 9 76q0 51 -8.5 78.5t-40.5 27.5
q-33 0 -41.5 -27.5t-8.5 -78.5q0 -47 9 -76t41 -29q31 0 40 29zM1043.5 102.5q8.5 28.5 8.5 76.5q0 51 -8.5 78.5t-40.5 27.5q-33 0 -41.5 -27.5t-8.5 -78.5q0 -47 9 -76t41 -29t40.5 28.5z" />
    <glyph glyph-name="plus.case" 
d="M242 278h-176v104h176v183h109v-183h176v-104h-176v-183h-109v183z" />
    <glyph glyph-name="minus.case" 
d="M66 382h461v-104h-461v104z" />
    <glyph glyph-name="multiply.case" 
d="M296 256l-160 -160l-73 73l160 160l-160 160l73 74l160 -160l160 160l74 -74l-160 -160l160 -160l-74 -73z" />
    <glyph glyph-name="divide.case" 
d="M242 453q-23 23 -23 54q0 32 23 55t54 23t54 -23t23 -55q0 -31 -22.5 -54t-54.5 -23q-31 0 -54 23zM66 382h461v-104h-461v104zM242 108q-23 23 -23 54q0 32 23 54.5t54 22.5q32 0 54.5 -22.5t22.5 -54.5q0 -31 -22.5 -54t-54.5 -23q-31 0 -54 23z" />
    <glyph glyph-name="equal.case" 
d="M66 497h461v-104h-461v104zM66 266h461v-103h-461v103z" />
    <glyph glyph-name="notequal.case" horiz-adv-x="593" 
d="M527 393h-137l-74 -127h211v-103h-272l-57 -96h-113l57 96h-76v103h136l75 127h-211v104h272l56 95h114l-56 -95h75v-104z" />
    <glyph glyph-name="greater.case" 
d="M66 214l347 116l-347 117v103l461 -162v-118l-461 -159v103z" />
    <glyph glyph-name="less.case" 
d="M66 270v118l461 162v-103l-348 -117l348 -116v-103z" />
    <glyph glyph-name="approxequal.case" 
d="M79 419q16 34 46 56.5t67 22.5q23 0 51 -5t72 -14q66 -15 90 -15q17 0 27.5 9.5t13.5 24.5h79q2 -34 -13.5 -68t-45.5 -56t-69 -22q-23 0 -52 5.5t-73 15.5q-60 16 -83 16q-17 0 -28.5 -11t-13.5 -26h-81q-3 33 13 67zM79 229q16 34 46 56t67 22q23 0 51 -5t72 -14
q66 -15 90 -15q17 0 27.5 9.5t13.5 24.5h79q2 -34 -13.5 -67.5t-45.5 -55.5t-69 -22q-23 0 -52 5.5t-73 15.5q-60 16 -83 16q-17 0 -28.5 -11t-13.5 -26h-81q-3 33 13 67z" />
    <glyph glyph-name="logicalnot.case" 
d="M417 278h-351v104h461v-287h-110v183z" />
    <glyph glyph-name="asciitilde.case" 
d="M79 324q16 34 46 56.5t67 22.5q39 0 123 -20q66 -15 90 -15q16 0 27 10t14 25h79q2 -34 -13.5 -68t-45.5 -56t-69 -22q-23 0 -52 5.5t-73 15.5q-60 16 -83 16q-17 0 -28.5 -11t-13.5 -26h-81q-3 33 13 67z" />
    <glyph glyph-name="infinity.case" 
d="M91.5 285q-34.5 30 -34.5 77q0 46 34.5 76t79.5 30q35 0 64.5 -17.5t60.5 -50.5q33 34 60.5 51t63.5 17q48 0 81.5 -29t33.5 -75q0 -32 -16.5 -57t-43 -38.5t-55.5 -13.5q-34 0 -64 18.5t-59 49.5q-39 -35 -66 -51.5t-60 -16.5q-45 0 -79.5 30zM250 362q-48 43 -72 43
q-18 0 -31.5 -12.5t-13.5 -29.5q0 -18 13 -31.5t32 -13.5q23 0 72 44zM445.5 331q13.5 13 13.5 31q0 17 -13 30t-32 13q-23 0 -71 -43q44 -44 71 -44q18 0 31.5 13z" />
    <glyph glyph-name="lozenge" unicode="&#x25ca;" horiz-adv-x="517" 
d="M23 296l198 460h71l202 -460l-202 -459h-71zM259 61l101 235l-101 237h-2l-98 -237l98 -235h2z" />
    <glyph glyph-name="uni2713" unicode="&#x2713;" horiz-adv-x="645" 
d="M517 692l94 -57l-398 -585h-59l-120 254l104 42l62 -141z" />
    <glyph glyph-name="uni2764" unicode="&#x2764;" horiz-adv-x="1126" 
d="M152 673l174 176v-746l-174 -174v744zM475 673l174 176v-746l-174 -174v744zM801 673l173 176v-746l-173 -174v744z" />
    <glyph glyph-name="at" unicode="@" horiz-adv-x="819" 
d="M214.5 -56q-88.5 51 -137.5 138t-49 192q0 106 49 193.5t136 138.5t195 51t196 -51t137.5 -136t49.5 -182q0 -72 -27.5 -121.5t-74 -74.5t-103.5 -25q-53 0 -80 20.5t-37 41.5q-29 -35 -56 -48.5t-62 -13.5q-70 0 -112 43t-42 120q0 69 28 126t76 90t104 33
q40 0 65.5 -16.5t37.5 -43.5h1l13 42h97l-69 -261q-1 -4 -1 -13q0 -37 50 -37t79.5 36t29.5 105q0 78 -39 143t-107.5 102t-151.5 37q-81 0 -149.5 -36.5t-109 -104.5t-40.5 -158q0 -88 39.5 -155.5t110.5 -104.5t163 -37q61 0 110.5 14.5t83.5 34.5l-11 -91
q-33 -19 -87 -30.5t-104 -11.5q-113 0 -201.5 51zM428.5 177.5q25.5 27.5 37.5 67.5t12 77q0 36 -13.5 54.5t-44.5 18.5q-51 0 -82 -45t-31 -113q0 -87 60 -87q36 0 61.5 27.5z" />
    <glyph glyph-name="ampersand" unicode="&#x26;" horiz-adv-x="679" 
d="M672 128l-7 -132q-84 -6 -192 60q-85 -67 -193 -67q-60 0 -116 24.5t-91.5 70.5t-35.5 107q0 71 34 117.5t94 82.5q-48 98 -48 172q0 51 23.5 94.5t67.5 69t102 25.5q47 0 86.5 -22t63 -60.5t23.5 -86.5q0 -58 -21 -98.5t-53 -66.5t-79 -52q55 -76 129 -138
q23 38 36.5 81t14.5 83l120 -64q-19 -92 -68 -170q63 -31 110 -30zM276 453q42 25 65 53t23 66q0 30 -15.5 49.5t-42.5 19.5q-29 0 -46 -20t-17 -51q0 -51 33 -117zM372 131q-80 69 -150 166q-39 -36 -39 -86q0 -45 34.5 -75t80.5 -30q38 0 74 25z" />
    <glyph glyph-name="paragraph" unicode="&#xb6;" horiz-adv-x="651" 
d="M216 415q-49 0 -88.5 21t-61.5 57t-22 79q0 44 22.5 83t64 62.5t95.5 23.5h330v-904h-83v825h-123v-825h-83v578h-51z" />
    <glyph glyph-name="section" unicode="&#xa7;" horiz-adv-x="583" 
d="M505 1q0 -52 -29 -95t-78 -67.5t-106 -24.5q-141 0 -207 118l105 84q13 -36 39 -60.5t63 -24.5q32 0 53.5 15t21.5 44t-28.5 46t-90.5 39q-66 24 -107.5 45t-71.5 60.5t-30 101.5q0 49 22 87t68 74q-51 49 -51 123q0 51 28.5 94t77.5 67.5t106 24.5q144 0 207 -118
l-105 -84q-13 36 -38.5 60.5t-63.5 24.5q-32 0 -53.5 -15t-21.5 -43q0 -29 28.5 -46.5t91.5 -39.5q65 -23 106.5 -44.5t72 -61t30.5 -100.5q0 -49 -22 -87t-67 -75q50 -48 50 -122zM180 267q17 -18 43 -30.5t72 -29.5q40 -14 74 -30q25 20 38 38t13 42q0 25 -17.5 43
t-43 30.5t-73.5 30.5q-40 13 -72 28q-25 -19 -38 -37t-13 -42q0 -25 17 -43z" />
    <glyph glyph-name="copyright" unicode="&#xa9;" horiz-adv-x="833" 
d="M220.5 40q-87.5 51 -136.5 138t-49 192t49 192.5t136.5 138.5t196.5 51q108 0 195 -51t136.5 -138.5t49.5 -192.5t-49.5 -192t-136.5 -138t-195 -51q-109 0 -196.5 51zM577 101q67 39 102.5 108.5t35.5 161.5q0 90 -37 160t-105 109t-157 39q-93 0 -160 -39
t-102.5 -108.5t-35.5 -161.5q0 -90 37 -160t105 -109t157 -39q93 0 160 39zM275 198.5q-57 56.5 -57 168.5q0 106 52 169.5t154 63.5q76 0 121.5 -37t64.5 -110l-103 -11q-9 44 -28.5 66t-53.5 22q-90 0 -90 -160q0 -158 90 -158q65 0 82 87l103 -10q-38 -147 -186 -147
q-92 0 -149 56.5z" />
    <glyph glyph-name="registered" unicode="&#xae;" horiz-adv-x="833" 
d="M220.5 40q-87.5 51 -136.5 138t-49 192t49 192.5t136.5 138.5t196.5 51q108 0 195 -51t136.5 -138.5t49.5 -192.5t-49.5 -192t-136.5 -138t-195 -51q-109 0 -196.5 51zM577 101q67 39 102.5 108.5t35.5 161.5q0 90 -37 160t-105 109t-157 39q-93 0 -160 -39
t-102.5 -108.5t-35.5 -161.5q0 -90 37 -160t105 -109t157 -39q93 0 160 39zM445 593q83 0 125 -39.5t42 -103.5q0 -46 -25 -78.5t-69 -46.5l91 -176h-112l-76 158h-66v-158h-100v444h190zM472.5 400q29.5 10 29.5 49q0 30 -17 43.5t-37.5 15.5t-58.5 2h-34v-120h40
q48 0 77.5 10z" />
    <glyph glyph-name="trademark" unicode="&#x2122;" horiz-adv-x="948" 
d="M171 657h-113v84h327v-84h-114v-301h-100v301zM431 741h126l92 -171h1l90 171h126v-385h-96v261h-1l-120 -212l-120 212h-2v-261h-96v385z" />
    <glyph glyph-name="degree" unicode="&#xb0;" horiz-adv-x="381" 
d="M118.5 489q-32.5 19 -51.5 52t-19 72t19 71.5t51.5 52t71.5 19.5t71.5 -19.5t52 -52.5t19.5 -71q0 -39 -19 -72t-52 -52t-72 -19t-71.5 19zM234.5 568.5q18.5 18.5 18.5 44.5t-18.5 44.5t-44.5 18.5t-44 -18.5t-18 -44.5t18 -44.5t44 -18.5t44.5 18.5z" />
    <glyph glyph-name="bar" unicode="|" horiz-adv-x="268" 
d="M79 740h110v-978h-110v978z" />
    <glyph glyph-name="brokenbar" unicode="&#xa6;" horiz-adv-x="268" 
d="M79 740h110v-370h-110v370zM79 165h110v-403h-110v403z" />
    <glyph glyph-name="dagger" unicode="&#x2020;" 
d="M226 416h-174v117h174v208h141v-208h173v-117h-173v-598h-141v598z" />
    <glyph glyph-name="uni2113" unicode="&#x2113;" horiz-adv-x="481" 
d="M453 50q-66 -63 -157 -63q-74 0 -120.5 44t-46.5 134v23l-69 -50l-46 97l37 26q42 30 78 54v256q0 87 46 134t123 47q70 0 111 -42t41 -120q0 -64 -20 -113t-63 -96t-121 -107v-84q0 -106 61 -106q24 0 50 14t51 39zM246 404q58 49 81 89t23 90q0 75 -50 75
q-54 0 -54 -88v-166z" />
    <glyph glyph-name="daggerdbl" unicode="&#x2021;" 
d="M226 0h-174v117h174v325h-174v117h174v182h141v-182h173v-117h-173v-325h173v-117h-173v-182h-141v182z" />
    <glyph glyph-name="estimated" unicode="&#x212e;" horiz-adv-x="943" 
d="M261.5 39.5q-98.5 51.5 -156 139.5t-57.5 191t57.5 191t155 139.5t213.5 51.5q115 0 212 -52.5t153 -142t56 -194.5h-679q-11 0 -11 -12v-167q0 -42 45.5 -77t111 -55.5t119.5 -20.5q147 0 241 109h82q-57 -71 -143 -111.5t-185 -40.5q-116 0 -214.5 51.5zM738 413v147
q0 13 -5 26.5t-14 23.5q-48 51 -111.5 76.5t-137.5 25.5t-136.5 -25t-107.5 -77q-9 -11 -15 -24.5t-6 -25.5v-147q0 -10 11 -10h511q11 0 11 10z" />
    <glyph glyph-name="ampersand.alt" horiz-adv-x="679" 
d="M672 128l-7 -132q-84 -6 -192 60q-85 -67 -193 -67q-60 0 -116 24.5t-91.5 70.5t-35.5 107q0 71 34 117.5t94 83.5q-48 96 -48 171q0 51 23.5 94.5t67.5 69t102 25.5q49 0 89 -23t62 -59.5t22 -75.5l-1 -14l-130 -59q12 32 12 51q0 30 -15.5 49.5t-42.5 19.5
q-29 0 -46 -20t-17 -51q0 -74 63 -170.5t153 -171.5q23 38 36.5 81t14.5 83l120 -64q-19 -92 -68 -170q63 -31 110 -30zM372 131q-85 72 -150 166q-39 -36 -39 -86q0 -45 34.5 -75t80.5 -30q38 0 74 25z" />
    <glyph glyph-name="at.case" horiz-adv-x="839" 
d="M224.5 37q-88.5 51 -137.5 138t-49 192q0 106 49 193.5t136 138.5t195 51t196 -51t137.5 -136t49.5 -182q0 -72 -27.5 -121.5t-74 -74.5t-103.5 -25q-53 0 -80 20.5t-37 41.5q-29 -35 -56 -48.5t-62 -13.5q-70 0 -112 43t-42 120q0 69 28 126t76 90t104 33
q40 0 65.5 -16.5t37.5 -43.5h1l13 42h97l-69 -261q-1 -4 -1 -13q0 -37 50 -37t79.5 36t29.5 105q0 78 -39 143t-107.5 102t-151.5 37q-81 0 -149.5 -36.5t-109 -104.5t-40.5 -158q0 -88 39.5 -155.5t110.5 -104.5t163 -37q61 0 110.5 14.5t83.5 34.5l-11 -91
q-33 -19 -87 -30.5t-104 -11.5q-113 0 -201.5 51zM438.5 270.5q25.5 27.5 37.5 67.5t12 77q0 36 -13.5 54.5t-44.5 18.5q-51 0 -82 -45t-31 -113q0 -87 60 -87q36 0 61.5 27.5z" />
    <glyph glyph-name="bar.case" horiz-adv-x="268" 
d="M79 807h110v-978h-110v978z" />
    <glyph glyph-name="brokenbar.case" horiz-adv-x="268" 
d="M79 807h110v-370h-110v370zM79 232h110v-403h-110v403z" />
    <glyph glyph-name="uni02C9" unicode="&#x2c9;" horiz-adv-x="429" 
d="M48 741h333v-90h-333v90z" />
    <glyph glyph-name="uni0308" unicode="&#x308;" horiz-adv-x="0" 
d="M-354 621q-21 21 -21 51t21 51.5t51 21.5t51.5 -21.5t21.5 -51.5t-21.5 -51t-51.5 -21t-51 21zM-171.5 621q-21.5 21 -21.5 51t21.5 51.5t51.5 21.5t51 -21.5t21 -51.5t-21 -51t-51 -21t-51.5 21z" />
    <glyph glyph-name="uni0307" unicode="&#x307;" horiz-adv-x="0" 
d="M-181 617q-23 23 -23 55t23 55t55 23t55 -23t23 -55t-23 -55t-55 -23t-55 23z" />
    <glyph glyph-name="gravecomb" unicode="&#x300;" horiz-adv-x="0" 
d="M-239 741h135l56 -137h-93z" />
    <glyph glyph-name="acutecomb" unicode="&#x301;" horiz-adv-x="0" 
d="M-183 741h135l-98 -137h-93z" />
    <glyph glyph-name="uni030B" unicode="&#x30b;" horiz-adv-x="0" 
d="M-295 741h97l-79 -137h-74zM-145 741h97l-79 -137h-74z" />
    <glyph glyph-name="uni0302" unicode="&#x302;" horiz-adv-x="0" 
d="M-276 741h134l94 -137h-102l-59 80l-57 -80h-104z" />
    <glyph glyph-name="circumflexcomb_hookcomb" horiz-adv-x="0" 
d="M-144 759q0 12 -9 19t-26 7q-30 0 -62 -16l-15 68q38 19 95 19q55 0 84 -20t29 -56q0 -14 -11 -32.5t-29 -31.5h-84q28 22 28 43zM-340 703h134l94 -99h-102l-59 51l-57 -51h-104z" />
    <glyph glyph-name="uni030C" unicode="&#x30c;" horiz-adv-x="0" 
d="M-370 741h104l57 -80l59 80h102l-94 -137h-134z" />
    <glyph glyph-name="uni0306" unicode="&#x306;" horiz-adv-x="0" 
d="M-331 633.5q-46 37.5 -50 107.5h88q4 -29 26.5 -44.5t51.5 -15.5q30 0 52.5 15.5t25.5 44.5h89q-5 -71 -50.5 -108t-116.5 -37q-70 0 -116 37.5z" />
    <glyph glyph-name="brevecomb_hookcomb" horiz-adv-x="0" 
d="M-234 759q0 12 -9 19t-26 7q-30 0 -62 -16l-15 68q38 19 95 19q55 0 84 -20t29 -56q0 -14 -11 -32.5t-29 -31.5h-84q28 21 28 43zM-333 625.5q-43 29.5 -48 82.5h88q4 -16 26 -24.5t52 -8.5t52.5 8.5t25.5 24.5h89q-6 -52 -50 -82t-117 -30q-75 0 -118 29.5z" />
    <glyph glyph-name="uni030A" unicode="&#x30a;" horiz-adv-x="0" 
d="M-199 612q-26 26 -26 62q0 37 26 63t62 26q37 0 63 -26t26 -63q0 -36 -26 -62t-63 -26q-36 0 -62 26zM-111.5 648.5q10.5 10.5 10.5 25.5q0 14 -10.5 25t-25.5 11t-25.5 -11t-10.5 -25q0 -15 10.5 -25.5t25.5 -10.5t25.5 10.5z" />
    <glyph glyph-name="tildecomb" unicode="&#x303;" horiz-adv-x="0" 
d="M-266 759q14 0 28 -5t35 -14q14 -6 28 -11t25 -5q19 0 30.5 10t25.5 30l46 -51q-18 -31 -42.5 -53.5t-53.5 -22.5q-15 0 -31 5t-38 15q-38 17 -56 17q-20 0 -31.5 -10.5t-25.5 -32.5l-42 54q47 74 102 74z" />
    <glyph glyph-name="uni0304" unicode="&#x304;" horiz-adv-x="0" 
d="M-381 741h333v-90h-333v90z" />
    <glyph glyph-name="hookabovecomb" unicode="&#x309;" horiz-adv-x="0" 
d="M-152.5 632.5q8.5 11.5 8.5 22.5q0 12 -9 19t-26 7q-30 0 -62 -16l-15 68q17 9 42.5 14t52.5 5q55 0 84 -20t29 -56q0 -16 -12 -35t-38 -37h-85q22 17 30.5 28.5z" />
    <glyph glyph-name="uni0312" unicode="&#x312;" horiz-adv-x="0" 
d="M-141 741h93l-56 -137h-135z" />
    <glyph glyph-name="uni0315" unicode="&#x315;" horiz-adv-x="0" 
d="M-174 741h126l-34 -194h-101z" />
    <glyph glyph-name="dotbelowcomb" unicode="&#x323;" horiz-adv-x="0" 
d="M-181 -182q-23 23 -23 55t23 55t55 23t55 -23t23 -55t-23 -55t-55 -23t-55 23z" />
    <glyph glyph-name="uni0326" unicode="&#x326;" horiz-adv-x="0" 
d="M-183 -58h135l-98 -137h-93z" />
    <glyph glyph-name="uni0327" unicode="&#x327;" horiz-adv-x="0" 
d="M-70 -75.5q22 -19.5 22 -53.5q0 -46 -36 -74.5t-82 -28.5q-26 0 -51.5 5t-38.5 14l15 68q4 -1 22.5 -8.5t37.5 -7.5q43 0 43 31q0 35 -71 35q-19 0 -30 -1l57 102h79l-28 -52q39 -10 61 -29.5z" />
    <glyph glyph-name="uni0328" unicode="&#x328;" horiz-adv-x="0" 
d="M-200.5 -169q-29.5 23 -29.5 64q0 39 26.5 71t81.5 53l74 -19q-42 -13 -70 -38t-28 -52q0 -14 11.5 -22.5t26.5 -8.5q29 0 59 20v-69q-32 -22 -76 -22q-46 0 -75.5 23z" />
    <glyph glyph-name="dieresis" unicode="&#xa8;" horiz-adv-x="423" 
d="M69 621q-21 21 -21 51t21 51.5t51 21.5t51.5 -21.5t21.5 -51.5t-21.5 -51t-51.5 -21t-51 21zM251.5 621q-21.5 21 -21.5 51t21.5 51.5t51.5 21.5t51 -21.5t21 -51.5t-21 -51t-51 -21t-51.5 21z" />
    <glyph glyph-name="dotaccent" unicode="&#x2d9;" horiz-adv-x="252" 
d="M71 617q-23 23 -23 55t23 55t55 23t55 -23t23 -55t-23 -55t-55 -23t-55 23z" />
    <glyph glyph-name="grave" unicode="`" horiz-adv-x="287" 
d="M48 741h135l56 -137h-93z" />
    <glyph glyph-name="acute" unicode="&#xb4;" horiz-adv-x="287" 
d="M104 741h135l-98 -137h-93z" />
    <glyph glyph-name="hungarumlaut" unicode="&#x2dd;" horiz-adv-x="399" 
d="M104 741h97l-79 -137h-74zM254 741h97l-79 -137h-74z" />
    <glyph glyph-name="circumflex" unicode="&#x2c6;" horiz-adv-x="418" 
d="M142 741h134l94 -137h-102l-59 80l-57 -80h-104z" />
    <glyph glyph-name="caron" unicode="&#x2c7;" horiz-adv-x="418" 
d="M48 741h104l57 -80l59 80h102l-94 -137h-134z" />
    <glyph glyph-name="breve" unicode="&#x2d8;" horiz-adv-x="429" 
d="M98 633.5q-46 37.5 -50 107.5h88q4 -29 26.5 -44.5t51.5 -15.5q30 0 52.5 15.5t25.5 44.5h89q-5 -71 -50.5 -108t-116.5 -37q-70 0 -116 37.5z" />
    <glyph glyph-name="ring" unicode="&#x2da;" horiz-adv-x="273" 
d="M74 612q-26 26 -26 62q0 37 26 63t62 26q37 0 63 -26t26 -63q0 -36 -26 -62t-63 -26q-36 0 -62 26zM161.5 648.5q10.5 10.5 10.5 25.5q0 14 -10.5 25t-25.5 11t-25.5 -11t-10.5 -25q0 -15 10.5 -25.5t25.5 -10.5t25.5 10.5z" />
    <glyph glyph-name="tilde" unicode="&#x2dc;" horiz-adv-x="416" 
d="M150 759q14 0 28 -5t35 -14q14 -6 28 -11t25 -5q19 0 30.5 10t25.5 30l46 -51q-18 -31 -42.5 -53.5t-53.5 -22.5q-15 0 -31 5t-38 15q-38 17 -56 17q-20 0 -31.5 -10.5t-25.5 -32.5l-42 54q47 74 102 74z" />
    <glyph glyph-name="macron" unicode="&#xaf;" horiz-adv-x="429" 
d="M48 741h333v-90h-333v90z" />
    <glyph glyph-name="cedilla" unicode="&#xb8;" horiz-adv-x="304" 
d="M234 -75.5q22 -19.5 22 -53.5q0 -46 -36 -74.5t-82 -28.5q-26 0 -51.5 5t-38.5 14l15 68q4 -1 22.5 -8.5t37.5 -7.5q43 0 43 31q0 35 -71 35q-19 0 -30 -1l57 102h79l-28 -52q39 -10 61 -29.5z" />
    <glyph glyph-name="ogonek" unicode="&#x2db;" horiz-adv-x="278" 
d="M77.5 -169q-29.5 23 -29.5 64q0 39 26.5 71t81.5 53l74 -19q-42 -13 -70 -38t-28 -52q0 -14 11.5 -22.5t26.5 -8.5q29 0 59 20v-69q-32 -22 -76 -22q-46 0 -75.5 23z" />
    <glyph glyph-name="uni03060301" horiz-adv-x="0" 
d="M-198 840h136l-108 -105h-93zM-333 625.5q-43 29.5 -48 82.5h88q4 -16 26 -24.5t52 -8.5t52.5 8.5t25.5 24.5h89q-6 -52 -50 -82t-117 -30q-75 0 -118 29.5z" />
    <glyph glyph-name="uni03060300" horiz-adv-x="0" 
d="M-367 840h135l66 -105h-93zM-333 625.5q-43 29.5 -48 82.5h88q4 -16 26 -24.5t52 -8.5t52.5 8.5t25.5 24.5h89q-6 -52 -50 -82t-117 -30q-75 0 -118 29.5z" />
    <glyph glyph-name="uni03060303" horiz-adv-x="0" 
d="M-276 843q15 0 30 -5t42 -15q3 -1 21.5 -8.5t30.5 -7.5q27 0 54 38l43 -49q-42 -63 -99 -63q-15 0 -31 5.5t-40 15.5q-3 1 -21.5 8.5t-31.5 7.5q-26 0 -54 -39l-43 49q42 63 99 63zM-333 625.5q-43 29.5 -48 82.5h88q4 -16 26 -24.5t52 -8.5t52.5 8.5t25.5 24.5h89
q-6 -52 -50 -82t-117 -30q-75 0 -118 29.5z" />
    <glyph glyph-name="uni03020301" horiz-adv-x="0" 
d="M-188 840h135l-108 -105h-93zM-276 703h134l94 -99h-102l-59 51l-57 -51h-104z" />
    <glyph glyph-name="uni03020300" horiz-adv-x="0" 
d="M-366 840h136l65 -105h-93zM-276 703h134l94 -99h-102l-59 51l-57 -51h-104z" />
    <glyph glyph-name="uni03020303" horiz-adv-x="0" 
d="M-270 843q15 0 31 -5t40 -15q38 -16 52 -16q28 0 55 38l43 -49q-42 -63 -99 -63q-15 0 -32 5.5t-40 15.5q-3 1 -21.5 8.5t-30.5 7.5q-25 0 -55 -39l-42 49q40 63 99 63zM-276 703h134l94 -99h-102l-59 51l-57 -51h-104z" />
    <glyph glyph-name="ncomma" horiz-adv-x="278" 
d="M85 741h145l-80 -137h-102z" />
    </font>
</defs>
</svg>
