<?xml version="1.0" standalone="no"?>
<!DOCTYPE svg PUBLIC "-//W3C//DTD SVG 1.1//EN" "http://www.w3.org/Graphics/SVG/1.1/DTD/svg11.dtd" >
<svg xmlns="http://www.w3.org/2000/svg" xmlns:xlink="http://www.w3.org/1999/xlink" version="1.1">
<metadata>
Created by FontForge 20190801 at Wed Jan 29 13:34:58 2020
 By Jimmy Wärting
Copyright (c) 2019 The Manufacturers Life Insurance Company (Manulife) - All Rights Reserved. The information contained herein, including without limitation font and typeface, is proprietary to Manulife and shall not be reproduced, copied in whole or in part, adapted, modified, or disseminated without the express written consent of Manulife.
</metadata>
<defs>
<font id="ManulifeJHSansTest4_2" horiz-adv-x="592" >
  <font-face 
    font-family="Manulife JH Sans Test 4_2"
    font-weight="400"
    font-stretch="normal"
    units-per-em="1000"
    panose-1="0 0 5 0 0 0 0 0 0 0"
    ascent="800"
    descent="-200"
    x-height="522"
    cap-height="741"
    bbox="-384 -238 1000 1050"
    underline-thickness="67"
    underline-position="-171"
    unicode-range="U+000D-FB02"
  />
<missing-glyph horiz-adv-x="663" 
d="M95 741h473v-741h-473v741z" />
    <glyph glyph-name="f_i" unicode="fi" horiz-adv-x="525" 
d="M21 460v62h78v91q0 68 33 105.5t97 37.5q46 0 82 -16l-20 -61q-26 13 -56 13q-32 0 -47 -20.5t-15 -55.5v-94h120l-11 -62h-109v-460h-74v460h-78zM369.5 666q-15.5 16 -15.5 37q0 22 15.5 37.5t36.5 15.5t37 -15.5t16 -37.5q0 -21 -16 -37t-37 -16t-36.5 16zM370 522h74
v-522h-74v522z" />
    <glyph glyph-name="f_l" unicode="fl" horiz-adv-x="525" 
d="M21 460v62h78v91q0 68 33 105.5t97 37.5q46 0 82 -16l-20 -61q-26 13 -56 13q-32 0 -47 -20.5t-15 -55.5v-94h120l-11 -62h-109v-460h-74v460h-78zM371 736l74 43v-779h-74v736z" />
    <glyph glyph-name=".notdef" horiz-adv-x="663" 
d="M95 741h473v-741h-473v741z" />
    <glyph glyph-name="NULL" horiz-adv-x="0" 
 />
    <glyph glyph-name="nonmarkingreturn" unicode="&#xd;" horiz-adv-x="296" 
 />
    <glyph glyph-name="space" unicode=" " horiz-adv-x="222" 
 />
    <glyph glyph-name="space" unicode="&#xa0;" horiz-adv-x="222" 
 />
    <glyph glyph-name="A" unicode="A" horiz-adv-x="558" 
d="M477 0l-72 231h-254l-70 -231h-81l238 741h77l243 -741h-81zM170 294h215l-108 346h-2z" />
    <glyph glyph-name="Aacute" unicode="&#xc1;" horiz-adv-x="558" 
d="M477 0l-72 231h-254l-70 -231h-81l238 741h77l243 -741h-81zM170 294h215l-108 346h-2zM320 942h83l-98 -137h-52z" />
    <glyph glyph-name="Abreve" unicode="&#x102;" horiz-adv-x="558" 
d="M477 0l-72 231h-254l-70 -231h-81l238 741h77l243 -741h-81zM170 294h215l-108 346h-2zM178 837q-40 40 -51 105h53q9 -40 34 -66t65 -26t66 26t34 66h52q-10 -64 -50.5 -104.5t-101.5 -40.5t-101 40z" />
    <glyph glyph-name="uni1EAE" unicode="&#x1eae;" horiz-adv-x="558" 
d="M477 0l-72 231h-254l-70 -231h-81l238 741h77l243 -741h-81zM170 294h215l-108 346h-2zM320 1041h84l-101 -105h-52zM190 826q-37 29 -48 79h52q17 -56 85 -56q33 0 55 14t30 42h52q-11 -49 -49 -78.5t-88 -29.5q-52 0 -89 29z" />
    <glyph glyph-name="uni1EB6" unicode="&#x1eb6;" horiz-adv-x="558" 
d="M477 0l-72 231h-254l-70 -231h-81l238 741h77l243 -741h-81zM170 294h215l-108 346h-2zM178 837q-40 40 -51 105h53q9 -40 34 -66t65 -26t66 26t34 66h52q-10 -64 -50.5 -104.5t-101.5 -40.5t-101 40zM244 -154q-14 14 -14 34t14 34t34 14t34.5 -14t14.5 -34t-14.5 -34
t-34.5 -14t-34 14z" />
    <glyph glyph-name="uni1EB0" unicode="&#x1eb0;" horiz-adv-x="558" 
d="M477 0l-72 231h-254l-70 -231h-81l238 741h77l243 -741h-81zM170 294h215l-108 346h-2zM154 1041h84l69 -105h-52zM190 826q-37 29 -48 79h52q17 -56 85 -56q33 0 55 14t30 42h52q-11 -49 -49 -78.5t-88 -29.5q-52 0 -89 29z" />
    <glyph glyph-name="uni1EB2" unicode="&#x1eb2;" horiz-adv-x="558" 
d="M477 0l-72 231h-254l-70 -231h-81l238 741h77l243 -741h-81zM170 294h215l-108 346h-2zM287.5 950.5q12.5 14.5 12.5 26.5t-11.5 20.5t-32.5 8.5q-39 0 -78 -21l-10 43q44 22 95 22q47 0 71.5 -17.5t24.5 -46.5q0 -36 -55 -72h-61q32 22 44.5 36.5zM190 826
q-37 29 -48 79h52q17 -56 85 -56q33 0 55 14t30 42h52q-11 -49 -49 -78.5t-88 -29.5q-52 0 -89 29z" />
    <glyph glyph-name="uni1EB4" unicode="&#x1eb4;" horiz-adv-x="558" 
d="M477 0l-72 231h-254l-70 -231h-81l238 741h77l243 -741h-81zM170 294h215l-108 346h-2zM223 1033q15 0 29.5 -5.5t36.5 -17.5q3 -1 14 -7t19.5 -8.5t15.5 -2.5q27 0 54 46l33 -25q-42 -68 -91 -68q-14 0 -27.5 5.5t-36.5 16.5q-17 9 -28.5 14t-22.5 5q-25 0 -53 -46
l-33 24q41 69 90 69zM190 826q-37 29 -48 79h52q17 -56 85 -56t85 56h52q-11 -49 -49.5 -78.5t-87.5 -29.5q-52 0 -89 29z" />
    <glyph glyph-name="Acircumflex" unicode="&#xc2;" horiz-adv-x="558" 
d="M477 0l-72 231h-254l-70 -231h-81l238 741h77l243 -741h-81zM170 294h215l-108 346h-2zM242 942h74l99 -137h-56l-81 90l-78 -90h-57z" />
    <glyph glyph-name="uni1EA4" unicode="&#x1ea4;" horiz-adv-x="558" 
d="M477 0l-72 231h-254l-70 -231h-81l238 741h77l243 -741h-81zM170 294h215l-108 346h-2zM320 1041h84l-102 -105h-51zM242 904h74l99 -99h-57l-80 62l-76 -62h-59z" />
    <glyph glyph-name="uni1EAC" unicode="&#x1eac;" horiz-adv-x="558" 
d="M477 0l-72 231h-254l-70 -231h-81l238 741h77l243 -741h-81zM170 294h215l-108 346h-2zM242 942h74l99 -137h-56l-81 90l-78 -90h-57zM244 -154q-14 14 -14 34t14 34t34 14t34.5 -14t14.5 -34t-14.5 -34t-34.5 -14t-34 14z" />
    <glyph glyph-name="uni1EA6" unicode="&#x1ea6;" horiz-adv-x="558" 
d="M477 0l-72 231h-254l-70 -231h-81l238 741h77l243 -741h-81zM170 294h215l-108 346h-2zM153 1041h84l69 -105h-52zM242 904h74l99 -99h-57l-80 62l-76 -62h-59z" />
    <glyph glyph-name="uni1EA8" unicode="&#x1ea8;" horiz-adv-x="558" 
d="M477 0l-72 231h-254l-70 -231h-81l238 741h77l243 -741h-81zM170 294h215l-108 346h-2zM406 937q13 14 13 26q0 11 -11.5 19.5t-32.5 8.5q-41 0 -77 -20l-11 43q44 22 94 22q47 0 72.5 -17.5t25.5 -46.5q0 -35 -56 -72h-62q32 23 45 37zM242 904h74l99 -99h-57l-80 62
l-76 -62h-59z" />
    <glyph glyph-name="uni1EAA" unicode="&#x1eaa;" horiz-adv-x="558" 
d="M477 0l-72 231h-254l-70 -231h-81l238 741h77l243 -741h-81zM170 294h215l-108 346h-2zM223 1033q14 0 27.5 -5.5t36.5 -16.5q17 -9 28.5 -14t22.5 -5q26 0 53 46l34 -25q-42 -68 -91 -68q-15 0 -30 6t-35 17q-13 7 -26.5 12.5t-23.5 5.5q-25 0 -54 -46l-32 24
q40 69 90 69zM242 904h74l98 -99h-56l-79 62l-77 -62h-59z" />
    <glyph glyph-name="Adieresis" unicode="&#xc4;" horiz-adv-x="558" 
d="M477 0l-72 231h-254l-70 -231h-81l238 741h77l243 -741h-81zM170 294h215l-108 346h-2zM158.5 851.5q-13.5 13.5 -13.5 32.5q0 20 13.5 34t32.5 14q20 0 34 -14t14 -34q0 -19 -14 -32.5t-34 -13.5q-19 0 -32.5 13.5zM333 851.5q-14 13.5 -14 32.5q0 20 13.5 34t33.5 14
t33.5 -14t13.5 -34q0 -19 -13.5 -32.5t-33.5 -13.5q-19 0 -33 13.5z" />
    <glyph glyph-name="uni1EA0" unicode="&#x1ea0;" horiz-adv-x="558" 
d="M477 0l-72 231h-254l-70 -231h-81l238 741h77l243 -741h-81zM170 294h215l-108 346h-2zM244 -154q-14 14 -14 34t14 34t34 14t34.5 -14t14.5 -34t-14.5 -34t-34.5 -14t-34 14z" />
    <glyph glyph-name="Agrave" unicode="&#xc0;" horiz-adv-x="558" 
d="M477 0l-72 231h-254l-70 -231h-81l238 741h77l243 -741h-81zM170 294h215l-108 346h-2zM155 942h83l67 -137h-51z" />
    <glyph glyph-name="uni1EA2" unicode="&#x1ea2;" horiz-adv-x="558" 
d="M477 0l-72 231h-254l-70 -231h-81l238 741h77l243 -741h-81zM170 294h215l-108 346h-2zM297.5 845.5q13.5 15.5 13.5 28.5q0 14 -11.5 22.5t-32.5 8.5q-42 0 -78 -20l-10 43q42 22 94 22q47 0 72 -18t25 -49q0 -39 -61 -78h-59q34 25 47.5 40.5z" />
    <glyph glyph-name="Amacron" unicode="&#x100;" horiz-adv-x="558" 
d="M477 0l-72 231h-254l-70 -231h-81l238 741h77l243 -741h-81zM170 294h215l-108 346h-2zM119 910h319v-55h-319v55z" />
    <glyph glyph-name="Aogonek" unicode="&#x104;" horiz-adv-x="558" 
d="M470.5 -53.5q-26.5 -28.5 -26.5 -55.5q0 -19 11.5 -28.5t30.5 -9.5q30 0 58 17v-45q-28 -17 -64 -17q-37 0 -62.5 18.5t-25.5 57.5q0 32 22 62t63 55l-72 230h-254l-70 -231h-81l238 741h77l243 -741h-10q-51 -25 -77.5 -53.5zM170 294h215l-108 346h-2z" />
    <glyph glyph-name="Aring" unicode="&#xc5;" horiz-adv-x="558" 
d="M405 231h-254l-70 -231h-81l228 710q-21 12 -33 33t-12 46q0 38 27.5 65t65.5 27t65 -27t27 -65q0 -24 -11.5 -45t-31.5 -33l233 -711h-81zM242 821.5q-14 -14.5 -14 -32.5q0 -20 14 -34t34 -14q19 0 33 14.5t14 33.5q0 18 -14 32.5t-33 14.5q-20 0 -34 -14.5zM170 294
h215l-108 346h-2z" />
    <glyph glyph-name="Atilde" unicode="&#xc3;" horiz-adv-x="558" 
d="M477 0l-72 231h-254l-70 -231h-81l238 741h77l243 -741h-81zM170 294h215l-108 346h-2zM220 946q15 0 30.5 -6.5t36.5 -18.5q19 -11 31.5 -16.5t24.5 -5.5q19 0 34 13t25 34l33 -24q-16 -31 -39 -54.5t-52 -23.5q-15 0 -30.5 6.5t-39.5 20.5q-38 23 -57 23q-33 0 -63 -51
l-31 29q44 74 97 74z" />
    <glyph glyph-name="AE" unicode="&#xc6;" horiz-adv-x="894" 
d="M523 64h340v-64h-418v231h-241l-122 -231h-85l406 741h439v-64h-319v-260h237v-64h-237v-289zM238 294h207v383h-4z" />
    <glyph glyph-name="B" unicode="B" horiz-adv-x="595" 
d="M279 741q139 0 196.5 -56t57.5 -138q0 -58 -30 -99.5t-85 -58.5q63 -21 97.5 -67.5t34.5 -113.5q0 -86 -57 -147t-186 -61h-217v741h189zM401.5 443q52.5 26 52.5 102q0 134 -182 134h-104v-262h97q84 0 136.5 26zM428.5 100.5q42.5 38.5 42.5 106.5q0 150 -194 150h-109
v-295h108q110 0 152.5 38.5z" />
    <glyph glyph-name="C" unicode="C" horiz-adv-x="601" 
d="M179.5 32q-62.5 47 -96.5 134t-34 204q0 119 33.5 206t95.5 133t147 46q90 0 150 -52.5t83 -142.5l-68 -36q-16 74 -57 121t-108 47q-58 0 -102 -38t-68.5 -110.5t-24.5 -173.5q0 -95 24.5 -168t69 -113.5t101.5 -40.5q66 0 107.5 49.5t58.5 121.5l69 -38
q-23 -89 -83.5 -142.5t-151.5 -53.5q-83 0 -145.5 47z" />
    <glyph glyph-name="Cacute" unicode="&#x106;" horiz-adv-x="601" 
d="M179.5 32q-62.5 47 -96.5 134t-34 204q0 119 33.5 206t95.5 133t147 46q90 0 150 -52.5t83 -142.5l-68 -36q-16 74 -57 121t-108 47q-58 0 -102 -38t-68.5 -110.5t-24.5 -173.5q0 -95 24.5 -168t69 -113.5t101.5 -40.5q66 0 107.5 49.5t58.5 121.5l69 -38
q-23 -89 -83.5 -142.5t-151.5 -53.5q-83 0 -145.5 47zM365 942h83l-98 -137h-52z" />
    <glyph glyph-name="Ccaron" unicode="&#x10c;" horiz-adv-x="601" 
d="M179.5 32q-62.5 47 -96.5 134t-34 204q0 119 33.5 206t95.5 133t147 46q90 0 150 -52.5t83 -142.5l-68 -36q-16 74 -57 121t-108 47q-58 0 -102 -38t-68.5 -110.5t-24.5 -173.5q0 -95 24.5 -168t69 -113.5t101.5 -40.5q66 0 107.5 49.5t58.5 121.5l69 -38
q-23 -89 -83.5 -142.5t-151.5 -53.5q-83 0 -145.5 47zM189 942h57l78 -90l81 90h56l-99 -137h-74z" />
    <glyph glyph-name="Ccedilla" unicode="&#xc7;" horiz-adv-x="601" 
d="M484.5 45.5q-54.5 -52.5 -136.5 -59.5l-22 -34q42 -8 66.5 -24.5t24.5 -50.5q0 -38 -30 -58.5t-74 -20.5q-23 0 -49 5t-39 14l12 43q11 -8 33 -14t41 -6q23 0 36 8.5t13 25.5q0 23 -26 33t-80 14l44 65q-76 8 -132 57t-86.5 133t-30.5 194q0 119 33.5 206t95.5 133
t147 46q90 0 150 -52.5t83 -142.5l-68 -36q-16 74 -57 121t-108 47q-58 0 -102 -38t-68.5 -110.5t-24.5 -173.5q0 -95 24.5 -168t69 -113.5t101.5 -40.5q66 0 107.5 49.5t58.5 121.5l69 -38q-21 -83 -75.5 -135.5z" />
    <glyph glyph-name="Ccircumflex" unicode="&#x108;" horiz-adv-x="601" 
d="M179.5 32q-62.5 47 -96.5 134t-34 204q0 119 33.5 206t95.5 133t147 46q90 0 150 -52.5t83 -142.5l-68 -36q-16 74 -57 121t-108 47q-58 0 -102 -38t-68.5 -110.5t-24.5 -173.5q0 -95 24.5 -168t69 -113.5t101.5 -40.5q66 0 107.5 49.5t58.5 121.5l69 -38
q-23 -89 -83.5 -142.5t-151.5 -53.5q-83 0 -145.5 47zM288 942h74l99 -137h-56l-81 90l-78 -90h-57z" />
    <glyph glyph-name="Cdotaccent" unicode="&#x10a;" horiz-adv-x="601" 
d="M179.5 32q-62.5 47 -96.5 134t-34 204q0 119 33.5 206t95.5 133t147 46q90 0 150 -52.5t83 -142.5l-68 -36q-16 74 -57 121t-108 47q-58 0 -102 -38t-68.5 -110.5t-24.5 -173.5q0 -95 24.5 -168t69 -113.5t101.5 -40.5q66 0 107.5 49.5t58.5 121.5l69 -38
q-23 -89 -83.5 -142.5t-151.5 -53.5q-83 0 -145.5 47zM290 850q-14 14 -14 34t14 34.5t34 14.5t34.5 -14.5t14.5 -34.5t-14.5 -34t-34.5 -14t-34 14z" />
    <glyph glyph-name="D" unicode="D" horiz-adv-x="630" 
d="M260 741q167 0 247 -99t80 -270q0 -111 -35.5 -195t-107.5 -130.5t-176 -46.5h-178v741h170zM447 144.5q59 80.5 59 230.5q0 144 -59.5 223t-181.5 79h-97v-613h101q119 0 178 80.5z" />
    <glyph glyph-name="Eth" unicode="&#xd0;" horiz-adv-x="630" 
d="M507 642q80 -99 80 -270q0 -111 -35.5 -195t-107.5 -130.5t-176 -46.5h-178v362h-76v57h76v322h170q167 0 247 -99zM447 144.5q59 80.5 59 230.5q0 144 -59.5 223t-181.5 79h-97v-258h151v-57h-151v-298h101q119 0 178 80.5z" />
    <glyph glyph-name="Dcaron" unicode="&#x10e;" horiz-adv-x="630" 
d="M260 741q167 0 247 -99t80 -270q0 -111 -35.5 -195t-107.5 -130.5t-176 -46.5h-178v741h170zM447 144.5q59 80.5 59 230.5q0 144 -59.5 223t-181.5 79h-97v-613h101q119 0 178 80.5zM169 942h57l78 -90l81 90h56l-99 -137h-74z" />
    <glyph glyph-name="Dcroat" unicode="&#x110;" horiz-adv-x="630" 
d="M507 642q80 -99 80 -270q0 -111 -35.5 -195t-107.5 -130.5t-176 -46.5h-178v362h-76v57h76v322h170q167 0 247 -99zM447 144.5q59 80.5 59 230.5q0 144 -59.5 223t-181.5 79h-97v-258h151v-57h-151v-298h101q119 0 178 80.5z" />
    <glyph glyph-name="E" unicode="E" horiz-adv-x="542" 
d="M90 741h400v-64h-322v-260h240v-64h-240v-289h343v-64h-421v741z" />
    <glyph glyph-name="Eacute" unicode="&#xc9;" horiz-adv-x="542" 
d="M90 741h400v-64h-322v-260h240v-64h-240v-289h343v-64h-421v741zM332 942h83l-98 -137h-52z" />
    <glyph glyph-name="Ebreve" unicode="&#x114;" horiz-adv-x="542" 
d="M90 741h400v-64h-322v-260h240v-64h-240v-289h343v-64h-421v741zM191 837q-40 40 -51 105h53q9 -40 34 -66t65 -26t66 26t34 66h52q-10 -64 -50.5 -104.5t-101.5 -40.5t-101 40z" />
    <glyph glyph-name="Ecaron" unicode="&#x11a;" horiz-adv-x="542" 
d="M90 741h400v-64h-322v-260h240v-64h-240v-289h343v-64h-421v741zM156 942h57l78 -90l81 90h56l-99 -137h-74z" />
    <glyph glyph-name="Ecircumflex" unicode="&#xca;" horiz-adv-x="542" 
d="M90 741h400v-64h-322v-260h240v-64h-240v-289h343v-64h-421v741zM255 942h74l99 -137h-56l-81 90l-78 -90h-57z" />
    <glyph glyph-name="uni1EBE" unicode="&#x1ebe;" horiz-adv-x="542" 
d="M90 741h400v-64h-322v-260h240v-64h-240v-289h343v-64h-421v741zM333 1041h84l-102 -105h-51zM255 904h74l99 -99h-57l-80 62l-76 -62h-59z" />
    <glyph glyph-name="uni1EC6" unicode="&#x1ec6;" horiz-adv-x="542" 
d="M90 741h400v-64h-322v-260h240v-64h-240v-289h343v-64h-421v741zM255 942h74l99 -137h-56l-81 90l-78 -90h-57zM267 -154q-14 14 -14 34t14 34t34 14t34.5 -14t14.5 -34t-14.5 -34t-34.5 -14t-34 14z" />
    <glyph glyph-name="uni1EC0" unicode="&#x1ec0;" horiz-adv-x="542" 
d="M90 741h400v-64h-322v-260h240v-64h-240v-289h343v-64h-421v741zM166 1041h84l69 -105h-52zM255 904h74l99 -99h-57l-80 62l-76 -62h-59z" />
    <glyph glyph-name="uni1EC2" unicode="&#x1ec2;" horiz-adv-x="542" 
d="M90 741h400v-64h-322v-260h240v-64h-240v-289h343v-64h-421v741zM419 937q13 14 13 26q0 11 -11.5 19.5t-32.5 8.5q-41 0 -77 -20l-11 43q44 22 94 22q47 0 72.5 -17.5t25.5 -46.5q0 -35 -56 -72h-62q32 23 45 37zM255 904h74l99 -99h-57l-80 62l-76 -62h-59z" />
    <glyph glyph-name="uni1EC4" unicode="&#x1ec4;" horiz-adv-x="542" 
d="M90 741h400v-64h-322v-260h240v-64h-240v-289h343v-64h-421v741zM236 1033q14 0 27.5 -5.5t36.5 -16.5q17 -9 28.5 -14t22.5 -5q26 0 53 46l34 -25q-42 -68 -91 -68q-15 0 -30 6t-35 17q-13 7 -26.5 12.5t-23.5 5.5q-25 0 -54 -46l-32 24q40 69 90 69zM255 904h74l98 -99
h-56l-79 62l-77 -62h-59z" />
    <glyph glyph-name="Edieresis" unicode="&#xcb;" horiz-adv-x="542" 
d="M90 741h400v-64h-322v-260h240v-64h-240v-289h343v-64h-421v741zM171.5 851.5q-13.5 13.5 -13.5 32.5q0 20 13.5 34t32.5 14q20 0 34 -14t14 -34q0 -19 -14 -32.5t-34 -13.5q-19 0 -32.5 13.5zM346 851.5q-14 13.5 -14 32.5q0 20 13.5 34t33.5 14t33.5 -14t13.5 -34
q0 -19 -13.5 -32.5t-33.5 -13.5q-19 0 -33 13.5z" />
    <glyph glyph-name="Edotaccent" unicode="&#x116;" horiz-adv-x="542" 
d="M90 741h400v-64h-322v-260h240v-64h-240v-289h343v-64h-421v741zM257 850q-14 14 -14 34t14 34.5t34 14.5t34.5 -14.5t14.5 -34.5t-14.5 -34t-34.5 -14t-34 14z" />
    <glyph glyph-name="uni1EB8" unicode="&#x1eb8;" horiz-adv-x="542" 
d="M90 741h400v-64h-322v-260h240v-64h-240v-289h343v-64h-421v741zM267 -154q-14 14 -14 34t14 34t34 14t34.5 -14t14.5 -34t-14.5 -34t-34.5 -14t-34 14z" />
    <glyph glyph-name="Egrave" unicode="&#xc8;" horiz-adv-x="542" 
d="M90 741h400v-64h-322v-260h240v-64h-240v-289h343v-64h-421v741zM168 942h83l67 -137h-51z" />
    <glyph glyph-name="uni1EBA" unicode="&#x1eba;" horiz-adv-x="542" 
d="M90 741h400v-64h-322v-260h240v-64h-240v-289h343v-64h-421v741zM310.5 845.5q13.5 15.5 13.5 28.5q0 14 -11.5 22.5t-32.5 8.5q-42 0 -78 -20l-10 43q42 22 94 22q47 0 72 -18t25 -49q0 -39 -61 -78h-59q34 25 47.5 40.5z" />
    <glyph glyph-name="Emacron" unicode="&#x112;" horiz-adv-x="542" 
d="M90 741h400v-64h-322v-260h240v-64h-240v-289h343v-64h-421v741zM132 910h319v-55h-319v55z" />
    <glyph glyph-name="Eogonek" unicode="&#x118;" horiz-adv-x="542" 
d="M433.5 -53.5q-26.5 -28.5 -26.5 -55.5q0 -19 11.5 -28.5t30.5 -9.5q30 0 58 17v-45q-28 -17 -64 -17q-37 0 -62.5 18.5t-25.5 57.5q0 32 21.5 62t61.5 54h-348v741h400v-64h-322v-260h240v-64h-240v-289h343v-64q-51 -25 -77.5 -53.5z" />
    <glyph glyph-name="uni1EBC" unicode="&#x1ebc;" horiz-adv-x="542" 
d="M90 741h400v-64h-322v-260h240v-64h-240v-289h343v-64h-421v741zM232 946q15 0 30.5 -6.5t36.5 -18.5q19 -11 31.5 -16.5t24.5 -5.5q19 0 34 13t25 34l33 -24q-16 -31 -39 -54.5t-52 -23.5q-15 0 -30.5 6.5t-39.5 20.5q-38 23 -57 23q-33 0 -63 -51l-31 29q44 74 97 74z
" />
    <glyph glyph-name="F" unicode="F" horiz-adv-x="485" 
d="M90 741h378v-64h-300v-260h228v-64h-228v-353h-78v741z" />
    <glyph glyph-name="G" unicode="G" horiz-adv-x="621" 
d="M179.5 33q-62.5 47 -96.5 133.5t-34 203.5q0 120 33.5 206.5t95.5 132.5t148 46q90 0 149 -52t82 -141l-66 -33q-17 72 -57 117.5t-109 45.5q-58 0 -102 -38t-68.5 -110.5t-24.5 -173.5q0 -97 24.5 -169.5t68.5 -112t102 -39.5q48 0 85.5 24t58.5 67.5t21 99.5v47h-148
v63h227v-350h-63l-5 89q-24 -50 -70.5 -76.5t-105.5 -26.5q-83 0 -145.5 47z" />
    <glyph glyph-name="Gbreve" unicode="&#x11e;" horiz-adv-x="621" 
d="M179.5 33q-62.5 47 -96.5 133.5t-34 203.5q0 120 33.5 206.5t95.5 132.5t148 46q90 0 149 -52t82 -141l-66 -33q-17 72 -57 117.5t-109 45.5q-58 0 -102 -38t-68.5 -110.5t-24.5 -173.5q0 -97 24.5 -169.5t68.5 -112t102 -39.5q48 0 85.5 24t58.5 67.5t21 99.5v47h-148
v63h227v-350h-63l-5 89q-24 -50 -70.5 -76.5t-105.5 -26.5q-83 0 -145.5 47zM226 837q-40 40 -51 105h53q9 -40 34 -66t65 -26t66 26t34 66h52q-10 -64 -50.5 -104.5t-101.5 -40.5t-101 40z" />
    <glyph glyph-name="Gcircumflex" unicode="&#x11c;" horiz-adv-x="621" 
d="M179.5 33q-62.5 47 -96.5 133.5t-34 203.5q0 120 33.5 206.5t95.5 132.5t148 46q90 0 149 -52t82 -141l-66 -33q-17 72 -57 117.5t-109 45.5q-58 0 -102 -38t-68.5 -110.5t-24.5 -173.5q0 -97 24.5 -169.5t68.5 -112t102 -39.5q48 0 85.5 24t58.5 67.5t21 99.5v47h-148
v63h227v-350h-63l-5 89q-24 -50 -70.5 -76.5t-105.5 -26.5q-83 0 -145.5 47zM291 942h74l99 -137h-56l-81 90l-78 -90h-57z" />
    <glyph glyph-name="uni0122" unicode="&#x122;" horiz-adv-x="621" 
d="M179.5 33q-62.5 47 -96.5 133.5t-34 203.5q0 120 33.5 206.5t95.5 132.5t148 46q90 0 149 -52t82 -141l-66 -33q-17 72 -57 117.5t-109 45.5q-58 0 -102 -38t-68.5 -110.5t-24.5 -173.5q0 -97 24.5 -169.5t68.5 -112t102 -39.5q48 0 85.5 24t58.5 67.5t21 99.5v47h-148
v63h227v-350h-63l-5 89q-24 -50 -70.5 -76.5t-105.5 -26.5q-83 0 -145.5 47zM285 -58h83l-98 -137h-52z" />
    <glyph glyph-name="Gdotaccent" unicode="&#x120;" horiz-adv-x="621" 
d="M179.5 33q-62.5 47 -96.5 133.5t-34 203.5q0 120 33.5 206.5t95.5 132.5t148 46q90 0 149 -52t82 -141l-66 -33q-17 72 -57 117.5t-109 45.5q-58 0 -102 -38t-68.5 -110.5t-24.5 -173.5q0 -97 24.5 -169.5t68.5 -112t102 -39.5q48 0 85.5 24t58.5 67.5t21 99.5v47h-148
v63h227v-350h-63l-5 89q-24 -50 -70.5 -76.5t-105.5 -26.5q-83 0 -145.5 47zM292 850q-14 14 -14 34t14 34.5t34 14.5t34.5 -14.5t14.5 -34.5t-14.5 -34t-34.5 -14t-34 14z" />
    <glyph glyph-name="H" unicode="H" horiz-adv-x="653" 
d="M90 741h78v-315h317v315h78v-741h-78v362h-317v-362h-78v741z" />
    <glyph glyph-name="Hbar" unicode="&#x126;" horiz-adv-x="652" 
d="M630 617v-57h-67v-560h-78v362h-317v-362h-78v560h-68v57h68v124h78v-124h317v124h78v-124h67zM485 426v134h-317v-134h317z" />
    <glyph glyph-name="Hcircumflex" unicode="&#x124;" horiz-adv-x="653" 
d="M90 741h78v-315h317v315h78v-741h-78v362h-317v-362h-78v741zM290 942h74l99 -137h-56l-81 90l-78 -90h-57z" />
    <glyph glyph-name="I" unicode="I" horiz-adv-x="258" 
d="M90 741h78v-741h-78v741z" />
    <glyph glyph-name="IJ" unicode="&#x132;" horiz-adv-x="704" 
d="M90 741h78v-741h-78v741zM312.5 29q-41.5 43 -35.5 120l72 31q-1 -8 -1 -23q0 -46 22 -74.5t62 -28.5q50 0 79 34.5t29 107.5v545h78v-538q0 -113 -52 -165t-136 -52q-76 0 -117.5 43z" />
    <glyph glyph-name="Iacute" unicode="&#xcd;" horiz-adv-x="258" 
d="M90 741h78v-741h-78v741zM170 942h83l-98 -137h-52z" />
    <glyph glyph-name="Ibreve" unicode="&#x12c;" horiz-adv-x="258" 
d="M90 741h78v-741h-78v741zM29 837q-40 40 -51 105h53q9 -40 34 -66t65 -26t66 26t34 66h52q-10 -64 -50.5 -104.5t-101.5 -40.5t-101 40z" />
    <glyph glyph-name="Icircumflex" unicode="&#xce;" horiz-adv-x="258" 
d="M90 741h78v-741h-78v741zM93 942h74l99 -137h-56l-81 90l-78 -90h-57z" />
    <glyph glyph-name="Idieresis" unicode="&#xcf;" horiz-adv-x="258" 
d="M90 741h78v-741h-78v741zM9.5 851.5q-13.5 13.5 -13.5 32.5q0 20 13.5 34t32.5 14q20 0 34 -14t14 -34q0 -19 -14 -32.5t-34 -13.5q-19 0 -32.5 13.5zM184 851.5q-14 13.5 -14 32.5q0 20 13.5 34t33.5 14t33.5 -14t13.5 -34q0 -19 -13.5 -32.5t-33.5 -13.5
q-19 0 -33 13.5z" />
    <glyph glyph-name="Idotaccent" unicode="&#x130;" horiz-adv-x="258" 
d="M90 741h78v-741h-78v741zM95 850q-14 14 -14 34t14 34.5t34 14.5t34.5 -14.5t14.5 -34.5t-14.5 -34t-34.5 -14t-34 14z" />
    <glyph glyph-name="uni1ECA" unicode="&#x1eca;" horiz-adv-x="258" 
d="M90 741h78v-741h-78v741zM95 -154q-14 14 -14 34t14 34t34 14t34.5 -14t14.5 -34t-14.5 -34t-34.5 -14t-34 14z" />
    <glyph glyph-name="Igrave" unicode="&#xcc;" horiz-adv-x="258" 
d="M90 741h78v-741h-78v741zM6 942h83l67 -137h-51z" />
    <glyph glyph-name="uni1EC8" unicode="&#x1ec8;" horiz-adv-x="258" 
d="M90 741h78v-741h-78v741zM148.5 845.5q13.5 15.5 13.5 28.5q0 14 -11.5 22.5t-32.5 8.5q-42 0 -78 -20l-10 43q42 22 94 22q47 0 72 -18t25 -49q0 -39 -61 -78h-59q34 25 47.5 40.5z" />
    <glyph glyph-name="Imacron" unicode="&#x12a;" horiz-adv-x="258" 
d="M90 741h78v-741h-78v741zM-30 910h319v-55h-319v55z" />
    <glyph glyph-name="Iogonek" unicode="&#x12e;" horiz-adv-x="258" 
d="M168 741v-741h-9q-51 -25 -77.5 -53.5t-26.5 -55.5q0 -19 11.5 -28.5t30.5 -9.5q30 0 58 17v-45q-28 -17 -64 -17q-37 0 -62.5 18.5t-25.5 57.5q0 33 22.5 63.5t64.5 54.5v739h78z" />
    <glyph glyph-name="Itilde" unicode="&#x128;" horiz-adv-x="258" 
d="M90 741h78v-741h-78v741zM70 946q15 0 30.5 -6.5t36.5 -18.5q19 -11 31.5 -16.5t24.5 -5.5q19 0 34 13t25 34l33 -24q-16 -31 -39 -54.5t-52 -23.5q-15 0 -30.5 6.5t-39.5 20.5q-38 23 -57 23q-33 0 -63 -51l-31 29q44 74 97 74z" />
    <glyph glyph-name="J" unicode="J" horiz-adv-x="446" 
d="M54.5 29q-41.5 43 -35.5 120l72 31q-1 -8 -1 -23q0 -46 22 -74.5t62 -28.5q50 0 79 34.5t29 107.5v545h78v-538q0 -113 -52 -165t-136 -52q-76 0 -117.5 43z" />
    <glyph glyph-name="Jcircumflex" unicode="&#x134;" horiz-adv-x="446" 
d="M54.5 29q-41.5 43 -35.5 120l72 31q-1 -8 -1 -23q0 -46 22 -74.5t62 -28.5q50 0 79 34.5t29 107.5v545h78v-538q0 -113 -52 -165t-136 -52q-76 0 -117.5 43zM284 942h74l99 -137h-56l-81 90l-78 -90h-57z" />
    <glyph glyph-name="K" unicode="K" horiz-adv-x="582" 
d="M579 0h-89l-202 400l-120 -156v-244h-78v741h78v-388l295 388h88l-209 -275z" />
    <glyph glyph-name="uni0136" unicode="&#x136;" horiz-adv-x="582" 
d="M579 0h-89l-202 400l-120 -156v-244h-78v741h78v-388l295 388h88l-209 -275zM287 -58h83l-98 -137h-52z" />
    <glyph glyph-name="L" unicode="L" horiz-adv-x="497" 
d="M90 741h78v-677h315v-64h-393v741z" />
    <glyph glyph-name="Lacute" unicode="&#x139;" horiz-adv-x="497" 
d="M90 741h78v-677h315v-64h-393v741zM168 942h83l-98 -137h-52z" />
    <glyph glyph-name="Lcaron" unicode="&#x13d;" horiz-adv-x="497" 
d="M90 741h78v-677h315v-64h-393v741zM267 779h74l-30 -180h-53z" />
    <glyph glyph-name="uni013B" unicode="&#x13b;" horiz-adv-x="497" 
d="M90 741h78v-677h315v-64h-393v741zM244 -58h83l-98 -137h-52z" />
    <glyph glyph-name="Ldot" unicode="&#x13f;" horiz-adv-x="503" 
d="M90 741h78v-677h315v-64h-393v741zM332.5 346.5q-16.5 16.5 -16.5 40.5q0 25 16.5 42t40.5 17q25 0 42 -17t17 -42q0 -24 -17 -40.5t-42 -16.5q-24 0 -40.5 16.5z" />
    <glyph glyph-name="Lslash" unicode="&#x141;" horiz-adv-x="497" 
d="M168 64h315v-64h-393v301l-71 -34l-22 45l93 45v384h78v-345l171 83l22 -46l-193 -94v-275z" />
    <glyph glyph-name="M" unicode="M" horiz-adv-x="773" 
d="M90 741h94l202 -369h2l204 369h91v-741h-77v619h-2l-218 -394l-217 394h-2v-619h-77v741z" />
    <glyph glyph-name="N" unicode="N" horiz-adv-x="684" 
d="M90 741h89l336 -596h2v596h77v-741h-79l-345 613h-2v-613h-78v741z" />
    <glyph glyph-name="Nacute" unicode="&#x143;" horiz-adv-x="684" 
d="M90 741h89l336 -596h2v596h77v-741h-79l-345 613h-2v-613h-78v741zM390 942h83l-98 -137h-52z" />
    <glyph glyph-name="Ncaron" unicode="&#x147;" horiz-adv-x="684" 
d="M90 741h89l336 -596h2v596h77v-741h-79l-345 613h-2v-613h-78v741zM214 942h57l78 -90l81 90h56l-99 -137h-74z" />
    <glyph glyph-name="uni0145" unicode="&#x145;" horiz-adv-x="684" 
d="M90 741h89l336 -596h2v596h77v-741h-79l-345 613h-2v-613h-78v741zM289 -58h83l-98 -137h-52z" />
    <glyph glyph-name="Eng" unicode="&#x14a;" horiz-adv-x="684" 
d="M345.5 -156q-29.5 12 -49.5 33l40 63q11 -19 30 -29t43 -10q91 0 105 99l-344 613h-2v-613h-78v741h89l336 -593h2v593h77v-691q0 -114 -50.5 -166t-133.5 -52q-35 0 -64.5 12z" />
    <glyph glyph-name="Ntilde" unicode="&#xd1;" horiz-adv-x="684" 
d="M90 741h89l336 -596h2v596h77v-741h-79l-345 613h-2v-613h-78v741zM290 946q15 0 30.5 -6.5t36.5 -18.5q19 -11 31.5 -16.5t24.5 -5.5q19 0 34 13t25 34l33 -24q-16 -31 -39 -54.5t-52 -23.5q-15 0 -30.5 6.5t-39.5 20.5q-38 23 -57 23q-33 0 -63 -51l-31 29q44 74 97 74
z" />
    <glyph glyph-name="O" unicode="O" horiz-adv-x="640" 
d="M176 32.5q-61 47.5 -94 134.5t-33 203q0 117 33 204t94 134t144 47t144.5 -47t94 -134t32.5 -204q0 -116 -33 -203t-94 -134.5t-144 -47.5t-144 47.5zM421 87q43 39 66 111.5t23 171.5q0 100 -23 172.5t-66 111.5t-101 39t-101 -39t-66 -112t-23 -172t23 -171.5
t66 -111.5t101 -39t101 39z" />
    <glyph glyph-name="Oacute" unicode="&#xd3;" horiz-adv-x="640" 
d="M176 32.5q-61 47.5 -94 134.5t-33 203q0 117 33 204t94 134t144 47t144.5 -47t94 -134t32.5 -204q0 -116 -33 -203t-94 -134.5t-144 -47.5t-144 47.5zM421 87q43 39 66 111.5t23 171.5q0 100 -23 172.5t-66 111.5t-101 39t-101 -39t-66 -112t-23 -172t23 -171.5
t66 -111.5t101 -39t101 39zM361 942h83l-98 -137h-52z" />
    <glyph glyph-name="Obreve" unicode="&#x14e;" horiz-adv-x="640" 
d="M176 32.5q-61 47.5 -94 134.5t-33 203q0 117 33 204t94 134t144 47t144.5 -47t94 -134t32.5 -204q0 -116 -33 -203t-94 -134.5t-144 -47.5t-144 47.5zM421 87q43 39 66 111.5t23 171.5q0 100 -23 172.5t-66 111.5t-101 39t-101 -39t-66 -112t-23 -172t23 -171.5
t66 -111.5t101 -39t101 39zM219 837q-40 40 -51 105h53q9 -40 34 -66t65 -26t66 26t34 66h52q-10 -64 -50.5 -104.5t-101.5 -40.5t-101 40z" />
    <glyph glyph-name="Ocircumflex" unicode="&#xd4;" horiz-adv-x="640" 
d="M176 32.5q-61 47.5 -94 134.5t-33 203q0 117 33 204t94 134t144 47t144.5 -47t94 -134t32.5 -204q0 -116 -33 -203t-94 -134.5t-144 -47.5t-144 47.5zM421 87q43 39 66 111.5t23 171.5q0 100 -23 172.5t-66 111.5t-101 39t-101 -39t-66 -112t-23 -172t23 -171.5
t66 -111.5t101 -39t101 39zM283 942h74l99 -137h-56l-81 90l-78 -90h-57z" />
    <glyph glyph-name="uni1ED0" unicode="&#x1ed0;" horiz-adv-x="640" 
d="M176 32.5q-61 47.5 -94 134.5t-33 203q0 117 33 204t94 134t144 47t144.5 -47t94 -134t32.5 -204q0 -116 -33 -203t-94 -134.5t-144 -47.5t-144 47.5zM421 87q43 39 66 111.5t23 171.5q0 100 -23 172.5t-66 111.5t-101 39t-101 -39t-66 -112t-23 -172t23 -171.5
t66 -111.5t101 -39t101 39zM361 1041h84l-102 -105h-51zM283 904h74l99 -99h-57l-80 62l-76 -62h-59z" />
    <glyph glyph-name="uni1ED8" unicode="&#x1ed8;" horiz-adv-x="640" 
d="M176 32.5q-61 47.5 -94 134.5t-33 203q0 117 33 204t94 134t144 47t144.5 -47t94 -134t32.5 -204q0 -116 -33 -203t-94 -134.5t-144 -47.5t-144 47.5zM421 87q43 39 66 111.5t23 171.5q0 100 -23 172.5t-66 111.5t-101 39t-101 -39t-66 -112t-23 -172t23 -171.5
t66 -111.5t101 -39t101 39zM283 942h74l99 -137h-56l-81 90l-78 -90h-57zM286 -154q-14 14 -14 34t14 34t34 14t34.5 -14t14.5 -34t-14.5 -34t-34.5 -14t-34 14z" />
    <glyph glyph-name="uni1ED2" unicode="&#x1ed2;" horiz-adv-x="640" 
d="M176 32.5q-61 47.5 -94 134.5t-33 203q0 117 33 204t94 134t144 47t144.5 -47t94 -134t32.5 -204q0 -116 -33 -203t-94 -134.5t-144 -47.5t-144 47.5zM421 87q43 39 66 111.5t23 171.5q0 100 -23 172.5t-66 111.5t-101 39t-101 -39t-66 -112t-23 -172t23 -171.5
t66 -111.5t101 -39t101 39zM194 1041h84l69 -105h-52zM283 904h74l99 -99h-57l-80 62l-76 -62h-59z" />
    <glyph glyph-name="uni1ED4" unicode="&#x1ed4;" horiz-adv-x="640" 
d="M176 32.5q-61 47.5 -94 134.5t-33 203q0 117 33 204t94 134t144 47t144.5 -47t94 -134t32.5 -204q0 -116 -33 -203t-94 -134.5t-144 -47.5t-144 47.5zM421 87q43 39 66 111.5t23 171.5q0 100 -23 172.5t-66 111.5t-101 39t-101 -39t-66 -112t-23 -172t23 -171.5
t66 -111.5t101 -39t101 39zM447 937q13 14 13 26q0 11 -11.5 19.5t-32.5 8.5q-41 0 -77 -20l-11 43q44 22 94 22q47 0 72.5 -17.5t25.5 -46.5q0 -35 -56 -72h-62q32 23 45 37zM283 904h74l99 -99h-57l-80 62l-76 -62h-59z" />
    <glyph glyph-name="uni1ED6" unicode="&#x1ed6;" horiz-adv-x="640" 
d="M176 32.5q-61 47.5 -94 134.5t-33 203q0 117 33 204t94 134t144 47t144.5 -47t94 -134t32.5 -204q0 -116 -33 -203t-94 -134.5t-144 -47.5t-144 47.5zM421 87q43 39 66 111.5t23 171.5q0 100 -23 172.5t-66 111.5t-101 39t-101 -39t-66 -112t-23 -172t23 -171.5
t66 -111.5t101 -39t101 39zM264 1033q14 0 27.5 -5.5t36.5 -16.5q17 -9 28.5 -14t22.5 -5q26 0 53 46l34 -25q-42 -68 -91 -68q-15 0 -30 6t-35 17q-13 7 -26.5 12.5t-23.5 5.5q-25 0 -54 -46l-32 24q40 69 90 69zM283 904h74l98 -99h-56l-79 62l-77 -62h-59z" />
    <glyph glyph-name="Odieresis" unicode="&#xd6;" horiz-adv-x="640" 
d="M176 32.5q-61 47.5 -94 134.5t-33 203q0 117 33 204t94 134t144 47t144.5 -47t94 -134t32.5 -204q0 -116 -33 -203t-94 -134.5t-144 -47.5t-144 47.5zM421 87q43 39 66 111.5t23 171.5q0 100 -23 172.5t-66 111.5t-101 39t-101 -39t-66 -112t-23 -172t23 -171.5
t66 -111.5t101 -39t101 39zM199.5 851.5q-13.5 13.5 -13.5 32.5q0 20 13.5 34t32.5 14q20 0 34 -14t14 -34q0 -19 -14 -32.5t-34 -13.5q-19 0 -32.5 13.5zM374 851.5q-14 13.5 -14 32.5q0 20 13.5 34t33.5 14t33.5 -14t13.5 -34q0 -19 -13.5 -32.5t-33.5 -13.5
q-19 0 -33 13.5z" />
    <glyph glyph-name="uni1ECC" unicode="&#x1ecc;" horiz-adv-x="640" 
d="M176 32.5q-61 47.5 -94 134.5t-33 203q0 117 33 204t94 134t144 47t144.5 -47t94 -134t32.5 -204q0 -116 -33 -203t-94 -134.5t-144 -47.5t-144 47.5zM421 87q43 39 66 111.5t23 171.5q0 100 -23 172.5t-66 111.5t-101 39t-101 -39t-66 -112t-23 -172t23 -171.5
t66 -111.5t101 -39t101 39zM286 -154q-14 14 -14 34t14 34t34 14t34.5 -14t14.5 -34t-14.5 -34t-34.5 -14t-34 14z" />
    <glyph glyph-name="Ograve" unicode="&#xd2;" horiz-adv-x="640" 
d="M176 32.5q-61 47.5 -94 134.5t-33 203q0 117 33 204t94 134t144 47t144.5 -47t94 -134t32.5 -204q0 -116 -33 -203t-94 -134.5t-144 -47.5t-144 47.5zM421 87q43 39 66 111.5t23 171.5q0 100 -23 172.5t-66 111.5t-101 39t-101 -39t-66 -112t-23 -172t23 -171.5
t66 -111.5t101 -39t101 39zM196 942h83l67 -137h-51z" />
    <glyph glyph-name="uni1ECE" unicode="&#x1ece;" horiz-adv-x="640" 
d="M176 32.5q-61 47.5 -94 134.5t-33 203q0 117 33 204t94 134t144 47t144.5 -47t94 -134t32.5 -204q0 -116 -33 -203t-94 -134.5t-144 -47.5t-144 47.5zM421 87q43 39 66 111.5t23 171.5q0 100 -23 172.5t-66 111.5t-101 39t-101 -39t-66 -112t-23 -172t23 -171.5
t66 -111.5t101 -39t101 39zM338.5 845.5q13.5 15.5 13.5 28.5q0 14 -11.5 22.5t-32.5 8.5q-42 0 -78 -20l-10 43q42 22 94 22q47 0 72 -18t25 -49q0 -39 -61 -78h-59q34 25 47.5 40.5z" />
    <glyph glyph-name="Ohorn" unicode="&#x1a0;" horiz-adv-x="640" 
d="M564 557.5q27 -81.5 27 -187.5q0 -116 -33 -203t-94 -134.5t-144 -47.5t-144 47.5t-94 134.5t-33 203q0 117 33 204t94 134t144 47h1v0h1h1h1q35 -1 71 -8q42 -6 59 -6q27 0 39.5 15t12.5 45q0 36 -11 76h68q11 -38 11 -80q0 -46 -23.5 -74.5t-64.5 -33.5
q51 -50 78 -131.5zM421 87q43 39 66 111.5t23 171.5q0 100 -23 172.5t-66 111.5t-101 39t-101 -39t-66 -112t-23 -172t23 -171.5t66 -111.5t101 -39t101 39z" />
    <glyph glyph-name="uni1EDA" unicode="&#x1eda;" horiz-adv-x="640" 
d="M564 557.5q27 -81.5 27 -187.5q0 -116 -33 -203t-94 -134.5t-144 -47.5t-144 47.5t-94 134.5t-33 203q0 117 33 204t94 134t144 47h1v0h1h1h1q35 -1 71 -8q42 -6 59 -6q27 0 39.5 15t12.5 45q0 36 -11 76h68q11 -38 11 -80q0 -46 -23.5 -74.5t-64.5 -33.5
q51 -50 78 -131.5zM421 87q43 39 66 111.5t23 171.5q0 100 -23 172.5t-66 111.5t-101 39t-101 -39t-66 -112t-23 -172t23 -171.5t66 -111.5t101 -39t101 39zM361 955h83l-98 -137h-52z" />
    <glyph glyph-name="uni1EE2" unicode="&#x1ee2;" horiz-adv-x="640" 
d="M564 557.5q27 -81.5 27 -187.5q0 -116 -33 -203t-94 -134.5t-144 -47.5t-144 47.5t-94 134.5t-33 203q0 117 33 204t94 134t144 47h1v0h1h1h1q35 -1 71 -8q42 -6 59 -6q27 0 39.5 15t12.5 45q0 36 -11 76h68q11 -38 11 -80q0 -46 -23.5 -74.5t-64.5 -33.5
q51 -50 78 -131.5zM421 87q43 39 66 111.5t23 171.5q0 100 -23 172.5t-66 111.5t-101 39t-101 -39t-66 -112t-23 -172t23 -171.5t66 -111.5t101 -39t101 39zM286 -154q-14 14 -14 34t14 34t34 14t34.5 -14t14.5 -34t-14.5 -34t-34.5 -14t-34 14z" />
    <glyph glyph-name="uni1EDC" unicode="&#x1edc;" horiz-adv-x="640" 
d="M564 557.5q27 -81.5 27 -187.5q0 -116 -33 -203t-94 -134.5t-144 -47.5t-144 47.5t-94 134.5t-33 203q0 117 33 204t94 134t144 47h1v0h1h1h1q35 -1 71 -8q42 -6 59 -6q27 0 39.5 15t12.5 45q0 36 -11 76h68q11 -38 11 -80q0 -46 -23.5 -74.5t-64.5 -33.5
q51 -50 78 -131.5zM421 87q43 39 66 111.5t23 171.5q0 100 -23 172.5t-66 111.5t-101 39t-101 -39t-66 -112t-23 -172t23 -171.5t66 -111.5t101 -39t101 39zM196 955h83l67 -137h-51z" />
    <glyph glyph-name="uni1EDE" unicode="&#x1ede;" horiz-adv-x="640" 
d="M564 557.5q27 -81.5 27 -187.5q0 -116 -33 -203t-94 -134.5t-144 -47.5t-144 47.5t-94 134.5t-33 203q0 117 33 204t94 134t144 47h1v0h1h1h1q35 -1 71 -8q42 -6 59 -6q27 0 39.5 15t12.5 45q0 36 -11 76h68q11 -38 11 -80q0 -46 -23.5 -74.5t-64.5 -33.5
q51 -50 78 -131.5zM421 87q43 39 66 111.5t23 171.5q0 100 -23 172.5t-66 111.5t-101 39t-101 -39t-66 -112t-23 -172t23 -171.5t66 -111.5t101 -39t101 39zM339.5 858.5q13.5 15.5 13.5 28.5q0 14 -11.5 22.5t-32.5 8.5q-42 0 -78 -20l-10 43q42 22 94 22q47 0 72 -18
t25 -49q0 -39 -61 -78h-59q34 25 47.5 40.5z" />
    <glyph glyph-name="uni1EE0" unicode="&#x1ee0;" horiz-adv-x="640" 
d="M564 557.5q27 -81.5 27 -187.5q0 -116 -33 -203t-94 -134.5t-144 -47.5t-144 47.5t-94 134.5t-33 203q0 117 33 204t94 134t144 47h1v0h1h1h1q35 -1 71 -8q42 -6 59 -6q27 0 39.5 15t12.5 45q0 36 -11 76h68q11 -38 11 -80q0 -46 -23.5 -74.5t-64.5 -33.5
q51 -50 78 -131.5zM421 87q43 39 66 111.5t23 171.5q0 100 -23 172.5t-66 111.5t-101 39t-101 -39t-66 -112t-23 -172t23 -171.5t66 -111.5t101 -39t101 39zM261 959q15 0 30.5 -6.5t36.5 -18.5q19 -11 31.5 -16.5t24.5 -5.5q19 0 34 13t25 34l33 -24q-16 -31 -39 -54.5
t-52 -23.5q-15 0 -30.5 6.5t-39.5 20.5q-38 23 -57 23q-33 0 -63 -51l-31 29q44 74 97 74z" />
    <glyph glyph-name="Ohungarumlaut" unicode="&#x150;" horiz-adv-x="640" 
d="M176 32.5q-61 47.5 -94 134.5t-33 203q0 117 33 204t94 134t144 47t144.5 -47t94 -134t32.5 -204q0 -116 -33 -203t-94 -134.5t-144 -47.5t-144 47.5zM421 87q43 39 66 111.5t23 171.5q0 100 -23 172.5t-66 111.5t-101 39t-101 -39t-66 -112t-23 -172t23 -171.5
t66 -111.5t101 -39t101 39zM286 942h75l-98 -137h-45zM447 942h74l-98 -137h-45z" />
    <glyph glyph-name="Omacron" unicode="&#x14c;" horiz-adv-x="640" 
d="M176 32.5q-61 47.5 -94 134.5t-33 203q0 117 33 204t94 134t144 47t144.5 -47t94 -134t32.5 -204q0 -116 -33 -203t-94 -134.5t-144 -47.5t-144 47.5zM421 87q43 39 66 111.5t23 171.5q0 100 -23 172.5t-66 111.5t-101 39t-101 -39t-66 -112t-23 -172t23 -171.5
t66 -111.5t101 -39t101 39zM160 910h319v-55h-319v55z" />
    <glyph glyph-name="Oslash" unicode="&#xd8;" horiz-adv-x="640" 
d="M528 636q63 -101 63 -266q0 -116 -33 -203t-94 -134.5t-144 -47.5q-105 0 -174 74l-60 -91l-44 30l70 106q-63 101 -63 266q0 117 33 204t94 134t144 47q105 0 174 -74l60 91l44 -30zM155 169l299 452q-54 72 -134 72q-58 0 -101 -39t-66 -112t-23 -172q0 -49 5 -90
t18 -110zM421 86q43 39 66 112t23 172q0 49 -5 90t-18 110l-2 1l-299 -452q54 -72 134 -72q58 0 101 39z" />
    <glyph glyph-name="Otilde" unicode="&#xd5;" horiz-adv-x="640" 
d="M176 32.5q-61 47.5 -94 134.5t-33 203q0 117 33 204t94 134t144 47t144.5 -47t94 -134t32.5 -204q0 -116 -33 -203t-94 -134.5t-144 -47.5t-144 47.5zM421 87q43 39 66 111.5t23 171.5q0 100 -23 172.5t-66 111.5t-101 39t-101 -39t-66 -112t-23 -172t23 -171.5
t66 -111.5t101 -39t101 39zM260 946q15 0 30.5 -6.5t36.5 -18.5q19 -11 31.5 -16.5t24.5 -5.5q19 0 34 13t25 34l33 -24q-16 -31 -39 -54.5t-52 -23.5q-15 0 -30.5 6.5t-39.5 20.5q-38 23 -57 23q-33 0 -63 -51l-31 29q44 74 97 74z" />
    <glyph glyph-name="OE" unicode="&#x152;" horiz-adv-x="898" 
d="M867 0h-407q-55 -15 -113 -15q-90 0 -157.5 45t-104 131.5t-36.5 208.5t36.5 208.5t104 131.5t157.5 45q54 0 107 -14h392v-64h-314v-260h232v-64h-232v-289h335v-64zM189 131q59 -83 161 -83q24 0 52.5 4.5t50.5 12.5v609q-24 9 -52 14t-52 5q-101 0 -160 -83.5
t-59 -239.5t59 -239z" />
    <glyph glyph-name="P" unicode="P" horiz-adv-x="572" 
d="M301 741q110 0 174.5 -52t64.5 -153q0 -99 -68 -153.5t-192 -54.5h-112v-328h-78v741h211zM414.5 427q46.5 34 46.5 108q0 73 -45 107.5t-133 34.5h-115v-284h109q91 0 137.5 34z" />
    <glyph glyph-name="Thorn" unicode="&#xde;" horiz-adv-x="572" 
d="M168 741v-136h129q83 0 137.5 -29.5t80 -76.5t25.5 -99q0 -85 -60.5 -146t-200.5 -61h-111v-193h-78v741h78zM403 287q58 30 58 112q0 84 -58.5 113t-148.5 29h-86v-284h88q89 0 147 30z" />
    <glyph glyph-name="Q" unicode="Q" horiz-adv-x="640" 
d="M398 -89.5q28 -24.5 79 -24.5q15 0 51 6l-20 -64q-36 -4 -52 -4q-68 0 -113 39.5t-54 123.5q-74 9 -128 58.5t-83 132.5t-29 192q0 117 33 204t94 134t144 47t144.5 -47t94 -134t32.5 -204q0 -161 -61 -263t-169 -119q9 -53 37 -77.5zM153 198.5q23 -72.5 66 -111.5
t101 -39t101 39t66 111.5t23 171.5q0 100 -23 172.5t-66 111.5t-101 39t-101 -39t-66 -112t-23 -172t23 -171.5z" />
    <glyph glyph-name="R" unicode="R" horiz-adv-x="579" 
d="M459 0l-142 341q-9 -1 -30 -1h-119v-340h-78v741h201q121 0 184.5 -55t63.5 -149q0 -64 -37.5 -112.5t-106.5 -69.5l151 -355h-87zM288 404q88 0 129.5 36t41.5 98q0 66 -42.5 102.5t-126.5 36.5h-122v-273h120z" />
    <glyph glyph-name="Racute" unicode="&#x154;" horiz-adv-x="579" 
d="M459 0l-142 341q-9 -1 -30 -1h-119v-340h-78v741h201q121 0 184.5 -55t63.5 -149q0 -64 -37.5 -112.5t-106.5 -69.5l151 -355h-87zM288 404q88 0 129.5 36t41.5 98q0 66 -42.5 102.5t-126.5 36.5h-122v-273h120zM333 942h83l-98 -137h-52z" />
    <glyph glyph-name="Rcaron" unicode="&#x158;" horiz-adv-x="579" 
d="M459 0l-142 341q-9 -1 -30 -1h-119v-340h-78v741h201q121 0 184.5 -55t63.5 -149q0 -64 -37.5 -112.5t-106.5 -69.5l151 -355h-87zM288 404q88 0 129.5 36t41.5 98q0 66 -42.5 102.5t-126.5 36.5h-122v-273h120zM157 942h57l78 -90l81 90h56l-99 -137h-74z" />
    <glyph glyph-name="uni0156" unicode="&#x156;" horiz-adv-x="579" 
d="M459 0l-142 341q-9 -1 -30 -1h-119v-340h-78v741h201q121 0 184.5 -55t63.5 -149q0 -64 -37.5 -112.5t-106.5 -69.5l151 -355h-87zM288 404q88 0 129.5 36t41.5 98q0 66 -42.5 102.5t-126.5 36.5h-122v-273h120zM272 -58h83l-98 -137h-52z" />
    <glyph glyph-name="S" unicode="S" horiz-adv-x="562" 
d="M131 35q-65 49 -86 141l74 41q10 -74 58 -120.5t115 -46.5q63 0 104.5 37t41.5 102q0 40 -22 68t-54.5 46t-87.5 41q-65 28 -105 51t-68 62.5t-28 99.5q0 59 28.5 104t78 69.5t109.5 24.5q83 0 141 -45t71 -124l-66 -40q-12 65 -50.5 105.5t-97.5 40.5q-58 0 -96.5 -36
t-38.5 -92q0 -40 21.5 -68t54 -45.5t87.5 -40.5q66 -28 106 -51t68 -64t28 -102q0 -60 -27.5 -107t-79 -73.5t-120.5 -26.5q-94 0 -159 49z" />
    <glyph glyph-name="Sacute" unicode="&#x15a;" horiz-adv-x="562" 
d="M131 35q-65 49 -86 141l74 41q10 -74 58 -120.5t115 -46.5q63 0 104.5 37t41.5 102q0 40 -22 68t-54.5 46t-87.5 41q-65 28 -105 51t-68 62.5t-28 99.5q0 59 28.5 104t78 69.5t109.5 24.5q83 0 141 -45t71 -124l-66 -40q-12 65 -50.5 105.5t-97.5 40.5q-58 0 -96.5 -36
t-38.5 -92q0 -40 21.5 -68t54 -45.5t87.5 -40.5q66 -28 106 -51t68 -64t28 -102q0 -60 -27.5 -107t-79 -73.5t-120.5 -26.5q-94 0 -159 49zM329 942h83l-98 -137h-52z" />
    <glyph glyph-name="Scaron" unicode="&#x160;" horiz-adv-x="562" 
d="M131 35q-65 49 -86 141l74 41q10 -74 58 -120.5t115 -46.5q63 0 104.5 37t41.5 102q0 40 -22 68t-54.5 46t-87.5 41q-65 28 -105 51t-68 62.5t-28 99.5q0 59 28.5 104t78 69.5t109.5 24.5q83 0 141 -45t71 -124l-66 -40q-12 65 -50.5 105.5t-97.5 40.5q-58 0 -96.5 -36
t-38.5 -92q0 -40 21.5 -68t54 -45.5t87.5 -40.5q66 -28 106 -51t68 -64t28 -102q0 -60 -27.5 -107t-79 -73.5t-120.5 -26.5q-94 0 -159 49zM153 942h57l78 -90l81 90h56l-99 -137h-74z" />
    <glyph glyph-name="Scedilla" unicode="&#x15e;" horiz-adv-x="562" 
d="M462 51q-55 -57 -149 -64l-22 -35q42 -8 66.5 -24.5t24.5 -50.5q0 -38 -30 -58.5t-74 -20.5q-23 0 -49 5t-39 14l12 43q11 -8 33 -14t41 -6q23 0 36 8.5t13 25.5q0 23 -26 33t-80 14l44 66q-83 7 -140.5 55.5t-77.5 133.5l74 41q10 -74 58 -120.5t115 -46.5
q63 0 104.5 37t41.5 102q0 40 -22 68t-54.5 46t-87.5 41q-65 28 -105 51t-68 62.5t-28 99.5q0 59 28.5 104t78 69.5t109.5 24.5q83 0 141 -45t71 -124l-66 -40q-12 65 -50.5 105.5t-97.5 40.5q-58 0 -96.5 -36t-38.5 -92q0 -40 21.5 -68t54 -45.5t87.5 -40.5q66 -28 106 -51
t68 -64t28 -102q0 -85 -55 -142z" />
    <glyph glyph-name="Scircumflex" unicode="&#x15c;" horiz-adv-x="562" 
d="M131 35q-65 49 -86 141l74 41q10 -74 58 -120.5t115 -46.5q63 0 104.5 37t41.5 102q0 40 -22 68t-54.5 46t-87.5 41q-65 28 -105 51t-68 62.5t-28 99.5q0 59 28.5 104t78 69.5t109.5 24.5q83 0 141 -45t71 -124l-66 -40q-12 65 -50.5 105.5t-97.5 40.5q-58 0 -96.5 -36
t-38.5 -92q0 -40 21.5 -68t54 -45.5t87.5 -40.5q66 -28 106 -51t68 -64t28 -102q0 -60 -27.5 -107t-79 -73.5t-120.5 -26.5q-94 0 -159 49zM252 942h74l99 -137h-56l-81 90l-78 -90h-57z" />
    <glyph glyph-name="uni0218" unicode="&#x218;" horiz-adv-x="562" 
d="M131 35q-65 49 -86 141l74 41q10 -74 58 -120.5t115 -46.5q63 0 104.5 37t41.5 102q0 40 -22 68t-54.5 46t-87.5 41q-65 28 -105 51t-68 62.5t-28 99.5q0 59 28.5 104t78 69.5t109.5 24.5q83 0 141 -45t71 -124l-66 -40q-12 65 -50.5 105.5t-97.5 40.5q-58 0 -96.5 -36
t-38.5 -92q0 -40 21.5 -68t54 -45.5t87.5 -40.5q66 -28 106 -51t68 -64t28 -102q0 -60 -27.5 -107t-79 -73.5t-120.5 -26.5q-94 0 -159 49zM254 -58h83l-98 -137h-52z" />
    <glyph glyph-name="T" unicode="T" horiz-adv-x="492" 
d="M207 677h-197v64h472v-64h-197v-677h-78v677z" />
    <glyph glyph-name="Tbar" unicode="&#x166;" horiz-adv-x="491" 
d="M482 677h-197v-258h120v-57h-120v-362h-78v362h-122v57h122v258h-197v64h472v-64z" />
    <glyph glyph-name="Tcaron" unicode="&#x164;" horiz-adv-x="492" 
d="M207 677h-197v64h472v-64h-197v-677h-78v677zM110 942h57l78 -90l81 90h56l-99 -137h-74z" />
    <glyph glyph-name="uni0162" unicode="&#x162;" horiz-adv-x="492" 
d="M207 677h-197v64h472v-64h-197v-677h-78v677zM206 -58h83l-98 -137h-52z" />
    <glyph glyph-name="uni021A" unicode="&#x21a;" horiz-adv-x="492" 
d="M207 677h-197v64h472v-64h-197v-677h-78v677zM206 -58h83l-98 -137h-52z" />
    <glyph glyph-name="U" unicode="U" horiz-adv-x="638" 
d="M152.5 45q-66.5 59 -66.5 186v510h79v-471q0 -103 31.5 -159t121.5 -56t123 56.5t33 158.5v471h78v-510q0 -127 -67 -186t-167 -59q-99 0 -165.5 59z" />
    <glyph glyph-name="Uacute" unicode="&#xda;" horiz-adv-x="638" 
d="M152.5 45q-66.5 59 -66.5 186v510h79v-471q0 -103 31.5 -159t121.5 -56t123 56.5t33 158.5v471h78v-510q0 -127 -67 -186t-167 -59q-99 0 -165.5 59zM360 942h83l-98 -137h-52z" />
    <glyph glyph-name="Ubreve" unicode="&#x16c;" horiz-adv-x="638" 
d="M152.5 45q-66.5 59 -66.5 186v510h79v-471q0 -103 31.5 -159t121.5 -56t123 56.5t33 158.5v471h78v-510q0 -127 -67 -186t-167 -59q-99 0 -165.5 59zM218 837q-40 40 -51 105h53q9 -40 34 -66t65 -26t66 26t34 66h52q-10 -64 -50.5 -104.5t-101.5 -40.5t-101 40z" />
    <glyph glyph-name="Ucircumflex" unicode="&#xdb;" horiz-adv-x="638" 
d="M152.5 45q-66.5 59 -66.5 186v510h79v-471q0 -103 31.5 -159t121.5 -56t123 56.5t33 158.5v471h78v-510q0 -127 -67 -186t-167 -59q-99 0 -165.5 59zM282 942h74l99 -137h-56l-81 90l-78 -90h-57z" />
    <glyph glyph-name="Udieresis" unicode="&#xdc;" horiz-adv-x="638" 
d="M152.5 45q-66.5 59 -66.5 186v510h79v-471q0 -103 31.5 -159t121.5 -56t123 56.5t33 158.5v471h78v-510q0 -127 -67 -186t-167 -59q-99 0 -165.5 59zM198.5 851.5q-13.5 13.5 -13.5 32.5q0 20 13.5 34t32.5 14q20 0 34 -14t14 -34q0 -19 -14 -32.5t-34 -13.5
q-19 0 -32.5 13.5zM373 851.5q-14 13.5 -14 32.5q0 20 13.5 34t33.5 14t33.5 -14t13.5 -34q0 -19 -13.5 -32.5t-33.5 -13.5q-19 0 -33 13.5z" />
    <glyph glyph-name="uni1EE4" unicode="&#x1ee4;" horiz-adv-x="638" 
d="M152.5 45q-66.5 59 -66.5 186v510h79v-471q0 -103 31.5 -159t121.5 -56t123 56.5t33 158.5v471h78v-510q0 -127 -67 -186t-167 -59q-99 0 -165.5 59zM284 -154q-14 14 -14 34t14 34t34 14t34.5 -14t14.5 -34t-14.5 -34t-34.5 -14t-34 14z" />
    <glyph glyph-name="Ugrave" unicode="&#xd9;" horiz-adv-x="638" 
d="M152.5 45q-66.5 59 -66.5 186v510h79v-471q0 -103 31.5 -159t121.5 -56t123 56.5t33 158.5v471h78v-510q0 -127 -67 -186t-167 -59q-99 0 -165.5 59zM195 942h83l67 -137h-51z" />
    <glyph glyph-name="uni1EE6" unicode="&#x1ee6;" horiz-adv-x="638" 
d="M152.5 45q-66.5 59 -66.5 186v510h79v-471q0 -103 31.5 -159t121.5 -56t123 56.5t33 158.5v471h78v-510q0 -127 -67 -186t-167 -59q-99 0 -165.5 59zM337.5 845.5q13.5 15.5 13.5 28.5q0 14 -11.5 22.5t-32.5 8.5q-42 0 -78 -20l-10 43q42 22 94 22q47 0 72 -18t25 -49
q0 -39 -61 -78h-59q34 25 47.5 40.5z" />
    <glyph glyph-name="Uhorn" unicode="&#x1af;" horiz-adv-x="638" 
d="M640 797q0 -47 -24 -75t-64 -33v-458q0 -127 -67 -186t-167 -59q-99 0 -165.5 59t-66.5 186v510h79v-471q0 -103 31.5 -159t121.5 -56t123 56.5t33 158.5v471h46q28 0 40.5 15t12.5 45q0 37 -12 76h68q11 -38 11 -80z" />
    <glyph glyph-name="uni1EE8" unicode="&#x1ee8;" horiz-adv-x="638" 
d="M640 797q0 -47 -24 -75t-64 -33v-458q0 -127 -67 -186t-167 -59q-99 0 -165.5 59t-66.5 186v510h79v-471q0 -103 31.5 -159t121.5 -56t123 56.5t33 158.5v471h46q28 0 40.5 15t12.5 45q0 37 -12 76h68q11 -38 11 -80zM360 942h83l-98 -137h-52z" />
    <glyph glyph-name="uni1EF0" unicode="&#x1ef0;" horiz-adv-x="638" 
d="M640 797q0 -47 -24 -75t-64 -33v-458q0 -127 -67 -186t-167 -59q-99 0 -165.5 59t-66.5 186v510h79v-471q0 -103 31.5 -159t121.5 -56t123 56.5t33 158.5v471h46q28 0 40.5 15t12.5 45q0 37 -12 76h68q11 -38 11 -80zM284 -154q-14 14 -14 34t14 34t34 14t34.5 -14
t14.5 -34t-14.5 -34t-34.5 -14t-34 14z" />
    <glyph glyph-name="uni1EEA" unicode="&#x1eea;" horiz-adv-x="638" 
d="M640 797q0 -47 -24 -75t-64 -33v-458q0 -127 -67 -186t-167 -59q-99 0 -165.5 59t-66.5 186v510h79v-471q0 -103 31.5 -159t121.5 -56t123 56.5t33 158.5v471h46q28 0 40.5 15t12.5 45q0 37 -12 76h68q11 -38 11 -80zM195 942h83l67 -137h-51z" />
    <glyph glyph-name="uni1EEC" unicode="&#x1eec;" horiz-adv-x="638" 
d="M640 797q0 -47 -24 -75t-64 -33v-458q0 -127 -67 -186t-167 -59q-99 0 -165.5 59t-66.5 186v510h79v-471q0 -103 31.5 -159t121.5 -56t123 56.5t33 158.5v471h46q28 0 40.5 15t12.5 45q0 37 -12 76h68q11 -38 11 -80zM337.5 845.5q13.5 15.5 13.5 28.5q0 14 -11.5 22.5
t-32.5 8.5q-42 0 -78 -20l-10 43q42 22 94 22q47 0 72 -18t25 -49q0 -39 -61 -78h-59q34 25 47.5 40.5z" />
    <glyph glyph-name="uni1EEE" unicode="&#x1eee;" horiz-adv-x="638" 
d="M640 797q0 -47 -24 -75t-64 -33v-458q0 -127 -67 -186t-167 -59q-99 0 -165.5 59t-66.5 186v510h79v-471q0 -103 31.5 -159t121.5 -56t123 56.5t33 158.5v471h46q28 0 40.5 15t12.5 45q0 37 -12 76h68q11 -38 11 -80zM260 946q15 0 30.5 -6.5t36.5 -18.5
q19 -11 31.5 -16.5t24.5 -5.5q19 0 34 13t25 34l33 -24q-16 -31 -39 -54.5t-52 -23.5q-15 0 -30.5 6.5t-39.5 20.5q-38 23 -57 23q-33 0 -63 -51l-31 29q44 74 97 74z" />
    <glyph glyph-name="Uhungarumlaut" unicode="&#x170;" horiz-adv-x="638" 
d="M152.5 45q-66.5 59 -66.5 186v510h79v-471q0 -103 31.5 -159t121.5 -56t123 56.5t33 158.5v471h78v-510q0 -127 -67 -186t-167 -59q-99 0 -165.5 59zM285 942h75l-98 -137h-45zM446 942h74l-98 -137h-45z" />
    <glyph glyph-name="Umacron" unicode="&#x16a;" horiz-adv-x="638" 
d="M152.5 45q-66.5 59 -66.5 186v510h79v-471q0 -103 31.5 -159t121.5 -56t123 56.5t33 158.5v471h78v-510q0 -127 -67 -186t-167 -59q-99 0 -165.5 59zM159 910h319v-55h-319v55z" />
    <glyph glyph-name="Uogonek" unicode="&#x172;" horiz-adv-x="638" 
d="M334 -173q-25 19 -25 57q0 22 17.5 51t51.5 57q-28 -6 -60 -6q-99 0 -165.5 59t-66.5 186v510h79v-471q0 -103 31.5 -159t121.5 -56t123 56.5t33 158.5v471h78v-510q0 -119 -67 -186l-29 -29q-58 -58 -76.5 -81t-18.5 -44q0 -19 11.5 -28.5t31.5 -9.5q29 0 57 17v-45
q-28 -17 -65 -17t-62 19z" />
    <glyph glyph-name="Uring" unicode="&#x16e;" horiz-adv-x="638" 
d="M152.5 45q-66.5 59 -66.5 186v510h79v-471q0 -103 31.5 -159t121.5 -56t123 56.5t33 158.5v471h78v-510q0 -127 -67 -186t-167 -59q-99 0 -165.5 59zM260 810q-25 25 -25 60t25 60t59 25q35 0 60 -25t25 -60t-25 -60t-60 -25q-34 0 -59 25zM351.5 838.5
q13.5 13.5 13.5 31.5t-13.5 32t-32.5 14q-18 0 -31.5 -14t-13.5 -32t13.5 -31.5t31.5 -13.5q19 0 32.5 13.5z" />
    <glyph glyph-name="Utilde" unicode="&#x168;" horiz-adv-x="638" 
d="M152.5 45q-66.5 59 -66.5 186v510h79v-471q0 -103 31.5 -159t121.5 -56t123 56.5t33 158.5v471h78v-510q0 -127 -67 -186t-167 -59q-99 0 -165.5 59zM260 946q15 0 30.5 -6.5t36.5 -18.5q19 -11 31.5 -16.5t24.5 -5.5q19 0 34 13t25 34l33 -24q-16 -31 -39 -54.5
t-52 -23.5q-15 0 -30.5 6.5t-39.5 20.5q-38 23 -57 23q-33 0 -63 -51l-31 29q44 74 97 74z" />
    <glyph glyph-name="V" unicode="V" horiz-adv-x="525" 
d="M1 741h81l177 -626h2l185 626h78l-228 -741h-73z" />
    <glyph glyph-name="W" unicode="W" horiz-adv-x="787" 
d="M16 741h75l122 -621h2l136 621h82l128 -619h2l134 619h74l-169 -741h-83l-128 619h-2l-135 -619h-82z" />
    <glyph glyph-name="Wacute" unicode="&#x1e82;" horiz-adv-x="787" 
d="M16 741h75l122 -621h2l136 621h82l128 -619h2l134 619h74l-169 -741h-83l-128 619h-2l-135 -619h-82zM431 942h83l-98 -137h-52z" />
    <glyph glyph-name="Wcircumflex" unicode="&#x174;" horiz-adv-x="787" 
d="M16 741h75l122 -621h2l136 621h82l128 -619h2l134 619h74l-169 -741h-83l-128 619h-2l-135 -619h-82zM354 942h74l99 -137h-56l-81 90l-78 -90h-57z" />
    <glyph glyph-name="Wdieresis" unicode="&#x1e84;" horiz-adv-x="787" 
d="M16 741h75l122 -621h2l136 621h82l128 -619h2l134 619h74l-169 -741h-83l-128 619h-2l-135 -619h-82zM269.5 851.5q-13.5 13.5 -13.5 32.5q0 20 13.5 34t32.5 14q20 0 34 -14t14 -34q0 -19 -14 -32.5t-34 -13.5q-19 0 -32.5 13.5zM444 851.5q-14 13.5 -14 32.5
q0 20 13.5 34t33.5 14t33.5 -14t13.5 -34q0 -19 -13.5 -32.5t-33.5 -13.5q-19 0 -33 13.5z" />
    <glyph glyph-name="Wgrave" unicode="&#x1e80;" horiz-adv-x="787" 
d="M16 741h75l122 -621h2l136 621h82l128 -619h2l134 619h74l-169 -741h-83l-128 619h-2l-135 -619h-82zM266 942h83l67 -137h-51z" />
    <glyph glyph-name="X" unicode="X" horiz-adv-x="547" 
d="M316 386l213 -386h-91l-166 317h-1l-170 -317h-83l209 387l-195 354h90l149 -287h1l152 287h85z" />
    <glyph glyph-name="Y" unicode="Y" horiz-adv-x="533" 
d="M231 308l-227 433h84l182 -363h1l179 363h80l-221 -433v-308h-78v308z" />
    <glyph glyph-name="Yacute" unicode="&#xdd;" horiz-adv-x="533" 
d="M231 308l-227 433h84l182 -363h1l179 363h80l-221 -433v-308h-78v308zM311 942h83l-98 -137h-52z" />
    <glyph glyph-name="Ycircumflex" unicode="&#x176;" horiz-adv-x="533" 
d="M231 308l-227 433h84l182 -363h1l179 363h80l-221 -433v-308h-78v308zM233 942h74l99 -137h-56l-81 90l-78 -90h-57z" />
    <glyph glyph-name="Ydieresis" unicode="&#x178;" horiz-adv-x="533" 
d="M231 308l-227 433h84l182 -363h1l179 363h80l-221 -433v-308h-78v308zM149.5 851.5q-13.5 13.5 -13.5 32.5q0 20 13.5 34t32.5 14q20 0 34 -14t14 -34q0 -19 -14 -32.5t-34 -13.5q-19 0 -32.5 13.5zM324 851.5q-14 13.5 -14 32.5q0 20 13.5 34t33.5 14t33.5 -14t13.5 -34
q0 -19 -13.5 -32.5t-33.5 -13.5q-19 0 -33 13.5z" />
    <glyph glyph-name="uni1EF4" unicode="&#x1ef4;" horiz-adv-x="533" 
d="M231 308l-227 433h84l182 -363h1l179 363h80l-221 -433v-308h-78v308zM235 -154q-14 14 -14 34t14 34t34 14t34.5 -14t14.5 -34t-14.5 -34t-34.5 -14t-34 14z" />
    <glyph glyph-name="Ygrave" unicode="&#x1ef2;" horiz-adv-x="533" 
d="M231 308l-227 433h84l182 -363h1l179 363h80l-221 -433v-308h-78v308zM146 942h83l67 -137h-51z" />
    <glyph glyph-name="uni1EF6" unicode="&#x1ef6;" horiz-adv-x="533" 
d="M231 308l-227 433h84l182 -363h1l179 363h80l-221 -433v-308h-78v308zM288.5 845.5q13.5 15.5 13.5 28.5q0 14 -11.5 22.5t-32.5 8.5q-42 0 -78 -20l-10 43q42 22 94 22q47 0 72 -18t25 -49q0 -39 -61 -78h-59q34 25 47.5 40.5z" />
    <glyph glyph-name="uni1EF8" unicode="&#x1ef8;" horiz-adv-x="533" 
d="M231 308l-227 433h84l182 -363h1l179 363h80l-221 -433v-308h-78v308zM211 946q15 0 30.5 -6.5t36.5 -18.5q19 -11 31.5 -16.5t24.5 -5.5q19 0 34 13t25 34l33 -24q-16 -31 -39 -54.5t-52 -23.5q-15 0 -30.5 6.5t-39.5 20.5q-38 23 -57 23q-33 0 -63 -51l-31 29
q44 74 97 74z" />
    <glyph glyph-name="Z" unicode="Z" horiz-adv-x="497" 
d="M463 741v-62l-338 -614h338v-65h-429v57l340 620h-312v64h401z" />
    <glyph glyph-name="Zacute" unicode="&#x179;" horiz-adv-x="497" 
d="M463 741v-62l-338 -614h338v-65h-429v57l340 620h-312v64h401zM290 942h83l-98 -137h-52z" />
    <glyph glyph-name="Zcaron" unicode="&#x17d;" horiz-adv-x="497" 
d="M463 741v-62l-338 -614h338v-65h-429v57l340 620h-312v64h401zM114 942h57l78 -90l81 90h56l-99 -137h-74z" />
    <glyph glyph-name="Zdotaccent" unicode="&#x17b;" horiz-adv-x="497" 
d="M463 741v-62l-338 -614h338v-65h-429v57l340 620h-312v64h401zM214 850q-14 14 -14 34t14 34.5t34 14.5t34.5 -14.5t14.5 -34.5t-14.5 -34t-34.5 -14t-34 14z" />
    <glyph glyph-name="a" unicode="a" horiz-adv-x="502" 
d="M125.5 5q-34.5 19 -55.5 54.5t-21 84.5q0 82 56 125t176 60q43 5 57 17.5t14 47.5q0 41 -24 62t-65 21t-76.5 -23t-59.5 -59l-41 51q70 90 184 90q75 0 115 -39t40 -118v-379h-73v65q-39 -39 -73.5 -59t-77.5 -20q-41 0 -75.5 19zM287.5 69.5q34.5 24.5 62.5 61.5v150h-2
l-64 -9q-85 -12 -123.5 -41.5t-38.5 -84.5q0 -46 25.5 -73.5t70.5 -27.5q35 0 69.5 24.5z" />
    <glyph glyph-name="aacute" unicode="&#xe1;" horiz-adv-x="502" 
d="M125.5 5q-34.5 19 -55.5 54.5t-21 84.5q0 82 56 125t176 60q43 5 57 17.5t14 47.5q0 41 -24 62t-65 21t-76.5 -23t-59.5 -59l-41 51q70 90 184 90q75 0 115 -39t40 -118v-379h-73v65q-39 -39 -73.5 -59t-77.5 -20q-41 0 -75.5 19zM287.5 69.5q34.5 24.5 62.5 61.5v150h-2
l-64 -9q-85 -12 -123.5 -41.5t-38.5 -84.5q0 -46 25.5 -73.5t70.5 -27.5q35 0 69.5 24.5zM300 741h83l-98 -137h-52z" />
    <glyph glyph-name="abreve" unicode="&#x103;" horiz-adv-x="502" 
d="M125.5 5q-34.5 19 -55.5 54.5t-21 84.5q0 82 56 125t176 60q43 5 57 17.5t14 47.5q0 41 -24 62t-65 21t-76.5 -23t-59.5 -59l-41 51q70 90 184 90q75 0 115 -39t40 -118v-379h-73v65q-39 -39 -73.5 -59t-77.5 -20q-41 0 -75.5 19zM287.5 69.5q34.5 24.5 62.5 61.5v150h-2
l-64 -9q-85 -12 -123.5 -41.5t-38.5 -84.5q0 -46 25.5 -73.5t70.5 -27.5q35 0 69.5 24.5zM159 636q-40 40 -51 105h53q9 -40 34 -66t65 -26t66 26t34 66h52q-10 -64 -50.5 -104.5t-101.5 -40.5t-101 40z" />
    <glyph glyph-name="uni1EAF" unicode="&#x1eaf;" horiz-adv-x="502" 
d="M125.5 5q-34.5 19 -55.5 54.5t-21 84.5q0 82 56 125t176 60q43 5 57 17.5t14 47.5q0 41 -24 62t-65 21t-76.5 -23t-59.5 -59l-41 51q70 90 184 90q75 0 115 -39t40 -118v-379h-73v65q-39 -39 -73.5 -59t-77.5 -20q-41 0 -75.5 19zM287.5 69.5q34.5 24.5 62.5 61.5v150h-2
l-64 -9q-85 -12 -123.5 -41.5t-38.5 -84.5q0 -46 25.5 -73.5t70.5 -27.5q35 0 69.5 24.5zM301 840h84l-101 -105h-52zM171 625q-37 29 -48 79h52q17 -56 85 -56q33 0 55 14t30 42h52q-11 -49 -49 -78.5t-88 -29.5q-52 0 -89 29z" />
    <glyph glyph-name="uni1EB7" unicode="&#x1eb7;" horiz-adv-x="502" 
d="M125.5 5q-34.5 19 -55.5 54.5t-21 84.5q0 82 56 125t176 60q43 5 57 17.5t14 47.5q0 41 -24 62t-65 21t-76.5 -23t-59.5 -59l-41 51q70 90 184 90q75 0 115 -39t40 -118v-379h-73v65q-39 -39 -73.5 -59t-77.5 -20q-41 0 -75.5 19zM287.5 69.5q34.5 24.5 62.5 61.5v150h-2
l-64 -9q-85 -12 -123.5 -41.5t-38.5 -84.5q0 -46 25.5 -73.5t70.5 -27.5q35 0 69.5 24.5zM159 636q-40 40 -51 105h53q9 -40 34 -66t65 -26t66 26t34 66h52q-10 -64 -50.5 -104.5t-101.5 -40.5t-101 40zM203 -154q-14 14 -14 34t14 34t34 14t34.5 -14t14.5 -34t-14.5 -34
t-34.5 -14t-34 14z" />
    <glyph glyph-name="uni1EB1" unicode="&#x1eb1;" horiz-adv-x="502" 
d="M125.5 5q-34.5 19 -55.5 54.5t-21 84.5q0 82 56 125t176 60q43 5 57 17.5t14 47.5q0 41 -24 62t-65 21t-76.5 -23t-59.5 -59l-41 51q70 90 184 90q75 0 115 -39t40 -118v-379h-73v65q-39 -39 -73.5 -59t-77.5 -20q-41 0 -75.5 19zM287.5 69.5q34.5 24.5 62.5 61.5v150h-2
l-64 -9q-85 -12 -123.5 -41.5t-38.5 -84.5q0 -46 25.5 -73.5t70.5 -27.5q35 0 69.5 24.5zM135 840h84l69 -105h-52zM171 625q-37 29 -48 79h52q17 -56 85 -56q33 0 55 14t30 42h52q-11 -49 -49 -78.5t-88 -29.5q-52 0 -89 29z" />
    <glyph glyph-name="uni1EB3" unicode="&#x1eb3;" horiz-adv-x="502" 
d="M125.5 5q-34.5 19 -55.5 54.5t-21 84.5q0 82 56 125t176 60q43 5 57 17.5t14 47.5q0 41 -24 62t-65 21t-76.5 -23t-59.5 -59l-41 51q70 90 184 90q75 0 115 -39t40 -118v-379h-73v65q-39 -39 -73.5 -59t-77.5 -20q-41 0 -75.5 19zM287.5 69.5q34.5 24.5 62.5 61.5v150h-2
l-64 -9q-85 -12 -123.5 -41.5t-38.5 -84.5q0 -46 25.5 -73.5t70.5 -27.5q35 0 69.5 24.5zM268.5 749.5q12.5 14.5 12.5 26.5t-11.5 20.5t-32.5 8.5q-39 0 -78 -21l-10 43q44 22 95 22q47 0 71.5 -17.5t24.5 -46.5q0 -36 -55 -72h-61q32 22 44.5 36.5zM171 625q-37 29 -48 79
h52q17 -56 85 -56q33 0 55 14t30 42h52q-11 -49 -49 -78.5t-88 -29.5q-52 0 -89 29z" />
    <glyph glyph-name="uni1EB5" unicode="&#x1eb5;" horiz-adv-x="502" 
d="M125.5 5q-34.5 19 -55.5 54.5t-21 84.5q0 82 56 125t176 60q43 5 57 17.5t14 47.5q0 41 -24 62t-65 21t-76.5 -23t-59.5 -59l-41 51q70 90 184 90q75 0 115 -39t40 -118v-379h-73v65q-39 -39 -73.5 -59t-77.5 -20q-41 0 -75.5 19zM287.5 69.5q34.5 24.5 62.5 61.5v150h-2
l-64 -9q-85 -12 -123.5 -41.5t-38.5 -84.5q0 -46 25.5 -73.5t70.5 -27.5q35 0 69.5 24.5zM203 832q15 0 29.5 -5.5t36.5 -17.5q3 -1 14 -7t19.5 -8.5t15.5 -2.5q27 0 54 46l33 -25q-42 -68 -91 -68q-14 0 -27.5 5.5t-36.5 16.5q-17 9 -28.5 14t-22.5 5q-25 0 -53 -46l-33 24
q41 69 90 69zM170 625q-37 29 -48 79h52q17 -56 85 -56t85 56h52q-11 -49 -49.5 -78.5t-87.5 -29.5q-52 0 -89 29z" />
    <glyph glyph-name="acircumflex" unicode="&#xe2;" horiz-adv-x="502" 
d="M125.5 5q-34.5 19 -55.5 54.5t-21 84.5q0 82 56 125t176 60q43 5 57 17.5t14 47.5q0 41 -24 62t-65 21t-76.5 -23t-59.5 -59l-41 51q70 90 184 90q75 0 115 -39t40 -118v-379h-73v65q-39 -39 -73.5 -59t-77.5 -20q-41 0 -75.5 19zM287.5 69.5q34.5 24.5 62.5 61.5v150h-2
l-64 -9q-85 -12 -123.5 -41.5t-38.5 -84.5q0 -46 25.5 -73.5t70.5 -27.5q35 0 69.5 24.5zM223 741h74l99 -137h-56l-81 90l-78 -90h-57z" />
    <glyph glyph-name="uni1EA5" unicode="&#x1ea5;" horiz-adv-x="502" 
d="M125.5 5q-34.5 19 -55.5 54.5t-21 84.5q0 82 56 125t176 60q43 5 57 17.5t14 47.5q0 41 -24 62t-65 21t-76.5 -23t-59.5 -59l-41 51q70 90 184 90q75 0 115 -39t40 -118v-379h-73v65q-39 -39 -73.5 -59t-77.5 -20q-41 0 -75.5 19zM287.5 69.5q34.5 24.5 62.5 61.5v150h-2
l-64 -9q-85 -12 -123.5 -41.5t-38.5 -84.5q0 -46 25.5 -73.5t70.5 -27.5q35 0 69.5 24.5zM301 840h84l-102 -105h-51zM223 703h74l99 -99h-57l-80 62l-76 -62h-59z" />
    <glyph glyph-name="uni1EAD" unicode="&#x1ead;" horiz-adv-x="502" 
d="M125.5 5q-34.5 19 -55.5 54.5t-21 84.5q0 82 56 125t176 60q43 5 57 17.5t14 47.5q0 41 -24 62t-65 21t-76.5 -23t-59.5 -59l-41 51q70 90 184 90q75 0 115 -39t40 -118v-379h-73v65q-39 -39 -73.5 -59t-77.5 -20q-41 0 -75.5 19zM287.5 69.5q34.5 24.5 62.5 61.5v150h-2
l-64 -9q-85 -12 -123.5 -41.5t-38.5 -84.5q0 -46 25.5 -73.5t70.5 -27.5q35 0 69.5 24.5zM223 741h74l99 -137h-56l-81 90l-78 -90h-57zM203 -154q-14 14 -14 34t14 34t34 14t34.5 -14t14.5 -34t-14.5 -34t-34.5 -14t-34 14z" />
    <glyph glyph-name="uni1EA7" unicode="&#x1ea7;" horiz-adv-x="502" 
d="M125.5 5q-34.5 19 -55.5 54.5t-21 84.5q0 82 56 125t176 60q43 5 57 17.5t14 47.5q0 41 -24 62t-65 21t-76.5 -23t-59.5 -59l-41 51q70 90 184 90q75 0 115 -39t40 -118v-379h-73v65q-39 -39 -73.5 -59t-77.5 -20q-41 0 -75.5 19zM287.5 69.5q34.5 24.5 62.5 61.5v150h-2
l-64 -9q-85 -12 -123.5 -41.5t-38.5 -84.5q0 -46 25.5 -73.5t70.5 -27.5q35 0 69.5 24.5zM134 840h84l69 -105h-52zM223 703h74l99 -99h-57l-80 62l-76 -62h-59z" />
    <glyph glyph-name="uni1EA9" unicode="&#x1ea9;" horiz-adv-x="502" 
d="M125.5 5q-34.5 19 -55.5 54.5t-21 84.5q0 82 56 125t176 60q43 5 57 17.5t14 47.5q0 41 -24 62t-65 21t-76.5 -23t-59.5 -59l-41 51q70 90 184 90q75 0 115 -39t40 -118v-379h-73v65q-39 -39 -73.5 -59t-77.5 -20q-41 0 -75.5 19zM287.5 69.5q34.5 24.5 62.5 61.5v150h-2
l-64 -9q-85 -12 -123.5 -41.5t-38.5 -84.5q0 -46 25.5 -73.5t70.5 -27.5q35 0 69.5 24.5zM387 736q13 14 13 26q0 11 -11.5 19.5t-32.5 8.5q-41 0 -77 -20l-11 43q44 22 94 22q47 0 72.5 -17.5t25.5 -46.5q0 -35 -56 -72h-62q32 23 45 37zM223 703h74l99 -99h-57l-80 62
l-76 -62h-59z" />
    <glyph glyph-name="uni1EAB" unicode="&#x1eab;" horiz-adv-x="502" 
d="M125.5 5q-34.5 19 -55.5 54.5t-21 84.5q0 82 56 125t176 60q43 5 57 17.5t14 47.5q0 41 -24 62t-65 21t-76.5 -23t-59.5 -59l-41 51q70 90 184 90q75 0 115 -39t40 -118v-379h-73v65q-39 -39 -73.5 -59t-77.5 -20q-41 0 -75.5 19zM287.5 69.5q34.5 24.5 62.5 61.5v150h-2
l-64 -9q-85 -12 -123.5 -41.5t-38.5 -84.5q0 -46 25.5 -73.5t70.5 -27.5q35 0 69.5 24.5zM204 832q14 0 27.5 -5.5t36.5 -16.5q17 -9 28.5 -14t22.5 -5q26 0 53 46l34 -25q-42 -68 -91 -68q-15 0 -30 6t-35 17q-13 7 -26.5 12.5t-23.5 5.5q-25 0 -54 -46l-32 24q40 69 90 69
zM223 703h74l98 -99h-56l-79 62l-77 -62h-59z" />
    <glyph glyph-name="adieresis" unicode="&#xe4;" horiz-adv-x="502" 
d="M125.5 5q-34.5 19 -55.5 54.5t-21 84.5q0 82 56 125t176 60q43 5 57 17.5t14 47.5q0 41 -24 62t-65 21t-76.5 -23t-59.5 -59l-41 51q70 90 184 90q75 0 115 -39t40 -118v-379h-73v65q-39 -39 -73.5 -59t-77.5 -20q-41 0 -75.5 19zM287.5 69.5q34.5 24.5 62.5 61.5v150h-2
l-64 -9q-85 -12 -123.5 -41.5t-38.5 -84.5q0 -46 25.5 -73.5t70.5 -27.5q35 0 69.5 24.5zM139.5 650.5q-13.5 13.5 -13.5 32.5q0 20 13.5 34t32.5 14q20 0 34 -14t14 -34q0 -19 -14 -32.5t-34 -13.5q-19 0 -32.5 13.5zM314 650.5q-14 13.5 -14 32.5q0 20 13.5 34t33.5 14
t33.5 -14t13.5 -34q0 -19 -13.5 -32.5t-33.5 -13.5q-19 0 -33 13.5z" />
    <glyph glyph-name="uni1EA1" unicode="&#x1ea1;" horiz-adv-x="502" 
d="M125.5 5q-34.5 19 -55.5 54.5t-21 84.5q0 82 56 125t176 60q43 5 57 17.5t14 47.5q0 41 -24 62t-65 21t-76.5 -23t-59.5 -59l-41 51q70 90 184 90q75 0 115 -39t40 -118v-379h-73v65q-39 -39 -73.5 -59t-77.5 -20q-41 0 -75.5 19zM287.5 69.5q34.5 24.5 62.5 61.5v150h-2
l-64 -9q-85 -12 -123.5 -41.5t-38.5 -84.5q0 -46 25.5 -73.5t70.5 -27.5q35 0 69.5 24.5zM203 -154q-14 14 -14 34t14 34t34 14t34.5 -14t14.5 -34t-14.5 -34t-34.5 -14t-34 14z" />
    <glyph glyph-name="agrave" unicode="&#xe0;" horiz-adv-x="502" 
d="M125.5 5q-34.5 19 -55.5 54.5t-21 84.5q0 82 56 125t176 60q43 5 57 17.5t14 47.5q0 41 -24 62t-65 21t-76.5 -23t-59.5 -59l-41 51q70 90 184 90q75 0 115 -39t40 -118v-379h-73v65q-39 -39 -73.5 -59t-77.5 -20q-41 0 -75.5 19zM287.5 69.5q34.5 24.5 62.5 61.5v150h-2
l-64 -9q-85 -12 -123.5 -41.5t-38.5 -84.5q0 -46 25.5 -73.5t70.5 -27.5q35 0 69.5 24.5zM136 741h83l67 -137h-51z" />
    <glyph glyph-name="uni1EA3" unicode="&#x1ea3;" horiz-adv-x="502" 
d="M125.5 5q-34.5 19 -55.5 54.5t-21 84.5q0 82 56 125t176 60q43 5 57 17.5t14 47.5q0 41 -24 62t-65 21t-76.5 -23t-59.5 -59l-41 51q70 90 184 90q75 0 115 -39t40 -118v-379h-73v65q-39 -39 -73.5 -59t-77.5 -20q-41 0 -75.5 19zM287.5 69.5q34.5 24.5 62.5 61.5v150h-2
l-64 -9q-85 -12 -123.5 -41.5t-38.5 -84.5q0 -46 25.5 -73.5t70.5 -27.5q35 0 69.5 24.5zM278.5 644.5q13.5 15.5 13.5 28.5q0 14 -11.5 22.5t-32.5 8.5q-42 0 -78 -20l-10 43q42 22 94 22q47 0 72 -18t25 -49q0 -39 -61 -78h-59q34 25 47.5 40.5z" />
    <glyph glyph-name="amacron" unicode="&#x101;" horiz-adv-x="502" 
d="M125.5 5q-34.5 19 -55.5 54.5t-21 84.5q0 82 56 125t176 60q43 5 57 17.5t14 47.5q0 41 -24 62t-65 21t-76.5 -23t-59.5 -59l-41 51q70 90 184 90q75 0 115 -39t40 -118v-379h-73v65q-39 -39 -73.5 -59t-77.5 -20q-41 0 -75.5 19zM287.5 69.5q34.5 24.5 62.5 61.5v150h-2
l-64 -9q-85 -12 -123.5 -41.5t-38.5 -84.5q0 -46 25.5 -73.5t70.5 -27.5q35 0 69.5 24.5zM100 709h319v-55h-319v55z" />
    <glyph glyph-name="aogonek" unicode="&#x105;" horiz-adv-x="502" 
d="M385 497q40 -39 40 -118v-379h-5q-51 -25 -77.5 -53.5t-26.5 -55.5q0 -19 11.5 -28.5t30.5 -9.5q30 0 58 17v-45q-28 -17 -64 -17q-37 0 -62.5 18.5t-25.5 57.5q0 33 23 63.5t65 55.5v62q-39 -39 -73.5 -59t-77.5 -20q-41 0 -75.5 19t-55.5 54.5t-21 84.5q0 82 56 125
t176 60q43 5 57 17.5t14 47.5q0 41 -24 62t-65 21t-76.5 -23t-59.5 -59l-41 51q70 90 184 90q75 0 115 -39zM350 281h-2l-64 -9q-85 -12 -123.5 -41.5t-38.5 -84.5q0 -46 25.5 -73.5t70.5 -27.5q35 0 69.5 24.5t62.5 61.5v150z" />
    <glyph glyph-name="aring" unicode="&#xe5;" horiz-adv-x="502" 
d="M125.5 5q-34.5 19 -55.5 54.5t-21 84.5q0 82 56 125t176 60q43 5 57 17.5t14 47.5q0 41 -24 62t-65 21t-76.5 -23t-59.5 -59l-41 51q70 90 184 90q75 0 115 -39t40 -118v-379h-73v65q-39 -39 -73.5 -59t-77.5 -20q-41 0 -75.5 19zM287.5 69.5q34.5 24.5 62.5 61.5v150h-2
l-64 -9q-85 -12 -123.5 -41.5t-38.5 -84.5q0 -46 25.5 -73.5t70.5 -27.5q35 0 69.5 24.5zM200 609q-25 25 -25 60t25 60t59 25q35 0 60 -25t25 -60t-25 -60t-60 -25q-34 0 -59 25zM291.5 637.5q13.5 13.5 13.5 31.5t-13.5 32t-32.5 14q-18 0 -31.5 -14t-13.5 -32t13.5 -31.5
t31.5 -13.5q19 0 32.5 13.5z" />
    <glyph glyph-name="atilde" unicode="&#xe3;" horiz-adv-x="502" 
d="M125.5 5q-34.5 19 -55.5 54.5t-21 84.5q0 82 56 125t176 60q43 5 57 17.5t14 47.5q0 41 -24 62t-65 21t-76.5 -23t-59.5 -59l-41 51q70 90 184 90q75 0 115 -39t40 -118v-379h-73v65q-39 -39 -73.5 -59t-77.5 -20q-41 0 -75.5 19zM287.5 69.5q34.5 24.5 62.5 61.5v150h-2
l-64 -9q-85 -12 -123.5 -41.5t-38.5 -84.5q0 -46 25.5 -73.5t70.5 -27.5q35 0 69.5 24.5zM200 745q15 0 30.5 -6.5t36.5 -18.5q19 -11 31.5 -16.5t24.5 -5.5q19 0 34 13t25 34l33 -24q-16 -31 -39 -54.5t-52 -23.5q-15 0 -30.5 6.5t-39.5 20.5q-38 23 -57 23q-33 0 -63 -51
l-31 29q44 74 97 74z" />
    <glyph glyph-name="ae" unicode="&#xe6;" horiz-adv-x="796" 
d="M422 252q-1 -106 38.5 -157t105.5 -51q39 0 73.5 25.5t56.5 64.5l47 -43q-29 -47 -76.5 -76t-109.5 -29q-118 0 -174 104q-41 -55 -82.5 -79.5t-91.5 -24.5q-70 0 -115 38.5t-45 111.5q0 83 57 122.5t162 54.5q37 5 54 12t23.5 22.5t6.5 46.5q0 36 -25 59.5t-64 23.5
q-42 0 -77.5 -24t-58.5 -58l-41 51q70 90 184 90q105 0 133 -78q54 78 157 78q95 0 142 -70.5t47 -188.5q0 -16 -1 -25h-326zM460 426.5q-33 -52.5 -35 -121.5h247q2 74 -27.5 124t-90.5 50t-94 -52.5zM361 147q-14 56 -14 116v3l-87 -11q-63 -9 -100.5 -36t-37.5 -81
q0 -45 25.5 -69t70.5 -24q69 0 143 102z" />
    <glyph glyph-name="b" unicode="b" horiz-adv-x="530" 
d="M212.5 4q-31.5 18 -61.5 52v-56h-70v736l74 43v-311q66 68 133 68q48 0 92 -28.5t72.5 -91t28.5 -158.5q0 -97 -30.5 -158t-75 -87.5t-90.5 -26.5q-41 0 -72.5 18zM335.5 69q31.5 22 51.5 68.5t20 115.5q0 86 -34.5 151t-102.5 65q-37 0 -66.5 -22t-48.5 -56v-255
q18 -35 49.5 -62t65.5 -27t65.5 22z" />
    <glyph glyph-name="c" unicode="c" horiz-adv-x="485" 
d="M105 56q-59 71 -59 205q0 88 27 150t75.5 93.5t112.5 31.5q65 0 106 -31t66 -88l-60 -38q-15 43 -43 71.5t-72 28.5q-74 0 -104.5 -65t-30.5 -153q0 -95 32 -157t106 -62q47 0 75.5 30.5t46.5 79.5l61 -36q-25 -59 -73.5 -95t-109.5 -36q-97 0 -156 71z" />
    <glyph glyph-name="cacute" unicode="&#x107;" horiz-adv-x="485" 
d="M105 56q-59 71 -59 205q0 88 27 150t75.5 93.5t112.5 31.5q65 0 106 -31t66 -88l-60 -38q-15 43 -43 71.5t-72 28.5q-74 0 -104.5 -65t-30.5 -153q0 -95 32 -157t106 -62q47 0 75.5 30.5t46.5 79.5l61 -36q-25 -59 -73.5 -95t-109.5 -36q-97 0 -156 71zM298 741h83
l-98 -137h-52z" />
    <glyph glyph-name="ccaron" unicode="&#x10d;" horiz-adv-x="485" 
d="M105 56q-59 71 -59 205q0 88 27 150t75.5 93.5t112.5 31.5q65 0 106 -31t66 -88l-60 -38q-15 43 -43 71.5t-72 28.5q-74 0 -104.5 -65t-30.5 -153q0 -95 32 -157t106 -62q47 0 75.5 30.5t46.5 79.5l61 -36q-25 -59 -73.5 -95t-109.5 -36q-97 0 -156 71zM121 741h57
l78 -90l81 90h56l-99 -137h-74z" />
    <glyph glyph-name="ccedilla" unicode="&#xe7;" horiz-adv-x="485" 
d="M379 27q-43 -35 -97 -41l-22 -34q42 -8 66.5 -24.5t24.5 -50.5q0 -38 -30 -58.5t-74 -20.5q-23 0 -49 5t-39 14l12 43q11 -8 33 -14t41 -6q23 0 36 8.5t13 25.5q0 23 -26 33t-80 14l44 66q-85 10 -135.5 80.5t-50.5 193.5q0 88 27 150t75.5 93.5t112.5 31.5q65 0 106 -31
t66 -88l-60 -38q-15 43 -43 71.5t-72 28.5q-74 0 -104.5 -65t-30.5 -153q0 -95 32 -157t106 -62q47 0 75.5 30.5t46.5 79.5l61 -36q-22 -54 -65 -89z" />
    <glyph glyph-name="ccircumflex" unicode="&#x109;" horiz-adv-x="485" 
d="M105 56q-59 71 -59 205q0 88 27 150t75.5 93.5t112.5 31.5q65 0 106 -31t66 -88l-60 -38q-15 43 -43 71.5t-72 28.5q-74 0 -104.5 -65t-30.5 -153q0 -95 32 -157t106 -62q47 0 75.5 30.5t46.5 79.5l61 -36q-25 -59 -73.5 -95t-109.5 -36q-97 0 -156 71zM220 741h74
l99 -137h-56l-81 90l-78 -90h-57z" />
    <glyph glyph-name="cdotaccent" unicode="&#x10b;" horiz-adv-x="485" 
d="M105 56q-59 71 -59 205q0 88 27 150t75.5 93.5t112.5 31.5q65 0 106 -31t66 -88l-60 -38q-15 43 -43 71.5t-72 28.5q-74 0 -104.5 -65t-30.5 -153q0 -95 32 -157t106 -62q47 0 75.5 30.5t46.5 79.5l61 -36q-25 -59 -73.5 -95t-109.5 -36q-97 0 -156 71zM222 649
q-14 14 -14 34t14 34.5t34 14.5t34.5 -14.5t14.5 -34.5t-14.5 -34t-34.5 -14t-34 14z" />
    <glyph glyph-name="d" unicode="d" horiz-adv-x="530" 
d="M154 12.5q-45 26.5 -75.5 87t-30.5 157.5q0 95 29 158t74 92t92 29q36 0 68.5 -18.5t63.5 -49.5v268l74 43v-779h-70v56q-32 -35 -63 -52.5t-72 -17.5q-45 0 -90 26.5zM325.5 77q31.5 27 49.5 62v255q-21 35 -50 57.5t-66 22.5q-70 0 -103.5 -64.5t-33.5 -153.5
q0 -67 19.5 -113.5t51 -69.5t66.5 -23t66.5 27z" />
    <glyph glyph-name="eth" unicode="&#xf0;" horiz-adv-x="511" 
d="M417 471.5q48 -93.5 48 -214.5q0 -129 -57 -200t-153 -71q-95 0 -152 71t-57 204t57 204t153 71q23 0 47 -6q-42 49 -95 100l-90 -63l-29 40l82 58q-38 34 -57 50l45 50q49 -43 68 -61l78 55l28 -40l-70 -50q106 -104 154 -197.5zM360.5 108q29.5 65 29.5 153t-29.5 153
t-104.5 65q-76 0 -104.5 -64.5t-28.5 -153.5t28.5 -153.5t104.5 -64.5q75 0 104.5 65z" />
    <glyph glyph-name="dcaron" unicode="&#x10f;" horiz-adv-x="530" 
d="M154 12.5q-45 26.5 -75.5 87t-30.5 157.5q0 95 29 158t74 92t92 29q36 0 68.5 -18.5t63.5 -49.5v268l74 43v-779h-70v56q-32 -35 -63 -52.5t-72 -17.5q-45 0 -90 26.5zM325.5 77q31.5 27 49.5 62v255q-21 35 -50 57.5t-66 22.5q-70 0 -103.5 -64.5t-33.5 -153.5
q0 -67 19.5 -113.5t51 -69.5t66.5 -23t66.5 27zM507 779h74l-30 -180h-53z" />
    <glyph glyph-name="dcroat" unicode="&#x111;" horiz-adv-x="528" 
d="M509 615h-60v-615h-70v56q-32 -35 -63 -52.5t-72 -17.5q-45 0 -90 26.5t-75.5 87t-30.5 157.5q0 95 29 158t74 92t92 29q36 0 68.5 -18.5t63.5 -49.5v147h-109v57h109v64l74 43v-107h60v-57zM375 394q-21 35 -50 57.5t-66 22.5q-70 0 -103.5 -64.5t-33.5 -153.5
q0 -67 19.5 -113.5t51 -69.5t66.5 -23t66.5 27t49.5 62v255z" />
    <glyph glyph-name="e" unicode="e" horiz-adv-x="495" 
d="M103 57q-57 71 -57 206q0 131 57.5 202t156.5 71q95 0 141.5 -70.5t46.5 -188.5q0 -16 -1 -25h-325q-1 -106 38.5 -157t105.5 -51q39 0 73.5 25.5t56.5 64.5l46 -43q-29 -47 -76 -76t-109 -29q-97 0 -154 71zM344 429q-29 50 -91 50q-41 0 -70 -25.5t-43 -65.5t-15 -83
h247q1 74 -28 124z" />
    <glyph glyph-name="eacute" unicode="&#xe9;" horiz-adv-x="495" 
d="M103 57q-57 71 -57 206q0 131 57.5 202t156.5 71q95 0 141.5 -70.5t46.5 -188.5q0 -16 -1 -25h-325q-1 -106 38.5 -157t105.5 -51q39 0 73.5 25.5t56.5 64.5l46 -43q-29 -47 -76 -76t-109 -29q-97 0 -154 71zM344 429q-29 50 -91 50q-41 0 -70 -25.5t-43 -65.5t-15 -83
h247q1 74 -28 124zM298 741h83l-98 -137h-52z" />
    <glyph glyph-name="ebreve" unicode="&#x115;" horiz-adv-x="495" 
d="M103 57q-57 71 -57 206q0 131 57.5 202t156.5 71q95 0 141.5 -70.5t46.5 -188.5q0 -16 -1 -25h-325q-1 -106 38.5 -157t105.5 -51q39 0 73.5 25.5t56.5 64.5l46 -43q-29 -47 -76 -76t-109 -29q-97 0 -154 71zM344 429q-29 50 -91 50q-41 0 -70 -25.5t-43 -65.5t-15 -83
h247q1 74 -28 124zM156 636q-40 40 -51 105h53q9 -40 34 -66t65 -26t66 26t34 66h52q-10 -64 -50.5 -104.5t-101.5 -40.5t-101 40z" />
    <glyph glyph-name="ecaron" unicode="&#x11b;" horiz-adv-x="495" 
d="M103 57q-57 71 -57 206q0 131 57.5 202t156.5 71q95 0 141.5 -70.5t46.5 -188.5q0 -16 -1 -25h-325q-1 -106 38.5 -157t105.5 -51q39 0 73.5 25.5t56.5 64.5l46 -43q-29 -47 -76 -76t-109 -29q-97 0 -154 71zM344 429q-29 50 -91 50q-41 0 -70 -25.5t-43 -65.5t-15 -83
h247q1 74 -28 124zM121 741h57l78 -90l81 90h56l-99 -137h-74z" />
    <glyph glyph-name="ecircumflex" unicode="&#xea;" horiz-adv-x="495" 
d="M103 57q-57 71 -57 206q0 131 57.5 202t156.5 71q95 0 141.5 -70.5t46.5 -188.5q0 -16 -1 -25h-325q-1 -106 38.5 -157t105.5 -51q39 0 73.5 25.5t56.5 64.5l46 -43q-29 -47 -76 -76t-109 -29q-97 0 -154 71zM344 429q-29 50 -91 50q-41 0 -70 -25.5t-43 -65.5t-15 -83
h247q1 74 -28 124zM220 741h74l99 -137h-56l-81 90l-78 -90h-57z" />
    <glyph glyph-name="uni1EBF" unicode="&#x1ebf;" horiz-adv-x="495" 
d="M103 57q-57 71 -57 206q0 131 57.5 202t156.5 71q95 0 141.5 -70.5t46.5 -188.5q0 -16 -1 -25h-325q-1 -106 38.5 -157t105.5 -51q39 0 73.5 25.5t56.5 64.5l46 -43q-29 -47 -76 -76t-109 -29q-97 0 -154 71zM344 429q-29 50 -91 50q-41 0 -70 -25.5t-43 -65.5t-15 -83
h247q1 74 -28 124zM298 840h84l-102 -105h-51zM220 703h74l99 -99h-57l-80 62l-76 -62h-59z" />
    <glyph glyph-name="uni1EC7" unicode="&#x1ec7;" horiz-adv-x="495" 
d="M103 57q-57 71 -57 206q0 131 57.5 202t156.5 71q95 0 141.5 -70.5t46.5 -188.5q0 -16 -1 -25h-325q-1 -106 38.5 -157t105.5 -51q39 0 73.5 25.5t56.5 64.5l46 -43q-29 -47 -76 -76t-109 -29q-97 0 -154 71zM344 429q-29 50 -91 50q-41 0 -70 -25.5t-43 -65.5t-15 -83
h247q1 74 -28 124zM220 741h74l99 -137h-56l-81 90l-78 -90h-57zM221 -154q-14 14 -14 34t14 34t34 14t34.5 -14t14.5 -34t-14.5 -34t-34.5 -14t-34 14z" />
    <glyph glyph-name="uni1EC1" unicode="&#x1ec1;" horiz-adv-x="495" 
d="M103 57q-57 71 -57 206q0 131 57.5 202t156.5 71q95 0 141.5 -70.5t46.5 -188.5q0 -16 -1 -25h-325q-1 -106 38.5 -157t105.5 -51q39 0 73.5 25.5t56.5 64.5l46 -43q-29 -47 -76 -76t-109 -29q-97 0 -154 71zM344 429q-29 50 -91 50q-41 0 -70 -25.5t-43 -65.5t-15 -83
h247q1 74 -28 124zM131 840h84l69 -105h-52zM220 703h74l99 -99h-57l-80 62l-76 -62h-59z" />
    <glyph glyph-name="uni1EC3" unicode="&#x1ec3;" horiz-adv-x="495" 
d="M103 57q-57 71 -57 206q0 131 57.5 202t156.5 71q95 0 141.5 -70.5t46.5 -188.5q0 -16 -1 -25h-325q-1 -106 38.5 -157t105.5 -51q39 0 73.5 25.5t56.5 64.5l46 -43q-29 -47 -76 -76t-109 -29q-97 0 -154 71zM344 429q-29 50 -91 50q-41 0 -70 -25.5t-43 -65.5t-15 -83
h247q1 74 -28 124zM384 736q13 14 13 26q0 11 -11.5 19.5t-32.5 8.5q-41 0 -77 -20l-11 43q44 22 94 22q47 0 72.5 -17.5t25.5 -46.5q0 -35 -56 -72h-62q32 23 45 37zM220 703h74l99 -99h-57l-80 62l-76 -62h-59z" />
    <glyph glyph-name="uni1EC5" unicode="&#x1ec5;" horiz-adv-x="495" 
d="M103 57q-57 71 -57 206q0 131 57.5 202t156.5 71q95 0 141.5 -70.5t46.5 -188.5q0 -16 -1 -25h-325q-1 -106 38.5 -157t105.5 -51q39 0 73.5 25.5t56.5 64.5l46 -43q-29 -47 -76 -76t-109 -29q-97 0 -154 71zM344 429q-29 50 -91 50q-41 0 -70 -25.5t-43 -65.5t-15 -83
h247q1 74 -28 124zM201 832q14 0 27.5 -5.5t36.5 -16.5q17 -9 28.5 -14t22.5 -5q26 0 53 46l34 -25q-42 -68 -91 -68q-15 0 -30 6t-35 17q-13 7 -26.5 12.5t-23.5 5.5q-25 0 -54 -46l-32 24q40 69 90 69zM220 703h74l98 -99h-56l-79 62l-77 -62h-59z" />
    <glyph glyph-name="edieresis" unicode="&#xeb;" horiz-adv-x="495" 
d="M103 57q-57 71 -57 206q0 131 57.5 202t156.5 71q95 0 141.5 -70.5t46.5 -188.5q0 -16 -1 -25h-325q-1 -106 38.5 -157t105.5 -51q39 0 73.5 25.5t56.5 64.5l46 -43q-29 -47 -76 -76t-109 -29q-97 0 -154 71zM344 429q-29 50 -91 50q-41 0 -70 -25.5t-43 -65.5t-15 -83
h247q1 74 -28 124zM136.5 650.5q-13.5 13.5 -13.5 32.5q0 20 13.5 34t32.5 14q20 0 34 -14t14 -34q0 -19 -14 -32.5t-34 -13.5q-19 0 -32.5 13.5zM311 650.5q-14 13.5 -14 32.5q0 20 13.5 34t33.5 14t33.5 -14t13.5 -34q0 -19 -13.5 -32.5t-33.5 -13.5q-19 0 -33 13.5z" />
    <glyph glyph-name="edotaccent" unicode="&#x117;" horiz-adv-x="495" 
d="M103 57q-57 71 -57 206q0 131 57.5 202t156.5 71q95 0 141.5 -70.5t46.5 -188.5q0 -16 -1 -25h-325q-1 -106 38.5 -157t105.5 -51q39 0 73.5 25.5t56.5 64.5l46 -43q-29 -47 -76 -76t-109 -29q-97 0 -154 71zM344 429q-29 50 -91 50q-41 0 -70 -25.5t-43 -65.5t-15 -83
h247q1 74 -28 124zM222 649q-14 14 -14 34t14 34.5t34 14.5t34.5 -14.5t14.5 -34.5t-14.5 -34t-34.5 -14t-34 14z" />
    <glyph glyph-name="uni1EB9" unicode="&#x1eb9;" horiz-adv-x="495" 
d="M103 57q-57 71 -57 206q0 131 57.5 202t156.5 71q95 0 141.5 -70.5t46.5 -188.5q0 -16 -1 -25h-325q-1 -106 38.5 -157t105.5 -51q39 0 73.5 25.5t56.5 64.5l46 -43q-29 -47 -76 -76t-109 -29q-97 0 -154 71zM344 429q-29 50 -91 50q-41 0 -70 -25.5t-43 -65.5t-15 -83
h247q1 74 -28 124zM221 -154q-14 14 -14 34t14 34t34 14t34.5 -14t14.5 -34t-14.5 -34t-34.5 -14t-34 14z" />
    <glyph glyph-name="egrave" unicode="&#xe8;" horiz-adv-x="495" 
d="M103 57q-57 71 -57 206q0 131 57.5 202t156.5 71q95 0 141.5 -70.5t46.5 -188.5q0 -16 -1 -25h-325q-1 -106 38.5 -157t105.5 -51q39 0 73.5 25.5t56.5 64.5l46 -43q-29 -47 -76 -76t-109 -29q-97 0 -154 71zM344 429q-29 50 -91 50q-41 0 -70 -25.5t-43 -65.5t-15 -83
h247q1 74 -28 124zM133 741h83l67 -137h-51z" />
    <glyph glyph-name="uni1EBB" unicode="&#x1ebb;" horiz-adv-x="495" 
d="M103 57q-57 71 -57 206q0 131 57.5 202t156.5 71q95 0 141.5 -70.5t46.5 -188.5q0 -16 -1 -25h-325q-1 -106 38.5 -157t105.5 -51q39 0 73.5 25.5t56.5 64.5l46 -43q-29 -47 -76 -76t-109 -29q-97 0 -154 71zM344 429q-29 50 -91 50q-41 0 -70 -25.5t-43 -65.5t-15 -83
h247q1 74 -28 124zM275.5 644.5q13.5 15.5 13.5 28.5q0 14 -11.5 22.5t-32.5 8.5q-42 0 -78 -20l-10 43q42 22 94 22q47 0 72 -18t25 -49q0 -39 -61 -78h-59q34 25 47.5 40.5z" />
    <glyph glyph-name="emacron" unicode="&#x113;" horiz-adv-x="495" 
d="M103 57q-57 71 -57 206q0 131 57.5 202t156.5 71q95 0 141.5 -70.5t46.5 -188.5q0 -16 -1 -25h-325q-1 -106 38.5 -157t105.5 -51q39 0 73.5 25.5t56.5 64.5l46 -43q-29 -47 -76 -76t-109 -29q-97 0 -154 71zM344 429q-29 50 -91 50q-41 0 -70 -25.5t-43 -65.5t-15 -83
h247q1 74 -28 124zM97 709h319v-55h-319v55z" />
    <glyph glyph-name="eogonek" unicode="&#x119;" horiz-adv-x="495" 
d="M303.5 -173.5q-25.5 18.5 -25.5 57.5q0 49 57 117q-31 -15 -78 -15q-97 0 -154 71t-57 206q0 131 57.5 202t156.5 71q95 0 141.5 -70.5t46.5 -188.5q0 -16 -1 -25h-325q-1 -106 38.5 -157t105.5 -51q39 0 73.5 25.5t56.5 64.5l46 -43l-33 -48q-44 -64 -61.5 -95
t-17.5 -55q0 -40 43 -40q29 0 57 17v-45q-28 -17 -64 -17q-37 0 -62.5 18.5zM344 429q-29 50 -91 50q-41 0 -70 -25.5t-43 -65.5t-15 -83h247q1 74 -28 124z" />
    <glyph glyph-name="uni1EBD" unicode="&#x1ebd;" horiz-adv-x="495" 
d="M103 57q-57 71 -57 206q0 131 57.5 202t156.5 71q95 0 141.5 -70.5t46.5 -188.5q0 -16 -1 -25h-325q-1 -106 38.5 -157t105.5 -51q39 0 73.5 25.5t56.5 64.5l46 -43q-29 -47 -76 -76t-109 -29q-97 0 -154 71zM344 429q-29 50 -91 50q-41 0 -70 -25.5t-43 -65.5t-15 -83
h247q1 74 -28 124zM197 745q15 0 30.5 -6.5t36.5 -18.5q19 -11 31.5 -16.5t24.5 -5.5q19 0 34 13t25 34l33 -24q-16 -31 -39 -54.5t-52 -23.5q-15 0 -30.5 6.5t-39.5 20.5q-38 23 -57 23q-33 0 -63 -51l-31 29q44 74 97 74z" />
    <glyph glyph-name="f" unicode="f" horiz-adv-x="290" 
d="M21 460v62h78v91q0 68 33.5 105.5t97.5 37.5q24 0 47.5 -5t37.5 -12l-20 -61q-26 14 -58 14q-64 0 -64 -76v-94h120l-11 -62h-109v-460h-74v460h-78z" />
    <glyph glyph-name="g" unicode="g" horiz-adv-x="524" 
d="M471 485q-27 0 -61 -21q32 -45 32 -107q0 -53 -25 -94t-68 -63t-95 -22q-50 0 -89 18q-40 -32 -40 -60q0 -32 102 -42l88 -7q87 -8 133 -36.5t46 -86.5q0 -70 -64 -107t-172 -37q-109 0 -167 34t-58 93q0 68 88 102q-30 11 -45.5 30t-15.5 44q0 26 13.5 47t50.5 53
q-29 23 -44 57.5t-15 75.5q0 53 25 94t68.5 63.5t97.5 22.5q71 0 122 -38q26 23 48 34.5t48 11.5l21 -1v-62q-12 4 -24 4zM339 265q31 35 31 92t-29 92.5t-85 35.5t-87.5 -37.5t-31.5 -92.5q0 -54 31.5 -89.5t84.5 -35.5q55 0 86 35zM188 35q-49 -15 -69.5 -33t-20.5 -48
q0 -40 45.5 -59.5t121.5 -19.5q68 0 115 19t47 61q0 32 -31 46.5t-104 22.5z" />
    <glyph glyph-name="gbreve" unicode="&#x11f;" horiz-adv-x="524" 
d="M471 485q-27 0 -61 -21q32 -45 32 -107q0 -53 -25 -94t-68 -63t-95 -22q-50 0 -89 18q-40 -32 -40 -60q0 -32 102 -42l88 -7q87 -8 133 -36.5t46 -86.5q0 -70 -64 -107t-172 -37q-109 0 -167 34t-58 93q0 68 88 102q-30 11 -45.5 30t-15.5 44q0 26 13.5 47t50.5 53
q-29 23 -44 57.5t-15 75.5q0 53 25 94t68.5 63.5t97.5 22.5q71 0 122 -38q26 23 48 34.5t48 11.5l21 -1v-62q-12 4 -24 4zM339 265q31 35 31 92t-29 92.5t-85 35.5t-87.5 -37.5t-31.5 -92.5q0 -54 31.5 -89.5t84.5 -35.5q55 0 86 35zM188 35q-49 -15 -69.5 -33t-20.5 -48
q0 -40 45.5 -59.5t121.5 -19.5q68 0 115 19t47 61q0 32 -31 46.5t-104 22.5zM155 636q-40 40 -51 105h53q9 -40 34 -66t65 -26t66 26t34 66h52q-10 -64 -50.5 -104.5t-101.5 -40.5t-101 40z" />
    <glyph glyph-name="gcircumflex" unicode="&#x11d;" horiz-adv-x="524" 
d="M471 485q-27 0 -61 -21q32 -45 32 -107q0 -53 -25 -94t-68 -63t-95 -22q-50 0 -89 18q-40 -32 -40 -60q0 -32 102 -42l88 -7q87 -8 133 -36.5t46 -86.5q0 -70 -64 -107t-172 -37q-109 0 -167 34t-58 93q0 68 88 102q-30 11 -45.5 30t-15.5 44q0 26 13.5 47t50.5 53
q-29 23 -44 57.5t-15 75.5q0 53 25 94t68.5 63.5t97.5 22.5q71 0 122 -38q26 23 48 34.5t48 11.5l21 -1v-62q-12 4 -24 4zM339 265q31 35 31 92t-29 92.5t-85 35.5t-87.5 -37.5t-31.5 -92.5q0 -54 31.5 -89.5t84.5 -35.5q55 0 86 35zM188 35q-49 -15 -69.5 -33t-20.5 -48
q0 -40 45.5 -59.5t121.5 -19.5q68 0 115 19t47 61q0 32 -31 46.5t-104 22.5zM219 741h74l99 -137h-56l-81 90l-78 -90h-57z" />
    <glyph glyph-name="uni0123" unicode="&#x123;" horiz-adv-x="524" 
d="M471 485q-27 0 -61 -21q32 -45 32 -107q0 -53 -25 -94t-68 -63t-95 -22q-50 0 -89 18q-40 -32 -40 -60q0 -32 102 -42l88 -7q87 -8 133 -36.5t46 -86.5q0 -70 -64 -107t-172 -37q-109 0 -167 34t-58 93q0 68 88 102q-30 11 -45.5 30t-15.5 44q0 26 13.5 47t50.5 53
q-29 23 -44 57.5t-15 75.5q0 53 25 94t68.5 63.5t97.5 22.5q71 0 122 -38q26 23 48 34.5t48 11.5l21 -1v-62q-12 4 -24 4zM339 265q31 35 31 92t-29 92.5t-85 35.5t-87.5 -37.5t-31.5 -92.5q0 -54 31.5 -89.5t84.5 -35.5q55 0 86 35zM188 35q-49 -15 -69.5 -33t-20.5 -48
q0 -40 45.5 -59.5t121.5 -19.5q68 0 115 19t47 61q0 32 -31 46.5t-104 22.5zM310 741h51l-67 -137h-83z" />
    <glyph glyph-name="gdotaccent" unicode="&#x121;" horiz-adv-x="524" 
d="M471 485q-27 0 -61 -21q32 -45 32 -107q0 -53 -25 -94t-68 -63t-95 -22q-50 0 -89 18q-40 -32 -40 -60q0 -32 102 -42l88 -7q87 -8 133 -36.5t46 -86.5q0 -70 -64 -107t-172 -37q-109 0 -167 34t-58 93q0 68 88 102q-30 11 -45.5 30t-15.5 44q0 26 13.5 47t50.5 53
q-29 23 -44 57.5t-15 75.5q0 53 25 94t68.5 63.5t97.5 22.5q71 0 122 -38q26 23 48 34.5t48 11.5l21 -1v-62q-12 4 -24 4zM339 265q31 35 31 92t-29 92.5t-85 35.5t-87.5 -37.5t-31.5 -92.5q0 -54 31.5 -89.5t84.5 -35.5q55 0 86 35zM188 35q-49 -15 -69.5 -33t-20.5 -48
q0 -40 45.5 -59.5t121.5 -19.5q68 0 115 19t47 61q0 32 -31 46.5t-104 22.5zM221 649q-14 14 -14 34t14 34.5t34 14.5t34.5 -14.5t14.5 -34.5t-14.5 -34t-34.5 -14t-34 14z" />
    <glyph glyph-name="h" unicode="h" horiz-adv-x="516" 
d="M155 779v-312q35 31 71.5 50t80.5 19q58 0 94.5 -37.5t36.5 -125.5v-373h-74v371q0 41 -19.5 73t-59.5 32q-56 0 -130 -71v-405h-74v736z" />
    <glyph glyph-name="hbar" unicode="&#x127;" horiz-adv-x="516" 
d="M401.5 498.5q36.5 -37.5 36.5 -125.5v-373h-74v371q0 41 -19.5 73t-59.5 32q-56 0 -130 -71v-405h-74v615h-62v57h62v64l74 43v-107h107v-57h-107v-148q35 31 71.5 50t80.5 19q58 0 94.5 -37.5z" />
    <glyph glyph-name="hcircumflex" unicode="&#x125;" horiz-adv-x="516" 
d="M155 779v-312q35 31 71.5 50t80.5 19q58 0 94.5 -37.5t36.5 -125.5v-373h-74v371q0 41 -19.5 73t-59.5 32q-56 0 -130 -71v-405h-74v736zM82 956h74l99 -137h-56l-81 90l-78 -90h-57z" />
    <glyph glyph-name="i" unicode="i" horiz-adv-x="235" 
d="M79.5 666q-15.5 16 -15.5 37q0 22 15.5 37.5t36.5 15.5t37 -15.5t16 -37.5q0 -21 -16 -37t-37 -16t-36.5 16zM80 522h74v-522h-74v522z" />
    <glyph glyph-name="dotlessi" unicode="&#x131;" horiz-adv-x="235" 
d="M81 522h74v-522h-74v522z" />
    <glyph glyph-name="iacute" unicode="&#xed;" horiz-adv-x="235" 
d="M81 522h74v-522h-74v522zM158 741h83l-98 -137h-52z" />
    <glyph glyph-name="ibreve" unicode="&#x12d;" horiz-adv-x="235" 
d="M81 522h74v-522h-74v522zM17 636q-40 40 -51 105h53q9 -40 34 -66t65 -26t66 26t34 66h52q-10 -64 -50.5 -104.5t-101.5 -40.5t-101 40z" />
    <glyph glyph-name="icircumflex" unicode="&#xee;" horiz-adv-x="235" 
d="M81 522h74v-522h-74v522zM81 741h74l99 -137h-56l-81 90l-78 -90h-57z" />
    <glyph glyph-name="idieresis" unicode="&#xef;" horiz-adv-x="235" 
d="M81 522h74v-522h-74v522zM-2.5 650.5q-13.5 13.5 -13.5 32.5q0 20 13.5 34t32.5 14q20 0 34 -14t14 -34q0 -19 -14 -32.5t-34 -13.5q-19 0 -32.5 13.5zM172 650.5q-14 13.5 -14 32.5q0 20 13.5 34t33.5 14t33.5 -14t13.5 -34q0 -19 -13.5 -32.5t-33.5 -13.5
q-19 0 -33 13.5z" />
    <glyph glyph-name="uni1ECB" unicode="&#x1ecb;" horiz-adv-x="235" 
d="M79.5 666q-15.5 16 -15.5 37q0 22 15.5 37.5t36.5 15.5t37 -15.5t16 -37.5q0 -21 -16 -37t-37 -16t-36.5 16zM80 522h74v-522h-74v522zM86 -154q-14 14 -14 34t14 34t34 14t34.5 -14t14.5 -34t-14.5 -34t-34.5 -14t-34 14z" />
    <glyph glyph-name="igrave" unicode="&#xec;" horiz-adv-x="235" 
d="M81 522h74v-522h-74v522zM-7 741h83l67 -137h-51z" />
    <glyph glyph-name="uni1EC9" unicode="&#x1ec9;" horiz-adv-x="235" 
d="M81 522h74v-522h-74v522zM135.5 644.5q13.5 15.5 13.5 28.5q0 14 -11.5 22.5t-32.5 8.5q-42 0 -78 -20l-10 43q42 22 94 22q47 0 72 -18t25 -49q0 -39 -61 -78h-59q34 25 47.5 40.5z" />
    <glyph glyph-name="ij" unicode="&#x133;" horiz-adv-x="470" 
d="M79.5 666q-15.5 16 -15.5 37q0 22 15.5 37.5t36.5 15.5t37 -15.5t16 -37.5q0 -21 -16 -37t-37 -16t-36.5 16zM80 522h74v-522h-74v522zM314.5 666q-15.5 16 -15.5 37q0 22 15.5 37.5t36.5 15.5t37 -15.5t16 -37.5q0 -21 -16 -37t-37 -16t-36.5 16zM228 -175v62
q24 -4 35 -4q32 0 42 19t10 63v557h74v-558q0 -79 -26 -111.5t-92 -32.5q-20 0 -43 5z" />
    <glyph glyph-name="imacron" unicode="&#x12b;" horiz-adv-x="235" 
d="M81 522h74v-522h-74v522zM-43 709h319v-55h-319v55z" />
    <glyph glyph-name="iogonek" unicode="&#x12f;" horiz-adv-x="235" 
d="M79.5 666q-15.5 16 -15.5 37q0 22 15.5 37.5t36.5 15.5t37 -15.5t16 -37.5q0 -21 -16 -37t-37 -16t-36.5 16zM80 522h74v-522h-6q-50 -25 -76.5 -53.5t-26.5 -55.5q0 -19 11.5 -28.5t30.5 -9.5q29 0 57 17v-45q-27 -17 -64 -17t-62 19t-25 57q0 33 22.5 63.5t64.5 54.5
v520z" />
    <glyph glyph-name="itilde" unicode="&#x129;" horiz-adv-x="235" 
d="M81 522h74v-522h-74v522zM58 745q15 0 30.5 -6.5t36.5 -18.5q19 -11 31.5 -16.5t24.5 -5.5q19 0 34 13t25 34l33 -24q-16 -31 -39 -54.5t-52 -23.5q-15 0 -30.5 6.5t-39.5 20.5q-38 23 -57 23q-33 0 -63 -51l-31 29q44 74 97 74z" />
    <glyph glyph-name="j" unicode="j" horiz-adv-x="235" 
d="M79.5 666q-15.5 16 -15.5 37q0 22 15.5 37.5t36.5 15.5t37 -15.5t16 -37.5q0 -21 -16 -37t-37 -16t-36.5 16zM-7 -175v62q24 -4 35 -4q32 0 42 19t10 63v557h74v-558q0 -79 -26 -111.5t-92 -32.5q-20 0 -43 5z" />
    <glyph glyph-name="uni0237" unicode="&#x237;" horiz-adv-x="235" 
d="M-6 -175v62q22 -4 35 -4q32 0 42 19t10 63v557h74v-558q0 -79 -26 -111.5t-92 -32.5q-20 0 -43 5z" />
    <glyph glyph-name="jcircumflex" unicode="&#x135;" horiz-adv-x="235" 
d="M-6 -175v62q22 -4 35 -4q32 0 42 19t10 63v557h74v-558q0 -79 -26 -111.5t-92 -32.5q-20 0 -43 5zM81 741h74l99 -137h-56l-81 90l-78 -90h-57z" />
    <glyph glyph-name="k" unicode="k" horiz-adv-x="470" 
d="M376 0l-139 288l-82 -98v-190h-74v751l74 42v-386q0 -38 -2 -100l-1 -32h1q47 64 64 85l135 162h88l-150 -178l171 -344h-85z" />
    <glyph glyph-name="uni0137" unicode="&#x137;" horiz-adv-x="470" 
d="M376 0l-139 288l-82 -98v-190h-74v751l74 42v-386q0 -38 -2 -100l-1 -32h1q47 64 64 85l135 162h88l-150 -178l171 -344h-85zM223 -58h83l-98 -137h-52z" />
    <glyph glyph-name="kgreenlandic" unicode="&#x138;" horiz-adv-x="470" 
d="M376 0l-139 288l-82 -98v-190h-74v522h74v-115q0 -38 -2 -100l-1 -32h1q47 64 64 85l135 162h88l-150 -178l171 -344h-85z" />
    <glyph glyph-name="l" unicode="l" horiz-adv-x="235" 
d="M81 736l74 43v-779h-74v736z" />
    <glyph glyph-name="lacute" unicode="&#x13a;" horiz-adv-x="235" 
d="M81 736l74 43v-779h-74v736zM159 955h83l-98 -137h-52z" />
    <glyph glyph-name="lcaron" unicode="&#x13e;" horiz-adv-x="235" 
d="M81 736l74 43v-779h-74v736zM213 779h74l-30 -180h-53z" />
    <glyph glyph-name="uni013C" unicode="&#x13c;" horiz-adv-x="235" 
d="M81 736l74 43v-779h-74v736zM78 -58h83l-98 -137h-52z" />
    <glyph glyph-name="ldot" unicode="&#x140;" horiz-adv-x="308" 
d="M81 736l74 43v-779h-74v736zM230.5 338.5q-16.5 16.5 -16.5 40.5q0 25 16.5 42t40.5 17q25 0 42 -17t17 -42q0 -24 -17 -40.5t-42 -16.5q-24 0 -40.5 16.5z" />
    <glyph glyph-name="lslash" unicode="&#x142;" horiz-adv-x="237" 
d="M251 436l-94 -46v-390h-74v354l-77 -38l-20 45l97 48v327l74 43v-334l74 36z" />
    <glyph glyph-name="m" unicode="m" horiz-adv-x="790" 
d="M155 522v-55q36 32 70.5 50.5t78.5 18.5q89 0 118 -78q44 39 79 58.5t80 19.5q61 0 96 -38t35 -123v-375h-74v377q0 39 -18 69t-58 30q-58 0 -128 -72v-404h-75v377q0 39 -18 69t-58 30q-58 0 -128 -72v-404h-74v522h74z" />
    <glyph glyph-name="n" unicode="n" horiz-adv-x="516" 
d="M155 522v-55q35 31 71.5 50t80.5 19q58 0 94.5 -37.5t36.5 -125.5v-373h-74v371q0 41 -19.5 73t-59.5 32q-56 0 -130 -71v-405h-74v522h74z" />
    <glyph glyph-name="nacute" unicode="&#x144;" horiz-adv-x="516" 
d="M155 522v-55q35 31 71.5 50t80.5 19q58 0 94.5 -37.5t36.5 -125.5v-373h-74v371q0 41 -19.5 73t-59.5 32q-56 0 -130 -71v-405h-74v522h74zM302 741h83l-98 -137h-52z" />
    <glyph glyph-name="napostrophe" unicode="&#x149;" horiz-adv-x="516" 
d="M155 522v-55q35 31 71.5 50t80.5 19q58 0 94.5 -37.5t36.5 -125.5v-373h-74v371q0 41 -19.5 73t-59.5 32q-56 0 -130 -71v-405h-74v522h74zM106 741h79l-51 -137h-54z" />
    <glyph glyph-name="ncaron" unicode="&#x148;" horiz-adv-x="516" 
d="M155 522v-55q35 31 71.5 50t80.5 19q58 0 94.5 -37.5t36.5 -125.5v-373h-74v371q0 41 -19.5 73t-59.5 32q-56 0 -130 -71v-405h-74v522h74zM126 741h57l78 -90l81 90h56l-99 -137h-74z" />
    <glyph glyph-name="uni0146" unicode="&#x146;" horiz-adv-x="516" 
d="M155 522v-55q35 31 71.5 50t80.5 19q58 0 94.5 -37.5t36.5 -125.5v-373h-74v371q0 41 -19.5 73t-59.5 32q-56 0 -130 -71v-405h-74v522h74zM220 -58h83l-98 -137h-52z" />
    <glyph glyph-name="eng" unicode="&#x14b;" horiz-adv-x="516" 
d="M278 -175v62q22 -4 35 -4q32 0 41.5 18.5t9.5 63.5v406q0 41 -19.5 73t-59.5 32q-56 0 -130 -71v-405h-74v522h74v-55q35 31 71.5 50t80.5 19q58 0 94.5 -37.5t36.5 -125.5v-409q0 -79 -25.5 -111.5t-91.5 -32.5q-21 0 -43 5z" />
    <glyph glyph-name="ntilde" unicode="&#xf1;" horiz-adv-x="516" 
d="M155 522v-55q35 31 71.5 50t80.5 19q58 0 94.5 -37.5t36.5 -125.5v-373h-74v371q0 41 -19.5 73t-59.5 32q-56 0 -130 -71v-405h-74v522h74zM202 745q15 0 30.5 -6.5t36.5 -18.5q19 -11 31.5 -16.5t24.5 -5.5q19 0 34 13t25 34l33 -24q-16 -31 -39 -54.5t-52 -23.5
q-15 0 -30.5 6.5t-39.5 20.5q-38 23 -57 23q-33 0 -63 -51l-31 29q44 74 97 74z" />
    <glyph glyph-name="o" unicode="o" horiz-adv-x="511" 
d="M103.5 57q-57.5 71 -57.5 204t57.5 204t152.5 71q96 0 152.5 -71t56.5 -204t-56.5 -204t-152.5 -71q-95 0 -152.5 71zM360.5 108q29.5 65 29.5 153t-29.5 153t-104.5 65q-76 0 -104.5 -64.5t-28.5 -153.5t28.5 -153.5t104.5 -64.5q75 0 104.5 65z" />
    <glyph glyph-name="oacute" unicode="&#xf3;" horiz-adv-x="511" 
d="M103.5 57q-57.5 71 -57.5 204t57.5 204t152.5 71q96 0 152.5 -71t56.5 -204t-56.5 -204t-152.5 -71q-95 0 -152.5 71zM360.5 108q29.5 65 29.5 153t-29.5 153t-104.5 65q-76 0 -104.5 -64.5t-28.5 -153.5t28.5 -153.5t104.5 -64.5q75 0 104.5 65zM296 741h83l-98 -137
h-52z" />
    <glyph glyph-name="obreve" unicode="&#x14f;" horiz-adv-x="511" 
d="M103.5 57q-57.5 71 -57.5 204t57.5 204t152.5 71q96 0 152.5 -71t56.5 -204t-56.5 -204t-152.5 -71q-95 0 -152.5 71zM360.5 108q29.5 65 29.5 153t-29.5 153t-104.5 65q-76 0 -104.5 -64.5t-28.5 -153.5t28.5 -153.5t104.5 -64.5q75 0 104.5 65zM155 636q-40 40 -51 105
h53q9 -40 34 -66t65 -26t66 26t34 66h52q-10 -64 -50.5 -104.5t-101.5 -40.5t-101 40z" />
    <glyph glyph-name="ocircumflex" unicode="&#xf4;" horiz-adv-x="511" 
d="M103.5 57q-57.5 71 -57.5 204t57.5 204t152.5 71q96 0 152.5 -71t56.5 -204t-56.5 -204t-152.5 -71q-95 0 -152.5 71zM360.5 108q29.5 65 29.5 153t-29.5 153t-104.5 65q-76 0 -104.5 -64.5t-28.5 -153.5t28.5 -153.5t104.5 -64.5q75 0 104.5 65zM219 741h74l99 -137h-56
l-81 90l-78 -90h-57z" />
    <glyph glyph-name="uni1ED1" unicode="&#x1ed1;" horiz-adv-x="511" 
d="M103.5 57q-57.5 71 -57.5 204t57.5 204t152.5 71q96 0 152.5 -71t56.5 -204t-56.5 -204t-152.5 -71q-95 0 -152.5 71zM360.5 108q29.5 65 29.5 153t-29.5 153t-104.5 65q-76 0 -104.5 -64.5t-28.5 -153.5t28.5 -153.5t104.5 -64.5q75 0 104.5 65zM297 840h84l-102 -105
h-51zM219 703h74l99 -99h-57l-80 62l-76 -62h-59z" />
    <glyph glyph-name="uni1ED9" unicode="&#x1ed9;" horiz-adv-x="511" 
d="M103.5 57q-57.5 71 -57.5 204t57.5 204t152.5 71q96 0 152.5 -71t56.5 -204t-56.5 -204t-152.5 -71q-95 0 -152.5 71zM360.5 108q29.5 65 29.5 153t-29.5 153t-104.5 65q-76 0 -104.5 -64.5t-28.5 -153.5t28.5 -153.5t104.5 -64.5q75 0 104.5 65zM219 741h74l99 -137h-56
l-81 90l-78 -90h-57zM221 -154q-14 14 -14 34t14 34t34 14t34.5 -14t14.5 -34t-14.5 -34t-34.5 -14t-34 14z" />
    <glyph glyph-name="uni1ED3" unicode="&#x1ed3;" horiz-adv-x="511" 
d="M103.5 57q-57.5 71 -57.5 204t57.5 204t152.5 71q96 0 152.5 -71t56.5 -204t-56.5 -204t-152.5 -71q-95 0 -152.5 71zM360.5 108q29.5 65 29.5 153t-29.5 153t-104.5 65q-76 0 -104.5 -64.5t-28.5 -153.5t28.5 -153.5t104.5 -64.5q75 0 104.5 65zM130 840h84l69 -105h-52
zM219 703h74l99 -99h-57l-80 62l-76 -62h-59z" />
    <glyph glyph-name="uni1ED5" unicode="&#x1ed5;" horiz-adv-x="511" 
d="M103.5 57q-57.5 71 -57.5 204t57.5 204t152.5 71q96 0 152.5 -71t56.5 -204t-56.5 -204t-152.5 -71q-95 0 -152.5 71zM360.5 108q29.5 65 29.5 153t-29.5 153t-104.5 65q-76 0 -104.5 -64.5t-28.5 -153.5t28.5 -153.5t104.5 -64.5q75 0 104.5 65zM383 736q13 14 13 26
q0 11 -11.5 19.5t-32.5 8.5q-41 0 -77 -20l-11 43q44 22 94 22q47 0 72.5 -17.5t25.5 -46.5q0 -35 -56 -72h-62q32 23 45 37zM219 703h74l99 -99h-57l-80 62l-76 -62h-59z" />
    <glyph glyph-name="uni1ED7" unicode="&#x1ed7;" horiz-adv-x="511" 
d="M103.5 57q-57.5 71 -57.5 204t57.5 204t152.5 71q96 0 152.5 -71t56.5 -204t-56.5 -204t-152.5 -71q-95 0 -152.5 71zM360.5 108q29.5 65 29.5 153t-29.5 153t-104.5 65q-76 0 -104.5 -64.5t-28.5 -153.5t28.5 -153.5t104.5 -64.5q75 0 104.5 65zM199 832q14 0 27.5 -5.5
t36.5 -16.5q17 -9 28.5 -14t22.5 -5q26 0 53 46l34 -25q-42 -68 -91 -68q-15 0 -30 6t-35 17q-13 7 -26.5 12.5t-23.5 5.5q-25 0 -54 -46l-32 24q40 69 90 69zM218 703h74l98 -99h-56l-79 62l-77 -62h-59z" />
    <glyph glyph-name="odieresis" unicode="&#xf6;" horiz-adv-x="511" 
d="M103.5 57q-57.5 71 -57.5 204t57.5 204t152.5 71q96 0 152.5 -71t56.5 -204t-56.5 -204t-152.5 -71q-95 0 -152.5 71zM360.5 108q29.5 65 29.5 153t-29.5 153t-104.5 65q-76 0 -104.5 -64.5t-28.5 -153.5t28.5 -153.5t104.5 -64.5q75 0 104.5 65zM135.5 650.5
q-13.5 13.5 -13.5 32.5q0 20 13.5 34t32.5 14q20 0 34 -14t14 -34q0 -19 -14 -32.5t-34 -13.5q-19 0 -32.5 13.5zM310 650.5q-14 13.5 -14 32.5q0 20 13.5 34t33.5 14t33.5 -14t13.5 -34q0 -19 -13.5 -32.5t-33.5 -13.5q-19 0 -33 13.5z" />
    <glyph glyph-name="uni1ECD" unicode="&#x1ecd;" horiz-adv-x="511" 
d="M103.5 57q-57.5 71 -57.5 204t57.5 204t152.5 71q96 0 152.5 -71t56.5 -204t-56.5 -204t-152.5 -71q-95 0 -152.5 71zM360.5 108q29.5 65 29.5 153t-29.5 153t-104.5 65q-76 0 -104.5 -64.5t-28.5 -153.5t28.5 -153.5t104.5 -64.5q75 0 104.5 65zM221 -154q-14 14 -14 34
t14 34t34 14t34.5 -14t14.5 -34t-14.5 -34t-34.5 -14t-34 14z" />
    <glyph glyph-name="ograve" unicode="&#xf2;" horiz-adv-x="511" 
d="M103.5 57q-57.5 71 -57.5 204t57.5 204t152.5 71q96 0 152.5 -71t56.5 -204t-56.5 -204t-152.5 -71q-95 0 -152.5 71zM360.5 108q29.5 65 29.5 153t-29.5 153t-104.5 65q-76 0 -104.5 -64.5t-28.5 -153.5t28.5 -153.5t104.5 -64.5q75 0 104.5 65zM132 741h83l67 -137h-51
z" />
    <glyph glyph-name="uni1ECF" unicode="&#x1ecf;" horiz-adv-x="511" 
d="M103.5 57q-57.5 71 -57.5 204t57.5 204t152.5 71q96 0 152.5 -71t56.5 -204t-56.5 -204t-152.5 -71q-95 0 -152.5 71zM360.5 108q29.5 65 29.5 153t-29.5 153t-104.5 65q-76 0 -104.5 -64.5t-28.5 -153.5t28.5 -153.5t104.5 -64.5q75 0 104.5 65zM274.5 644.5
q13.5 15.5 13.5 28.5q0 14 -11.5 22.5t-32.5 8.5q-42 0 -78 -20l-10 43q42 22 94 22q47 0 72 -18t25 -49q0 -39 -61 -78h-59q34 25 47.5 40.5z" />
    <glyph glyph-name="ohorn" unicode="&#x1a1;" horiz-adv-x="511" 
d="M456 509.5q-20 -27.5 -54 -35.5q63 -72 63 -213q0 -133 -56.5 -204t-152.5 -71q-95 0 -152.5 71t-57.5 204t57.5 204t152.5 71h1v0q30 0 64 -8q26 -6 39 -6q26 0 38 14.5t12 44.5q0 37 -11 77h65q12 -40 12 -80q0 -41 -20 -68.5zM360.5 108q29.5 65 29.5 153t-29.5 153
t-104.5 65q-76 0 -104.5 -64.5t-28.5 -153.5t28.5 -153.5t104.5 -64.5q75 0 104.5 65z" />
    <glyph glyph-name="uni1EDB" unicode="&#x1edb;" horiz-adv-x="511" 
d="M456 509.5q-20 -27.5 -54 -35.5q63 -72 63 -213q0 -133 -56.5 -204t-152.5 -71q-95 0 -152.5 71t-57.5 204t57.5 204t152.5 71h1v0q30 0 64 -8q26 -6 39 -6q26 0 38 14.5t12 44.5q0 37 -11 77h65q12 -40 12 -80q0 -41 -20 -68.5zM360.5 108q29.5 65 29.5 153t-29.5 153
t-104.5 65q-76 0 -104.5 -64.5t-28.5 -153.5t28.5 -153.5t104.5 -64.5q75 0 104.5 65zM296 741h83l-98 -137h-52z" />
    <glyph glyph-name="uni1EE3" unicode="&#x1ee3;" horiz-adv-x="511" 
d="M456 509.5q-20 -27.5 -54 -35.5q63 -72 63 -213q0 -133 -56.5 -204t-152.5 -71q-95 0 -152.5 71t-57.5 204t57.5 204t152.5 71h1v0q30 0 64 -8q26 -6 39 -6q26 0 38 14.5t12 44.5q0 37 -11 77h65q12 -40 12 -80q0 -41 -20 -68.5zM360.5 108q29.5 65 29.5 153t-29.5 153
t-104.5 65q-76 0 -104.5 -64.5t-28.5 -153.5t28.5 -153.5t104.5 -64.5q75 0 104.5 65zM221 -154q-14 14 -14 34t14 34t34 14t34.5 -14t14.5 -34t-14.5 -34t-34.5 -14t-34 14z" />
    <glyph glyph-name="uni1EDD" unicode="&#x1edd;" horiz-adv-x="511" 
d="M456 509.5q-20 -27.5 -54 -35.5q63 -72 63 -213q0 -133 -56.5 -204t-152.5 -71q-95 0 -152.5 71t-57.5 204t57.5 204t152.5 71h1v0q30 0 64 -8q26 -6 39 -6q26 0 38 14.5t12 44.5q0 37 -11 77h65q12 -40 12 -80q0 -41 -20 -68.5zM360.5 108q29.5 65 29.5 153t-29.5 153
t-104.5 65q-76 0 -104.5 -64.5t-28.5 -153.5t28.5 -153.5t104.5 -64.5q75 0 104.5 65zM132 741h83l67 -137h-51z" />
    <glyph glyph-name="uni1EDF" unicode="&#x1edf;" horiz-adv-x="511" 
d="M456 509.5q-20 -27.5 -54 -35.5q63 -72 63 -213q0 -133 -56.5 -204t-152.5 -71q-95 0 -152.5 71t-57.5 204t57.5 204t152.5 71h1v0q30 0 64 -8q26 -6 39 -6q26 0 38 14.5t12 44.5q0 37 -11 77h65q12 -40 12 -80q0 -41 -20 -68.5zM360.5 108q29.5 65 29.5 153t-29.5 153
t-104.5 65q-76 0 -104.5 -64.5t-28.5 -153.5t28.5 -153.5t104.5 -64.5q75 0 104.5 65zM274.5 644.5q13.5 15.5 13.5 28.5q0 14 -11.5 22.5t-32.5 8.5q-42 0 -78 -20l-10 43q42 22 94 22q47 0 72 -18t25 -49q0 -39 -61 -78h-59q34 25 47.5 40.5z" />
    <glyph glyph-name="uni1EE1" unicode="&#x1ee1;" horiz-adv-x="511" 
d="M456 509.5q-20 -27.5 -54 -35.5q63 -72 63 -213q0 -133 -56.5 -204t-152.5 -71q-95 0 -152.5 71t-57.5 204t57.5 204t152.5 71h1v0q30 0 64 -8q26 -6 39 -6q26 0 38 14.5t12 44.5q0 37 -11 77h65q12 -40 12 -80q0 -41 -20 -68.5zM360.5 108q29.5 65 29.5 153t-29.5 153
t-104.5 65q-76 0 -104.5 -64.5t-28.5 -153.5t28.5 -153.5t104.5 -64.5q75 0 104.5 65zM196 745q15 0 30.5 -6.5t36.5 -18.5q19 -11 31.5 -16.5t24.5 -5.5q19 0 34 13t25 34l33 -24q-16 -31 -39 -54.5t-52 -23.5q-15 0 -30.5 6.5t-39.5 20.5q-38 23 -57 23q-33 0 -63 -51
l-31 29q44 74 97 74z" />
    <glyph glyph-name="ohungarumlaut" unicode="&#x151;" horiz-adv-x="511" 
d="M103.5 57q-57.5 71 -57.5 204t57.5 204t152.5 71q96 0 152.5 -71t56.5 -204t-56.5 -204t-152.5 -71q-95 0 -152.5 71zM360.5 108q29.5 65 29.5 153t-29.5 153t-104.5 65q-76 0 -104.5 -64.5t-28.5 -153.5t28.5 -153.5t104.5 -64.5q75 0 104.5 65zM222 741h75l-98 -137
h-45zM383 741h74l-98 -137h-45z" />
    <glyph glyph-name="omacron" unicode="&#x14d;" horiz-adv-x="511" 
d="M103.5 57q-57.5 71 -57.5 204t57.5 204t152.5 71q96 0 152.5 -71t56.5 -204t-56.5 -204t-152.5 -71q-95 0 -152.5 71zM360.5 108q29.5 65 29.5 153t-29.5 153t-104.5 65q-76 0 -104.5 -64.5t-28.5 -153.5t28.5 -153.5t104.5 -64.5q75 0 104.5 65zM95 709h319v-55h-319v55
z" />
    <glyph glyph-name="oslash" unicode="&#xf8;" horiz-adv-x="511" 
d="M465 261q0 -133 -56.5 -204t-152.5 -71q-69 0 -118 37l-37 -61l-41 26l43 70q-57 73 -57 203q0 133 56.5 204t152.5 71q71 0 118 -37l38 61l41 -26l-43 -70q56 -74 56 -203zM151 414q-29 -65 -29 -153q0 -62 7.5 -99t8.5 -42h2l201 326q-36 33 -86 33q-75 0 -104 -65z
M361 108q29 65 29 153q0 45 -4.5 76.5t-12.5 64.5h-2l-200 -326q36 -33 85 -33q76 0 105 65z" />
    <glyph glyph-name="otilde" unicode="&#xf5;" horiz-adv-x="511" 
d="M103.5 57q-57.5 71 -57.5 204t57.5 204t152.5 71q96 0 152.5 -71t56.5 -204t-56.5 -204t-152.5 -71q-95 0 -152.5 71zM360.5 108q29.5 65 29.5 153t-29.5 153t-104.5 65q-76 0 -104.5 -64.5t-28.5 -153.5t28.5 -153.5t104.5 -64.5q75 0 104.5 65zM196 745q15 0 30.5 -6.5
t36.5 -18.5q19 -11 31.5 -16.5t24.5 -5.5q19 0 34 13t25 34l33 -24q-16 -31 -39 -54.5t-52 -23.5q-15 0 -30.5 6.5t-39.5 20.5q-38 23 -57 23q-33 0 -63 -51l-31 29q44 74 97 74z" />
    <glyph glyph-name="oe" unicode="&#x153;" horiz-adv-x="834" 
d="M103.5 57q-57.5 71 -57.5 204t57.5 204t152.5 71q58 0 101.5 -27.5t67.5 -82.5q25 54 69.5 82t104.5 28q95 0 141.5 -70.5t46.5 -188.5q0 -16 -1 -25h-325q-1 -106 38.5 -157t106.5 -51q39 0 73 25.5t56 64.5l46 -43q-29 -47 -76 -76t-109 -29q-59 0 -103 27t-68 83
q-48 -110 -169 -110q-95 0 -152.5 71zM360.5 108q29.5 65 29.5 153t-29.5 153t-104.5 65q-76 0 -104.5 -64.5t-28.5 -153.5t28.5 -153.5t104.5 -64.5q75 0 104.5 65zM683 429q-29 50 -90 50t-94.5 -52.5t-35.5 -121.5h248q1 74 -28 124z" />
    <glyph glyph-name="p" unicode="p" horiz-adv-x="530" 
d="M155 522v-54q31 32 62 50t70 18q47 0 91.5 -29t73.5 -91.5t29 -158.5q0 -97 -30.5 -157.5t-75 -87t-90.5 -26.5q-73 0 -130 69v-223h-74v690h74zM335 65q31 20 51.5 66.5t20.5 121.5q0 88 -34.5 153t-102.5 65q-35 0 -65 -22t-50 -56v-258q18 -36 49.5 -63t65.5 -27
t65 20z" />
    <glyph glyph-name="thorn" unicode="&#xfe;" horiz-adv-x="530" 
d="M155 779v-311q31 32 62 50t70 18q47 0 91.5 -29t73.5 -91.5t29 -158.5q0 -97 -30.5 -157.5t-75 -87t-90.5 -26.5q-73 0 -130 69v-223h-74v904zM335 65q31 20 51.5 66.5t20.5 121.5q0 88 -34.5 153t-102.5 65q-37 0 -66.5 -22t-48.5 -56v-258q18 -36 49.5 -63t65.5 -27
t65 20z" />
    <glyph glyph-name="q" unicode="q" horiz-adv-x="530" 
d="M313.5 3.5q-30.5 -17.5 -69.5 -17.5q-45 0 -90 26.5t-75.5 87t-30.5 157.5q0 95 29 158t74 92t92 29q39 0 71 -17.5t62 -48.5v52h73v-677l-74 -24v233q-31 -33 -61.5 -50.5zM326 73.5q31 25.5 49 57.5v267q-21 32 -50.5 53t-65.5 21q-69 0 -103 -63.5t-34 -155.5
q0 -68 21 -114.5t53.5 -68.5t65.5 -22t64 25.5z" />
    <glyph glyph-name="r" unicode="r" horiz-adv-x="352" 
d="M155 522v-102q40 57 77 85t86 28q13 0 26 -3v-74q-20 4 -33 4q-38 0 -74 -27.5t-82 -93.5v-339h-74v522h74z" />
    <glyph glyph-name="racute" unicode="&#x155;" horiz-adv-x="352" 
d="M155 522v-102q40 57 77 85t86 28q13 0 26 -3v-74q-20 4 -33 4q-38 0 -74 -27.5t-82 -93.5v-339h-74v522h74zM257 741h83l-98 -137h-52z" />
    <glyph glyph-name="rcaron" unicode="&#x159;" horiz-adv-x="352" 
d="M155 522v-102q40 57 77 85t86 28q13 0 26 -3v-74q-20 4 -33 4q-38 0 -74 -27.5t-82 -93.5v-339h-74v522h74zM81 741h57l78 -90l81 90h56l-99 -137h-74z" />
    <glyph glyph-name="uni0157" unicode="&#x157;" horiz-adv-x="352" 
d="M155 522v-102q40 57 77 85t86 28q13 0 26 -3v-74q-20 4 -33 4q-38 0 -74 -27.5t-82 -93.5v-339h-74v522h74zM80 -58h83l-98 -137h-52z" />
    <glyph glyph-name="s" unicode="s" horiz-adv-x="453" 
d="M129 9.5q-47 23.5 -80 70.5l48 48q24 -37 60 -60t79 -23q45 0 75.5 23.5t30.5 65.5q0 29 -16.5 48t-41 30t-66.5 24q-51 16 -82.5 31t-53.5 44t-22 76q0 69 48 109t121 40q48 0 89.5 -19t69.5 -54l-39 -51q-54 66 -122 66q-42 0 -70 -22t-28 -61q0 -29 16.5 -47.5
t41 -29.5t66.5 -24q52 -17 83.5 -32t53.5 -44t22 -76q0 -71 -50.5 -113.5t-128.5 -42.5q-57 0 -104 23.5z" />
    <glyph glyph-name="sacute" unicode="&#x15b;" horiz-adv-x="453" 
d="M129 9.5q-47 23.5 -80 70.5l48 48q24 -37 60 -60t79 -23q45 0 75.5 23.5t30.5 65.5q0 29 -16.5 48t-41 30t-66.5 24q-51 16 -82.5 31t-53.5 44t-22 76q0 69 48 109t121 40q48 0 89.5 -19t69.5 -54l-39 -51q-54 66 -122 66q-42 0 -70 -22t-28 -61q0 -29 16.5 -47.5
t41 -29.5t66.5 -24q52 -17 83.5 -32t53.5 -44t22 -76q0 -71 -50.5 -113.5t-128.5 -42.5q-57 0 -104 23.5zM269 741h83l-98 -137h-52z" />
    <glyph glyph-name="scaron" unicode="&#x161;" horiz-adv-x="453" 
d="M129 9.5q-47 23.5 -80 70.5l48 48q24 -37 60 -60t79 -23q45 0 75.5 23.5t30.5 65.5q0 29 -16.5 48t-41 30t-66.5 24q-51 16 -82.5 31t-53.5 44t-22 76q0 69 48 109t121 40q48 0 89.5 -19t69.5 -54l-39 -51q-54 66 -122 66q-42 0 -70 -22t-28 -61q0 -29 16.5 -47.5
t41 -29.5t66.5 -24q52 -17 83.5 -32t53.5 -44t22 -76q0 -71 -50.5 -113.5t-128.5 -42.5q-57 0 -104 23.5zM93 741h57l78 -90l81 90h56l-99 -137h-74z" />
    <glyph glyph-name="scedilla" unicode="&#x15f;" horiz-adv-x="453" 
d="M369 35.5q-43 -41.5 -111 -48.5l-23 -35q42 -8 66.5 -24.5t24.5 -50.5q0 -38 -30 -58.5t-74 -20.5q-23 0 -49 5t-39 14l12 43q11 -8 33 -14t41 -6q23 0 36 8.5t13 25.5q0 23 -26 33t-80 14l44 66q-101 11 -158 93l48 48q24 -37 60 -60t79 -23q45 0 75.5 23.5t30.5 65.5
q0 29 -16.5 48t-41 30t-66.5 24q-51 16 -82.5 31t-53.5 44t-22 76q0 69 48 109t121 40q48 0 89.5 -19t69.5 -54l-39 -51q-54 66 -122 66q-42 0 -70 -22t-28 -61q0 -29 16.5 -47.5t41 -29.5t66.5 -24q52 -17 83.5 -32t53.5 -44t22 -76q0 -65 -43 -106.5z" />
    <glyph glyph-name="scircumflex" unicode="&#x15d;" horiz-adv-x="453" 
d="M129 9.5q-47 23.5 -80 70.5l48 48q24 -37 60 -60t79 -23q45 0 75.5 23.5t30.5 65.5q0 29 -16.5 48t-41 30t-66.5 24q-51 16 -82.5 31t-53.5 44t-22 76q0 69 48 109t121 40q48 0 89.5 -19t69.5 -54l-39 -51q-54 66 -122 66q-42 0 -70 -22t-28 -61q0 -29 16.5 -47.5
t41 -29.5t66.5 -24q52 -17 83.5 -32t53.5 -44t22 -76q0 -71 -50.5 -113.5t-128.5 -42.5q-57 0 -104 23.5zM192 741h74l99 -137h-56l-81 90l-78 -90h-57z" />
    <glyph glyph-name="uni0219" unicode="&#x219;" horiz-adv-x="453" 
d="M129 9.5q-47 23.5 -80 70.5l48 48q24 -37 60 -60t79 -23q45 0 75.5 23.5t30.5 65.5q0 29 -16.5 48t-41 30t-66.5 24q-51 16 -82.5 31t-53.5 44t-22 76q0 69 48 109t121 40q48 0 89.5 -19t69.5 -54l-39 -51q-54 66 -122 66q-42 0 -70 -22t-28 -61q0 -29 16.5 -47.5
t41 -29.5t66.5 -24q52 -17 83.5 -32t53.5 -44t22 -76q0 -71 -50.5 -113.5t-128.5 -42.5q-57 0 -104 23.5zM198 -58h83l-98 -137h-52z" />
    <glyph glyph-name="germandbls" unicode="&#xdf;" horiz-adv-x="529" 
d="M239 -5v59q16 -8 41 -8q56 0 89.5 54.5t33.5 139.5q0 75 -34.5 123.5t-114.5 48.5h-14v58h6q55 1 88.5 31t33.5 86q0 50 -28 83t-76 33q-45 0 -77 -31t-32 -99v-573h-74v563q0 112 55.5 156.5t126.5 44.5q83 0 129.5 -46.5t46.5 -122.5q0 -51 -23.5 -89.5t-69.5 -58.5
q73 -22 104 -79.5t31 -136.5q0 -82 -28 -137t-71.5 -81t-89.5 -26q-33 0 -53 8z" />
    <glyph glyph-name="longs" unicode="&#x17f;" horiz-adv-x="261" 
d="M21 460v62h78v91q0 68 33.5 105.5t97.5 37.5q24 0 47.5 -5t37.5 -12l-20 -61q-26 14 -58 14q-64 0 -64 -76v-616h-74v460h-78z" />
    <glyph glyph-name="t" unicode="t" horiz-adv-x="318" 
d="M124.5 21.5q-26.5 35.5 -26.5 115.5v323h-76v62h76v139l74 45v-184h117v-62h-117v-337q0 -76 55 -76q29 0 63 26l2 -63q-40 -24 -83 -24q-58 0 -84.5 35.5z" />
    <glyph glyph-name="tbar" unicode="&#x167;" horiz-adv-x="319" 
d="M293 10q-40 -24 -83 -24q-58 0 -84.5 35.5t-26.5 115.5v117h-75v55h75v151h-77v62h77v139l74 45v-184h117v-62h-117v-151h114v-55h-114v-131q0 -76 55 -76q27 0 63 26z" />
    <glyph glyph-name="tcaron" unicode="&#x165;" horiz-adv-x="318" 
d="M124.5 21.5q-26.5 35.5 -26.5 115.5v323h-76v62h76v139l74 45v-184h117v-62h-117v-337q0 -76 55 -76q29 0 63 26l2 -63q-40 -24 -83 -24q-58 0 -84.5 35.5zM248 779h74l-30 -180h-53z" />
    <glyph glyph-name="uni0163" unicode="&#x163;" horiz-adv-x="318" 
d="M124.5 21.5q-26.5 35.5 -26.5 115.5v323h-76v62h76v139l74 45v-184h117v-62h-117v-337q0 -76 55 -76q29 0 63 26l2 -63q-40 -24 -83 -24q-58 0 -84.5 35.5zM156 -58h83l-98 -137h-52z" />
    <glyph glyph-name="uni021B" unicode="&#x21b;" horiz-adv-x="318" 
d="M124.5 21.5q-26.5 35.5 -26.5 115.5v323h-76v62h76v139l74 45v-184h117v-62h-117v-337q0 -76 55 -76q29 0 63 26l2 -63q-40 -24 -83 -24q-58 0 -84.5 35.5zM156 -58h83l-98 -137h-52z" />
    <glyph glyph-name="u" unicode="u" horiz-adv-x="516" 
d="M114.5 23.5q-36.5 37.5 -36.5 124.5v374h74v-372q0 -40 19.5 -72t60.5 -32q33 0 65.5 20.5t64.5 50.5v405h74v-522h-74v54q-37 -31 -73 -49.5t-80 -18.5q-58 0 -94.5 37.5z" />
    <glyph glyph-name="uacute" unicode="&#xfa;" horiz-adv-x="516" 
d="M114.5 23.5q-36.5 37.5 -36.5 124.5v374h74v-372q0 -40 19.5 -72t60.5 -32q33 0 65.5 20.5t64.5 50.5v405h74v-522h-74v54q-37 -31 -73 -49.5t-80 -18.5q-58 0 -94.5 37.5zM302 741h83l-98 -137h-52z" />
    <glyph glyph-name="ubreve" unicode="&#x16d;" horiz-adv-x="516" 
d="M114.5 23.5q-36.5 37.5 -36.5 124.5v374h74v-372q0 -40 19.5 -72t60.5 -32q33 0 65.5 20.5t64.5 50.5v405h74v-522h-74v54q-37 -31 -73 -49.5t-80 -18.5q-58 0 -94.5 37.5zM160 636q-40 40 -51 105h53q9 -40 34 -66t65 -26t66 26t34 66h52q-10 -64 -50.5 -104.5
t-101.5 -40.5t-101 40z" />
    <glyph glyph-name="ucircumflex" unicode="&#xfb;" horiz-adv-x="516" 
d="M114.5 23.5q-36.5 37.5 -36.5 124.5v374h74v-372q0 -40 19.5 -72t60.5 -32q33 0 65.5 20.5t64.5 50.5v405h74v-522h-74v54q-37 -31 -73 -49.5t-80 -18.5q-58 0 -94.5 37.5zM225 741h74l99 -137h-56l-81 90l-78 -90h-57z" />
    <glyph glyph-name="udieresis" unicode="&#xfc;" horiz-adv-x="516" 
d="M114.5 23.5q-36.5 37.5 -36.5 124.5v374h74v-372q0 -40 19.5 -72t60.5 -32q33 0 65.5 20.5t64.5 50.5v405h74v-522h-74v54q-37 -31 -73 -49.5t-80 -18.5q-58 0 -94.5 37.5zM140.5 650.5q-13.5 13.5 -13.5 32.5q0 20 13.5 34t32.5 14q20 0 34 -14t14 -34q0 -19 -14 -32.5
t-34 -13.5q-19 0 -32.5 13.5zM315 650.5q-14 13.5 -14 32.5q0 20 13.5 34t33.5 14t33.5 -14t13.5 -34q0 -19 -13.5 -32.5t-33.5 -13.5q-19 0 -33 13.5z" />
    <glyph glyph-name="uni1EE5" unicode="&#x1ee5;" horiz-adv-x="516" 
d="M114.5 23.5q-36.5 37.5 -36.5 124.5v374h74v-372q0 -40 19.5 -72t60.5 -32q33 0 65.5 20.5t64.5 50.5v405h74v-522h-74v54q-37 -31 -73 -49.5t-80 -18.5q-58 0 -94.5 37.5zM216 -154q-14 14 -14 34t14 34t34 14t34.5 -14t14.5 -34t-14.5 -34t-34.5 -14t-34 14z" />
    <glyph glyph-name="ugrave" unicode="&#xf9;" horiz-adv-x="516" 
d="M114.5 23.5q-36.5 37.5 -36.5 124.5v374h74v-372q0 -40 19.5 -72t60.5 -32q33 0 65.5 20.5t64.5 50.5v405h74v-522h-74v54q-37 -31 -73 -49.5t-80 -18.5q-58 0 -94.5 37.5zM137 741h83l67 -137h-51z" />
    <glyph glyph-name="uni1EE7" unicode="&#x1ee7;" horiz-adv-x="516" 
d="M114.5 23.5q-36.5 37.5 -36.5 124.5v374h74v-372q0 -40 19.5 -72t60.5 -32q33 0 65.5 20.5t64.5 50.5v405h74v-522h-74v54q-37 -31 -73 -49.5t-80 -18.5q-58 0 -94.5 37.5zM279.5 644.5q13.5 15.5 13.5 28.5q0 14 -11.5 22.5t-32.5 8.5q-42 0 -78 -20l-10 43q42 22 94 22
q47 0 72 -18t25 -49q0 -39 -61 -78h-59q34 25 47.5 40.5z" />
    <glyph glyph-name="uhorn" unicode="&#x1b0;" horiz-adv-x="516" 
d="M498.5 504q-24.5 -28 -62.5 -32v-472h-74v54q-37 -31 -73 -49.5t-80 -18.5q-58 0 -94.5 37.5t-36.5 124.5v374h74v-372q0 -40 19.5 -72t60.5 -32q33 0 65.5 20.5t64.5 50.5v405h42q28 0 40.5 14.5t12.5 44.5q0 42 -11 77h66q11 -41 11 -80q0 -46 -24.5 -74z" />
    <glyph glyph-name="uni1EE9" unicode="&#x1ee9;" horiz-adv-x="516" 
d="M498.5 504q-24.5 -28 -62.5 -32v-472h-74v54q-37 -31 -73 -49.5t-80 -18.5q-58 0 -94.5 37.5t-36.5 124.5v374h74v-372q0 -40 19.5 -72t60.5 -32q33 0 65.5 20.5t64.5 50.5v405h42q28 0 40.5 14.5t12.5 44.5q0 42 -11 77h66q11 -41 11 -80q0 -46 -24.5 -74zM299 741h83
l-98 -137h-52z" />
    <glyph glyph-name="uni1EF1" unicode="&#x1ef1;" horiz-adv-x="516" 
d="M498.5 504q-24.5 -28 -62.5 -32v-472h-74v54q-37 -31 -73 -49.5t-80 -18.5q-58 0 -94.5 37.5t-36.5 124.5v374h74v-372q0 -40 19.5 -72t60.5 -32q33 0 65.5 20.5t64.5 50.5v405h42q28 0 40.5 14.5t12.5 44.5q0 42 -11 77h66q11 -41 11 -80q0 -46 -24.5 -74zM223 -154
q-14 14 -14 34t14 34t34 14t34.5 -14t14.5 -34t-14.5 -34t-34.5 -14t-34 14z" />
    <glyph glyph-name="uni1EEB" unicode="&#x1eeb;" horiz-adv-x="516" 
d="M498.5 504q-24.5 -28 -62.5 -32v-472h-74v54q-37 -31 -73 -49.5t-80 -18.5q-58 0 -94.5 37.5t-36.5 124.5v374h74v-372q0 -40 19.5 -72t60.5 -32q33 0 65.5 20.5t64.5 50.5v405h42q28 0 40.5 14.5t12.5 44.5q0 42 -11 77h66q11 -41 11 -80q0 -46 -24.5 -74zM134 741h83
l67 -137h-51z" />
    <glyph glyph-name="uni1EED" unicode="&#x1eed;" horiz-adv-x="516" 
d="M498.5 504q-24.5 -28 -62.5 -32v-472h-74v54q-37 -31 -73 -49.5t-80 -18.5q-58 0 -94.5 37.5t-36.5 124.5v374h74v-372q0 -40 19.5 -72t60.5 -32q33 0 65.5 20.5t64.5 50.5v405h42q28 0 40.5 14.5t12.5 44.5q0 42 -11 77h66q11 -41 11 -80q0 -46 -24.5 -74zM276.5 644.5
q13.5 15.5 13.5 28.5q0 14 -11.5 22.5t-32.5 8.5q-42 0 -78 -20l-10 43q42 22 94 22q47 0 72 -18t25 -49q0 -39 -61 -78h-59q34 25 47.5 40.5z" />
    <glyph glyph-name="uni1EEF" unicode="&#x1eef;" horiz-adv-x="516" 
d="M498.5 504q-24.5 -28 -62.5 -32v-472h-74v54q-37 -31 -73 -49.5t-80 -18.5q-58 0 -94.5 37.5t-36.5 124.5v374h74v-372q0 -40 19.5 -72t60.5 -32q33 0 65.5 20.5t64.5 50.5v405h42q28 0 40.5 14.5t12.5 44.5q0 42 -11 77h66q11 -41 11 -80q0 -46 -24.5 -74zM199 745
q15 0 30.5 -6.5t36.5 -18.5q19 -11 31.5 -16.5t24.5 -5.5q19 0 34 13t25 34l33 -24q-16 -31 -39 -54.5t-52 -23.5q-15 0 -30.5 6.5t-39.5 20.5q-38 23 -57 23q-33 0 -63 -51l-31 29q44 74 97 74z" />
    <glyph glyph-name="uhungarumlaut" unicode="&#x171;" horiz-adv-x="516" 
d="M114.5 23.5q-36.5 37.5 -36.5 124.5v374h74v-372q0 -40 19.5 -72t60.5 -32q33 0 65.5 20.5t64.5 50.5v405h74v-522h-74v54q-37 -31 -73 -49.5t-80 -18.5q-58 0 -94.5 37.5zM228 741h75l-98 -137h-45zM389 741h74l-98 -137h-45z" />
    <glyph glyph-name="umacron" unicode="&#x16b;" horiz-adv-x="516" 
d="M114.5 23.5q-36.5 37.5 -36.5 124.5v374h74v-372q0 -40 19.5 -72t60.5 -32q33 0 65.5 20.5t64.5 50.5v405h74v-522h-74v54q-37 -31 -73 -49.5t-80 -18.5q-58 0 -94.5 37.5zM101 709h319v-55h-319v55z" />
    <glyph glyph-name="uogonek" unicode="&#x173;" horiz-adv-x="516" 
d="M436 522v-522h-7q-51 -25 -77.5 -53.5t-26.5 -55.5q0 -19 11.5 -28.5t30.5 -9.5q30 0 58 17v-45q-28 -17 -64 -17q-37 0 -62.5 18.5t-25.5 57.5q0 33 23.5 64t65.5 55v51q-37 -31 -73 -49.5t-80 -18.5q-58 0 -94.5 37.5t-36.5 124.5v374h74v-372q0 -40 19.5 -72t60.5 -32
q33 0 65.5 20.5t64.5 50.5v405h74z" />
    <glyph glyph-name="uring" unicode="&#x16f;" horiz-adv-x="516" 
d="M114.5 23.5q-36.5 37.5 -36.5 124.5v374h74v-372q0 -40 19.5 -72t60.5 -32q33 0 65.5 20.5t64.5 50.5v405h74v-522h-74v54q-37 -31 -73 -49.5t-80 -18.5q-58 0 -94.5 37.5zM202 609q-25 25 -25 60t25 60t59 25q35 0 60 -25t25 -60t-25 -60t-60 -25q-34 0 -59 25z
M293.5 637.5q13.5 13.5 13.5 31.5t-13.5 32t-32.5 14q-18 0 -31.5 -14t-13.5 -32t13.5 -31.5t31.5 -13.5q19 0 32.5 13.5z" />
    <glyph glyph-name="utilde" unicode="&#x169;" horiz-adv-x="516" 
d="M114.5 23.5q-36.5 37.5 -36.5 124.5v374h74v-372q0 -40 19.5 -72t60.5 -32q33 0 65.5 20.5t64.5 50.5v405h74v-522h-74v54q-37 -31 -73 -49.5t-80 -18.5q-58 0 -94.5 37.5zM202 745q15 0 30.5 -6.5t36.5 -18.5q19 -11 31.5 -16.5t24.5 -5.5q19 0 34 13t25 34l33 -24
q-16 -31 -39 -54.5t-52 -23.5q-15 0 -30.5 6.5t-39.5 20.5q-38 23 -57 23q-33 0 -63 -51l-31 29q44 74 97 74z" />
    <glyph glyph-name="v" unicode="v" horiz-adv-x="420" 
d="M2 522h80l130 -449h2l129 449h75l-161 -522h-90z" />
    <glyph glyph-name="w" unicode="w" horiz-adv-x="636" 
d="M5 522h70l103 -435h1l104 435h78l97 -434h1l105 434h67l-137 -522h-77l-97 428h-2l-102 -428h-78z" />
    <glyph glyph-name="wacute" unicode="&#x1e83;" horiz-adv-x="636" 
d="M5 522h70l103 -435h1l104 435h78l97 -434h1l105 434h67l-137 -522h-77l-97 428h-2l-102 -428h-78zM360 741h83l-98 -137h-52z" />
    <glyph glyph-name="wcircumflex" unicode="&#x175;" horiz-adv-x="636" 
d="M5 522h70l103 -435h1l104 435h78l97 -434h1l105 434h67l-137 -522h-77l-97 428h-2l-102 -428h-78zM283 741h74l99 -137h-56l-81 90l-78 -90h-57z" />
    <glyph glyph-name="wdieresis" unicode="&#x1e85;" horiz-adv-x="636" 
d="M5 522h70l103 -435h1l104 435h78l97 -434h1l105 434h67l-137 -522h-77l-97 428h-2l-102 -428h-78zM199.5 650.5q-13.5 13.5 -13.5 32.5q0 20 13.5 34t32.5 14q20 0 34 -14t14 -34q0 -19 -14 -32.5t-34 -13.5q-19 0 -32.5 13.5zM374 650.5q-14 13.5 -14 32.5q0 20 13.5 34
t33.5 14t33.5 -14t13.5 -34q0 -19 -13.5 -32.5t-33.5 -13.5q-19 0 -33 13.5z" />
    <glyph glyph-name="wgrave" unicode="&#x1e81;" horiz-adv-x="636" 
d="M5 522h70l103 -435h1l104 435h78l97 -434h1l105 434h67l-137 -522h-77l-97 428h-2l-102 -428h-78zM196 741h83l67 -137h-51z" />
    <glyph glyph-name="x" unicode="x" horiz-adv-x="456" 
d="M265 277l173 -277h-85l-133 221h-2l-123 -221h-77l160 273l-157 249h84l116 -196h2l110 196h77z" />
    <glyph glyph-name="y" unicode="y" horiz-adv-x="441" 
d="M18 -177l7 63q21 -8 42 -8q55 0 82 32t46 92l-187 520h79l146 -423h1l132 423h72l-184 -555q-26 -77 -65 -114.5t-113 -37.5q-31 0 -58 8z" />
    <glyph glyph-name="yacute" unicode="&#xfd;" horiz-adv-x="441" 
d="M18 -177l7 63q21 -8 42 -8q55 0 82 32t46 92l-187 520h79l146 -423h1l132 423h72l-184 -555q-26 -77 -65 -114.5t-113 -37.5q-31 0 -58 8zM278 741h83l-98 -137h-52z" />
    <glyph glyph-name="ycircumflex" unicode="&#x177;" horiz-adv-x="441" 
d="M18 -177l7 63q21 -8 42 -8q55 0 82 32t46 92l-187 520h79l146 -423h1l132 423h72l-184 -555q-26 -77 -65 -114.5t-113 -37.5q-31 0 -58 8zM201 741h74l99 -137h-56l-81 90l-78 -90h-57z" />
    <glyph glyph-name="ydieresis" unicode="&#xff;" horiz-adv-x="441" 
d="M18 -177l7 63q21 -8 42 -8q55 0 82 32t46 92l-187 520h79l146 -423h1l132 423h72l-184 -555q-26 -77 -65 -114.5t-113 -37.5q-31 0 -58 8zM117.5 650.5q-13.5 13.5 -13.5 32.5q0 20 13.5 34t32.5 14q20 0 34 -14t14 -34q0 -19 -14 -32.5t-34 -13.5q-19 0 -32.5 13.5z
M292 650.5q-14 13.5 -14 32.5q0 20 13.5 34t33.5 14t33.5 -14t13.5 -34q0 -19 -13.5 -32.5t-33.5 -13.5q-19 0 -33 13.5z" />
    <glyph glyph-name="uni1EF5" unicode="&#x1ef5;" horiz-adv-x="441" 
d="M18 -177l7 63q21 -8 42 -8q55 0 82 32t46 92l-187 520h79l146 -423h1l132 423h72l-184 -555q-26 -77 -65 -114.5t-113 -37.5q-31 0 -58 8zM305 -154q-14 14 -14 34t14 34t34 14t34.5 -14t14.5 -34t-14.5 -34t-34.5 -14t-34 14z" />
    <glyph glyph-name="ygrave" unicode="&#x1ef3;" horiz-adv-x="441" 
d="M18 -177l7 63q21 -8 42 -8q55 0 82 32t46 92l-187 520h79l146 -423h1l132 423h72l-184 -555q-26 -77 -65 -114.5t-113 -37.5q-31 0 -58 8zM113 741h83l67 -137h-51z" />
    <glyph glyph-name="uni1EF7" unicode="&#x1ef7;" horiz-adv-x="441" 
d="M18 -177l7 63q21 -8 42 -8q55 0 82 32t46 92l-187 520h79l146 -423h1l132 423h72l-184 -555q-26 -77 -65 -114.5t-113 -37.5q-31 0 -58 8zM255.5 644.5q13.5 15.5 13.5 28.5q0 14 -11.5 22.5t-32.5 8.5q-42 0 -78 -20l-10 43q42 22 94 22q47 0 72 -18t25 -49
q0 -39 -61 -78h-59q34 25 47.5 40.5z" />
    <glyph glyph-name="uni1EF9" unicode="&#x1ef9;" horiz-adv-x="441" 
d="M18 -177l7 63q21 -8 42 -8q55 0 82 32t46 92l-187 520h79l146 -423h1l132 423h72l-184 -555q-26 -77 -65 -114.5t-113 -37.5q-31 0 -58 8zM178 745q15 0 30.5 -6.5t36.5 -18.5q19 -11 31.5 -16.5t24.5 -5.5q19 0 34 13t25 34l33 -24q-16 -31 -39 -54.5t-52 -23.5
q-15 0 -30.5 6.5t-39.5 20.5q-38 23 -57 23q-33 0 -63 -51l-31 29q44 74 97 74z" />
    <glyph glyph-name="z" unicode="z" horiz-adv-x="414" 
d="M385 522v-46l-268 -415h268v-61h-356v50l264 411h-242v61h334z" />
    <glyph glyph-name="zacute" unicode="&#x17a;" horiz-adv-x="414" 
d="M385 522v-46l-268 -415h268v-61h-356v50l264 411h-242v61h334zM251 741h83l-98 -137h-52z" />
    <glyph glyph-name="zcaron" unicode="&#x17e;" horiz-adv-x="414" 
d="M385 522v-46l-268 -415h268v-61h-356v50l264 411h-242v61h334zM74 741h57l78 -90l81 90h56l-99 -137h-74z" />
    <glyph glyph-name="zdotaccent" unicode="&#x17c;" horiz-adv-x="414" 
d="M385 522v-46l-268 -415h268v-61h-356v50l264 411h-242v61h334zM175 649q-14 14 -14 34t14 34.5t34 14.5t34.5 -14.5t14.5 -34.5t-14.5 -34t-34.5 -14t-34 14z" />
    <glyph glyph-name="f.calt" horiz-adv-x="290" 
d="M21 460v62h78v91q0 68 33.5 105.5t97.5 37.5q24 0 47.5 -5t37.5 -12l-20 -61q-26 14 -58 14q-64 0 -64 -76v-94h99l-12 -62h-87v-460h-74v460h-78z" />
    <glyph glyph-name="t.calt" horiz-adv-x="318" 
d="M124.5 21.5q-26.5 35.5 -26.5 115.5v323h-76v62h76v139l74 45v-184h113v-62h-113v-337q0 -76 55 -76q29 0 63 26l2 -63q-40 -24 -83 -24q-58 0 -84.5 35.5z" />
    <glyph glyph-name="f.calt2" horiz-adv-x="290" 
d="M21 460v62h78v91q0 68 33 105.5t97 37.5q46 0 82 -16l-20 -61q-26 13 -56 13q-32 0 -47 -20.5t-15 -55.5v-94h120l-11 -62h-109v-460h-74v460h-78z" />
    <glyph glyph-name="i.locl" horiz-adv-x="235" 
d="M79.5 666q-15.5 16 -15.5 37q0 22 15.5 37.5t36.5 15.5t37 -15.5t16 -37.5q0 -21 -16 -37t-37 -16t-36.5 16zM80 522h74v-522h-74v522z" />
    <glyph glyph-name="g.ss01" horiz-adv-x="530" 
d="M135.5 -152q-50.5 30 -63.5 86l63 41q4 -42 37.5 -67t79.5 -25q52 0 87.5 34.5t35.5 105.5v69q-32 -34 -62.5 -51t-70.5 -17q-46 0 -90 21.5t-74 78t-30 152.5q0 95 29 153t73 82.5t91 24.5q42 0 74 -17t64 -49l3 52h67v-495q0 -99 -53.5 -154t-143.5 -55
q-66 0 -116.5 30zM324 110.5q30 23.5 51 58.5v229q-42 74 -116 74q-69 0 -103 -54.5t-34 -141.5q0 -69 20.5 -111.5t51 -60t62.5 -17.5q38 0 68 23.5z" />
    <glyph glyph-name="gbreve.ss01" horiz-adv-x="530" 
d="M135.5 -152q-50.5 30 -63.5 86l63 41q4 -42 37.5 -67t79.5 -25q52 0 87.5 34.5t35.5 105.5v69q-32 -34 -62.5 -51t-70.5 -17q-46 0 -90 21.5t-74 78t-30 152.5q0 95 29 153t73 82.5t91 24.5q42 0 74 -17t64 -49l3 52h67v-495q0 -99 -53.5 -154t-143.5 -55
q-66 0 -116.5 30zM324 110.5q30 23.5 51 58.5v229q-42 74 -116 74q-69 0 -103 -54.5t-34 -141.5q0 -69 20.5 -111.5t51 -60t62.5 -17.5q38 0 68 23.5zM153 636q-40 40 -51 105h53q9 -40 34 -66t65 -26t66 26t34 66h52q-10 -64 -50.5 -104.5t-101.5 -40.5t-101 40z" />
    <glyph glyph-name="gcircumflex.ss01" horiz-adv-x="530" 
d="M135.5 -152q-50.5 30 -63.5 86l63 41q4 -42 37.5 -67t79.5 -25q52 0 87.5 34.5t35.5 105.5v69q-32 -34 -62.5 -51t-70.5 -17q-46 0 -90 21.5t-74 78t-30 152.5q0 95 29 153t73 82.5t91 24.5q42 0 74 -17t64 -49l3 52h67v-495q0 -99 -53.5 -154t-143.5 -55
q-66 0 -116.5 30zM324 110.5q30 23.5 51 58.5v229q-42 74 -116 74q-69 0 -103 -54.5t-34 -141.5q0 -69 20.5 -111.5t51 -60t62.5 -17.5q38 0 68 23.5zM218 741h74l99 -137h-56l-81 90l-78 -90h-57z" />
    <glyph glyph-name="uni0123.ss01" horiz-adv-x="530" 
d="M135.5 -152q-50.5 30 -63.5 86l63 41q4 -42 37.5 -67t79.5 -25q52 0 87.5 34.5t35.5 105.5v69q-32 -34 -62.5 -51t-70.5 -17q-46 0 -90 21.5t-74 78t-30 152.5q0 95 29 153t73 82.5t91 24.5q42 0 74 -17t64 -49l3 52h67v-495q0 -99 -53.5 -154t-143.5 -55
q-66 0 -116.5 30zM324 110.5q30 23.5 51 58.5v229q-42 74 -116 74q-69 0 -103 -54.5t-34 -141.5q0 -69 20.5 -111.5t51 -60t62.5 -17.5q38 0 68 23.5zM308 741h51l-67 -137h-83z" />
    <glyph glyph-name="gdotaccent.ss01" horiz-adv-x="530" 
d="M135.5 -152q-50.5 30 -63.5 86l63 41q4 -42 37.5 -67t79.5 -25q52 0 87.5 34.5t35.5 105.5v69q-32 -34 -62.5 -51t-70.5 -17q-46 0 -90 21.5t-74 78t-30 152.5q0 95 29 153t73 82.5t91 24.5q42 0 74 -17t64 -49l3 52h67v-495q0 -99 -53.5 -154t-143.5 -55
q-66 0 -116.5 30zM324 110.5q30 23.5 51 58.5v229q-42 74 -116 74q-69 0 -103 -54.5t-34 -141.5q0 -69 20.5 -111.5t51 -60t62.5 -17.5q38 0 68 23.5zM220 649q-14 14 -14 34t14 34.5t34 14.5t34.5 -14.5t14.5 -34.5t-14.5 -34t-34.5 -14t-34 14z" />
    <glyph glyph-name="T_h" horiz-adv-x="898" 
d="M783.5 498.5q36.5 -37.5 36.5 -125.5v-373h-74v371q0 41 -19.5 73t-59.5 32q-55 0 -131 -71v-405h-74v677h-177v-677h-78v677h-197v64h461l65 38v-312q36 32 72.5 50.5t80.5 18.5q58 0 94.5 -37.5z" />
    <glyph glyph-name="ordfeminine" unicode="&#xaa;" horiz-adv-x="360" 
d="M74.5 442.5q-29.5 26.5 -29.5 72.5q0 52 36 78t112 37q24 2 32.5 8.5t8.5 26.5q0 24 -14 37.5t-38 13.5q-48 0 -85 -53l-27 35q45 57 118 57q47 0 73 -24.5t26 -73.5v-232h-53v35q-44 -44 -89 -44q-41 0 -70.5 26.5zM233 507v89l-52 -8q-40 -5 -61.5 -22t-21.5 -53
q0 -26 15 -41t39 -15q43 0 81 50z" />
    <glyph glyph-name="ordmasculine" unicode="&#xba;" horiz-adv-x="360" 
d="M82.5 459.5q-36.5 43.5 -36.5 126.5t36.5 126t97.5 43t97.5 -43.5t36.5 -125.5q0 -83 -36.5 -126.5t-97.5 -43.5t-97.5 43.5zM241.5 494q17.5 39 17.5 92q0 52 -17.5 91t-61.5 39t-62 -39t-18 -91q0 -53 18 -92t62 -39t61.5 39z" />
    <glyph glyph-name="pi" unicode="&#x3c0;" horiz-adv-x="600" 
d="M381 137v323h-209v-460h-74v460h-76v62h551v-62h-117v-337q0 -76 54 -76q28 0 63 27l2 -63q-42 -25 -83 -25q-111 0 -111 151z" />
    <glyph glyph-name="zero" unicode="0" 
d="M115.5 96q-56.5 110 -56.5 273q0 164 55 275.5t182 111.5q128 0 182.5 -111.5t54.5 -275.5q0 -163 -56.5 -273t-180.5 -110t-180.5 110zM424 146.5q33 96.5 33 222.5q0 127 -32.5 225t-128.5 98q-95 0 -127.5 -98t-32.5 -225q0 -126 33 -222.5t127 -96.5q95 0 128 96.5z
" />
    <glyph glyph-name="one" unicode="1" 
d="M266 62v572q-47 -56 -138 -87l-18 60q56 18 102 52.5t71 81.5h61v-679h114v-62h-306v62h114z" />
    <glyph glyph-name="two" unicode="2" 
d="M163.5 204q49.5 57 126.5 126q51 45 80 75t48 66t19 78q0 60 -35 101t-93 41q-44 0 -77.5 -24.5t-51 -64t-15.5 -84.5l-67 35q-1 56 27 102t77.5 73t110.5 27q63 0 109.5 -26.5t71 -72.5t24.5 -103q0 -56 -23 -101.5t-57 -81t-93 -85.5q-71 -61 -115 -109.5t-71 -111.5
h359v-64h-437v68q33 79 82.5 136z" />
    <glyph glyph-name="three" unicode="3" 
d="M151 26q-62 41 -89 113l66 41q20 -58 63.5 -95t99.5 -37q68 0 109.5 40t41.5 108q0 88 -50 126t-140 38q-27 0 -42 -2v64q24 -4 54 -4q79 0 121 38t42 102q0 61 -37 97t-99 36q-50 0 -87.5 -30.5t-50.5 -76.5l-62 36q24 61 81 98t131 37q57 0 102.5 -24.5t71 -67.5
t25.5 -96q0 -63 -30 -106t-97 -70q71 -20 108.5 -69.5t37.5 -115.5q0 -67 -30 -117t-82.5 -77t-118.5 -27q-77 0 -139 41z" />
    <glyph glyph-name="four" unicode="4" 
d="M356 180h-301v67l277 494h103v-498h110v-63h-110v-180h-79v180zM356 243v414h-1l-227 -414h228z" />
    <glyph glyph-name="five" unicode="5" 
d="M156 22.5q-55 38.5 -78 108.5l64 43q15 -58 54.5 -92t92.5 -34q51 0 86 28t51.5 73t16.5 96q0 58 -19 101t-51.5 65.5t-72.5 22.5q-44 0 -81 -27t-59 -68l-63 15l21 387h348v-65h-284l-20 -258q65 80 153 80q66 0 113 -34.5t71 -91t24 -120.5q0 -72 -29 -133.5t-83 -98
t-126 -36.5q-74 0 -129 38.5z" />
    <glyph glyph-name="six" unicode="6" 
d="M191 21q-55 37 -89 115.5t-34 196.5q0 137 37 232.5t100 143t140 47.5q43 0 80.5 -12t64.5 -37l-32 -64q-45 47 -111 47q-47 0 -91 -32.5t-74 -105.5t-35 -188q41 49 86.5 77.5t93.5 28.5q51 0 98 -25.5t77 -77.5t30 -129q0 -88 -35 -145t-86 -83t-101 -26q-64 0 -119 37
zM378 70q33 20 54 62.5t21 106.5q0 42 -15 80t-45 62t-72 24q-55 0 -98.5 -36t-73.5 -91q3 -83 28.5 -134t61 -72.5t70.5 -21.5q36 0 69 20z" />
    <glyph glyph-name="seven" unicode="7" 
d="M254.5 326.5q77.5 176.5 193.5 349.5h-346v65h422v-52q-111 -177 -189.5 -364.5t-90.5 -324.5h-88q21 150 98.5 326.5z" />
    <glyph glyph-name="eight" unicode="8" 
d="M491 306q44 -46 44 -121q0 -59 -31.5 -104.5t-86.5 -71t-122 -25.5q-65 0 -119.5 24.5t-86.5 69.5t-32 103q0 76 44.5 122.5t125.5 86.5q-68 35 -105.5 77.5t-37.5 108.5q0 53 30.5 94.5t80.5 63.5t106 22q57 0 105 -21.5t77 -61.5t29 -95q0 -66 -38 -108.5t-106 -76.5
q79 -41 123 -87zM195 492q36 -33 105 -67q66 33 101 67t35 85q0 52 -38.5 83t-97.5 31q-56 0 -98.5 -30t-42.5 -84q0 -52 36 -85zM413 85.5q47 36.5 47 102.5q0 42 -22 72t-55.5 51t-88.5 46q-52 -24 -85 -45t-54.5 -51.5t-21.5 -71.5q0 -66 47 -103t117 -37q69 0 116 36.5z
" />
    <glyph glyph-name="nine" unicode="9" 
d="M89 49l43 54q57 -53 116 -53q47 0 89.5 32.5t72.5 106t34 188.5q-39 -49 -85 -77.5t-94 -28.5q-45 0 -92 24t-80 76t-33 132q0 87 35 144t86 83t100 26q65 0 120 -37t89 -115t34 -196q0 -137 -37 -233t-100 -143.5t-140 -47.5q-86 0 -158 65zM368.5 372q44.5 36 74.5 91
q-3 83 -28.5 134t-61 72t-70.5 21q-37 0 -70 -19.5t-53.5 -62t-20.5 -106.5q0 -67 33.5 -116.5t95.5 -49.5q56 0 100.5 36z" />
    <glyph glyph-name="zero.lf" 
d="M115.5 96q-56.5 110 -56.5 273q0 164 55 275.5t182 111.5q128 0 182.5 -111.5t54.5 -275.5q0 -163 -56.5 -273t-180.5 -110t-180.5 110zM424 146.5q33 96.5 33 222.5q0 127 -32.5 225t-128.5 98q-95 0 -127.5 -98t-32.5 -225q0 -126 33 -222.5t127 -96.5q95 0 128 96.5z
" />
    <glyph glyph-name="one.lf" horiz-adv-x="394" 
d="M45 547l-18 60q56 18 101.5 52.5t70.5 81.5h61v-741h-78v634q-47 -57 -137 -87z" />
    <glyph glyph-name="two.lf" 
d="M163.5 204q49.5 57 126.5 126q51 45 80 75t48 66t19 78q0 60 -35 101t-93 41q-44 0 -77.5 -24.5t-51 -64t-15.5 -84.5l-67 35q-1 56 27 102t77.5 73t110.5 27q63 0 109.5 -26.5t71 -72.5t24.5 -103q0 -56 -23 -101.5t-57 -81t-93 -85.5q-71 -61 -115 -109.5t-71 -111.5
h359v-64h-437v68q33 79 82.5 136z" />
    <glyph glyph-name="three.lf" 
d="M151 26q-62 41 -89 113l66 41q20 -58 63.5 -95t99.5 -37q68 0 109.5 40t41.5 108q0 88 -50 126t-140 38q-27 0 -42 -2v64q24 -4 54 -4q79 0 121 38t42 102q0 61 -37 97t-99 36q-50 0 -87.5 -30.5t-50.5 -76.5l-62 36q24 61 81 98t131 37q57 0 102.5 -24.5t71 -67.5
t25.5 -96q0 -63 -30 -106t-97 -70q71 -20 108.5 -69.5t37.5 -115.5q0 -67 -30 -117t-82.5 -77t-118.5 -27q-77 0 -139 41z" />
    <glyph glyph-name="four.lf" 
d="M356 180h-301v67l277 494h103v-498h110v-63h-110v-180h-79v180zM356 243v414h-1l-227 -414h228z" />
    <glyph glyph-name="five.lf" 
d="M156 22.5q-55 38.5 -78 108.5l64 43q15 -58 54.5 -92t92.5 -34q51 0 86 28t51.5 73t16.5 96q0 58 -19 101t-51.5 65.5t-72.5 22.5q-44 0 -81 -27t-59 -68l-63 15l21 387h348v-65h-284l-20 -258q65 80 153 80q66 0 113 -34.5t71 -91t24 -120.5q0 -72 -29 -133.5t-83 -98
t-126 -36.5q-74 0 -129 38.5z" />
    <glyph glyph-name="six.lf" 
d="M191 21q-55 37 -89 115.5t-34 196.5q0 137 37 232.5t100 143t140 47.5q43 0 80.5 -12t64.5 -37l-32 -64q-45 47 -111 47q-47 0 -91 -32.5t-74 -105.5t-35 -188q41 49 86.5 77.5t93.5 28.5q51 0 98 -25.5t77 -77.5t30 -129q0 -88 -35 -145t-86 -83t-101 -26q-64 0 -119 37
zM378 70q33 20 54 62.5t21 106.5q0 42 -15 80t-45 62t-72 24q-55 0 -98.5 -36t-73.5 -91q3 -83 28.5 -134t61 -72.5t70.5 -21.5q36 0 69 20z" />
    <glyph glyph-name="seven.lf" 
d="M254.5 326.5q77.5 176.5 193.5 349.5h-346v65h422v-52q-111 -177 -189.5 -364.5t-90.5 -324.5h-88q21 150 98.5 326.5z" />
    <glyph glyph-name="eight.lf" 
d="M491 306q44 -46 44 -121q0 -59 -31.5 -104.5t-86.5 -71t-122 -25.5q-65 0 -119.5 24.5t-86.5 69.5t-32 103q0 76 44.5 122.5t125.5 86.5q-68 35 -105.5 77.5t-37.5 108.5q0 53 30.5 94.5t80.5 63.5t106 22q57 0 105 -21.5t77 -61.5t29 -95q0 -66 -38 -108.5t-106 -76.5
q79 -41 123 -87zM195 492q36 -33 105 -67q66 33 101 67t35 85q0 52 -38.5 83t-97.5 31q-56 0 -98.5 -30t-42.5 -84q0 -52 36 -85zM413 85.5q47 36.5 47 102.5q0 42 -22 72t-55.5 51t-88.5 46q-52 -24 -85 -45t-54.5 -51.5t-21.5 -71.5q0 -66 47 -103t117 -37q69 0 116 36.5z
" />
    <glyph glyph-name="nine.lf" 
d="M89 49l43 54q57 -53 116 -53q47 0 89.5 32.5t72.5 106t34 188.5q-39 -49 -85 -77.5t-94 -28.5q-45 0 -92 24t-80 76t-33 132q0 87 35 144t86 83t100 26q65 0 120 -37t89 -115t34 -196q0 -137 -37 -233t-100 -143.5t-140 -47.5q-86 0 -158 65zM368.5 372q44.5 36 74.5 91
q-3 83 -28.5 134t-61 72t-70.5 21q-37 0 -70 -19.5t-53.5 -62t-20.5 -106.5q0 -67 33.5 -116.5t95.5 -49.5q56 0 100.5 36z" />
    <glyph glyph-name="zero.osf" horiz-adv-x="554" 
d="M165.5 17.5q-49.5 31.5 -78 94.5t-28.5 155t28.5 155t78 94t112.5 31t112 -31t77 -94t28 -155t-28 -155t-77 -94.5t-112 -31.5t-112.5 31.5zM386.5 110q32.5 67 32.5 157q0 89 -32.5 156t-108.5 67q-77 0 -109.5 -67t-32.5 -156q0 -90 32.5 -157t109.5 -67q76 0 108.5 67
z" />
    <glyph glyph-name="one.osf" horiz-adv-x="455" 
d="M223 61v381q-21 -24 -55 -45.5t-70 -35.5l-16 59q53 21 94.5 53t63.5 75h57v-487h111v-61h-301v61h116z" />
    <glyph glyph-name="two.osf" horiz-adv-x="529" 
d="M147 156q40 35 103 76q44 28 70 48.5t43 48.5t17 65q0 50 -28.5 78t-77.5 28q-54 0 -87.5 -37.5t-29.5 -101.5l-65 34q-1 50 23 87.5t67 57.5t97 20q78 0 126.5 -42.5t48.5 -120.5q0 -51 -20.5 -87.5t-50.5 -61t-81 -56.5q-57 -36 -90 -63.5t-54 -67.5h297v-61h-374v68
q26 53 66 88z" />
    <glyph glyph-name="three.osf" horiz-adv-x="580" 
d="M148 -166.5q-59 39.5 -86 111.5l64 39q20 -60 61.5 -95.5t98.5 -35.5q67 0 106.5 41t39.5 110q0 87 -47.5 124.5t-134.5 37.5q-27 0 -41 -2v64q18 -3 52 -3q77 0 116.5 38.5t39.5 102.5q0 63 -34.5 98.5t-95.5 35.5q-50 0 -85.5 -29.5t-49.5 -76.5l-61 34q24 62 78.5 97
t128.5 35q58 0 101.5 -23.5t67 -65.5t23.5 -95q0 -64 -30 -108t-97 -70q72 -20 109 -69t37 -115q0 -68 -28.5 -117.5t-79.5 -76t-117 -26.5q-77 0 -136 39.5z" />
    <glyph glyph-name="four.osf" horiz-adv-x="572" 
d="M356 0h-301v65l277 480h97v-484h96v-61h-96v-189h-73v189zM356 61v404h-1l-230 -404h231z" />
    <glyph glyph-name="five.osf" horiz-adv-x="582" 
d="M154 -162.5q-53 37.5 -76 107.5l62 41q16 -59 54.5 -93t89.5 -34q76 0 114 59t38 140q0 58 -18.5 101t-50 65.5t-71.5 22.5q-43 0 -78 -26.5t-60 -68.5l-62 15l22 378h342v-63h-284l-16 -252q38 42 74 61t76 19q66 0 112 -34t68.5 -89.5t22.5 -120.5q0 -73 -27.5 -133.5
t-80 -96.5t-124.5 -36q-74 0 -127 37.5z" />
    <glyph glyph-name="six.osf" 
d="M191 21q-55 37 -89 115.5t-34 196.5q0 137 37 232.5t100 143t140 47.5q43 0 80.5 -12t64.5 -37l-32 -64q-45 47 -111 47q-47 0 -91 -32.5t-74 -105.5t-35 -188q41 49 86.5 77.5t93.5 28.5q51 0 98 -25.5t77 -77.5t30 -129q0 -88 -35 -145t-86 -83t-101 -26q-64 0 -119 37
zM378 70q33 20 54 62.5t21 106.5q0 42 -15 80t-45 62t-72 24q-55 0 -98.5 -36t-73.5 -91q3 -83 28.5 -134t61 -72.5t70.5 -21.5q36 0 69 20z" />
    <glyph glyph-name="seven.osf" horiz-adv-x="581" 
d="M255 131q77 179 183 349h-336v65h410v-52q-106 -176 -183 -363.5t-94 -325.5h-81q24 148 101 327z" />
    <glyph glyph-name="eight.osf" 
d="M491 306q44 -46 44 -121q0 -59 -31.5 -104.5t-86.5 -71t-122 -25.5q-65 0 -119.5 24.5t-86.5 69.5t-32 103q0 76 44.5 122.5t125.5 86.5q-68 35 -105.5 77.5t-37.5 108.5q0 53 30.5 94.5t80.5 63.5t106 22q57 0 105 -21.5t77 -61.5t29 -95q0 -66 -38 -108.5t-106 -76.5
q79 -41 123 -87zM195 492q36 -33 105 -67q66 33 101 67t35 85q0 52 -38.5 83t-97.5 31q-56 0 -98.5 -30t-42.5 -84q0 -52 36 -85zM413 85.5q47 36.5 47 102.5q0 42 -22 72t-55.5 51t-88.5 46q-52 -24 -85 -45t-54.5 -51.5t-21.5 -71.5q0 -66 47 -103t117 -37q69 0 116 36.5z
" />
    <glyph glyph-name="nine.osf" horiz-adv-x="573" 
d="M156 -195.5q-37 16.5 -72 47.5l42 51q56 -54 113 -54q48 0 90 33t70.5 108t32.5 193q-42 -54 -84.5 -81.5t-92.5 -27.5t-94.5 26t-72.5 79t-28 128q0 77 31.5 134t81.5 87t105 30q62 0 113 -35.5t82.5 -115t31.5 -204.5q0 -131 -34.5 -224.5t-95.5 -142t-137 -48.5
q-45 0 -82 16.5zM429 265q-2 84 -33 158t-116 74q-67 0 -106.5 -53t-39.5 -135q0 -73 32.5 -123.5t95.5 -50.5q99 0 167 130z" />
    <glyph glyph-name="zero.tosf" 
d="M184.5 17.5q-49.5 31.5 -78 94.5t-28.5 155t28.5 155t78 94t112.5 31t112 -31t77 -94t28 -155t-28 -155t-77 -94.5t-112 -31.5t-112.5 31.5zM405.5 110q32.5 67 32.5 157q0 89 -32.5 156t-108.5 67q-77 0 -109.5 -67t-32.5 -156q0 -90 32.5 -157t109.5 -67q76 0 108.5 67
z" />
    <glyph glyph-name="one.tosf" 
d="M276 61v381q-21 -24 -55 -45.5t-70 -35.5l-16 59q53 21 94.5 53t63.5 75h57v-487h111v-61h-301v61h116z" />
    <glyph glyph-name="two.tosf" 
d="M176 156q40 35 103 76q44 28 70 48.5t43 48.5t17 65q0 50 -28.5 78t-77.5 28q-54 0 -87.5 -37.5t-29.5 -101.5l-65 34q-1 50 23 87.5t67 57.5t97 20q78 0 126.5 -42.5t48.5 -120.5q0 -51 -20.5 -87.5t-50.5 -61t-81 -56.5q-57 -36 -90 -63.5t-54 -67.5h297v-61h-374v68
q26 53 66 88z" />
    <glyph glyph-name="three.tosf" 
d="M139 -166.5q-59 39.5 -86 111.5l64 39q20 -60 61.5 -95.5t98.5 -35.5q67 0 106.5 41t39.5 110q0 87 -47.5 124.5t-134.5 37.5q-27 0 -41 -2v64q18 -3 52 -3q77 0 116.5 38.5t39.5 102.5q0 63 -34.5 98.5t-95.5 35.5q-50 0 -85.5 -29.5t-49.5 -76.5l-61 34q24 62 78.5 97
t128.5 35q58 0 101.5 -23.5t67 -65.5t23.5 -95q0 -64 -30 -108t-97 -70q72 -20 109 -69t37 -115q0 -68 -28.5 -117.5t-79.5 -76t-117 -26.5q-77 0 -136 39.5z" />
    <glyph glyph-name="four.tosf" 
d="M372 0h-301v65l277 480h97v-484h96v-61h-96v-189h-73v189zM372 61v404h-1l-230 -404h231z" />
    <glyph glyph-name="five.tosf" 
d="M164 -162.5q-53 37.5 -76 107.5l62 41q16 -59 54.5 -93t89.5 -34q76 0 114 59t38 140q0 58 -18.5 101t-50 65.5t-71.5 22.5q-43 0 -78 -26.5t-60 -68.5l-62 15l22 378h342v-63h-284l-16 -252q38 42 74 61t76 19q66 0 112 -34t68.5 -89.5t22.5 -120.5q0 -73 -27.5 -133.5
t-80 -96.5t-124.5 -36q-74 0 -127 37.5z" />
    <glyph glyph-name="six.tosf" 
d="M197 21q-55 37 -89 115.5t-34 196.5q0 137 37 232.5t100 143t140 47.5q43 0 80.5 -12t64.5 -37l-32 -64q-45 47 -111 47q-47 0 -91 -32.5t-74 -105.5t-35 -188q41 49 86.5 77.5t93.5 28.5q51 0 98 -25.5t77 -77.5t30 -129q0 -88 -35 -145t-86 -83t-101 -26q-64 0 -119 37
zM384 70q33 20 54 62.5t21 106.5q0 42 -15 80t-45 62t-72 24q-55 0 -98.5 -36t-73.5 -91q3 -83 28.5 -134t61 -72.5t70.5 -21.5q36 0 69 20z" />
    <glyph glyph-name="seven.tosf" 
d="M251 131q77 179 183 349h-336v65h410v-52q-106 -176 -183 -363.5t-94 -325.5h-81q24 148 101 327z" />
    <glyph glyph-name="eight.tosf" 
d="M488 306q44 -46 44 -121q0 -59 -31.5 -104.5t-86.5 -71t-122 -25.5q-65 0 -119.5 24.5t-86.5 69.5t-32 103q0 76 44.5 122.5t125.5 86.5q-68 35 -105.5 77.5t-37.5 108.5q0 53 30.5 94.5t80.5 63.5t106 22q57 0 105 -21.5t77 -61.5t29 -95q0 -66 -38 -108.5t-106 -76.5
q79 -41 123 -87zM192 492q36 -33 105 -67q66 33 101 67t35 85q0 52 -38.5 83t-97.5 31q-56 0 -98.5 -30t-42.5 -84q0 -52 36 -85zM410 85.5q47 36.5 47 102.5q0 42 -22 72t-55.5 51t-88.5 46q-52 -24 -85 -45t-54.5 -51.5t-21.5 -71.5q0 -66 47 -103t117 -37q69 0 116 36.5z
" />
    <glyph glyph-name="nine.tosf" 
d="M162 -195.5q-37 16.5 -72 47.5l42 51q56 -54 113 -54q48 0 90 33t70.5 108t32.5 193q-42 -54 -84.5 -81.5t-92.5 -27.5t-94.5 26t-72.5 79t-28 128q0 77 31.5 134t81.5 87t105 30q62 0 113 -35.5t82.5 -115t31.5 -204.5q0 -131 -34.5 -224.5t-95.5 -142t-137 -48.5
q-45 0 -82 16.5zM435 265q-2 84 -33 158t-116 74q-67 0 -106.5 -53t-39.5 -135q0 -73 32.5 -123.5t95.5 -50.5q99 0 167 130z" />
    <glyph glyph-name="uni2080" unicode="&#x2080;" horiz-adv-x="391" 
d="M74 -43q-38 66 -38 164q0 99 37 166t122 67q87 0 123 -66.5t36 -166.5q0 -99 -37.5 -164.5t-121.5 -65.5q-83 0 -121 66zM289 121q0 182 -94 182q-55 0 -74.5 -55.5t-19.5 -126.5t19.5 -125t74.5 -54q94 0 94 179z" />
    <glyph glyph-name="uni2081" unicode="&#x2081;" horiz-adv-x="390" 
d="M165 -50v305q-25 -24 -86 -44l-15 48q43 15 70.5 33t43.5 49h53v-391h71v-50h-211v50h74z" />
    <glyph glyph-name="uni2082" unicode="&#x2082;" horiz-adv-x="390" 
d="M97.5 30q31.5 33 83.5 74q49 37 72 63.5t23 60.5q0 32 -20 54t-53 22q-38 0 -62 -32t-22 -75l-58 30q0 36 18.5 65t51.5 45.5t74 16.5q64 0 101.5 -34.5t37.5 -88.5q0 -36 -15.5 -64t-38 -48.5t-61.5 -49.5q-46 -35 -71.5 -60t-38.5 -58h224v-51h-294v50q17 47 48.5 80z
" />
    <glyph glyph-name="uni2083" unicode="&#x2083;" horiz-adv-x="390" 
d="M103.5 -82.5q-41.5 26.5 -60.5 72.5l53 33q13 -36 40 -58.5t61 -22.5q40 0 64.5 21t24.5 59q0 87 -114 87q-18 0 -33 -2v52q19 -2 41 -2q46 0 71.5 20.5t25.5 53.5q0 35 -22 54t-58 19q-30 0 -53 -19t-32 -47l-52 29q17 39 56 63t89 24q60 0 97.5 -33.5t37.5 -84.5
q0 -32 -18 -58t-51 -43q81 -28 81 -108q0 -63 -43.5 -99.5t-112.5 -36.5q-51 0 -92.5 26.5z" />
    <glyph glyph-name="uni2084" unicode="&#x2084;" horiz-adv-x="390" 
d="M225 6h-195v49l182 286h76v-284h70v-51h-70v-106h-63v106zM225 57v212h-1l-133 -212h134z" />
    <glyph glyph-name="uni2085" unicode="&#x2085;" horiz-adv-x="390" 
d="M99 -83.5q-38 25.5 -54 70.5l55 33q10 -36 34 -57t54 -21q45 0 68 31t23 76q0 47 -24 74.5t-60 27.5q-28 0 -50.5 -16.5t-34.5 -40.5l-52 12l14 235h238v-51h-185l-9 -123q17 17 40.5 26t48.5 9q65 0 102.5 -43.5t37.5 -105.5q0 -44 -19 -81t-55.5 -59t-84.5 -22
q-49 0 -87 25.5z" />
    <glyph glyph-name="uni2086" unicode="&#x2086;" horiz-adv-x="390" 
d="M120 -87q-37 22 -60 69.5t-23 119.5q0 84 24.5 140.5t66.5 84t94 27.5q60 0 102 -34l-25 -50q-37 32 -75 32q-44 0 -77.5 -36.5t-41.5 -121.5q48 46 106 46q34 0 65.5 -15.5t52 -47.5t20.5 -79q0 -54 -23.5 -89.5t-58 -51.5t-67.5 -16q-43 0 -80 22zM257 -31q25 26 25 79
q0 36 -19.5 63.5t-55.5 27.5q-33 0 -58.5 -19t-43.5 -48q2 -46 17 -75t36 -41.5t41 -12.5q33 0 58 26z" />
    <glyph glyph-name="uni2087" unicode="&#x2087;" horiz-adv-x="390" 
d="M273 290h-213v51h285v-39q-72 -105 -121.5 -212.5t-58.5 -189.5h-72q26 170 180 390z" />
    <glyph glyph-name="uni2088" unicode="&#x2088;" horiz-adv-x="390" 
d="M330.5 91q25.5 -29 25.5 -76q0 -57 -46 -90.5t-117 -33.5t-114.5 32t-43.5 90q0 46 26 74t72 48q-38 19 -59.5 44t-21.5 64q0 51 42.5 81t106.5 30q62 0 101 -30t39 -81q0 -37 -21.5 -60.5t-59.5 -41.5q45 -21 70.5 -50zM139 199q22 -17 65 -34q35 15 54 32.5t19 45.5
t-22 43.5t-56 15.5q-33 0 -57.5 -15t-24.5 -44q0 -27 22 -44zM263.5 -38q28.5 20 28.5 56q0 33 -25.5 52.5t-78.5 40.5q-42 -18 -65 -39t-23 -54q0 -36 27.5 -56t66.5 -20q41 0 69.5 20z" />
    <glyph glyph-name="uni2089" unicode="&#x2089;" horiz-adv-x="390" 
d="M55 -66l35 46q41 -37 77 -37q42 0 77 39.5t40 127.5q-23 -24 -51 -39t-56 -15q-30 0 -62 14.5t-54 46.5t-22 81q0 54 23.5 89t58 51t68.5 16q42 0 79 -22.5t59.5 -70t22.5 -118.5q0 -83 -24.5 -140t-66 -84.5t-93.5 -27.5q-58 0 -111 43zM240 126.5q27 19.5 44 49.5
q-2 66 -32 96t-64 30t-59.5 -26t-25.5 -78q0 -37 20 -64t57 -27q33 0 60 19.5z" />
    <glyph glyph-name="zero.dnom" horiz-adv-x="391" 
d="M74 57q-38 66 -38 164q0 99 37 166t122 67q87 0 123 -66.5t36 -166.5q0 -99 -37.5 -164.5t-121.5 -65.5q-83 0 -121 66zM289 221q0 182 -94 182q-55 0 -74.5 -55.5t-19.5 -126.5t19.5 -125t74.5 -54q94 0 94 179z" />
    <glyph glyph-name="one.dnom" horiz-adv-x="390" 
d="M165 50v305q-25 -24 -86 -44l-15 48q43 15 70.5 33t43.5 49h53v-391h71v-50h-211v50h74z" />
    <glyph glyph-name="two.dnom" horiz-adv-x="390" 
d="M97.5 130q31.5 33 83.5 74q49 37 72 63.5t23 60.5q0 32 -20 54t-53 22q-38 0 -62 -32t-22 -75l-58 30q0 36 18.5 65t51.5 45.5t74 16.5q64 0 101.5 -34.5t37.5 -88.5q0 -36 -15.5 -64t-38 -48.5t-61.5 -49.5q-46 -35 -71.5 -60t-38.5 -58h224v-51h-294v50q17 47 48.5 80z
" />
    <glyph glyph-name="three.dnom" horiz-adv-x="390" 
d="M103.5 17.5q-41.5 26.5 -60.5 72.5l53 33q13 -36 40 -58.5t61 -22.5q40 0 64.5 21t24.5 59q0 87 -114 87q-18 0 -33 -2v52q19 -2 41 -2q46 0 71.5 20.5t25.5 53.5q0 35 -22 54t-58 19q-30 0 -53 -19t-32 -47l-52 29q17 39 56 63t89 24q60 0 97.5 -33.5t37.5 -84.5
q0 -32 -18 -58t-51 -43q81 -28 81 -108q0 -63 -43.5 -99.5t-112.5 -36.5q-51 0 -92.5 26.5z" />
    <glyph glyph-name="four.dnom" horiz-adv-x="390" 
d="M225 106h-195v49l182 286h76v-284h70v-51h-70v-106h-63v106zM225 157v212h-1l-133 -212h134z" />
    <glyph glyph-name="five.dnom" horiz-adv-x="390" 
d="M99 16.5q-38 25.5 -54 70.5l55 33q10 -36 34 -57t54 -21q45 0 68 31t23 76q0 47 -24 74.5t-60 27.5q-28 0 -50.5 -16.5t-34.5 -40.5l-52 12l14 235h238v-51h-185l-9 -123q17 17 40.5 26t48.5 9q65 0 102.5 -43.5t37.5 -105.5q0 -44 -19 -81t-55.5 -59t-84.5 -22
q-49 0 -87 25.5z" />
    <glyph glyph-name="six.dnom" horiz-adv-x="390" 
d="M120 13q-37 22 -60 69.5t-23 119.5q0 84 24.5 140.5t66.5 84t94 27.5q60 0 102 -34l-25 -50q-37 32 -75 32q-44 0 -77.5 -36.5t-41.5 -121.5q48 46 106 46q34 0 65.5 -15.5t52 -47.5t20.5 -79q0 -54 -23.5 -89.5t-58 -51.5t-67.5 -16q-43 0 -80 22zM257 69q25 26 25 79
q0 36 -19.5 63.5t-55.5 27.5q-33 0 -58.5 -19t-43.5 -48q2 -46 17 -75t36 -41.5t41 -12.5q33 0 58 26z" />
    <glyph glyph-name="seven.dnom" horiz-adv-x="390" 
d="M273 390h-213v51h285v-39q-72 -105 -121.5 -212.5t-58.5 -189.5h-72q26 170 180 390z" />
    <glyph glyph-name="eight.dnom" horiz-adv-x="390" 
d="M330.5 191q25.5 -29 25.5 -76q0 -57 -46 -90.5t-117 -33.5t-114.5 32t-43.5 90q0 46 26 74t72 48q-38 19 -59.5 44t-21.5 64q0 51 42.5 81t106.5 30q62 0 101 -30t39 -81q0 -37 -21.5 -60.5t-59.5 -41.5q45 -21 70.5 -50zM139 299q22 -17 65 -34q35 15 54 32.5t19 45.5
t-22 43.5t-56 15.5q-33 0 -57.5 -15t-24.5 -44q0 -27 22 -44zM263.5 62q28.5 20 28.5 56q0 33 -25.5 52.5t-78.5 40.5q-42 -18 -65 -39t-23 -54q0 -36 27.5 -56t66.5 -20q41 0 69.5 20z" />
    <glyph glyph-name="nine.dnom" horiz-adv-x="390" 
d="M55 34l35 46q41 -37 77 -37q42 0 77 39.5t40 127.5q-23 -24 -51 -39t-56 -15q-30 0 -62 14.5t-54 46.5t-22 81q0 54 23.5 89t58 51t68.5 16q42 0 79 -22.5t59.5 -70t22.5 -118.5q0 -83 -24.5 -140t-66 -84.5t-93.5 -27.5q-58 0 -111 43zM240 226.5q27 19.5 44 49.5
q-2 66 -32 96t-64 30t-59.5 -26t-25.5 -78q0 -37 20 -64t57 -27q33 0 60 19.5z" />
    <glyph glyph-name="zero.numr" horiz-adv-x="391" 
d="M74 357q-38 66 -38 164q0 99 37 166t122 67q87 0 123 -66.5t36 -166.5q0 -99 -37.5 -164.5t-121.5 -65.5q-83 0 -121 66zM289 521q0 182 -94 182q-55 0 -74.5 -55.5t-19.5 -126.5t19.5 -125t74.5 -54q94 0 94 179z" />
    <glyph glyph-name="one.numr" horiz-adv-x="390" 
d="M165 350v305q-25 -24 -86 -44l-15 48q43 15 70.5 33t43.5 49h53v-391h71v-50h-211v50h74z" />
    <glyph glyph-name="two.numr" horiz-adv-x="390" 
d="M97.5 430q31.5 33 83.5 74q49 37 72 63.5t23 60.5q0 32 -20 54t-53 22q-38 0 -62 -32t-22 -75l-58 30q0 36 18.5 65t51.5 45.5t74 16.5q64 0 101.5 -34.5t37.5 -88.5q0 -36 -15.5 -64t-38 -48.5t-61.5 -49.5q-46 -35 -71.5 -60t-38.5 -58h224v-51h-294v50q17 47 48.5 80z
" />
    <glyph glyph-name="three.numr" horiz-adv-x="390" 
d="M103.5 317.5q-41.5 26.5 -60.5 72.5l53 33q13 -36 40 -58.5t61 -22.5q40 0 64.5 21t24.5 59q0 87 -114 87q-18 0 -33 -2v52q19 -2 41 -2q46 0 71.5 20.5t25.5 53.5q0 35 -22 54t-58 19q-30 0 -53 -19t-32 -47l-52 29q17 39 56 63t89 24q60 0 97.5 -33.5t37.5 -84.5
q0 -32 -18 -58t-51 -43q81 -28 81 -108q0 -63 -43.5 -99.5t-112.5 -36.5q-51 0 -92.5 26.5z" />
    <glyph glyph-name="four.numr" horiz-adv-x="390" 
d="M225 406h-195v49l182 286h76v-284h70v-51h-70v-106h-63v106zM225 457v212h-1l-133 -212h134z" />
    <glyph glyph-name="five.numr" horiz-adv-x="390" 
d="M99 316.5q-38 25.5 -54 70.5l55 33q10 -36 34 -57t54 -21q45 0 68 31t23 76q0 47 -24 74.5t-60 27.5q-28 0 -50.5 -16.5t-34.5 -40.5l-52 12l14 235h238v-51h-185l-9 -123q17 17 40.5 26t48.5 9q65 0 102.5 -43.5t37.5 -105.5q0 -44 -19 -81t-55.5 -59t-84.5 -22
q-49 0 -87 25.5z" />
    <glyph glyph-name="six.numr" horiz-adv-x="390" 
d="M120 313q-37 22 -60 69.5t-23 119.5q0 84 24.5 140.5t66.5 84t94 27.5q60 0 102 -34l-25 -50q-37 32 -75 32q-44 0 -77.5 -36.5t-41.5 -121.5q48 46 106 46q34 0 65.5 -15.5t52 -47.5t20.5 -79q0 -54 -23.5 -89.5t-58 -51.5t-67.5 -16q-43 0 -80 22zM257 369q25 26 25 79
q0 36 -19.5 63.5t-55.5 27.5q-33 0 -58.5 -19t-43.5 -48q2 -46 17 -75t36 -41.5t41 -12.5q33 0 58 26z" />
    <glyph glyph-name="seven.numr" horiz-adv-x="390" 
d="M273 690h-213v51h285v-39q-72 -105 -121.5 -212.5t-58.5 -189.5h-72q26 170 180 390z" />
    <glyph glyph-name="eight.numr" horiz-adv-x="390" 
d="M330.5 491q25.5 -29 25.5 -76q0 -57 -46 -90.5t-117 -33.5t-114.5 32t-43.5 90q0 46 26 74t72 48q-38 19 -59.5 44t-21.5 64q0 51 42.5 81t106.5 30q62 0 101 -30t39 -81q0 -37 -21.5 -60.5t-59.5 -41.5q45 -21 70.5 -50zM139 599q22 -17 65 -34q35 15 54 32.5t19 45.5
t-22 43.5t-56 15.5q-33 0 -57.5 -15t-24.5 -44q0 -27 22 -44zM263.5 362q28.5 20 28.5 56q0 33 -25.5 52.5t-78.5 40.5q-42 -18 -65 -39t-23 -54q0 -36 27.5 -56t66.5 -20q41 0 69.5 20z" />
    <glyph glyph-name="nine.numr" horiz-adv-x="390" 
d="M55 334l35 46q41 -37 77 -37q42 0 77 39.5t40 127.5q-23 -24 -51 -39t-56 -15q-30 0 -62 14.5t-54 46.5t-22 81q0 54 23.5 89t58 51t68.5 16q42 0 79 -22.5t59.5 -70t22.5 -118.5q0 -83 -24.5 -140t-66 -84.5t-93.5 -27.5q-58 0 -111 43zM240 526.5q27 19.5 44 49.5
q-2 66 -32 96t-64 30t-59.5 -26t-25.5 -78q0 -37 20 -64t57 -27q33 0 60 19.5z" />
    <glyph glyph-name="uni2070" unicode="&#x2070;" horiz-adv-x="391" 
d="M74 462q-38 66 -38 164q0 99 37 166t122 67q87 0 123 -66.5t36 -166.5q0 -99 -37.5 -164.5t-121.5 -65.5q-83 0 -121 66zM289 626q0 182 -94 182q-55 0 -74.5 -55.5t-19.5 -126.5t19.5 -125t74.5 -54q94 0 94 179z" />
    <glyph glyph-name="uni00B9" unicode="&#xb9;" horiz-adv-x="390" 
d="M165 455v305q-25 -24 -86 -44l-15 48q43 15 70.5 33t43.5 49h53v-391h71v-50h-211v50h74z" />
    <glyph glyph-name="uni00B2" unicode="&#xb2;" horiz-adv-x="390" 
d="M97.5 535q31.5 33 83.5 74q49 37 72 63.5t23 60.5q0 32 -20 54t-53 22q-38 0 -62 -32t-22 -75l-58 30q0 36 18.5 65t51.5 45.5t74 16.5q64 0 101.5 -34.5t37.5 -88.5q0 -36 -15.5 -64t-38 -48.5t-61.5 -49.5q-46 -35 -71.5 -60t-38.5 -58h224v-51h-294v50q17 47 48.5 80z
" />
    <glyph glyph-name="uni00B3" unicode="&#xb3;" horiz-adv-x="390" 
d="M103.5 422.5q-41.5 26.5 -60.5 72.5l53 33q13 -36 40 -58.5t61 -22.5q40 0 64.5 21t24.5 59q0 87 -114 87q-18 0 -33 -2v52q19 -2 41 -2q46 0 71.5 20.5t25.5 53.5q0 35 -22 54t-58 19q-30 0 -53 -19t-32 -47l-52 29q17 39 56 63t89 24q60 0 97.5 -33.5t37.5 -84.5
q0 -32 -18 -58t-51 -43q81 -28 81 -108q0 -63 -43.5 -99.5t-112.5 -36.5q-51 0 -92.5 26.5z" />
    <glyph glyph-name="uni2074" unicode="&#x2074;" horiz-adv-x="390" 
d="M225 511h-195v49l182 286h76v-284h70v-51h-70v-106h-63v106zM225 562v212h-1l-133 -212h134z" />
    <glyph glyph-name="uni2075" unicode="&#x2075;" horiz-adv-x="390" 
d="M99 421.5q-38 25.5 -54 70.5l55 33q10 -36 34 -57t54 -21q45 0 68 31t23 76q0 47 -24 74.5t-60 27.5q-28 0 -50.5 -16.5t-34.5 -40.5l-52 12l14 235h238v-51h-185l-9 -123q17 17 40.5 26t48.5 9q65 0 102.5 -43.5t37.5 -105.5q0 -44 -19 -81t-55.5 -59t-84.5 -22
q-49 0 -87 25.5z" />
    <glyph glyph-name="uni2076" unicode="&#x2076;" horiz-adv-x="390" 
d="M120 418q-37 22 -60 69.5t-23 119.5q0 84 24.5 140.5t66.5 84t94 27.5q60 0 102 -34l-25 -50q-37 32 -75 32q-44 0 -77.5 -36.5t-41.5 -121.5q48 46 106 46q34 0 65.5 -15.5t52 -47.5t20.5 -79q0 -54 -23.5 -89.5t-58 -51.5t-67.5 -16q-43 0 -80 22zM257 474q25 26 25 79
q0 36 -19.5 63.5t-55.5 27.5q-33 0 -58.5 -19t-43.5 -48q2 -46 17 -75t36 -41.5t41 -12.5q33 0 58 26z" />
    <glyph glyph-name="uni2077" unicode="&#x2077;" horiz-adv-x="390" 
d="M273 795h-213v51h285v-39q-72 -105 -121.5 -212.5t-58.5 -189.5h-72q26 170 180 390z" />
    <glyph glyph-name="uni2078" unicode="&#x2078;" horiz-adv-x="390" 
d="M330.5 596q25.5 -29 25.5 -76q0 -57 -46 -90.5t-117 -33.5t-114.5 32t-43.5 90q0 46 26 74t72 48q-38 19 -59.5 44t-21.5 64q0 51 42.5 81t106.5 30q62 0 101 -30t39 -81q0 -37 -21.5 -60.5t-59.5 -41.5q45 -21 70.5 -50zM139 704q22 -17 65 -34q35 15 54 32.5t19 45.5
t-22 43.5t-56 15.5q-33 0 -57.5 -15t-24.5 -44q0 -27 22 -44zM263.5 467q28.5 20 28.5 56q0 33 -25.5 52.5t-78.5 40.5q-42 -18 -65 -39t-23 -54q0 -36 27.5 -56t66.5 -20q41 0 69.5 20z" />
    <glyph glyph-name="uni2079" unicode="&#x2079;" horiz-adv-x="390" 
d="M55 439l35 46q41 -37 77 -37q42 0 77 39.5t40 127.5q-23 -24 -51 -39t-56 -15q-30 0 -62 14.5t-54 46.5t-22 81q0 54 23.5 89t58 51t68.5 16q42 0 79 -22.5t59.5 -70t22.5 -118.5q0 -83 -24.5 -140t-66 -84.5t-93.5 -27.5q-58 0 -111 43zM240 631.5q27 19.5 44 49.5
q-2 66 -32 96t-64 30t-59.5 -26t-25.5 -78q0 -37 20 -64t57 -27q33 0 60 19.5z" />
    <glyph glyph-name="fraction" unicode="&#x2044;" horiz-adv-x="121" 
d="M229 741h65l-403 -741h-64z" />
    <glyph glyph-name="onehalf" unicode="&#xbd;" horiz-adv-x="901" 
d="M165 350v305q-25 -24 -86 -44l-15 48q43 15 70.5 33t43.5 49h53v-391h71v-50h-211v50h74zM619 741h65l-403 -741h-64zM608.5 130q31.5 33 83.5 74q49 37 72 63.5t23 60.5q0 32 -20 54t-53 22q-38 0 -62 -32t-22 -75l-58 30q0 36 18.5 65t51.5 45.5t74 16.5
q64 0 101.5 -34.5t37.5 -88.5q0 -36 -15.5 -64t-38 -48.5t-61.5 -49.5q-46 -35 -71.5 -60t-38.5 -58h224v-51h-294v50q17 47 48.5 80z" />
    <glyph glyph-name="uni2153" unicode="&#x2153;" horiz-adv-x="901" 
d="M165 350v305q-25 -24 -86 -44l-15 48q43 15 70.5 33t43.5 49h53v-391h71v-50h-211v50h74zM619 741h65l-403 -741h-64zM614.5 17.5q-41.5 26.5 -60.5 72.5l53 33q13 -36 40 -58.5t61 -22.5q40 0 64.5 21t24.5 59q0 87 -114 87q-18 0 -33 -2v52q19 -2 41 -2q46 0 71.5 20.5
t25.5 53.5q0 35 -22 54t-58 19q-30 0 -53 -19t-32 -47l-52 29q17 39 56 63t89 24q60 0 97.5 -33.5t37.5 -84.5q0 -32 -18 -58t-51 -43q81 -28 81 -108q0 -63 -43.5 -99.5t-112.5 -36.5q-51 0 -92.5 26.5z" />
    <glyph glyph-name="uni2154" unicode="&#x2154;" horiz-adv-x="936" 
d="M97.5 430q31.5 33 83.5 74q49 37 72 63.5t23 60.5q0 32 -20 54t-53 22q-38 0 -62 -32t-22 -75l-58 30q0 36 18.5 65t51.5 45.5t74 16.5q64 0 101.5 -34.5t37.5 -88.5q0 -36 -15.5 -64t-38 -48.5t-61.5 -49.5q-46 -35 -71.5 -60t-38.5 -58h224v-51h-294v50q17 47 48.5 80z
M654 741h65l-403 -741h-64zM649.5 17.5q-41.5 26.5 -60.5 72.5l53 33q13 -36 40 -58.5t61 -22.5q40 0 64.5 21t24.5 59q0 87 -114 87q-18 0 -33 -2v52q19 -2 41 -2q46 0 71.5 20.5t25.5 53.5q0 35 -22 54t-58 19q-30 0 -53 -19t-32 -47l-52 29q17 39 56 63t89 24
q60 0 97.5 -33.5t37.5 -84.5q0 -32 -18 -58t-51 -43q81 -28 81 -108q0 -63 -43.5 -99.5t-112.5 -36.5q-51 0 -92.5 26.5z" />
    <glyph glyph-name="onequarter" unicode="&#xbc;" horiz-adv-x="889" 
d="M165 350v305q-25 -24 -86 -44l-15 48q43 15 70.5 33t43.5 49h53v-391h71v-50h-211v50h74zM619 741h65l-403 -741h-64zM724 106h-195v49l182 286h76v-284h70v-51h-70v-106h-63v106zM724 157v212h-1l-133 -212h134z" />
    <glyph glyph-name="threequarters" unicode="&#xbe;" horiz-adv-x="889" 
d="M103.5 317.5q-41.5 26.5 -60.5 72.5l53 33q13 -36 40 -58.5t61 -22.5q40 0 64.5 21t24.5 59q0 87 -114 87q-18 0 -33 -2v52q19 -2 41 -2q46 0 71.5 20.5t25.5 53.5q0 35 -22 54t-58 19q-30 0 -53 -19t-32 -47l-52 29q17 39 56 63t89 24q60 0 97.5 -33.5t37.5 -84.5
q0 -32 -18 -58t-51 -43q81 -28 81 -108q0 -63 -43.5 -99.5t-112.5 -36.5q-51 0 -92.5 26.5zM619 741h65l-403 -741h-64zM724 106h-195v49l182 286h76v-284h70v-51h-70v-106h-63v106zM724 157v212h-1l-133 -212h134z" />
    <glyph glyph-name="uni2155" unicode="&#x2155;" horiz-adv-x="933" 
d="M165 350v305q-25 -24 -86 -44l-15 48q43 15 70.5 33t43.5 49h53v-391h71v-50h-211v50h74zM619 741h65l-403 -741h-64zM642 16.5q-38 25.5 -54 70.5l55 33q10 -36 34 -57t54 -21q45 0 68 31t23 76q0 47 -24 74.5t-60 27.5q-28 0 -50.5 -16.5t-34.5 -40.5l-52 12l14 235
h238v-51h-185l-9 -123q17 17 40.5 26t48.5 9q65 0 102.5 -43.5t37.5 -105.5q0 -44 -19 -81t-55.5 -59t-84.5 -22q-49 0 -87 25.5z" />
    <glyph glyph-name="uni2156" unicode="&#x2156;" horiz-adv-x="968" 
d="M97.5 430q31.5 33 83.5 74q49 37 72 63.5t23 60.5q0 32 -20 54t-53 22q-38 0 -62 -32t-22 -75l-58 30q0 36 18.5 65t51.5 45.5t74 16.5q64 0 101.5 -34.5t37.5 -88.5q0 -36 -15.5 -64t-38 -48.5t-61.5 -49.5q-46 -35 -71.5 -60t-38.5 -58h224v-51h-294v50q17 47 48.5 80z
M654 741h65l-403 -741h-64zM677 16.5q-38 25.5 -54 70.5l55 33q10 -36 34 -57t54 -21q45 0 68 31t23 76q0 47 -24 74.5t-60 27.5q-28 0 -50.5 -16.5t-34.5 -40.5l-52 12l14 235h238v-51h-185l-9 -123q17 17 40.5 26t48.5 9q65 0 102.5 -43.5t37.5 -105.5q0 -44 -19 -81
t-55.5 -59t-84.5 -22q-49 0 -87 25.5z" />
    <glyph glyph-name="uni2157" unicode="&#x2157;" horiz-adv-x="933" 
d="M103.5 317.5q-41.5 26.5 -60.5 72.5l53 33q13 -36 40 -58.5t61 -22.5q40 0 64.5 21t24.5 59q0 87 -114 87q-18 0 -33 -2v52q19 -2 41 -2q46 0 71.5 20.5t25.5 53.5q0 35 -22 54t-58 19q-30 0 -53 -19t-32 -47l-52 29q17 39 56 63t89 24q60 0 97.5 -33.5t37.5 -84.5
q0 -32 -18 -58t-51 -43q81 -28 81 -108q0 -63 -43.5 -99.5t-112.5 -36.5q-51 0 -92.5 26.5zM619 741h65l-403 -741h-64zM642 16.5q-38 25.5 -54 70.5l55 33q10 -36 34 -57t54 -21q45 0 68 31t23 76q0 47 -24 74.5t-60 27.5q-28 0 -50.5 -16.5t-34.5 -40.5l-52 12l14 235h238
v-51h-185l-9 -123q17 17 40.5 26t48.5 9q65 0 102.5 -43.5t37.5 -105.5q0 -44 -19 -81t-55.5 -59t-84.5 -22q-49 0 -87 25.5z" />
    <glyph glyph-name="uni2158" unicode="&#x2158;" horiz-adv-x="933" 
d="M225 406h-195v49l182 286h76v-284h70v-51h-70v-106h-63v106zM619 741h65l-403 -741h-64zM225 457v212h-1l-133 -212h134zM642 16.5q-38 25.5 -54 70.5l55 33q10 -36 34 -57t54 -21q45 0 68 31t23 76q0 47 -24 74.5t-60 27.5q-28 0 -50.5 -16.5t-34.5 -40.5l-52 12l14 235
h238v-51h-185l-9 -123q17 17 40.5 26t48.5 9q65 0 102.5 -43.5t37.5 -105.5q0 -44 -19 -81t-55.5 -59t-84.5 -22q-49 0 -87 25.5z" />
    <glyph glyph-name="uni2159" unicode="&#x2159;" horiz-adv-x="901" 
d="M165 350v305q-25 -24 -86 -44l-15 48q43 15 70.5 33t43.5 49h53v-391h71v-50h-211v50h74zM619 741h65l-403 -741h-64zM631 13q-37 22 -60 69.5t-23 119.5q0 84 24.5 140.5t66.5 84t94 27.5q60 0 102 -34l-25 -50q-37 32 -75 32q-44 0 -77.5 -36.5t-41.5 -121.5
q48 46 106 46q34 0 65.5 -15.5t52 -47.5t20.5 -79q0 -54 -23.5 -89.5t-58 -51.5t-67.5 -16q-43 0 -80 22zM768 69q25 26 25 79q0 36 -19.5 63.5t-55.5 27.5q-33 0 -58.5 -19t-43.5 -48q2 -46 17 -75t36 -41.5t41 -12.5q33 0 58 26z" />
    <glyph glyph-name="uni215A" unicode="&#x215a;" horiz-adv-x="901" 
d="M99 316.5q-38 25.5 -54 70.5l55 33q10 -36 34 -57t54 -21q45 0 68 31t23 76q0 47 -24 74.5t-60 27.5q-28 0 -50.5 -16.5t-34.5 -40.5l-52 12l14 235h238v-51h-185l-9 -123q17 17 40.5 26t48.5 9q65 0 102.5 -43.5t37.5 -105.5q0 -44 -19 -81t-55.5 -59t-84.5 -22
q-49 0 -87 25.5zM619 741h65l-403 -741h-64zM631 13q-37 22 -60 69.5t-23 119.5q0 84 24.5 140.5t66.5 84t94 27.5q60 0 102 -34l-25 -50q-37 32 -75 32q-44 0 -77.5 -36.5t-41.5 -121.5q48 46 106 46q34 0 65.5 -15.5t52 -47.5t20.5 -79q0 -54 -23.5 -89.5t-58 -51.5
t-67.5 -16q-43 0 -80 22zM768 69q25 26 25 79q0 36 -19.5 63.5t-55.5 27.5q-33 0 -58.5 -19t-43.5 -48q2 -46 17 -75t36 -41.5t41 -12.5q33 0 58 26z" />
    <glyph glyph-name="uni2150" unicode="&#x2150;" horiz-adv-x="936" 
d="M165 350v305q-25 -24 -86 -44l-15 48q43 15 70.5 33t43.5 49h53v-391h71v-50h-211v50h74zM619 741h65l-403 -741h-64zM819 390h-213v51h285v-39q-72 -105 -121.5 -212.5t-58.5 -189.5h-72q26 170 180 390z" />
    <glyph glyph-name="two_fraction_seven" horiz-adv-x="972" 
d="M97.5 430q31.5 33 83.5 74q49 37 72 63.5t23 60.5q0 32 -20 54t-53 22q-38 0 -62 -32t-22 -75l-58 30q0 36 18.5 65t51.5 45.5t74 16.5q64 0 101.5 -34.5t37.5 -88.5q0 -36 -15.5 -64t-38 -48.5t-61.5 -49.5q-46 -35 -71.5 -60t-38.5 -58h224v-51h-294v50q17 47 48.5 80z
M654 741h65l-403 -741h-64zM855 390h-213v51h285v-39q-72 -105 -121.5 -212.5t-58.5 -189.5h-72q26 170 180 390z" />
    <glyph glyph-name="three_fraction_seven" horiz-adv-x="936" 
d="M103.5 317.5q-41.5 26.5 -60.5 72.5l53 33q13 -36 40 -58.5t61 -22.5q40 0 64.5 21t24.5 59q0 87 -114 87q-18 0 -33 -2v52q19 -2 41 -2q46 0 71.5 20.5t25.5 53.5q0 35 -22 54t-58 19q-30 0 -53 -19t-32 -47l-52 29q17 39 56 63t89 24q60 0 97.5 -33.5t37.5 -84.5
q0 -32 -18 -58t-51 -43q81 -28 81 -108q0 -63 -43.5 -99.5t-112.5 -36.5q-51 0 -92.5 26.5zM619 741h65l-403 -741h-64zM819 390h-213v51h285v-39q-72 -105 -121.5 -212.5t-58.5 -189.5h-72q26 170 180 390z" />
    <glyph glyph-name="four_fraction_seven" horiz-adv-x="936" 
d="M225 406h-195v49l182 286h76v-284h70v-51h-70v-106h-63v106zM619 741h65l-403 -741h-64zM225 457v212h-1l-133 -212h134zM819 390h-213v51h285v-39q-72 -105 -121.5 -212.5t-58.5 -189.5h-72q26 170 180 390z" />
    <glyph glyph-name="five_fraction_seven" horiz-adv-x="936" 
d="M99 316.5q-38 25.5 -54 70.5l55 33q10 -36 34 -57t54 -21q45 0 68 31t23 76q0 47 -24 74.5t-60 27.5q-28 0 -50.5 -16.5t-34.5 -40.5l-52 12l14 235h238v-51h-185l-9 -123q17 17 40.5 26t48.5 9q65 0 102.5 -43.5t37.5 -105.5q0 -44 -19 -81t-55.5 -59t-84.5 -22
q-49 0 -87 25.5zM619 741h65l-403 -741h-64zM819 390h-213v51h285v-39q-72 -105 -121.5 -212.5t-58.5 -189.5h-72q26 170 180 390z" />
    <glyph glyph-name="six_fraction_seven" horiz-adv-x="936" 
d="M120 313q-37 22 -60 69.5t-23 119.5q0 84 24.5 140.5t66.5 84t94 27.5q60 0 102 -34l-25 -50q-37 32 -75 32q-44 0 -77.5 -36.5t-41.5 -121.5q48 46 106 46q34 0 65.5 -15.5t52 -47.5t20.5 -79q0 -54 -23.5 -89.5t-58 -51.5t-67.5 -16q-43 0 -80 22zM619 741h65
l-403 -741h-64zM257 369q25 26 25 79q0 36 -19.5 63.5t-55.5 27.5q-33 0 -58.5 -19t-43.5 -48q2 -46 17 -75t36 -41.5t41 -12.5q33 0 58 26zM819 390h-213v51h285v-39q-72 -105 -121.5 -212.5t-58.5 -189.5h-72q26 170 180 390z" />
    <glyph glyph-name="oneeighth" unicode="&#x215b;" horiz-adv-x="901" 
d="M165 350v305q-25 -24 -86 -44l-15 48q43 15 70.5 33t43.5 49h53v-391h71v-50h-211v50h74zM619 741h65l-403 -741h-64zM841.5 191q25.5 -29 25.5 -76q0 -57 -46 -90.5t-117 -33.5t-114.5 32t-43.5 90q0 46 26 74t72 48q-38 19 -59.5 44t-21.5 64q0 51 42.5 81t106.5 30
q62 0 101 -30t39 -81q0 -37 -21.5 -60.5t-59.5 -41.5q45 -21 70.5 -50zM650 299q22 -17 65 -34q35 15 54 32.5t19 45.5t-22 43.5t-56 15.5q-33 0 -57.5 -15t-24.5 -44q0 -27 22 -44zM774.5 62q28.5 20 28.5 56q0 33 -25.5 52.5t-78.5 40.5q-42 -18 -65 -39t-23 -54
q0 -36 27.5 -56t66.5 -20q41 0 69.5 20z" />
    <glyph glyph-name="threeeighths" unicode="&#x215c;" horiz-adv-x="901" 
d="M308.5 327.5q-43.5 -36.5 -112.5 -36.5q-51 0 -92.5 26.5t-60.5 72.5l53 33q13 -36 40 -58.5t61 -22.5q40 0 64.5 21t24.5 59q0 87 -114 87q-18 0 -33 -2v52q19 -2 41 -2q46 0 71.5 20.5t25.5 53.5q0 35 -22 54t-58 19q-30 0 -53 -19t-32 -47l-52 29q17 39 56 63t89 24
q60 0 97.5 -33.5t37.5 -84.5q0 -32 -18 -58t-51 -43q81 -28 81 -108q0 -63 -43.5 -99.5zM619 741h65l-403 -741h-64zM841.5 191q25.5 -29 25.5 -76q0 -57 -46 -90.5t-117 -33.5t-114.5 32t-43.5 90q0 46 26 74t72 48q-38 19 -59.5 44t-21.5 64q0 51 42.5 81t106.5 30
q62 0 101 -30t39 -81q0 -37 -21.5 -60.5t-59.5 -41.5q45 -21 70.5 -50zM650 299q22 -17 65 -34q35 15 54 32.5t19 45.5t-22 43.5t-56 15.5q-33 0 -57.5 -15t-24.5 -44q0 -27 22 -44zM774.5 62q28.5 20 28.5 56q0 33 -25.5 52.5t-78.5 40.5q-42 -18 -65 -39t-23 -54
q0 -36 27.5 -56t66.5 -20q41 0 69.5 20z" />
    <glyph glyph-name="fiveeighths" unicode="&#x215d;" horiz-adv-x="901" 
d="M326 372q-19 -37 -55.5 -59t-84.5 -22q-49 0 -87 25.5t-54 70.5l55 33q10 -36 34 -57t54 -21q45 0 68 31t23 76q0 47 -24 74.5t-60 27.5q-28 0 -50.5 -16.5t-34.5 -40.5l-52 12l14 235h238v-51h-185l-9 -123q17 17 40.5 26t48.5 9q65 0 102.5 -43.5t37.5 -105.5
q0 -44 -19 -81zM619 741h65l-403 -741h-64zM841.5 191q25.5 -29 25.5 -76q0 -57 -46 -90.5t-117 -33.5t-114.5 32t-43.5 90q0 46 26 74t72 48q-38 19 -59.5 44t-21.5 64q0 51 42.5 81t106.5 30q62 0 101 -30t39 -81q0 -37 -21.5 -60.5t-59.5 -41.5q45 -21 70.5 -50zM650 299
q22 -17 65 -34q35 15 54 32.5t19 45.5t-22 43.5t-56 15.5q-33 0 -57.5 -15t-24.5 -44q0 -27 22 -44zM774.5 62q28.5 20 28.5 56q0 33 -25.5 52.5t-78.5 40.5q-42 -18 -65 -39t-23 -54q0 -36 27.5 -56t66.5 -20q41 0 69.5 20z" />
    <glyph glyph-name="seveneighths" unicode="&#x215e;" horiz-adv-x="815" 
d="M93 300q26 170 180 390h-213v51h285v-39q-72 -105 -121.5 -212.5t-58.5 -189.5h-72zM533 741h65l-403 -741h-64zM755.5 191q25.5 -29 25.5 -76q0 -57 -46 -90.5t-117 -33.5t-114.5 32t-43.5 90q0 46 26 74t72 48q-38 19 -59.5 44t-21.5 64q0 51 42.5 81t106.5 30
q62 0 101 -30t39 -81q0 -37 -21.5 -60.5t-59.5 -41.5q45 -21 70.5 -50zM564 299q22 -17 65 -34q35 15 54 32.5t19 45.5t-22 43.5t-56 15.5q-33 0 -57.5 -15t-24.5 -44q0 -27 22 -44zM688.5 62q28.5 20 28.5 56q0 33 -25.5 52.5t-78.5 40.5q-42 -18 -65 -39t-23 -54
q0 -36 27.5 -56t66.5 -20q41 0 69.5 20z" />
    <glyph glyph-name="uni2151" unicode="&#x2151;" horiz-adv-x="901" 
d="M165 350v305q-25 -24 -86 -44l-15 48q43 15 70.5 33t43.5 49h53v-391h71v-50h-211v50h74zM619 741h65l-403 -741h-64zM566 34l35 46q41 -37 77 -37q42 0 77 39.5t40 127.5q-23 -24 -51 -39t-56 -15q-30 0 -62 14.5t-54 46.5t-22 81q0 54 23.5 89t58 51t68.5 16
q42 0 79 -22.5t59.5 -70t22.5 -118.5q0 -83 -24.5 -140t-66 -84.5t-93.5 -27.5q-58 0 -111 43zM751 226.5q27 19.5 44 49.5q-2 66 -32 96t-64 30t-59.5 -26t-25.5 -78q0 -37 20 -64t57 -27q33 0 60 19.5z" />
    <glyph glyph-name="two_fraction_nine" horiz-adv-x="936" 
d="M97.5 430q31.5 33 83.5 74q49 37 72 63.5t23 60.5q0 32 -20 54t-53 22q-38 0 -62 -32t-22 -75l-58 30q0 36 18.5 65t51.5 45.5t74 16.5q64 0 101.5 -34.5t37.5 -88.5q0 -36 -15.5 -64t-38 -48.5t-61.5 -49.5q-46 -35 -71.5 -60t-38.5 -58h224v-51h-294v50q17 47 48.5 80z
M654 741h65l-403 -741h-64zM601 34l35 46q41 -37 77 -37q42 0 77 39.5t40 127.5q-23 -24 -51 -39t-56 -15q-30 0 -62 14.5t-54 46.5t-22 81q0 54 23.5 89t58 51t68.5 16q42 0 79 -22.5t59.5 -70t22.5 -118.5q0 -83 -24.5 -140t-66 -84.5t-93.5 -27.5q-58 0 -111 43z
M786 226.5q27 19.5 44 49.5q-2 66 -32 96t-64 30t-59.5 -26t-25.5 -78q0 -37 20 -64t57 -27q33 0 60 19.5z" />
    <glyph glyph-name="four_fraction_nine" horiz-adv-x="901" 
d="M225 406h-195v49l182 286h76v-284h70v-51h-70v-106h-63v106zM619 741h65l-403 -741h-64zM225 457v212h-1l-133 -212h134zM566 34l35 46q41 -37 77 -37q42 0 77 39.5t40 127.5q-23 -24 -51 -39t-56 -15q-30 0 -62 14.5t-54 46.5t-22 81q0 54 23.5 89t58 51t68.5 16
q42 0 79 -22.5t59.5 -70t22.5 -118.5q0 -83 -24.5 -140t-66 -84.5t-93.5 -27.5q-58 0 -111 43zM751 226.5q27 19.5 44 49.5q-2 66 -32 96t-64 30t-59.5 -26t-25.5 -78q0 -37 20 -64t57 -27q33 0 60 19.5z" />
    <glyph glyph-name="five_fraction_nine" horiz-adv-x="901" 
d="M99 316.5q-38 25.5 -54 70.5l55 33q10 -36 34 -57t54 -21q45 0 68 31t23 76q0 47 -24 74.5t-60 27.5q-28 0 -50.5 -16.5t-34.5 -40.5l-52 12l14 235h238v-51h-185l-9 -123q17 17 40.5 26t48.5 9q65 0 102.5 -43.5t37.5 -105.5q0 -44 -19 -81t-55.5 -59t-84.5 -22
q-49 0 -87 25.5zM619 741h65l-403 -741h-64zM566 34l35 46q41 -37 77 -37q42 0 77 39.5t40 127.5q-23 -24 -51 -39t-56 -15q-30 0 -62 14.5t-54 46.5t-22 81q0 54 23.5 89t58 51t68.5 16q42 0 79 -22.5t59.5 -70t22.5 -118.5q0 -83 -24.5 -140t-66 -84.5t-93.5 -27.5
q-58 0 -111 43zM751 226.5q27 19.5 44 49.5q-2 66 -32 96t-64 30t-59.5 -26t-25.5 -78q0 -37 20 -64t57 -27q33 0 60 19.5z" />
    <glyph glyph-name="seven_fraction_nine" horiz-adv-x="815" 
d="M273 690h-213v51h285v-39q-72 -105 -121.5 -212.5t-58.5 -189.5h-72q26 170 180 390zM533 741h65l-403 -741h-64zM480 34l35 46q41 -37 77 -37q42 0 77 39.5t40 127.5q-23 -24 -51 -39t-56 -15q-30 0 -62 14.5t-54 46.5t-22 81q0 54 23.5 89t58 51t68.5 16q42 0 79 -22.5
t59.5 -70t22.5 -118.5q0 -83 -24.5 -140t-66 -84.5t-93.5 -27.5q-58 0 -111 43zM665 226.5q27 19.5 44 49.5q-2 66 -32 96t-64 30t-59.5 -26t-25.5 -78q0 -37 20 -64t57 -27q33 0 60 19.5z" />
    <glyph glyph-name="eight_fraction_nine" horiz-adv-x="916" 
d="M310 324.5q-46 -33.5 -117 -33.5t-114.5 32t-43.5 90q0 46 26 74t72 48q-38 19 -59.5 44t-21.5 64q0 51 42.5 81t106.5 30q62 0 101 -30t39 -81q0 -37 -21.5 -60.5t-59.5 -41.5q45 -21 70.5 -50t25.5 -76q0 -57 -46 -90.5zM634 741h65l-403 -741h-64zM139 599
q22 -17 65 -34q35 15 54 32.5t19 45.5t-22 43.5t-56 15.5q-33 0 -57.5 -15t-24.5 -44q0 -27 22 -44zM263.5 362q28.5 20 28.5 56q0 33 -25.5 52.5t-78.5 40.5q-42 -18 -65 -39t-23 -54q0 -36 27.5 -56t66.5 -20q41 0 69.5 20zM794 431.5q37 -22.5 59.5 -70t22.5 -118.5
q0 -83 -24.5 -140t-66 -84.5t-93.5 -27.5q-58 0 -111 43l35 46q41 -37 77 -37q42 0 77 39.5t40 127.5q-23 -24 -51 -39t-56 -15q-30 0 -62 14.5t-54 46.5t-22 81q0 54 23.5 89t58 51t68.5 16q42 0 79 -22.5zM766 226.5q27 19.5 44 49.5q-2 66 -32 96t-64 30t-59.5 -26
t-25.5 -78q0 -37 20 -64t57 -27q33 0 60 19.5z" />
    <glyph glyph-name="period" unicode="." horiz-adv-x="270" 
d="M93.5 6.5q-16.5 16.5 -16.5 40.5q0 25 16.5 42t40.5 17q25 0 42 -17t17 -42q0 -24 -17 -40.5t-42 -16.5q-24 0 -40.5 16.5z" />
    <glyph glyph-name="comma" unicode="," horiz-adv-x="270" 
d="M127 -9q-21 5 -35.5 19.5t-14.5 36.5q0 25 16.5 42t40.5 17q25 0 42 -17.5t17 -44.5q0 -39 -27 -92.5t-67 -103.5l-41 27q52 66 69 116z" />
    <glyph glyph-name="colon" unicode=":" horiz-adv-x="270" 
d="M93.5 6.5q-16.5 16.5 -16.5 40.5q0 25 16.5 42t40.5 17q25 0 42 -17t17 -42q0 -24 -17 -40.5t-42 -16.5q-24 0 -40.5 16.5zM93.5 388.5q-16.5 16.5 -16.5 40.5q0 25 16.5 42t40.5 17q25 0 42 -17t17 -42q0 -24 -17 -40.5t-42 -16.5q-24 0 -40.5 16.5z" />
    <glyph glyph-name="semicolon" unicode=";" horiz-adv-x="270" 
d="M127 -9q-21 5 -35.5 19.5t-14.5 36.5q0 25 16.5 42t40.5 17q25 0 42 -17.5t17 -44.5q0 -39 -27 -92.5t-67 -103.5l-41 27q52 66 69 116zM93.5 388.5q-16.5 16.5 -16.5 40.5q0 25 16.5 42t40.5 17q25 0 42 -17t17 -42q0 -24 -17 -40.5t-42 -16.5q-24 0 -40.5 16.5z" />
    <glyph glyph-name="ellipsis" unicode="&#x2026;" horiz-adv-x="830" 
d="M93.5 6.5q-16.5 16.5 -16.5 40.5q0 25 16.5 42t40.5 17q25 0 42 -17t17 -42q0 -24 -17 -40.5t-42 -16.5q-24 0 -40.5 16.5zM372.5 6.5q-16.5 16.5 -16.5 40.5q0 25 16.5 42t40.5 17q25 0 42 -17t17 -42q0 -24 -17 -40.5t-42 -16.5q-24 0 -40.5 16.5zM653.5 6.5
q-16.5 16.5 -16.5 40.5q0 25 16.5 42t40.5 17q25 0 42 -17t17 -42q0 -24 -17 -40.5t-42 -16.5q-24 0 -40.5 16.5z" />
    <glyph glyph-name="exclam" unicode="!" horiz-adv-x="267" 
d="M88 741h95l-21 -501h-52zM92.5 6.5q-16.5 16.5 -16.5 40.5q0 25 16.5 42t40.5 17q25 0 41.5 -17t16.5 -42q0 -24 -16.5 -40.5t-41.5 -16.5q-24 0 -40.5 16.5z" />
    <glyph glyph-name="exclamdown" unicode="&#xa1;" horiz-adv-x="267" 
d="M174.5 519.5q16.5 -16.5 16.5 -40.5q0 -25 -16.5 -42t-41.5 -17q-24 0 -40.5 17t-16.5 42q0 24 16.5 40.5t40.5 16.5q25 0 41.5 -16.5zM110 286h52l21 -501h-95z" />
    <glyph glyph-name="question" unicode="?" horiz-adv-x="391" 
d="M154 372.5q20 39.5 58 86.5q32 40 48 70t16 70q0 38 -20 65t-58 27q-34 0 -57.5 -23.5t-35.5 -62.5l-55 43q16 48 56.5 78t92.5 30q69 0 110.5 -41t41.5 -112q0 -53 -21 -92t-62 -88q-38 -46 -56 -78t-18 -74v-31h-60v35q0 58 20 97.5zM122.5 6.5q-16.5 16.5 -16.5 40.5
q0 25 16.5 42t39.5 17q25 0 42 -17t17 -42q0 -24 -17 -40.5t-42 -16.5q-23 0 -39.5 16.5z" />
    <glyph glyph-name="questiondown" unicode="&#xbf;" horiz-adv-x="391" 
d="M269 520.5q16 -16.5 16 -41.5q0 -24 -16 -41.5t-40 -17.5q-25 0 -42 17.5t-17 41.5q0 25 17 41.5t42 16.5q24 0 40 -16.5zM237 154.5q-20 -39.5 -58 -86.5q-32 -40 -48 -70t-16 -70q0 -37 20 -65t58 -28q34 0 58 24t36 62l54 -43q-16 -47 -56.5 -77t-92.5 -30
q-69 0 -110.5 41t-41.5 112q0 53 21 91.5t62 87.5q38 46 56 78t18 75v30h60v-34q0 -58 -20 -97.5z" />
    <glyph glyph-name="periodcentered" unicode="&#xb7;" horiz-adv-x="270" 
d="M93.5 236.5q-16.5 16.5 -16.5 40.5q0 25 16.5 42t40.5 17q25 0 42 -17t17 -42q0 -24 -17 -40.5t-42 -16.5q-24 0 -40.5 16.5z" />
    <glyph glyph-name="bullet" unicode="&#x2022;" horiz-adv-x="438" 
d="M133 221q-39 23 -62 62.5t-23 85.5q0 47 23 86.5t62 62.5t85 23q47 0 86.5 -23t62.5 -62.5t23 -86.5q0 -46 -23 -85.5t-62.5 -62.5t-86.5 -23q-46 0 -85 23z" />
    <glyph glyph-name="asterisk" unicode="*" horiz-adv-x="424" 
d="M108 494l68 90l-108 32l15 46l107 -35l-2 114h49l-2 -114l106 35l15 -46l-108 -32l68 -91l-40 -27l-64 92l-64 -92z" />
    <glyph glyph-name="numbersign" unicode="#" 
d="M537 463h-101l-25 -185h96v-59h-104l-29 -219h-59l29 219h-136l-29 -219h-60l29 219h-93v59h101l25 185h-96v59h104l29 219h60l-29 -219h135l29 219h60l-29 -219h93v-59zM352 278l24 185h-135l-25 -185h136z" />
    <glyph glyph-name="slash" unicode="/" horiz-adv-x="441" 
d="M383 752h65l-401 -763h-64z" />
    <glyph glyph-name="backslash" unicode="\" horiz-adv-x="441" 
d="M-7 752h65l400 -763h-64z" />
    <glyph glyph-name="colon.calt" horiz-adv-x="270" 
d="M93.5 116.5q-16.5 16.5 -16.5 40.5q0 25 16.5 42t40.5 17q25 0 42 -17t17 -42q0 -24 -17 -40.5t-42 -16.5q-24 0 -40.5 16.5zM93.5 498.5q-16.5 16.5 -16.5 40.5q0 25 16.5 42t40.5 17q25 0 42 -17t17 -42q0 -24 -17 -40.5t-42 -16.5q-24 0 -40.5 16.5z" />
    <glyph glyph-name="exclamdown.case" horiz-adv-x="267" 
d="M174.5 734.5q16.5 -16.5 16.5 -40.5q0 -25 -16.5 -42t-41.5 -17q-24 0 -40.5 17t-16.5 42q0 24 16.5 40.5t40.5 16.5q25 0 41.5 -16.5zM110 501h52l21 -501h-95z" />
    <glyph glyph-name="questiondown.case" horiz-adv-x="391" 
d="M269 735q16 -16 16 -41t-16 -42t-40 -17q-25 0 -42 17t-17 42t17 41t42 16q24 0 40 -16zM237.5 370q-19.5 -39 -57.5 -87q-33 -39 -49 -69.5t-16 -70.5q0 -37 20 -65t58 -28q34 0 58 24t36 62l54 -43q-16 -48 -56.5 -77.5t-92.5 -29.5q-69 0 -110.5 40.5t-41.5 112.5
q0 53 21 91.5t62 87.5q38 46 56 78t18 75v30h60v-35q0 -57 -19.5 -96z" />
    <glyph glyph-name="bullet.ss02" horiz-adv-x="438" 
d="M150.5 250.5q-31.5 18.5 -50 50t-18.5 68.5t18.5 69t50 50.5t67.5 18.5q37 0 69 -18.5t50.5 -50.5t18.5 -69t-18.5 -68.5t-50.5 -50t-69 -18.5q-36 0 -67.5 18.5z" />
    <glyph glyph-name="parenleft" unicode="(" horiz-adv-x="302" 
d="M116 -1q-54 129 -54 296q0 112 26 208.5t70 167t98 110.5l33 -45q-73 -62 -118 -174.5t-45 -265.5q0 -154 45.5 -268.5t117.5 -172.5l-34 -48q-85 63 -139 192z" />
    <glyph glyph-name="parenright" unicode=")" horiz-adv-x="302" 
d="M185.5 590q54.5 -129 54.5 -297q0 -112 -26 -208.5t-70 -167.5t-99 -110l-32 46q73 62 118 174t45 265q0 154 -45.5 268.5t-117.5 172.5l33 48q85 -62 139.5 -191z" />
    <glyph glyph-name="braceleft" unicode="{" horiz-adv-x="304" 
d="M150.5 -124.5q-35.5 42.5 -35.5 138.5v102q0 126 -93 143v62q50 7 71.5 41.5t21.5 96.5v98q0 96 35 140t118 44h23v-50h-14q-45 -1 -66.5 -18t-28 -48.5t-6.5 -89.5v-82q0 -58 -26 -103t-79 -61v-2q49 -13 77 -55t28 -93v-104q0 -56 6.5 -87t28.5 -47.5t66 -17.5h14v-50
h-22q-83 0 -118.5 42.5z" />
    <glyph glyph-name="braceright" unicode="}" horiz-adv-x="304" 
d="M153.5 698.5q35.5 -42.5 35.5 -138.5v-102q0 -126 93 -143v-62q-49 -7 -71 -41.5t-22 -96.5v-98q0 -96 -35 -140t-118 -44h-22v50h13q45 1 66.5 18t28 48.5t6.5 89.5v82q0 58 26 103t80 61v2q-49 14 -77.5 55.5t-28.5 92.5v104q0 56 -6.5 87t-28.5 47.5t-66 17.5h-13v50
h21q83 0 118.5 -42.5z" />
    <glyph glyph-name="bracketleft" unicode="[" horiz-adv-x="302" 
d="M106 741h178v-51h-114v-806h114v-51h-178v908z" />
    <glyph glyph-name="bracketright" unicode="]" horiz-adv-x="302" 
d="M18 -167v51h114v806h-114v51h177v-908h-177z" />
    <glyph glyph-name="parenleft.case" horiz-adv-x="302" 
d="M116 56q-54 129 -54 296q0 112 26 208.5t70 167t98 110.5l33 -45q-73 -62 -118 -174.5t-45 -265.5q0 -154 45.5 -268.5t117.5 -172.5l-34 -48q-85 63 -139 192z" />
    <glyph glyph-name="parenright.case" horiz-adv-x="302" 
d="M185.5 647q54.5 -129 54.5 -297q0 -112 -26 -208.5t-70 -167.5t-99 -110l-32 46q73 62 118 174t45 265q0 154 -45.5 268.5t-117.5 172.5l33 48q85 -62 139.5 -191z" />
    <glyph glyph-name="braceleft.case" horiz-adv-x="304" 
d="M150.5 -67.5q-35.5 42.5 -35.5 138.5v102q0 126 -93 143v62q50 7 71.5 41.5t21.5 96.5v98q0 96 35 140t118 44h23v-50h-14q-45 -1 -66.5 -18t-28 -48.5t-6.5 -89.5v-82q0 -58 -26 -103t-79 -61v-2q49 -13 77 -55t28 -93v-104q0 -56 6.5 -87t28.5 -47.5t66 -17.5h14v-50
h-22q-83 0 -118.5 42.5z" />
    <glyph glyph-name="braceright.case" horiz-adv-x="304" 
d="M153.5 755.5q35.5 -42.5 35.5 -138.5v-102q0 -126 93 -143v-62q-49 -7 -71 -41.5t-22 -96.5v-98q0 -96 -35 -140t-118 -44h-22v50h13q45 1 66.5 18t28 48.5t6.5 89.5v82q0 58 26 103t80 61v2q-49 14 -77.5 55.5t-28.5 92.5v104q0 56 -6.5 87t-28.5 47.5t-66 17.5h-13v50
h21q83 0 118.5 -42.5z" />
    <glyph glyph-name="bracketleft.case" horiz-adv-x="302" 
d="M106 798h178v-51h-114v-806h114v-51h-178v908z" />
    <glyph glyph-name="bracketright.case" horiz-adv-x="302" 
d="M18 -110v51h114v806h-114v51h177v-908h-177z" />
    <glyph glyph-name="hyphen" unicode="-" horiz-adv-x="263" 
d="M34 306h196v-63h-196v63z" />
    <glyph glyph-name="uni00AD" unicode="&#xad;" horiz-adv-x="263" 
d="M34 306h196v-63h-196v63z" />
    <glyph glyph-name="endash" unicode="&#x2013;" horiz-adv-x="499" 
d="M34 306h431v-63h-431v63z" />
    <glyph glyph-name="emdash" unicode="&#x2014;" horiz-adv-x="975" 
d="M34 306h907v-63h-907v63z" />
    <glyph glyph-name="underscore" unicode="_" horiz-adv-x="400" 
d="M-15 -63h431v-63h-431v63z" />
    <glyph glyph-name="hyphen.case" horiz-adv-x="263" 
d="M34 424h196v-63h-196v63z" />
    <glyph glyph-name="endash.case" horiz-adv-x="499" 
d="M34 424h431v-63h-431v63z" />
    <glyph glyph-name="emdash.case" horiz-adv-x="975" 
d="M34 424h907v-63h-907v63z" />
    <glyph glyph-name="quotesinglbase" unicode="&#x201a;" horiz-adv-x="162" 
d="M63.5 -57q20.5 39 27.5 68q-23 2 -36.5 16t-13.5 35q0 22 14.5 37.5t36.5 15.5t36.5 -17t14.5 -45q0 -42 -28 -100t-62 -104l-34 23q24 32 44.5 71z" />
    <glyph glyph-name="quotedblbase" unicode="&#x201e;" horiz-adv-x="321" 
d="M63.5 -57q20.5 39 27.5 68q-23 2 -36.5 16t-13.5 35q0 22 14.5 37.5t36.5 15.5t36.5 -17t14.5 -45q0 -42 -28 -100t-62 -104l-34 23q24 32 44.5 71zM222.5 -57q20.5 39 27.5 68q-23 2 -36.5 16t-13.5 35q0 22 14.5 37.5t36.5 15.5t36.5 -17t14.5 -45q0 -42 -28 -100
t-62 -104l-34 23q24 32 44.5 71z" />
    <glyph glyph-name="quotedblleft" unicode="&#x201c;" horiz-adv-x="321" 
d="M99 660q-20 -39 -27 -67q22 -1 35.5 -15.5t13.5 -35.5q0 -22 -14.5 -37t-36.5 -15t-36.5 16.5t-14.5 44.5q0 42 28 100t62 104l34 -22q-24 -34 -44 -73zM257 660q-20 -39 -27 -67q22 -1 35.5 -15.5t13.5 -35.5q0 -22 -14.5 -37t-36.5 -15t-36.5 16.5t-14.5 44.5
q0 42 28 100t62 104l34 -22q-24 -34 -44 -73z" />
    <glyph glyph-name="quotedblright" unicode="&#x201d;" horiz-adv-x="321" 
d="M63.5 579q20.5 39 27.5 68q-23 2 -36.5 16t-13.5 35q0 22 14.5 37.5t36.5 15.5t36.5 -17t14.5 -45q0 -42 -28 -100t-62 -104l-34 23q24 32 44.5 71zM222.5 579q20.5 39 27.5 68q-23 2 -36.5 16t-13.5 35q0 22 14.5 37.5t36.5 15.5t36.5 -17t14.5 -45q0 -42 -28 -100
t-62 -104l-34 23q24 32 44.5 71z" />
    <glyph glyph-name="quoteleft" unicode="&#x2018;" horiz-adv-x="162" 
d="M99 660q-20 -39 -27 -67q22 -1 35.5 -15.5t13.5 -35.5q0 -22 -14.5 -37t-36.5 -15t-36.5 16.5t-14.5 44.5q0 42 28 100t62 104l34 -22q-24 -34 -44 -73z" />
    <glyph glyph-name="quoteright" unicode="&#x2019;" horiz-adv-x="162" 
d="M63.5 579q20.5 39 27.5 68q-23 2 -36.5 16t-13.5 35q0 22 14.5 37.5t36.5 15.5t36.5 -17t14.5 -45q0 -42 -28 -100t-62 -104l-34 23q24 32 44.5 71z" />
    <glyph glyph-name="guillemotleft" unicode="&#xab;" horiz-adv-x="451" 
d="M45 276l116 175h70l-111 -175l111 -176h-70zM221 276l116 175h70l-111 -175l111 -176h-70z" />
    <glyph glyph-name="guillemotright" unicode="&#xbb;" horiz-adv-x="451" 
d="M115 113h-70l111 175l-111 176h70l116 -176zM291 113h-70l111 175l-111 176h70l116 -176z" />
    <glyph glyph-name="guilsinglleft" unicode="&#x2039;" horiz-adv-x="276" 
d="M45 276l116 175h70l-111 -175l111 -176h-70z" />
    <glyph glyph-name="guilsinglright" unicode="&#x203a;" horiz-adv-x="276" 
d="M115 113h-70l111 175l-111 176h70l116 -176z" />
    <glyph glyph-name="quotedbl" unicode="&#x22;" horiz-adv-x="380" 
d="M80 741h64v-242h-64v242zM236 741h64v-242h-64v242z" />
    <glyph glyph-name="quotesingle" unicode="'" horiz-adv-x="224" 
d="M80 741h64v-242h-64v242z" />
    <glyph glyph-name="guillemotleft.case" horiz-adv-x="451" 
d="M45 357l116 175h70l-111 -175l111 -176h-70zM221 357l116 175h70l-111 -175l111 -176h-70z" />
    <glyph glyph-name="guillemotright.case" horiz-adv-x="451" 
d="M115 180h-70l111 176l-111 175h70l116 -175zM291 180h-70l111 176l-111 175h70l116 -175z" />
    <glyph glyph-name="guilsinglleft.case" horiz-adv-x="276" 
d="M45 357l116 175h70l-111 -175l111 -176h-70z" />
    <glyph glyph-name="guilsinglright.case" horiz-adv-x="276" 
d="M115 180h-70l111 176l-111 175h70l116 -175z" />
    <glyph glyph-name="cent" unicode="&#xa2;" horiz-adv-x="560" 
d="M416 143q-41 -35 -95 -42v-101h-57v101q-87 11 -134.5 84t-47.5 190q0 119 49 190t133 82v94h57v-93q54 -6 89 -36.5t59 -80.5l-60 -37q-15 43 -43 71t-71 28q-74 0 -105.5 -62.5t-31.5 -155.5q0 -100 32 -159t104 -59q48 0 77 30t48 80l61 -37q-23 -52 -64 -87z" />
    <glyph glyph-name="currency" unicode="&#xa4;" 
d="M485 244l42 -42l-43 -45l-44 42q-31 -24 -68 -37t-77 -13q-39 0 -76.5 12.5t-68.5 36.5l-41 -41l-44 45l41 41q-48 62 -48 144t48 144l-41 42l44 45l42 -42q66 50 146 50q39 0 76 -13t68 -36l43 41l43 -45l-41 -41q48 -62 48 -143t-49 -145zM386.5 233q40.5 24 63 65
t22.5 90q0 48 -22.5 89t-63 65t-90.5 24t-90 -24t-63 -65t-23 -89q0 -49 23 -90t63 -65t90 -24t90.5 24z" />
    <glyph glyph-name="dollar" unicode="$" 
d="M503.5 98.5q-27.5 -44.5 -74 -70.5t-102.5 -31v-91h-57v92q-67 8 -121 45.5t-85 89.5l55 51q25 -52 64 -83t87 -39v293q-59 24 -98 47t-64.5 61t-25.5 95q0 79 52 129t136 58v90h57v-90q59 -6 104 -37t70 -79l-55 -45q-40 85 -119 97v-271q66 -26 106.5 -48.5t69 -61.5
t28.5 -99q0 -58 -27.5 -102.5zM184 488.5q30 -30.5 86 -55.5v248q-50 -6 -83 -34.5t-33 -78.5q0 -49 30 -79.5zM421 101.5q38 34.5 38 90.5q0 52 -34 83t-98 58v-273q56 7 94 41.5z" />
    <glyph glyph-name="Euro" unicode="&#x20ac;" 
d="M555 103q-27 -55 -73.5 -86t-111.5 -31q-103 0 -162.5 76.5t-73.5 212.5h-71v54h67v30q0 38 3 72h-70v54h77q20 123 81.5 196.5t165.5 73.5q84 0 140 -51l-18 -76q-51 63 -126 63q-71 0 -112 -56t-56 -150h258l-15 -54h-249q-3 -34 -3 -71v-31h226l-14 -54h-208
q11 -110 51.5 -167.5t108.5 -57.5q48 0 82 28t53 77z" />
    <glyph glyph-name="florin" unicode="&#x192;" horiz-adv-x="560" 
d="M376 665q-18 -26 -25 -88l-16 -149h116v-59h-122l-38 -367q-9 -90 -46.5 -130t-114.5 -40q-21 0 -41 3l4 63q25 -5 39 -5q42 0 60 25.5t25 88.5l37 362h-112v59h118l16 154q10 91 47.5 130.5t114.5 39.5q21 0 40 -3l-4 -62q-16 4 -39 4q-41 0 -59 -26z" />
    <glyph glyph-name="sterling" unicode="&#xa3;" horiz-adv-x="560" 
d="M557 98q-17 -51 -45 -82t-78 -31q-36 0 -70.5 20.5t-83.5 60.5q-24 -39 -60 -60t-82 -21q-50 0 -83 27.5t-33 75.5q0 45 33 74t82 29q50 0 109 -31q2 20 2 32q0 42 -9 79.5t-27 94.5h-130v59h111q-21 70 -21 128q0 57 22.5 103t64 72.5t97.5 26.5q57 0 99.5 -28.5
t61.5 -77.5l-56 -46q-11 40 -40.5 64.5t-68.5 24.5q-52 0 -77.5 -39.5t-25.5 -96.5q0 -30 6 -61t18 -70h156v-59h-138q27 -86 27 -152q0 -51 -13 -90l27 -19q40 -27 62.5 -39.5t39.5 -12.5q25 0 39.5 15t27.5 53zM193 54.5q23 17.5 37 48.5q-49 34 -89 34q-26 0 -43 -13.5
t-17 -36.5t18 -36.5t42 -13.5q29 0 52 17.5z" />
    <glyph glyph-name="yen" unicode="&#xa5;" horiz-adv-x="560" 
d="M529 741l-193 -357h159v-59h-172v-92h172v-59h-172v-174h-79v174h-180v59h180v92h-180v59h166l-199 357h82l171 -309h1l167 309h77z" />
    <glyph glyph-name="cent.case" horiz-adv-x="606" 
d="M485.5 53.5q-53.5 -52.5 -133.5 -59.5v-87h-57v88q-74 9 -129 57.5t-85 130t-30 187.5q0 107 30.5 188.5t85.5 129.5t128 57v90h57v-89q80 -7 133 -59t75 -136l-68 -35q-14 66 -48.5 112t-91.5 54v-624q55 10 90.5 57t50.5 111l69 -38q-23 -82 -76.5 -134.5zM152.5 220
q20.5 -67 57.5 -108.5t85 -52.5v622q-75 -15 -119 -97.5t-44 -213.5q0 -83 20.5 -150z" />
    <glyph glyph-name="uni2219" unicode="&#x2219;" horiz-adv-x="270" 
d="M93.5 236.5q-16.5 16.5 -16.5 40.5q0 25 16.5 42t40.5 17q25 0 42 -17t17 -42q0 -24 -17 -40.5t-42 -16.5q-24 0 -40.5 16.5z" />
    <glyph glyph-name="uni2215" unicode="&#x2215;" horiz-adv-x="121" 
d="M227 741h60l-393 -741h-60z" />
    <glyph glyph-name="plus" unicode="+" 
d="M265 224h-202v59h202v204h62v-204h202v-59h-202v-204h-62v204z" />
    <glyph glyph-name="minus" unicode="&#x2212;" 
d="M63 283h466v-59h-466v59z" />
    <glyph glyph-name="multiply" unicode="&#xd7;" 
d="M295 211l-172 -172l-41 42l172 172l-172 172l41 42l172 -173l173 174l42 -42l-172 -173l172 -173l-42 -42z" />
    <glyph glyph-name="divide" unicode="&#xf7;" 
d="M256.5 409q-15.5 16 -15.5 39q0 24 15.5 40.5t38.5 16.5q24 0 40.5 -16.5t16.5 -40.5q0 -23 -16.5 -39t-40.5 -16q-23 0 -38.5 16zM63 283h466v-59h-466v59zM256.5 26q-15.5 16 -15.5 39t16 39.5t38 16.5q24 0 40.5 -16.5t16.5 -39.5t-16.5 -39t-40.5 -16q-23 0 -38.5 16
z" />
    <glyph glyph-name="equal" unicode="=" 
d="M63 378h466v-60h-466v60zM63 182h466v-59h-466v59z" />
    <glyph glyph-name="notequal" unicode="&#x2260;" 
d="M529 318h-151l-93 -136h244v-59h-284l-97 -141h-71l96 141h-110v59h151l93 136h-244v60h285l96 141h72l-97 -141h110v-60z" />
    <glyph glyph-name="greater" unicode="&#x3e;" 
d="M63 76l406 180l-406 172v62l466 -202v-64l-466 -210v62z" />
    <glyph glyph-name="less" unicode="&#x3c;" 
d="M63 224v64l466 202v-62l-405 -172l405 -180v-62z" />
    <glyph glyph-name="greaterequal" unicode="&#x2265;" 
d="M64 164l405 180l-405 172v62l466 -201v-65l-466 -209v61zM63 60h466v-60h-466v60z" />
    <glyph glyph-name="lessequal" unicode="&#x2264;" 
d="M64 312v65l466 201v-62l-405 -172l405 -180v-61zM63 60h466v-60h-466v60z" />
    <glyph glyph-name="plusminus" unicode="&#xb1;" 
d="M265 284h-202v60h202v151h62v-151h202v-60h-202v-143h-62v143zM63 60h466v-60h-466v60z" />
    <glyph glyph-name="approxequal" unicode="&#x2248;" 
d="M113.5 381.5q33.5 29.5 75.5 29.5q25 0 53 -8.5t69 -24.5q33 -14 55.5 -21t40.5 -7q25 0 46 17.5t32 41.5l43 -16q-14 -42 -47.5 -72t-75.5 -30q-24 0 -51.5 8.5t-72.5 25.5q-67 28 -94 28q-43 0 -82 -63l-40 22q15 40 48.5 69.5zM113 191q33 29 76 29q25 0 53 -8.5
t69 -24.5q33 -14 55.5 -21t40.5 -7q25 0 46.5 17.5t31.5 42.5l43 -17q-14 -42 -47.5 -72t-75.5 -30q-24 0 -53.5 9t-70.5 26q-39 15 -58.5 21.5t-35.5 6.5q-44 0 -82 -64l-40 23q15 40 48 69z" />
    <glyph glyph-name="asciitilde" unicode="~" 
d="M113.5 286.5q33.5 29.5 75.5 29.5q25 0 53 -8.5t69 -24.5q33 -14 55.5 -21t40.5 -7q25 0 46 17.5t32 41.5l43 -17q-14 -41 -47.5 -71t-75.5 -30q-24 0 -51.5 8.5t-72.5 25.5q-67 28 -94 28q-43 0 -82 -63l-40 22q15 40 48.5 69.5z" />
    <glyph glyph-name="logicalnot" unicode="&#xac;" 
d="M468 224h-405v59h466v-263h-61v204z" />
    <glyph glyph-name="asciicircum" unicode="^" horiz-adv-x="610" 
d="M271 741h67l205 -425h-61l-178 353l-176 -353h-61z" />
    <glyph glyph-name="infinity" unicode="&#x221e;" 
d="M93 192.5q-33 28.5 -33 72.5t32.5 72t76.5 28q32 0 62.5 -18t66.5 -54q38 38 64.5 55t60.5 17q45 0 77 -27t32 -71q0 -45 -33 -74t-75 -29q-60 0 -127 72q-38 -37 -67.5 -54.5t-61.5 -17.5q-42 0 -75 28.5zM208.5 214.5q22.5 12.5 64.5 49.5q-41 36 -63 49t-39 13
q-24 0 -42.5 -18t-18.5 -42q0 -26 18.5 -45t43.5 -19q14 0 36.5 12.5zM463.5 220.5q18.5 18.5 18.5 44.5q0 25 -18 43t-44 18q-19 0 -41.5 -14t-56.5 -49q28 -27 52 -44t48 -17q23 0 41.5 18.5z" />
    <glyph glyph-name="integral" unicode="&#x222b;" horiz-adv-x="567" 
d="M89 -165l4 63q25 -5 39 -5q42 0 60 25.5t25 88.5l59 575q10 91 47.5 130.5t114.5 39.5q21 0 40 -3l-4 -62q-16 4 -39 4q-41 0 -59 -26t-25 -88l-60 -575q-9 -90 -46.5 -130t-114.5 -40q-21 0 -41 3z" />
    <glyph glyph-name="uni2126" unicode="&#x2126;" horiz-adv-x="650" 
d="M164 64q-55 54 -84 133.5t-29 182.5q0 117 33.5 201.5t95.5 129t145 44.5t145 -44.5t95.5 -129t33.5 -201.5q0 -103 -30 -182.5t-84 -133.5h116v-64h-198v60q115 95 115 314q0 156 -52 237.5t-141 81.5t-141 -81.5t-52 -237.5q0 -218 114 -314v-60h-196v64h114z" />
    <glyph glyph-name="uni2206" unicode="&#x2206;" horiz-adv-x="558" 
d="M238 741h77l243 -741h-558zM457 64l-180 576h-2l-175 -576h357z" />
    <glyph glyph-name="product" unicode="&#x220f;" horiz-adv-x="663" 
d="M95 741h473v-908h-78v844h-317v-844h-78v908z" />
    <glyph glyph-name="summation" unicode="&#x2211;" horiz-adv-x="548" 
d="M139 -98h377v-64h-454v64l225 406l-225 369v64h433v-64h-350l212 -347v-36z" />
    <glyph glyph-name="radical" unicode="&#x221a;" 
d="M95 310h-87v57h142l122 -450h1l225 824h64l-251 -902h-79z" />
    <glyph glyph-name="partialdiff" unicode="&#x2202;" horiz-adv-x="520" 
d="M325.5 609.5q63.5 -69.5 103.5 -157t40 -195.5q0 -130 -56.5 -200.5t-152.5 -70.5q-95 0 -152 71t-57 204t57 204t152 71q23 0 48 -5q-39 45 -90.5 95.5t-98.5 88.5l44 50q99 -86 162.5 -155.5zM365 108q29 65 29 153t-29 153t-104 65q-76 0 -105 -65t-29 -153t29 -153
t105 -65q75 0 104 65z" />
    <glyph glyph-name="uni00B5" unicode="&#xb5;" horiz-adv-x="519" 
d="M438 522v-522h-74v54q-36 -31 -72.5 -49.5t-80.5 -18.5q-32 0 -56 12v-166h-74v690h74v-372q0 -40 19.5 -72t59.5 -32q56 0 130 71v405h74z" />
    <glyph glyph-name="percent" unicode="%" horiz-adv-x="700" 
d="M65 425.5q-31 55.5 -31 135.5q0 82 30.5 138t104.5 56t104.5 -56t30.5 -138q0 -80 -31 -135.5t-104 -55.5t-104 55.5zM523 741h59l-405 -741h-59zM241 561q0 61 -14.5 101t-57.5 40t-58 -40t-15 -101q0 -138 73 -138q72 0 72 138zM427 41.5q-31 55.5 -31 135.5
q0 82 30.5 138t104.5 56t104.5 -56t30.5 -138q0 -80 -31 -135.5t-104 -55.5t-104 55.5zM588.5 78.5q14.5 39.5 14.5 98.5q0 61 -14.5 101t-57.5 40t-58 -40.5t-15 -100.5q0 -138 73 -138q43 0 57.5 39.5z" />
    <glyph glyph-name="perthousand" unicode="&#x2030;" horiz-adv-x="1034" 
d="M65 425.5q-31 55.5 -31 135.5q0 82 30.5 138t104.5 56t104.5 -56t30.5 -138q0 -80 -31 -135.5t-104 -55.5t-104 55.5zM523 741h59l-405 -741h-59zM241 561q0 61 -14.5 101t-57.5 40t-58 -40t-15 -101q0 -138 73 -138q72 0 72 138zM427 41.5q-31 55.5 -31 135.5
q0 82 30.5 138t104.5 56t104.5 -56t30.5 -138q0 -80 -31 -135.5t-104 -55.5t-104 55.5zM761 41.5q-31 55.5 -31 135.5q0 82 30.5 138t104.5 56t104.5 -56t30.5 -138q0 -80 -31 -135.5t-104 -55.5t-104 55.5zM588.5 78.5q14.5 39.5 14.5 98.5q0 61 -14.5 101t-57.5 40
t-58 -40.5t-15 -100.5q0 -138 73 -138q43 0 57.5 39.5zM938 177q0 60 -15 100.5t-58 40.5t-57.5 -40t-14.5 -101q0 -59 14.5 -98.5t57.5 -39.5q73 0 73 138z" />
    <glyph glyph-name="plus.case" 
d="M265 319h-202v59h202v204h62v-204h202v-59h-202v-204h-62v204z" />
    <glyph glyph-name="minus.case" 
d="M63 378h466v-59h-466v59z" />
    <glyph glyph-name="multiply.case" 
d="M295 306l-172 -172l-41 42l172 172l-172 172l41 42l172 -173l173 174l42 -42l-172 -173l172 -173l-42 -42z" />
    <glyph glyph-name="divide.case" 
d="M256.5 504q-15.5 16 -15.5 39q0 24 15.5 40.5t38.5 16.5q24 0 40.5 -16.5t16.5 -40.5q0 -23 -16.5 -39t-40.5 -16q-23 0 -38.5 16zM63 378h466v-59h-466v59zM256.5 121q-15.5 16 -15.5 39t16 39.5t38 16.5q24 0 40.5 -16.5t16.5 -39.5t-16.5 -39t-40.5 -16
q-23 0 -38.5 16z" />
    <glyph glyph-name="equal.case" 
d="M63 473h466v-60h-466v60zM63 277h466v-59h-466v59z" />
    <glyph glyph-name="notequal.case" 
d="M529 413h-151l-93 -136h244v-59h-284l-97 -141h-71l96 141h-110v59h151l93 136h-244v60h285l96 141h72l-97 -141h110v-60z" />
    <glyph glyph-name="greater.case" 
d="M63 171l406 180l-406 172v62l466 -202v-64l-466 -210v62z" />
    <glyph glyph-name="less.case" 
d="M63 319v64l466 202v-62l-405 -172l405 -180v-62z" />
    <glyph glyph-name="approxequal.case" 
d="M113.5 476.5q33.5 29.5 75.5 29.5q25 0 53 -8.5t69 -24.5q33 -14 55.5 -21t40.5 -7q25 0 46 17.5t32 41.5l43 -16q-14 -42 -47.5 -72t-75.5 -30q-24 0 -51.5 8.5t-72.5 25.5q-67 28 -94 28q-43 0 -82 -63l-40 22q15 40 48.5 69.5zM113 286q33 29 76 29q25 0 53 -8.5
t69 -24.5q33 -14 55.5 -21t40.5 -7q25 0 46.5 17.5t31.5 42.5l43 -17q-14 -42 -47.5 -72t-75.5 -30q-24 0 -53.5 9t-70.5 26q-39 15 -58.5 21.5t-35.5 6.5q-44 0 -82 -64l-40 23q15 40 48 69z" />
    <glyph glyph-name="logicalnot.case" 
d="M468 319h-405v59h466v-263h-61v204z" />
    <glyph glyph-name="asciitilde.case" 
d="M113.5 381.5q33.5 29.5 75.5 29.5q25 0 53 -8.5t69 -24.5q33 -14 55.5 -21t40.5 -7q25 0 46 17.5t32 41.5l43 -17q-14 -41 -47.5 -71t-75.5 -30q-24 0 -51.5 8.5t-72.5 25.5q-67 28 -94 28q-43 0 -82 -63l-40 22q15 40 48.5 69.5z" />
    <glyph glyph-name="infinity.case" 
d="M93 287.5q-33 28.5 -33 72.5t32.5 72t76.5 28q32 0 62.5 -18t66.5 -54q38 38 64.5 55t60.5 17q45 0 77 -27t32 -71q0 -45 -33 -74t-75 -29q-60 0 -127 72q-38 -37 -67.5 -54.5t-61.5 -17.5q-42 0 -75 28.5zM208.5 309.5q22.5 12.5 64.5 49.5q-41 36 -63 49t-39 13
q-24 0 -42.5 -18t-18.5 -42q0 -26 18.5 -45t43.5 -19q14 0 36.5 12.5zM463.5 315.5q18.5 18.5 18.5 44.5q0 25 -18 43t-44 18q-19 0 -41.5 -14t-56.5 -49q28 -27 52 -44t48 -17q23 0 41.5 18.5z" />
    <glyph glyph-name="lozenge" unicode="&#x25ca;" horiz-adv-x="517" 
d="M30 296l195 460h65l197 -460l-200 -459h-61zM258 -71l157 367l-157 370h-2l-152 -370l152 -367h2z" />
    <glyph glyph-name="uni2713" unicode="&#x2713;" horiz-adv-x="645" 
d="M517 692l94 -57l-398 -585h-59l-120 254l104 42l62 -141z" />
    <glyph glyph-name="uni2764" unicode="&#x2764;" horiz-adv-x="1126" 
d="M152 673l174 176v-746l-174 -174v744zM475 673l174 176v-746l-174 -174v744zM801 673l173 176v-746l-173 -174v744z" />
    <glyph glyph-name="at" unicode="@" horiz-adv-x="833" 
d="M236.5 -69q-88.5 52 -139.5 140.5t-51 193.5t51 193t139.5 140t194.5 52q98 0 179.5 -44t128.5 -120t47 -166q0 -77 -33.5 -139.5t-85.5 -97.5t-104 -35q-40 0 -66.5 21.5t-29.5 55.5q-61 -77 -133 -77q-58 0 -92 40.5t-34 108.5q0 67 31 133t83.5 108t114.5 42
q42 0 68.5 -21t37.5 -57h2l21 57h56l-93 -278q-8 -26 -8 -42q0 -42 48 -42q43 0 81 32t61 84t23 110q0 80 -41.5 143t-111.5 98t-151 35q-91 0 -166.5 -44t-119.5 -120.5t-44 -169.5t44.5 -169.5t121 -120.5t169.5 -44q75 0 143.5 30.5t111.5 84.5l16 -49
q-49 -55 -122.5 -86.5t-152.5 -31.5q-106 0 -194.5 52zM427.5 139q38.5 44 62.5 104t24 102q0 36 -18 63t-57 27q-45 0 -83.5 -36.5t-61 -91.5t-22.5 -106q0 -106 75 -106q42 0 80.5 44z" />
    <glyph glyph-name="ampersand" unicode="&#x26;" horiz-adv-x="621" 
d="M616 69l-4 -71q-67 -1 -158 70q-85 -82 -198 -82q-56 0 -105 26.5t-78.5 73t-29.5 103.5q0 73 39 122t109 96q-52 111 -52 185q0 70 41.5 117t109.5 47q63 0 101.5 -39t38.5 -103q0 -52 -21.5 -91.5t-53 -67.5t-82.5 -63q33 -61 78.5 -120t94.5 -105q26 41 44 90.5
t25 99.5l63 -34q-21 -117 -80 -201q69 -53 118 -53zM247 445q57 40 87 77t30 89q0 37 -21 60.5t-56 23.5q-39 0 -59.5 -29.5t-20.5 -69.5q0 -63 40 -151zM403 113q-51 49 -99 111.5t-86 129.5q-48 -35 -74.5 -72.5t-26.5 -87.5q0 -38 19 -71.5t52.5 -53.5t74.5 -20
q76 0 140 64z" />
    <glyph glyph-name="paragraph" unicode="&#xb6;" horiz-adv-x="622" 
d="M216 415q-49 0 -88.5 21t-61.5 57t-22 79q0 44 22.5 83t64 62.5t95.5 23.5h301v-904h-54v854h-152v-854h-54v578h-51z" />
    <glyph glyph-name="section" unicode="&#xa7;" horiz-adv-x="533" 
d="M444.5 69q19.5 -32 19.5 -76q0 -46 -25.5 -82.5t-70.5 -56.5t-103 -20q-76 0 -133 40.5t-74 115.5l57 43q28 -135 153 -135q55 0 90 24t35 68q0 31 -20 54t-49 38.5t-80 36.5q-61 25 -99.5 46.5t-65 57t-26.5 86.5q0 93 100 158q-70 51 -70 130q0 46 24 82t66 56.5
t94 20.5q73 0 124 -38.5t68 -109.5l-56 -44q-12 61 -47.5 94.5t-91.5 33.5q-46 0 -78 -24t-32 -67q0 -32 19.5 -55t48.5 -38.5t79 -36.5q60 -26 97 -47t63 -56.5t26 -86.5q0 -92 -98 -155q36 -25 55.5 -57zM140.5 264q20.5 -24 50 -40t82.5 -39q11 -5 27.5 -12t38.5 -18
q80 51 80 115q0 33 -20 57t-49 40.5t-80 38.5q-55 25 -67 31q-83 -52 -83 -116q0 -33 20.5 -57z" />
    <glyph glyph-name="copyright" unicode="&#xa9;" horiz-adv-x="870" 
d="M240 37.5q-88 51.5 -139 139.5t-51 193t51 193.5t139 140t194 51.5q107 0 195.5 -51.5t139.5 -139.5t51 -194q0 -105 -51 -193t-139.5 -139.5t-195.5 -51.5q-106 0 -194 51.5zM603.5 79.5q75.5 43.5 118 120t42.5 170.5t-43 170.5t-118.5 120.5t-168.5 44q-94 0 -169 -44
t-117.5 -120.5t-42.5 -170.5t43 -170t118.5 -120t167.5 -44q94 0 169.5 43.5zM334.5 156.5q-44.5 28.5 -70.5 83t-26 130.5q0 75 25 130t69.5 84.5t101.5 29.5q67 0 109 -35t60 -98l-58 -16q-21 100 -111 100q-70 0 -97.5 -56.5t-27.5 -137.5q0 -80 27.5 -137t97.5 -57
q46 0 74.5 28t37.5 72l58 -16q-16 -61 -59 -97t-111 -36q-55 0 -99.5 28.5z" />
    <glyph glyph-name="registered" unicode="&#xae;" horiz-adv-x="870" 
d="M240 37.5q-88 51.5 -139 139.5t-51 193t51 193.5t139 140t194 51.5q107 0 195.5 -51.5t139.5 -139.5t51 -194q0 -105 -51 -193t-139.5 -139.5t-195.5 -51.5q-106 0 -194 51.5zM603.5 79.5q75.5 43.5 118 120t42.5 170.5t-43 170.5t-118.5 120.5t-168.5 44q-94 0 -169 -44
t-117.5 -120.5t-42.5 -170.5t43 -170t118.5 -120t167.5 -44q94 0 169.5 43.5zM448 598q86 0 122 -38t36 -95q0 -43 -29 -76t-79 -45l98 -214h-65l-91 205h-99v-205h-58v468h165zM512.5 405.5q28.5 21.5 28.5 62.5q0 48 -30 64.5t-86 16.5h-84v-165h78q65 0 93.5 21.5z" />
    <glyph glyph-name="trademark" unicode="&#x2122;" horiz-adv-x="893" 
d="M156 693h-121v48h303v-48h-121v-349h-61v349zM404 741h84l109 -191h2l108 191h83v-397h-60v328h-2l-132 -233l-130 233h-2v-328h-60v397z" />
    <glyph glyph-name="degree" unicode="&#xb0;" horiz-adv-x="380" 
d="M121.5 493.5q-31.5 18.5 -50 50.5t-18.5 69t18.5 69t50 50.5t68.5 18.5t69 -18.5t50.5 -50.5t18.5 -69t-18.5 -69t-50.5 -50.5t-69 -18.5t-68.5 18.5zM251.5 552q25.5 25 25.5 61t-25.5 61.5t-61.5 25.5t-61 -25.5t-25 -61.5t25 -61t61 -25t61.5 25z" />
    <glyph glyph-name="bar" unicode="|" horiz-adv-x="226" 
d="M82 741h62v-979h-62v979z" />
    <glyph glyph-name="brokenbar" unicode="&#xa6;" horiz-adv-x="226" 
d="M82 741h62v-371h-62v371zM82 165h62v-403h-62v403z" />
    <glyph glyph-name="dagger" unicode="&#x2020;" horiz-adv-x="538" 
d="M231 472h-171v61h171v208h75v-208h172v-61h-172v-627h-75v627z" />
    <glyph glyph-name="uni2113" unicode="&#x2113;" horiz-adv-x="481" 
d="M406 92l28 -50q-57 -57 -139 -57q-64 0 -104 40.5t-40 116.5v70q-32 -24 -83 -60l-33 56q40 27 116 80v292q0 83 41 129t108 46q60 0 97 -39.5t37 -111.5q0 -63 -19 -114t-65.5 -105t-130.5 -121v-103q0 -65 25 -91.5t64 -26.5q46 0 98 49zM219 341q85 70 119 129t34 126
q0 104 -75 104q-38 0 -58 -29t-20 -85v-245z" />
    <glyph glyph-name="daggerdbl" unicode="&#x2021;" horiz-adv-x="538" 
d="M231 47h-171v62h171v369h-171v61h171v202h75v-202h172v-61h-172v-369h172v-62h-172v-202h-75v202z" />
    <glyph glyph-name="estimated" unicode="&#x212e;" horiz-adv-x="943" 
d="M261.5 39.5q-98.5 51.5 -156 139.5t-57.5 191t57.5 191t155 139.5t213.5 51.5q115 0 212 -52.5t153 -142t56 -194.5h-679q-11 0 -11 -12v-167q0 -42 45.5 -77t111 -55.5t119.5 -20.5q147 0 241 109h82q-57 -71 -143 -111.5t-185 -40.5q-116 0 -214.5 51.5zM738 413v147
q0 13 -5 26.5t-14 23.5q-48 51 -111.5 76.5t-137.5 25.5t-136.5 -25t-107.5 -77q-9 -11 -15 -24.5t-6 -25.5v-147q0 -10 11 -10h511q11 0 11 10z" />
    <glyph glyph-name="ampersand.alt" horiz-adv-x="621" 
d="M616 69l-4 -71q-67 -1 -158 70q-85 -82 -198 -82q-56 0 -105 26.5t-78.5 73t-29.5 103.5q0 73 38.5 121.5t108.5 97.5q-51 107 -51 184q0 70 41.5 117t109.5 47q64 0 102 -39.5t38 -102.5l-1 -23l-77 -41q12 29 12 61q0 37 -21 60.5t-56 23.5q-39 0 -59.5 -29.5
t-20.5 -69.5q0 -60 34 -138t89 -155.5t116 -135.5q26 41 44 90.5t25 99.5l63 -34q-21 -117 -80 -201q69 -53 118 -53zM403 113q-52 49 -100 112t-85 130q-49 -36 -75 -73.5t-26 -87.5q0 -38 19 -71.5t52.5 -53.5t74.5 -20q76 0 140 64z" />
    <glyph glyph-name="at.case" horiz-adv-x="837" 
d="M238.5 33q-88.5 52 -139.5 140.5t-51 193.5t51 193t139.5 140t194.5 52q98 0 179.5 -44t128.5 -120t47 -166q0 -77 -33.5 -139.5t-85.5 -97.5t-104 -35q-40 0 -66.5 21.5t-29.5 55.5q-61 -77 -133 -77q-58 0 -92 40.5t-34 108.5q0 67 31 133t83.5 108t114.5 42
q42 0 68.5 -21t37.5 -57h2l21 57h56l-93 -278q-8 -26 -8 -42q0 -42 48 -42q43 0 81 32t61 84t23 110q0 80 -41.5 143t-111.5 98t-151 35q-91 0 -166.5 -44t-119.5 -120.5t-44 -169.5t44.5 -169.5t121 -120.5t169.5 -44q75 0 143.5 30.5t111.5 84.5l16 -49
q-49 -55 -122.5 -86.5t-152.5 -31.5q-106 0 -194.5 52zM429.5 241q38.5 44 62.5 104t24 102q0 36 -18 63t-57 27q-45 0 -83.5 -36.5t-61 -91.5t-22.5 -106q0 -106 75 -106q42 0 80.5 44z" />
    <glyph glyph-name="bar.case" horiz-adv-x="226" 
d="M82 808h62v-979h-62v979z" />
    <glyph glyph-name="brokenbar.case" horiz-adv-x="226" 
d="M82 808h62v-371h-62v371zM82 232h62v-403h-62v403z" />
    <glyph glyph-name="uni02C9" unicode="&#x2c9;" horiz-adv-x="415" 
d="M48 709h319v-55h-319v55z" />
    <glyph glyph-name="uni0308" unicode="&#x308;" horiz-adv-x="0" 
d="M-302.5 650.5q-13.5 13.5 -13.5 32.5q0 20 13.5 34t32.5 14q20 0 34 -14t14 -34q0 -19 -14 -32.5t-34 -13.5q-19 0 -32.5 13.5zM-128 650.5q-14 13.5 -14 32.5q0 20 13.5 34t33.5 14t33.5 -14t13.5 -34q0 -19 -13.5 -32.5t-33.5 -13.5q-19 0 -33 13.5z" />
    <glyph glyph-name="uni0307" unicode="&#x307;" horiz-adv-x="0" 
d="M-131 649q-14 14 -14 34t14 34.5t34 14.5t34.5 -14.5t14.5 -34.5t-14.5 -34t-34.5 -14t-34 14z" />
    <glyph glyph-name="gravecomb" unicode="&#x300;" horiz-adv-x="0" 
d="M-198 741h83l67 -137h-51z" />
    <glyph glyph-name="acutecomb" unicode="&#x301;" horiz-adv-x="0" 
d="M-131 741h83l-98 -137h-52z" />
    <glyph glyph-name="uni030B" unicode="&#x30b;" horiz-adv-x="0" 
d="M-283 741h75l-98 -137h-45zM-122 741h74l-98 -137h-45z" />
    <glyph glyph-name="uni0302" unicode="&#x302;" horiz-adv-x="0" 
d="M-221 741h74l99 -137h-56l-81 90l-78 -90h-57z" />
    <glyph glyph-name="circumflexcomb_hookcomb" horiz-adv-x="0" 
d="M-121 736q13 14 13 26q0 11 -11.5 19.5t-32.5 8.5q-41 0 -77 -20l-11 43q44 22 94 22q47 0 72.5 -17.5t25.5 -46.5q0 -35 -56 -72h-62q32 23 45 37zM-285 703h74l99 -99h-57l-80 62l-76 -62h-59z" />
    <glyph glyph-name="uni030C" unicode="&#x30c;" horiz-adv-x="0" 
d="M-320 741h57l78 -90l81 90h56l-99 -137h-74z" />
    <glyph glyph-name="uni0306" unicode="&#x306;" horiz-adv-x="0" 
d="M-301 636q-40 40 -51 105h53q9 -40 34 -66t65 -26t66 26t34 66h52q-10 -64 -50.5 -104.5t-101.5 -40.5t-101 40z" />
    <glyph glyph-name="brevecomb_hookcomb" horiz-adv-x="0" 
d="M-176.5 749.5q12.5 14.5 12.5 26.5t-11.5 20.5t-32.5 8.5q-39 0 -78 -21l-10 43q44 22 95 22q47 0 71.5 -17.5t24.5 -46.5q0 -36 -55 -72h-61q32 22 44.5 36.5zM-274 625q-37 29 -48 79h52q17 -56 85 -56q33 0 55 14t30 42h52q-11 -49 -49 -78.5t-88 -29.5q-52 0 -89 29z
" />
    <glyph glyph-name="uni030A" unicode="&#x30a;" horiz-adv-x="0" 
d="M-192 609q-25 25 -25 60t25 60t59 25q35 0 60 -25t25 -60t-25 -60t-60 -25q-34 0 -59 25zM-100.5 637.5q13.5 13.5 13.5 31.5t-13.5 32t-32.5 14q-18 0 -31.5 -14t-13.5 -32t13.5 -31.5t31.5 -13.5q19 0 32.5 13.5z" />
    <glyph glyph-name="tildecomb" unicode="&#x303;" horiz-adv-x="0" 
d="M-263 745q15 0 30.5 -6.5t36.5 -18.5q19 -11 31.5 -16.5t24.5 -5.5q19 0 34 13t25 34l33 -24q-16 -31 -39 -54.5t-52 -23.5q-15 0 -30.5 6.5t-39.5 20.5q-38 23 -57 23q-33 0 -63 -51l-31 29q44 74 97 74z" />
    <glyph glyph-name="uni0304" unicode="&#x304;" horiz-adv-x="0" 
d="M-367 709h319v-55h-319v55z" />
    <glyph glyph-name="hookabovecomb" unicode="&#x309;" horiz-adv-x="0" 
d="M-120.5 644.5q13.5 15.5 13.5 28.5q0 14 -11.5 22.5t-32.5 8.5q-42 0 -78 -20l-10 43q42 22 94 22q47 0 72 -18t25 -49q0 -39 -61 -78h-59q34 25 47.5 40.5z" />
    <glyph glyph-name="uni0312" unicode="&#x312;" horiz-adv-x="0" 
d="M-99 741h51l-67 -137h-83z" />
    <glyph glyph-name="uni0315" unicode="&#x315;" horiz-adv-x="0" 
d="M-122 741h74l-30 -180h-53z" />
    <glyph glyph-name="dotbelowcomb" unicode="&#x323;" horiz-adv-x="0" 
d="M-131 -154q-14 14 -14 34t14 34t34 14t34.5 -14t14.5 -34t-14.5 -34t-34.5 -14t-34 14z" />
    <glyph glyph-name="uni0326" unicode="&#x326;" horiz-adv-x="0" 
d="M-131 -58h83l-98 -137h-52z" />
    <glyph glyph-name="uni0327" unicode="&#x327;" horiz-adv-x="0" 
d="M-72.5 -72.5q24.5 -16.5 24.5 -50.5q0 -38 -30 -58.5t-74 -20.5q-23 0 -49 5t-39 14l12 43q11 -8 33 -14t41 -6q23 0 36 8.5t13 25.5q0 23 -26 33t-80 14l57 85h50l-35 -54q42 -8 66.5 -24.5z" />
    <glyph glyph-name="uni0328" unicode="&#x328;" horiz-adv-x="0" 
d="M-178.5 -173.5q-25.5 18.5 -25.5 57.5q0 37 29.5 71.5t83.5 60.5l43 -16q-51 -25 -77.5 -53.5t-26.5 -55.5q0 -19 11.5 -28.5t30.5 -9.5q30 0 58 17v-45q-28 -17 -64 -17q-37 0 -62.5 18.5z" />
    <glyph glyph-name="dieresis" unicode="&#xa8;" horiz-adv-x="364" 
d="M61.5 650.5q-13.5 13.5 -13.5 32.5q0 20 13.5 34t32.5 14q20 0 34 -14t14 -34q0 -19 -14 -32.5t-34 -13.5q-19 0 -32.5 13.5zM236 650.5q-14 13.5 -14 32.5q0 20 13.5 34t33.5 14t33.5 -14t13.5 -34q0 -19 -13.5 -32.5t-33.5 -13.5q-19 0 -33 13.5z" />
    <glyph glyph-name="dotaccent" unicode="&#x2d9;" horiz-adv-x="193" 
d="M62 649q-14 14 -14 34t14 34.5t34 14.5t34.5 -14.5t14.5 -34.5t-14.5 -34t-34.5 -14t-34 14z" />
    <glyph glyph-name="grave" unicode="`" horiz-adv-x="246" 
d="M48 741h83l67 -137h-51z" />
    <glyph glyph-name="acute" unicode="&#xb4;" horiz-adv-x="246" 
d="M115 741h83l-98 -137h-52z" />
    <glyph glyph-name="hungarumlaut" unicode="&#x2dd;" horiz-adv-x="399" 
d="M116 741h75l-98 -137h-45zM277 741h74l-98 -137h-45z" />
    <glyph glyph-name="circumflex" unicode="&#x2c6;" horiz-adv-x="368" 
d="M147 741h74l99 -137h-56l-81 90l-78 -90h-57z" />
    <glyph glyph-name="caron" unicode="&#x2c7;" horiz-adv-x="368" 
d="M48 741h57l78 -90l81 90h56l-99 -137h-74z" />
    <glyph glyph-name="breve" unicode="&#x2d8;" horiz-adv-x="400" 
d="M99 636q-40 40 -51 105h53q9 -40 34 -66t65 -26t66 26t34 66h52q-10 -64 -50.5 -104.5t-101.5 -40.5t-101 40z" />
    <glyph glyph-name="ring" unicode="&#x2da;" horiz-adv-x="265" 
d="M73 609q-25 25 -25 60t25 60t59 25q35 0 60 -25t25 -60t-25 -60t-60 -25q-34 0 -59 25zM164.5 637.5q13.5 13.5 13.5 31.5t-13.5 32t-32.5 14q-18 0 -31.5 -14t-13.5 -32t13.5 -31.5t31.5 -13.5q19 0 32.5 13.5z" />
    <glyph glyph-name="tilde" unicode="&#x2dc;" horiz-adv-x="408" 
d="M145 745q15 0 30.5 -6.5t36.5 -18.5q19 -11 31.5 -16.5t24.5 -5.5q19 0 34 13t25 34l33 -24q-16 -31 -39 -54.5t-52 -23.5q-15 0 -30.5 6.5t-39.5 20.5q-38 23 -57 23q-33 0 -63 -51l-31 29q44 74 97 74z" />
    <glyph glyph-name="macron" unicode="&#xaf;" horiz-adv-x="415" 
d="M48 709h319v-55h-319v55z" />
    <glyph glyph-name="cedilla" unicode="&#xb8;" horiz-adv-x="288" 
d="M215.5 -72.5q24.5 -16.5 24.5 -50.5q0 -38 -30 -58.5t-74 -20.5q-23 0 -49 5t-39 14l12 43q11 -8 33 -14t41 -6q23 0 36 8.5t13 25.5q0 23 -26 33t-80 14l57 85h50l-35 -54q42 -8 66.5 -24.5z" />
    <glyph glyph-name="ogonek" unicode="&#x2db;" horiz-adv-x="252" 
d="M73.5 -173.5q-25.5 18.5 -25.5 57.5q0 37 29.5 71.5t83.5 60.5l43 -16q-51 -25 -77.5 -53.5t-26.5 -55.5q0 -19 11.5 -28.5t30.5 -9.5q30 0 58 17v-45q-28 -17 -64 -17q-37 0 -62.5 18.5z" />
    <glyph glyph-name="uni03060301" horiz-adv-x="0" 
d="M-144 840h84l-101 -105h-52zM-274 625q-37 29 -48 79h52q17 -56 85 -56q33 0 55 14t30 42h52q-11 -49 -49 -78.5t-88 -29.5q-52 0 -89 29z" />
    <glyph glyph-name="uni03060300" horiz-adv-x="0" 
d="M-310 840h84l69 -105h-52zM-274 625q-37 29 -48 79h52q17 -56 85 -56q33 0 55 14t30 42h52q-11 -49 -49 -78.5t-88 -29.5q-52 0 -89 29z" />
    <glyph glyph-name="uni03060303" horiz-adv-x="0" 
d="M-252 832q15 0 29.5 -5.5t36.5 -17.5q3 -1 14 -7t19.5 -8.5t15.5 -2.5q27 0 54 46l33 -25q-42 -68 -91 -68q-14 0 -27.5 5.5t-36.5 16.5q-17 9 -28.5 14t-22.5 5q-25 0 -53 -46l-33 24q41 69 90 69zM-285 625q-37 29 -48 79h52q17 -56 85 -56t85 56h52
q-11 -49 -49.5 -78.5t-87.5 -29.5q-52 0 -89 29z" />
    <glyph glyph-name="uni03020301" horiz-adv-x="0" 
d="M-143 840h84l-102 -105h-51zM-221 703h74l99 -99h-57l-80 62l-76 -62h-59z" />
    <glyph glyph-name="uni03020300" horiz-adv-x="0" 
d="M-310 840h84l69 -105h-52zM-221 703h74l99 -99h-57l-80 62l-76 -62h-59z" />
    <glyph glyph-name="uni03020303" horiz-adv-x="0" 
d="M-250 832q14 0 27.5 -5.5t36.5 -16.5q17 -9 28.5 -14t22.5 -5q26 0 53 46l34 -25q-42 -68 -91 -68q-15 0 -30 6t-35 17q-13 7 -26.5 12.5t-23.5 5.5q-25 0 -54 -46l-32 24q40 69 90 69zM-231 703h74l98 -99h-56l-79 62l-77 -62h-59z" />
    <glyph glyph-name="ncomma" horiz-adv-x="201" 
d="M74 741h79l-51 -137h-54z" />
    </font>
</defs>
</svg>
