<?xml version="1.0" standalone="no"?>
<!DOCTYPE svg PUBLIC "-//W3C//DTD SVG 1.1//EN" "http://www.w3.org/Graphics/SVG/1.1/DTD/svg11.dtd" >
<svg xmlns="http://www.w3.org/2000/svg" xmlns:xlink="http://www.w3.org/1999/xlink" version="1.1">
<metadata>
Created by FontForge 20190801 at Wed Jan 29 13:34:58 2020
 By Jimmy Wärting
Copyright (c) 2019 The Manufacturers Life Insurance Company (Manulife) - All Rights Reserved. The information contained herein, including without limitation font and typeface, is proprietary to Manulife and shall not be reproduced, copied in whole or in part, adapted, modified, or disseminated without the express written consent of Manulife.
</metadata>
<defs>
<font id="ManulifeJHSansTest4_2-Demibold" horiz-adv-x="592" >
  <font-face 
    font-family="Manulife JH Sans Test 4_2 DemiBd"
    font-weight="600"
    font-stretch="normal"
    units-per-em="1000"
    panose-1="0 0 7 0 0 0 0 0 0 0"
    ascent="800"
    descent="-200"
    x-height="527"
    cap-height="741"
    bbox="-409 -238 1081 1053"
    underline-thickness="92"
    underline-position="-171"
    unicode-range="U+000D-FB02"
  />
<missing-glyph horiz-adv-x="697" 
d="M95 741h507v-741h-507v741z" />
    <glyph glyph-name="f_i" unicode="fi" horiz-adv-x="583" 
d="M22 438v89h74v74q0 69 38 112t112 43q56 0 99 -20l-29 -84q-29 12 -55 12q-28 0 -42.5 -18t-14.5 -52v-67h118l-17 -89h-101v-438h-108v438h-74zM401.5 641q-20.5 20 -20.5 47t20 47t47 20q28 0 48 -19.5t20 -47.5q0 -27 -20 -47t-48 -20q-26 0 -46.5 20zM395 527h108
v-527h-108v527z" />
    <glyph glyph-name="f_l" unicode="fl" horiz-adv-x="583" 
d="M22 438v89h74v74q0 69 38 112t112 43q56 0 99 -20l-29 -84q-29 12 -55 12q-28 0 -42.5 -18t-14.5 -52v-67h118l-17 -89h-101v-438h-108v438h-74zM396 729l107 50v-779h-107v729z" />
    <glyph glyph-name=".notdef" horiz-adv-x="697" 
d="M95 741h507v-741h-507v741z" />
    <glyph glyph-name="NULL" horiz-adv-x="0" 
 />
    <glyph glyph-name="nonmarkingreturn" unicode="&#xd;" horiz-adv-x="296" 
 />
    <glyph glyph-name="space" unicode=" " horiz-adv-x="222" 
 />
    <glyph glyph-name="space" unicode="&#xa0;" horiz-adv-x="222" 
 />
    <glyph glyph-name="A" unicode="A" horiz-adv-x="588" 
d="M477 0l-62 209h-243l-61 -209h-116l237 741h119l242 -741h-116zM199 298h189l-94 314h-3z" />
    <glyph glyph-name="Aacute" unicode="&#xc1;" horiz-adv-x="588" 
d="M477 0l-62 209h-243l-61 -209h-116l237 741h119l242 -741h-116zM199 298h189l-94 314h-3zM318 941h110l-99 -137h-72z" />
    <glyph glyph-name="Abreve" unicode="&#x102;" horiz-adv-x="588" 
d="M477 0l-62 209h-243l-61 -209h-116l237 741h119l242 -741h-116zM199 298h189l-94 314h-3zM185 835q-43 39 -50 106h70q6 -34 30 -55t59 -21q34 0 59 21t30 55h71q-8 -67 -51.5 -106t-108.5 -39q-66 0 -109 39z" />
    <glyph glyph-name="uni1EAE" unicode="&#x1eae;" horiz-adv-x="588" 
d="M477 0l-62 209h-243l-61 -209h-116l237 741h119l242 -741h-116zM199 298h189l-94 314h-3zM324 1040h109l-104 -105h-73zM190.5 825q-39.5 29 -47.5 81h70q6 -22 28 -33.5t53 -11.5q32 0 54 11.5t28 33.5h71q-9 -51 -50 -80.5t-103 -29.5q-64 0 -103.5 29z" />
    <glyph glyph-name="uni1EB6" unicode="&#x1eb6;" horiz-adv-x="588" 
d="M477 0l-62 209h-243l-61 -209h-116l237 741h119l242 -741h-116zM199 298h189l-94 314h-3zM185 835q-43 39 -50 106h70q6 -34 30 -55t59 -21q34 0 59 21t30 55h71q-8 -67 -51.5 -106t-108.5 -39q-66 0 -109 39zM249.5 -168.5q-18.5 18.5 -18.5 44.5t18.5 45t44.5 19
t44.5 -19t18.5 -45t-18.5 -44.5t-44.5 -18.5t-44.5 18.5z" />
    <glyph glyph-name="uni1EB0" unicode="&#x1eb0;" horiz-adv-x="588" 
d="M477 0l-62 209h-243l-61 -209h-116l237 741h119l242 -741h-116zM199 298h189l-94 314h-3zM156 1040h109l68 -105h-73zM190.5 825q-39.5 29 -47.5 81h70q6 -22 28 -33.5t53 -11.5q32 0 54 11.5t28 33.5h71q-9 -51 -50 -80.5t-103 -29.5q-64 0 -103.5 29z" />
    <glyph glyph-name="uni1EB2" unicode="&#x1eb2;" horiz-adv-x="588" 
d="M477 0l-62 209h-243l-61 -209h-116l237 741h119l242 -741h-116zM199 298h189l-94 314h-3zM296 968q0 11 -10.5 19t-29.5 8q-34 0 -70 -18l-13 55q42 21 95 21q51 0 78 -19t27 -51q0 -16 -12 -34t-36 -35h-72q43 32 43 54zM190.5 825q-39.5 29 -47.5 81h70q6 -22 28 -33.5
t53 -11.5q32 0 54 11.5t28 33.5h71q-9 -51 -50 -80.5t-103 -29.5q-64 0 -103.5 29z" />
    <glyph glyph-name="uni1EB4" unicode="&#x1eb4;" horiz-adv-x="588" 
d="M477 0l-62 209h-243l-61 -209h-116l237 741h119l242 -741h-116zM199 298h189l-94 314h-3zM235 1038q25 0 69 -22q14 -7 27.5 -12t23.5 -5q26 0 53 42l38 -37q-41 -66 -94 -66q-15 0 -29 5t-40 17q-3 1 -14.5 7t-20.5 8.5t-16 2.5q-25 0 -54 -43l-37 37q41 66 94 66z
M189.5 825q-40.5 29 -47.5 81h70q7 -22 29 -33.5t53 -11.5t53 11.5t28 33.5h71q-9 -51 -50 -80.5t-102 -29.5q-64 0 -104.5 29z" />
    <glyph glyph-name="Acircumflex" unicode="&#xc2;" horiz-adv-x="588" 
d="M477 0l-62 209h-243l-61 -209h-116l237 741h119l242 -741h-116zM199 298h189l-94 314h-3zM243 941h104l96 -137h-79l-70 85l-67 -85h-81z" />
    <glyph glyph-name="uni1EA4" unicode="&#x1ea4;" horiz-adv-x="588" 
d="M477 0l-62 209h-243l-61 -209h-116l237 741h119l242 -741h-116zM199 298h189l-94 314h-3zM326 1040h109l-105 -105h-72zM243 903h104l96 -99h-80l-69 56l-67 -56h-81z" />
    <glyph glyph-name="uni1EAC" unicode="&#x1eac;" horiz-adv-x="588" 
d="M477 0l-62 209h-243l-61 -209h-116l237 741h119l242 -741h-116zM199 298h189l-94 314h-3zM243 941h104l96 -137h-79l-70 85l-67 -85h-81zM249.5 -168.5q-18.5 18.5 -18.5 44.5t18.5 45t44.5 19t44.5 -19t18.5 -45t-18.5 -44.5t-44.5 -18.5t-44.5 18.5z" />
    <glyph glyph-name="uni1EA6" unicode="&#x1ea6;" horiz-adv-x="588" 
d="M477 0l-62 209h-243l-61 -209h-116l237 741h119l242 -741h-116zM199 298h189l-94 314h-3zM153 1040h110l67 -105h-72zM243 903h104l96 -99h-80l-69 56l-67 -56h-81z" />
    <glyph glyph-name="uni1EA8" unicode="&#x1ea8;" horiz-adv-x="588" 
d="M477 0l-62 209h-243l-61 -209h-116l237 741h119l242 -741h-116zM199 298h189l-94 314h-3zM419.5 937.5q9.5 12.5 9.5 23.5t-10 19t-30 8q-35 0 -69 -19l-13 56q40 20 95 20q51 0 78 -18.5t27 -51.5q0 -16 -12 -34t-36 -34h-73q24 18 33.5 30.5zM243 903h104l96 -99h-80
l-69 56l-67 -56h-81z" />
    <glyph glyph-name="uni1EAA" unicode="&#x1eaa;" horiz-adv-x="588" 
d="M477 0l-62 209h-243l-61 -209h-116l237 741h119l242 -741h-116zM199 298h189l-94 314h-3zM235 1038q15 0 30.5 -5.5t36.5 -15.5q34 -18 52 -18q27 0 54 42l38 -37q-41 -66 -95 -66q-25 0 -67 22q-14 7 -28 12.5t-24 5.5q-25 0 -54 -43l-37 37q40 66 94 66zM242 903h103
l97 -99h-80l-69 56l-66 -56h-82z" />
    <glyph glyph-name="Adieresis" unicode="&#xc4;" horiz-adv-x="588" 
d="M477 0l-62 209h-243l-61 -209h-116l237 741h119l242 -741h-116zM199 298h189l-94 314h-3zM163 835.5q-17 17.5 -17 42.5t17 42.5t42 17.5t42.5 -17.5t17.5 -42.5t-17.5 -42.5t-42.5 -17.5t-42 17.5zM341.5 835.5q-17.5 17.5 -17.5 42.5t17.5 42.5t42.5 17.5t42.5 -17.5
t17.5 -42.5t-17.5 -42.5t-42.5 -17.5t-42.5 17.5z" />
    <glyph glyph-name="uni1EA0" unicode="&#x1ea0;" horiz-adv-x="588" 
d="M477 0l-62 209h-243l-61 -209h-116l237 741h119l242 -741h-116zM199 298h189l-94 314h-3zM249.5 -168.5q-18.5 18.5 -18.5 44.5t18.5 45t44.5 19t44.5 -19t18.5 -45t-18.5 -44.5t-44.5 -18.5t-44.5 18.5z" />
    <glyph glyph-name="Agrave" unicode="&#xc0;" horiz-adv-x="588" 
d="M477 0l-62 209h-243l-61 -209h-116l237 741h119l242 -741h-116zM199 298h189l-94 314h-3zM161 941h109l62 -137h-73z" />
    <glyph glyph-name="uni1EA2" unicode="&#x1ea2;" horiz-adv-x="588" 
d="M477 0l-62 209h-243l-61 -209h-116l237 741h119l242 -741h-116zM199 298h189l-94 314h-3zM294 838.5q11 13.5 11 25.5q0 13 -10.5 21t-29.5 8q-35 0 -70 -19l-12 56q38 20 95 20q51 0 77.5 -18.5t26.5 -52.5q0 -39 -55 -75h-72q28 21 39 34.5z" />
    <glyph glyph-name="Amacron" unicode="&#x100;" horiz-adv-x="588" 
d="M477 0l-62 209h-243l-61 -209h-116l237 741h119l242 -741h-116zM199 298h189l-94 314h-3zM131 925h326v-72h-326v72z" />
    <glyph glyph-name="Aogonek" unicode="&#x104;" horiz-adv-x="588" 
d="M494 -46q-27 -26 -27 -53q0 -17 11.5 -26t28.5 -9q30 0 58 19v-57q-30 -20 -70 -20q-42 0 -69 21t-27 61q0 31 20 59.5t58 50.5l-62 209h-243l-61 -209h-116l237 741h119l242 -741h-25q-47 -20 -74 -46zM199 298h189l-94 314h-3z" />
    <glyph glyph-name="Aring" unicode="&#xc5;" horiz-adv-x="588" 
d="M415 209h-243l-61 -209h-116l227 708q-36 30 -36 79q0 43 31 74t75 31q43 0 74 -31t31 -74q0 -48 -35 -78l231 -709h-116zM259.5 818.5q-13.5 -13.5 -13.5 -31.5q0 -19 13.5 -32.5t32.5 -13.5t32 13.5t13 32.5q0 18 -13 31.5t-32 13.5t-32.5 -13.5zM199 298h189l-94 314
h-3z" />
    <glyph glyph-name="Atilde" unicode="&#xc3;" horiz-adv-x="588" 
d="M477 0l-62 209h-243l-61 -209h-116l237 741h119l242 -741h-116zM199 298h189l-94 314h-3zM180 931q24 21 55 21q15 0 30.5 -5.5t35.5 -16.5q18 -9 30.5 -14t23.5 -5q19 0 32 11.5t26 32.5l39 -38q-45 -77 -94 -77q-15 0 -30.5 6t-38.5 17q-15 8 -30.5 14t-26.5 6
q-19 0 -32 -12t-27 -34l-37 41q20 32 44 53z" />
    <glyph glyph-name="AE" unicode="&#xc6;" horiz-adv-x="933" 
d="M568 95h331v-95h-444v209h-233l-109 -209h-123l409 741h480v-95h-311v-219h243v-94h-243v-238zM269 298h186v348h-4z" />
    <glyph glyph-name="B" unicode="B" horiz-adv-x="626" 
d="M292 741q153 0 215 -54.5t62 -144.5q0 -54 -27 -94.5t-78 -61.5q57 -23 88.5 -68.5t31.5 -106.5q0 -58 -27 -106t-81.5 -76.5t-132.5 -28.5h-253v741h202zM408.5 450.5q44.5 21.5 44.5 87.5t-45 89.5t-120 23.5h-84v-222h81q79 0 123.5 21.5zM432 121q36 31 36 95
t-42 95.5t-132 31.5h-90v-253h102q90 0 126 31z" />
    <glyph glyph-name="C" unicode="C" horiz-adv-x="618" 
d="M174.5 36q-65.5 51 -99 138.5t-33.5 194.5q0 109 33.5 196.5t98.5 138t158 50.5q98 0 163.5 -53.5t89.5 -149.5l-102 -52q-9 72 -47 118.5t-104 46.5q-58 0 -97.5 -41t-58 -108t-18.5 -146q0 -76 19 -143t58 -109t97 -42q65 0 103.5 48.5t48.5 118.5l101 -55
q-23 -93 -89 -147.5t-164 -54.5q-92 0 -157.5 51z" />
    <glyph glyph-name="Cacute" unicode="&#x106;" horiz-adv-x="618" 
d="M174.5 36q-65.5 51 -99 138.5t-33.5 194.5q0 109 33.5 196.5t98.5 138t158 50.5q98 0 163.5 -53.5t89.5 -149.5l-102 -52q-9 72 -47 118.5t-104 46.5q-58 0 -97.5 -41t-58 -108t-18.5 -146q0 -76 19 -143t58 -109t97 -42q65 0 103.5 48.5t48.5 118.5l101 -55
q-23 -93 -89 -147.5t-164 -54.5q-92 0 -157.5 51zM356 941h110l-99 -137h-72z" />
    <glyph glyph-name="Ccaron" unicode="&#x10c;" horiz-adv-x="618" 
d="M174.5 36q-65.5 51 -99 138.5t-33.5 194.5q0 109 33.5 196.5t98.5 138t158 50.5q98 0 163.5 -53.5t89.5 -149.5l-102 -52q-9 72 -47 118.5t-104 46.5q-58 0 -97.5 -41t-58 -108t-18.5 -146q0 -76 19 -143t58 -109t97 -42q65 0 103.5 48.5t48.5 118.5l101 -55
q-23 -93 -89 -147.5t-164 -54.5q-92 0 -157.5 51zM184 941h81l67 -85l70 85h79l-96 -137h-104z" />
    <glyph glyph-name="Ccedilla" unicode="&#xc7;" horiz-adv-x="618" 
d="M435.5 123.5q38.5 48.5 48.5 118.5l101 -55q-21 -86 -79 -139t-144 -62l-19 -33q41 -8 64 -26.5t23 -52.5q0 -42 -33.5 -66.5t-77.5 -24.5q-25 0 -50.5 5t-38.5 14l13 55q13 -7 32 -12.5t35 -5.5q22 0 34.5 8.5t12.5 24.5q0 22 -26 31t-78 10l45 74q-81 9 -139 62
t-87.5 136t-29.5 184q0 109 33.5 196.5t98.5 138t158 50.5q98 0 163.5 -53.5t89.5 -149.5l-102 -52q-9 72 -47 118.5t-104 46.5q-58 0 -97.5 -41t-58 -108t-18.5 -146q0 -76 19 -143t58 -109t97 -42q65 0 103.5 48.5z" />
    <glyph glyph-name="Ccircumflex" unicode="&#x108;" horiz-adv-x="618" 
d="M174.5 36q-65.5 51 -99 138.5t-33.5 194.5q0 109 33.5 196.5t98.5 138t158 50.5q98 0 163.5 -53.5t89.5 -149.5l-102 -52q-9 72 -47 118.5t-104 46.5q-58 0 -97.5 -41t-58 -108t-18.5 -146q0 -76 19 -143t58 -109t97 -42q65 0 103.5 48.5t48.5 118.5l101 -55
q-23 -93 -89 -147.5t-164 -54.5q-92 0 -157.5 51zM281 941h104l96 -137h-79l-70 85l-67 -85h-81z" />
    <glyph glyph-name="Cdotaccent" unicode="&#x10a;" horiz-adv-x="618" 
d="M174.5 36q-65.5 51 -99 138.5t-33.5 194.5q0 109 33.5 196.5t98.5 138t158 50.5q98 0 163.5 -53.5t89.5 -149.5l-102 -52q-9 72 -47 118.5t-104 46.5q-58 0 -97.5 -41t-58 -108t-18.5 -146q0 -76 19 -143t58 -109t97 -42q65 0 103.5 48.5t48.5 118.5l101 -55
q-23 -93 -89 -147.5t-164 -54.5q-92 0 -157.5 51zM287.5 833.5q-18.5 18.5 -18.5 44.5t18.5 44.5t44.5 18.5t44.5 -18.5t18.5 -44.5t-18.5 -44.5t-44.5 -18.5t-44.5 18.5z" />
    <glyph glyph-name="D" unicode="D" horiz-adv-x="658" 
d="M276 741q177 0 260.5 -99.5t83.5 -270.5q0 -109 -36.5 -192.5t-109 -131t-178.5 -47.5h-206v741h186zM449 167q54 72 54 215q0 264 -223 264h-76v-551h86q105 0 159 72z" />
    <glyph glyph-name="Eth" unicode="&#xd0;" horiz-adv-x="658" 
d="M536.5 641.5q83.5 -99.5 83.5 -270.5q0 -109 -36.5 -192.5t-109 -131t-178.5 -47.5h-206v346h-76v79h76v316h186q177 0 260.5 -99.5zM449 167q54 72 54 215q0 264 -223 264h-76v-221h129v-79h-129v-251h86q105 0 159 72z" />
    <glyph glyph-name="Dcaron" unicode="&#x10e;" horiz-adv-x="658" 
d="M276 741q177 0 260.5 -99.5t83.5 -270.5q0 -109 -36.5 -192.5t-109 -131t-178.5 -47.5h-206v741h186zM449 167q54 72 54 215q0 264 -223 264h-76v-551h86q105 0 159 72zM176 941h81l67 -85l70 85h79l-96 -137h-104z" />
    <glyph glyph-name="Dcroat" unicode="&#x110;" horiz-adv-x="658" 
d="M536.5 641.5q83.5 -99.5 83.5 -270.5q0 -109 -36.5 -192.5t-109 -131t-178.5 -47.5h-206v346h-76v79h76v316h186q177 0 260.5 -99.5zM449 167q54 72 54 215q0 264 -223 264h-76v-221h129v-79h-129v-251h86q105 0 159 72z" />
    <glyph glyph-name="E" unicode="E" horiz-adv-x="575" 
d="M90 741h431v-95h-317v-219h249v-94h-249v-238h336v-95h-450v741z" />
    <glyph glyph-name="Eacute" unicode="&#xc9;" horiz-adv-x="575" 
d="M90 741h431v-95h-317v-219h249v-94h-249v-238h336v-95h-450v741zM330 941h110l-99 -137h-72z" />
    <glyph glyph-name="Ebreve" unicode="&#x114;" horiz-adv-x="575" 
d="M90 741h431v-95h-317v-219h249v-94h-249v-238h336v-95h-450v741zM197 835q-43 39 -50 106h70q6 -34 30 -55t59 -21q34 0 59 21t30 55h71q-8 -67 -51.5 -106t-108.5 -39q-66 0 -109 39z" />
    <glyph glyph-name="Ecaron" unicode="&#x11a;" horiz-adv-x="575" 
d="M90 741h431v-95h-317v-219h249v-94h-249v-238h336v-95h-450v741zM158 941h81l67 -85l70 85h79l-96 -137h-104z" />
    <glyph glyph-name="Ecircumflex" unicode="&#xca;" horiz-adv-x="575" 
d="M90 741h431v-95h-317v-219h249v-94h-249v-238h336v-95h-450v741zM255 941h104l96 -137h-79l-70 85l-67 -85h-81z" />
    <glyph glyph-name="uni1EBE" unicode="&#x1ebe;" horiz-adv-x="575" 
d="M90 741h431v-95h-317v-219h249v-94h-249v-238h336v-95h-450v741zM338 1040h109l-105 -105h-72zM255 903h104l96 -99h-80l-69 56l-67 -56h-81z" />
    <glyph glyph-name="uni1EC6" unicode="&#x1ec6;" horiz-adv-x="575" 
d="M90 741h431v-95h-317v-219h249v-94h-249v-238h336v-95h-450v741zM255 941h104l96 -137h-79l-70 85l-67 -85h-81zM270.5 -168.5q-18.5 18.5 -18.5 44.5t18.5 45t44.5 19t44.5 -19t18.5 -45t-18.5 -44.5t-44.5 -18.5t-44.5 18.5z" />
    <glyph glyph-name="uni1EC0" unicode="&#x1ec0;" horiz-adv-x="575" 
d="M90 741h431v-95h-317v-219h249v-94h-249v-238h336v-95h-450v741zM165 1040h110l67 -105h-72zM255 903h104l96 -99h-80l-69 56l-67 -56h-81z" />
    <glyph glyph-name="uni1EC2" unicode="&#x1ec2;" horiz-adv-x="575" 
d="M90 741h431v-95h-317v-219h249v-94h-249v-238h336v-95h-450v741zM431.5 937.5q9.5 12.5 9.5 23.5t-10 19t-30 8q-35 0 -69 -19l-13 56q40 20 95 20q51 0 78 -18.5t27 -51.5q0 -16 -12 -34t-36 -34h-73q24 18 33.5 30.5zM255 903h104l96 -99h-80l-69 56l-67 -56h-81z" />
    <glyph glyph-name="uni1EC4" unicode="&#x1ec4;" horiz-adv-x="575" 
d="M90 741h431v-95h-317v-219h249v-94h-249v-238h336v-95h-450v741zM248 1038q15 0 30.5 -5.5t36.5 -15.5q34 -18 52 -18q27 0 54 42l38 -37q-41 -66 -95 -66q-25 0 -67 22q-14 7 -28 12.5t-24 5.5q-25 0 -54 -43l-37 37q40 66 94 66zM255 903h103l97 -99h-80l-69 56
l-66 -56h-82z" />
    <glyph glyph-name="Edieresis" unicode="&#xcb;" horiz-adv-x="575" 
d="M90 741h431v-95h-317v-219h249v-94h-249v-238h336v-95h-450v741zM175 835.5q-17 17.5 -17 42.5t17 42.5t42 17.5t42.5 -17.5t17.5 -42.5t-17.5 -42.5t-42.5 -17.5t-42 17.5zM353.5 835.5q-17.5 17.5 -17.5 42.5t17.5 42.5t42.5 17.5t42.5 -17.5t17.5 -42.5t-17.5 -42.5
t-42.5 -17.5t-42.5 17.5z" />
    <glyph glyph-name="Edotaccent" unicode="&#x116;" horiz-adv-x="575" 
d="M90 741h431v-95h-317v-219h249v-94h-249v-238h336v-95h-450v741zM261.5 833.5q-18.5 18.5 -18.5 44.5t18.5 44.5t44.5 18.5t44.5 -18.5t18.5 -44.5t-18.5 -44.5t-44.5 -18.5t-44.5 18.5z" />
    <glyph glyph-name="uni1EB8" unicode="&#x1eb8;" horiz-adv-x="575" 
d="M90 741h431v-95h-317v-219h249v-94h-249v-238h336v-95h-450v741zM270.5 -168.5q-18.5 18.5 -18.5 44.5t18.5 45t44.5 19t44.5 -19t18.5 -45t-18.5 -44.5t-44.5 -18.5t-44.5 18.5z" />
    <glyph glyph-name="Egrave" unicode="&#xc8;" horiz-adv-x="575" 
d="M90 741h431v-95h-317v-219h249v-94h-249v-238h336v-95h-450v741zM173 941h109l62 -137h-73z" />
    <glyph glyph-name="uni1EBA" unicode="&#x1eba;" horiz-adv-x="575" 
d="M90 741h431v-95h-317v-219h249v-94h-249v-238h336v-95h-450v741zM307 838.5q11 13.5 11 25.5q0 13 -10.5 21t-29.5 8q-35 0 -70 -19l-12 56q38 20 95 20q51 0 77.5 -18.5t26.5 -52.5q0 -39 -55 -75h-72q28 21 39 34.5z" />
    <glyph glyph-name="Emacron" unicode="&#x112;" horiz-adv-x="575" 
d="M90 741h431v-95h-317v-219h249v-94h-249v-238h336v-95h-450v741zM143 925h326v-72h-326v72z" />
    <glyph glyph-name="Eogonek" unicode="&#x118;" horiz-adv-x="575" 
d="M466 -46q-27 -26 -27 -53q0 -17 11.5 -26t28.5 -9q30 0 58 19v-57q-30 -20 -70 -20q-42 0 -69 21t-27 61q0 31 19.5 59.5t57.5 50.5h-358v741h431v-95h-317v-219h249v-94h-249v-238h336v-95q-47 -20 -74 -46z" />
    <glyph glyph-name="uni1EBC" unicode="&#x1ebc;" horiz-adv-x="575" 
d="M90 741h431v-95h-317v-219h249v-94h-249v-238h336v-95h-450v741zM192 931q24 21 55 21q15 0 30.5 -5.5t35.5 -16.5q18 -9 30.5 -14t23.5 -5q19 0 32 11.5t26 32.5l39 -38q-45 -77 -94 -77q-15 0 -30.5 6t-38.5 17q-15 8 -30.5 14t-26.5 6q-19 0 -32 -12t-27 -34l-37 41
q20 32 44 53z" />
    <glyph glyph-name="F" unicode="F" horiz-adv-x="527" 
d="M90 741h420v-95h-306v-219h234v-94h-234v-333h-114v741z" />
    <glyph glyph-name="G" unicode="G" horiz-adv-x="637" 
d="M174.5 38q-65.5 51 -99 138t-33.5 194q0 109 33.5 196t99.5 137.5t160 50.5q99 0 162.5 -52.5t84.5 -144.5l-97 -47q-27 154 -153 154q-86 0 -130 -85t-44 -209q0 -77 19 -143.5t58 -108t97 -41.5q74 0 111 44t37 120v30h-139v90h250v-361h-84l-8 74q-25 -43 -69 -65
t-98 -22q-92 0 -157.5 51z" />
    <glyph glyph-name="Gbreve" unicode="&#x11e;" horiz-adv-x="637" 
d="M174.5 38q-65.5 51 -99 138t-33.5 194q0 109 33.5 196t99.5 137.5t160 50.5q99 0 162.5 -52.5t84.5 -144.5l-97 -47q-27 154 -153 154q-86 0 -130 -85t-44 -209q0 -77 19 -143.5t58 -108t97 -41.5q74 0 111 44t37 120v30h-139v90h250v-361h-84l-8 74q-25 -43 -69 -65
t-98 -22q-92 0 -157.5 51zM227 835q-43 39 -50 106h70q6 -34 30 -55t59 -21q34 0 59 21t30 55h71q-8 -67 -51.5 -106t-108.5 -39q-66 0 -109 39z" />
    <glyph glyph-name="Gcircumflex" unicode="&#x11c;" horiz-adv-x="637" 
d="M174.5 38q-65.5 51 -99 138t-33.5 194q0 109 33.5 196t99.5 137.5t160 50.5q99 0 162.5 -52.5t84.5 -144.5l-97 -47q-27 154 -153 154q-86 0 -130 -85t-44 -209q0 -77 19 -143.5t58 -108t97 -41.5q74 0 111 44t37 120v30h-139v90h250v-361h-84l-8 74q-25 -43 -69 -65
t-98 -22q-92 0 -157.5 51zM285 941h104l96 -137h-79l-70 85l-67 -85h-81z" />
    <glyph glyph-name="uni0122" unicode="&#x122;" horiz-adv-x="637" 
d="M174.5 38q-65.5 51 -99 138t-33.5 194q0 109 33.5 196t99.5 137.5t160 50.5q99 0 162.5 -52.5t84.5 -144.5l-97 -47q-27 154 -153 154q-86 0 -130 -85t-44 -209q0 -77 19 -143.5t58 -108t97 -41.5q74 0 111 44t37 120v30h-139v90h250v-361h-84l-8 74q-25 -43 -69 -65
t-98 -22q-92 0 -157.5 51zM280 -58h110l-99 -137h-72z" />
    <glyph glyph-name="Gdotaccent" unicode="&#x120;" horiz-adv-x="637" 
d="M174.5 38q-65.5 51 -99 138t-33.5 194q0 109 33.5 196t99.5 137.5t160 50.5q99 0 162.5 -52.5t84.5 -144.5l-97 -47q-27 154 -153 154q-86 0 -130 -85t-44 -209q0 -77 19 -143.5t58 -108t97 -41.5q74 0 111 44t37 120v30h-139v90h250v-361h-84l-8 74q-25 -43 -69 -65
t-98 -22q-92 0 -157.5 51zM291.5 833.5q-18.5 18.5 -18.5 44.5t18.5 44.5t44.5 18.5t44.5 -18.5t18.5 -44.5t-18.5 -44.5t-44.5 -18.5t-44.5 18.5z" />
    <glyph glyph-name="H" unicode="H" horiz-adv-x="687" 
d="M90 741h114v-302h280v302h113v-741h-113v344h-280v-344h-114v741z" />
    <glyph glyph-name="Hbar" unicode="&#x126;" horiz-adv-x="687" 
d="M669 633v-78h-72v-555h-113v344h-280v-344h-114v555h-72v78h72v108h114v-108h280v108h113v-108h72zM484 439v116h-280v-116h280z" />
    <glyph glyph-name="Hcircumflex" unicode="&#x124;" horiz-adv-x="687" 
d="M90 741h114v-302h280v302h113v-741h-113v344h-280v-344h-114v741zM293 941h104l96 -137h-79l-70 85l-67 -85h-81z" />
    <glyph glyph-name="I" unicode="I" horiz-adv-x="294" 
d="M90 741h114v-741h-114v741z" />
    <glyph glyph-name="IJ" unicode="&#x132;" horiz-adv-x="777" 
d="M90 741h114v-741h-114v741zM352.5 31.5q-46.5 44.5 -40.5 129.5l103 44q-2 -18 -2 -26q0 -45 20 -72t57 -27q41 0 65 30t24 89v542h113v-525q0 -125 -57 -177t-148 -52q-88 0 -134.5 44.5z" />
    <glyph glyph-name="Iacute" unicode="&#xcd;" horiz-adv-x="294" 
d="M90 741h114v-741h-114v741zM171 941h110l-99 -137h-72z" />
    <glyph glyph-name="Ibreve" unicode="&#x12c;" horiz-adv-x="294" 
d="M90 741h114v-741h-114v741zM38 835q-43 39 -50 106h70q6 -34 30 -55t59 -21q34 0 59 21t30 55h71q-8 -67 -51.5 -106t-108.5 -39q-66 0 -109 39z" />
    <glyph glyph-name="Icircumflex" unicode="&#xce;" horiz-adv-x="294" 
d="M90 741h114v-741h-114v741zM96 941h104l96 -137h-79l-70 85l-67 -85h-81z" />
    <glyph glyph-name="Idieresis" unicode="&#xcf;" horiz-adv-x="294" 
d="M90 741h114v-741h-114v741zM16 835.5q-17 17.5 -17 42.5t17 42.5t42 17.5t42.5 -17.5t17.5 -42.5t-17.5 -42.5t-42.5 -17.5t-42 17.5zM194.5 835.5q-17.5 17.5 -17.5 42.5t17.5 42.5t42.5 17.5t42.5 -17.5t17.5 -42.5t-17.5 -42.5t-42.5 -17.5t-42.5 17.5z" />
    <glyph glyph-name="Idotaccent" unicode="&#x130;" horiz-adv-x="294" 
d="M90 741h114v-741h-114v741zM102.5 833.5q-18.5 18.5 -18.5 44.5t18.5 44.5t44.5 18.5t44.5 -18.5t18.5 -44.5t-18.5 -44.5t-44.5 -18.5t-44.5 18.5z" />
    <glyph glyph-name="uni1ECA" unicode="&#x1eca;" horiz-adv-x="294" 
d="M90 741h114v-741h-114v741zM102.5 -168.5q-18.5 18.5 -18.5 44.5t18.5 45t44.5 19t44.5 -19t18.5 -45t-18.5 -44.5t-44.5 -18.5t-44.5 18.5z" />
    <glyph glyph-name="Igrave" unicode="&#xcc;" horiz-adv-x="294" 
d="M90 741h114v-741h-114v741zM14 941h109l62 -137h-73z" />
    <glyph glyph-name="uni1EC8" unicode="&#x1ec8;" horiz-adv-x="294" 
d="M90 741h114v-741h-114v741zM148 838.5q11 13.5 11 25.5q0 13 -10.5 21t-29.5 8q-35 0 -70 -19l-12 56q38 20 95 20q51 0 77.5 -18.5t26.5 -52.5q0 -39 -55 -75h-72q28 21 39 34.5z" />
    <glyph glyph-name="Imacron" unicode="&#x12a;" horiz-adv-x="294" 
d="M90 741h114v-741h-114v741zM-16 925h326v-72h-326v72z" />
    <glyph glyph-name="Iogonek" unicode="&#x12e;" horiz-adv-x="294" 
d="M204 741v-741h-24q-47 -20 -74 -46t-27 -53q0 -17 11.5 -26t28.5 -9q30 0 58 19v-57q-30 -20 -70 -20q-42 0 -69 21t-27 61q0 31 20 60t59 51v740h114z" />
    <glyph glyph-name="Itilde" unicode="&#x128;" horiz-adv-x="294" 
d="M90 741h114v-741h-114v741zM33 931q24 21 55 21q15 0 30.5 -5.5t35.5 -16.5q18 -9 30.5 -14t23.5 -5q19 0 32 11.5t26 32.5l39 -38q-45 -77 -94 -77q-15 0 -30.5 6t-38.5 17q-15 8 -30.5 14t-26.5 6q-19 0 -32 -12t-27 -34l-37 41q20 32 44 53z" />
    <glyph glyph-name="J" unicode="J" horiz-adv-x="483" 
d="M58.5 31.5q-46.5 44.5 -40.5 129.5l103 44q-2 -18 -2 -26q0 -45 20 -72t57 -27q41 0 65 30t24 89v542h113v-525q0 -125 -57 -177t-148 -52q-88 0 -134.5 44.5z" />
    <glyph glyph-name="Jcircumflex" unicode="&#x134;" horiz-adv-x="483" 
d="M58.5 31.5q-46.5 44.5 -40.5 129.5l103 44q-2 -18 -2 -26q0 -45 20 -72t57 -27q41 0 65 30t24 89v542h113v-525q0 -125 -57 -177t-148 -52q-88 0 -134.5 44.5zM291 941h104l96 -137h-79l-70 85l-67 -85h-81z" />
    <glyph glyph-name="K" unicode="K" horiz-adv-x="625" 
d="M622 0h-129l-191 365l-98 -128v-237h-114v741h114v-349l260 349h130l-215 -282z" />
    <glyph glyph-name="uni0136" unicode="&#x136;" horiz-adv-x="625" 
d="M622 0h-129l-191 365l-98 -128v-237h-114v741h114v-349l260 349h130l-215 -282zM296 -58h110l-99 -137h-72z" />
    <glyph glyph-name="L" unicode="L" horiz-adv-x="531" 
d="M90 741h114v-646h311v-95h-425v741z" />
    <glyph glyph-name="Lacute" unicode="&#x139;" horiz-adv-x="531" 
d="M90 741h114v-646h311v-95h-425v741zM170 941h110l-99 -137h-72z" />
    <glyph glyph-name="Lcaron" unicode="&#x13d;" horiz-adv-x="531" 
d="M90 741h114v-646h311v-95h-425v741zM286 779h100l-32 -187h-77z" />
    <glyph glyph-name="uni013B" unicode="&#x13b;" horiz-adv-x="531" 
d="M90 741h114v-646h311v-95h-425v741zM254 -58h110l-99 -137h-72z" />
    <glyph glyph-name="Ldot" unicode="&#x13f;" horiz-adv-x="539" 
d="M90 741h114v-646h311v-95h-425v741zM360 341q-21 21 -21 51t21 51t51 21q29 0 50.5 -21t21.5 -51t-21.5 -51t-50.5 -21q-30 0 -51 21z" />
    <glyph glyph-name="Lslash" unicode="&#x141;" horiz-adv-x="531" 
d="M204 95h311v-95h-425v297l-64 -31l-29 61l93 45v369h114v-313l135 66l29 -62l-164 -80v-257z" />
    <glyph glyph-name="M" unicode="M" horiz-adv-x="831" 
d="M90 741h132l193 -336h3l194 336h129v-741h-113v570h-2l-210 -363l-211 363h-2v-570h-113v741z" />
    <glyph glyph-name="N" unicode="N" horiz-adv-x="727" 
d="M90 741h128l305 -544h2v544h112v-741h-118l-315 562h-2v-562h-112v741z" />
    <glyph glyph-name="Nacute" unicode="&#x143;" horiz-adv-x="727" 
d="M90 741h128l305 -544h2v544h112v-741h-118l-315 562h-2v-562h-112v741zM391 941h110l-99 -137h-72z" />
    <glyph glyph-name="Ncaron" unicode="&#x147;" horiz-adv-x="727" 
d="M90 741h128l305 -544h2v544h112v-741h-118l-315 562h-2v-562h-112v741zM219 941h81l67 -85l70 85h79l-96 -137h-104z" />
    <glyph glyph-name="uni0145" unicode="&#x145;" horiz-adv-x="727" 
d="M90 741h128l305 -544h2v544h112v-741h-118l-315 562h-2v-562h-112v741zM304 -58h110l-99 -137h-72z" />
    <glyph glyph-name="Eng" unicode="&#x14a;" horiz-adv-x="727" 
d="M352.5 -157.5q-36.5 17.5 -57.5 48.5l64 74q12 -22 31.5 -34.5t44.5 -12.5q72 0 85 82l-316 562h-2v-562h-112v741h128l306 -541h2v541h111v-687q0 -125 -56.5 -177t-146.5 -52q-45 0 -81.5 17.5z" />
    <glyph glyph-name="Ntilde" unicode="&#xd1;" horiz-adv-x="727" 
d="M90 741h128l305 -544h2v544h112v-741h-118l-315 562h-2v-562h-112v741zM253 931q24 21 55 21q15 0 30.5 -5.5t35.5 -16.5q18 -9 30.5 -14t23.5 -5q19 0 32 11.5t26 32.5l39 -38q-45 -77 -94 -77q-15 0 -30.5 6t-38.5 17q-15 8 -30.5 14t-26.5 6q-19 0 -32 -12t-27 -34
l-37 41q20 32 44 53z" />
    <glyph glyph-name="O" unicode="O" horiz-adv-x="659" 
d="M173 36q-65 51 -98 138.5t-33 194.5q0 108 33 195.5t98 138.5t157 51q91 0 156.5 -51t98.5 -138.5t33 -195.5q0 -107 -33 -194.5t-98.5 -138.5t-156.5 -51q-92 0 -157 51zM459 160.5q43 85.5 43 208.5t-43 209t-129 86t-129 -86t-43 -209t43 -208.5t129 -85.5t129 85.5z
" />
    <glyph glyph-name="Oacute" unicode="&#xd3;" horiz-adv-x="659" 
d="M173 36q-65 51 -98 138.5t-33 194.5q0 108 33 195.5t98 138.5t157 51q91 0 156.5 -51t98.5 -138.5t33 -195.5q0 -107 -33 -194.5t-98.5 -138.5t-156.5 -51q-92 0 -157 51zM459 160.5q43 85.5 43 208.5t-43 209t-129 86t-129 -86t-43 -209t43 -208.5t129 -85.5t129 85.5z
M354 941h110l-99 -137h-72z" />
    <glyph glyph-name="Obreve" unicode="&#x14e;" horiz-adv-x="659" 
d="M173 36q-65 51 -98 138.5t-33 194.5q0 108 33 195.5t98 138.5t157 51q91 0 156.5 -51t98.5 -138.5t33 -195.5q0 -107 -33 -194.5t-98.5 -138.5t-156.5 -51q-92 0 -157 51zM459 160.5q43 85.5 43 208.5t-43 209t-129 86t-129 -86t-43 -209t43 -208.5t129 -85.5t129 85.5z
M221 835q-43 39 -50 106h70q6 -34 30 -55t59 -21q34 0 59 21t30 55h71q-8 -67 -51.5 -106t-108.5 -39q-66 0 -109 39z" />
    <glyph glyph-name="Ocircumflex" unicode="&#xd4;" horiz-adv-x="659" 
d="M173 36q-65 51 -98 138.5t-33 194.5q0 108 33 195.5t98 138.5t157 51q91 0 156.5 -51t98.5 -138.5t33 -195.5q0 -107 -33 -194.5t-98.5 -138.5t-156.5 -51q-92 0 -157 51zM459 160.5q43 85.5 43 208.5t-43 209t-129 86t-129 -86t-43 -209t43 -208.5t129 -85.5t129 85.5z
M279 941h104l96 -137h-79l-70 85l-67 -85h-81z" />
    <glyph glyph-name="uni1ED0" unicode="&#x1ed0;" horiz-adv-x="659" 
d="M173 36q-65 51 -98 138.5t-33 194.5q0 108 33 195.5t98 138.5t157 51q91 0 156.5 -51t98.5 -138.5t33 -195.5q0 -107 -33 -194.5t-98.5 -138.5t-156.5 -51q-92 0 -157 51zM459 160.5q43 85.5 43 208.5t-43 209t-129 86t-129 -86t-43 -209t43 -208.5t129 -85.5t129 85.5z
M362 1040h109l-105 -105h-72zM279 903h104l96 -99h-80l-69 56l-67 -56h-81z" />
    <glyph glyph-name="uni1ED8" unicode="&#x1ed8;" horiz-adv-x="659" 
d="M173 36q-65 51 -98 138.5t-33 194.5q0 108 33 195.5t98 138.5t157 51q91 0 156.5 -51t98.5 -138.5t33 -195.5q0 -107 -33 -194.5t-98.5 -138.5t-156.5 -51q-92 0 -157 51zM459 160.5q43 85.5 43 208.5t-43 209t-129 86t-129 -86t-43 -209t43 -208.5t129 -85.5t129 85.5z
M279 941h104l96 -137h-79l-70 85l-67 -85h-81zM285.5 -168.5q-18.5 18.5 -18.5 44.5t18.5 45t44.5 19t44.5 -19t18.5 -45t-18.5 -44.5t-44.5 -18.5t-44.5 18.5z" />
    <glyph glyph-name="uni1ED2" unicode="&#x1ed2;" horiz-adv-x="659" 
d="M173 36q-65 51 -98 138.5t-33 194.5q0 108 33 195.5t98 138.5t157 51q91 0 156.5 -51t98.5 -138.5t33 -195.5q0 -107 -33 -194.5t-98.5 -138.5t-156.5 -51q-92 0 -157 51zM459 160.5q43 85.5 43 208.5t-43 209t-129 86t-129 -86t-43 -209t43 -208.5t129 -85.5t129 85.5z
M189 1040h110l67 -105h-72zM279 903h104l96 -99h-80l-69 56l-67 -56h-81z" />
    <glyph glyph-name="uni1ED4" unicode="&#x1ed4;" horiz-adv-x="659" 
d="M173 36q-65 51 -98 138.5t-33 194.5q0 108 33 195.5t98 138.5t157 51q91 0 156.5 -51t98.5 -138.5t33 -195.5q0 -107 -33 -194.5t-98.5 -138.5t-156.5 -51q-92 0 -157 51zM459 160.5q43 85.5 43 208.5t-43 209t-129 86t-129 -86t-43 -209t43 -208.5t129 -85.5t129 85.5z
M455.5 937.5q9.5 12.5 9.5 23.5t-10 19t-30 8q-35 0 -69 -19l-13 56q40 20 95 20q51 0 78 -18.5t27 -51.5q0 -16 -12 -34t-36 -34h-73q24 18 33.5 30.5zM279 903h104l96 -99h-80l-69 56l-67 -56h-81z" />
    <glyph glyph-name="uni1ED6" unicode="&#x1ed6;" horiz-adv-x="659" 
d="M173 36q-65 51 -98 138.5t-33 194.5q0 108 33 195.5t98 138.5t157 51q91 0 156.5 -51t98.5 -138.5t33 -195.5q0 -107 -33 -194.5t-98.5 -138.5t-156.5 -51q-92 0 -157 51zM459 160.5q43 85.5 43 208.5t-43 209t-129 86t-129 -86t-43 -209t43 -208.5t129 -85.5t129 85.5z
M271 1038q15 0 30.5 -5.5t36.5 -15.5q34 -18 52 -18q27 0 54 42l38 -37q-41 -66 -95 -66q-25 0 -67 22q-14 7 -28 12.5t-24 5.5q-25 0 -54 -43l-37 37q40 66 94 66zM278 903h103l97 -99h-80l-69 56l-66 -56h-82z" />
    <glyph glyph-name="Odieresis" unicode="&#xd6;" horiz-adv-x="659" 
d="M173 36q-65 51 -98 138.5t-33 194.5q0 108 33 195.5t98 138.5t157 51q91 0 156.5 -51t98.5 -138.5t33 -195.5q0 -107 -33 -194.5t-98.5 -138.5t-156.5 -51q-92 0 -157 51zM459 160.5q43 85.5 43 208.5t-43 209t-129 86t-129 -86t-43 -209t43 -208.5t129 -85.5t129 85.5z
M199 835.5q-17 17.5 -17 42.5t17 42.5t42 17.5t42.5 -17.5t17.5 -42.5t-17.5 -42.5t-42.5 -17.5t-42 17.5zM377.5 835.5q-17.5 17.5 -17.5 42.5t17.5 42.5t42.5 17.5t42.5 -17.5t17.5 -42.5t-17.5 -42.5t-42.5 -17.5t-42.5 17.5z" />
    <glyph glyph-name="uni1ECC" unicode="&#x1ecc;" horiz-adv-x="659" 
d="M173 36q-65 51 -98 138.5t-33 194.5q0 108 33 195.5t98 138.5t157 51q91 0 156.5 -51t98.5 -138.5t33 -195.5q0 -107 -33 -194.5t-98.5 -138.5t-156.5 -51q-92 0 -157 51zM459 160.5q43 85.5 43 208.5t-43 209t-129 86t-129 -86t-43 -209t43 -208.5t129 -85.5t129 85.5z
M285.5 -168.5q-18.5 18.5 -18.5 44.5t18.5 45t44.5 19t44.5 -19t18.5 -45t-18.5 -44.5t-44.5 -18.5t-44.5 18.5z" />
    <glyph glyph-name="Ograve" unicode="&#xd2;" horiz-adv-x="659" 
d="M173 36q-65 51 -98 138.5t-33 194.5q0 108 33 195.5t98 138.5t157 51q91 0 156.5 -51t98.5 -138.5t33 -195.5q0 -107 -33 -194.5t-98.5 -138.5t-156.5 -51q-92 0 -157 51zM459 160.5q43 85.5 43 208.5t-43 209t-129 86t-129 -86t-43 -209t43 -208.5t129 -85.5t129 85.5z
M197 941h109l62 -137h-73z" />
    <glyph glyph-name="uni1ECE" unicode="&#x1ece;" horiz-adv-x="659" 
d="M173 36q-65 51 -98 138.5t-33 194.5q0 108 33 195.5t98 138.5t157 51q91 0 156.5 -51t98.5 -138.5t33 -195.5q0 -107 -33 -194.5t-98.5 -138.5t-156.5 -51q-92 0 -157 51zM459 160.5q43 85.5 43 208.5t-43 209t-129 86t-129 -86t-43 -209t43 -208.5t129 -85.5t129 85.5z
M330 838.5q11 13.5 11 25.5q0 13 -10.5 21t-29.5 8q-35 0 -70 -19l-12 56q38 20 95 20q51 0 77.5 -18.5t26.5 -52.5q0 -39 -55 -75h-72q28 21 39 34.5z" />
    <glyph glyph-name="Ohorn" unicode="&#x1a0;" horiz-adv-x="659" 
d="M593.5 539q24.5 -78 24.5 -170q0 -107 -33 -194.5t-98.5 -138.5t-156.5 -51q-92 0 -157 51t-98 138.5t-33 194.5q0 108 33 195.5t98 138.5t157 51h1q22 0 76 -7q42 -6 60 -6q27 0 39.5 14t12.5 42q0 33 -11 73h93q11 -43 11 -81q0 -44 -23 -77t-67 -42q47 -53 71.5 -131z
M459 160.5q43 85.5 43 208.5t-43 209t-129 86t-129 -86t-43 -209t43 -208.5t129 -85.5t129 85.5z" />
    <glyph glyph-name="uni1EDA" unicode="&#x1eda;" horiz-adv-x="659" 
d="M593.5 539q24.5 -78 24.5 -170q0 -107 -33 -194.5t-98.5 -138.5t-156.5 -51q-92 0 -157 51t-98 138.5t-33 194.5q0 108 33 195.5t98 138.5t157 51h1q22 0 76 -7q42 -6 60 -6q27 0 39.5 14t12.5 42q0 33 -11 73h93q11 -43 11 -81q0 -44 -23 -77t-67 -42q47 -53 71.5 -131z
M459 160.5q43 85.5 43 208.5t-43 209t-129 86t-129 -86t-43 -209t43 -208.5t129 -85.5t129 85.5zM354 951h110l-99 -137h-72z" />
    <glyph glyph-name="uni1EE2" unicode="&#x1ee2;" horiz-adv-x="659" 
d="M593.5 539q24.5 -78 24.5 -170q0 -107 -33 -194.5t-98.5 -138.5t-156.5 -51q-92 0 -157 51t-98 138.5t-33 194.5q0 108 33 195.5t98 138.5t157 51h1q22 0 76 -7q42 -6 60 -6q27 0 39.5 14t12.5 42q0 33 -11 73h93q11 -43 11 -81q0 -44 -23 -77t-67 -42q47 -53 71.5 -131z
M459 160.5q43 85.5 43 208.5t-43 209t-129 86t-129 -86t-43 -209t43 -208.5t129 -85.5t129 85.5zM285.5 -168.5q-18.5 18.5 -18.5 44.5t18.5 45t44.5 19t44.5 -19t18.5 -45t-18.5 -44.5t-44.5 -18.5t-44.5 18.5z" />
    <glyph glyph-name="uni1EDC" unicode="&#x1edc;" horiz-adv-x="659" 
d="M593.5 539q24.5 -78 24.5 -170q0 -107 -33 -194.5t-98.5 -138.5t-156.5 -51q-92 0 -157 51t-98 138.5t-33 194.5q0 108 33 195.5t98 138.5t157 51h1q22 0 76 -7q42 -6 60 -6q27 0 39.5 14t12.5 42q0 33 -11 73h93q11 -43 11 -81q0 -44 -23 -77t-67 -42q47 -53 71.5 -131z
M459 160.5q43 85.5 43 208.5t-43 209t-129 86t-129 -86t-43 -209t43 -208.5t129 -85.5t129 85.5zM197 951h109l62 -137h-73z" />
    <glyph glyph-name="uni1EDE" unicode="&#x1ede;" horiz-adv-x="659" 
d="M593.5 539q24.5 -78 24.5 -170q0 -107 -33 -194.5t-98.5 -138.5t-156.5 -51q-92 0 -157 51t-98 138.5t-33 194.5q0 108 33 195.5t98 138.5t157 51h1q22 0 76 -7q42 -6 60 -6q27 0 39.5 14t12.5 42q0 33 -11 73h93q11 -43 11 -81q0 -44 -23 -77t-67 -42q47 -53 71.5 -131z
M459 160.5q43 85.5 43 208.5t-43 209t-129 86t-129 -86t-43 -209t43 -208.5t129 -85.5t129 85.5zM331 848.5q11 13.5 11 25.5q0 13 -10.5 21t-29.5 8q-35 0 -70 -19l-12 56q38 20 95 20q51 0 77.5 -18.5t26.5 -52.5q0 -39 -55 -75h-72q28 21 39 34.5z" />
    <glyph glyph-name="uni1EE0" unicode="&#x1ee0;" horiz-adv-x="659" 
d="M593.5 539q24.5 -78 24.5 -170q0 -107 -33 -194.5t-98.5 -138.5t-156.5 -51q-92 0 -157 51t-98 138.5t-33 194.5q0 108 33 195.5t98 138.5t157 51h1q22 0 76 -7q42 -6 60 -6q27 0 39.5 14t12.5 42q0 33 -11 73h93q11 -43 11 -81q0 -44 -23 -77t-67 -42q47 -53 71.5 -131z
M459 160.5q43 85.5 43 208.5t-43 209t-129 86t-129 -86t-43 -209t43 -208.5t129 -85.5t129 85.5zM216 941q24 21 55 21q15 0 30.5 -5.5t35.5 -16.5q18 -9 30.5 -14t23.5 -5q19 0 32 11.5t26 32.5l39 -38q-45 -77 -94 -77q-15 0 -30.5 6t-38.5 17q-15 8 -30.5 14t-26.5 6
q-19 0 -32 -12t-27 -34l-37 41q20 32 44 53z" />
    <glyph glyph-name="Ohungarumlaut" unicode="&#x150;" horiz-adv-x="659" 
d="M173 36q-65 51 -98 138.5t-33 194.5q0 108 33 195.5t98 138.5t157 51q91 0 156.5 -51t98.5 -138.5t33 -195.5q0 -107 -33 -194.5t-98.5 -138.5t-156.5 -51q-92 0 -157 51zM459 160.5q43 85.5 43 208.5t-43 209t-129 86t-129 -86t-43 -209t43 -208.5t129 -85.5t129 85.5z
M285 941h86l-89 -137h-59zM440 941h86l-88 -137h-60z" />
    <glyph glyph-name="Omacron" unicode="&#x14c;" horiz-adv-x="659" 
d="M173 36q-65 51 -98 138.5t-33 194.5q0 108 33 195.5t98 138.5t157 51q91 0 156.5 -51t98.5 -138.5t33 -195.5q0 -107 -33 -194.5t-98.5 -138.5t-156.5 -51q-92 0 -157 51zM459 160.5q43 85.5 43 208.5t-43 209t-129 86t-129 -86t-43 -209t43 -208.5t129 -85.5t129 85.5z
M167 925h326v-72h-326v72z" />
    <glyph glyph-name="Oslash" unicode="&#xd8;" horiz-adv-x="659" 
d="M600 516.5q18 -68.5 18 -147.5q0 -107 -33 -194.5t-98.5 -138.5t-156.5 -51q-100 0 -170 62l-55 -83l-58 39l65 99q-34 51 -52 120t-18 147q0 108 33 195.5t98 138.5t157 51q98 0 170 -62l54 82l58 -38l-65 -99q35 -52 53 -120.5zM201 578q-43 -86 -43 -209q0 -28 4 -86
q5 -70 5 -92l3 -1l275 418q-50 56 -115 56q-86 0 -129 -86zM459 160.5q43 85.5 43 208.5q0 28 -4 82q-5 50 -5 97l-3 1l-275 -418q48 -56 115 -56q86 0 129 85.5z" />
    <glyph glyph-name="Otilde" unicode="&#xd5;" horiz-adv-x="659" 
d="M173 36q-65 51 -98 138.5t-33 194.5q0 108 33 195.5t98 138.5t157 51q91 0 156.5 -51t98.5 -138.5t33 -195.5q0 -107 -33 -194.5t-98.5 -138.5t-156.5 -51q-92 0 -157 51zM459 160.5q43 85.5 43 208.5t-43 209t-129 86t-129 -86t-43 -209t43 -208.5t129 -85.5t129 85.5z
M216 931q24 21 55 21q15 0 30.5 -5.5t35.5 -16.5q18 -9 30.5 -14t23.5 -5q19 0 32 11.5t26 32.5l39 -38q-45 -77 -94 -77q-15 0 -30.5 6t-38.5 17q-15 8 -30.5 14t-26.5 6q-19 0 -32 -12t-27 -34l-37 41q20 32 44 53z" />
    <glyph glyph-name="OE" unicode="&#x152;" horiz-adv-x="941" 
d="M906 0h-441q-62 -15 -109 -15q-96 0 -167 45.5t-109 132t-38 206.5t38 207t108.5 132.5t166.5 45.5q51 0 106 -13h426v-95h-313v-219h245v-94h-245v-238h332v-95zM210.5 154q52.5 -79 149.5 -79q24 0 51.5 4t48.5 12v556q-23 8 -51 12.5t-50 4.5q-96 0 -148.5 -79
t-52.5 -216q0 -136 52.5 -215z" />
    <glyph glyph-name="P" unicode="P" horiz-adv-x="605" 
d="M339 741q109 0 175 -57.5t66 -158.5q0 -98 -67.5 -158.5t-202.5 -60.5h-106v-306h-114v741h249zM422 429.5q42 28.5 42 93.5q0 64 -38 93.5t-110 29.5h-112v-245h98q78 0 120 28.5z" />
    <glyph glyph-name="Thorn" unicode="&#xde;" horiz-adv-x="605" 
d="M204 741v-125h132q78 0 133 -29.5t83 -78.5t28 -108q0 -57 -25.5 -106.5t-86.5 -81t-159 -31.5h-105v-181h-114v741h114zM416.5 302.5q47.5 26.5 47.5 95.5q0 123 -162 123h-98v-245h87q78 0 125.5 26.5z" />
    <glyph glyph-name="Q" unicode="Q" horiz-adv-x="659" 
d="M407.5 -77.5q23.5 -21.5 70.5 -21.5q28 0 60 7l-32 -85q-30 -5 -55 -5q-72 0 -117.5 40t-50.5 131q-77 13 -131.5 66t-82 134.5t-27.5 179.5q0 108 33 195.5t98 138.5t157 51q91 0 156.5 -51t98.5 -138.5t33 -195.5q0 -97 -27.5 -178.5t-81.5 -134.5t-130 -67
q5 -45 28.5 -66.5zM201 160.5q43 -85.5 129 -85.5t129 85.5t43 208.5t-43 209t-129 86t-129 -86t-43 -209t43 -208.5z" />
    <glyph glyph-name="R" unicode="R" horiz-adv-x="620" 
d="M472 0l-137 321h-22h-109v-321h-114v741h247q80 0 134.5 -29.5t81 -77.5t26.5 -104q0 -65 -34.5 -113.5t-98.5 -73.5l148 -343h-122zM317 416q72 0 109 28t37 84t-34 87t-100 31h-125v-230h113z" />
    <glyph glyph-name="Racute" unicode="&#x154;" horiz-adv-x="620" 
d="M472 0l-137 321h-22h-109v-321h-114v741h247q80 0 134.5 -29.5t81 -77.5t26.5 -104q0 -65 -34.5 -113.5t-98.5 -73.5l148 -343h-122zM317 416q72 0 109 28t37 84t-34 87t-100 31h-125v-230h113zM340 941h110l-99 -137h-72z" />
    <glyph glyph-name="Rcaron" unicode="&#x158;" horiz-adv-x="620" 
d="M472 0l-137 321h-22h-109v-321h-114v741h247q80 0 134.5 -29.5t81 -77.5t26.5 -104q0 -65 -34.5 -113.5t-98.5 -73.5l148 -343h-122zM317 416q72 0 109 28t37 84t-34 87t-100 31h-125v-230h113zM168 941h81l67 -85l70 85h79l-96 -137h-104z" />
    <glyph glyph-name="uni0156" unicode="&#x156;" horiz-adv-x="620" 
d="M472 0l-137 321h-22h-109v-321h-114v741h247q80 0 134.5 -29.5t81 -77.5t26.5 -104q0 -65 -34.5 -113.5t-98.5 -73.5l148 -343h-122zM317 416q72 0 109 28t37 84t-34 87t-100 31h-125v-230h113zM282 -58h110l-99 -137h-72z" />
    <glyph glyph-name="S" unicode="S" horiz-adv-x="572" 
d="M130 34q-66 47 -89 138l107 56q7 -66 46.5 -107t98.5 -41q55 0 91 30.5t36 85.5q0 35 -20 59t-50 39t-82 35q-66 25 -106.5 47.5t-69.5 63t-29 103.5q0 61 31 109.5t83.5 75t114.5 26.5q86 0 146 -46.5t75 -128.5l-100 -51q-7 57 -40.5 95t-84.5 38q-47 0 -80 -30
t-33 -77q0 -34 19.5 -57t48 -37.5t80.5 -34.5q67 -25 108.5 -48t71 -66t29.5 -110q0 -55 -27 -104t-81 -79.5t-131 -30.5q-97 0 -163 47z" />
    <glyph glyph-name="Sacute" unicode="&#x15a;" horiz-adv-x="572" 
d="M130 34q-66 47 -89 138l107 56q7 -66 46.5 -107t98.5 -41q55 0 91 30.5t36 85.5q0 35 -20 59t-50 39t-82 35q-66 25 -106.5 47.5t-69.5 63t-29 103.5q0 61 31 109.5t83.5 75t114.5 26.5q86 0 146 -46.5t75 -128.5l-100 -51q-7 57 -40.5 95t-84.5 38q-47 0 -80 -30
t-33 -77q0 -34 19.5 -57t48 -37.5t80.5 -34.5q67 -25 108.5 -48t71 -66t29.5 -110q0 -55 -27 -104t-81 -79.5t-131 -30.5q-97 0 -163 47zM313 941h110l-99 -137h-72z" />
    <glyph glyph-name="Scaron" unicode="&#x160;" horiz-adv-x="572" 
d="M130 34q-66 47 -89 138l107 56q7 -66 46.5 -107t98.5 -41q55 0 91 30.5t36 85.5q0 35 -20 59t-50 39t-82 35q-66 25 -106.5 47.5t-69.5 63t-29 103.5q0 61 31 109.5t83.5 75t114.5 26.5q86 0 146 -46.5t75 -128.5l-100 -51q-7 57 -40.5 95t-84.5 38q-47 0 -80 -30
t-33 -77q0 -34 19.5 -57t48 -37.5t80.5 -34.5q67 -25 108.5 -48t71 -66t29.5 -110q0 -55 -27 -104t-81 -79.5t-131 -30.5q-97 0 -163 47zM140 941h81l67 -85l70 85h79l-96 -137h-104z" />
    <glyph glyph-name="Scedilla" unicode="&#x15e;" horiz-adv-x="572" 
d="M508.5 103q-23.5 -47 -71.5 -78t-116 -37l-20 -35q41 -8 64 -26.5t23 -52.5q0 -42 -33.5 -66.5t-77.5 -24.5q-25 0 -50.5 5t-38.5 14l13 55q13 -7 32 -12.5t35 -5.5q22 0 34.5 8.5t12.5 24.5q0 22 -26 31t-78 10l46 76q-83 8 -139 54.5t-77 128.5l107 56q7 -66 46.5 -107
t98.5 -41q55 0 91 30.5t36 85.5q0 35 -20 59t-50 39t-82 35q-66 25 -106.5 47.5t-69.5 63t-29 103.5q0 61 31 109.5t83.5 75t114.5 26.5q86 0 146 -46.5t75 -128.5l-100 -51q-7 57 -40.5 95t-84.5 38q-47 0 -80 -30t-33 -77q0 -34 19.5 -57t48 -37.5t80.5 -34.5
q67 -25 108.5 -48t71 -66t29.5 -110q0 -51 -23.5 -98z" />
    <glyph glyph-name="Scircumflex" unicode="&#x15c;" horiz-adv-x="572" 
d="M130 34q-66 47 -89 138l107 56q7 -66 46.5 -107t98.5 -41q55 0 91 30.5t36 85.5q0 35 -20 59t-50 39t-82 35q-66 25 -106.5 47.5t-69.5 63t-29 103.5q0 61 31 109.5t83.5 75t114.5 26.5q86 0 146 -46.5t75 -128.5l-100 -51q-7 57 -40.5 95t-84.5 38q-47 0 -80 -30
t-33 -77q0 -34 19.5 -57t48 -37.5t80.5 -34.5q67 -25 108.5 -48t71 -66t29.5 -110q0 -55 -27 -104t-81 -79.5t-131 -30.5q-97 0 -163 47zM237 941h104l96 -137h-79l-70 85l-67 -85h-81z" />
    <glyph glyph-name="uni0218" unicode="&#x218;" horiz-adv-x="572" 
d="M130 34q-66 47 -89 138l107 56q7 -66 46.5 -107t98.5 -41q55 0 91 30.5t36 85.5q0 35 -20 59t-50 39t-82 35q-66 25 -106.5 47.5t-69.5 63t-29 103.5q0 61 31 109.5t83.5 75t114.5 26.5q86 0 146 -46.5t75 -128.5l-100 -51q-7 57 -40.5 95t-84.5 38q-47 0 -80 -30
t-33 -77q0 -34 19.5 -57t48 -37.5t80.5 -34.5q67 -25 108.5 -48t71 -66t29.5 -110q0 -55 -27 -104t-81 -79.5t-131 -30.5q-97 0 -163 47zM238 -58h110l-99 -137h-72z" />
    <glyph glyph-name="T" unicode="T" horiz-adv-x="520" 
d="M203 646h-194v95h503v-95h-195v-646h-114v646z" />
    <glyph glyph-name="Tbar" unicode="&#x166;" horiz-adv-x="520" 
d="M512 646h-195v-221h106v-79h-106v-346h-114v346h-106v79h106v221h-194v95h503v-95z" />
    <glyph glyph-name="Tcaron" unicode="&#x164;" horiz-adv-x="520" 
d="M203 646h-194v95h503v-95h-195v-646h-114v646zM111 941h81l67 -85l70 85h79l-96 -137h-104z" />
    <glyph glyph-name="uni0162" unicode="&#x162;" horiz-adv-x="520" 
d="M203 646h-194v95h503v-95h-195v-646h-114v646zM207 -58h110l-99 -137h-72z" />
    <glyph glyph-name="uni021A" unicode="&#x21a;" horiz-adv-x="520" 
d="M203 646h-194v95h503v-95h-195v-646h-114v646zM207 -58h110l-99 -137h-72z" />
    <glyph glyph-name="U" unicode="U" horiz-adv-x="665" 
d="M154 48.5q-69 61.5 -69 181.5v511h114v-468q0 -96 30 -142.5t103 -46.5q75 0 105 46.5t30 142.5v468h113v-511q0 -120 -69.5 -181.5t-178.5 -61.5t-178 61.5z" />
    <glyph glyph-name="Uacute" unicode="&#xda;" horiz-adv-x="665" 
d="M154 48.5q-69 61.5 -69 181.5v511h114v-468q0 -96 30 -142.5t103 -46.5q75 0 105 46.5t30 142.5v468h113v-511q0 -120 -69.5 -181.5t-178.5 -61.5t-178 61.5zM356 941h110l-99 -137h-72z" />
    <glyph glyph-name="Ubreve" unicode="&#x16c;" horiz-adv-x="665" 
d="M154 48.5q-69 61.5 -69 181.5v511h114v-468q0 -96 30 -142.5t103 -46.5q75 0 105 46.5t30 142.5v468h113v-511q0 -120 -69.5 -181.5t-178.5 -61.5t-178 61.5zM224 835q-43 39 -50 106h70q6 -34 30 -55t59 -21q34 0 59 21t30 55h71q-8 -67 -51.5 -106t-108.5 -39
q-66 0 -109 39z" />
    <glyph glyph-name="Ucircumflex" unicode="&#xdb;" horiz-adv-x="665" 
d="M154 48.5q-69 61.5 -69 181.5v511h114v-468q0 -96 30 -142.5t103 -46.5q75 0 105 46.5t30 142.5v468h113v-511q0 -120 -69.5 -181.5t-178.5 -61.5t-178 61.5zM281 941h104l96 -137h-79l-70 85l-67 -85h-81z" />
    <glyph glyph-name="Udieresis" unicode="&#xdc;" horiz-adv-x="665" 
d="M154 48.5q-69 61.5 -69 181.5v511h114v-468q0 -96 30 -142.5t103 -46.5q75 0 105 46.5t30 142.5v468h113v-511q0 -120 -69.5 -181.5t-178.5 -61.5t-178 61.5zM201 835.5q-17 17.5 -17 42.5t17 42.5t42 17.5t42.5 -17.5t17.5 -42.5t-17.5 -42.5t-42.5 -17.5t-42 17.5z
M379.5 835.5q-17.5 17.5 -17.5 42.5t17.5 42.5t42.5 17.5t42.5 -17.5t17.5 -42.5t-17.5 -42.5t-42.5 -17.5t-42.5 17.5z" />
    <glyph glyph-name="uni1EE4" unicode="&#x1ee4;" horiz-adv-x="665" 
d="M154 48.5q-69 61.5 -69 181.5v511h114v-468q0 -96 30 -142.5t103 -46.5q75 0 105 46.5t30 142.5v468h113v-511q0 -120 -69.5 -181.5t-178.5 -61.5t-178 61.5zM287.5 -168.5q-18.5 18.5 -18.5 44.5t18.5 45t44.5 19t44.5 -19t18.5 -45t-18.5 -44.5t-44.5 -18.5t-44.5 18.5
z" />
    <glyph glyph-name="Ugrave" unicode="&#xd9;" horiz-adv-x="665" 
d="M154 48.5q-69 61.5 -69 181.5v511h114v-468q0 -96 30 -142.5t103 -46.5q75 0 105 46.5t30 142.5v468h113v-511q0 -120 -69.5 -181.5t-178.5 -61.5t-178 61.5zM199 941h109l62 -137h-73z" />
    <glyph glyph-name="uni1EE6" unicode="&#x1ee6;" horiz-adv-x="665" 
d="M154 48.5q-69 61.5 -69 181.5v511h114v-468q0 -96 30 -142.5t103 -46.5q75 0 105 46.5t30 142.5v468h113v-511q0 -120 -69.5 -181.5t-178.5 -61.5t-178 61.5zM333 838.5q11 13.5 11 25.5q0 13 -10.5 21t-29.5 8q-35 0 -70 -19l-12 56q38 20 95 20q51 0 77.5 -18.5
t26.5 -52.5q0 -39 -55 -75h-72q28 21 39 34.5z" />
    <glyph glyph-name="Uhorn" unicode="&#x1af;" horiz-adv-x="665" 
d="M667 789q0 -46 -23 -76.5t-64 -41.5v-441q0 -120 -69.5 -181.5t-178.5 -61.5t-178 61.5t-69 181.5v511h114v-468q0 -96 30 -142.5t103 -46.5q75 0 105 46.5t30 142.5v468h54q28 0 40.5 14t12.5 42q0 34 -12 73h94q11 -43 11 -81z" />
    <glyph glyph-name="uni1EE8" unicode="&#x1ee8;" horiz-adv-x="665" 
d="M667 789q0 -46 -23 -76.5t-64 -41.5v-441q0 -120 -69.5 -181.5t-178.5 -61.5t-178 61.5t-69 181.5v511h114v-468q0 -96 30 -142.5t103 -46.5q75 0 105 46.5t30 142.5v468h54q28 0 40.5 14t12.5 42q0 34 -12 73h94q11 -43 11 -81zM356 941h110l-99 -137h-72z" />
    <glyph glyph-name="uni1EF0" unicode="&#x1ef0;" horiz-adv-x="665" 
d="M667 789q0 -46 -23 -76.5t-64 -41.5v-441q0 -120 -69.5 -181.5t-178.5 -61.5t-178 61.5t-69 181.5v511h114v-468q0 -96 30 -142.5t103 -46.5q75 0 105 46.5t30 142.5v468h54q28 0 40.5 14t12.5 42q0 34 -12 73h94q11 -43 11 -81zM287.5 -168.5q-18.5 18.5 -18.5 44.5
t18.5 45t44.5 19t44.5 -19t18.5 -45t-18.5 -44.5t-44.5 -18.5t-44.5 18.5z" />
    <glyph glyph-name="uni1EEA" unicode="&#x1eea;" horiz-adv-x="665" 
d="M667 789q0 -46 -23 -76.5t-64 -41.5v-441q0 -120 -69.5 -181.5t-178.5 -61.5t-178 61.5t-69 181.5v511h114v-468q0 -96 30 -142.5t103 -46.5q75 0 105 46.5t30 142.5v468h54q28 0 40.5 14t12.5 42q0 34 -12 73h94q11 -43 11 -81zM199 941h109l62 -137h-73z" />
    <glyph glyph-name="uni1EEC" unicode="&#x1eec;" horiz-adv-x="665" 
d="M667 789q0 -46 -23 -76.5t-64 -41.5v-441q0 -120 -69.5 -181.5t-178.5 -61.5t-178 61.5t-69 181.5v511h114v-468q0 -96 30 -142.5t103 -46.5q75 0 105 46.5t30 142.5v468h54q28 0 40.5 14t12.5 42q0 34 -12 73h94q11 -43 11 -81zM333 838.5q11 13.5 11 25.5
q0 13 -10.5 21t-29.5 8q-35 0 -70 -19l-12 56q38 20 95 20q51 0 77.5 -18.5t26.5 -52.5q0 -39 -55 -75h-72q28 21 39 34.5z" />
    <glyph glyph-name="uni1EEE" unicode="&#x1eee;" horiz-adv-x="665" 
d="M667 789q0 -46 -23 -76.5t-64 -41.5v-441q0 -120 -69.5 -181.5t-178.5 -61.5t-178 61.5t-69 181.5v511h114v-468q0 -96 30 -142.5t103 -46.5q75 0 105 46.5t30 142.5v468h54q28 0 40.5 14t12.5 42q0 34 -12 73h94q11 -43 11 -81zM218 931q24 21 55 21q15 0 30.5 -5.5
t35.5 -16.5q18 -9 30.5 -14t23.5 -5q19 0 32 11.5t26 32.5l39 -38q-45 -77 -94 -77q-15 0 -30.5 6t-38.5 17q-15 8 -30.5 14t-26.5 6q-19 0 -32 -12t-27 -34l-37 41q20 32 44 53z" />
    <glyph glyph-name="Uhungarumlaut" unicode="&#x170;" horiz-adv-x="665" 
d="M154 48.5q-69 61.5 -69 181.5v511h114v-468q0 -96 30 -142.5t103 -46.5q75 0 105 46.5t30 142.5v468h113v-511q0 -120 -69.5 -181.5t-178.5 -61.5t-178 61.5zM288 941h86l-89 -137h-59zM443 941h86l-88 -137h-60z" />
    <glyph glyph-name="Umacron" unicode="&#x16a;" horiz-adv-x="665" 
d="M154 48.5q-69 61.5 -69 181.5v511h114v-468q0 -96 30 -142.5t103 -46.5q75 0 105 46.5t30 142.5v468h113v-511q0 -120 -69.5 -181.5t-178.5 -61.5t-178 61.5zM169 925h326v-72h-326v72z" />
    <glyph glyph-name="Uogonek" unicode="&#x172;" horiz-adv-x="665" 
d="M341.5 -171q-27.5 21 -27.5 61q0 22 17 49t53 52q-32 -4 -52 -4q-109 0 -178 61.5t-69 181.5v511h114v-468q0 -96 30 -142.5t103 -46.5q75 0 105 46.5t30 142.5v468h113v-511q0 -112 -67 -179q-24 -24 -60 -58q-39 -36 -54.5 -54.5t-15.5 -37.5q0 -17 11 -26t29 -9
q30 0 58 19v-57q-30 -20 -70 -20q-42 0 -69.5 21z" />
    <glyph glyph-name="Uring" unicode="&#x16e;" horiz-adv-x="665" 
d="M154 48.5q-69 61.5 -69 181.5v511h114v-468q0 -96 30 -142.5t103 -46.5q75 0 105 46.5t30 142.5v468h113v-511q0 -120 -69.5 -181.5t-178.5 -61.5t-178 61.5zM271.5 810.5q-25.5 25.5 -25.5 61.5q0 35 25.5 60.5t60.5 25.5q36 0 61.5 -25.5t25.5 -60.5q0 -36 -25.5 -61.5
t-61.5 -25.5q-35 0 -60.5 25.5zM361 843q12 12 12 29q0 16 -12 28t-29 12q-16 0 -28 -12t-12 -28q0 -17 11.5 -29t28.5 -12t29 12z" />
    <glyph glyph-name="Utilde" unicode="&#x168;" horiz-adv-x="665" 
d="M154 48.5q-69 61.5 -69 181.5v511h114v-468q0 -96 30 -142.5t103 -46.5q75 0 105 46.5t30 142.5v468h113v-511q0 -120 -69.5 -181.5t-178.5 -61.5t-178 61.5zM218 931q24 21 55 21q15 0 30.5 -5.5t35.5 -16.5q18 -9 30.5 -14t23.5 -5q19 0 32 11.5t26 32.5l39 -38
q-45 -77 -94 -77q-15 0 -30.5 6t-38.5 17q-15 8 -30.5 14t-26.5 6q-19 0 -32 -12t-27 -34l-37 41q20 32 44 53z" />
    <glyph glyph-name="V" unicode="V" horiz-adv-x="546" 
d="M-4 741h117l158 -589h2l161 589h116l-226 -741h-105z" />
    <glyph glyph-name="W" unicode="W" horiz-adv-x="801" 
d="M4 741h111l105 -571h2l115 571h123l110 -571h2l115 571h110l-169 -741h-117l-114 565h-2l-118 -565h-117z" />
    <glyph glyph-name="Wacute" unicode="&#x1e82;" horiz-adv-x="801" 
d="M4 741h111l105 -571h2l115 571h123l110 -571h2l115 571h110l-169 -741h-117l-114 565h-2l-118 -565h-117zM423 941h110l-99 -137h-72z" />
    <glyph glyph-name="Wcircumflex" unicode="&#x174;" horiz-adv-x="801" 
d="M4 741h111l105 -571h2l115 571h123l110 -571h2l115 571h110l-169 -741h-117l-114 565h-2l-118 -565h-117zM348 941h104l96 -137h-79l-70 85l-67 -85h-81z" />
    <glyph glyph-name="Wdieresis" unicode="&#x1e84;" horiz-adv-x="801" 
d="M4 741h111l105 -571h2l115 571h123l110 -571h2l115 571h110l-169 -741h-117l-114 565h-2l-118 -565h-117zM268 835.5q-17 17.5 -17 42.5t17 42.5t42 17.5t42.5 -17.5t17.5 -42.5t-17.5 -42.5t-42.5 -17.5t-42 17.5zM446.5 835.5q-17.5 17.5 -17.5 42.5t17.5 42.5
t42.5 17.5t42.5 -17.5t17.5 -42.5t-17.5 -42.5t-42.5 -17.5t-42.5 17.5z" />
    <glyph glyph-name="Wgrave" unicode="&#x1e80;" horiz-adv-x="801" 
d="M4 741h111l105 -571h2l115 571h123l110 -571h2l115 571h110l-169 -741h-117l-114 565h-2l-118 -565h-117zM266 941h109l62 -137h-73z" />
    <glyph glyph-name="X" unicode="X" horiz-adv-x="581" 
d="M352 382l219 -382h-132l-149 279h-2l-155 -279h-124l218 382l-201 359h132l133 -262h2l140 262h124z" />
    <glyph glyph-name="Y" unicode="Y" horiz-adv-x="575" 
d="M232 304l-235 437h121l171 -344h1l172 344h116l-233 -437v-304h-113v304z" />
    <glyph glyph-name="Yacute" unicode="&#xdd;" horiz-adv-x="575" 
d="M232 304l-235 437h121l171 -344h1l172 344h116l-233 -437v-304h-113v304zM313 941h110l-99 -137h-72z" />
    <glyph glyph-name="Ycircumflex" unicode="&#x176;" horiz-adv-x="575" 
d="M232 304l-235 437h121l171 -344h1l172 344h116l-233 -437v-304h-113v304zM238 941h104l96 -137h-79l-70 85l-67 -85h-81z" />
    <glyph glyph-name="Ydieresis" unicode="&#x178;" horiz-adv-x="575" 
d="M232 304l-235 437h121l171 -344h1l172 344h116l-233 -437v-304h-113v304zM158 835.5q-17 17.5 -17 42.5t17 42.5t42 17.5t42.5 -17.5t17.5 -42.5t-17.5 -42.5t-42.5 -17.5t-42 17.5zM336.5 835.5q-17.5 17.5 -17.5 42.5t17.5 42.5t42.5 17.5t42.5 -17.5t17.5 -42.5
t-17.5 -42.5t-42.5 -17.5t-42.5 17.5z" />
    <glyph glyph-name="uni1EF4" unicode="&#x1ef4;" horiz-adv-x="575" 
d="M232 304l-235 437h121l171 -344h1l172 344h116l-233 -437v-304h-113v304zM244.5 -168.5q-18.5 18.5 -18.5 44.5t18.5 45t44.5 19t44.5 -19t18.5 -45t-18.5 -44.5t-44.5 -18.5t-44.5 18.5z" />
    <glyph glyph-name="Ygrave" unicode="&#x1ef2;" horiz-adv-x="575" 
d="M232 304l-235 437h121l171 -344h1l172 344h116l-233 -437v-304h-113v304zM156 941h109l62 -137h-73z" />
    <glyph glyph-name="uni1EF6" unicode="&#x1ef6;" horiz-adv-x="575" 
d="M232 304l-235 437h121l171 -344h1l172 344h116l-233 -437v-304h-113v304zM290 838.5q11 13.5 11 25.5q0 13 -10.5 21t-29.5 8q-35 0 -70 -19l-12 56q38 20 95 20q51 0 77.5 -18.5t26.5 -52.5q0 -39 -55 -75h-72q28 21 39 34.5z" />
    <glyph glyph-name="uni1EF8" unicode="&#x1ef8;" horiz-adv-x="575" 
d="M232 304l-235 437h121l171 -344h1l172 344h116l-233 -437v-304h-113v304zM175 931q24 21 55 21q15 0 30.5 -5.5t35.5 -16.5q18 -9 30.5 -14t23.5 -5q19 0 32 11.5t26 32.5l39 -38q-45 -77 -94 -77q-15 0 -30.5 6t-38.5 17q-15 8 -30.5 14t-26.5 6q-19 0 -32 -12t-27 -34
l-37 41q20 32 44 53z" />
    <glyph glyph-name="Z" unicode="Z" horiz-adv-x="528" 
d="M492 741v-91l-325 -554h325v-96h-456v87l327 559h-308v95h437z" />
    <glyph glyph-name="Zacute" unicode="&#x179;" horiz-adv-x="528" 
d="M492 741v-91l-325 -554h325v-96h-456v87l327 559h-308v95h437zM288 941h110l-99 -137h-72z" />
    <glyph glyph-name="Zcaron" unicode="&#x17d;" horiz-adv-x="528" 
d="M492 741v-91l-325 -554h325v-96h-456v87l327 559h-308v95h437zM116 941h81l67 -85l70 85h79l-96 -137h-104z" />
    <glyph glyph-name="Zdotaccent" unicode="&#x17b;" horiz-adv-x="528" 
d="M492 741v-91l-325 -554h325v-96h-456v87l327 559h-308v95h437zM219.5 833.5q-18.5 18.5 -18.5 44.5t18.5 44.5t44.5 18.5t44.5 -18.5t18.5 -44.5t-18.5 -44.5t-44.5 -18.5t-44.5 18.5z" />
    <glyph glyph-name="a" unicode="a" horiz-adv-x="536" 
d="M91 30.5q-46 43.5 -46 116.5q0 82 55.5 124t176.5 59q33 4 48.5 9.5t22 16.5t6.5 32q0 33 -20.5 51.5t-55.5 18.5q-41 0 -75 -21t-58 -58l-58 69q71 92 196 92q88 0 132 -42t44 -120v-378h-103v61q-38 -38 -71 -56t-78 -18q-70 0 -116 43.5zM351 147v115h-2l-69 -9
q-68 -10 -99 -34.5t-31 -69.5q0 -36 20.5 -58t58.5 -22q62 0 122 78z" />
    <glyph glyph-name="aacute" unicode="&#xe1;" horiz-adv-x="536" 
d="M91 30.5q-46 43.5 -46 116.5q0 82 55.5 124t176.5 59q33 4 48.5 9.5t22 16.5t6.5 32q0 33 -20.5 51.5t-55.5 18.5q-41 0 -75 -21t-58 -58l-58 69q71 92 196 92q88 0 132 -42t44 -120v-378h-103v61q-38 -38 -71 -56t-78 -18q-70 0 -116 43.5zM351 147v115h-2l-69 -9
q-68 -10 -99 -34.5t-31 -69.5q0 -36 20.5 -58t58.5 -22q62 0 122 78zM300 741h110l-99 -137h-72z" />
    <glyph glyph-name="abreve" unicode="&#x103;" horiz-adv-x="536" 
d="M91 30.5q-46 43.5 -46 116.5q0 82 55.5 124t176.5 59q33 4 48.5 9.5t22 16.5t6.5 32q0 33 -20.5 51.5t-55.5 18.5q-41 0 -75 -21t-58 -58l-58 69q71 92 196 92q88 0 132 -42t44 -120v-378h-103v61q-38 -38 -71 -56t-78 -18q-70 0 -116 43.5zM351 147v115h-2l-69 -9
q-68 -10 -99 -34.5t-31 -69.5q0 -36 20.5 -58t58.5 -22q62 0 122 78zM167 635q-43 39 -50 106h70q6 -34 30 -55t59 -21q34 0 59 21t30 55h71q-8 -67 -51.5 -106t-108.5 -39q-66 0 -109 39z" />
    <glyph glyph-name="uni1EAF" unicode="&#x1eaf;" horiz-adv-x="536" 
d="M91 30.5q-46 43.5 -46 116.5q0 82 55.5 124t176.5 59q33 4 48.5 9.5t22 16.5t6.5 32q0 33 -20.5 51.5t-55.5 18.5q-41 0 -75 -21t-58 -58l-58 69q71 92 196 92q88 0 132 -42t44 -120v-378h-103v61q-38 -38 -71 -56t-78 -18q-70 0 -116 43.5zM351 147v115h-2l-69 -9
q-68 -10 -99 -34.5t-31 -69.5q0 -36 20.5 -58t58.5 -22q62 0 122 78zM305 840h109l-104 -105h-73zM171.5 625q-39.5 29 -47.5 81h70q6 -22 28 -33.5t53 -11.5q32 0 54 11.5t28 33.5h71q-9 -51 -50 -80.5t-103 -29.5q-64 0 -103.5 29z" />
    <glyph glyph-name="uni1EB7" unicode="&#x1eb7;" horiz-adv-x="536" 
d="M91 30.5q-46 43.5 -46 116.5q0 82 55.5 124t176.5 59q33 4 48.5 9.5t22 16.5t6.5 32q0 33 -20.5 51.5t-55.5 18.5q-41 0 -75 -21t-58 -58l-58 69q71 92 196 92q88 0 132 -42t44 -120v-378h-103v61q-38 -38 -71 -56t-78 -18q-70 0 -116 43.5zM351 147v115h-2l-69 -9
q-68 -10 -99 -34.5t-31 -69.5q0 -36 20.5 -58t58.5 -22q62 0 122 78zM167 635q-43 39 -50 106h70q6 -34 30 -55t59 -21q34 0 59 21t30 55h71q-8 -67 -51.5 -106t-108.5 -39q-66 0 -109 39zM212.5 -168.5q-18.5 18.5 -18.5 44.5t18.5 45t44.5 19t44.5 -19t18.5 -45
t-18.5 -44.5t-44.5 -18.5t-44.5 18.5z" />
    <glyph glyph-name="uni1EB1" unicode="&#x1eb1;" horiz-adv-x="536" 
d="M91 30.5q-46 43.5 -46 116.5q0 82 55.5 124t176.5 59q33 4 48.5 9.5t22 16.5t6.5 32q0 33 -20.5 51.5t-55.5 18.5q-41 0 -75 -21t-58 -58l-58 69q71 92 196 92q88 0 132 -42t44 -120v-378h-103v61q-38 -38 -71 -56t-78 -18q-70 0 -116 43.5zM351 147v115h-2l-69 -9
q-68 -10 -99 -34.5t-31 -69.5q0 -36 20.5 -58t58.5 -22q62 0 122 78zM137 840h109l68 -105h-73zM171.5 625q-39.5 29 -47.5 81h70q6 -22 28 -33.5t53 -11.5q32 0 54 11.5t28 33.5h71q-9 -51 -50 -80.5t-103 -29.5q-64 0 -103.5 29z" />
    <glyph glyph-name="uni1EB3" unicode="&#x1eb3;" horiz-adv-x="536" 
d="M91 30.5q-46 43.5 -46 116.5q0 82 55.5 124t176.5 59q33 4 48.5 9.5t22 16.5t6.5 32q0 33 -20.5 51.5t-55.5 18.5q-41 0 -75 -21t-58 -58l-58 69q71 92 196 92q88 0 132 -42t44 -120v-378h-103v61q-38 -38 -71 -56t-78 -18q-70 0 -116 43.5zM351 147v115h-2l-69 -9
q-68 -10 -99 -34.5t-31 -69.5q0 -36 20.5 -58t58.5 -22q62 0 122 78zM277 768q0 11 -10.5 19t-29.5 8q-34 0 -70 -18l-13 55q42 21 95 21q51 0 78 -19t27 -51q0 -16 -12 -34t-36 -35h-72q43 32 43 54zM171.5 625q-39.5 29 -47.5 81h70q6 -22 28 -33.5t53 -11.5q32 0 54 11.5
t28 33.5h71q-9 -51 -50 -80.5t-103 -29.5q-64 0 -103.5 29z" />
    <glyph glyph-name="uni1EB5" unicode="&#x1eb5;" horiz-adv-x="536" 
d="M91 30.5q-46 43.5 -46 116.5q0 82 55.5 124t176.5 59q33 4 48.5 9.5t22 16.5t6.5 32q0 33 -20.5 51.5t-55.5 18.5q-41 0 -75 -21t-58 -58l-58 69q71 92 196 92q88 0 132 -42t44 -120v-378h-103v61q-38 -38 -71 -56t-78 -18q-70 0 -116 43.5zM351 147v115h-2l-69 -9
q-68 -10 -99 -34.5t-31 -69.5q0 -36 20.5 -58t58.5 -22q62 0 122 78zM217 838q25 0 69 -22q14 -7 27.5 -12t23.5 -5q26 0 53 42l38 -37q-41 -66 -94 -66q-15 0 -29 5t-40 17q-3 1 -14.5 7t-20.5 8.5t-16 2.5q-25 0 -54 -43l-37 37q41 66 94 66zM171.5 625q-40.5 29 -47.5 81
h70q7 -22 29 -33.5t53 -11.5t53 11.5t28 33.5h71q-9 -51 -50 -80.5t-102 -29.5q-64 0 -104.5 29z" />
    <glyph glyph-name="acircumflex" unicode="&#xe2;" horiz-adv-x="536" 
d="M91 30.5q-46 43.5 -46 116.5q0 82 55.5 124t176.5 59q33 4 48.5 9.5t22 16.5t6.5 32q0 33 -20.5 51.5t-55.5 18.5q-41 0 -75 -21t-58 -58l-58 69q71 92 196 92q88 0 132 -42t44 -120v-378h-103v61q-38 -38 -71 -56t-78 -18q-70 0 -116 43.5zM351 147v115h-2l-69 -9
q-68 -10 -99 -34.5t-31 -69.5q0 -36 20.5 -58t58.5 -22q62 0 122 78zM225 741h104l96 -137h-79l-70 85l-67 -85h-81z" />
    <glyph glyph-name="uni1EA5" unicode="&#x1ea5;" horiz-adv-x="536" 
d="M91 30.5q-46 43.5 -46 116.5q0 82 55.5 124t176.5 59q33 4 48.5 9.5t22 16.5t6.5 32q0 33 -20.5 51.5t-55.5 18.5q-41 0 -75 -21t-58 -58l-58 69q71 92 196 92q88 0 132 -42t44 -120v-378h-103v61q-38 -38 -71 -56t-78 -18q-70 0 -116 43.5zM351 147v115h-2l-69 -9
q-68 -10 -99 -34.5t-31 -69.5q0 -36 20.5 -58t58.5 -22q62 0 122 78zM308 840h109l-105 -105h-72zM225 703h104l96 -99h-80l-69 56l-67 -56h-81z" />
    <glyph glyph-name="uni1EAD" unicode="&#x1ead;" horiz-adv-x="536" 
d="M91 30.5q-46 43.5 -46 116.5q0 82 55.5 124t176.5 59q33 4 48.5 9.5t22 16.5t6.5 32q0 33 -20.5 51.5t-55.5 18.5q-41 0 -75 -21t-58 -58l-58 69q71 92 196 92q88 0 132 -42t44 -120v-378h-103v61q-38 -38 -71 -56t-78 -18q-70 0 -116 43.5zM351 147v115h-2l-69 -9
q-68 -10 -99 -34.5t-31 -69.5q0 -36 20.5 -58t58.5 -22q62 0 122 78zM225 741h104l96 -137h-79l-70 85l-67 -85h-81zM212.5 -168.5q-18.5 18.5 -18.5 44.5t18.5 45t44.5 19t44.5 -19t18.5 -45t-18.5 -44.5t-44.5 -18.5t-44.5 18.5z" />
    <glyph glyph-name="uni1EA7" unicode="&#x1ea7;" horiz-adv-x="536" 
d="M91 30.5q-46 43.5 -46 116.5q0 82 55.5 124t176.5 59q33 4 48.5 9.5t22 16.5t6.5 32q0 33 -20.5 51.5t-55.5 18.5q-41 0 -75 -21t-58 -58l-58 69q71 92 196 92q88 0 132 -42t44 -120v-378h-103v61q-38 -38 -71 -56t-78 -18q-70 0 -116 43.5zM351 147v115h-2l-69 -9
q-68 -10 -99 -34.5t-31 -69.5q0 -36 20.5 -58t58.5 -22q62 0 122 78zM135 840h110l67 -105h-72zM225 703h104l96 -99h-80l-69 56l-67 -56h-81z" />
    <glyph glyph-name="uni1EA9" unicode="&#x1ea9;" horiz-adv-x="536" 
d="M91 30.5q-46 43.5 -46 116.5q0 82 55.5 124t176.5 59q33 4 48.5 9.5t22 16.5t6.5 32q0 33 -20.5 51.5t-55.5 18.5q-41 0 -75 -21t-58 -58l-58 69q71 92 196 92q88 0 132 -42t44 -120v-378h-103v61q-38 -38 -71 -56t-78 -18q-70 0 -116 43.5zM351 147v115h-2l-69 -9
q-68 -10 -99 -34.5t-31 -69.5q0 -36 20.5 -58t58.5 -22q62 0 122 78zM401.5 737.5q9.5 12.5 9.5 23.5t-10 19t-30 8q-35 0 -69 -19l-13 56q40 20 95 20q51 0 78 -18.5t27 -51.5q0 -16 -12 -34t-36 -34h-73q24 18 33.5 30.5zM225 703h104l96 -99h-80l-69 56l-67 -56h-81z" />
    <glyph glyph-name="uni1EAB" unicode="&#x1eab;" horiz-adv-x="536" 
d="M91 30.5q-46 43.5 -46 116.5q0 82 55.5 124t176.5 59q33 4 48.5 9.5t22 16.5t6.5 32q0 33 -20.5 51.5t-55.5 18.5q-41 0 -75 -21t-58 -58l-58 69q71 92 196 92q88 0 132 -42t44 -120v-378h-103v61q-38 -38 -71 -56t-78 -18q-70 0 -116 43.5zM351 147v115h-2l-69 -9
q-68 -10 -99 -34.5t-31 -69.5q0 -36 20.5 -58t58.5 -22q62 0 122 78zM217 838q15 0 30.5 -5.5t36.5 -15.5q34 -18 52 -18q27 0 54 42l38 -37q-41 -66 -95 -66q-25 0 -67 22q-14 7 -28 12.5t-24 5.5q-25 0 -54 -43l-37 37q40 66 94 66zM224 703h103l97 -99h-80l-69 56
l-66 -56h-82z" />
    <glyph glyph-name="adieresis" unicode="&#xe4;" horiz-adv-x="536" 
d="M91 30.5q-46 43.5 -46 116.5q0 82 55.5 124t176.5 59q33 4 48.5 9.5t22 16.5t6.5 32q0 33 -20.5 51.5t-55.5 18.5q-41 0 -75 -21t-58 -58l-58 69q71 92 196 92q88 0 132 -42t44 -120v-378h-103v61q-38 -38 -71 -56t-78 -18q-70 0 -116 43.5zM351 147v115h-2l-69 -9
q-68 -10 -99 -34.5t-31 -69.5q0 -36 20.5 -58t58.5 -22q62 0 122 78zM144 635.5q-17 17.5 -17 42.5t17 42.5t42 17.5t42.5 -17.5t17.5 -42.5t-17.5 -42.5t-42.5 -17.5t-42 17.5zM322.5 635.5q-17.5 17.5 -17.5 42.5t17.5 42.5t42.5 17.5t42.5 -17.5t17.5 -42.5t-17.5 -42.5
t-42.5 -17.5t-42.5 17.5z" />
    <glyph glyph-name="uni1EA1" unicode="&#x1ea1;" horiz-adv-x="536" 
d="M91 30.5q-46 43.5 -46 116.5q0 82 55.5 124t176.5 59q33 4 48.5 9.5t22 16.5t6.5 32q0 33 -20.5 51.5t-55.5 18.5q-41 0 -75 -21t-58 -58l-58 69q71 92 196 92q88 0 132 -42t44 -120v-378h-103v61q-38 -38 -71 -56t-78 -18q-70 0 -116 43.5zM351 147v115h-2l-69 -9
q-68 -10 -99 -34.5t-31 -69.5q0 -36 20.5 -58t58.5 -22q62 0 122 78zM212.5 -168.5q-18.5 18.5 -18.5 44.5t18.5 45t44.5 19t44.5 -19t18.5 -45t-18.5 -44.5t-44.5 -18.5t-44.5 18.5z" />
    <glyph glyph-name="agrave" unicode="&#xe0;" horiz-adv-x="536" 
d="M91 30.5q-46 43.5 -46 116.5q0 82 55.5 124t176.5 59q33 4 48.5 9.5t22 16.5t6.5 32q0 33 -20.5 51.5t-55.5 18.5q-41 0 -75 -21t-58 -58l-58 69q71 92 196 92q88 0 132 -42t44 -120v-378h-103v61q-38 -38 -71 -56t-78 -18q-70 0 -116 43.5zM351 147v115h-2l-69 -9
q-68 -10 -99 -34.5t-31 -69.5q0 -36 20.5 -58t58.5 -22q62 0 122 78zM143 741h109l62 -137h-73z" />
    <glyph glyph-name="uni1EA3" unicode="&#x1ea3;" horiz-adv-x="536" 
d="M91 30.5q-46 43.5 -46 116.5q0 82 55.5 124t176.5 59q33 4 48.5 9.5t22 16.5t6.5 32q0 33 -20.5 51.5t-55.5 18.5q-41 0 -75 -21t-58 -58l-58 69q71 92 196 92q88 0 132 -42t44 -120v-378h-103v61q-38 -38 -71 -56t-78 -18q-70 0 -116 43.5zM351 147v115h-2l-69 -9
q-68 -10 -99 -34.5t-31 -69.5q0 -36 20.5 -58t58.5 -22q62 0 122 78zM276 638.5q11 13.5 11 25.5q0 13 -10.5 21t-29.5 8q-35 0 -70 -19l-12 56q38 20 95 20q51 0 77.5 -18.5t26.5 -52.5q0 -39 -55 -75h-72q28 21 39 34.5z" />
    <glyph glyph-name="amacron" unicode="&#x101;" horiz-adv-x="536" 
d="M91 30.5q-46 43.5 -46 116.5q0 82 55.5 124t176.5 59q33 4 48.5 9.5t22 16.5t6.5 32q0 33 -20.5 51.5t-55.5 18.5q-41 0 -75 -21t-58 -58l-58 69q71 92 196 92q88 0 132 -42t44 -120v-378h-103v61q-38 -38 -71 -56t-78 -18q-70 0 -116 43.5zM351 147v115h-2l-69 -9
q-68 -10 -99 -34.5t-31 -69.5q0 -36 20.5 -58t58.5 -22q62 0 122 78zM113 725h326v-72h-326v72z" />
    <glyph glyph-name="aogonek" unicode="&#x105;" horiz-adv-x="536" 
d="M415 498q44 -42 44 -120v-378h-13q-47 -20 -74 -46t-27 -53q0 -17 11.5 -26t28.5 -9q30 0 58 19v-57q-30 -20 -70 -20q-42 0 -69 21t-27 61q0 31 20 60t59 51v60q-38 -38 -71 -56t-78 -18q-70 0 -116 43.5t-46 116.5q0 82 55.5 124t176.5 59q33 4 48.5 9.5t22 16.5
t6.5 32q0 33 -20.5 51.5t-55.5 18.5q-41 0 -75 -21t-58 -58l-58 69q71 92 196 92q88 0 132 -42zM351 262h-2l-69 -9q-68 -10 -99 -34.5t-31 -69.5q0 -36 20.5 -58t58.5 -22q62 0 122 78v115z" />
    <glyph glyph-name="aring" unicode="&#xe5;" horiz-adv-x="536" 
d="M91 30.5q-46 43.5 -46 116.5q0 82 55.5 124t176.5 59q33 4 48.5 9.5t22 16.5t6.5 32q0 33 -20.5 51.5t-55.5 18.5q-41 0 -75 -21t-58 -58l-58 69q71 92 196 92q88 0 132 -42t44 -120v-378h-103v61q-38 -38 -71 -56t-78 -18q-70 0 -116 43.5zM351 147v115h-2l-69 -9
q-68 -10 -99 -34.5t-31 -69.5q0 -36 20.5 -58t58.5 -22q62 0 122 78zM215.5 610.5q-25.5 25.5 -25.5 61.5q0 35 25.5 60.5t60.5 25.5q36 0 61.5 -25.5t25.5 -60.5q0 -36 -25.5 -61.5t-61.5 -25.5q-35 0 -60.5 25.5zM305 643q12 12 12 29q0 16 -12 28t-29 12q-16 0 -28 -12
t-12 -28q0 -17 11.5 -29t28.5 -12t29 12z" />
    <glyph glyph-name="atilde" unicode="&#xe3;" horiz-adv-x="536" 
d="M91 30.5q-46 43.5 -46 116.5q0 82 55.5 124t176.5 59q33 4 48.5 9.5t22 16.5t6.5 32q0 33 -20.5 51.5t-55.5 18.5q-41 0 -75 -21t-58 -58l-58 69q71 92 196 92q88 0 132 -42t44 -120v-378h-103v61q-38 -38 -71 -56t-78 -18q-70 0 -116 43.5zM351 147v115h-2l-69 -9
q-68 -10 -99 -34.5t-31 -69.5q0 -36 20.5 -58t58.5 -22q62 0 122 78zM162 731q24 21 55 21q15 0 30.5 -5.5t35.5 -16.5q18 -9 30.5 -14t23.5 -5q19 0 32 11.5t26 32.5l39 -38q-45 -77 -94 -77q-15 0 -30.5 6t-38.5 17q-15 8 -30.5 14t-26.5 6q-19 0 -32 -12t-27 -34l-37 41
q20 32 44 53z" />
    <glyph glyph-name="ae" unicode="&#xe6;" horiz-adv-x="823" 
d="M455 242q-2 -79 32 -126t92 -47q40 0 73 25.5t53 63.5l66 -59q-32 -51 -83 -81.5t-119 -30.5q-59 0 -103.5 25.5t-72.5 70.5q-40 -50 -83 -73t-95 -23q-77 0 -123.5 41t-46.5 115q0 82 56 122.5t169 55.5q37 5 54 11.5t23.5 18.5t6.5 37q0 31 -21 50.5t-55 19.5
q-41 0 -77.5 -24.5t-55.5 -54.5l-58 69q71 92 196 92q104 0 141 -63q52 63 150 63q99 0 153 -70t54 -209v-19h-326zM488.5 416.5q-27.5 -43.5 -29.5 -102.5h215q1 62 -25 104t-80 42q-53 0 -80.5 -43.5zM297 92.5q32 23.5 63 65.5q-13 47 -14 96l-80 -11q-116 -16 -116 -98
q0 -35 20.5 -55.5t58.5 -20.5q36 0 68 23.5z" />
    <glyph glyph-name="b" unicode="b" horiz-adv-x="561" 
d="M240 2.5q-31 15.5 -62 48.5v-51h-98v729l107 50v-304q34 31 64.5 48t67.5 17q45 0 90 -27.5t75 -88.5t30 -155q0 -102 -29.5 -165t-75 -90t-96.5 -27q-42 0 -73 15.5zM376.5 122.5q31.5 53.5 31.5 134.5q0 72 -28 129.5t-88 57.5q-32 0 -57.5 -18.5t-47.5 -49.5v-230
q19 -33 45.5 -55t58.5 -22q54 0 85.5 53.5z" />
    <glyph glyph-name="c" unicode="c" horiz-adv-x="504" 
d="M147 22q-51 35 -78 98t-27 144t27 143.5t77.5 97.5t119.5 35q78 0 124 -36.5t71 -102.5l-89 -47q-13 47 -37 76.5t-70 29.5q-62 0 -87 -59t-25 -137q0 -81 26 -139t88 -58q47 0 71 30.5t38 81.5l91 -45q-23 -67 -76.5 -107t-123.5 -40q-69 0 -120 35z" />
    <glyph glyph-name="cacute" unicode="&#x107;" horiz-adv-x="504" 
d="M147 22q-51 35 -78 98t-27 144t27 143.5t77.5 97.5t119.5 35q78 0 124 -36.5t71 -102.5l-89 -47q-13 47 -37 76.5t-70 29.5q-62 0 -87 -59t-25 -137q0 -81 26 -139t88 -58q47 0 71 30.5t38 81.5l91 -45q-23 -67 -76.5 -107t-123.5 -40q-69 0 -120 35zM289 741h110
l-99 -137h-72z" />
    <glyph glyph-name="ccaron" unicode="&#x10d;" horiz-adv-x="504" 
d="M147 22q-51 35 -78 98t-27 144t27 143.5t77.5 97.5t119.5 35q78 0 124 -36.5t71 -102.5l-89 -47q-13 47 -37 76.5t-70 29.5q-62 0 -87 -59t-25 -137q0 -81 26 -139t88 -58q47 0 71 30.5t38 81.5l91 -45q-23 -67 -76.5 -107t-123.5 -40q-69 0 -120 35zM117 741h81l67 -85
l70 85h79l-96 -137h-104z" />
    <glyph glyph-name="ccedilla" unicode="&#xe7;" horiz-adv-x="504" 
d="M403.5 38q-43.5 -38 -101.5 -48l-21 -37q41 -8 64 -26.5t23 -52.5q0 -42 -33.5 -66.5t-77.5 -24.5q-25 0 -50.5 5t-38.5 14l13 55q13 -7 32 -12.5t35 -5.5q22 0 34.5 8.5t12.5 24.5q0 22 -26 31t-78 10l46 76q-91 11 -143 86t-52 189q0 81 27 143.5t77.5 97.5t119.5 35
q78 0 124 -36.5t71 -102.5l-89 -47q-13 47 -37 76.5t-70 29.5q-62 0 -87 -59t-25 -137q0 -81 26 -139t88 -58q47 0 71 30.5t38 81.5l91 -45q-20 -58 -63.5 -96z" />
    <glyph glyph-name="ccircumflex" unicode="&#x109;" horiz-adv-x="504" 
d="M147 22q-51 35 -78 98t-27 144t27 143.5t77.5 97.5t119.5 35q78 0 124 -36.5t71 -102.5l-89 -47q-13 47 -37 76.5t-70 29.5q-62 0 -87 -59t-25 -137q0 -81 26 -139t88 -58q47 0 71 30.5t38 81.5l91 -45q-23 -67 -76.5 -107t-123.5 -40q-69 0 -120 35zM214 741h104
l96 -137h-79l-70 85l-67 -85h-81z" />
    <glyph glyph-name="cdotaccent" unicode="&#x10b;" horiz-adv-x="504" 
d="M147 22q-51 35 -78 98t-27 144t27 143.5t77.5 97.5t119.5 35q78 0 124 -36.5t71 -102.5l-89 -47q-13 47 -37 76.5t-70 29.5q-62 0 -87 -59t-25 -137q0 -81 26 -139t88 -58q47 0 71 30.5t38 81.5l91 -45q-23 -67 -76.5 -107t-123.5 -40q-69 0 -120 35zM220.5 633.5
q-18.5 18.5 -18.5 44.5t18.5 44.5t44.5 18.5t44.5 -18.5t18.5 -44.5t-18.5 -44.5t-44.5 -18.5t-44.5 18.5z" />
    <glyph glyph-name="d" unicode="d" horiz-adv-x="561" 
d="M150.5 14q-45.5 27 -74.5 89.5t-29 164.5q0 94 30 155t75 89t90 28q37 0 66.5 -16.5t65.5 -48.5v254l107 50v-779h-98v51q-32 -33 -62.5 -48.5t-72.5 -15.5q-52 0 -97.5 27zM329.5 101q27.5 22 44.5 54v229q-47 70 -105 70q-61 0 -88.5 -57.5t-27.5 -130.5
q0 -80 31 -133.5t86 -53.5q32 0 59.5 22z" />
    <glyph glyph-name="eth" unicode="&#xf0;" horiz-adv-x="527" 
d="M435.5 471q49.5 -96 49.5 -209q0 -80 -26.5 -142.5t-76 -97.5t-118.5 -35q-68 0 -118.5 35t-77 97.5t-26.5 144.5q0 80 26 142.5t76 98t120 35.5q9 0 14 -1q-34 40 -74 79l-73 -57l-35 45l67 51q-32 28 -48 41l64 67l57 -52l59 45l34 -43l-52 -40q109 -108 158.5 -204z
M351.5 127q24.5 59 24.5 137q0 77 -24.5 136.5t-87.5 59.5t-87 -59t-24 -137t24 -137t87 -59t87.5 59z" />
    <glyph glyph-name="dcaron" unicode="&#x10f;" horiz-adv-x="561" 
d="M150.5 14q-45.5 27 -74.5 89.5t-29 164.5q0 94 30 155t75 89t90 28q37 0 66.5 -16.5t65.5 -48.5v254l107 50v-779h-98v51q-32 -33 -62.5 -48.5t-72.5 -15.5q-52 0 -97.5 27zM329.5 101q27.5 22 44.5 54v229q-47 70 -105 70q-61 0 -88.5 -57.5t-27.5 -130.5
q0 -80 31 -133.5t86 -53.5q32 0 59.5 22zM531 779h100l-32 -187h-77z" />
    <glyph glyph-name="dcroat" unicode="&#x111;" horiz-adv-x="560" 
d="M541 602h-60v-602h-98v51q-32 -33 -62.5 -48.5t-72.5 -15.5q-52 0 -97.5 27t-74.5 89.5t-29 164.5q0 94 30 155t75 89t90 28q37 0 66.5 -16.5t65.5 -48.5v127h-112v79h112v48l107 50v-98h60v-79zM374 384q-47 70 -105 70q-61 0 -88.5 -57.5t-27.5 -130.5q0 -80 31 -133.5
t86 -53.5q32 0 59.5 22t44.5 54v229z" />
    <glyph glyph-name="e" unicode="e" horiz-adv-x="518" 
d="M145 22.5q-50 35.5 -76.5 98.5t-26.5 144q0 80 27 142.5t78.5 97.5t122.5 35q98 0 152 -70t54 -209v-19h-325q-2 -79 32 -126t92 -47q40 0 72.5 25.5t52.5 63.5l67 -59q-33 -52 -84 -82t-119 -30q-69 0 -119 35.5zM344.5 418q-25.5 42 -79.5 42q-53 0 -81 -43.5
t-30 -102.5h215q1 62 -24.5 104z" />
    <glyph glyph-name="eacute" unicode="&#xe9;" horiz-adv-x="518" 
d="M145 22.5q-50 35.5 -76.5 98.5t-26.5 144q0 80 27 142.5t78.5 97.5t122.5 35q98 0 152 -70t54 -209v-19h-325q-2 -79 32 -126t92 -47q40 0 72.5 25.5t52.5 63.5l67 -59q-33 -52 -84 -82t-119 -30q-69 0 -119 35.5zM344.5 418q-25.5 42 -79.5 42q-53 0 -81 -43.5
t-30 -102.5h215q1 62 -24.5 104zM291 741h110l-99 -137h-72z" />
    <glyph glyph-name="ebreve" unicode="&#x115;" horiz-adv-x="518" 
d="M145 22.5q-50 35.5 -76.5 98.5t-26.5 144q0 80 27 142.5t78.5 97.5t122.5 35q98 0 152 -70t54 -209v-19h-325q-2 -79 32 -126t92 -47q40 0 72.5 25.5t52.5 63.5l67 -59q-33 -52 -84 -82t-119 -30q-69 0 -119 35.5zM344.5 418q-25.5 42 -79.5 42q-53 0 -81 -43.5
t-30 -102.5h215q1 62 -24.5 104zM158 635q-43 39 -50 106h70q6 -34 30 -55t59 -21q34 0 59 21t30 55h71q-8 -67 -51.5 -106t-108.5 -39q-66 0 -109 39z" />
    <glyph glyph-name="ecaron" unicode="&#x11b;" horiz-adv-x="518" 
d="M145 22.5q-50 35.5 -76.5 98.5t-26.5 144q0 80 27 142.5t78.5 97.5t122.5 35q98 0 152 -70t54 -209v-19h-325q-2 -79 32 -126t92 -47q40 0 72.5 25.5t52.5 63.5l67 -59q-33 -52 -84 -82t-119 -30q-69 0 -119 35.5zM344.5 418q-25.5 42 -79.5 42q-53 0 -81 -43.5
t-30 -102.5h215q1 62 -24.5 104zM119 741h81l67 -85l70 85h79l-96 -137h-104z" />
    <glyph glyph-name="ecircumflex" unicode="&#xea;" horiz-adv-x="518" 
d="M145 22.5q-50 35.5 -76.5 98.5t-26.5 144q0 80 27 142.5t78.5 97.5t122.5 35q98 0 152 -70t54 -209v-19h-325q-2 -79 32 -126t92 -47q40 0 72.5 25.5t52.5 63.5l67 -59q-33 -52 -84 -82t-119 -30q-69 0 -119 35.5zM344.5 418q-25.5 42 -79.5 42q-53 0 -81 -43.5
t-30 -102.5h215q1 62 -24.5 104zM216 741h104l96 -137h-79l-70 85l-67 -85h-81z" />
    <glyph glyph-name="uni1EBF" unicode="&#x1ebf;" horiz-adv-x="518" 
d="M145 22.5q-50 35.5 -76.5 98.5t-26.5 144q0 80 27 142.5t78.5 97.5t122.5 35q98 0 152 -70t54 -209v-19h-325q-2 -79 32 -126t92 -47q40 0 72.5 25.5t52.5 63.5l67 -59q-33 -52 -84 -82t-119 -30q-69 0 -119 35.5zM344.5 418q-25.5 42 -79.5 42q-53 0 -81 -43.5
t-30 -102.5h215q1 62 -24.5 104zM299 840h109l-105 -105h-72zM216 703h104l96 -99h-80l-69 56l-67 -56h-81z" />
    <glyph glyph-name="uni1EC7" unicode="&#x1ec7;" horiz-adv-x="518" 
d="M145 22.5q-50 35.5 -76.5 98.5t-26.5 144q0 80 27 142.5t78.5 97.5t122.5 35q98 0 152 -70t54 -209v-19h-325q-2 -79 32 -126t92 -47q40 0 72.5 25.5t52.5 63.5l67 -59q-33 -52 -84 -82t-119 -30q-69 0 -119 35.5zM344.5 418q-25.5 42 -79.5 42q-53 0 -81 -43.5
t-30 -102.5h215q1 62 -24.5 104zM216 741h104l96 -137h-79l-70 85l-67 -85h-81zM218.5 -168.5q-18.5 18.5 -18.5 44.5t18.5 45t44.5 19t44.5 -19t18.5 -45t-18.5 -44.5t-44.5 -18.5t-44.5 18.5z" />
    <glyph glyph-name="uni1EC1" unicode="&#x1ec1;" horiz-adv-x="518" 
d="M145 22.5q-50 35.5 -76.5 98.5t-26.5 144q0 80 27 142.5t78.5 97.5t122.5 35q98 0 152 -70t54 -209v-19h-325q-2 -79 32 -126t92 -47q40 0 72.5 25.5t52.5 63.5l67 -59q-33 -52 -84 -82t-119 -30q-69 0 -119 35.5zM344.5 418q-25.5 42 -79.5 42q-53 0 -81 -43.5
t-30 -102.5h215q1 62 -24.5 104zM126 840h110l67 -105h-72zM216 703h104l96 -99h-80l-69 56l-67 -56h-81z" />
    <glyph glyph-name="uni1EC3" unicode="&#x1ec3;" horiz-adv-x="518" 
d="M145 22.5q-50 35.5 -76.5 98.5t-26.5 144q0 80 27 142.5t78.5 97.5t122.5 35q98 0 152 -70t54 -209v-19h-325q-2 -79 32 -126t92 -47q40 0 72.5 25.5t52.5 63.5l67 -59q-33 -52 -84 -82t-119 -30q-69 0 -119 35.5zM344.5 418q-25.5 42 -79.5 42q-53 0 -81 -43.5
t-30 -102.5h215q1 62 -24.5 104zM392.5 737.5q9.5 12.5 9.5 23.5t-10 19t-30 8q-35 0 -69 -19l-13 56q40 20 95 20q51 0 78 -18.5t27 -51.5q0 -16 -12 -34t-36 -34h-73q24 18 33.5 30.5zM216 703h104l96 -99h-80l-69 56l-67 -56h-81z" />
    <glyph glyph-name="uni1EC5" unicode="&#x1ec5;" horiz-adv-x="518" 
d="M145 22.5q-50 35.5 -76.5 98.5t-26.5 144q0 80 27 142.5t78.5 97.5t122.5 35q98 0 152 -70t54 -209v-19h-325q-2 -79 32 -126t92 -47q40 0 72.5 25.5t52.5 63.5l67 -59q-33 -52 -84 -82t-119 -30q-69 0 -119 35.5zM344.5 418q-25.5 42 -79.5 42q-53 0 -81 -43.5
t-30 -102.5h215q1 62 -24.5 104zM208 838q15 0 30.5 -5.5t36.5 -15.5q34 -18 52 -18q27 0 54 42l38 -37q-41 -66 -95 -66q-25 0 -67 22q-14 7 -28 12.5t-24 5.5q-25 0 -54 -43l-37 37q40 66 94 66zM215 703h103l97 -99h-80l-69 56l-66 -56h-82z" />
    <glyph glyph-name="edieresis" unicode="&#xeb;" horiz-adv-x="518" 
d="M145 22.5q-50 35.5 -76.5 98.5t-26.5 144q0 80 27 142.5t78.5 97.5t122.5 35q98 0 152 -70t54 -209v-19h-325q-2 -79 32 -126t92 -47q40 0 72.5 25.5t52.5 63.5l67 -59q-33 -52 -84 -82t-119 -30q-69 0 -119 35.5zM344.5 418q-25.5 42 -79.5 42q-53 0 -81 -43.5
t-30 -102.5h215q1 62 -24.5 104zM136 635.5q-17 17.5 -17 42.5t17 42.5t42 17.5t42.5 -17.5t17.5 -42.5t-17.5 -42.5t-42.5 -17.5t-42 17.5zM314.5 635.5q-17.5 17.5 -17.5 42.5t17.5 42.5t42.5 17.5t42.5 -17.5t17.5 -42.5t-17.5 -42.5t-42.5 -17.5t-42.5 17.5z" />
    <glyph glyph-name="edotaccent" unicode="&#x117;" horiz-adv-x="518" 
d="M145 22.5q-50 35.5 -76.5 98.5t-26.5 144q0 80 27 142.5t78.5 97.5t122.5 35q98 0 152 -70t54 -209v-19h-325q-2 -79 32 -126t92 -47q40 0 72.5 25.5t52.5 63.5l67 -59q-33 -52 -84 -82t-119 -30q-69 0 -119 35.5zM344.5 418q-25.5 42 -79.5 42q-53 0 -81 -43.5
t-30 -102.5h215q1 62 -24.5 104zM222.5 633.5q-18.5 18.5 -18.5 44.5t18.5 44.5t44.5 18.5t44.5 -18.5t18.5 -44.5t-18.5 -44.5t-44.5 -18.5t-44.5 18.5z" />
    <glyph glyph-name="uni1EB9" unicode="&#x1eb9;" horiz-adv-x="518" 
d="M145 22.5q-50 35.5 -76.5 98.5t-26.5 144q0 80 27 142.5t78.5 97.5t122.5 35q98 0 152 -70t54 -209v-19h-325q-2 -79 32 -126t92 -47q40 0 72.5 25.5t52.5 63.5l67 -59q-33 -52 -84 -82t-119 -30q-69 0 -119 35.5zM344.5 418q-25.5 42 -79.5 42q-53 0 -81 -43.5
t-30 -102.5h215q1 62 -24.5 104zM218.5 -168.5q-18.5 18.5 -18.5 44.5t18.5 45t44.5 19t44.5 -19t18.5 -45t-18.5 -44.5t-44.5 -18.5t-44.5 18.5z" />
    <glyph glyph-name="egrave" unicode="&#xe8;" horiz-adv-x="518" 
d="M145 22.5q-50 35.5 -76.5 98.5t-26.5 144q0 80 27 142.5t78.5 97.5t122.5 35q98 0 152 -70t54 -209v-19h-325q-2 -79 32 -126t92 -47q40 0 72.5 25.5t52.5 63.5l67 -59q-33 -52 -84 -82t-119 -30q-69 0 -119 35.5zM344.5 418q-25.5 42 -79.5 42q-53 0 -81 -43.5
t-30 -102.5h215q1 62 -24.5 104zM134 741h109l62 -137h-73z" />
    <glyph glyph-name="uni1EBB" unicode="&#x1ebb;" horiz-adv-x="518" 
d="M145 22.5q-50 35.5 -76.5 98.5t-26.5 144q0 80 27 142.5t78.5 97.5t122.5 35q98 0 152 -70t54 -209v-19h-325q-2 -79 32 -126t92 -47q40 0 72.5 25.5t52.5 63.5l67 -59q-33 -52 -84 -82t-119 -30q-69 0 -119 35.5zM344.5 418q-25.5 42 -79.5 42q-53 0 -81 -43.5
t-30 -102.5h215q1 62 -24.5 104zM267 638.5q11 13.5 11 25.5q0 13 -10.5 21t-29.5 8q-35 0 -70 -19l-12 56q38 20 95 20q51 0 77.5 -18.5t26.5 -52.5q0 -39 -55 -75h-72q28 21 39 34.5z" />
    <glyph glyph-name="emacron" unicode="&#x113;" horiz-adv-x="518" 
d="M145 22.5q-50 35.5 -76.5 98.5t-26.5 144q0 80 27 142.5t78.5 97.5t122.5 35q98 0 152 -70t54 -209v-19h-325q-2 -79 32 -126t92 -47q40 0 72.5 25.5t52.5 63.5l67 -59q-33 -52 -84 -82t-119 -30q-69 0 -119 35.5zM344.5 418q-25.5 42 -79.5 42q-53 0 -81 -43.5
t-30 -102.5h215q1 62 -24.5 104zM104 725h326v-72h-326v72z" />
    <glyph glyph-name="eogonek" unicode="&#x119;" horiz-adv-x="518" 
d="M315.5 -171q-27.5 21 -27.5 61q0 26 13.5 51.5t40.5 58.5q-33 -13 -78 -13q-69 0 -119 35.5t-76.5 98.5t-26.5 144q0 80 27 142.5t78.5 97.5t122.5 35q98 0 152 -70t54 -209v-19h-325q-2 -79 32 -126t92 -47q40 0 72.5 25.5t52.5 63.5l67 -59l-17 -25q-49 -69 -71 -107
t-22 -63q0 -19 11.5 -28.5t28.5 -9.5q29 0 58 19v-57q-30 -20 -70 -20q-42 0 -69.5 21zM344.5 418q-25.5 42 -79.5 42q-53 0 -81 -43.5t-30 -102.5h215q1 62 -24.5 104z" />
    <glyph glyph-name="uni1EBD" unicode="&#x1ebd;" horiz-adv-x="518" 
d="M145 22.5q-50 35.5 -76.5 98.5t-26.5 144q0 80 27 142.5t78.5 97.5t122.5 35q98 0 152 -70t54 -209v-19h-325q-2 -79 32 -126t92 -47q40 0 72.5 25.5t52.5 63.5l67 -59q-33 -52 -84 -82t-119 -30q-69 0 -119 35.5zM344.5 418q-25.5 42 -79.5 42q-53 0 -81 -43.5
t-30 -102.5h215q1 62 -24.5 104zM153 731q24 21 55 21q15 0 30.5 -5.5t35.5 -16.5q18 -9 30.5 -14t23.5 -5q19 0 32 11.5t26 32.5l39 -38q-45 -77 -94 -77q-15 0 -30.5 6t-38.5 17q-15 8 -30.5 14t-26.5 6q-19 0 -32 -12t-27 -34l-37 41q20 32 44 53z" />
    <glyph glyph-name="f" unicode="f" horiz-adv-x="316" 
d="M22 438v89h74v74q0 69 38.5 112t112.5 43q28 0 54.5 -6t46.5 -15l-29 -84q-32 13 -57 13q-58 0 -58 -70v-67h118l-17 -89h-101v-438h-108v438h-74z" />
    <glyph glyph-name="g" unicode="g" horiz-adv-x="539" 
d="M476 62.5q43 -29.5 43 -88.5q0 -73 -62 -115.5t-187 -42.5q-119 0 -178 37t-59 96q0 33 18 55t53 38q-23 13 -35.5 32t-12.5 42q0 27 13 49.5t49 58.5q-28 24 -44 58.5t-16 74.5q0 55 27.5 96.5t74 64t101.5 22.5q73 0 127 -37q26 23 47.5 34t50.5 11q18 0 30 -3v-80
q-21 7 -35 7q-21 0 -47 -17q28 -42 28 -97t-27.5 -97t-73.5 -64.5t-101 -22.5q-44 0 -81 14q-29 -24 -29 -47q0 -15 20.5 -23.5t63.5 -11.5l117 -8q82 -6 125 -35.5zM188 436q-25 -33 -25 -80q0 -48 25.5 -79t71.5 -31q48 0 72.5 32t24.5 80q0 50 -24.5 80.5t-71.5 30.5
q-48 0 -73 -33zM380.5 -93q47.5 15 47.5 51q0 24 -26.5 34t-92.5 16l-126 11h-4q-29 -10 -42.5 -23.5t-13.5 -35.5q0 -36 44 -52t106 -16q60 0 107.5 15z" />
    <glyph glyph-name="gbreve" unicode="&#x11f;" horiz-adv-x="539" 
d="M476 62.5q43 -29.5 43 -88.5q0 -73 -62 -115.5t-187 -42.5q-119 0 -178 37t-59 96q0 33 18 55t53 38q-23 13 -35.5 32t-12.5 42q0 27 13 49.5t49 58.5q-28 24 -44 58.5t-16 74.5q0 55 27.5 96.5t74 64t101.5 22.5q73 0 127 -37q26 23 47.5 34t50.5 11q18 0 30 -3v-80
q-21 7 -35 7q-21 0 -47 -17q28 -42 28 -97t-27.5 -97t-73.5 -64.5t-101 -22.5q-44 0 -81 14q-29 -24 -29 -47q0 -15 20.5 -23.5t63.5 -11.5l117 -8q82 -6 125 -35.5zM188 436q-25 -33 -25 -80q0 -48 25.5 -79t71.5 -31q48 0 72.5 32t24.5 80q0 50 -24.5 80.5t-71.5 30.5
q-48 0 -73 -33zM380.5 -93q47.5 15 47.5 51q0 24 -26.5 34t-92.5 16l-126 11h-4q-29 -10 -42.5 -23.5t-13.5 -35.5q0 -36 44 -52t106 -16q60 0 107.5 15zM153 635q-43 39 -50 106h70q6 -34 30 -55t59 -21q34 0 59 21t30 55h71q-8 -67 -51.5 -106t-108.5 -39q-66 0 -109 39z
" />
    <glyph glyph-name="gcircumflex" unicode="&#x11d;" horiz-adv-x="539" 
d="M476 62.5q43 -29.5 43 -88.5q0 -73 -62 -115.5t-187 -42.5q-119 0 -178 37t-59 96q0 33 18 55t53 38q-23 13 -35.5 32t-12.5 42q0 27 13 49.5t49 58.5q-28 24 -44 58.5t-16 74.5q0 55 27.5 96.5t74 64t101.5 22.5q73 0 127 -37q26 23 47.5 34t50.5 11q18 0 30 -3v-80
q-21 7 -35 7q-21 0 -47 -17q28 -42 28 -97t-27.5 -97t-73.5 -64.5t-101 -22.5q-44 0 -81 14q-29 -24 -29 -47q0 -15 20.5 -23.5t63.5 -11.5l117 -8q82 -6 125 -35.5zM188 436q-25 -33 -25 -80q0 -48 25.5 -79t71.5 -31q48 0 72.5 32t24.5 80q0 50 -24.5 80.5t-71.5 30.5
q-48 0 -73 -33zM380.5 -93q47.5 15 47.5 51q0 24 -26.5 34t-92.5 16l-126 11h-4q-29 -10 -42.5 -23.5t-13.5 -35.5q0 -36 44 -52t106 -16q60 0 107.5 15zM210 741h104l96 -137h-79l-70 85l-67 -85h-81z" />
    <glyph glyph-name="uni0123" unicode="&#x123;" horiz-adv-x="539" 
d="M476 62.5q43 -29.5 43 -88.5q0 -73 -62 -115.5t-187 -42.5q-119 0 -178 37t-59 96q0 33 18 55t53 38q-23 13 -35.5 32t-12.5 42q0 27 13 49.5t49 58.5q-28 24 -44 58.5t-16 74.5q0 55 27.5 96.5t74 64t101.5 22.5q73 0 127 -37q26 23 47.5 34t50.5 11q18 0 30 -3v-80
q-21 7 -35 7q-21 0 -47 -17q28 -42 28 -97t-27.5 -97t-73.5 -64.5t-101 -22.5q-44 0 -81 14q-29 -24 -29 -47q0 -15 20.5 -23.5t63.5 -11.5l117 -8q82 -6 125 -35.5zM188 436q-25 -33 -25 -80q0 -48 25.5 -79t71.5 -31q48 0 72.5 32t24.5 80q0 50 -24.5 80.5t-71.5 30.5
q-48 0 -73 -33zM380.5 -93q47.5 15 47.5 51q0 24 -26.5 34t-92.5 16l-126 11h-4q-29 -10 -42.5 -23.5t-13.5 -35.5q0 -36 44 -52t106 -16q60 0 107.5 15zM302 741h73l-62 -137h-109z" />
    <glyph glyph-name="gdotaccent" unicode="&#x121;" horiz-adv-x="539" 
d="M476 62.5q43 -29.5 43 -88.5q0 -73 -62 -115.5t-187 -42.5q-119 0 -178 37t-59 96q0 33 18 55t53 38q-23 13 -35.5 32t-12.5 42q0 27 13 49.5t49 58.5q-28 24 -44 58.5t-16 74.5q0 55 27.5 96.5t74 64t101.5 22.5q73 0 127 -37q26 23 47.5 34t50.5 11q18 0 30 -3v-80
q-21 7 -35 7q-21 0 -47 -17q28 -42 28 -97t-27.5 -97t-73.5 -64.5t-101 -22.5q-44 0 -81 14q-29 -24 -29 -47q0 -15 20.5 -23.5t63.5 -11.5l117 -8q82 -6 125 -35.5zM188 436q-25 -33 -25 -80q0 -48 25.5 -79t71.5 -31q48 0 72.5 32t24.5 80q0 50 -24.5 80.5t-71.5 30.5
q-48 0 -73 -33zM380.5 -93q47.5 15 47.5 51q0 24 -26.5 34t-92.5 16l-126 11h-4q-29 -10 -42.5 -23.5t-13.5 -35.5q0 -36 44 -52t106 -16q60 0 107.5 15zM216.5 633.5q-18.5 18.5 -18.5 44.5t18.5 44.5t44.5 18.5t44.5 -18.5t18.5 -44.5t-18.5 -44.5t-44.5 -18.5t-44.5 18.5
z" />
    <glyph glyph-name="h" unicode="h" horiz-adv-x="556" 
d="M187 779v-306q80 67 155 67q57 0 97 -38t40 -126v-376h-108v349q0 45 -15 74.5t-53 29.5q-30 0 -58.5 -17.5t-57.5 -44.5v-391h-107v729z" />
    <glyph glyph-name="hbar" unicode="&#x127;" horiz-adv-x="556" 
d="M439 502q40 -38 40 -126v-376h-108v349q0 45 -15 74.5t-53 29.5q-30 0 -58.5 -17.5t-57.5 -44.5v-391h-107v602h-61v79h61v48l107 50v-98h111v-79h-111v-129q80 67 155 67q57 0 97 -38z" />
    <glyph glyph-name="hcircumflex" unicode="&#x125;" horiz-adv-x="556" 
d="M187 779v-306q80 67 155 67q57 0 97 -38t40 -126v-376h-108v349q0 45 -15 74.5t-53 29.5q-30 0 -58.5 -17.5t-57.5 -44.5v-391h-107v729zM84 957h104l96 -137h-79l-70 85l-67 -85h-81z" />
    <glyph glyph-name="i" unicode="i" horiz-adv-x="267" 
d="M85.5 641q-20.5 20 -20.5 47t20 47t47 20q28 0 48 -19.5t20 -47.5q0 -27 -20 -47t-48 -20q-26 0 -46.5 20zM79 527h108v-527h-108v527z" />
    <glyph glyph-name="dotlessi" unicode="&#x131;" horiz-adv-x="267" 
d="M80 527h107v-527h-107v527z" />
    <glyph glyph-name="iacute" unicode="&#xed;" horiz-adv-x="267" 
d="M80 527h107v-527h-107v527zM157 741h110l-99 -137h-72z" />
    <glyph glyph-name="ibreve" unicode="&#x12d;" horiz-adv-x="267" 
d="M80 527h107v-527h-107v527zM24 635q-43 39 -50 106h70q6 -34 30 -55t59 -21q34 0 59 21t30 55h71q-8 -67 -51.5 -106t-108.5 -39q-66 0 -109 39z" />
    <glyph glyph-name="icircumflex" unicode="&#xee;" horiz-adv-x="267" 
d="M80 527h107v-527h-107v527zM82 741h104l96 -137h-79l-70 85l-67 -85h-81z" />
    <glyph glyph-name="idieresis" unicode="&#xef;" horiz-adv-x="267" 
d="M80 527h107v-527h-107v527zM2 635.5q-17 17.5 -17 42.5t17 42.5t42 17.5t42.5 -17.5t17.5 -42.5t-17.5 -42.5t-42.5 -17.5t-42 17.5zM180.5 635.5q-17.5 17.5 -17.5 42.5t17.5 42.5t42.5 17.5t42.5 -17.5t17.5 -42.5t-17.5 -42.5t-42.5 -17.5t-42.5 17.5z" />
    <glyph glyph-name="uni1ECB" unicode="&#x1ecb;" horiz-adv-x="267" 
d="M85.5 641q-20.5 20 -20.5 47t20 47t47 20q28 0 48 -19.5t20 -47.5q0 -27 -20 -47t-48 -20q-26 0 -46.5 20zM79 527h108v-527h-108v527zM92.5 -168.5q-18.5 18.5 -18.5 44.5t18.5 45t44.5 19t44.5 -19t18.5 -45t-18.5 -44.5t-44.5 -18.5t-44.5 18.5z" />
    <glyph glyph-name="igrave" unicode="&#xec;" horiz-adv-x="267" 
d="M80 527h107v-527h-107v527zM0 741h109l62 -137h-73z" />
    <glyph glyph-name="uni1EC9" unicode="&#x1ec9;" horiz-adv-x="267" 
d="M80 527h107v-527h-107v527zM134 638.5q11 13.5 11 25.5q0 13 -10.5 21t-29.5 8q-35 0 -70 -19l-12 56q38 20 95 20q51 0 77.5 -18.5t26.5 -52.5q0 -39 -55 -75h-72q28 21 39 34.5z" />
    <glyph glyph-name="ij" unicode="&#x133;" horiz-adv-x="534" 
d="M85.5 641q-20.5 20 -20.5 47t20 47t47 20q28 0 48 -19.5t20 -47.5q0 -27 -20 -47t-48 -20q-26 0 -46.5 20zM79 527h108v-527h-108v527zM352.5 641q-20.5 20 -20.5 47t20 47t47 20q28 0 48 -19.5t20 -47.5q0 -27 -20 -47t-48 -20q-26 0 -46.5 20zM254 -179v88q28 -4 39 -4
q31 0 42 18.5t11 63.5v540h108v-543q0 -87 -33.5 -127t-114.5 -40q-28 0 -52 4z" />
    <glyph glyph-name="imacron" unicode="&#x12b;" horiz-adv-x="267" 
d="M80 527h107v-527h-107v527zM-30 725h326v-72h-326v72z" />
    <glyph glyph-name="iogonek" unicode="&#x12f;" horiz-adv-x="267" 
d="M85.5 641q-20.5 20 -20.5 47t20 47t47 20q28 0 48 -19.5t20 -47.5q0 -27 -20 -47t-48 -20q-26 0 -46.5 20zM79 527h108v-527h-14q-47 -20 -73.5 -46t-26.5 -53q0 -17 11 -26t28 -9q30 0 59 19v-57q-30 -20 -70 -20q-42 0 -69.5 21t-27.5 61q0 31 19.5 59.5t57.5 50.5h-2
v527z" />
    <glyph glyph-name="itilde" unicode="&#x129;" horiz-adv-x="267" 
d="M80 527h107v-527h-107v527zM19 731q24 21 55 21q15 0 30.5 -5.5t35.5 -16.5q18 -9 30.5 -14t23.5 -5q19 0 32 11.5t26 32.5l39 -38q-45 -77 -94 -77q-15 0 -30.5 6t-38.5 17q-15 8 -30.5 14t-26.5 6q-19 0 -32 -12t-27 -34l-37 41q20 32 44 53z" />
    <glyph glyph-name="j" unicode="j" horiz-adv-x="267" 
d="M85.5 641q-20.5 20 -20.5 47t20 47t47 20q28 0 48 -19.5t20 -47.5q0 -27 -20 -47t-48 -20q-26 0 -46.5 20zM-13 -179v88q28 -4 39 -4q31 0 42 18.5t11 63.5v540h108v-543q0 -87 -33.5 -127t-114.5 -40q-28 0 -52 4z" />
    <glyph glyph-name="uni0237" unicode="&#x237;" horiz-adv-x="267" 
d="M-13 -179v88q28 -4 39 -4q31 0 42.5 18.5t11.5 63.5v540h107v-543q0 -87 -33.5 -127t-114.5 -40q-28 0 -52 4z" />
    <glyph glyph-name="jcircumflex" unicode="&#x135;" horiz-adv-x="267" 
d="M-13 -179v88q28 -4 39 -4q31 0 42.5 18.5t11.5 63.5v540h107v-543q0 -87 -33.5 -127t-114.5 -40q-28 0 -52 4zM82 741h104l96 -137h-79l-70 85l-67 -85h-81z" />
    <glyph glyph-name="k" unicode="k" horiz-adv-x="511" 
d="M382 0l-130 256l-65 -81v-175h-107v736l107 50v-357q0 -89 -2 -129h1q41 60 72 99l102 128h125l-157 -190l175 -337h-121z" />
    <glyph glyph-name="uni0137" unicode="&#x137;" horiz-adv-x="511" 
d="M382 0l-130 256l-65 -81v-175h-107v736l107 50v-357q0 -89 -2 -129h1q41 60 72 99l102 128h125l-157 -190l175 -337h-121zM230 -58h110l-99 -137h-72z" />
    <glyph glyph-name="kgreenlandic" unicode="&#x138;" horiz-adv-x="511" 
d="M382 0l-130 256l-65 -81v-175h-107v527h107v-98q0 -89 -2 -129h1q41 60 72 99l102 128h125l-157 -190l175 -337h-121z" />
    <glyph glyph-name="l" unicode="l" horiz-adv-x="267" 
d="M80 729l107 50v-779h-107v729z" />
    <glyph glyph-name="lacute" unicode="&#x13a;" horiz-adv-x="267" 
d="M80 729l107 50v-779h-107v729zM160 956h110l-99 -137h-72z" />
    <glyph glyph-name="lcaron" unicode="&#x13e;" horiz-adv-x="267" 
d="M80 729l107 50v-779h-107v729zM236 779h100l-32 -187h-77z" />
    <glyph glyph-name="uni013C" unicode="&#x13c;" horiz-adv-x="267" 
d="M80 729l107 50v-779h-107v729zM80 -58h110l-99 -137h-72z" />
    <glyph glyph-name="ldot" unicode="&#x140;" horiz-adv-x="346" 
d="M80 729l107 50v-779h-107v729zM254 328q-21 21 -21 51t21 51t51 21q29 0 50.5 -21t21.5 -51t-21.5 -51t-50.5 -21q-30 0 -51 21z" />
    <glyph glyph-name="lslash" unicode="&#x142;" horiz-adv-x="269" 
d="M279 430l-91 -45v-385h-107v333l-65 -32l-25 60l90 44v324l107 50v-321l65 32z" />
    <glyph glyph-name="m" unicode="m" horiz-adv-x="848" 
d="M187 527v-54q37 31 74 49t80 18q47 0 78 -18t49 -57q44 37 81 56t82 19q63 0 101.5 -39.5t38.5 -119.5v-381h-108v362q0 92 -66 92q-33 0 -64.5 -20t-53.5 -48v-386h-107v363q0 38 -14.5 64.5t-52.5 26.5q-33 0 -64 -19.5t-54 -48.5v-386h-107v527h107z" />
    <glyph glyph-name="n" unicode="n" horiz-adv-x="556" 
d="M187 527v-54q80 67 155 67q57 0 97 -38t40 -126v-376h-108v349q0 45 -15 74.5t-53 29.5q-30 0 -58.5 -17.5t-57.5 -44.5v-391h-107v527h107z" />
    <glyph glyph-name="nacute" unicode="&#x144;" horiz-adv-x="556" 
d="M187 527v-54q80 67 155 67q57 0 97 -38t40 -126v-376h-108v349q0 45 -15 74.5t-53 29.5q-30 0 -58.5 -17.5t-57.5 -44.5v-391h-107v527h107zM308 741h110l-99 -137h-72z" />
    <glyph glyph-name="napostrophe" unicode="&#x149;" horiz-adv-x="556" 
d="M187 527v-54q80 67 155 67q57 0 97 -38t40 -126v-376h-108v349q0 45 -15 74.5t-53 29.5q-30 0 -58.5 -17.5t-57.5 -44.5v-391h-107v527h107zM110 741h113l-66 -137h-78z" />
    <glyph glyph-name="ncaron" unicode="&#x148;" horiz-adv-x="556" 
d="M187 527v-54q80 67 155 67q57 0 97 -38t40 -126v-376h-108v349q0 45 -15 74.5t-53 29.5q-30 0 -58.5 -17.5t-57.5 -44.5v-391h-107v527h107zM136 741h81l67 -85l70 85h79l-96 -137h-104z" />
    <glyph glyph-name="uni0146" unicode="&#x146;" horiz-adv-x="556" 
d="M187 527v-54q80 67 155 67q57 0 97 -38t40 -126v-376h-108v349q0 45 -15 74.5t-53 29.5q-30 0 -58.5 -17.5t-57.5 -44.5v-391h-107v527h107zM226 -58h110l-99 -137h-72z" />
    <glyph glyph-name="eng" unicode="&#x14b;" horiz-adv-x="556" 
d="M279 -179v88q28 -4 38 -4q31 0 42.5 18.5t11.5 63.5v362q0 45 -15 74.5t-53 29.5q-30 0 -58.5 -17.5t-57.5 -44.5v-391h-107v527h107v-54q80 67 155 67q57 0 97 -38t40 -126v-392q0 -87 -33.5 -127t-114.5 -40q-28 0 -52 4z" />
    <glyph glyph-name="ntilde" unicode="&#xf1;" horiz-adv-x="556" 
d="M187 527v-54q80 67 155 67q57 0 97 -38t40 -126v-376h-108v349q0 45 -15 74.5t-53 29.5q-30 0 -58.5 -17.5t-57.5 -44.5v-391h-107v527h107zM170 731q24 21 55 21q15 0 30.5 -5.5t35.5 -16.5q18 -9 30.5 -14t23.5 -5q19 0 32 11.5t26 32.5l39 -38q-45 -77 -94 -77
q-15 0 -30.5 6t-38.5 17q-15 8 -30.5 14t-26.5 6q-19 0 -32 -12t-27 -34l-37 41q20 32 44 53z" />
    <glyph glyph-name="o" unicode="o" horiz-adv-x="527" 
d="M145.5 22q-50.5 35 -77 97.5t-26.5 144.5t26.5 144.5t76.5 97t119 34.5t119 -34.5t76 -97t26 -144.5t-26.5 -144.5t-76 -97.5t-118.5 -35q-68 0 -118.5 35zM351.5 127q24.5 59 24.5 137q0 77 -24.5 136.5t-87.5 59.5t-87 -59t-24 -137t24 -137t87 -59t87.5 59z" />
    <glyph glyph-name="oacute" unicode="&#xf3;" horiz-adv-x="527" 
d="M145.5 22q-50.5 35 -77 97.5t-26.5 144.5t26.5 144.5t76.5 97t119 34.5t119 -34.5t76 -97t26 -144.5t-26.5 -144.5t-76 -97.5t-118.5 -35q-68 0 -118.5 35zM351.5 127q24.5 59 24.5 137q0 77 -24.5 136.5t-87.5 59.5t-87 -59t-24 -137t24 -137t87 -59t87.5 59zM288 741
h110l-99 -137h-72z" />
    <glyph glyph-name="obreve" unicode="&#x14f;" horiz-adv-x="527" 
d="M145.5 22q-50.5 35 -77 97.5t-26.5 144.5t26.5 144.5t76.5 97t119 34.5t119 -34.5t76 -97t26 -144.5t-26.5 -144.5t-76 -97.5t-118.5 -35q-68 0 -118.5 35zM351.5 127q24.5 59 24.5 137q0 77 -24.5 136.5t-87.5 59.5t-87 -59t-24 -137t24 -137t87 -59t87.5 59zM155 635
q-43 39 -50 106h70q6 -34 30 -55t59 -21q34 0 59 21t30 55h71q-8 -67 -51.5 -106t-108.5 -39q-66 0 -109 39z" />
    <glyph glyph-name="ocircumflex" unicode="&#xf4;" horiz-adv-x="527" 
d="M145.5 22q-50.5 35 -77 97.5t-26.5 144.5t26.5 144.5t76.5 97t119 34.5t119 -34.5t76 -97t26 -144.5t-26.5 -144.5t-76 -97.5t-118.5 -35q-68 0 -118.5 35zM351.5 127q24.5 59 24.5 137q0 77 -24.5 136.5t-87.5 59.5t-87 -59t-24 -137t24 -137t87 -59t87.5 59zM213 741
h104l96 -137h-79l-70 85l-67 -85h-81z" />
    <glyph glyph-name="uni1ED1" unicode="&#x1ed1;" horiz-adv-x="527" 
d="M145.5 22q-50.5 35 -77 97.5t-26.5 144.5t26.5 144.5t76.5 97t119 34.5t119 -34.5t76 -97t26 -144.5t-26.5 -144.5t-76 -97.5t-118.5 -35q-68 0 -118.5 35zM351.5 127q24.5 59 24.5 137q0 77 -24.5 136.5t-87.5 59.5t-87 -59t-24 -137t24 -137t87 -59t87.5 59zM296 840
h109l-105 -105h-72zM213 703h104l96 -99h-80l-69 56l-67 -56h-81z" />
    <glyph glyph-name="uni1ED9" unicode="&#x1ed9;" horiz-adv-x="527" 
d="M145.5 22q-50.5 35 -77 97.5t-26.5 144.5t26.5 144.5t76.5 97t119 34.5t119 -34.5t76 -97t26 -144.5t-26.5 -144.5t-76 -97.5t-118.5 -35q-68 0 -118.5 35zM351.5 127q24.5 59 24.5 137q0 77 -24.5 136.5t-87.5 59.5t-87 -59t-24 -137t24 -137t87 -59t87.5 59zM213 741
h104l96 -137h-79l-70 85l-67 -85h-81zM218.5 -168.5q-18.5 18.5 -18.5 44.5t18.5 45t44.5 19t44.5 -19t18.5 -45t-18.5 -44.5t-44.5 -18.5t-44.5 18.5z" />
    <glyph glyph-name="uni1ED3" unicode="&#x1ed3;" horiz-adv-x="527" 
d="M145.5 22q-50.5 35 -77 97.5t-26.5 144.5t26.5 144.5t76.5 97t119 34.5t119 -34.5t76 -97t26 -144.5t-26.5 -144.5t-76 -97.5t-118.5 -35q-68 0 -118.5 35zM351.5 127q24.5 59 24.5 137q0 77 -24.5 136.5t-87.5 59.5t-87 -59t-24 -137t24 -137t87 -59t87.5 59zM123 840
h110l67 -105h-72zM213 703h104l96 -99h-80l-69 56l-67 -56h-81z" />
    <glyph glyph-name="uni1ED5" unicode="&#x1ed5;" horiz-adv-x="527" 
d="M145.5 22q-50.5 35 -77 97.5t-26.5 144.5t26.5 144.5t76.5 97t119 34.5t119 -34.5t76 -97t26 -144.5t-26.5 -144.5t-76 -97.5t-118.5 -35q-68 0 -118.5 35zM351.5 127q24.5 59 24.5 137q0 77 -24.5 136.5t-87.5 59.5t-87 -59t-24 -137t24 -137t87 -59t87.5 59z
M389.5 737.5q9.5 12.5 9.5 23.5t-10 19t-30 8q-35 0 -69 -19l-13 56q40 20 95 20q51 0 78 -18.5t27 -51.5q0 -16 -12 -34t-36 -34h-73q24 18 33.5 30.5zM213 703h104l96 -99h-80l-69 56l-67 -56h-81z" />
    <glyph glyph-name="uni1ED7" unicode="&#x1ed7;" horiz-adv-x="527" 
d="M145.5 22q-50.5 35 -77 97.5t-26.5 144.5t26.5 144.5t76.5 97t119 34.5t119 -34.5t76 -97t26 -144.5t-26.5 -144.5t-76 -97.5t-118.5 -35q-68 0 -118.5 35zM351.5 127q24.5 59 24.5 137q0 77 -24.5 136.5t-87.5 59.5t-87 -59t-24 -137t24 -137t87 -59t87.5 59zM205 838
q15 0 30.5 -5.5t36.5 -15.5q34 -18 52 -18q27 0 54 42l38 -37q-41 -66 -95 -66q-25 0 -67 22q-14 7 -28 12.5t-24 5.5q-25 0 -54 -43l-37 37q40 66 94 66zM212 703h103l97 -99h-80l-69 56l-66 -56h-82z" />
    <glyph glyph-name="odieresis" unicode="&#xf6;" horiz-adv-x="527" 
d="M145.5 22q-50.5 35 -77 97.5t-26.5 144.5t26.5 144.5t76.5 97t119 34.5t119 -34.5t76 -97t26 -144.5t-26.5 -144.5t-76 -97.5t-118.5 -35q-68 0 -118.5 35zM351.5 127q24.5 59 24.5 137q0 77 -24.5 136.5t-87.5 59.5t-87 -59t-24 -137t24 -137t87 -59t87.5 59zM132 635.5
q-17 17.5 -17 42.5t17 42.5t42 17.5t42.5 -17.5t17.5 -42.5t-17.5 -42.5t-42.5 -17.5t-42 17.5zM310.5 635.5q-17.5 17.5 -17.5 42.5t17.5 42.5t42.5 17.5t42.5 -17.5t17.5 -42.5t-17.5 -42.5t-42.5 -17.5t-42.5 17.5z" />
    <glyph glyph-name="uni1ECD" unicode="&#x1ecd;" horiz-adv-x="527" 
d="M145.5 22q-50.5 35 -77 97.5t-26.5 144.5t26.5 144.5t76.5 97t119 34.5t119 -34.5t76 -97t26 -144.5t-26.5 -144.5t-76 -97.5t-118.5 -35q-68 0 -118.5 35zM351.5 127q24.5 59 24.5 137q0 77 -24.5 136.5t-87.5 59.5t-87 -59t-24 -137t24 -137t87 -59t87.5 59z
M218.5 -168.5q-18.5 18.5 -18.5 44.5t18.5 45t44.5 19t44.5 -19t18.5 -45t-18.5 -44.5t-44.5 -18.5t-44.5 18.5z" />
    <glyph glyph-name="ograve" unicode="&#xf2;" horiz-adv-x="527" 
d="M145.5 22q-50.5 35 -77 97.5t-26.5 144.5t26.5 144.5t76.5 97t119 34.5t119 -34.5t76 -97t26 -144.5t-26.5 -144.5t-76 -97.5t-118.5 -35q-68 0 -118.5 35zM351.5 127q24.5 59 24.5 137q0 77 -24.5 136.5t-87.5 59.5t-87 -59t-24 -137t24 -137t87 -59t87.5 59zM131 741
h109l62 -137h-73z" />
    <glyph glyph-name="uni1ECF" unicode="&#x1ecf;" horiz-adv-x="527" 
d="M145.5 22q-50.5 35 -77 97.5t-26.5 144.5t26.5 144.5t76.5 97t119 34.5t119 -34.5t76 -97t26 -144.5t-26.5 -144.5t-76 -97.5t-118.5 -35q-68 0 -118.5 35zM351.5 127q24.5 59 24.5 137q0 77 -24.5 136.5t-87.5 59.5t-87 -59t-24 -137t24 -137t87 -59t87.5 59zM264 638.5
q11 13.5 11 25.5q0 13 -10.5 21t-29.5 8q-35 0 -70 -19l-12 56q38 20 95 20q51 0 77.5 -18.5t26.5 -52.5q0 -39 -55 -75h-72q28 21 39 34.5z" />
    <glyph glyph-name="ohorn" unicode="&#x1a1;" horiz-adv-x="527" 
d="M479.5 507q-18.5 -30 -53.5 -42q29 -37 44 -88.5t15 -112.5q0 -82 -26.5 -144.5t-76 -97.5t-118.5 -35q-68 0 -118.5 35t-77 97.5t-26.5 144.5t26.5 144.5t76.5 97t119 34.5h1q22 0 62 -7q26 -4 35 -4q24 0 35.5 13t11.5 42q0 33 -11 73h88q7 -23 9.5 -41t2.5 -41
q0 -38 -18.5 -68zM351.5 127q24.5 59 24.5 137q0 77 -24.5 136.5t-87.5 59.5t-87 -59t-24 -137t24 -137t87 -59t87.5 59z" />
    <glyph glyph-name="uni1EDB" unicode="&#x1edb;" horiz-adv-x="527" 
d="M479.5 507q-18.5 -30 -53.5 -42q29 -37 44 -88.5t15 -112.5q0 -82 -26.5 -144.5t-76 -97.5t-118.5 -35q-68 0 -118.5 35t-77 97.5t-26.5 144.5t26.5 144.5t76.5 97t119 34.5h1q22 0 62 -7q26 -4 35 -4q24 0 35.5 13t11.5 42q0 33 -11 73h88q7 -23 9.5 -41t2.5 -41
q0 -38 -18.5 -68zM351.5 127q24.5 59 24.5 137q0 77 -24.5 136.5t-87.5 59.5t-87 -59t-24 -137t24 -137t87 -59t87.5 59zM288 741h110l-99 -137h-72z" />
    <glyph glyph-name="uni1EE3" unicode="&#x1ee3;" horiz-adv-x="527" 
d="M479.5 507q-18.5 -30 -53.5 -42q29 -37 44 -88.5t15 -112.5q0 -82 -26.5 -144.5t-76 -97.5t-118.5 -35q-68 0 -118.5 35t-77 97.5t-26.5 144.5t26.5 144.5t76.5 97t119 34.5h1q22 0 62 -7q26 -4 35 -4q24 0 35.5 13t11.5 42q0 33 -11 73h88q7 -23 9.5 -41t2.5 -41
q0 -38 -18.5 -68zM351.5 127q24.5 59 24.5 137q0 77 -24.5 136.5t-87.5 59.5t-87 -59t-24 -137t24 -137t87 -59t87.5 59zM218.5 -168.5q-18.5 18.5 -18.5 44.5t18.5 45t44.5 19t44.5 -19t18.5 -45t-18.5 -44.5t-44.5 -18.5t-44.5 18.5z" />
    <glyph glyph-name="uni1EDD" unicode="&#x1edd;" horiz-adv-x="527" 
d="M479.5 507q-18.5 -30 -53.5 -42q29 -37 44 -88.5t15 -112.5q0 -82 -26.5 -144.5t-76 -97.5t-118.5 -35q-68 0 -118.5 35t-77 97.5t-26.5 144.5t26.5 144.5t76.5 97t119 34.5h1q22 0 62 -7q26 -4 35 -4q24 0 35.5 13t11.5 42q0 33 -11 73h88q7 -23 9.5 -41t2.5 -41
q0 -38 -18.5 -68zM351.5 127q24.5 59 24.5 137q0 77 -24.5 136.5t-87.5 59.5t-87 -59t-24 -137t24 -137t87 -59t87.5 59zM131 741h109l62 -137h-73z" />
    <glyph glyph-name="uni1EDF" unicode="&#x1edf;" horiz-adv-x="527" 
d="M479.5 507q-18.5 -30 -53.5 -42q29 -37 44 -88.5t15 -112.5q0 -82 -26.5 -144.5t-76 -97.5t-118.5 -35q-68 0 -118.5 35t-77 97.5t-26.5 144.5t26.5 144.5t76.5 97t119 34.5h1q22 0 62 -7q26 -4 35 -4q24 0 35.5 13t11.5 42q0 33 -11 73h88q7 -23 9.5 -41t2.5 -41
q0 -38 -18.5 -68zM351.5 127q24.5 59 24.5 137q0 77 -24.5 136.5t-87.5 59.5t-87 -59t-24 -137t24 -137t87 -59t87.5 59zM264 638.5q11 13.5 11 25.5q0 13 -10.5 21t-29.5 8q-35 0 -70 -19l-12 56q38 20 95 20q51 0 77.5 -18.5t26.5 -52.5q0 -39 -55 -75h-72q28 21 39 34.5z
" />
    <glyph glyph-name="uni1EE1" unicode="&#x1ee1;" horiz-adv-x="527" 
d="M479.5 507q-18.5 -30 -53.5 -42q29 -37 44 -88.5t15 -112.5q0 -82 -26.5 -144.5t-76 -97.5t-118.5 -35q-68 0 -118.5 35t-77 97.5t-26.5 144.5t26.5 144.5t76.5 97t119 34.5h1q22 0 62 -7q26 -4 35 -4q24 0 35.5 13t11.5 42q0 33 -11 73h88q7 -23 9.5 -41t2.5 -41
q0 -38 -18.5 -68zM351.5 127q24.5 59 24.5 137q0 77 -24.5 136.5t-87.5 59.5t-87 -59t-24 -137t24 -137t87 -59t87.5 59zM150 731q24 21 55 21q15 0 30.5 -5.5t35.5 -16.5q18 -9 30.5 -14t23.5 -5q19 0 32 11.5t26 32.5l39 -38q-45 -77 -94 -77q-15 0 -30.5 6t-38.5 17
q-15 8 -30.5 14t-26.5 6q-19 0 -32 -12t-27 -34l-37 41q20 32 44 53z" />
    <glyph glyph-name="ohungarumlaut" unicode="&#x151;" horiz-adv-x="527" 
d="M145.5 22q-50.5 35 -77 97.5t-26.5 144.5t26.5 144.5t76.5 97t119 34.5t119 -34.5t76 -97t26 -144.5t-26.5 -144.5t-76 -97.5t-118.5 -35q-68 0 -118.5 35zM351.5 127q24.5 59 24.5 137q0 77 -24.5 136.5t-87.5 59.5t-87 -59t-24 -137t24 -137t87 -59t87.5 59zM219 741
h86l-89 -137h-59zM374 741h86l-88 -137h-60z" />
    <glyph glyph-name="omacron" unicode="&#x14d;" horiz-adv-x="527" 
d="M145.5 22q-50.5 35 -77 97.5t-26.5 144.5t26.5 144.5t76.5 97t119 34.5t119 -34.5t76 -97t26 -144.5t-26.5 -144.5t-76 -97.5t-118.5 -35q-68 0 -118.5 35zM351.5 127q24.5 59 24.5 137q0 77 -24.5 136.5t-87.5 59.5t-87 -59t-24 -137t24 -137t87 -59t87.5 59zM101 725
h326v-72h-326v72z" />
    <glyph glyph-name="oslash" unicode="&#xf8;" horiz-adv-x="527" 
d="M469.5 377.5q15.5 -51.5 15.5 -113.5q0 -82 -26.5 -144.5t-76 -97.5t-118.5 -35q-68 0 -117 34l-37 -59l-49 32l42 68q-61 75 -61 202q0 82 26.5 144.5t76.5 97t118 34.5q69 0 118 -34l37 59l50 -32l-43 -68q29 -36 44.5 -87.5zM176.5 401q-23.5 -59 -23.5 -137
q0 -30 2 -64q2 -35 1 -46l3 -2l175 280q-31 28 -71 28q-63 0 -86.5 -59zM351.5 127q24.5 59 24.5 137q0 42 -3 69q-1 16 -1 41l-3 2l-175 -280q29 -28 70 -28q63 0 87.5 59z" />
    <glyph glyph-name="otilde" unicode="&#xf5;" horiz-adv-x="527" 
d="M145.5 22q-50.5 35 -77 97.5t-26.5 144.5t26.5 144.5t76.5 97t119 34.5t119 -34.5t76 -97t26 -144.5t-26.5 -144.5t-76 -97.5t-118.5 -35q-68 0 -118.5 35zM351.5 127q24.5 59 24.5 137q0 77 -24.5 136.5t-87.5 59.5t-87 -59t-24 -137t24 -137t87 -59t87.5 59zM150 731
q24 21 55 21q15 0 30.5 -5.5t35.5 -16.5q18 -9 30.5 -14t23.5 -5q19 0 32 11.5t26 32.5l39 -38q-45 -77 -94 -77q-15 0 -30.5 6t-38.5 17q-15 8 -30.5 14t-26.5 6q-19 0 -32 -12t-27 -34l-37 41q20 32 44 53z" />
    <glyph glyph-name="oe" unicode="&#x153;" horiz-adv-x="847" 
d="M145.5 22q-50.5 35 -77 97.5t-26.5 144.5t26.5 144.5t76.5 97t119 34.5q55 0 97 -23t68 -67q26 44 69.5 67t100.5 23q99 0 153 -70t54 -209q0 -12 -1 -19h-325q-2 -79 32 -126t93 -47q39 0 72 25.5t53 63.5l66 -59q-33 -51 -83.5 -81.5t-118.5 -30.5q-56 0 -98 23t-67 67
q-55 -90 -165 -90q-68 0 -118.5 35zM351.5 127q24.5 59 24.5 137q0 77 -24.5 136.5t-87.5 59.5t-87 -59t-24 -137t24 -137t87 -59t87.5 59zM673.5 418q-25.5 42 -79.5 42q-53 0 -81 -44t-29 -102h214q1 62 -24.5 104z" />
    <glyph glyph-name="p" unicode="p" horiz-adv-x="561" 
d="M187 527v-52q35 32 64 48.5t68 16.5q45 0 90 -28t75 -88.5t30 -154.5q0 -102 -29.5 -165t-75 -90t-96.5 -27q-69 0 -126 59v-221h-107v702h107zM376.5 120.5q31.5 51.5 31.5 136.5q0 73 -28 130.5t-88 57.5q-56 0 -105 -68v-232q19 -32 45.5 -54t58.5 -22q54 0 85.5 51.5
z" />
    <glyph glyph-name="thorn" unicode="&#xfe;" horiz-adv-x="561" 
d="M187 779v-304q35 32 64 48.5t68 16.5q45 0 90 -28t75 -88.5t30 -154.5q0 -102 -29.5 -165t-75 -90t-96.5 -27q-69 0 -126 59v-221h-107v904zM376.5 120.5q31.5 51.5 31.5 136.5q0 73 -28 130.5t-88 57.5q-32 0 -57.5 -18.5t-47.5 -49.5v-232q19 -32 45.5 -54t58.5 -22
q54 0 85.5 51.5z" />
    <glyph glyph-name="q" unicode="q" horiz-adv-x="561" 
d="M311.5 1q-28.5 -14 -63.5 -14q-52 0 -97.5 27t-74.5 89.5t-29 164.5q0 94 30 155t75 89t90 28q44 0 74 -14.5t61 -45.5v47h104v-686l-107 -31v234q-34 -29 -62.5 -43zM329 93q25 17 45 42v255q-18 26 -43 41.5t-56 15.5q-64 0 -93 -55.5t-29 -133.5q0 -81 34 -131.5
t89 -50.5q28 0 53 17z" />
    <glyph glyph-name="r" unicode="r" horiz-adv-x="387" 
d="M187 527v-97q37 55 75 82t88 27q12 0 27 -2v-107q-15 3 -35 3q-42 0 -77 -25.5t-78 -83.5v-324h-107v527h107z" />
    <glyph glyph-name="racute" unicode="&#x155;" horiz-adv-x="387" 
d="M187 527v-97q37 55 75 82t88 27q12 0 27 -2v-107q-15 3 -35 3q-42 0 -77 -25.5t-78 -83.5v-324h-107v527h107zM249 741h110l-99 -137h-72z" />
    <glyph glyph-name="rcaron" unicode="&#x159;" horiz-adv-x="387" 
d="M187 527v-97q37 55 75 82t88 27q12 0 27 -2v-107q-15 3 -35 3q-42 0 -77 -25.5t-78 -83.5v-324h-107v527h107zM77 741h81l67 -85l70 85h79l-96 -137h-104z" />
    <glyph glyph-name="uni0157" unicode="&#x157;" horiz-adv-x="387" 
d="M187 527v-97q37 55 75 82t88 27q12 0 27 -2v-107q-15 3 -35 3q-42 0 -77 -25.5t-78 -83.5v-324h-107v527h107zM84 -58h110l-99 -137h-72z" />
    <glyph glyph-name="s" unicode="s" horiz-adv-x="459" 
d="M43 88l68 68q22 -37 54.5 -61t73.5 -24q34 0 59 18t25 52q0 24 -14.5 39t-36 24t-59.5 20q-52 15 -83.5 29.5t-54 44t-22.5 79.5q0 51 24.5 88t66 56t90.5 19q52 0 94.5 -21.5t71.5 -56.5l-55 -71q-23 28 -52 46.5t-62 18.5q-36 0 -57 -18t-21 -48q0 -34 27 -50.5
t83 -32.5q52 -16 83.5 -30.5t54 -44.5t22.5 -80q0 -78 -54 -121.5t-135 -43.5q-123 0 -191 101z" />
    <glyph glyph-name="sacute" unicode="&#x15b;" horiz-adv-x="459" 
d="M43 88l68 68q22 -37 54.5 -61t73.5 -24q34 0 59 18t25 52q0 24 -14.5 39t-36 24t-59.5 20q-52 15 -83.5 29.5t-54 44t-22.5 79.5q0 51 24.5 88t66 56t90.5 19q52 0 94.5 -21.5t71.5 -56.5l-55 -71q-23 28 -52 46.5t-62 18.5q-36 0 -57 -18t-21 -48q0 -34 27 -50.5
t83 -32.5q52 -16 83.5 -30.5t54 -44.5t22.5 -80q0 -78 -54 -121.5t-135 -43.5q-123 0 -191 101zM257 741h110l-99 -137h-72z" />
    <glyph glyph-name="scaron" unicode="&#x161;" horiz-adv-x="459" 
d="M43 88l68 68q22 -37 54.5 -61t73.5 -24q34 0 59 18t25 52q0 24 -14.5 39t-36 24t-59.5 20q-52 15 -83.5 29.5t-54 44t-22.5 79.5q0 51 24.5 88t66 56t90.5 19q52 0 94.5 -21.5t71.5 -56.5l-55 -71q-23 28 -52 46.5t-62 18.5q-36 0 -57 -18t-21 -48q0 -34 27 -50.5
t83 -32.5q52 -16 83.5 -30.5t54 -44.5t22.5 -80q0 -78 -54 -121.5t-135 -43.5q-123 0 -191 101zM85 741h81l67 -85l70 85h79l-96 -137h-104z" />
    <glyph glyph-name="scedilla" unicode="&#x15f;" horiz-adv-x="459" 
d="M380.5 41.5q-42.5 -42.5 -110.5 -52.5l-21 -36q41 -8 64 -26.5t23 -52.5q0 -42 -33.5 -66.5t-77.5 -24.5q-25 0 -50.5 5t-38.5 14l13 55q13 -7 32 -12.5t35 -5.5q22 0 34.5 8.5t12.5 24.5q0 22 -26 31t-78 10l46 75q-103 12 -162 100l68 68q22 -37 54.5 -61t73.5 -24
q34 0 59 18t25 52q0 24 -14.5 39t-36 24t-59.5 20q-52 15 -83.5 29.5t-54 44t-22.5 79.5q0 51 24.5 88t66 56t90.5 19q52 0 94.5 -21.5t71.5 -56.5l-55 -71q-23 28 -52 46.5t-62 18.5q-36 0 -57 -18t-21 -48q0 -34 27 -50.5t83 -32.5q52 -16 83.5 -30.5t54 -44.5t22.5 -80
q0 -68 -42.5 -110.5z" />
    <glyph glyph-name="scircumflex" unicode="&#x15d;" horiz-adv-x="459" 
d="M43 88l68 68q22 -37 54.5 -61t73.5 -24q34 0 59 18t25 52q0 24 -14.5 39t-36 24t-59.5 20q-52 15 -83.5 29.5t-54 44t-22.5 79.5q0 51 24.5 88t66 56t90.5 19q52 0 94.5 -21.5t71.5 -56.5l-55 -71q-23 28 -52 46.5t-62 18.5q-36 0 -57 -18t-21 -48q0 -34 27 -50.5
t83 -32.5q52 -16 83.5 -30.5t54 -44.5t22.5 -80q0 -78 -54 -121.5t-135 -43.5q-123 0 -191 101zM182 741h104l96 -137h-79l-70 85l-67 -85h-81z" />
    <glyph glyph-name="uni0219" unicode="&#x219;" horiz-adv-x="459" 
d="M43 88l68 68q22 -37 54.5 -61t73.5 -24q34 0 59 18t25 52q0 24 -14.5 39t-36 24t-59.5 20q-52 15 -83.5 29.5t-54 44t-22.5 79.5q0 51 24.5 88t66 56t90.5 19q52 0 94.5 -21.5t71.5 -56.5l-55 -71q-23 28 -52 46.5t-62 18.5q-36 0 -57 -18t-21 -48q0 -34 27 -50.5
t83 -32.5q52 -16 83.5 -30.5t54 -44.5t22.5 -80q0 -78 -54 -121.5t-135 -43.5q-123 0 -191 101zM187 -58h110l-99 -137h-72z" />
    <glyph glyph-name="germandbls" unicode="&#xdf;" horiz-adv-x="557" 
d="M264 -4v81q19 -6 35 -6q49 0 76.5 50.5t27.5 117.5q0 64 -28 108t-93 44l-17 -1v81h5q48 0 76 26t28 75q0 43 -23 70t-65 27q-49 0 -74 -33t-25 -94v-542h-107v539q0 79 29.5 128t75 70t96.5 21q94 0 145.5 -49t51.5 -129q0 -47 -21.5 -84t-63.5 -58q64 -23 92 -79.5
t28 -129.5t-25.5 -128t-69.5 -84t-99 -29q-32 0 -55 8z" />
    <glyph glyph-name="longs" unicode="&#x17f;" horiz-adv-x="286" 
d="M22 438v89h74v74q0 69 38.5 112t112.5 43q28 0 54.5 -6t46.5 -15l-29 -84q-32 13 -57 13q-58 0 -58 -70v-594h-108v438h-74z" />
    <glyph glyph-name="t" unicode="t" horiz-adv-x="343" 
d="M129 25q-33 38 -33 121v292h-72v89h72v132l107 56v-188h114v-89h-114v-302q0 -64 53 -64q29 0 61 20l1 -86q-43 -19 -87 -19q-69 0 -102 38z" />
    <glyph glyph-name="tbar" unicode="&#x167;" horiz-adv-x="344" 
d="M318 6q-43 -19 -86 -19q-70 0 -103 38t-33 121v89h-65v73h65v130h-71v89h71v132l108 56v-188h113v-89h-113v-130h106v-73h-106v-99q0 -64 52 -64q29 0 61 20z" />
    <glyph glyph-name="tcaron" unicode="&#x165;" horiz-adv-x="343" 
d="M129 25q-33 38 -33 121v292h-72v89h72v132l107 56v-188h114v-89h-114v-302q0 -64 53 -64q29 0 61 20l1 -86q-43 -19 -87 -19q-69 0 -102 38zM267 778h100l-32 -187h-77z" />
    <glyph glyph-name="uni0163" unicode="&#x163;" horiz-adv-x="343" 
d="M129 25q-33 38 -33 121v292h-72v89h72v132l107 56v-188h114v-89h-114v-302q0 -64 53 -64q29 0 61 20l1 -86q-43 -19 -87 -19q-69 0 -102 38zM146 -58h110l-99 -137h-72z" />
    <glyph glyph-name="uni021B" unicode="&#x21b;" horiz-adv-x="343" 
d="M129 25q-33 38 -33 121v292h-72v89h72v132l107 56v-188h114v-89h-114v-302q0 -64 53 -64q29 0 61 20l1 -86q-43 -19 -87 -19q-69 0 -102 38zM146 -58h110l-99 -137h-72z" />
    <glyph glyph-name="u" unicode="u" horiz-adv-x="556" 
d="M117 25.5q-40 38.5 -40 126.5v375h108v-349q0 -42 15 -73t54 -31q52 0 115 65v388h107v-527h-107v55q-37 -31 -75 -49.5t-81 -18.5q-56 0 -96 38.5z" />
    <glyph glyph-name="uacute" unicode="&#xfa;" horiz-adv-x="556" 
d="M117 25.5q-40 38.5 -40 126.5v375h108v-349q0 -42 15 -73t54 -31q52 0 115 65v388h107v-527h-107v55q-37 -31 -75 -49.5t-81 -18.5q-56 0 -96 38.5zM303 741h110l-99 -137h-72z" />
    <glyph glyph-name="ubreve" unicode="&#x16d;" horiz-adv-x="556" 
d="M117 25.5q-40 38.5 -40 126.5v375h108v-349q0 -42 15 -73t54 -31q52 0 115 65v388h107v-527h-107v55q-37 -31 -75 -49.5t-81 -18.5q-56 0 -96 38.5zM171 635q-43 39 -50 106h70q6 -34 30 -55t59 -21q34 0 59 21t30 55h71q-8 -67 -51.5 -106t-108.5 -39q-66 0 -109 39z
" />
    <glyph glyph-name="ucircumflex" unicode="&#xfb;" horiz-adv-x="556" 
d="M117 25.5q-40 38.5 -40 126.5v375h108v-349q0 -42 15 -73t54 -31q52 0 115 65v388h107v-527h-107v55q-37 -31 -75 -49.5t-81 -18.5q-56 0 -96 38.5zM228 741h104l96 -137h-79l-70 85l-67 -85h-81z" />
    <glyph glyph-name="udieresis" unicode="&#xfc;" horiz-adv-x="556" 
d="M117 25.5q-40 38.5 -40 126.5v375h108v-349q0 -42 15 -73t54 -31q52 0 115 65v388h107v-527h-107v55q-37 -31 -75 -49.5t-81 -18.5q-56 0 -96 38.5zM148 635.5q-17 17.5 -17 42.5t17 42.5t42 17.5t42.5 -17.5t17.5 -42.5t-17.5 -42.5t-42.5 -17.5t-42 17.5zM326.5 635.5
q-17.5 17.5 -17.5 42.5t17.5 42.5t42.5 17.5t42.5 -17.5t17.5 -42.5t-17.5 -42.5t-42.5 -17.5t-42.5 17.5z" />
    <glyph glyph-name="uni1EE5" unicode="&#x1ee5;" horiz-adv-x="556" 
d="M117 25.5q-40 38.5 -40 126.5v375h108v-349q0 -42 15 -73t54 -31q52 0 115 65v388h107v-527h-107v55q-37 -31 -75 -49.5t-81 -18.5q-56 0 -96 38.5zM229.5 -168.5q-18.5 18.5 -18.5 44.5t18.5 45t44.5 19t44.5 -19t18.5 -45t-18.5 -44.5t-44.5 -18.5t-44.5 18.5z" />
    <glyph glyph-name="ugrave" unicode="&#xf9;" horiz-adv-x="556" 
d="M117 25.5q-40 38.5 -40 126.5v375h108v-349q0 -42 15 -73t54 -31q52 0 115 65v388h107v-527h-107v55q-37 -31 -75 -49.5t-81 -18.5q-56 0 -96 38.5zM147 741h109l62 -137h-73z" />
    <glyph glyph-name="uni1EE7" unicode="&#x1ee7;" horiz-adv-x="556" 
d="M117 25.5q-40 38.5 -40 126.5v375h108v-349q0 -42 15 -73t54 -31q52 0 115 65v388h107v-527h-107v55q-37 -31 -75 -49.5t-81 -18.5q-56 0 -96 38.5zM280 638.5q11 13.5 11 25.5q0 13 -10.5 21t-29.5 8q-35 0 -70 -19l-12 56q38 20 95 20q51 0 77.5 -18.5t26.5 -52.5
q0 -39 -55 -75h-72q28 21 39 34.5z" />
    <glyph glyph-name="uhorn" unicode="&#x1b0;" horiz-adv-x="556" 
d="M539.5 500.5q-23.5 -29.5 -63.5 -40.5v-460h-107v55q-37 -31 -75 -49.5t-81 -18.5q-56 0 -96 38.5t-40 126.5v375h108v-349q0 -42 15 -73t54 -31q52 0 115 65v388h50q29 0 41.5 13.5t12.5 43.5q0 38 -11 73h89q7 -23 9.5 -41t2.5 -41q0 -45 -23.5 -74.5z" />
    <glyph glyph-name="uni1EE9" unicode="&#x1ee9;" horiz-adv-x="556" 
d="M539.5 500.5q-23.5 -29.5 -63.5 -40.5v-460h-107v55q-37 -31 -75 -49.5t-81 -18.5q-56 0 -96 38.5t-40 126.5v375h108v-349q0 -42 15 -73t54 -31q52 0 115 65v388h50q29 0 41.5 13.5t12.5 43.5q0 38 -11 73h89q7 -23 9.5 -41t2.5 -41q0 -45 -23.5 -74.5zM302 741h110
l-99 -137h-72z" />
    <glyph glyph-name="uni1EF1" unicode="&#x1ef1;" horiz-adv-x="556" 
d="M539.5 500.5q-23.5 -29.5 -63.5 -40.5v-460h-107v55q-37 -31 -75 -49.5t-81 -18.5q-56 0 -96 38.5t-40 126.5v375h108v-349q0 -42 15 -73t54 -31q52 0 115 65v388h50q29 0 41.5 13.5t12.5 43.5q0 38 -11 73h89q7 -23 9.5 -41t2.5 -41q0 -45 -23.5 -74.5zM233.5 -168.5
q-18.5 18.5 -18.5 44.5t18.5 45t44.5 19t44.5 -19t18.5 -45t-18.5 -44.5t-44.5 -18.5t-44.5 18.5z" />
    <glyph glyph-name="uni1EEB" unicode="&#x1eeb;" horiz-adv-x="556" 
d="M539.5 500.5q-23.5 -29.5 -63.5 -40.5v-460h-107v55q-37 -31 -75 -49.5t-81 -18.5q-56 0 -96 38.5t-40 126.5v375h108v-349q0 -42 15 -73t54 -31q52 0 115 65v388h50q29 0 41.5 13.5t12.5 43.5q0 38 -11 73h89q7 -23 9.5 -41t2.5 -41q0 -45 -23.5 -74.5zM145 741h109
l62 -137h-73z" />
    <glyph glyph-name="uni1EED" unicode="&#x1eed;" horiz-adv-x="556" 
d="M539.5 500.5q-23.5 -29.5 -63.5 -40.5v-460h-107v55q-37 -31 -75 -49.5t-81 -18.5q-56 0 -96 38.5t-40 126.5v375h108v-349q0 -42 15 -73t54 -31q52 0 115 65v388h50q29 0 41.5 13.5t12.5 43.5q0 38 -11 73h89q7 -23 9.5 -41t2.5 -41q0 -45 -23.5 -74.5zM279 638.5
q11 13.5 11 25.5q0 13 -10.5 21t-29.5 8q-35 0 -70 -19l-12 56q38 20 95 20q51 0 77.5 -18.5t26.5 -52.5q0 -39 -55 -75h-72q28 21 39 34.5z" />
    <glyph glyph-name="uni1EEF" unicode="&#x1eef;" horiz-adv-x="556" 
d="M539.5 500.5q-23.5 -29.5 -63.5 -40.5v-460h-107v55q-37 -31 -75 -49.5t-81 -18.5q-56 0 -96 38.5t-40 126.5v375h108v-349q0 -42 15 -73t54 -31q52 0 115 65v388h50q29 0 41.5 13.5t12.5 43.5q0 38 -11 73h89q7 -23 9.5 -41t2.5 -41q0 -45 -23.5 -74.5zM164 731
q24 21 55 21q15 0 30.5 -5.5t35.5 -16.5q18 -9 30.5 -14t23.5 -5q19 0 32 11.5t26 32.5l39 -38q-45 -77 -94 -77q-15 0 -30.5 6t-38.5 17q-15 8 -30.5 14t-26.5 6q-19 0 -32 -12t-27 -34l-37 41q20 32 44 53z" />
    <glyph glyph-name="uhungarumlaut" unicode="&#x171;" horiz-adv-x="556" 
d="M117 25.5q-40 38.5 -40 126.5v375h108v-349q0 -42 15 -73t54 -31q52 0 115 65v388h107v-527h-107v55q-37 -31 -75 -49.5t-81 -18.5q-56 0 -96 38.5zM235 741h86l-89 -137h-59zM390 741h86l-88 -137h-60z" />
    <glyph glyph-name="umacron" unicode="&#x16b;" horiz-adv-x="556" 
d="M117 25.5q-40 38.5 -40 126.5v375h108v-349q0 -42 15 -73t54 -31q52 0 115 65v388h107v-527h-107v55q-37 -31 -75 -49.5t-81 -18.5q-56 0 -96 38.5zM117 725h326v-72h-326v72z" />
    <glyph glyph-name="uogonek" unicode="&#x173;" horiz-adv-x="556" 
d="M476 527v-527h-17q-47 -20 -74 -46t-27 -53q0 -17 11.5 -26t28.5 -9q30 0 58 19v-57q-30 -20 -70 -20q-42 0 -69 21t-27 61q0 31 20 60t59 51v54q-37 -31 -75 -49.5t-81 -18.5q-56 0 -96 38.5t-40 126.5v375h108v-349q0 -42 15 -73t54 -31q52 0 115 65v388h107z" />
    <glyph glyph-name="uring" unicode="&#x16f;" horiz-adv-x="556" 
d="M117 25.5q-40 38.5 -40 126.5v375h108v-349q0 -42 15 -73t54 -31q52 0 115 65v388h107v-527h-107v55q-37 -31 -75 -49.5t-81 -18.5q-56 0 -96 38.5zM218.5 610.5q-25.5 25.5 -25.5 61.5q0 35 25.5 60.5t60.5 25.5q36 0 61.5 -25.5t25.5 -60.5q0 -36 -25.5 -61.5
t-61.5 -25.5q-35 0 -60.5 25.5zM308 643q12 12 12 29q0 16 -12 28t-29 12q-16 0 -28 -12t-12 -28q0 -17 11.5 -29t28.5 -12t29 12z" />
    <glyph glyph-name="utilde" unicode="&#x169;" horiz-adv-x="556" 
d="M117 25.5q-40 38.5 -40 126.5v375h108v-349q0 -42 15 -73t54 -31q52 0 115 65v388h107v-527h-107v55q-37 -31 -75 -49.5t-81 -18.5q-56 0 -96 38.5zM165 731q24 21 55 21q15 0 30.5 -5.5t35.5 -16.5q18 -9 30.5 -14t23.5 -5q19 0 32 11.5t26 32.5l39 -38q-45 -77 -94 -77
q-15 0 -30.5 6t-38.5 17q-15 8 -30.5 14t-26.5 6q-19 0 -32 -12t-27 -34l-37 41q20 32 44 53z" />
    <glyph glyph-name="v" unicode="v" horiz-adv-x="445" 
d="M0 527h113l112 -415h2l110 415h109l-161 -527h-120z" />
    <glyph glyph-name="w" unicode="w" horiz-adv-x="648" 
d="M3 527h99l83 -393h2l86 393h110l78 -393h2l88 393h94l-137 -527h-104l-80 392h-2l-84 -392h-104z" />
    <glyph glyph-name="wacute" unicode="&#x1e83;" horiz-adv-x="648" 
d="M3 527h99l83 -393h2l86 393h110l78 -393h2l88 393h94l-137 -527h-104l-80 392h-2l-84 -392h-104zM349 741h110l-99 -137h-72z" />
    <glyph glyph-name="wcircumflex" unicode="&#x175;" horiz-adv-x="648" 
d="M3 527h99l83 -393h2l86 393h110l78 -393h2l88 393h94l-137 -527h-104l-80 392h-2l-84 -392h-104zM274 741h104l96 -137h-79l-70 85l-67 -85h-81z" />
    <glyph glyph-name="wdieresis" unicode="&#x1e85;" horiz-adv-x="648" 
d="M3 527h99l83 -393h2l86 393h110l78 -393h2l88 393h94l-137 -527h-104l-80 392h-2l-84 -392h-104zM193 635.5q-17 17.5 -17 42.5t17 42.5t42 17.5t42.5 -17.5t17.5 -42.5t-17.5 -42.5t-42.5 -17.5t-42 17.5zM371.5 635.5q-17.5 17.5 -17.5 42.5t17.5 42.5t42.5 17.5
t42.5 -17.5t17.5 -42.5t-17.5 -42.5t-42.5 -17.5t-42.5 17.5z" />
    <glyph glyph-name="wgrave" unicode="&#x1e81;" horiz-adv-x="648" 
d="M3 527h99l83 -393h2l86 393h110l78 -393h2l88 393h94l-137 -527h-104l-80 392h-2l-84 -392h-104zM192 741h109l62 -137h-73z" />
    <glyph glyph-name="x" unicode="x" horiz-adv-x="486" 
d="M300 278l175 -278h-122l-116 196h-2l-109 -196h-115l168 271l-162 256h122l101 -173h2l100 173h116z" />
    <glyph glyph-name="y" unicode="y" horiz-adv-x="469" 
d="M20 -181l4 92q31 -11 52 -11q49 0 74 27.5t41 80.5l-188 519h115l126 -386h2l114 386h109l-195 -565q-18 -52 -38.5 -84.5t-54 -50.5t-86.5 -18q-35 0 -75 10z" />
    <glyph glyph-name="yacute" unicode="&#xfd;" horiz-adv-x="469" 
d="M20 -181l4 92q31 -11 52 -11q49 0 74 27.5t41 80.5l-188 519h115l126 -386h2l114 386h109l-195 -565q-18 -52 -38.5 -84.5t-54 -50.5t-86.5 -18q-35 0 -75 10zM272 741h110l-99 -137h-72z" />
    <glyph glyph-name="ycircumflex" unicode="&#x177;" horiz-adv-x="469" 
d="M20 -181l4 92q31 -11 52 -11q49 0 74 27.5t41 80.5l-188 519h115l126 -386h2l114 386h109l-195 -565q-18 -52 -38.5 -84.5t-54 -50.5t-86.5 -18q-35 0 -75 10zM197 741h104l96 -137h-79l-70 85l-67 -85h-81z" />
    <glyph glyph-name="ydieresis" unicode="&#xff;" horiz-adv-x="469" 
d="M20 -181l4 92q31 -11 52 -11q49 0 74 27.5t41 80.5l-188 519h115l126 -386h2l114 386h109l-195 -565q-18 -52 -38.5 -84.5t-54 -50.5t-86.5 -18q-35 0 -75 10zM117 635.5q-17 17.5 -17 42.5t17 42.5t42 17.5t42.5 -17.5t17.5 -42.5t-17.5 -42.5t-42.5 -17.5t-42 17.5z
M295.5 635.5q-17.5 17.5 -17.5 42.5t17.5 42.5t42.5 17.5t42.5 -17.5t17.5 -42.5t-17.5 -42.5t-42.5 -17.5t-42.5 17.5z" />
    <glyph glyph-name="uni1EF5" unicode="&#x1ef5;" horiz-adv-x="469" 
d="M20 -181l4 92q31 -11 52 -11q49 0 74 27.5t41 80.5l-188 519h115l126 -386h2l114 386h109l-195 -565q-18 -52 -38.5 -84.5t-54 -50.5t-86.5 -18q-35 0 -75 10zM321.5 -168.5q-18.5 18.5 -18.5 44.5t18.5 45t44.5 19t44.5 -19t18.5 -45t-18.5 -44.5t-44.5 -18.5
t-44.5 18.5z" />
    <glyph glyph-name="ygrave" unicode="&#x1ef3;" horiz-adv-x="469" 
d="M20 -181l4 92q31 -11 52 -11q49 0 74 27.5t41 80.5l-188 519h115l126 -386h2l114 386h109l-195 -565q-18 -52 -38.5 -84.5t-54 -50.5t-86.5 -18q-35 0 -75 10zM115 741h109l62 -137h-73z" />
    <glyph glyph-name="uni1EF7" unicode="&#x1ef7;" horiz-adv-x="469" 
d="M20 -181l4 92q31 -11 52 -11q49 0 74 27.5t41 80.5l-188 519h115l126 -386h2l114 386h109l-195 -565q-18 -52 -38.5 -84.5t-54 -50.5t-86.5 -18q-35 0 -75 10zM249 638.5q11 13.5 11 25.5q0 13 -10.5 21t-29.5 8q-35 0 -70 -19l-12 56q38 20 95 20q51 0 77.5 -18.5
t26.5 -52.5q0 -39 -55 -75h-72q28 21 39 34.5z" />
    <glyph glyph-name="uni1EF9" unicode="&#x1ef9;" horiz-adv-x="469" 
d="M20 -181l4 92q31 -11 52 -11q49 0 74 27.5t41 80.5l-188 519h115l126 -386h2l114 386h109l-195 -565q-18 -52 -38.5 -84.5t-54 -50.5t-86.5 -18q-35 0 -75 10zM134 731q24 21 55 21q15 0 30.5 -5.5t35.5 -16.5q18 -9 30.5 -14t23.5 -5q19 0 32 11.5t26 32.5l39 -38
q-45 -77 -94 -77q-15 0 -30.5 6t-38.5 17q-15 8 -30.5 14t-26.5 6q-19 0 -32 -12t-27 -34l-37 41q20 32 44 53z" />
    <glyph glyph-name="z" unicode="z" horiz-adv-x="451" 
d="M421 527v-73l-259 -368h259v-86h-391v72l257 370h-237v85h371z" />
    <glyph glyph-name="zacute" unicode="&#x17a;" horiz-adv-x="451" 
d="M421 527v-73l-259 -368h259v-86h-391v72l257 370h-237v85h371zM252 741h110l-99 -137h-72z" />
    <glyph glyph-name="zcaron" unicode="&#x17e;" horiz-adv-x="451" 
d="M421 527v-73l-259 -368h259v-86h-391v72l257 370h-237v85h371zM80 741h81l67 -85l70 85h79l-96 -137h-104z" />
    <glyph glyph-name="zdotaccent" unicode="&#x17c;" horiz-adv-x="451" 
d="M421 527v-73l-259 -368h259v-86h-391v72l257 370h-237v85h371zM183.5 633.5q-18.5 18.5 -18.5 44.5t18.5 44.5t44.5 18.5t44.5 -18.5t18.5 -44.5t-18.5 -44.5t-44.5 -18.5t-44.5 18.5z" />
    <glyph glyph-name="f.calt" horiz-adv-x="316" 
d="M22 438v89h74v74q0 69 38.5 112t112.5 43q28 0 54.5 -6t46.5 -15l-29 -84q-32 13 -57 13q-58 0 -58 -70v-67h100l-17 -89h-83v-438h-108v438h-74z" />
    <glyph glyph-name="t.calt" horiz-adv-x="343" 
d="M129 25q-33 38 -33 121v292h-72v89h72v132l107 56v-188h112v-89h-112v-302q0 -64 53 -64q29 0 61 20l1 -86q-43 -19 -87 -19q-69 0 -102 38z" />
    <glyph glyph-name="f.calt2" horiz-adv-x="316" 
d="M22 438v89h74v74q0 69 38 112t112 43q56 0 99 -20l-29 -84q-29 12 -55 12q-28 0 -42.5 -18t-14.5 -52v-67h118l-17 -89h-101v-438h-108v438h-74z" />
    <glyph glyph-name="i.locl" horiz-adv-x="267" 
d="M85.5 641q-20.5 20 -20.5 47t20 47t47 20q28 0 48 -19.5t20 -47.5q0 -27 -20 -47t-48 -20q-26 0 -46.5 20zM79 527h108v-527h-108v527z" />
    <glyph glyph-name="g.ss01" horiz-adv-x="561" 
d="M137 -158.5q-54 27.5 -78 83.5l83 57q11 -35 42.5 -56t74.5 -21q48 0 81.5 29.5t33.5 87.5v60q-37 -31 -64.5 -44t-64.5 -13q-82 0 -140 58t-58 198q0 143 59 201t139 58q44 0 75.5 -15.5t62.5 -44.5l8 47h90v-493q0 -59 -24 -109t-74 -80.5t-124 -30.5q-68 0 -122 27.5z
M326.5 129.5q24.5 15.5 47.5 43.5v217q-37 57 -100 57q-64 0 -92.5 -47t-28.5 -120q0 -80 33 -123t86 -43q30 0 54.5 15.5z" />
    <glyph glyph-name="gbreve.ss01" horiz-adv-x="561" 
d="M137 -158.5q-54 27.5 -78 83.5l83 57q11 -35 42.5 -56t74.5 -21q48 0 81.5 29.5t33.5 87.5v60q-37 -31 -64.5 -44t-64.5 -13q-82 0 -140 58t-58 198q0 143 59 201t139 58q44 0 75.5 -15.5t62.5 -44.5l8 47h90v-493q0 -59 -24 -109t-74 -80.5t-124 -30.5q-68 0 -122 27.5z
M326.5 129.5q24.5 15.5 47.5 43.5v217q-37 57 -100 57q-64 0 -92.5 -47t-28.5 -120q0 -80 33 -123t86 -43q30 0 54.5 15.5zM159 635q-43 39 -50 106h70q6 -34 30 -55t59 -21q34 0 59 21t30 55h71q-8 -67 -51.5 -106t-108.5 -39q-66 0 -109 39z" />
    <glyph glyph-name="gcircumflex.ss01" horiz-adv-x="561" 
d="M137 -158.5q-54 27.5 -78 83.5l83 57q11 -35 42.5 -56t74.5 -21q48 0 81.5 29.5t33.5 87.5v60q-37 -31 -64.5 -44t-64.5 -13q-82 0 -140 58t-58 198q0 143 59 201t139 58q44 0 75.5 -15.5t62.5 -44.5l8 47h90v-493q0 -59 -24 -109t-74 -80.5t-124 -30.5q-68 0 -122 27.5z
M326.5 129.5q24.5 15.5 47.5 43.5v217q-37 57 -100 57q-64 0 -92.5 -47t-28.5 -120q0 -80 33 -123t86 -43q30 0 54.5 15.5zM217 741h104l96 -137h-79l-70 85l-67 -85h-81z" />
    <glyph glyph-name="uni0123.ss01" horiz-adv-x="561" 
d="M137 -158.5q-54 27.5 -78 83.5l83 57q11 -35 42.5 -56t74.5 -21q48 0 81.5 29.5t33.5 87.5v60q-37 -31 -64.5 -44t-64.5 -13q-82 0 -140 58t-58 198q0 143 59 201t139 58q44 0 75.5 -15.5t62.5 -44.5l8 47h90v-493q0 -59 -24 -109t-74 -80.5t-124 -30.5q-68 0 -122 27.5z
M326.5 129.5q24.5 15.5 47.5 43.5v217q-37 57 -100 57q-64 0 -92.5 -47t-28.5 -120q0 -80 33 -123t86 -43q30 0 54.5 15.5zM308 741h73l-62 -137h-109z" />
    <glyph glyph-name="gdotaccent.ss01" horiz-adv-x="561" 
d="M137 -158.5q-54 27.5 -78 83.5l83 57q11 -35 42.5 -56t74.5 -21q48 0 81.5 29.5t33.5 87.5v60q-37 -31 -64.5 -44t-64.5 -13q-82 0 -140 58t-58 198q0 143 59 201t139 58q44 0 75.5 -15.5t62.5 -44.5l8 47h90v-493q0 -59 -24 -109t-74 -80.5t-124 -30.5q-68 0 -122 27.5z
M326.5 129.5q24.5 15.5 47.5 43.5v217q-37 57 -100 57q-64 0 -92.5 -47t-28.5 -120q0 -80 33 -123t86 -43q30 0 54.5 15.5zM223.5 633.5q-18.5 18.5 -18.5 44.5t18.5 44.5t44.5 18.5t44.5 -18.5t18.5 -44.5t-18.5 -44.5t-44.5 -18.5t-44.5 18.5z" />
    <glyph glyph-name="T_h" horiz-adv-x="955" 
d="M837 502q40 -38 40 -126v-376h-107v349q0 44 -15.5 74t-53.5 30q-30 0 -58 -17.5t-57 -44.5v-391h-108v646h-161v-646h-114v646h-194v95h495l82 38v-306q78 67 154 67q57 0 97 -38z" />
    <glyph glyph-name="ordfeminine" unicode="&#xaa;" horiz-adv-x="363" 
d="M69.5 442q-29.5 27 -29.5 72q0 52 37 77t120 38q19 2 25.5 8t6.5 21q0 19 -11.5 30.5t-31.5 11.5q-25 0 -45 -12t-38 -35l-37 44q48 57 128 57q106 0 106 -101v-229h-70v31q-44 -40 -87 -40q-44 0 -73.5 27zM228 514v69l-50 -8q-32 -5 -49.5 -19t-17.5 -42
q0 -21 11.5 -33t32.5 -12q39 0 73 45z" />
    <glyph glyph-name="ordmasculine" unicode="&#xba;" horiz-adv-x="362" 
d="M79.5 461.5q-37.5 46.5 -37.5 123.5q0 76 37.5 122.5t101.5 46.5q65 0 102.5 -46.5t37.5 -122.5q0 -77 -37.5 -123.5t-102.5 -46.5q-64 0 -101.5 46.5zM232 503q14 35 14 82t-14 82t-51 35q-36 0 -50.5 -35t-14.5 -82t14.5 -82t50.5 -35q37 0 51 35z" />
    <glyph glyph-name="pi" unicode="&#x3c0;" horiz-adv-x="627" 
d="M424.5 26q-36.5 39 -36.5 120v292h-187v-438h-107v438h-71v89h586v-89h-114v-302q0 -30 13 -47t41 -17t60 24l1 -88q-52 -21 -87 -21q-62 0 -98.5 39z" />
    <glyph glyph-name="zero" unicode="0" 
d="M159.5 33.5q-57.5 46.5 -88.5 132t-31 200.5q0 176 64.5 282t191.5 106q128 0 192 -106t64 -282q0 -115 -31 -200.5t-88.5 -132t-136.5 -46.5t-136.5 46.5zM412.5 165.5q28.5 85.5 28.5 200.5q0 119 -28 207t-117 88q-88 0 -116 -88t-28 -207q0 -115 28.5 -200.5
t115.5 -85.5q88 0 116.5 85.5z" />
    <glyph glyph-name="one" unicode="1" 
d="M249 90v506q-44 -49 -133 -74l-25 82q59 16 109 50.5t79 86.5h83v-651h119v-90h-351v90h119z" />
    <glyph glyph-name="two" unicode="2" 
d="M147.5 220.5q48.5 53.5 122.5 119.5q51 45 79 73.5t46.5 62t18.5 70.5q0 49 -30.5 83t-78.5 34q-40 0 -70 -23t-44 -61t-10 -82l-102 43q-2 62 27.5 111t82.5 76t117 27q72 0 123 -28t76.5 -75.5t25.5 -106.5q0 -55 -23.5 -100.5t-58 -80t-94.5 -85.5q-64 -53 -103.5 -93
t-64.5 -90h342v-95h-463v96q33 71 81.5 124.5z" />
    <glyph glyph-name="three" unicode="3" 
d="M135.5 32q-67.5 47 -88.5 130l102 45q11 -59 49.5 -95.5t93.5 -36.5q56 0 92.5 36.5t36.5 91.5q0 144 -166 144q-23 0 -47 -3v89q30 -5 55 -5q66 0 105 32.5t39 91.5q0 51 -31.5 81t-83.5 30q-46 0 -80 -32t-42 -78l-95 50q24 68 86 109.5t141 41.5q58 0 107 -24.5
t78.5 -69t29.5 -101.5q0 -61 -29 -100.5t-91 -66.5q65 -21 101 -68t36 -111q0 -68 -33 -120t-89 -80t-122 -28q-87 0 -154.5 47z" />
    <glyph glyph-name="four" unicode="4" 
d="M339 176h-297v87l272 478h138v-474h101v-91h-101v-176h-113v176zM339 267v338h-2l-185 -338h187z" />
    <glyph glyph-name="five" unicode="5" 
d="M143 27q-61 42 -83 120l98 52q11 -57 46 -90.5t84 -33.5q64 0 99.5 50t35.5 120q0 72 -35.5 118.5t-93.5 46.5q-41 0 -73.5 -23.5t-47.5 -60.5l-96 23l16 392h382v-96h-289l-12 -208q64 68 148 68q67 0 116 -35t75 -92t26 -123q0 -75 -32.5 -136.5t-91 -97.5t-131.5 -36
q-80 0 -141 42z" />
    <glyph glyph-name="six" unicode="6" 
d="M183.5 23q-58.5 38 -95 119.5t-36.5 206.5q0 132 37.5 223.5t101.5 136.5t142 45q57 0 102 -20t74 -61l-65 -81q-40 67 -109 67q-44 0 -81 -30.5t-59 -88t-24 -135.5q40 36 78.5 55.5t79.5 19.5q51 0 100.5 -26t82 -79t32.5 -131q0 -86 -36.5 -144.5t-90.5 -86.5
t-106 -28q-69 0 -127.5 38zM395.5 122.5q35.5 42.5 35.5 117.5q0 57 -30.5 100.5t-84.5 43.5q-45 0 -80.5 -24.5t-65.5 -66.5q1 -62 18.5 -110.5t48 -75.5t68.5 -27q55 0 90.5 42.5z" />
    <glyph glyph-name="seven" unicode="7" 
d="M219.5 316.5q70.5 166.5 189.5 328.5h-326v96h451v-66q-114 -169 -189 -349t-85 -326h-128q17 150 87.5 316.5z" />
    <glyph glyph-name="eight" unicode="8" 
d="M506 309q39 -45 39 -117q0 -56 -30.5 -103t-88 -75.5t-132.5 -28.5q-73 0 -129.5 27.5t-87 73.5t-30.5 99q0 72 39 118t109 83q-58 33 -91 74.5t-33 105.5q0 55 30.5 98t82.5 66.5t114 23.5q61 0 112 -22.5t81 -64t30 -95.5q0 -64 -33 -106t-91 -75q70 -37 109 -82z
M210.5 494.5q30.5 -29.5 88.5 -57.5q56 29 85 58t29 72q0 42 -32.5 67.5t-83.5 25.5q-48 0 -82.5 -25.5t-34.5 -67.5q0 -43 30.5 -72.5zM397 108q38 30 38 86q0 50 -36 81.5t-106 63.5q-66 -32 -100.5 -63.5t-34.5 -81.5q0 -54 39.5 -85t98.5 -31q63 0 101 30z" />
    <glyph glyph-name="nine" unicode="9" 
d="M152 11q-48 26 -85 71l80 65q20 -29 48.5 -48t62.5 -19q44 0 80.5 31t58.5 89t24 136q-82 -75 -158 -75q-48 0 -97.5 25t-83.5 78t-34 132q0 86 37 144t91 86t105 28q69 0 127.5 -37.5t95 -119t36.5 -205.5q0 -133 -37.5 -224.5t-101 -137t-142.5 -45.5q-59 0 -107 26z
M422 448q0 62 -18 110t-48.5 74.5t-68.5 26.5q-56 0 -91 -42.5t-35 -117.5q0 -58 29.5 -100t84.5 -42q81 0 147 91z" />
    <glyph glyph-name="zero.lf" 
d="M159.5 33.5q-57.5 46.5 -88.5 132t-31 200.5q0 176 64.5 282t191.5 106q128 0 192 -106t64 -282q0 -115 -31 -200.5t-88.5 -132t-136.5 -46.5t-136.5 46.5zM412.5 165.5q28.5 85.5 28.5 200.5q0 119 -28 207t-117 88q-88 0 -116 -88t-28 -207q0 -115 28.5 -200.5
t115.5 -85.5q88 0 116.5 85.5z" />
    <glyph glyph-name="one.lf" horiz-adv-x="422" 
d="M50 522l-24 82q59 17 108.5 51t77.5 86h84v-741h-113v597q-48 -51 -133 -75z" />
    <glyph glyph-name="two.lf" 
d="M147.5 220.5q48.5 53.5 122.5 119.5q51 45 79 73.5t46.5 62t18.5 70.5q0 49 -30.5 83t-78.5 34q-40 0 -70 -23t-44 -61t-10 -82l-102 43q-2 62 27.5 111t82.5 76t117 27q72 0 123 -28t76.5 -75.5t25.5 -106.5q0 -55 -23.5 -100.5t-58 -80t-94.5 -85.5q-64 -53 -103.5 -93
t-64.5 -90h342v-95h-463v96q33 71 81.5 124.5z" />
    <glyph glyph-name="three.lf" 
d="M135.5 32q-67.5 47 -88.5 130l102 45q11 -59 49.5 -95.5t93.5 -36.5q56 0 92.5 36.5t36.5 91.5q0 144 -166 144q-23 0 -47 -3v89q30 -5 55 -5q66 0 105 32.5t39 91.5q0 51 -31.5 81t-83.5 30q-46 0 -80 -32t-42 -78l-95 50q24 68 86 109.5t141 41.5q58 0 107 -24.5
t78.5 -69t29.5 -101.5q0 -61 -29 -100.5t-91 -66.5q65 -21 101 -68t36 -111q0 -68 -33 -120t-89 -80t-122 -28q-87 0 -154.5 47z" />
    <glyph glyph-name="four.lf" 
d="M339 176h-297v87l272 478h138v-474h101v-91h-101v-176h-113v176zM339 267v338h-2l-185 -338h187z" />
    <glyph glyph-name="five.lf" 
d="M143 27q-61 42 -83 120l98 52q11 -57 46 -90.5t84 -33.5q64 0 99.5 50t35.5 120q0 72 -35.5 118.5t-93.5 46.5q-41 0 -73.5 -23.5t-47.5 -60.5l-96 23l16 392h382v-96h-289l-12 -208q64 68 148 68q67 0 116 -35t75 -92t26 -123q0 -75 -32.5 -136.5t-91 -97.5t-131.5 -36
q-80 0 -141 42z" />
    <glyph glyph-name="six.lf" 
d="M183.5 23q-58.5 38 -95 119.5t-36.5 206.5q0 132 37.5 223.5t101.5 136.5t142 45q57 0 102 -20t74 -61l-65 -81q-40 67 -109 67q-44 0 -81 -30.5t-59 -88t-24 -135.5q40 36 78.5 55.5t79.5 19.5q51 0 100.5 -26t82 -79t32.5 -131q0 -86 -36.5 -144.5t-90.5 -86.5
t-106 -28q-69 0 -127.5 38zM395.5 122.5q35.5 42.5 35.5 117.5q0 57 -30.5 100.5t-84.5 43.5q-45 0 -80.5 -24.5t-65.5 -66.5q1 -62 18.5 -110.5t48 -75.5t68.5 -27q55 0 90.5 42.5z" />
    <glyph glyph-name="seven.lf" 
d="M219.5 316.5q70.5 166.5 189.5 328.5h-326v96h451v-66q-114 -169 -189 -349t-85 -326h-128q17 150 87.5 316.5z" />
    <glyph glyph-name="eight.lf" 
d="M506 309q39 -45 39 -117q0 -56 -30.5 -103t-88 -75.5t-132.5 -28.5q-73 0 -129.5 27.5t-87 73.5t-30.5 99q0 72 39 118t109 83q-58 33 -91 74.5t-33 105.5q0 55 30.5 98t82.5 66.5t114 23.5q61 0 112 -22.5t81 -64t30 -95.5q0 -64 -33 -106t-91 -75q70 -37 109 -82z
M210.5 494.5q30.5 -29.5 88.5 -57.5q56 29 85 58t29 72q0 42 -32.5 67.5t-83.5 25.5q-48 0 -82.5 -25.5t-34.5 -67.5q0 -43 30.5 -72.5zM397 108q38 30 38 86q0 50 -36 81.5t-106 63.5q-66 -32 -100.5 -63.5t-34.5 -81.5q0 -54 39.5 -85t98.5 -31q63 0 101 30z" />
    <glyph glyph-name="nine.lf" 
d="M152 11q-48 26 -85 71l80 65q20 -29 48.5 -48t62.5 -19q44 0 80.5 31t58.5 89t24 136q-82 -75 -158 -75q-48 0 -97.5 25t-83.5 78t-34 132q0 86 37 144t91 86t105 28q69 0 127.5 -37.5t95 -119t36.5 -205.5q0 -133 -37.5 -224.5t-101 -137t-142.5 -45.5q-59 0 -107 26z
M422 448q0 62 -18 110t-48.5 74.5t-68.5 26.5q-56 0 -91 -42.5t-35 -117.5q0 -58 29.5 -100t84.5 -42q81 0 147 91z" />
    <glyph glyph-name="zero.osf" horiz-adv-x="542" 
d="M149.5 21q-52.5 34 -81 98t-28.5 152q0 89 28.5 153.5t80.5 98t122 33.5t122 -33.5t80.5 -98t28.5 -153.5q0 -88 -28.5 -152t-80.5 -98t-122 -34q-69 0 -121.5 34zM363 127.5q28 59.5 28 143.5q0 85 -28 144.5t-92 59.5t-92 -59.5t-28 -144.5q0 -84 28 -143.5t92 -59.5
t92 59.5z" />
    <glyph glyph-name="one.osf" horiz-adv-x="462" 
d="M210 87v315q-18 -19 -50 -37t-66 -31l-22 83q125 47 169 127h77v-457h112v-87h-342v87h122z" />
    <glyph glyph-name="two.osf" horiz-adv-x="532" 
d="M137 176q41 34 103 73q43 27 67.5 45.5t40.5 43t16 55.5q0 40 -24.5 63t-64.5 23q-50 0 -78.5 -37t-22.5 -93l-98 44q-2 49 23.5 87t73 59.5t108.5 21.5q89 0 139 -45t50 -123q0 -50 -20 -85.5t-50 -58t-81 -53.5q-52 -32 -81.5 -54t-51.5 -53h283v-89h-403v92
q30 50 71 84z" />
    <glyph glyph-name="three.osf" horiz-adv-x="570" 
d="M130 -156q-62 43 -83 126l98 43q12 -59 46.5 -92.5t90.5 -33.5q55 0 88.5 35.5t33.5 92.5q0 75 -39.5 108t-113.5 33q-24 0 -47 -4v90q19 -4 54 -4q63 0 97 31.5t34 89.5q0 53 -27 83t-77 30q-46 0 -78 -30t-40 -76l-92 49q24 69 81.5 106t137.5 37q57 0 103 -22.5
t72.5 -64.5t26.5 -99q0 -62 -28.5 -103t-88.5 -67q64 -22 98.5 -68t34.5 -110q0 -69 -30 -119.5t-83 -77t-120 -26.5q-87 0 -149 43z" />
    <glyph glyph-name="four.osf" horiz-adv-x="577" 
d="M340 0h-298v87l274 458h129v-456h93v-89h-93v-193h-105v193zM340 89v328h-1l-192 -328h193z" />
    <glyph glyph-name="five.osf" horiz-adv-x="569" 
d="M138.5 -158.5q-56.5 40.5 -78.5 119.5l95 50q10 -57 42 -90.5t80 -33.5q64 0 97 50t33 121q0 73 -33 119t-91 46q-39 0 -68.5 -23t-46.5 -61l-92 23l17 383h366v-90h-279l-10 -208q35 36 68 52t73 16q67 0 113.5 -34t69.5 -90t23 -123q0 -75 -29.5 -136t-85 -96
t-128.5 -35q-79 0 -135.5 40.5z" />
    <glyph glyph-name="six.osf" 
d="M183.5 23q-58.5 38 -95 119.5t-36.5 206.5q0 132 37.5 223.5t101.5 136.5t142 45q57 0 102 -20t74 -61l-65 -81q-40 67 -109 67q-44 0 -81 -30.5t-59 -88t-24 -135.5q40 36 78.5 55.5t79.5 19.5q51 0 100.5 -26t82 -79t32.5 -131q0 -86 -36.5 -144.5t-90.5 -86.5
t-106 -28q-69 0 -127.5 38zM395.5 122.5q35.5 42.5 35.5 117.5q0 57 -30.5 100.5t-84.5 43.5q-45 0 -80.5 -24.5t-65.5 -66.5q1 -62 18.5 -110.5t48 -75.5t68.5 -27q55 0 90.5 42.5z" />
    <glyph glyph-name="seven.osf" horiz-adv-x="577" 
d="M225 120q75 174 173 329h-315v96h436v-66q-104 -169 -179.5 -349t-97.5 -326h-116q24 142 99 316z" />
    <glyph glyph-name="eight.osf" 
d="M506 309q39 -45 39 -117q0 -56 -30.5 -103t-88 -75.5t-132.5 -28.5q-73 0 -129.5 27.5t-87 73.5t-30.5 99q0 72 39 118t109 83q-58 33 -91 74.5t-33 105.5q0 55 30.5 98t82.5 66.5t114 23.5q61 0 112 -22.5t81 -64t30 -95.5q0 -64 -33 -106t-91 -75q70 -37 109 -82z
M210.5 494.5q30.5 -29.5 88.5 -57.5q56 29 85 58t29 72q0 42 -32.5 67.5t-83.5 25.5q-48 0 -82.5 -25.5t-34.5 -67.5q0 -43 30.5 -72.5zM397 108q38 30 38 86q0 50 -36 81.5t-106 63.5q-66 -32 -100.5 -63.5t-34.5 -81.5q0 -54 39.5 -85t98.5 -31q63 0 101 30z" />
    <glyph glyph-name="nine.osf" horiz-adv-x="572" 
d="M146.5 -186q-44.5 25 -80.5 70l76 62q45 -66 107 -66q70 0 112.5 68t45.5 196q-39 -39 -75 -59t-79 -20q-50 0 -97.5 26t-77.5 79t-30 130q0 81 34 139t86 88t106 30q68 0 123.5 -37t89.5 -119t34 -210q0 -130 -35.5 -220.5t-97 -136t-139.5 -45.5q-58 0 -102.5 25z
M345 182q34 25 64 68q0 81 -27 148.5t-101 67.5q-61 0 -93.5 -45.5t-32.5 -115.5q0 -62 28 -105t83 -43q45 0 79 25z" />
    <glyph glyph-name="zero.tosf" 
d="M174.5 21q-52.5 34 -81 98t-28.5 152q0 89 28.5 153.5t80.5 98t122 33.5t122 -33.5t80.5 -98t28.5 -153.5q0 -88 -28.5 -152t-80.5 -98t-122 -34q-69 0 -121.5 34zM388 127.5q28 59.5 28 143.5q0 85 -28 144.5t-92 59.5t-92 -59.5t-28 -144.5q0 -84 28 -143.5t92 -59.5
t92 59.5z" />
    <glyph glyph-name="one.tosf" 
d="M264 87v315q-18 -19 -50 -37t-66 -31l-22 83q125 47 169 127h77v-457h112v-87h-342v87h122z" />
    <glyph glyph-name="two.tosf" 
d="M165 176q41 34 103 73q43 27 67.5 45.5t40.5 43t16 55.5q0 40 -24.5 63t-64.5 23q-50 0 -78.5 -37t-22.5 -93l-98 44q-2 49 23.5 87t73 59.5t108.5 21.5q89 0 139 -45t50 -123q0 -50 -20 -85.5t-50 -58t-81 -53.5q-52 -32 -81.5 -54t-51.5 -53h283v-89h-403v92
q30 50 71 84z" />
    <glyph glyph-name="three.tosf" 
d="M123 -156q-62 43 -83 126l98 43q12 -59 46.5 -92.5t90.5 -33.5q55 0 88.5 35.5t33.5 92.5q0 75 -39.5 108t-113.5 33q-24 0 -47 -4v90q19 -4 54 -4q63 0 97 31.5t34 89.5q0 53 -27 83t-77 30q-46 0 -78 -30t-40 -76l-92 49q24 69 81.5 106t137.5 37q57 0 103 -22.5
t72.5 -64.5t26.5 -99q0 -62 -28.5 -103t-88.5 -67q64 -22 98.5 -68t34.5 -110q0 -69 -30 -119.5t-83 -77t-120 -26.5q-87 0 -149 43z" />
    <glyph glyph-name="four.tosf" 
d="M356 0h-298v87l274 458h129v-456h93v-89h-93v-193h-105v193zM356 89v328h-1l-192 -328h193z" />
    <glyph glyph-name="five.tosf" 
d="M152.5 -158.5q-56.5 40.5 -78.5 119.5l95 50q10 -57 42 -90.5t80 -33.5q64 0 97 50t33 121q0 73 -33 119t-91 46q-39 0 -68.5 -23t-46.5 -61l-92 23l17 383h366v-90h-279l-10 -208q35 36 68 52t73 16q67 0 113.5 -34t69.5 -90t23 -123q0 -75 -29.5 -136t-85 -96
t-128.5 -35q-79 0 -135.5 40.5z" />
    <glyph glyph-name="six.tosf" 
d="M186.5 23q-58.5 38 -95 119.5t-36.5 206.5q0 132 37.5 223.5t101.5 136.5t142 45q57 0 102 -20t74 -61l-65 -81q-40 67 -109 67q-44 0 -81 -30.5t-59 -88t-24 -135.5q40 36 78.5 55.5t79.5 19.5q51 0 100.5 -26t82 -79t32.5 -131q0 -86 -36.5 -144.5t-90.5 -86.5
t-106 -28q-69 0 -127.5 38zM398.5 122.5q35.5 42.5 35.5 117.5q0 57 -30.5 100.5t-84.5 43.5q-45 0 -80.5 -24.5t-65.5 -66.5q1 -62 18.5 -110.5t48 -75.5t68.5 -27q55 0 90.5 42.5z" />
    <glyph glyph-name="seven.tosf" 
d="M222 120q75 174 173 329h-315v96h436v-66q-104 -169 -179.5 -349t-97.5 -326h-116q24 142 99 316z" />
    <glyph glyph-name="eight.tosf" 
d="M504 309q39 -45 39 -117q0 -56 -30.5 -103t-88 -75.5t-132.5 -28.5q-73 0 -129.5 27.5t-87 73.5t-30.5 99q0 72 39 118t109 83q-58 33 -91 74.5t-33 105.5q0 55 30.5 98t82.5 66.5t114 23.5q61 0 112 -22.5t81 -64t30 -95.5q0 -64 -33 -106t-91 -75q70 -37 109 -82z
M208.5 494.5q30.5 -29.5 88.5 -57.5q56 29 85 58t29 72q0 42 -32.5 67.5t-83.5 25.5q-48 0 -82.5 -25.5t-34.5 -67.5q0 -43 30.5 -72.5zM395 108q38 30 38 86q0 50 -36 81.5t-106 63.5q-66 -32 -100.5 -63.5t-34.5 -81.5q0 -54 39.5 -85t98.5 -31q63 0 101 30z" />
    <glyph glyph-name="nine.tosf" 
d="M149.5 -186q-44.5 25 -80.5 70l76 62q45 -66 107 -66q70 0 112.5 68t45.5 196q-39 -39 -75 -59t-79 -20q-50 0 -97.5 26t-77.5 79t-30 130q0 81 34 139t86 88t106 30q68 0 123.5 -37t89.5 -119t34 -210q0 -130 -35.5 -220.5t-97 -136t-139.5 -45.5q-58 0 -102.5 25z
M348 182q34 25 64 68q0 81 -27 148.5t-101 67.5q-61 0 -93.5 -45.5t-32.5 -115.5q0 -62 28 -105t83 -43q45 0 79 25z" />
    <glyph glyph-name="uni2080" unicode="&#x2080;" horiz-adv-x="390" 
d="M69.5 -51q-46.5 62 -46.5 167q0 107 43.5 171t128.5 64q87 0 129.5 -63.5t42.5 -171.5q0 -106 -46 -167.5t-126 -61.5q-79 0 -125.5 62zM262.5 3.5q16.5 47.5 16.5 112.5q0 67 -16 117t-68 50q-83 0 -83 -167q0 -160 83 -160q51 0 67.5 47.5z" />
    <glyph glyph-name="uni2081" unicode="&#x2081;" horiz-adv-x="390" 
d="M155 -38v271q-29 -24 -83 -37l-18 62q42 12 73 31.5t49 51.5h68v-379h75v-67h-241v67h77z" />
    <glyph glyph-name="uni2082" unicode="&#x2082;" horiz-adv-x="390" 
d="M86.5 36q31.5 32 81.5 69q49 37 71 61t22 57q0 26 -16.5 43.5t-44.5 17.5q-34 0 -53.5 -30.5t-14.5 -71.5l-84 32q-1 61 43 99t110 38q72 0 111.5 -36.5t39.5 -92.5q0 -36 -17 -65.5t-41 -50.5t-64 -50q-39 -28 -60.5 -48t-30.5 -43h213v-70h-312v66q15 43 46.5 75z" />
    <glyph glyph-name="uni2083" unicode="&#x2083;" horiz-adv-x="390" 
d="M92.5 -83q-45.5 30 -59.5 83l77 33q7 -36 31.5 -57t56.5 -21t52.5 18t20.5 50q0 39 -26.5 57t-72.5 18q-10 0 -32 -2v67q24 -3 39 -3q39 0 61.5 17t22.5 47q0 28 -18.5 44t-48.5 16q-27 0 -48 -18t-28 -47l-71 35q16 44 59 70.5t96 26.5q60 0 103 -34t43 -89
q0 -64 -66 -95q77 -31 77 -106q0 -63 -47.5 -101.5t-117.5 -38.5q-58 0 -103.5 30z" />
    <glyph glyph-name="uni2084" unicode="&#x2084;" horiz-adv-x="390" 
d="M215 -1h-192v60l179 282h99v-275h64v-67h-64v-104h-86v104zM215 66v175h-1l-109 -175h110z" />
    <glyph glyph-name="uni2085" unicode="&#x2085;" horiz-adv-x="390" 
d="M88 -85q-42 28 -56 79l80 35q7 -35 26.5 -54.5t48.5 -19.5q37 0 57 26.5t20 65.5q0 38 -20.5 63t-53.5 25q-24 0 -43 -14.5t-28 -36.5l-75 17l11 240h259v-70h-185l-6 -94q17 14 39.5 21.5t45.5 7.5q45 0 78.5 -21.5t51 -56.5t17.5 -76q0 -46 -22 -83.5t-61 -59.5
t-89 -22q-53 0 -95 28z" />
    <glyph glyph-name="uni2086" unicode="&#x2086;" horiz-adv-x="390" 
d="M115.5 -90q-39.5 23 -64 72t-24.5 124q0 81 25 136t67.5 82t95.5 27q76 0 122 -55l-47 -56q-18 19 -35.5 29.5t-37.5 10.5q-37 0 -64 -31t-33 -91q44 33 92 33q34 0 67.5 -15.5t55.5 -48t22 -80.5q0 -53 -24.5 -89t-61 -53.5t-70.5 -17.5q-46 0 -85.5 23zM248 -20
q20 23 20 65q0 30 -17 53t-47 23q-48 0 -86 -47q1 -51 23.5 -84t54.5 -33t52 23z" />
    <glyph glyph-name="uni2087" unicode="&#x2087;" horiz-adv-x="390" 
d="M132.5 80q42.5 96 115.5 191h-200v70h305v-48q-73 -100 -121 -205t-54 -193h-99q11 89 53.5 185z" />
    <glyph glyph-name="uni2088" unicode="&#x2088;" horiz-adv-x="391" 
d="M340 89q23 -29 23 -75q0 -56 -45 -91.5t-125 -35.5t-122.5 35t-42.5 92q0 42 23 69t63 46q-34 19 -52.5 44t-18.5 62q0 53 44.5 84.5t110.5 31.5t108 -31.5t42 -84.5q0 -34 -18.5 -56.5t-52.5 -40.5q40 -20 63 -49zM149 196.5q19 -14.5 55 -28.5q28 13 42.5 28t14.5 37
q0 23 -19 36t-45 13q-27 0 -47 -12.5t-20 -36.5q0 -22 19 -36.5zM251 -27.5q24 16.5 24 44.5q0 27 -22.5 44.5t-65.5 34.5q-34 -15 -52.5 -33.5t-18.5 -45.5q0 -28 23.5 -44.5t55.5 -16.5t56 16.5z" />
    <glyph glyph-name="uni2089" unicode="&#x2089;" horiz-adv-x="390" 
d="M40 -48l60 50q14 -19 33 -32t39 -13q37 0 64.5 32.5t31.5 93.5q-47 -36 -92 -36q-33 0 -66.5 15.5t-56.5 48t-23 82.5q0 52 25 88t62 53t74 17q44 0 82.5 -23t62.5 -72.5t24 -124.5q0 -80 -25 -135t-67.5 -82t-94.5 -27q-78 0 -133 65zM269 163q-1 53 -23.5 85t-56.5 32
q-30 0 -51 -22t-21 -63q0 -31 17.5 -54.5t49.5 -23.5q50 0 85 46z" />
    <glyph glyph-name="zero.dnom" horiz-adv-x="390" 
d="M69.5 54q-46.5 62 -46.5 167q0 107 43.5 171t128.5 64q87 0 129.5 -63.5t42.5 -171.5q0 -106 -46 -167.5t-126 -61.5q-79 0 -125.5 62zM262.5 108.5q16.5 47.5 16.5 112.5q0 67 -16 117t-68 50q-83 0 -83 -167q0 -160 83 -160q51 0 67.5 47.5z" />
    <glyph glyph-name="one.dnom" horiz-adv-x="390" 
d="M155 67v271q-29 -24 -83 -37l-18 62q42 12 73 31.5t49 51.5h68v-379h75v-67h-241v67h77z" />
    <glyph glyph-name="two.dnom" horiz-adv-x="390" 
d="M86.5 141q31.5 32 81.5 69q49 37 71 61t22 57q0 26 -16.5 43.5t-44.5 17.5q-34 0 -53.5 -30.5t-14.5 -71.5l-84 32q-1 61 43 99t110 38q72 0 111.5 -36.5t39.5 -92.5q0 -36 -17 -65.5t-41 -50.5t-64 -50q-39 -28 -60.5 -48t-30.5 -43h213v-70h-312v66q15 43 46.5 75z" />
    <glyph glyph-name="three.dnom" horiz-adv-x="390" 
d="M92.5 22q-45.5 30 -59.5 83l77 33q7 -36 31.5 -57t56.5 -21t52.5 18t20.5 50q0 39 -26.5 57t-72.5 18q-10 0 -32 -2v67q24 -3 39 -3q39 0 61.5 17t22.5 47q0 28 -18.5 44t-48.5 16q-27 0 -48 -18t-28 -47l-71 35q16 44 59 70.5t96 26.5q60 0 103 -34t43 -89
q0 -64 -66 -95q77 -31 77 -106q0 -63 -47.5 -101.5t-117.5 -38.5q-58 0 -103.5 30z" />
    <glyph glyph-name="four.dnom" horiz-adv-x="390" 
d="M215 104h-192v60l179 282h99v-275h64v-67h-64v-104h-86v104zM215 171v175h-1l-109 -175h110z" />
    <glyph glyph-name="five.dnom" horiz-adv-x="390" 
d="M88 20q-42 28 -56 79l80 35q7 -35 26.5 -54.5t48.5 -19.5q37 0 57 26.5t20 65.5q0 38 -20.5 63t-53.5 25q-24 0 -43 -14.5t-28 -36.5l-75 17l11 240h259v-70h-185l-6 -94q17 14 39.5 21.5t45.5 7.5q45 0 78.5 -21.5t51 -56.5t17.5 -76q0 -46 -22 -83.5t-61 -59.5t-89 -22
q-53 0 -95 28z" />
    <glyph glyph-name="six.dnom" horiz-adv-x="390" 
d="M115.5 15q-39.5 23 -64 72t-24.5 124q0 81 25 136t67.5 82t95.5 27q76 0 122 -55l-47 -56q-18 19 -35.5 29.5t-37.5 10.5q-37 0 -64 -31t-33 -91q44 33 92 33q34 0 67.5 -15.5t55.5 -48t22 -80.5q0 -53 -24.5 -89t-61 -53.5t-70.5 -17.5q-46 0 -85.5 23zM248 85
q20 23 20 65q0 30 -17 53t-47 23q-48 0 -86 -47q1 -51 23.5 -84t54.5 -33t52 23z" />
    <glyph glyph-name="seven.dnom" horiz-adv-x="390" 
d="M132.5 185q42.5 96 115.5 191h-200v70h305v-48q-73 -100 -121 -205t-54 -193h-99q11 89 53.5 185z" />
    <glyph glyph-name="eight.dnom" horiz-adv-x="391" 
d="M340 194q23 -29 23 -75q0 -56 -45 -91.5t-125 -35.5t-122.5 35t-42.5 92q0 42 23 69t63 46q-34 19 -52.5 44t-18.5 62q0 53 44.5 84.5t110.5 31.5t108 -31.5t42 -84.5q0 -34 -18.5 -56.5t-52.5 -40.5q40 -20 63 -49zM149 301.5q19 -14.5 55 -28.5q28 13 42.5 28t14.5 37
q0 23 -19 36t-45 13q-27 0 -47 -12.5t-20 -36.5q0 -22 19 -36.5zM251 77.5q24 16.5 24 44.5q0 27 -22.5 44.5t-65.5 34.5q-34 -15 -52.5 -33.5t-18.5 -45.5q0 -28 23.5 -44.5t55.5 -16.5t56 16.5z" />
    <glyph glyph-name="nine.dnom" horiz-adv-x="390" 
d="M40 57l60 50q14 -19 33 -32t39 -13q37 0 64.5 32.5t31.5 93.5q-47 -36 -92 -36q-33 0 -66.5 15.5t-56.5 48t-23 82.5q0 52 25 88t62 53t74 17q44 0 82.5 -23t62.5 -72.5t24 -124.5q0 -80 -25 -135t-67.5 -82t-94.5 -27q-78 0 -133 65zM269 268q-1 53 -23.5 85t-56.5 32
q-30 0 -51 -22t-21 -63q0 -31 17.5 -54.5t49.5 -23.5q50 0 85 46z" />
    <glyph glyph-name="zero.numr" horiz-adv-x="390" 
d="M69.5 349q-46.5 62 -46.5 167q0 107 43.5 171t128.5 64q87 0 129.5 -63.5t42.5 -171.5q0 -106 -46 -167.5t-126 -61.5q-79 0 -125.5 62zM262.5 403.5q16.5 47.5 16.5 112.5q0 67 -16 117t-68 50q-83 0 -83 -167q0 -160 83 -160q51 0 67.5 47.5z" />
    <glyph glyph-name="one.numr" horiz-adv-x="390" 
d="M155 362v271q-29 -24 -83 -37l-18 62q42 12 73 31.5t49 51.5h68v-379h75v-67h-241v67h77z" />
    <glyph glyph-name="two.numr" horiz-adv-x="390" 
d="M86.5 436q31.5 32 81.5 69q49 37 71 61t22 57q0 26 -16.5 43.5t-44.5 17.5q-34 0 -53.5 -30.5t-14.5 -71.5l-84 32q-1 61 43 99t110 38q72 0 111.5 -36.5t39.5 -92.5q0 -36 -17 -65.5t-41 -50.5t-64 -50q-39 -28 -60.5 -48t-30.5 -43h213v-70h-312v66q15 43 46.5 75z" />
    <glyph glyph-name="three.numr" horiz-adv-x="390" 
d="M92.5 317q-45.5 30 -59.5 83l77 33q7 -36 31.5 -57t56.5 -21t52.5 18t20.5 50q0 39 -26.5 57t-72.5 18q-10 0 -32 -2v67q24 -3 39 -3q39 0 61.5 17t22.5 47q0 28 -18.5 44t-48.5 16q-27 0 -48 -18t-28 -47l-71 35q16 44 59 70.5t96 26.5q60 0 103 -34t43 -89
q0 -64 -66 -95q77 -31 77 -106q0 -63 -47.5 -101.5t-117.5 -38.5q-58 0 -103.5 30z" />
    <glyph glyph-name="four.numr" horiz-adv-x="390" 
d="M215 399h-192v60l179 282h99v-275h64v-67h-64v-104h-86v104zM215 466v175h-1l-109 -175h110z" />
    <glyph glyph-name="five.numr" horiz-adv-x="390" 
d="M88 315q-42 28 -56 79l80 35q7 -35 26.5 -54.5t48.5 -19.5q37 0 57 26.5t20 65.5q0 38 -20.5 63t-53.5 25q-24 0 -43 -14.5t-28 -36.5l-75 17l11 240h259v-70h-185l-6 -94q17 14 39.5 21.5t45.5 7.5q45 0 78.5 -21.5t51 -56.5t17.5 -76q0 -46 -22 -83.5t-61 -59.5
t-89 -22q-53 0 -95 28z" />
    <glyph glyph-name="six.numr" horiz-adv-x="390" 
d="M115.5 310q-39.5 23 -64 72t-24.5 124q0 81 25 136t67.5 82t95.5 27q76 0 122 -55l-47 -56q-18 19 -35.5 29.5t-37.5 10.5q-37 0 -64 -31t-33 -91q44 33 92 33q34 0 67.5 -15.5t55.5 -48t22 -80.5q0 -53 -24.5 -89t-61 -53.5t-70.5 -17.5q-46 0 -85.5 23zM248 380
q20 23 20 65q0 30 -17 53t-47 23q-48 0 -86 -47q1 -51 23.5 -84t54.5 -33t52 23z" />
    <glyph glyph-name="seven.numr" horiz-adv-x="390" 
d="M132.5 480q42.5 96 115.5 191h-200v70h305v-48q-73 -100 -121 -205t-54 -193h-99q11 89 53.5 185z" />
    <glyph glyph-name="eight.numr" horiz-adv-x="391" 
d="M340 489q23 -29 23 -75q0 -56 -45 -91.5t-125 -35.5t-122.5 35t-42.5 92q0 42 23 69t63 46q-34 19 -52.5 44t-18.5 62q0 53 44.5 84.5t110.5 31.5t108 -31.5t42 -84.5q0 -34 -18.5 -56.5t-52.5 -40.5q40 -20 63 -49zM149 596.5q19 -14.5 55 -28.5q28 13 42.5 28t14.5 37
q0 23 -19 36t-45 13q-27 0 -47 -12.5t-20 -36.5q0 -22 19 -36.5zM251 372.5q24 16.5 24 44.5q0 27 -22.5 44.5t-65.5 34.5q-34 -15 -52.5 -33.5t-18.5 -45.5q0 -28 23.5 -44.5t55.5 -16.5t56 16.5z" />
    <glyph glyph-name="nine.numr" horiz-adv-x="390" 
d="M40 352l60 50q14 -19 33 -32t39 -13q37 0 64.5 32.5t31.5 93.5q-47 -36 -92 -36q-33 0 -66.5 15.5t-56.5 48t-23 82.5q0 52 25 88t62 53t74 17q44 0 82.5 -23t62.5 -72.5t24 -124.5q0 -80 -25 -135t-67.5 -82t-94.5 -27q-78 0 -133 65zM269 563q-1 53 -23.5 85t-56.5 32
q-30 0 -51 -22t-21 -63q0 -31 17.5 -54.5t49.5 -23.5q50 0 85 46z" />
    <glyph glyph-name="uni2070" unicode="&#x2070;" horiz-adv-x="390" 
d="M69.5 454q-46.5 62 -46.5 167q0 107 43.5 171t128.5 64q87 0 129.5 -63.5t42.5 -171.5q0 -106 -46 -167.5t-126 -61.5q-79 0 -125.5 62zM262.5 508.5q16.5 47.5 16.5 112.5q0 67 -16 117t-68 50q-83 0 -83 -167q0 -160 83 -160q51 0 67.5 47.5z" />
    <glyph glyph-name="uni00B9" unicode="&#xb9;" horiz-adv-x="390" 
d="M155 467v271q-29 -24 -83 -37l-18 62q42 12 73 31.5t49 51.5h68v-379h75v-67h-241v67h77z" />
    <glyph glyph-name="uni00B2" unicode="&#xb2;" horiz-adv-x="390" 
d="M86.5 541q31.5 32 81.5 69q49 37 71 61t22 57q0 26 -16.5 43.5t-44.5 17.5q-34 0 -53.5 -30.5t-14.5 -71.5l-84 32q-1 61 43 99t110 38q72 0 111.5 -36.5t39.5 -92.5q0 -36 -17 -65.5t-41 -50.5t-64 -50q-39 -28 -60.5 -48t-30.5 -43h213v-70h-312v66q15 43 46.5 75z" />
    <glyph glyph-name="uni00B3" unicode="&#xb3;" horiz-adv-x="390" 
d="M92.5 422q-45.5 30 -59.5 83l77 33q7 -36 31.5 -57t56.5 -21t52.5 18t20.5 50q0 39 -26.5 57t-72.5 18q-10 0 -32 -2v67q24 -3 39 -3q39 0 61.5 17t22.5 47q0 28 -18.5 44t-48.5 16q-27 0 -48 -18t-28 -47l-71 35q16 44 59 70.5t96 26.5q60 0 103 -34t43 -89
q0 -64 -66 -95q77 -31 77 -106q0 -63 -47.5 -101.5t-117.5 -38.5q-58 0 -103.5 30z" />
    <glyph glyph-name="uni2074" unicode="&#x2074;" horiz-adv-x="390" 
d="M215 504h-192v60l179 282h99v-275h64v-67h-64v-104h-86v104zM215 571v175h-1l-109 -175h110z" />
    <glyph glyph-name="uni2075" unicode="&#x2075;" horiz-adv-x="390" 
d="M88 420q-42 28 -56 79l80 35q7 -35 26.5 -54.5t48.5 -19.5q37 0 57 26.5t20 65.5q0 38 -20.5 63t-53.5 25q-24 0 -43 -14.5t-28 -36.5l-75 17l11 240h259v-70h-185l-6 -94q17 14 39.5 21.5t45.5 7.5q45 0 78.5 -21.5t51 -56.5t17.5 -76q0 -46 -22 -83.5t-61 -59.5
t-89 -22q-53 0 -95 28z" />
    <glyph glyph-name="uni2076" unicode="&#x2076;" horiz-adv-x="390" 
d="M115.5 415q-39.5 23 -64 72t-24.5 124q0 81 25 136t67.5 82t95.5 27q76 0 122 -55l-47 -56q-18 19 -35.5 29.5t-37.5 10.5q-37 0 -64 -31t-33 -91q44 33 92 33q34 0 67.5 -15.5t55.5 -48t22 -80.5q0 -53 -24.5 -89t-61 -53.5t-70.5 -17.5q-46 0 -85.5 23zM248 485
q20 23 20 65q0 30 -17 53t-47 23q-48 0 -86 -47q1 -51 23.5 -84t54.5 -33t52 23z" />
    <glyph glyph-name="uni2077" unicode="&#x2077;" horiz-adv-x="390" 
d="M132.5 585q42.5 96 115.5 191h-200v70h305v-48q-73 -100 -121 -205t-54 -193h-99q11 89 53.5 185z" />
    <glyph glyph-name="uni2078" unicode="&#x2078;" horiz-adv-x="391" 
d="M340 594q23 -29 23 -75q0 -56 -45 -91.5t-125 -35.5t-122.5 35t-42.5 92q0 42 23 69t63 46q-34 19 -52.5 44t-18.5 62q0 53 44.5 84.5t110.5 31.5t108 -31.5t42 -84.5q0 -34 -18.5 -56.5t-52.5 -40.5q40 -20 63 -49zM149 701.5q19 -14.5 55 -28.5q28 13 42.5 28t14.5 37
q0 23 -19 36t-45 13q-27 0 -47 -12.5t-20 -36.5q0 -22 19 -36.5zM251 477.5q24 16.5 24 44.5q0 27 -22.5 44.5t-65.5 34.5q-34 -15 -52.5 -33.5t-18.5 -45.5q0 -28 23.5 -44.5t55.5 -16.5t56 16.5z" />
    <glyph glyph-name="uni2079" unicode="&#x2079;" horiz-adv-x="390" 
d="M40 457l60 50q14 -19 33 -32t39 -13q37 0 64.5 32.5t31.5 93.5q-47 -36 -92 -36q-33 0 -66.5 15.5t-56.5 48t-23 82.5q0 52 25 88t62 53t74 17q44 0 82.5 -23t62.5 -72.5t24 -124.5q0 -80 -25 -135t-67.5 -82t-94.5 -27q-78 0 -133 65zM269 668q-1 53 -23.5 85t-56.5 32
q-30 0 -51 -22t-21 -63q0 -31 17.5 -54.5t49.5 -23.5q50 0 85 46z" />
    <glyph glyph-name="fraction" unicode="&#x2044;" horiz-adv-x="146" 
d="M233 741h87l-408 -741h-86z" />
    <glyph glyph-name="onehalf" unicode="&#xbd;" horiz-adv-x="926" 
d="M155 362v271q-29 -24 -83 -37l-18 62q42 12 73 31.5t49 51.5h68v-379h75v-67h-241v67h77zM623 741h87l-408 -741h-86zM622.5 141q31.5 32 81.5 69q49 37 71 61t22 57q0 26 -16.5 43.5t-44.5 17.5q-34 0 -53.5 -30.5t-14.5 -71.5l-84 32q-1 61 43 99t110 38
q72 0 111.5 -36.5t39.5 -92.5q0 -36 -17 -65.5t-41 -50.5t-64 -50q-39 -28 -60.5 -48t-30.5 -43h213v-70h-312v66q15 43 46.5 75z" />
    <glyph glyph-name="uni2153" unicode="&#x2153;" horiz-adv-x="926" 
d="M155 362v271q-29 -24 -83 -37l-18 62q42 12 73 31.5t49 51.5h68v-379h75v-67h-241v67h77zM623 741h87l-408 -741h-86zM628.5 22q-45.5 30 -59.5 83l77 33q7 -36 31.5 -57t56.5 -21t52.5 18t20.5 50q0 39 -26.5 57t-72.5 18q-10 0 -32 -2v67q24 -3 39 -3q39 0 61.5 17
t22.5 47q0 28 -18.5 44t-48.5 16q-27 0 -48 -18t-28 -47l-71 35q16 44 59 70.5t96 26.5q60 0 103 -34t43 -89q0 -64 -66 -95q77 -31 77 -106q0 -63 -47.5 -101.5t-117.5 -38.5q-58 0 -103.5 30z" />
    <glyph glyph-name="uni2154" unicode="&#x2154;" horiz-adv-x="957" 
d="M86.5 436q31.5 32 81.5 69q49 37 71 61t22 57q0 26 -16.5 43.5t-44.5 17.5q-34 0 -53.5 -30.5t-14.5 -71.5l-84 32q-1 61 43 99t110 38q72 0 111.5 -36.5t39.5 -92.5q0 -36 -17 -65.5t-41 -50.5t-64 -50q-39 -28 -60.5 -48t-30.5 -43h213v-70h-312v66q15 43 46.5 75z
M654 741h87l-408 -741h-86zM659.5 22q-45.5 30 -59.5 83l77 33q7 -36 31.5 -57t56.5 -21t52.5 18t20.5 50q0 39 -26.5 57t-72.5 18q-10 0 -32 -2v67q24 -3 39 -3q39 0 61.5 17t22.5 47q0 28 -18.5 44t-48.5 16q-27 0 -48 -18t-28 -47l-71 35q16 44 59 70.5t96 26.5
q60 0 103 -34t43 -89q0 -64 -66 -95q77 -31 77 -106q0 -63 -47.5 -101.5t-117.5 -38.5q-58 0 -103.5 30z" />
    <glyph glyph-name="onequarter" unicode="&#xbc;" horiz-adv-x="896" 
d="M155 362v271q-29 -24 -83 -37l-18 62q42 12 73 31.5t49 51.5h68v-379h75v-67h-241v67h77zM623 741h87l-408 -741h-86zM721 104h-192v60l179 282h99v-275h64v-67h-64v-104h-86v104zM721 171v175h-1l-109 -175h110z" />
    <glyph glyph-name="threequarters" unicode="&#xbe;" horiz-adv-x="896" 
d="M92.5 317q-45.5 30 -59.5 83l77 33q7 -36 31.5 -57t56.5 -21t52.5 18t20.5 50q0 39 -26.5 57t-72.5 18q-10 0 -32 -2v67q24 -3 39 -3q39 0 61.5 17t22.5 47q0 28 -18.5 44t-48.5 16q-27 0 -48 -18t-28 -47l-71 35q16 44 59 70.5t96 26.5q60 0 103 -34t43 -89
q0 -64 -66 -95q77 -31 77 -106q0 -63 -47.5 -101.5t-117.5 -38.5q-58 0 -103.5 30zM623 741h87l-408 -741h-86zM721 104h-192v60l179 282h99v-275h64v-67h-64v-104h-86v104zM721 171v175h-1l-109 -175h110z" />
    <glyph glyph-name="uni2155" unicode="&#x2155;" horiz-adv-x="956" 
d="M155 362v271q-29 -24 -83 -37l-18 62q42 12 73 31.5t49 51.5h68v-379h75v-67h-241v67h77zM623 741h87l-408 -741h-86zM654 20q-42 28 -56 79l80 35q7 -35 26.5 -54.5t48.5 -19.5q37 0 57 26.5t20 65.5q0 38 -20.5 63t-53.5 25q-24 0 -43 -14.5t-28 -36.5l-75 17l11 240
h259v-70h-185l-6 -94q17 14 39.5 21.5t45.5 7.5q45 0 78.5 -21.5t51 -56.5t17.5 -76q0 -46 -22 -83.5t-61 -59.5t-89 -22q-53 0 -95 28z" />
    <glyph glyph-name="uni2156" unicode="&#x2156;" horiz-adv-x="987" 
d="M86.5 436q31.5 32 81.5 69q49 37 71 61t22 57q0 26 -16.5 43.5t-44.5 17.5q-34 0 -53.5 -30.5t-14.5 -71.5l-84 32q-1 61 43 99t110 38q72 0 111.5 -36.5t39.5 -92.5q0 -36 -17 -65.5t-41 -50.5t-64 -50q-39 -28 -60.5 -48t-30.5 -43h213v-70h-312v66q15 43 46.5 75z
M654 741h87l-408 -741h-86zM685 20q-42 28 -56 79l80 35q7 -35 26.5 -54.5t48.5 -19.5q37 0 57 26.5t20 65.5q0 38 -20.5 63t-53.5 25q-24 0 -43 -14.5t-28 -36.5l-75 17l11 240h259v-70h-185l-6 -94q17 14 39.5 21.5t45.5 7.5q45 0 78.5 -21.5t51 -56.5t17.5 -76
q0 -46 -22 -83.5t-61 -59.5t-89 -22q-53 0 -95 28z" />
    <glyph glyph-name="uni2157" unicode="&#x2157;" horiz-adv-x="956" 
d="M92.5 317q-45.5 30 -59.5 83l77 33q7 -36 31.5 -57t56.5 -21t52.5 18t20.5 50q0 39 -26.5 57t-72.5 18q-10 0 -32 -2v67q24 -3 39 -3q39 0 61.5 17t22.5 47q0 28 -18.5 44t-48.5 16q-27 0 -48 -18t-28 -47l-71 35q16 44 59 70.5t96 26.5q60 0 103 -34t43 -89
q0 -64 -66 -95q77 -31 77 -106q0 -63 -47.5 -101.5t-117.5 -38.5q-58 0 -103.5 30zM623 741h87l-408 -741h-86zM654 20q-42 28 -56 79l80 35q7 -35 26.5 -54.5t48.5 -19.5q37 0 57 26.5t20 65.5q0 38 -20.5 63t-53.5 25q-24 0 -43 -14.5t-28 -36.5l-75 17l11 240h259v-70
h-185l-6 -94q17 14 39.5 21.5t45.5 7.5q45 0 78.5 -21.5t51 -56.5t17.5 -76q0 -46 -22 -83.5t-61 -59.5t-89 -22q-53 0 -95 28z" />
    <glyph glyph-name="uni2158" unicode="&#x2158;" horiz-adv-x="956" 
d="M215 399h-192v60l179 282h99v-275h64v-67h-64v-104h-86v104zM623 741h87l-408 -741h-86zM215 466v175h-1l-109 -175h110zM654 20q-42 28 -56 79l80 35q7 -35 26.5 -54.5t48.5 -19.5q37 0 57 26.5t20 65.5q0 38 -20.5 63t-53.5 25q-24 0 -43 -14.5t-28 -36.5l-75 17
l11 240h259v-70h-185l-6 -94q17 14 39.5 21.5t45.5 7.5q45 0 78.5 -21.5t51 -56.5t17.5 -76q0 -46 -22 -83.5t-61 -59.5t-89 -22q-53 0 -95 28z" />
    <glyph glyph-name="uni2159" unicode="&#x2159;" horiz-adv-x="926" 
d="M155 362v271q-29 -24 -83 -37l-18 62q42 12 73 31.5t49 51.5h68v-379h75v-67h-241v67h77zM623 741h87l-408 -741h-86zM651.5 15q-39.5 23 -64 72t-24.5 124q0 81 25 136t67.5 82t95.5 27q76 0 122 -55l-47 -56q-18 19 -35.5 29.5t-37.5 10.5q-37 0 -64 -31t-33 -91
q44 33 92 33q34 0 67.5 -15.5t55.5 -48t22 -80.5q0 -53 -24.5 -89t-61 -53.5t-70.5 -17.5q-46 0 -85.5 23zM784 85q20 23 20 65q0 30 -17 53t-47 23q-48 0 -86 -47q1 -51 23.5 -84t54.5 -33t52 23z" />
    <glyph glyph-name="uni215A" unicode="&#x215a;" horiz-adv-x="926" 
d="M88 315q-42 28 -56 79l80 35q7 -35 26.5 -54.5t48.5 -19.5q37 0 57 26.5t20 65.5q0 38 -20.5 63t-53.5 25q-24 0 -43 -14.5t-28 -36.5l-75 17l11 240h259v-70h-185l-6 -94q17 14 39.5 21.5t45.5 7.5q45 0 78.5 -21.5t51 -56.5t17.5 -76q0 -46 -22 -83.5t-61 -59.5
t-89 -22q-53 0 -95 28zM623 741h87l-408 -741h-86zM651.5 15q-39.5 23 -64 72t-24.5 124q0 81 25 136t67.5 82t95.5 27q76 0 122 -55l-47 -56q-18 19 -35.5 29.5t-37.5 10.5q-37 0 -64 -31t-33 -91q44 33 92 33q34 0 67.5 -15.5t55.5 -48t22 -80.5q0 -53 -24.5 -89
t-61 -53.5t-70.5 -17.5q-46 0 -85.5 23zM784 85q20 23 20 65q0 30 -17 53t-47 23q-48 0 -86 -47q1 -51 23.5 -84t54.5 -33t52 23z" />
    <glyph glyph-name="uni2150" unicode="&#x2150;" horiz-adv-x="957" 
d="M155 362v271q-29 -24 -83 -37l-18 62q42 12 73 31.5t49 51.5h68v-379h75v-67h-241v67h77zM623 741h87l-408 -741h-86zM699.5 185q42.5 96 115.5 191h-200v70h305v-48q-73 -100 -121 -205t-54 -193h-99q11 89 53.5 185z" />
    <glyph glyph-name="two_fraction_seven" horiz-adv-x="988" 
d="M86.5 436q31.5 32 81.5 69q49 37 71 61t22 57q0 26 -16.5 43.5t-44.5 17.5q-34 0 -53.5 -30.5t-14.5 -71.5l-84 32q-1 61 43 99t110 38q72 0 111.5 -36.5t39.5 -92.5q0 -36 -17 -65.5t-41 -50.5t-64 -50q-39 -28 -60.5 -48t-30.5 -43h213v-70h-312v66q15 43 46.5 75z
M654 741h87l-408 -741h-86zM730.5 185q42.5 96 115.5 191h-200v70h305v-48q-73 -100 -121 -205t-54 -193h-99q11 89 53.5 185z" />
    <glyph glyph-name="three_fraction_seven" horiz-adv-x="957" 
d="M92.5 317q-45.5 30 -59.5 83l77 33q7 -36 31.5 -57t56.5 -21t52.5 18t20.5 50q0 39 -26.5 57t-72.5 18q-10 0 -32 -2v67q24 -3 39 -3q39 0 61.5 17t22.5 47q0 28 -18.5 44t-48.5 16q-27 0 -48 -18t-28 -47l-71 35q16 44 59 70.5t96 26.5q60 0 103 -34t43 -89
q0 -64 -66 -95q77 -31 77 -106q0 -63 -47.5 -101.5t-117.5 -38.5q-58 0 -103.5 30zM623 741h87l-408 -741h-86zM699.5 185q42.5 96 115.5 191h-200v70h305v-48q-73 -100 -121 -205t-54 -193h-99q11 89 53.5 185z" />
    <glyph glyph-name="four_fraction_seven" horiz-adv-x="957" 
d="M215 399h-192v60l179 282h99v-275h64v-67h-64v-104h-86v104zM623 741h87l-408 -741h-86zM215 466v175h-1l-109 -175h110zM699.5 185q42.5 96 115.5 191h-200v70h305v-48q-73 -100 -121 -205t-54 -193h-99q11 89 53.5 185z" />
    <glyph glyph-name="five_fraction_seven" horiz-adv-x="957" 
d="M88 315q-42 28 -56 79l80 35q7 -35 26.5 -54.5t48.5 -19.5q37 0 57 26.5t20 65.5q0 38 -20.5 63t-53.5 25q-24 0 -43 -14.5t-28 -36.5l-75 17l11 240h259v-70h-185l-6 -94q17 14 39.5 21.5t45.5 7.5q45 0 78.5 -21.5t51 -56.5t17.5 -76q0 -46 -22 -83.5t-61 -59.5
t-89 -22q-53 0 -95 28zM623 741h87l-408 -741h-86zM699.5 185q42.5 96 115.5 191h-200v70h305v-48q-73 -100 -121 -205t-54 -193h-99q11 89 53.5 185z" />
    <glyph glyph-name="six_fraction_seven" horiz-adv-x="957" 
d="M115.5 310q-39.5 23 -64 72t-24.5 124q0 81 25 136t67.5 82t95.5 27q76 0 122 -55l-47 -56q-18 19 -35.5 29.5t-37.5 10.5q-37 0 -64 -31t-33 -91q44 33 92 33q34 0 67.5 -15.5t55.5 -48t22 -80.5q0 -53 -24.5 -89t-61 -53.5t-70.5 -17.5q-46 0 -85.5 23zM623 741h87
l-408 -741h-86zM248 380q20 23 20 65q0 30 -17 53t-47 23q-48 0 -86 -47q1 -51 23.5 -84t54.5 -33t52 23zM699.5 185q42.5 96 115.5 191h-200v70h305v-48q-73 -100 -121 -205t-54 -193h-99q11 89 53.5 185z" />
    <glyph glyph-name="oneeighth" unicode="&#x215b;" horiz-adv-x="926" 
d="M155 362v271q-29 -24 -83 -37l-18 62q42 12 73 31.5t49 51.5h68v-379h75v-67h-241v67h77zM623 741h87l-408 -741h-86zM876 194q23 -29 23 -75q0 -56 -45 -91.5t-125 -35.5t-122.5 35t-42.5 92q0 42 23 69t63 46q-34 19 -52.5 44t-18.5 62q0 53 44.5 84.5t110.5 31.5
t108 -31.5t42 -84.5q0 -34 -18.5 -56.5t-52.5 -40.5q40 -20 63 -49zM685 301.5q19 -14.5 55 -28.5q28 13 42.5 28t14.5 37q0 23 -19 36t-45 13q-27 0 -47 -12.5t-20 -36.5q0 -22 19 -36.5zM787 77.5q24 16.5 24 44.5q0 27 -22.5 44.5t-65.5 34.5q-34 -15 -52.5 -33.5
t-18.5 -45.5q0 -28 23.5 -44.5t55.5 -16.5t56 16.5z" />
    <glyph glyph-name="threeeighths" unicode="&#x215c;" horiz-adv-x="926" 
d="M313.5 325.5q-47.5 -38.5 -117.5 -38.5q-58 0 -103.5 30t-59.5 83l77 33q7 -36 31.5 -57t56.5 -21t52.5 18t20.5 50q0 39 -26.5 57t-72.5 18q-10 0 -32 -2v67q24 -3 39 -3q39 0 61.5 17t22.5 47q0 28 -18.5 44t-48.5 16q-27 0 -48 -18t-28 -47l-71 35q16 44 59 70.5
t96 26.5q60 0 103 -34t43 -89q0 -64 -66 -95q77 -31 77 -106q0 -63 -47.5 -101.5zM623 741h87l-408 -741h-86zM876 194q23 -29 23 -75q0 -56 -45 -91.5t-125 -35.5t-122.5 35t-42.5 92q0 42 23 69t63 46q-34 19 -52.5 44t-18.5 62q0 53 44.5 84.5t110.5 31.5t108 -31.5
t42 -84.5q0 -34 -18.5 -56.5t-52.5 -40.5q40 -20 63 -49zM685 301.5q19 -14.5 55 -28.5q28 13 42.5 28t14.5 37q0 23 -19 36t-45 13q-27 0 -47 -12.5t-20 -36.5q0 -22 19 -36.5zM787 77.5q24 16.5 24 44.5q0 27 -22.5 44.5t-65.5 34.5q-34 -15 -52.5 -33.5t-18.5 -45.5
q0 -28 23.5 -44.5t55.5 -16.5t56 16.5z" />
    <glyph glyph-name="fiveeighths" unicode="&#x215d;" horiz-adv-x="926" 
d="M333 368.5q-22 -37.5 -61 -59.5t-89 -22q-53 0 -95 28t-56 79l80 35q7 -35 26.5 -54.5t48.5 -19.5q37 0 57 26.5t20 65.5q0 38 -20.5 63t-53.5 25q-24 0 -43 -14.5t-28 -36.5l-75 17l11 240h259v-70h-185l-6 -94q17 14 39.5 21.5t45.5 7.5q45 0 78.5 -21.5t51 -56.5
t17.5 -76q0 -46 -22 -83.5zM623 741h87l-408 -741h-86zM876 194q23 -29 23 -75q0 -56 -45 -91.5t-125 -35.5t-122.5 35t-42.5 92q0 42 23 69t63 46q-34 19 -52.5 44t-18.5 62q0 53 44.5 84.5t110.5 31.5t108 -31.5t42 -84.5q0 -34 -18.5 -56.5t-52.5 -40.5q40 -20 63 -49z
M685 301.5q19 -14.5 55 -28.5q28 13 42.5 28t14.5 37q0 23 -19 36t-45 13q-27 0 -47 -12.5t-20 -36.5q0 -22 19 -36.5zM787 77.5q24 16.5 24 44.5q0 27 -22.5 44.5t-65.5 34.5q-34 -15 -52.5 -33.5t-18.5 -45.5q0 -28 23.5 -44.5t55.5 -16.5t56 16.5z" />
    <glyph glyph-name="seveneighths" unicode="&#x215e;" horiz-adv-x="840" 
d="M79 295q11 89 53.5 185t115.5 191h-200v70h305v-48q-73 -100 -121 -205t-54 -193h-99zM537 741h87l-408 -741h-86zM790 194q23 -29 23 -75q0 -56 -45 -91.5t-125 -35.5t-122.5 35t-42.5 92q0 42 23 69t63 46q-34 19 -52.5 44t-18.5 62q0 53 44.5 84.5t110.5 31.5
t108 -31.5t42 -84.5q0 -34 -18.5 -56.5t-52.5 -40.5q40 -20 63 -49zM599 301.5q19 -14.5 55 -28.5q28 13 42.5 28t14.5 37q0 23 -19 36t-45 13q-27 0 -47 -12.5t-20 -36.5q0 -22 19 -36.5zM701 77.5q24 16.5 24 44.5q0 27 -22.5 44.5t-65.5 34.5q-34 -15 -52.5 -33.5
t-18.5 -45.5q0 -28 23.5 -44.5t55.5 -16.5t56 16.5z" />
    <glyph glyph-name="uni2151" unicode="&#x2151;" horiz-adv-x="926" 
d="M155 362v271q-29 -24 -83 -37l-18 62q42 12 73 31.5t49 51.5h68v-379h75v-67h-241v67h77zM623 741h87l-408 -741h-86zM576 57l60 50q14 -19 33 -32t39 -13q37 0 64.5 32.5t31.5 93.5q-47 -36 -92 -36q-33 0 -66.5 15.5t-56.5 48t-23 82.5q0 52 25 88t62 53t74 17
q44 0 82.5 -23t62.5 -72.5t24 -124.5q0 -80 -25 -135t-67.5 -82t-94.5 -27q-78 0 -133 65zM805 268q-1 53 -23.5 85t-56.5 32q-30 0 -51 -22t-21 -63q0 -31 17.5 -54.5t49.5 -23.5q51 0 85 46z" />
    <glyph glyph-name="two_fraction_nine" horiz-adv-x="957" 
d="M86.5 436q31.5 32 81.5 69q49 37 71 61t22 57q0 26 -16.5 43.5t-44.5 17.5q-34 0 -53.5 -30.5t-14.5 -71.5l-84 32q-1 61 43 99t110 38q72 0 111.5 -36.5t39.5 -92.5q0 -36 -17 -65.5t-41 -50.5t-64 -50q-39 -28 -60.5 -48t-30.5 -43h213v-70h-312v66q15 43 46.5 75z
M654 741h87l-408 -741h-86zM607 57l60 50q14 -19 33 -32t39 -13q37 0 64.5 32.5t31.5 93.5q-47 -36 -92 -36q-33 0 -66.5 15.5t-56.5 48t-23 82.5q0 52 25 88t62 53t74 17q44 0 82.5 -23t62.5 -72.5t24 -124.5q0 -80 -25 -135t-67.5 -82t-94.5 -27q-78 0 -133 65zM836 268
q-1 53 -23.5 85t-56.5 32q-30 0 -51 -22t-21 -63q0 -31 17.5 -54.5t49.5 -23.5q50 0 85 46z" />
    <glyph glyph-name="four_fraction_nine" horiz-adv-x="926" 
d="M215 399h-192v60l179 282h99v-275h64v-67h-64v-104h-86v104zM623 741h87l-408 -741h-86zM215 466v175h-1l-109 -175h110zM576 57l60 50q14 -19 33 -32t39 -13q37 0 64.5 32.5t31.5 93.5q-47 -36 -92 -36q-33 0 -66.5 15.5t-56.5 48t-23 82.5q0 52 25 88t62 53t74 17
q44 0 82.5 -23t62.5 -72.5t24 -124.5q0 -80 -25 -135t-67.5 -82t-94.5 -27q-78 0 -133 65zM805 268q-1 53 -23.5 85t-56.5 32q-30 0 -51 -22t-21 -63q0 -31 17.5 -54.5t49.5 -23.5q51 0 85 46z" />
    <glyph glyph-name="five_fraction_nine" horiz-adv-x="926" 
d="M88 315q-42 28 -56 79l80 35q7 -35 26.5 -54.5t48.5 -19.5q37 0 57 26.5t20 65.5q0 38 -20.5 63t-53.5 25q-24 0 -43 -14.5t-28 -36.5l-75 17l11 240h259v-70h-185l-6 -94q17 14 39.5 21.5t45.5 7.5q45 0 78.5 -21.5t51 -56.5t17.5 -76q0 -46 -22 -83.5t-61 -59.5
t-89 -22q-53 0 -95 28zM623 741h87l-408 -741h-86zM576 57l60 50q14 -19 33 -32t39 -13q37 0 64.5 32.5t31.5 93.5q-47 -36 -92 -36q-33 0 -66.5 15.5t-56.5 48t-23 82.5q0 52 25 88t62 53t74 17q44 0 82.5 -23t62.5 -72.5t24 -124.5q0 -80 -25 -135t-67.5 -82t-94.5 -27
q-78 0 -133 65zM805 268q-1 53 -23.5 85t-56.5 32q-30 0 -51 -22t-21 -63q0 -31 17.5 -54.5t49.5 -23.5q51 0 85 46z" />
    <glyph glyph-name="seven_fraction_nine" horiz-adv-x="840" 
d="M132.5 480q42.5 96 115.5 191h-200v70h305v-48q-73 -100 -121 -205t-54 -193h-99q11 89 53.5 185zM537 741h87l-408 -741h-86zM490 57l60 50q14 -19 33 -32t39 -13q37 0 64.5 32.5t31.5 93.5q-47 -36 -92 -36q-33 0 -66.5 15.5t-56.5 48t-23 82.5q0 52 25 88t62 53t74 17
q44 0 82.5 -23t62.5 -72.5t24 -124.5q0 -80 -25 -135t-67.5 -82t-94.5 -27q-78 0 -133 65zM719 268q-1 53 -23.5 85t-56.5 32q-30 0 -51 -22t-21 -63q0 -31 17.5 -54.5t49.5 -23.5q51 0 85 46z" />
    <glyph glyph-name="eight_fraction_nine" horiz-adv-x="933" 
d="M318 322.5q-45 -35.5 -125 -35.5t-122.5 35t-42.5 92q0 42 23 69t63 46q-34 19 -52.5 44t-18.5 62q0 53 44.5 84.5t110.5 31.5t108 -31.5t42 -84.5q0 -34 -18.5 -56.5t-52.5 -40.5q40 -20 63 -49t23 -75q0 -56 -45 -91.5zM631 741h87l-408 -741h-86zM149 596.5
q19 -14.5 55 -28.5q28 13 42.5 28t14.5 37q0 23 -19 36t-45 13q-27 0 -47 -12.5t-20 -36.5q0 -22 19 -36.5zM251 372.5q24 16.5 24 44.5q0 27 -22.5 44.5t-65.5 34.5q-34 -15 -52.5 -33.5t-18.5 -45.5q0 -28 23.5 -44.5t55.5 -16.5t56 16.5zM816.5 433q38.5 -23 62.5 -72.5
t24 -124.5q0 -80 -25 -135t-67.5 -82t-94.5 -27q-78 0 -133 65l60 50q14 -19 33 -32t39 -13q37 0 64.5 32.5t31.5 93.5q-47 -36 -92 -36q-33 0 -66.5 15.5t-56.5 48t-23 82.5q0 52 25 88t62 53t74 17q44 0 82.5 -23zM812 268q-1 53 -23.5 85t-56.5 32q-30 0 -51 -22t-21 -63
q0 -31 17.5 -54.5t49.5 -23.5q50 0 85 46z" />
    <glyph glyph-name="period" unicode="." horiz-adv-x="274" 
d="M86 11q-21 21 -21 51t21 51t51 21q29 0 50.5 -21t21.5 -51t-21.5 -51t-50.5 -21q-30 0 -51 21z" />
    <glyph glyph-name="comma" unicode="," horiz-adv-x="274" 
d="M122 -6q-25 5 -41 23.5t-16 44.5q0 30 21 51t51 21t51 -21.5t21 -52.5q0 -46 -34 -107.5t-80 -108.5l-50 35q60 63 77 115z" />
    <glyph glyph-name="colon" unicode=":" horiz-adv-x="274" 
d="M86 11q-21 21 -21 51t21 51t51 21q29 0 50.5 -21t21.5 -51t-21.5 -51t-50.5 -21q-30 0 -51 21zM86 365q-21 21 -21 51t21 51t51 21q29 0 50.5 -21t21.5 -51t-21.5 -51t-50.5 -21q-30 0 -51 21z" />
    <glyph glyph-name="semicolon" unicode=";" horiz-adv-x="274" 
d="M122 -6q-25 5 -41 23.5t-16 44.5q0 30 21 51t51 21t51 -21.5t21 -52.5q0 -46 -34 -107.5t-80 -108.5l-50 35q60 63 77 115zM86 365q-21 21 -21 51t21 51t51 21q29 0 50.5 -21t21.5 -51t-21.5 -51t-50.5 -21q-30 0 -51 21z" />
    <glyph glyph-name="ellipsis" unicode="&#x2026;" horiz-adv-x="849" 
d="M86 11q-21 21 -21 51t21 51t51 21q29 0 50.5 -21t21.5 -51t-21.5 -51t-50.5 -21q-30 0 -51 21zM374 11q-21 21 -21 51t21 51t51 21q29 0 50.5 -21t21.5 -51t-21.5 -51t-50.5 -21q-30 0 -51 21zM662 11q-21 21 -21 51t21 51t51 21q29 0 50.5 -21t21.5 -51t-21.5 -51
t-50.5 -21q-30 0 -51 21z" />
    <glyph glyph-name="exclam" unicode="!" horiz-adv-x="301" 
d="M88 741h128l-21 -508h-85zM100 11q-21 21 -21 51t21 51t51 21q29 0 50 -21t21 -51t-21 -51t-50 -21q-30 0 -51 21z" />
    <glyph glyph-name="exclamdown" unicode="&#xa1;" horiz-adv-x="301" 
d="M201 518.5q21 -21.5 21 -50.5q0 -30 -21 -51.5t-50 -21.5q-30 0 -51 21.5t-21 51.5q0 29 21 50.5t51 21.5q29 0 50 -21.5zM110 296h85l21 -507h-128z" />
    <glyph glyph-name="question" unicode="?" horiz-adv-x="424" 
d="M144.5 341q12.5 34 29.5 59t46 59q34 41 50 68.5t16 61.5q0 29 -18.5 51.5t-48.5 22.5q-34 0 -59 -24.5t-33 -64.5l-81 55q16 57 63.5 91t107.5 34q76 0 123 -41.5t47 -118.5q0 -55 -21 -92t-62 -82q-40 -45 -59.5 -79t-19.5 -84v-24h-93v33q0 41 12.5 75zM127 11
q-21 21 -21 51t21 51t50 21q30 0 51 -21t21 -51t-21 -51t-51 -21q-29 0 -50 21z" />
    <glyph glyph-name="questiondown" unicode="&#xbf;" horiz-adv-x="424" 
d="M297 519.5q21 -21.5 21 -50.5q0 -30 -21 -51t-50 -21q-30 0 -51.5 21t-21.5 51q0 29 21.5 50.5t51.5 21.5q29 0 50 -21.5zM279.5 190q-12.5 -34 -29.5 -59t-46 -59q-34 -41 -50 -68.5t-16 -61.5q0 -30 18 -52t49 -22q34 0 59 24.5t33 64.5l80 -55q-16 -56 -63 -90.5
t-107 -34.5q-76 0 -123.5 42t-47.5 118q0 55 21 92t62 82q40 45 59.5 79t19.5 84v24h94v-33q0 -41 -12.5 -75z" />
    <glyph glyph-name="periodcentered" unicode="&#xb7;" horiz-adv-x="274" 
d="M86 231q-21 21 -21 51t21 51t51 21q29 0 50.5 -21t21.5 -51t-21.5 -51t-50.5 -21q-30 0 -51 21z" />
    <glyph glyph-name="bullet" unicode="&#x2022;" horiz-adv-x="438" 
d="M133 221q-39 23 -62 62.5t-23 85.5q0 47 23 86.5t62 62.5t85 23q47 0 86.5 -23t62.5 -62.5t23 -86.5q0 -46 -23 -85.5t-62.5 -62.5t-86.5 -23q-46 0 -85 23z" />
    <glyph glyph-name="asterisk" unicode="*" horiz-adv-x="436" 
d="M95 475l72 90l-112 30l23 70l109 -41l-6 117h73l-5 -117l108 41l24 -70l-112 -30l72 -91l-59 -42l-64 97l-63 -97z" />
    <glyph glyph-name="numbersign" unicode="#" 
d="M545 445h-98l-25 -149h91v-82h-104l-35 -214h-80l35 214h-116l-35 -214h-81l35 214h-85v82h98l25 149h-90v82h103l35 214h80l-35 -214h116l35 214h81l-35 -214h85v-82zM342 296l24 149h-116l-24 -149h116z" />
    <glyph glyph-name="slash" unicode="/" horiz-adv-x="475" 
d="M395 747h84l-404 -753h-84z" />
    <glyph glyph-name="backslash" unicode="\" horiz-adv-x="476" 
d="M-3 747h85l403 -753h-85z" />
    <glyph glyph-name="colon.calt" horiz-adv-x="274" 
d="M86 128q-21 21 -21 51t21 51t51 21q29 0 50.5 -21t21.5 -51t-21.5 -51t-50.5 -21q-30 0 -51 21zM86 482q-21 21 -21 51t21 51t51 21q29 0 50.5 -21t21.5 -51t-21.5 -51t-50.5 -21q-30 0 -51 21z" />
    <glyph glyph-name="exclamdown.case" horiz-adv-x="301" 
d="M201 730q21 -21 21 -51t-21 -51t-50 -21q-30 0 -51 21t-21 51t21 51t51 21q29 0 50 -21zM110 508h85l21 -508h-128z" />
    <glyph glyph-name="questiondown.case" horiz-adv-x="424" 
d="M297 731q21 -21 21 -50q0 -30 -21 -51.5t-50 -21.5q-30 0 -51.5 21.5t-21.5 51.5q0 29 21.5 50t51.5 21q29 0 50 -21zM279.5 401q-12.5 -34 -29.5 -59t-46 -59q-34 -41 -50 -68.5t-16 -61.5q0 -30 18 -52t49 -22q34 0 59 24.5t33 64.5l80 -55q-16 -56 -63 -90.5
t-107 -34.5q-76 0 -123.5 42t-47.5 118q0 39 11.5 69.5t27.5 52.5t44 53q40 44 59.5 78t19.5 84v24h94v-33q0 -41 -12.5 -75z" />
    <glyph glyph-name="bullet.ss02" horiz-adv-x="438" 
d="M150.5 250.5q-31.5 18.5 -50 50t-18.5 68.5t18.5 69t50 50.5t67.5 18.5q37 0 69 -18.5t50.5 -50.5t18.5 -69t-18.5 -68.5t-50.5 -50t-69 -18.5q-36 0 -67.5 18.5z" />
    <glyph glyph-name="parenleft" unicode="(" horiz-adv-x="307" 
d="M154 -79.5q-47 71.5 -74.5 168t-27.5 208.5t28 209t74.5 168t103.5 111l41 -62q-71 -61 -116 -170t-45 -255q0 -149 45.5 -259.5t116.5 -166.5l-42 -64q-57 41 -104 112.5z" />
    <glyph glyph-name="parenright" unicode=")" horiz-adv-x="307" 
d="M154 671.5q47 -71.5 74.5 -168t27.5 -208.5q0 -111 -28 -208t-75 -168.5t-104 -111.5l-41 62q72 60 116.5 169t44.5 256q0 149 -45.5 259.5t-116.5 166.5l43 65q57 -42 104 -113.5z" />
    <glyph glyph-name="braceleft" unicode="{" horiz-adv-x="314" 
d="M149.5 -133q-35.5 41 -35.5 131v134q0 50 -21.5 80t-64.5 34v78q43 3 64.5 32t21.5 79v132q0 91 35 132.5t109 41.5h49v-74h-26q-50 0 -66 -28.5t-16 -92.5v-112q0 -56 -26.5 -96t-72.5 -53v-2q44 -11 71.5 -50t27.5 -92v-122q0 -64 16 -91.5t66 -28.5h26v-73h-48
q-74 0 -109.5 41z" />
    <glyph glyph-name="braceright" unicode="}" horiz-adv-x="314" 
d="M164.5 700q35.5 -41 35.5 -132v-133q0 -51 21.5 -80.5t64.5 -33.5v-78q-43 -4 -64.5 -32.5t-21.5 -79.5v-131q0 -91 -35.5 -132.5t-109.5 -41.5h-48v73h26q50 1 66 29t16 92v113q0 56 26 96t72 52v3q-44 11 -71 49.5t-27 91.5v123q0 64 -16 91.5t-67 28.5h-25v73h47
q75 0 110.5 -41z" />
    <glyph glyph-name="bracketleft" unicode="[" horiz-adv-x="307" 
d="M90 741h208v-76h-121v-763h121v-76h-208v915z" />
    <glyph glyph-name="bracketright" unicode="]" horiz-adv-x="307" 
d="M9 -174v76h122v763h-122v76h208v-915h-208z" />
    <glyph glyph-name="parenleft.case" horiz-adv-x="307" 
d="M154 -22.5q-47 71.5 -74.5 168t-27.5 208.5t28 209t74.5 168t103.5 111l41 -62q-71 -61 -116 -170t-45 -255q0 -149 45.5 -259.5t116.5 -166.5l-42 -64q-57 41 -104 112.5z" />
    <glyph glyph-name="parenright.case" horiz-adv-x="307" 
d="M154 728.5q47 -71.5 74.5 -168t27.5 -208.5q0 -111 -28 -208t-75 -168.5t-104 -111.5l-41 62q72 60 116.5 169t44.5 256q0 149 -45.5 259.5t-116.5 166.5l43 65q57 -42 104 -113.5z" />
    <glyph glyph-name="braceleft.case" horiz-adv-x="314" 
d="M149.5 -76q-35.5 41 -35.5 131v134q0 50 -21.5 80t-64.5 34v78q43 3 64.5 32t21.5 79v132q0 91 35 132.5t109 41.5h49v-74h-26q-50 0 -66 -28.5t-16 -92.5v-112q0 -56 -26.5 -96t-72.5 -53v-2q44 -11 71.5 -50t27.5 -92v-122q0 -64 16 -91.5t66 -28.5h26v-73h-48
q-74 0 -109.5 41z" />
    <glyph glyph-name="braceright.case" horiz-adv-x="314" 
d="M164.5 757q35.5 -41 35.5 -132v-133q0 -51 21.5 -80.5t64.5 -33.5v-78q-43 -4 -64.5 -32.5t-21.5 -79.5v-131q0 -91 -35.5 -132.5t-109.5 -41.5h-48v73h26q50 1 66 29t16 92v113q0 56 26 96t72 52v3q-44 11 -71 49.5t-27 91.5v123q0 64 -16 91.5t-67 28.5h-25v73h47
q75 0 110.5 -41z" />
    <glyph glyph-name="bracketleft.case" horiz-adv-x="307" 
d="M90 798h208v-76h-121v-763h121v-76h-208v915z" />
    <glyph glyph-name="bracketright.case" horiz-adv-x="307" 
d="M9 -117v76h122v763h-122v76h208v-915h-208z" />
    <glyph glyph-name="hyphen" unicode="-" horiz-adv-x="290" 
d="M33 323h223v-90h-223v90z" />
    <glyph glyph-name="uni00AD" unicode="&#xad;" horiz-adv-x="290" 
d="M33 323h223v-90h-223v90z" />
    <glyph glyph-name="endash" unicode="&#x2013;" horiz-adv-x="501" 
d="M33 323h435v-90h-435v90z" />
    <glyph glyph-name="emdash" unicode="&#x2014;" horiz-adv-x="977" 
d="M33 323h911v-90h-911v90z" />
    <glyph glyph-name="underscore" unicode="_" horiz-adv-x="402" 
d="M-17 -56h435v-90h-435v90z" />
    <glyph glyph-name="hyphen.case" horiz-adv-x="290" 
d="M33 441h223v-90h-223v90z" />
    <glyph glyph-name="endash.case" horiz-adv-x="501" 
d="M33 441h435v-90h-435v90z" />
    <glyph glyph-name="emdash.case" horiz-adv-x="977" 
d="M33 441h911v-90h-911v90z" />
    <glyph glyph-name="quotesinglbase" unicode="&#x201a;" horiz-adv-x="177" 
d="M60 -58q21 37 29 64q-23 4 -37.5 21t-14.5 40q0 27 18 46t44 19q27 0 45 -20t18 -51q0 -48 -32 -109t-72 -107l-43 31q24 29 45 66z" />
    <glyph glyph-name="quotedblbase" unicode="&#x201e;" horiz-adv-x="349" 
d="M60 -58q21 37 29 64q-23 4 -37.5 21t-14.5 40q0 27 18 46t44 19q27 0 45 -20t18 -51q0 -48 -32 -109t-72 -107l-43 31q24 29 45 66zM232 -58q21 37 29 64q-23 4 -37.5 21t-14.5 40q0 27 18 46t44 19q27 0 45 -20t18 -51q0 -48 -32 -109t-72 -107l-43 31q24 29 45 66z" />
    <glyph glyph-name="quotedblleft" unicode="&#x201c;" horiz-adv-x="349" 
d="M117 661q-21 -37 -29 -64q23 -4 37.5 -21t14.5 -40q0 -27 -18 -46t-45 -19t-44.5 20t-17.5 51q0 48 32 109.5t72 106.5l43 -31q-24 -29 -45 -66zM289 661q-21 -37 -29 -64q23 -4 37.5 -21t14.5 -40q0 -27 -18 -46t-45 -19t-44.5 20t-17.5 51q0 48 32 109.5t72 106.5
l43 -31q-24 -29 -45 -66z" />
    <glyph glyph-name="quotedblright" unicode="&#x201d;" horiz-adv-x="349" 
d="M60 561q21 37 29 64q-23 4 -37.5 21t-14.5 40q0 27 18 46t44 19q27 0 45 -20t18 -51q0 -48 -32 -109t-72 -107l-43 31q24 29 45 66zM232 561q21 37 29 64q-23 4 -37.5 21t-14.5 40q0 27 18 46t44 19q27 0 45 -20t18 -51q0 -48 -32 -109t-72 -107l-43 31q24 29 45 66z" />
    <glyph glyph-name="quoteleft" unicode="&#x2018;" horiz-adv-x="177" 
d="M117 661q-21 -37 -29 -64q23 -4 37.5 -21t14.5 -40q0 -27 -18 -46t-45 -19t-44.5 20t-17.5 51q0 48 32 109.5t72 106.5l43 -31q-24 -29 -45 -66z" />
    <glyph glyph-name="quoteright" unicode="&#x2019;" horiz-adv-x="177" 
d="M60 561q21 37 29 64q-23 4 -37.5 21t-14.5 40q0 27 18 46t44 19q27 0 45 -20t18 -51q0 -48 -32 -109t-72 -107l-43 31q24 29 45 66z" />
    <glyph glyph-name="guillemotleft" unicode="&#xab;" horiz-adv-x="454" 
d="M41 279l102 194h87l-96 -194l96 -194h-87zM224 279l102 194h87l-96 -194l96 -194h-87z" />
    <glyph glyph-name="guillemotright" unicode="&#xbb;" horiz-adv-x="454" 
d="M128 91h-87l96 194l-96 194h87l102 -194zM311 91h-87l96 194l-96 194h87l102 -194z" />
    <glyph glyph-name="guilsinglleft" unicode="&#x2039;" horiz-adv-x="271" 
d="M41 279l102 194h87l-96 -194l96 -194h-87z" />
    <glyph glyph-name="guilsinglright" unicode="&#x203a;" horiz-adv-x="271" 
d="M128 91h-87l96 194l-96 194h87l102 -194z" />
    <glyph glyph-name="quotedbl" unicode="&#x22;" horiz-adv-x="391" 
d="M67 741h90v-254h-90v254zM233 741h90v-254h-90v254z" />
    <glyph glyph-name="quotesingle" unicode="'" horiz-adv-x="225" 
d="M67 741h90v-254h-90v254z" />
    <glyph glyph-name="guillemotleft.case" horiz-adv-x="454" 
d="M41 353l102 194h87l-96 -194l96 -194h-87zM224 353l102 194h87l-96 -194l96 -194h-87z" />
    <glyph glyph-name="guillemotright.case" horiz-adv-x="454" 
d="M128 158h-87l96 194l-96 194h87l102 -194zM311 158h-87l96 194l-96 194h87l102 -194z" />
    <glyph glyph-name="guilsinglleft.case" horiz-adv-x="271" 
d="M41 353l102 194h87l-96 -194l96 -194h-87z" />
    <glyph glyph-name="guilsinglright.case" horiz-adv-x="271" 
d="M128 158h-87l96 194l-96 194h87l102 -194z" />
    <glyph glyph-name="cent" unicode="&#xa2;" horiz-adv-x="576" 
d="M442 153q-42 -39 -101 -49v-104h-74v104q-91 14 -139.5 90.5t-48.5 183.5q0 118 51.5 189t136.5 84v90h74v-90q110 -15 157 -136l-89 -46q-13 46 -36.5 75.5t-66.5 29.5q-62 0 -89.5 -53.5t-27.5 -142.5q0 -196 113 -196q48 0 72 30t39 81l92 -44q-21 -57 -63 -96z" />
    <glyph glyph-name="currency" unicode="&#xa4;" 
d="M494 248l42 -41l-58 -58l-43 41q-62 -45 -140 -45q-76 0 -139 44l-41 -40l-58 58l41 41q-44 60 -44 139q0 77 44 139l-41 42l58 57l41 -40q31 22 67.5 33.5t73.5 11.5q78 0 140 -45l41 40l58 -57l-41 -40q43 -62 43 -139t-44 -141zM378.5 247q36.5 22 57.5 59.5t21 81.5
t-20.5 81t-57.5 59t-83 22t-83 -22t-57.5 -59t-20.5 -81t21 -81.5t57.5 -59.5t82.5 -22t82.5 22z" />
    <glyph glyph-name="dollar" unicode="$" 
d="M519.5 103.5q-26.5 -45.5 -72.5 -73.5t-102 -35v-90h-75v90q-74 9 -130 49.5t-90 100.5l85 68q46 -104 135 -122v247q-60 25 -100 49.5t-67 64t-27 96.5q0 81 53.5 135t140.5 64v89h75v-90q121 -16 176 -128l-82 -62q-31 78 -94 94v-231q64 -27 104.5 -51t68.5 -63.5
t28 -97.5t-26.5 -103.5zM204.5 498.5q22.5 -24.5 65.5 -46.5v200q-39 -8 -63.5 -31.5t-24.5 -61.5q0 -36 22.5 -60.5zM413.5 126q26.5 27 26.5 70q0 36 -24.5 61t-70.5 48v-214q42 8 68.5 35z" />
    <glyph glyph-name="Euro" unicode="&#x20ac;" 
d="M567 98q-32 -54 -82.5 -82.5t-113.5 -28.5q-104 0 -168.5 73t-82.5 204h-67v70h62q-1 10 -1 30q0 21 2 61h-63v70h72q21 120 85 189.5t171 69.5q95 0 155 -55l-26 -102q-60 64 -132 64q-115 0 -143 -166h249l-17 -70h-240q-2 -40 -2 -60v-31h219l-17 -70h-196
q22 -184 140 -184q45 0 76.5 25.5t50.5 68.5z" />
    <glyph glyph-name="florin" unicode="&#x192;" horiz-adv-x="576" 
d="M395.5 635.5q-16.5 -21.5 -22.5 -75.5l-14 -128h109v-82h-117l-37 -348q-10 -96 -52.5 -136.5t-130.5 -40.5q-24 0 -47 3l2 93q19 -7 47 -7q35 0 51.5 21.5t22.5 76.5l36 338h-102v82h110l15 137q10 96 52.5 137t130.5 41q25 0 48 -4l-2 -92q-24 6 -48 6
q-35 0 -51.5 -21.5z" />
    <glyph glyph-name="sterling" unicode="&#xa3;" horiz-adv-x="576" 
d="M582 111q-20 -56 -53.5 -90t-88.5 -34q-35 0 -70 19t-83 55q-26 -35 -64 -54.5t-85 -19.5q-56 0 -92.5 31t-36.5 86q0 49 35 81t86 32q45 0 102 -26q-1 44 -10 80.5t-25 81.5h-126v82h98q-17 60 -17 117q0 59 26 105t72 71.5t104 25.5q61 0 106 -28t68 -78l-80 -71
q-10 38 -36 62.5t-61 24.5q-43 0 -64.5 -32.5t-21.5 -78.5t22 -118h152v-82h-126q22 -75 22 -132q0 -43 -11 -84q44 -28 66.5 -40.5t39.5 -12.5q25 0 41.5 14t28.5 49zM185.5 72q20.5 15 32.5 41q-47 31 -77 31q-22 0 -36 -11.5t-14 -31.5t14.5 -32t35.5 -12q24 0 44.5 15z
" />
    <glyph glyph-name="yen" unicode="&#xa5;" horiz-adv-x="576" 
d="M544 741l-177 -367h139v-82h-160v-81h160v-80h-160v-131h-114v131h-162v80h162v81h-162v82h140l-177 367h116l140 -307h2l142 307h111z" />
    <glyph glyph-name="cent.case" horiz-adv-x="625" 
d="M448.5 141.5q29.5 44.5 37.5 103.5l102 -54q-22 -85 -77.5 -137.5t-139.5 -62.5v-85h-74v85q-80 11 -137 63.5t-86.5 134.5t-29.5 180q0 99 29.5 181t86.5 134t137 63v89h74v-89q83 -10 139 -62t78 -138l-102 -52q-8 60 -37 103.5t-78 56.5v-571q48 13 77.5 57.5z
M196 185.5q35 -81.5 101 -101.5v570q-67 -19 -101.5 -99t-34.5 -186q0 -102 35 -183.5z" />
    <glyph glyph-name="uni2219" unicode="&#x2219;" horiz-adv-x="274" 
d="M86 231q-21 21 -21 51t21 51t51 21q29 0 50.5 -21t21.5 -51t-21.5 -51t-50.5 -21q-30 0 -51 21z" />
    <glyph glyph-name="uni2215" unicode="&#x2215;" horiz-adv-x="145" 
d="M228 741h74l-384 -741h-75z" />
    <glyph glyph-name="plus" unicode="+" 
d="M254 203h-190v82h190v194h85v-194h189v-82h-189v-193h-85v193z" />
    <glyph glyph-name="minus" unicode="&#x2212;" 
d="M64 285h464v-82h-464v82z" />
    <glyph glyph-name="multiply" unicode="&#xd7;" 
d="M296 186l-166 -166l-58 57l166 166l-166 166l58 59l166 -167l166 167l58 -58l-166 -167l166 -166l-58 -58z" />
    <glyph glyph-name="divide" unicode="&#xf7;" 
d="M249 383q-19 19 -19 47t19 48t47 20q27 0 46.5 -20t19.5 -48t-19.5 -47t-46.5 -19q-28 0 -47 19zM64 285h464v-82h-464v82zM249 19.5q-19 19.5 -19 46.5q0 28 19 47.5t47 19.5q27 0 46.5 -19.5t19.5 -47.5q0 -27 -19.5 -46.5t-46.5 -19.5q-28 0 -47 19.5z" />
    <glyph glyph-name="equal" unicode="=" 
d="M64 390h464v-82h-464v82zM64 177h464v-82h-464v82z" />
    <glyph glyph-name="notequal" unicode="&#x2260;" horiz-adv-x="593" 
d="M528 308h-144l-83 -131h227v-82h-280l-75 -118h-92l75 118h-92v82h144l84 131h-228v82h280l75 118h93l-75 -118h91v-82z" />
    <glyph glyph-name="greater" unicode="&#x3e;" 
d="M64 98l377 148l-377 144v82l464 -181v-92l-464 -184v83z" />
    <glyph glyph-name="less" unicode="&#x3c;" 
d="M64 199v92l464 181v-82l-376 -144l376 -148v-83z" />
    <glyph glyph-name="greaterequal" unicode="&#x2265;" 
d="M65 202l376 148l-376 144v83l464 -182v-91l-464 -185v83zM64 82h464v-82h-464v82z" />
    <glyph glyph-name="lessequal" unicode="&#x2264;" 
d="M65 304v91l464 182v-83l-377 -144l377 -148v-83zM64 82h464v-82h-464v82z" />
    <glyph glyph-name="plusminus" unicode="&#xb1;" 
d="M254 270h-190v81h190v131h85v-131h189v-81h-189v-127h-85v127zM64 82h464v-82h-464v82z" />
    <glyph glyph-name="approxequal" unicode="&#x2248;" 
d="M86 341.5q17 28.5 44 47t60 18.5q24 0 53.5 -7t69.5 -19q35 -11 56 -16t37 -5q21 0 37 13t23 33l61 -8q-4 -31 -21 -59.5t-44.5 -46.5t-60.5 -18q-40 0 -124 28q-67 21 -89 21q-21 0 -38 -15.5t-24 -33.5l-60 10q3 29 20 57.5zM86 151q17 28 44 46.5t60 18.5
q24 0 53.5 -7t69.5 -19q35 -11 56 -16t37 -5q21 0 37 13.5t23 32.5l61 -8q-4 -30 -21 -58.5t-44.5 -46.5t-60.5 -18q-40 0 -124 28q-67 21 -89 21q-21 0 -38 -15.5t-24 -34.5l-60 11q3 29 20 57z" />
    <glyph glyph-name="asciitilde" unicode="~" 
d="M86 246.5q17 28.5 44 47t60 18.5q24 0 52 -7t71 -20q35 -11 56 -16t37 -5q21 0 37 13.5t23 33.5l61 -8q-4 -31 -21 -59.5t-44.5 -46.5t-60.5 -18q-40 0 -124 28q-67 21 -89 21q-21 0 -38 -15.5t-24 -33.5l-60 10q3 29 20 57.5z" />
    <glyph glyph-name="logicalnot" unicode="&#xac;" 
d="M443 203h-379v82h464v-275h-85v193z" />
    <glyph glyph-name="asciicircum" unicode="^" horiz-adv-x="584" 
d="M245 741h92l184 -415h-82l-148 323l-146 -323h-82z" />
    <glyph glyph-name="infinity" unicode="&#x221e;" 
d="M92 191q-33 29 -33 75q0 45 33 74t78 29q34 0 63.5 -17.5t63.5 -52.5q35 36 62 53t63 17q46 0 78.5 -28t32.5 -73q0 -46 -34 -76t-77 -30q-61 0 -125 70q-39 -36 -67 -53t-61 -17q-44 0 -77 29zM261 265q-33 31 -52.5 42t-33.5 11q-22 0 -38 -15t-16 -36q0 -22 16 -38.5
t38 -16.5q27 0 86 53zM455 228q16 16 16 38q0 21 -16 36.5t-38 15.5q-14 0 -33.5 -11.5t-51.5 -41.5q24 -23 45 -38t41 -15q21 0 37 16z" />
    <glyph glyph-name="integral" unicode="&#x222b;" horiz-adv-x="580" 
d="M84 -172l2 93q19 -7 47 -7q35 0 51.5 21.5t22.5 76.5l59 557q10 96 52.5 137t130.5 41q25 0 48 -4l-2 -92q-24 6 -48 6q-35 0 -51.5 -21.5t-22.5 -75.5l-59 -558q-10 -96 -52.5 -136.5t-130.5 -40.5q-24 0 -47 3z" />
    <glyph glyph-name="uni2126" unicode="&#x2126;" horiz-adv-x="668" 
d="M148 95q-50 55 -77 128t-27 161q0 107 33.5 191t99 131.5t157.5 47.5t157.5 -48t99 -131.5t33.5 -190.5q0 -171 -105 -289h106v-95h-209v88q91 108 91 293q0 124 -43.5 203.5t-130.5 79.5q-86 0 -129.5 -79.5t-43.5 -203.5q0 -182 91 -293v-88h-208v95h105z" />
    <glyph glyph-name="uni2206" unicode="&#x2206;" horiz-adv-x="588" 
d="M232 741h119l242 -741h-598zM450 90l-156 522h-3l-154 -522h313z" />
    <glyph glyph-name="product" unicode="&#x220f;" horiz-adv-x="697" 
d="M95 741h507v-915h-113v820h-280v-820h-114v915z" />
    <glyph glyph-name="summation" unicode="&#x2211;" horiz-adv-x="582" 
d="M181 -67h364v-95h-476v95l208 370l-208 343v95h457v-95h-338l194 -314v-43z" />
    <glyph glyph-name="radical" unicode="&#x221a;" 
d="M91 300h-87v72h156l109 -419h2l209 788h85l-247 -900h-100z" />
    <glyph glyph-name="partialdiff" unicode="&#x2202;" horiz-adv-x="538" 
d="M343.5 612.5q64.5 -71.5 106 -159.5t41.5 -191q0 -80 -26.5 -142.5t-76.5 -97.5t-119 -35q-68 0 -118.5 35t-77 97.5t-26.5 144.5t26.5 144.5t76.5 97t119 34.5h15q-68 77 -164 158l65 67q94 -81 158.5 -152.5zM356.5 127q24.5 59 24.5 137q0 77 -24.5 136.5t-87.5 59.5
t-87 -59t-24 -137t24 -137t87 -59t87.5 59z" />
    <glyph glyph-name="uni00B5" unicode="&#xb5;" horiz-adv-x="558" 
d="M479 527v-527h-108v55q-79 -68 -156 -68q-13 0 -27 3v-165h-108v702h107v-349q0 -42 15 -73t54 -31q52 0 115 65v388h108z" />
    <glyph glyph-name="percent" unicode="%" horiz-adv-x="756" 
d="M66 424.5q-35 54.5 -35 133.5q0 83 33.5 139.5t113.5 56.5t113.5 -56.5t33.5 -139.5q0 -79 -35.5 -133.5t-111.5 -54.5q-77 0 -112 54.5zM536 741h74l-390 -741h-74zM226.5 473q12.5 34 12.5 85q0 56 -11.5 91t-49.5 35q-39 0 -50 -34.5t-11 -91.5q0 -52 12 -85.5
t49 -33.5q36 0 48.5 34zM466 41.5q-35 54.5 -35 133.5q0 83 33.5 139t113.5 56t113.5 -56t33.5 -139q0 -79 -35.5 -133.5t-111.5 -54.5q-77 0 -112 54.5zM626.5 90.5q12.5 33.5 12.5 84.5q0 57 -11.5 92t-49.5 35q-39 0 -50 -35t-11 -92q0 -51 12 -84.5t49 -33.5
q36 0 48.5 33.5z" />
    <glyph glyph-name="perthousand" unicode="&#x2030;" horiz-adv-x="1112" 
d="M66 424.5q-35 54.5 -35 133.5q0 83 33.5 139.5t113.5 56.5t113.5 -56.5t33.5 -139.5q0 -79 -35.5 -133.5t-111.5 -54.5q-77 0 -112 54.5zM536 741h74l-390 -741h-74zM226.5 473q12.5 34 12.5 85q0 56 -11.5 91t-49.5 35q-39 0 -50 -34.5t-11 -91.5q0 -52 12 -85.5
t49 -33.5q36 0 48.5 34zM466 41.5q-35 54.5 -35 133.5q0 83 33.5 139t113.5 56t113.5 -56t33.5 -139q0 -79 -35.5 -133.5t-111.5 -54.5q-77 0 -112 54.5zM822.5 41.5q-35.5 54.5 -35.5 133.5q0 83 33.5 139t113.5 56t113.5 -56t33.5 -139q0 -79 -35 -133.5t-112 -54.5
q-76 0 -111.5 54.5zM626.5 90.5q12.5 33.5 12.5 84.5q0 57 -11.5 92t-49.5 35q-39 0 -50 -35t-11 -92q0 -51 12 -84.5t49 -33.5q36 0 48.5 33.5zM983 90.5q12 33.5 12 84.5q0 57 -11 92t-50 35t-50 -35t-11 -92q0 -51 12 -84.5t49 -33.5t49 33.5z" />
    <glyph glyph-name="plus.case" 
d="M254 298h-190v82h190v194h85v-194h189v-82h-189v-193h-85v193z" />
    <glyph glyph-name="minus.case" 
d="M64 380h464v-82h-464v82z" />
    <glyph glyph-name="multiply.case" 
d="M296 281l-166 -166l-58 57l166 166l-166 166l58 59l166 -167l166 167l58 -58l-166 -167l166 -166l-58 -58z" />
    <glyph glyph-name="divide.case" 
d="M249 478q-19 19 -19 47t19 48t47 20q27 0 46.5 -20t19.5 -48t-19.5 -47t-46.5 -19q-28 0 -47 19zM64 380h464v-82h-464v82zM249 114.5q-19 19.5 -19 46.5q0 28 19 47.5t47 19.5q27 0 46.5 -19.5t19.5 -47.5q0 -27 -19.5 -46.5t-46.5 -19.5q-28 0 -47 19.5z" />
    <glyph glyph-name="equal.case" 
d="M64 485h464v-82h-464v82zM64 272h464v-82h-464v82z" />
    <glyph glyph-name="notequal.case" horiz-adv-x="593" 
d="M528 403h-144l-83 -131h227v-82h-280l-75 -118h-92l75 118h-92v82h144l84 131h-228v82h280l75 118h93l-75 -118h91v-82z" />
    <glyph glyph-name="greater.case" 
d="M64 193l377 148l-377 144v82l464 -181v-92l-464 -184v83z" />
    <glyph glyph-name="less.case" 
d="M64 294v92l464 181v-82l-376 -144l376 -148v-83z" />
    <glyph glyph-name="approxequal.case" 
d="M86 436.5q17 28.5 44 47t60 18.5q24 0 53.5 -7t69.5 -19q35 -11 56 -16t37 -5q21 0 37 13t23 33l61 -8q-4 -31 -21 -59.5t-44.5 -46.5t-60.5 -18q-40 0 -124 28q-67 21 -89 21q-21 0 -38 -15.5t-24 -33.5l-60 10q3 29 20 57.5zM86 246q17 28 44 46.5t60 18.5
q24 0 53.5 -7t69.5 -19q35 -11 56 -16t37 -5q21 0 37 13.5t23 32.5l61 -8q-4 -30 -21 -58.5t-44.5 -46.5t-60.5 -18q-40 0 -124 28q-67 21 -89 21q-21 0 -38 -15.5t-24 -34.5l-60 11q3 29 20 57z" />
    <glyph glyph-name="logicalnot.case" 
d="M443 298h-379v82h464v-275h-85v193z" />
    <glyph glyph-name="asciitilde.case" 
d="M86 341.5q17 28.5 44 47t60 18.5q24 0 52 -7t71 -20q35 -11 56 -16t37 -5q21 0 37 13.5t23 33.5l61 -8q-4 -31 -21 -59.5t-44.5 -46.5t-60.5 -18q-40 0 -124 28q-67 21 -89 21q-21 0 -38 -15.5t-24 -33.5l-60 10q3 29 20 57.5z" />
    <glyph glyph-name="infinity.case" 
d="M92 286q-33 29 -33 75q0 45 33 74t78 29q34 0 63.5 -17.5t63.5 -52.5q35 36 62 53t63 17q46 0 78.5 -28t32.5 -73q0 -46 -34 -76t-77 -30q-61 0 -125 70q-39 -36 -67 -53t-61 -17q-44 0 -77 29zM261 360q-33 31 -52.5 42t-33.5 11q-22 0 -38 -15t-16 -36q0 -22 16 -38.5
t38 -16.5q27 0 86 53zM455 323q16 16 16 38q0 21 -16 36.5t-38 15.5q-14 0 -33.5 -11.5t-51.5 -41.5q24 -23 45 -38t41 -15q21 0 37 16z" />
    <glyph glyph-name="lozenge" unicode="&#x25ca;" horiz-adv-x="517" 
d="M26 296l197 460h68l200 -460l-201 -459h-66zM259 -5l128 301l-128 304h-2l-125 -304l125 -301h2z" />
    <glyph glyph-name="uni2713" unicode="&#x2713;" horiz-adv-x="645" 
d="M517 692l94 -57l-398 -585h-59l-120 254l104 42l62 -141z" />
    <glyph glyph-name="uni2764" unicode="&#x2764;" horiz-adv-x="1126" 
d="M152 673l174 176v-746l-174 -174v744zM475 673l174 176v-746l-174 -174v744zM801 673l173 176v-746l-173 -174v744z" />
    <glyph glyph-name="at" unicode="@" horiz-adv-x="826" 
d="M225.5 -62.5q-88.5 51.5 -138.5 139t-50 192.5t50 193.5t137.5 140t194.5 51.5q104 0 188.5 -47.5t133 -128t48.5 -174.5q0 -74 -30.5 -130t-80 -86t-103.5 -30q-47 0 -75 21t-32 48q-29 -36 -58.5 -52.5t-66.5 -16.5q-64 0 -102 41.5t-38 113.5q0 68 29.5 129.5t79.5 99
t109 37.5q41 0 67 -18.5t37 -49.5h2l17 49h77l-82 -269q-4 -12 -4 -27q0 -40 49 -40q38 0 69 23.5t49.5 65.5t18.5 94q0 79 -40.5 142.5t-109.5 100t-151 36.5q-86 0 -158 -40.5t-114 -112.5t-42 -164q0 -90 41.5 -162t115.5 -112.5t166 -40.5q69 0 128.5 22.5t96.5 59.5
l2 -70q-40 -36 -104 -58t-128 -22q-110 0 -198.5 51.5zM428 158.5q32 35.5 50 86t18 89.5q0 36 -16 58.5t-51 22.5q-39 0 -71 -28.5t-50 -74t-18 -93.5q0 -96 67 -96q39 0 71 35.5z" />
    <glyph glyph-name="ampersand" unicode="&#x26;" horiz-adv-x="650" 
d="M644 99l-6 -102q-75 -3 -174 65q-85 -75 -196 -75q-58 0 -110.5 25.5t-85 72t-32.5 105.5q0 72 36.5 120t101.5 89q-50 103 -50 178q0 48 21 88.5t60 64.5t91 24q44 0 80 -20t56.5 -55.5t20.5 -80.5q0 -55 -21.5 -95t-53 -66.5t-81.5 -58.5q63 -99 152 -179q24 40 40 86
t20 90l91 -49q-22 -108 -74 -187q65 -41 114 -40zM261 450q50 32 76.5 64.5t26.5 77.5q0 33 -18.5 54.5t-48.5 21.5q-34 0 -53 -24.5t-19 -60.5q0 -58 36 -133zM389 122q-98 89 -169 203q-34 -25 -52 -54.5t-18 -68.5q0 -34 17.5 -62.5t48 -45.5t65.5 -17q57 0 108 45z" />
    <glyph glyph-name="paragraph" unicode="&#xb6;" horiz-adv-x="637" 
d="M216 415q-49 0 -88.5 21t-61.5 57t-22 79q0 44 22.5 83t64 62.5t95.5 23.5h316v-904h-69v839h-138v-839h-68v578h-51z" />
    <glyph glyph-name="section" unicode="&#xa7;" horiz-adv-x="558" 
d="M485 -3q0 -49 -27 -88.5t-74.5 -62t-105.5 -22.5q-75 0 -129 36t-78 101l81 64q14 -52 46.5 -81.5t81.5 -29.5q44 0 72 19.5t28 56.5q0 26 -17.5 44.5t-43.5 31t-73 31.5q-63 24 -103 46t-68.5 59.5t-28.5 93.5q0 48 23.5 86.5t70.5 72.5q-60 50 -60 126q0 49 26.5 88.5
t72 62t100.5 22.5q74 0 124.5 -34.5t74.5 -98.5l-81 -64q-12 49 -42.5 78t-77.5 29q-39 0 -65.5 -19.5t-26.5 -55.5q0 -37 32.5 -59t100.5 -49q63 -25 102 -46t67 -58.5t28 -93.5q0 -48 -23 -86.5t-69 -71.5q62 -50 62 -128zM161 265q19 -21 47.5 -35.5t77.5 -34.5
q51 -20 69 -29q31 22 48 45.5t17 51.5q0 30 -19 51t-47.5 35.5t-77.5 34.5q-46 18 -68 29q-32 -22 -49 -45t-17 -53q0 -29 19 -50z" />
    <glyph glyph-name="copyright" unicode="&#xa9;" horiz-adv-x="851" 
d="M230.5 38q-87.5 51 -137.5 139t-50 193t50 193t137.5 139.5t195.5 51.5q107 0 194.5 -51.5t138 -139.5t50.5 -193t-50.5 -192.5t-138 -139t-194.5 -51.5q-108 0 -195.5 51zM590 90.5q71 41.5 110 114.5t39 166q0 92 -40 165t-111.5 114.5t-162.5 41.5q-93 0 -164 -41.5
t-110 -114.5t-39 -166q0 -92 40 -165t111.5 -114.5t162.5 -41.5q93 0 164 41.5zM326.5 161.5q-45.5 26.5 -72 79t-26.5 128.5q0 109 53.5 173.5t147.5 64.5q140 0 178 -140l-81 -14q-10 45 -32.5 69.5t-63.5 24.5q-108 0 -108 -177q0 -175 108 -175q40 0 64 24.5t33 68.5
l80 -13q-17 -67 -61.5 -103.5t-116.5 -36.5q-57 0 -102.5 26.5z" />
    <glyph glyph-name="registered" unicode="&#xae;" horiz-adv-x="851" 
d="M230.5 38q-87.5 51 -137.5 139t-50 193t50 193t137.5 139.5t195.5 51.5q107 0 194.5 -51.5t138 -139.5t50.5 -193t-50.5 -192.5t-138 -139t-194.5 -51.5q-108 0 -195.5 51zM590 90.5q71 41.5 110 114.5t39 166q0 92 -40 165t-111.5 114.5t-162.5 41.5q-93 0 -164 -41.5
t-110 -114.5t-39 -166q0 -92 40 -165t111.5 -114.5t162.5 -41.5q93 0 164 41.5zM447 596q83 0 122.5 -39t39.5 -99q0 -45 -26.5 -78t-74.5 -46l95 -194h-89l-84 181h-82v-181h-79v456h178zM492 403q30 16 30 55q0 45 -30.5 58.5t-84.5 13.5h-59v-143h59q55 0 85 16z" />
    <glyph glyph-name="trademark" unicode="&#x2122;" horiz-adv-x="921" 
d="M163 675h-116v66h315v-66h-118v-325h-81v325zM417 741h105l101 -181h1l99 181h105v-391h-78v294h-1l-126 -222l-126 222h-2v-294h-78v391z" />
    <glyph glyph-name="degree" unicode="&#xb0;" horiz-adv-x="381" 
d="M120 492q-32 19 -51 51t-19 70t18.5 70t51 51t70.5 19t70 -19t51 -51t19 -70t-19 -70t-51 -51t-70 -19t-70 19zM243 560q22 22 22 53t-22 53t-53 22t-52.5 -22t-21.5 -53t21.5 -53t52.5 -22t53 22z" />
    <glyph glyph-name="bar" unicode="|" horiz-adv-x="247" 
d="M81 740h85v-978h-85v978z" />
    <glyph glyph-name="brokenbar" unicode="&#xa6;" horiz-adv-x="247" 
d="M81 740h85v-370h-85v370zM81 165h85v-403h-85v403z" />
    <glyph glyph-name="dagger" unicode="&#x2020;" horiz-adv-x="565" 
d="M229 444h-173v89h173v208h108v-208h172v-89h-172v-612h-108v612z" />
    <glyph glyph-name="uni2113" unicode="&#x2113;" horiz-adv-x="481" 
d="M444 46q-63 -60 -148 -60q-69 0 -112.5 42t-43.5 125v47q-33 -25 -76 -55l-39 76q37 25 115 80v275q0 85 43.5 131.5t115.5 46.5q65 0 104 -41t39 -116q0 -63 -19.5 -113t-64.5 -100.5t-126 -114.5v-93q0 -112 75 -112q48 0 100 50zM232 372q72 61 100.5 109.5
t28.5 107.5q0 90 -63 90q-32 0 -49 -26t-17 -75v-206z" />
    <glyph glyph-name="daggerdbl" unicode="&#x2021;" horiz-adv-x="565" 
d="M229 23h-173v90h173v347h-173v89h173v192h108v-192h172v-89h-172v-347h172v-90h-172v-191h-108v191z" />
    <glyph glyph-name="estimated" unicode="&#x212e;" horiz-adv-x="943" 
d="M261.5 39.5q-98.5 51.5 -156 139.5t-57.5 191t57.5 191t155 139.5t213.5 51.5q115 0 212 -52.5t153 -142t56 -194.5h-679q-11 0 -11 -12v-167q0 -42 45.5 -77t111 -55.5t119.5 -20.5q147 0 241 109h82q-57 -71 -143 -111.5t-185 -40.5q-116 0 -214.5 51.5zM738 413v147
q0 13 -5 26.5t-14 23.5q-48 51 -111.5 76.5t-137.5 25.5t-136.5 -25t-107.5 -77q-9 -11 -15 -24.5t-6 -25.5v-147q0 -10 11 -10h511q11 0 11 10z" />
    <glyph glyph-name="ampersand.alt" horiz-adv-x="650" 
d="M644 99l-6 -102q-75 -3 -174 65q-85 -75 -196 -75q-58 0 -110.5 25.5t-85 72t-32.5 105.5q0 73 36.5 120t101.5 89q-50 103 -50 178q0 48 21 88.5t60 64.5t91 24q46 0 82 -20.5t55.5 -55t19.5 -74.5q0 -12 -2 -18l-103 -50q12 30 12 56q0 33 -18.5 54.5t-48.5 21.5
q-34 0 -53 -24.5t-19 -60.5q0 -81 67.5 -191.5t160.5 -192.5q24 40 40 86t20 90l91 -49q-22 -108 -74 -187q65 -41 114 -40zM389 122q-95 86 -170 204q-33 -27 -51 -56t-18 -68q0 -34 17.5 -62.5t48 -45.5t65.5 -17q57 0 108 45z" />
    <glyph glyph-name="at.case" horiz-adv-x="838" 
d="M231.5 35.5q-88.5 51.5 -138.5 139t-50 192.5t50 193.5t137.5 140t194.5 51.5q104 0 188.5 -47.5t133 -128t48.5 -174.5q0 -74 -30.5 -130t-80 -86t-103.5 -30q-47 0 -75 21t-32 48q-29 -36 -58.5 -52.5t-66.5 -16.5q-64 0 -102 41.5t-38 113.5q0 68 29.5 129.5t79.5 99
t109 37.5q41 0 67 -18.5t37 -49.5h2l17 49h77l-82 -269q-4 -12 -4 -27q0 -40 49 -40q38 0 69 23.5t49.5 65.5t18.5 94q0 79 -40.5 142.5t-109.5 100t-151 36.5q-86 0 -158 -40.5t-114 -112.5t-42 -164q0 -90 41.5 -162t115.5 -112.5t166 -40.5q69 0 128.5 22.5t96.5 59.5
l2 -70q-40 -36 -104 -58t-128 -22q-110 0 -198.5 51.5zM434 256.5q32 35.5 50 86t18 89.5q0 36 -16 58.5t-51 22.5q-39 0 -71 -28.5t-50 -74t-18 -93.5q0 -96 67 -96q39 0 71 35.5z" />
    <glyph glyph-name="bar.case" horiz-adv-x="247" 
d="M81 807h85v-978h-85v978z" />
    <glyph glyph-name="brokenbar.case" horiz-adv-x="247" 
d="M81 807h85v-370h-85v370zM81 232h85v-403h-85v403z" />
    <glyph glyph-name="uni02C9" unicode="&#x2c9;" horiz-adv-x="422" 
d="M48 725h326v-72h-326v72z" />
    <glyph glyph-name="uni0308" unicode="&#x308;" horiz-adv-x="0" 
d="M-329 635.5q-17 17.5 -17 42.5t17 42.5t42 17.5t42.5 -17.5t17.5 -42.5t-17.5 -42.5t-42.5 -17.5t-42 17.5zM-150.5 635.5q-17.5 17.5 -17.5 42.5t17.5 42.5t42.5 17.5t42.5 -17.5t17.5 -42.5t-17.5 -42.5t-42.5 -17.5t-42.5 17.5z" />
    <glyph glyph-name="uni0307" unicode="&#x307;" horiz-adv-x="0" 
d="M-155.5 633.5q-18.5 18.5 -18.5 44.5t18.5 44.5t44.5 18.5t44.5 -18.5t18.5 -44.5t-18.5 -44.5t-44.5 -18.5t-44.5 18.5z" />
    <glyph glyph-name="gravecomb" unicode="&#x300;" horiz-adv-x="0" 
d="M-219 741h109l62 -137h-73z" />
    <glyph glyph-name="acutecomb" unicode="&#x301;" horiz-adv-x="0" 
d="M-158 741h110l-99 -137h-72z" />
    <glyph glyph-name="uni030B" unicode="&#x30b;" horiz-adv-x="0" 
d="M-289 741h86l-89 -137h-59zM-134 741h86l-88 -137h-60z" />
    <glyph glyph-name="uni0302" unicode="&#x302;" horiz-adv-x="0" 
d="M-248 741h104l96 -137h-79l-70 85l-67 -85h-81z" />
    <glyph glyph-name="circumflexcomb_hookcomb" horiz-adv-x="0" 
d="M-135.5 737.5q9.5 12.5 9.5 23.5t-10 19t-30 8q-35 0 -69 -19l-13 56q40 20 95 20q51 0 78 -18.5t27 -51.5q0 -16 -12 -34t-36 -34h-73q24 18 33.5 30.5zM-312 703h104l96 -99h-80l-69 56l-67 -56h-81z" />
    <glyph glyph-name="uni030C" unicode="&#x30c;" horiz-adv-x="0" 
d="M-345 741h81l67 -85l70 85h79l-96 -137h-104z" />
    <glyph glyph-name="uni0306" unicode="&#x306;" horiz-adv-x="0" 
d="M-317 635q-43 39 -50 106h70q6 -34 30 -55t59 -21q34 0 59 21t30 55h71q-8 -67 -51.5 -106t-108.5 -39q-66 0 -109 39z" />
    <glyph glyph-name="brevecomb_hookcomb" horiz-adv-x="0" 
d="M-199 768q0 11 -10.5 19t-29.5 8q-34 0 -70 -18l-13 55q42 21 95 21q51 0 78 -19t27 -51q0 -16 -12 -34t-36 -35h-72q43 32 43 54zM-304.5 625q-39.5 29 -47.5 81h70q6 -22 28 -33.5t53 -11.5q32 0 54 11.5t28 33.5h71q-9 -51 -50 -80.5t-103 -29.5q-64 0 -103.5 29z" />
    <glyph glyph-name="uni030A" unicode="&#x30a;" horiz-adv-x="0" 
d="M-195.5 610.5q-25.5 25.5 -25.5 61.5q0 35 25.5 60.5t60.5 25.5q36 0 61.5 -25.5t25.5 -60.5q0 -36 -25.5 -61.5t-61.5 -25.5q-35 0 -60.5 25.5zM-106 643q12 12 12 29q0 16 -12 28t-29 12q-16 0 -28 -12t-12 -28q0 -17 11.5 -29t28.5 -12t29 12z" />
    <glyph glyph-name="tildecomb" unicode="&#x303;" horiz-adv-x="0" 
d="M-320 731q24 21 55 21q15 0 30.5 -5.5t35.5 -16.5q18 -9 30.5 -14t23.5 -5q19 0 32 11.5t26 32.5l39 -38q-45 -77 -94 -77q-15 0 -30.5 6t-38.5 17q-15 8 -30.5 14t-26.5 6q-19 0 -32 -12t-27 -34l-37 41q20 32 44 53z" />
    <glyph glyph-name="uni0304" unicode="&#x304;" horiz-adv-x="0" 
d="M-374 725h326v-72h-326v72z" />
    <glyph glyph-name="hookabovecomb" unicode="&#x309;" horiz-adv-x="0" 
d="M-136 638.5q11 13.5 11 25.5q0 13 -10.5 21t-29.5 8q-35 0 -70 -19l-12 56q38 20 95 20q51 0 77.5 -18.5t26.5 -52.5q0 -39 -55 -75h-72q28 21 39 34.5z" />
    <glyph glyph-name="uni0312" unicode="&#x312;" horiz-adv-x="0" 
d="M-121 741h73l-62 -137h-109z" />
    <glyph glyph-name="uni0315" unicode="&#x315;" horiz-adv-x="0" 
d="M-148 741h100l-32 -187h-77z" />
    <glyph glyph-name="dotbelowcomb" unicode="&#x323;" horiz-adv-x="0" 
d="M-155.5 -168.5q-18.5 18.5 -18.5 44.5t18.5 45t44.5 19t44.5 -19t18.5 -45t-18.5 -44.5t-44.5 -18.5t-44.5 18.5z" />
    <glyph glyph-name="uni0326" unicode="&#x326;" horiz-adv-x="0" 
d="M-158 -58h110l-99 -137h-72z" />
    <glyph glyph-name="uni0327" unicode="&#x327;" horiz-adv-x="0" 
d="M-71 -73.5q23 -18.5 23 -52.5q0 -42 -33.5 -66.5t-77.5 -24.5q-25 0 -50.5 5t-38.5 14l13 55q13 -7 32 -12.5t35 -5.5q22 0 34.5 8.5t12.5 24.5q0 22 -26 31t-78 10l57 93h64l-31 -53q41 -8 64 -26.5z" />
    <glyph glyph-name="uni0328" unicode="&#x328;" horiz-adv-x="0" 
d="M-190 -171q-27 21 -27 61q0 37 28.5 70.5t82.5 56.5l58 -17q-47 -20 -74 -46t-27 -53q0 -17 11.5 -26t28.5 -9q30 0 58 19v-57q-30 -20 -70 -20q-42 0 -69 21z" />
    <glyph glyph-name="dieresis" unicode="&#xa8;" horiz-adv-x="394" 
d="M65 635.5q-17 17.5 -17 42.5t17 42.5t42 17.5t42.5 -17.5t17.5 -42.5t-17.5 -42.5t-42.5 -17.5t-42 17.5zM243.5 635.5q-17.5 17.5 -17.5 42.5t17.5 42.5t42.5 17.5t42.5 -17.5t17.5 -42.5t-17.5 -42.5t-42.5 -17.5t-42.5 17.5z" />
    <glyph glyph-name="dotaccent" unicode="&#x2d9;" horiz-adv-x="222" 
d="M66.5 633.5q-18.5 18.5 -18.5 44.5t18.5 44.5t44.5 18.5t44.5 -18.5t18.5 -44.5t-18.5 -44.5t-44.5 -18.5t-44.5 18.5z" />
    <glyph glyph-name="grave" unicode="`" horiz-adv-x="267" 
d="M48 741h109l62 -137h-73z" />
    <glyph glyph-name="acute" unicode="&#xb4;" horiz-adv-x="267" 
d="M109 741h110l-99 -137h-72z" />
    <glyph glyph-name="hungarumlaut" unicode="&#x2dd;" horiz-adv-x="399" 
d="M110 741h86l-89 -137h-59zM265 741h86l-88 -137h-60z" />
    <glyph glyph-name="circumflex" unicode="&#x2c6;" horiz-adv-x="393" 
d="M145 741h104l96 -137h-79l-70 85l-67 -85h-81z" />
    <glyph glyph-name="caron" unicode="&#x2c7;" horiz-adv-x="393" 
d="M48 741h81l67 -85l70 85h79l-96 -137h-104z" />
    <glyph glyph-name="breve" unicode="&#x2d8;" horiz-adv-x="415" 
d="M98 635q-43 39 -50 106h70q6 -34 30 -55t59 -21q34 0 59 21t30 55h71q-8 -67 -51.5 -106t-108.5 -39q-66 0 -109 39z" />
    <glyph glyph-name="ring" unicode="&#x2da;" horiz-adv-x="269" 
d="M73.5 610.5q-25.5 25.5 -25.5 61.5q0 35 25.5 60.5t60.5 25.5q36 0 61.5 -25.5t25.5 -60.5q0 -36 -25.5 -61.5t-61.5 -25.5q-35 0 -60.5 25.5zM163 643q12 12 12 29q0 16 -12 28t-29 12q-16 0 -28 -12t-12 -28q0 -17 11.5 -29t28.5 -12t29 12z" />
    <glyph glyph-name="tilde" unicode="&#x2dc;" horiz-adv-x="412" 
d="M92 731q24 21 55 21q15 0 30.5 -5.5t35.5 -16.5q18 -9 30.5 -14t23.5 -5q19 0 32 11.5t26 32.5l39 -38q-45 -77 -94 -77q-15 0 -30.5 6t-38.5 17q-15 8 -30.5 14t-26.5 6q-19 0 -32 -12t-27 -34l-37 41q20 32 44 53z" />
    <glyph glyph-name="macron" unicode="&#xaf;" horiz-adv-x="422" 
d="M48 725h326v-72h-326v72z" />
    <glyph glyph-name="cedilla" unicode="&#xb8;" horiz-adv-x="296" 
d="M225 -73.5q23 -18.5 23 -52.5q0 -42 -33.5 -66.5t-77.5 -24.5q-25 0 -50.5 5t-38.5 14l13 55q13 -7 32 -12.5t35 -5.5q22 0 34.5 8.5t12.5 24.5q0 22 -26 31t-78 10l57 93h64l-31 -53q41 -8 64 -26.5z" />
    <glyph glyph-name="ogonek" unicode="&#x2db;" horiz-adv-x="265" 
d="M75 -171q-27 21 -27 61q0 37 28.5 70.5t82.5 56.5l58 -17q-47 -20 -74 -46t-27 -53q0 -17 11.5 -26t28.5 -9q30 0 58 19v-57q-30 -20 -70 -20q-42 0 -69 21z" />
    <glyph glyph-name="uni03060301" horiz-adv-x="0" 
d="M-171 840h109l-104 -105h-73zM-304.5 625q-39.5 29 -47.5 81h70q6 -22 28 -33.5t53 -11.5q32 0 54 11.5t28 33.5h71q-9 -51 -50 -80.5t-103 -29.5q-64 0 -103.5 29z" />
    <glyph glyph-name="uni03060300" horiz-adv-x="0" 
d="M-339 840h109l68 -105h-73zM-304.5 625q-39.5 29 -47.5 81h70q6 -22 28 -33.5t53 -11.5q32 0 54 11.5t28 33.5h71q-9 -51 -50 -80.5t-103 -29.5q-64 0 -103.5 29z" />
    <glyph glyph-name="uni03060303" horiz-adv-x="0" 
d="M-264 838q25 0 69 -22q14 -7 27.5 -12t23.5 -5q26 0 53 42l38 -37q-41 -66 -94 -66q-15 0 -29 5t-40 17q-3 1 -14.5 7t-20.5 8.5t-16 2.5q-25 0 -54 -43l-37 37q41 66 94 66zM-309.5 625q-40.5 29 -47.5 81h70q7 -22 29 -33.5t53 -11.5t53 11.5t28 33.5h71
q-9 -51 -50 -80.5t-102 -29.5q-64 0 -104.5 29z" />
    <glyph glyph-name="uni03020301" horiz-adv-x="0" 
d="M-165 840h109l-105 -105h-72zM-248 703h104l96 -99h-80l-69 56l-67 -56h-81z" />
    <glyph glyph-name="uni03020300" horiz-adv-x="0" 
d="M-338 840h110l67 -105h-72zM-248 703h104l96 -99h-80l-69 56l-67 -56h-81z" />
    <glyph glyph-name="uni03020303" horiz-adv-x="0" 
d="M-260 838q15 0 30.5 -5.5t36.5 -15.5q34 -18 52 -18q27 0 54 42l38 -37q-41 -66 -95 -66q-25 0 -67 22q-14 7 -28 12.5t-24 5.5q-25 0 -54 -43l-37 37q40 66 94 66zM-253 703h103l97 -99h-80l-69 56l-66 -56h-82z" />
    <glyph glyph-name="ncomma" horiz-adv-x="240" 
d="M79 741h113l-66 -137h-78z" />
    </font>
</defs>
</svg>
