<svg xmlns="http://www.w3.org/2000/svg" width="130.164" height="45.527" viewBox="0 0 130.164 45.527"><defs><style>.a{fill:#0051a5;}.b{fill:#fedf01;}.c{fill:#fff;}</style></defs><path class="a" d="M34.631,39.949a2.694,2.694,0,0,1-1.821,2.84,44.207,44.207,0,0,1-15.494,2.737A44.228,44.228,0,0,1,1.821,42.79,2.694,2.694,0,0,1,0,39.949V0H34.631Z"/><path class="b" d="M11.146,39.473c-4.816-3-6.4-4.32-6.539-6.281a4.77,4.77,0,0,1,.238-1.552l-.424-.3A3.916,3.916,0,0,0,3.8,33.368a4.785,4.785,0,0,0,.807,2.68,11.4,11.4,0,0,0,3.13,3,11.9,11.9,0,0,1,3.927,4.785h.264V41.873c2.545,1.443,4.785,2.8,5.887,5.225h.269C17.629,44.584,16.206,42.644,11.146,39.473Z" transform="translate(-1.834 -15.126)"/><path class="b" d="M33.244,33.52h-.336c0-1.79-1.64-2.276-3.358-2.276H24.19a9.064,9.064,0,0,1,.119,2.892H24.04c-.517-4.02-2.768-6.012-5.944-8.143v1.831h-.269a13.567,13.567,0,0,0-4.454-4.92h0L11.94,21.869V23.84H11.7a13.759,13.759,0,0,0-4.025-5.173c-2.069-1.873-2.923-3-3.409-4.284a6.084,6.084,0,0,1-.393-2.271,3.952,3.952,0,0,1,1.723-3.44v.745a3.813,3.813,0,0,0-.729,2.256,5.049,5.049,0,0,0,.559,2.3c1.149,2.261,5.1,5,7.6,6.71,7.8,5.2,9.359,6.115,10.652,8.893a6.767,6.767,0,0,1,.435,1.205l5.97-.916c.14,0,.445-.062.6-.067a5.929,5.929,0,0,0,1.707-1.723l-2.99-.233a9.276,9.276,0,0,1-.445.864h-.238c.083-.305.155-.605.212-.9l-.76-.057v-.16l.828-.1a14.951,14.951,0,0,0,.248-2.39l-3.766-.217v1.086h-.243c-.078-.372-.14-.745-.191-1.112l-.833-.031v-.248l.781-.047a17.041,17.041,0,0,1-.072-2.721l-2.2-.1a5,5,0,0,1,.29.605,7.243,7.243,0,0,1,.2,3.621h-.264a8.076,8.076,0,0,0-.585-2.463c-.605-1.438-1.976-2.706-4.263-4.18v1.837h-.269c-.76-2.411-2.659-3.751-5.479-5.173-2.323-1.2-3.047-2.633-2.918-4.858l.786.466a3.461,3.461,0,0,0,3.477,3.27,14.361,14.361,0,0,0,2.8-.352,6.815,6.815,0,0,1,3.477-.129V13.09h-.781a2.67,2.67,0,0,1-1.681.517,2.485,2.485,0,0,1-2.654-2.452c0-1.687,1.423-1.956,2.587-1.956.621,0,1.656,0,2-.041a.869.869,0,0,0,.579-.181.714.714,0,0,0,.207-.435,4.656,4.656,0,0,0,.036-.786V6.545H14.883V8.677L12.85,7.906V7.389h.973V6.545H10.2V4.776H8.954A1.449,1.449,0,0,0,7.48,6.142C7.428,7,7.816,7.725,8.7,7.725h.16V8.76H8.7A2.664,2.664,0,0,1,5.975,6.043,2.928,2.928,0,0,1,9.011,3.2h2.628V4.967H21.847V7.585a9.4,9.4,0,0,1-.067,1.407,1.624,1.624,0,0,1-.642,1.154,2.545,2.545,0,0,1-1.552.336c-.248,0-.973,0-1.842-.067-1.164-.072-1.49.378-1.552.792a1.438,1.438,0,0,0,0,.259,2.364,2.364,0,0,1,2.23-.445c1.552.486,1.981.517,2.783-.1l.078.181a1.888,1.888,0,0,1-.466.517h.709v4.03l2.318-1.386h6.519l3.2,1.671a1.035,1.035,0,0,1,.616.838,1.516,1.516,0,0,1-.181.957c-.093.155-.843,1.381-1.236,2.033a6.984,6.984,0,0,1-.8,10.218,3.57,3.57,0,0,1,1.914,1.418ZM18.758,11.791a1.845,1.845,0,0,0-1.945.414,1.821,1.821,0,0,0,.931.166,1.4,1.4,0,0,0,1-.559Zm-.517,5.81,2.587-1.552A3.8,3.8,0,0,0,19.1,15.63a22.2,22.2,0,0,0-3.1.517c.285.238,1.433.973,2.219,1.474Zm11.485.16.357-.517-.574-.7.093-.16,1.552.838-.336,1.035a6.782,6.782,0,0,1,.786.476l1-1.671-2.587-1.355H24.268l-4.656,2.8a12.111,12.111,0,0,1,2.25,1.925,7,7,0,0,1,5.613-2.964,7.1,7.1,0,0,1,2.23.31Zm-.486,6.544a14.077,14.077,0,0,0-.279-2.318l-3.042-.135A18.841,18.841,0,0,0,25.5,24.5Zm1.035-2.256a10.968,10.968,0,0,1,.047,2.183l3.016-.16a5.913,5.913,0,0,0-.564-1.925Zm-1.552-.988a10.61,10.61,0,0,0-.89-2.2h-.378a6.245,6.245,0,0,0-.631.047,18.846,18.846,0,0,0-.75,2.292Zm.838-1.826a13.5,13.5,0,0,1,.517,1.754l1.842-.1a5.97,5.97,0,0,0-2.354-1.666ZM32.949,27a5.08,5.08,0,0,0,.4-1.656l-3.135-.181a10.693,10.693,0,0,1-.621,2.25ZM25.23,19.344a5.639,5.639,0,0,0-2.421,2.023l2.147-.114a13.937,13.937,0,0,1,.274-1.909Z" transform="translate(-1.867 -1.543)"/><path class="c" d="M31.862,67.212a1.93,1.93,0,0,0,1.707-1.847c0-.926-.393-1.945-3.1-1.945H25.85v.072a1.4,1.4,0,0,1,.517.3,1.893,1.893,0,0,1,.429,1.366v6.886h3.787c2.069,0,3.621-.8,3.621-2.628A2.216,2.216,0,0,0,31.862,67.212ZM29.9,64.237c.973,0,1.635.212,1.635,1.252s-.885,1.418-1.9,1.418h-.869V64.237Zm.1,6.989H28.768V67.709h1.174c1.609,0,2.23.481,2.23,1.692,0,1.3-.807,1.831-2.173,1.831Z" transform="translate(-12.477 -30.61)"/><path class="c" d="M13.242,72.044H15.73L12.58,67.988c1.273-.341,2.225-1.035,2.225-2.3,0-1.485-.885-2.271-3.213-2.271H6.77v.072a1.593,1.593,0,0,1,.517.305,2.038,2.038,0,0,1,.44,1.521v6.725H9.719V68.221h.724ZM9.7,64.237h1.324c1.117,0,1.7.326,1.7,1.516,0,1.035-.76,1.687-1.987,1.687H9.709Z" transform="translate(-3.268 -30.61)"/><path class="c" d="M51.682,64.455a1.619,1.619,0,0,1,.7.7c0,.031.083,0,.083,0l.435-1.474a4.748,4.748,0,0,0-2.633-.564c-2.8,0-4.9,1.418-4.9,4.506,0,3.482,2.5,4.387,4.708,4.387a4.7,4.7,0,0,0,2.856-.652V70.327A3.435,3.435,0,0,1,50.647,71c-1.283,0-3.166-.585-3.208-3.451-.036-2.638,1.112-3.5,2.659-3.5a2.985,2.985,0,0,1,1.583.4Z" transform="translate(-21.893 -30.465)"/><path class="a" d="M107.449,14.627a7.677,7.677,0,0,1-2.825.688,4.226,4.226,0,0,1-4.594-4.542,4.252,4.252,0,0,1,4.491-4.542,6.446,6.446,0,0,1,2.644.6l-.59,1.314a2.587,2.587,0,0,0-2.069-1.035c-1.149,0-2.664.854-2.664,3.668,0,2.188,1.226,3.652,2.918,3.652a2.152,2.152,0,0,0,.988-.222V11.1h1.687v3.5Z" transform="translate(-48.28 -3.007)"/><path class="a" d="M119.878,14.272H118.29V4.53h1.588Z" transform="translate(-57.093 -2.186)"/><path class="a" d="M127.745,17.424a3.285,3.285,0,0,1-3.27-3.456,3.27,3.27,0,1,1,6.534,0,3.29,3.29,0,0,1-3.264,3.456Zm0-5.96c-.916,0-1.614.962-1.614,2.5s.683,2.514,1.614,2.514,1.6-.988,1.6-2.514-.673-2.5-1.6-2.5Z" transform="translate(-60.077 -5.101)"/><path class="a" d="M141.5,7.877a3.57,3.57,0,0,1,1.324-.264,3.18,3.18,0,0,1,3.166,3.4,4.03,4.03,0,0,1-.435,2,3.006,3.006,0,0,1-2.706,1.505,3.658,3.658,0,0,1-1.314-.264,1.971,1.971,0,0,0-.61-.166,1.449,1.449,0,0,0-.667.191H139.9V4.53h1.6Zm0,5.334a2.131,2.131,0,0,0,1.1.336c1.164,0,1.738-1.164,1.738-2.426,0-1.552-.662-2.53-1.7-2.53a3.068,3.068,0,0,0-1.138.248Z" transform="translate(-67.523 -2.186)"/><path class="a" d="M160.027,17.124h-.362a1.3,1.3,0,0,0-.636-.191,1.842,1.842,0,0,0-.605.166,3.621,3.621,0,0,1-1.288.264,2.954,2.954,0,0,1-2.664-1.505,4,4,0,0,1-.424-1.9,3.461,3.461,0,0,1,1.335-2.892,3.337,3.337,0,0,1,1.992-.626,5.1,5.1,0,0,1,1.552.285l1.1-.248Zm-2.587-5.691c-.89,0-1.728.776-1.728,2.452a2.724,2.724,0,0,0,.724,2.142,1.288,1.288,0,0,0,.89.362,1.842,1.842,0,0,0,1.112-.414V11.712a1.961,1.961,0,0,0-1.014-.285Z" transform="translate(-74.35 -5.039)"/><path class="a" d="M171.038,14.272H169.45V4.53h1.588Z" transform="translate(-81.786 -2.186)"/><path class="a" d="M185.53,6.69l3.13,8.624h-1.826l-.854-2.69h-3.006l-.848,2.69H180.6l2.587-6.948c.362-.978.414-1.454-.285-1.588V6.69Zm-1.035,1.3-1.205,3.7H185.7Z" transform="translate(-87.168 -3.229)"/><path class="a" d="M202.288,12.41a2.7,2.7,0,0,0-1.738-.988c-.574,0-.988.29-.988.714,0,.548.7.74,1.428,1.035,1.035.4,2.214.916,2.214,2.116,0,1.33-1.3,2.106-2.638,2.106a5.494,5.494,0,0,1-2.706-.828l.652-1.159a3.461,3.461,0,0,0,2.069,1.035c.636,0,1.076-.285,1.076-.74,0-.517-.776-.786-1.516-1.112-.962-.424-2.126-.911-2.126-2.1s1.3-2.007,2.613-2.007a5.039,5.039,0,0,1,2.354.693Z" transform="translate(-95.498 -5.058)"/><path class="a" d="M214.678,12.41a2.711,2.711,0,0,0-1.738-.988c-.574,0-.988.29-.988.714,0,.548.7.74,1.428,1.035,1.035.4,2.214.916,2.214,2.116,0,1.33-1.3,2.106-2.644,2.106a5.489,5.489,0,0,1-2.7-.828l.652-1.159a3.466,3.466,0,0,0,2.069,1.035c.642,0,1.081-.285,1.081-.74,0-.517-.781-.786-1.516-1.112-.967-.424-2.131-.911-2.131-2.1s1.3-2.007,2.618-2.007a5.06,5.06,0,0,1,2.354.693Z" transform="translate(-101.478 -5.058)"/><path class="a" d="M226.023,17.381a3.285,3.285,0,0,1-3.316-3.446A3.3,3.3,0,0,1,226,10.48a2.73,2.73,0,0,1,2.918,2.83,4.44,4.44,0,0,1-.036.642l-4.506.088c.124,1.376.911,2.338,1.966,2.338a3.8,3.8,0,0,0,1.95-.662l.45.776a4.511,4.511,0,0,1-2.716.89Zm1.164-4.356c0-1.035-.517-1.6-1.164-1.6-.76,0-1.428.652-1.552,1.728Z" transform="translate(-107.488 -5.058)"/><path class="a" d="M241.265,14.594a4.532,4.532,0,0,1-2.276.75,1.4,1.4,0,0,1-1.092-.44,1.909,1.909,0,0,1-.362-1.273V6.808l1.578-.388V8.686h1.764v.962H239.1v3.87c0,.486.248.652.574.652a3.818,3.818,0,0,0,1.278-.362Z" transform="translate(-114.645 -3.099)"/><path class="a" d="M110.27,43.674H108.6l-.776-7.207-1.93,7.207h-1.376l-1.914-7.207-.8,7.207H100.14l.942-6.9a1.774,1.774,0,0,0-.228-1.3.812.812,0,0,0-.564-.316V35.05h3.1l1.718,6.348a4.139,4.139,0,0,1,.114.517,2.453,2.453,0,0,1,.1-.486l1.712-6.363h2.194Z" transform="translate(-48.333 -16.917)"/><path class="a" d="M128.222,45.479h-.367a1.293,1.293,0,0,0-.636-.186,1.785,1.785,0,0,0-.6.166,3.658,3.658,0,0,1-1.288.259,2.964,2.964,0,0,1-2.67-1.5,4.009,4.009,0,0,1-.424-1.9,3.456,3.456,0,0,1,1.34-2.9,3.373,3.373,0,0,1,1.992-.626,5.091,5.091,0,0,1,1.552.29l1.1-.248Zm-2.587-5.691c-.89,0-1.728.776-1.728,2.452a2.707,2.707,0,0,0,.729,2.142,1.268,1.268,0,0,0,.885.362,1.873,1.873,0,0,0,1.117-.414V40.073a1.992,1.992,0,0,0-1.024-.285Z" transform="translate(-58.996 -18.722)"/><path class="a" d="M141.476,45.472V41.851a2.669,2.669,0,0,0-.264-1.4,1.174,1.174,0,0,0-1.076-.517,2.654,2.654,0,0,0-1.138.3v5.241H137.41V38.98h.362a1.552,1.552,0,0,0,.626.186,2.194,2.194,0,0,0,.662-.124,3.621,3.621,0,0,1,1.34-.264,2.556,2.556,0,0,1,2.24,1.149,3.264,3.264,0,0,1,.429,1.816V45.5h-1.593Z" transform="translate(-66.322 -18.715)"/><path class="a" d="M157.138,45.479h-.383a1.3,1.3,0,0,0-.642-.186,1.852,1.852,0,0,0-.6.166,3.622,3.622,0,0,1-1.288.259,2.954,2.954,0,0,1-2.664-1.5,4.009,4.009,0,0,1-.424-1.9,3.466,3.466,0,0,1,1.355-2.9,3.373,3.373,0,0,1,1.992-.626,5.091,5.091,0,0,1,1.552.29l1.1-.248Zm-2.587-5.691c-.89,0-1.728.776-1.728,2.452a2.724,2.724,0,0,0,.724,2.142,1.288,1.288,0,0,0,.89.362,1.842,1.842,0,0,0,1.112-.414V40.073a1.961,1.961,0,0,0-1.014-.285Z" transform="translate(-72.946 -18.722)"/><path class="a" d="M170.746,39.378a2.214,2.214,0,0,1,.517,1.5,2.621,2.621,0,0,1-2.82,2.514,3.8,3.8,0,0,1-.926-.124c-.238.2-.362.378-.362.517a.34.34,0,0,0,.29.316,8.179,8.179,0,0,0,1.438.135c1.578.062,3.1.414,3.1,2.069a2.111,2.111,0,0,1-.74,1.552,3.9,3.9,0,0,1-2.644.916c-2.292,0-3.254-.792-3.254-1.79a1.7,1.7,0,0,1,1.252-1.4h.414a2.162,2.162,0,0,0-.388,1.138c0,.688.626,1.138,1.868,1.138.926,0,1.976-.4,1.976-1.226s-1.035-.874-1.976-.952a5.887,5.887,0,0,1-1.806-.285,1.2,1.2,0,0,1-.89-1.1,1.852,1.852,0,0,1,.921-1.438,2.416,2.416,0,0,1-1.035-1.987,2.614,2.614,0,0,1,2.788-2.53,2.7,2.7,0,0,1,1.34.3,4.429,4.429,0,0,0,1.754-.828l.548,1.092A4.889,4.889,0,0,1,170.746,39.378Zm-2.276-.129c-.776,0-1.216.693-1.216,1.619s.44,1.614,1.216,1.614,1.226-.688,1.226-1.614S169.246,39.248,168.47,39.248Z" transform="translate(-79.807 -18.249)"/><path class="a" d="M183.113,45.746a3.449,3.449,0,0,1-.026-6.9A2.73,2.73,0,0,1,186,41.68a3.922,3.922,0,0,1-.041.642l-4.506.083c.129,1.381.916,2.344,1.966,2.344a3.875,3.875,0,0,0,1.956-.647l.45.776A4.5,4.5,0,0,1,183.113,45.746Zm1.164-4.356c0-1.035-.517-1.6-1.164-1.6-.766,0-1.428.652-1.552,1.728Z" transform="translate(-86.778 -18.751)"/><path class="a" d="M202.25,45.48V41.688a2.913,2.913,0,0,0-.2-1.19,1.164,1.164,0,0,0-.978-.564,1.971,1.971,0,0,0-1.066.352,4.836,4.836,0,0,1,.1,1.242v3.963H198.52V41.248a1.919,1.919,0,0,0-.124-.812.957.957,0,0,0-.9-.517,2.121,2.121,0,0,0-1.117.367V45.48H194.79V38.988h.2a1.578,1.578,0,0,0,.688.186,16.391,16.391,0,0,1,1.987-.378,2.4,2.4,0,0,1,1.718.59,3.549,3.549,0,0,1,1.966-.59,2.364,2.364,0,0,1,2.1,1.1,3.621,3.621,0,0,1,.378,1.79v3.8h-1.593Z" transform="translate(-94.016 -18.723)"/><path class="a" d="M218.382,45.746a3.449,3.449,0,0,1-.026-6.9,2.73,2.73,0,0,1,2.918,2.83,4.476,4.476,0,0,1-.036.642l-4.506.083c.124,1.381.911,2.344,1.966,2.344a3.844,3.844,0,0,0,1.95-.647l.45.776a4.5,4.5,0,0,1-2.716.869Zm1.164-4.356c0-1.035-.517-1.6-1.164-1.6-.766,0-1.428.652-1.552,1.728Z" transform="translate(-103.801 -18.751)"/><path class="a" d="M234.2,45.474V41.852a2.721,2.721,0,0,0-.264-1.4,1.174,1.174,0,0,0-1.076-.517,2.654,2.654,0,0,0-1.138.3v5.241H230.13V38.981h.362a1.552,1.552,0,0,0,.626.186,2.23,2.23,0,0,0,.667-.124,3.622,3.622,0,0,1,1.34-.264,2.587,2.587,0,0,1,2.219,1.149,3.306,3.306,0,0,1,.424,1.816V45.5H234.2Z" transform="translate(-111.073 -18.717)"/><path class="a" d="M248.115,42.964a4.532,4.532,0,0,1-2.276.729,1.4,1.4,0,0,1-1.092-.44,1.914,1.914,0,0,1-.362-1.278v-6.8l1.578-.388v2.266h1.78V38h-1.78v3.87c0,.486.248.647.574.647a3.7,3.7,0,0,0,1.278-.362Z" transform="translate(-117.951 -16.792)"/></svg>