<?xml version="1.0" standalone="no"?>
<!DOCTYPE svg PUBLIC "-//W3C//DTD SVG 1.1//EN" "http://www.w3.org/Graphics/SVG/1.1/DTD/svg11.dtd" >
<svg xmlns="http://www.w3.org/2000/svg" xmlns:xlink="http://www.w3.org/1999/xlink" version="1.1">
<metadata>
Created by FontForge 20190801 at Thu Apr  9 19:57:09 2020
 By www-data
Copyright (c) 2019 The Manufacturers Life Insurance Company (Manulife) - All Rights Reserved. The information contained herein, including without limitation font and typeface, is proprietary to Manulife and shall not be reproduced, copied in whole or in part, adapted, modified, or disseminated without the express written consent of Manulife.
</metadata>
<defs>
<font id="ManulifeJHSansOptimizedBold" horiz-adv-x="592" >
  <font-face 
    font-family="ManulifeJHSansOptimizedBold"
    font-weight="700"
    font-stretch="normal"
    units-per-em="1000"
    panose-1="0 0 8 0 0 0 0 0 0 0"
    ascent="800"
    descent="-200"
    x-height="533"
    cap-height="741"
    bbox="-434 -238 1162 1056"
    underline-thickness="118"
    underline-position="-171"
    unicode-range="U+000D-FB02"
  />
<missing-glyph horiz-adv-x="732" 
d="M95 0v741h542v-741h-542z" />
    <glyph glyph-name="f_i" unicode="fi" horiz-adv-x="642" 
d="M94 0v416h-70v117h70v57q0 70 43 118t127 48q61 0 114 -24l-38 -107q-30 11 -53 11q-52 0 -52 -63v-40h116l-22 -117h-94v-416h-141zM492 591q-33 0 -57.5 24.5t-24.5 57.5q0 34 24.5 58t57.5 24q34 0 58 -24t24 -58q0 -33 -24 -57.5t-58 -24.5zM422 0v533h141v-533h-141
z" />
    <glyph glyph-name="f_l" unicode="fl" horiz-adv-x="642" 
d="M422 0v722l141 57v-779h-141zM94 0v416h-70v117h70v57q0 70 43 118t127 48q61 0 114 -24l-38 -107q-30 11 -53 11q-52 0 -52 -63v-40h116l-22 -117h-94v-416h-141z" />
    <glyph glyph-name=".notdef" horiz-adv-x="732" 
d="M95 0v741h542v-741h-542z" />
    <glyph glyph-name=".null" horiz-adv-x="0" 
 />
    <glyph glyph-name="nonmarkingreturn" horiz-adv-x="333" 
 />
    <glyph glyph-name="CR" unicode="&#xd;" horiz-adv-x="296" 
 />
    <glyph glyph-name="space" unicode=" " horiz-adv-x="222" 
 />
    <glyph glyph-name="space" unicode="&#xa0;" horiz-adv-x="222" 
 />
    <glyph glyph-name="exclam" unicode="!" horiz-adv-x="335" 
d="M110 226l-22 515h161l-22 -515h-117zM168 -10q-35 0 -60.5 25.5t-25.5 60.5t25.5 60.5t60.5 25.5t60 -25.5t25 -60.5t-25.5 -60.5t-59.5 -25.5z" />
    <glyph glyph-name="quotedbl" unicode="&#x22;" horiz-adv-x="402" 
d="M55 475v266h116v-266h-116zM231 475v266h116v-266h-116z" />
    <glyph glyph-name="numbersign" unicode="#" 
d="M554 428h-98l-22 -115h84v-105h-104l-40 -208h-101l40 208h-96l-40 -208h-101l40 208h-78v105h98l22 115h-84v105h104l40 208h101l-40 -208h96l40 208h101l-40 -208h78v-105zM333 313l22 115h-96l-22 -115h96z" />
    <glyph glyph-name="dollar" unicode="$" 
d="M561 212q0 -88 -55.5 -146.5t-143.5 -71.5v-90h-92v89q-152 19 -235 163l116 86q50 -127 163 -127q47 0 77 21t30 64q0 27 -26 51t-65 40t-84 39t-84 48t-65 66.5t-26 94.5q0 82 55 140t144 69v89h92v-89q120 -17 180 -141l-109 -79q-19 51 -48.5 74.5t-74.5 23.5
q-41 0 -70 -20t-29 -55q0 -29 26 -53t65 -40t84 -39t84 -47t65 -65.5t26 -94.5z" />
    <glyph glyph-name="percent" unicode="%" horiz-adv-x="812" 
d="M187 370q-81 0 -120 53t-39 132q0 39 7.5 72t24.5 62.5t49.5 46t77.5 16.5q85 0 122 -56.5t37 -140.5q0 -78 -39 -131.5t-120 -53.5zM173 0l376 741h89l-375 -741h-90zM187 456q49 0 49 99q0 27 -1 40t-5 33.5t-14.5 29.5t-28.5 9t-29 -9t-15 -29.5t-5 -33.5t-1 -40
q0 -20 1.5 -35t6 -31t15.5 -24.5t27 -8.5zM625 -11q-81 0 -120 53t-39 131q0 39 7.5 72t24.5 62.5t49.5 46t77.5 16.5t77.5 -16.5t49.5 -46t24.5 -62.5t7.5 -72q0 -78 -39 -131t-120 -53zM625 74q49 0 49 99q0 27 -1 40t-5 33.5t-14.5 29.5t-28.5 9t-29 -9t-15 -29.5
t-5 -33.5t-1 -40q0 -99 50 -99z" />
    <glyph glyph-name="ampersand" unicode="&#x26;" horiz-adv-x="679" 
d="M562 158q63 -31 110 -30l-7 -132q-84 -6 -192 60q-85 -67 -193 -67q-95 0 -169 55.5t-74 146.5q0 71 34 117.5t94 82.5q-48 98 -48 172q0 79 53 134t140 55q72 0 122.5 -48.5t50.5 -120.5q0 -44 -12.5 -79t-36.5 -61t-47 -42t-57 -35q55 -76 129 -138q48 81 51 164
l120 -64q-19 -92 -68 -170zM243 570q0 -51 33 -117q42 25 65 53t23 66q0 30 -15.5 49.5t-42.5 19.5q-29 0 -46 -20t-17 -51zM298 106q38 0 74 25q-80 69 -150 166q-39 -36 -39 -86q0 -45 34.5 -75t80.5 -30z" />
    <glyph glyph-name="quotesingle" unicode="'" horiz-adv-x="226" 
d="M55 475v266h116v-266h-116z" />
    <glyph glyph-name="parenleft" unicode="(" horiz-adv-x="313" 
d="M260 -192q-93 65 -156 196t-63 295q0 165 63.5 296t155.5 194l50 -79q-71 -59 -115.5 -164.5t-44.5 -245.5q0 -143 45.5 -250t115.5 -161z" />
    <glyph glyph-name="parenright" unicode=")" horiz-adv-x="313" 
d="M53 788q93 -65 156 -196t63 -295q0 -165 -63.5 -296t-155.5 -194l-50 79q71 59 115.5 164.5t44.5 245.5q0 143 -45.5 250t-115.5 161z" />
    <glyph glyph-name="asterisk" unicode="*" horiz-adv-x="448" 
d="M161 397l-79 58l77 91l-116 28l30 93l111 -45l-9 119h97l-8 -119l110 45l31 -93l-116 -28l77 -91l-79 -58l-63 102z" />
    <glyph glyph-name="plus" unicode="+" 
d="M242 0v183h-176v104h176v183h109v-183h176v-104h-176v-183h-109z" />
    <glyph glyph-name="comma" unicode="," horiz-adv-x="277" 
d="M90 -160l-57 43q65 60 84 113q-28 8 -46 29.5t-18 50.5q0 35 25.5 60.5t60.5 25.5t60 -25.5t25 -60.5q0 -53 -40.5 -122.5t-93.5 -113.5z" />
    <glyph glyph-name="hyphen" unicode="-" horiz-adv-x="316" 
d="M33 223v118h250v-118h-250z" />
    <glyph glyph-name="period" unicode="." horiz-adv-x="277" 
d="M139 -10q-35 0 -60.5 25.5t-25.5 60.5t25.5 60.5t60.5 25.5t60 -25.5t25 -60.5t-25.5 -60.5t-59.5 -25.5z" />
    <glyph glyph-name="slash" unicode="/" horiz-adv-x="510" 
d="M0 0l406 741h104l-406 -741h-104z" />
    <glyph glyph-name="zero" unicode="0" 
d="M296 -11q-116 0 -195.5 92t-79.5 283t73.5 289.5t201.5 98.5q129 0 202 -98.5t73 -289.5t-79.5 -283t-195.5 -92zM296 110q35 0 61 18.5t38.5 44t20 64t9 65.5t1.5 62q0 31 -1 52t-4 56.5t-12 59.5t-22.5 49t-36.5 37.5t-54 12.5q-26 0 -47 -10.5t-34 -26t-23 -40.5
t-14.5 -46.5t-7 -52t-3 -48t-0.5 -43.5q0 -29 1 -50.5t4.5 -54.5t12.5 -56.5t22.5 -46t36 -34.5t52.5 -12z" />
    <glyph glyph-name="one" unicode="1" 
d="M108 0v117h124v441q-45 -42 -128 -62l-32 106q143 34 202 139h106v-624h124v-117h-396z" />
    <glyph glyph-name="two" unicode="2" 
d="M52 0v124q29 54 75.5 106.5t90 90.5t83.5 75t64.5 74t24.5 73q0 39 -25 65.5t-64 26.5q-56 0 -84.5 -46.5t-19.5 -111.5l-138 49q-5 104 64.5 165t176.5 61q120 0 181.5 -61.5t61.5 -154.5q0 -54 -25 -102t-65 -85.5t-82.5 -71t-87 -73.5t-68.5 -78h326v-126h-489z" />
    <glyph glyph-name="three" unicode="3" 
d="M290 -15q-96 0 -169 53t-89 147l138 48q3 -60 36 -95.5t88 -35.5q43 0 74.5 32.5t31.5 76.5q0 122 -143 122q-25 0 -52 -3v115q33 -7 56 -7q55 0 90.5 27t35.5 81q0 39 -26.5 64t-67.5 25q-42 0 -73 -33.5t-33 -79.5l-129 63q24 76 91.5 121.5t151.5 45.5q91 0 161 -55
t70 -146q0 -57 -28 -93.5t-84 -64.5q58 -22 92 -67t34 -106q0 -105 -76 -170t-180 -65z" />
    <glyph glyph-name="four" unicode="4" 
d="M321 0v172h-291v108l266 461h174v-451h92v-118h-92v-172h-149zM175 290h146v263h-2z" />
    <glyph glyph-name="five" unicode="5" 
d="M282 -15q-85 0 -152.5 45.5t-87.5 132.5l133 61q5 -56 35.5 -89t76.5 -33q52 0 84 42t32 101q0 57 -30.5 99.5t-84.5 42.5q-37 0 -65 -20.5t-37 -54.5l-129 31l12 398h414v-126h-293l-4 -158q62 55 143 55q102 0 164 -75t62 -179q0 -117 -79 -195t-194 -78z" />
    <glyph glyph-name="six" unicode="6" 
d="M311 -15q-54 0 -102 21.5t-87.5 65t-62.5 118.5t-23 174q0 189 81 288.5t205 99.5q141 0 206 -113l-98 -98q-33 86 -106 86q-43 0 -74 -30t-43.5 -70t-11.5 -81q79 43 137 43q81 0 152.5 -62.5t71.5 -176.5q0 -64 -24 -116.5t-61.5 -84t-79 -48t-80.5 -16.5zM301 110
q53 0 81 38t28 94q0 48 -26 84.5t-73 36.5q-58 0 -121 -56q0 -31 4.5 -62t16 -63t34.5 -52t56 -20z" />
    <glyph glyph-name="seven" unicode="7" 
d="M108 0q25 319 262 615h-306v126h481v-81q-118 -160 -190 -332.5t-79 -327.5h-168z" />
    <glyph glyph-name="eight" unicode="8" 
d="M425 390q61 -34 95.5 -78.5t34.5 -112.5q0 -83 -69 -148.5t-192 -65.5q-121 0 -189 64t-68 141q0 119 128 193q-106 65 -106 173q0 86 66.5 141t169.5 55q101 0 168 -52t67 -134q0 -108 -105 -176zM201 556q0 -35 25 -59.5t72 -47.5q44 24 67.5 48.5t23.5 58.5
q0 33 -26.5 53.5t-67.5 20.5t-67.5 -20.5t-26.5 -53.5zM296 107q55 0 84.5 24t29.5 68q0 42 -30 68.5t-88 53.5q-53 -26 -81 -54t-28 -68q0 -42 32 -67t81 -25z" />
    <glyph glyph-name="nine" unicode="9" 
d="M270 -15q-72 0 -129.5 35t-94.5 94l115 76q16 -34 44 -57t64 -23q62 0 96 59.5t32 125.5q-76 -43 -137 -43q-36 0 -73.5 14t-72 41.5t-56.5 75t-22 107.5q0 52 16 96t42 74t58.5 51.5t65.5 31t63 9.5q54 0 102 -21t87.5 -63.5t62.5 -117.5t23 -173q0 -190 -81 -291
t-205 -101zM281 378q60 0 121 56q1 43 -6.5 83.5t-34.5 75t-70 34.5q-53 0 -81 -37t-28 -93q0 -48 26 -83.5t73 -35.5z" />
    <glyph glyph-name="colon" unicode=":" horiz-adv-x="277" 
d="M139 317q-35 0 -60.5 25.5t-25.5 60.5t25.5 60.5t60.5 25.5t60 -25.5t25 -60.5t-25.5 -60.5t-59.5 -25.5zM139 -10q-35 0 -60.5 25.5t-25.5 60.5t25.5 60.5t60.5 25.5t60 -25.5t25 -60.5t-25.5 -60.5t-59.5 -25.5z" />
    <glyph glyph-name="semicolon" unicode=";" horiz-adv-x="277" 
d="M139 317q-35 0 -60.5 25.5t-25.5 60.5t25.5 60.5t60.5 25.5t60 -25.5t25 -60.5t-25.5 -60.5t-59.5 -25.5zM90 -160l-57 43q65 60 84 113q-28 8 -46 29.5t-18 50.5q0 35 25.5 60.5t60.5 25.5t60 -25.5t25 -60.5q0 -53 -40.5 -122.5t-93.5 -113.5z" />
    <glyph glyph-name="less" unicode="&#x3c;" 
d="M527 16l-461 159v118l461 162v-103l-348 -117l348 -116v-103z" />
    <glyph glyph-name="equal" unicode="=" 
d="M66 298v104h461v-104h-461zM66 68v103h461v-103h-461z" />
    <glyph glyph-name="greater" unicode="&#x3e;" 
d="M66 16v103l347 116l-347 117v103l461 -162v-118z" />
    <glyph glyph-name="question" unicode="?" horiz-adv-x="456" 
d="M129 226v31q0 55 26 105t57 80.5t57 67.5t26 69q0 23 -16.5 39.5t-39.5 16.5q-35 0 -60.5 -25t-29.5 -67l-106 67q16 65 70 103.5t121 38.5q83 0 136 -42.5t53 -123.5q0 -47 -17 -84t-41.5 -62t-49.5 -50t-42 -62t-17 -85v-17h-127zM191 -10q-34 0 -59.5 25.5t-25.5 60.5
t25 60.5t60 25.5t60.5 -25.5t25.5 -60.5t-25.5 -60.5t-60.5 -25.5z" />
    <glyph glyph-name="at" unicode="@" horiz-adv-x="819" 
d="M416 -107q-171 0 -279.5 110t-108.5 271t108 272t272 111t273.5 -110t109.5 -259q0 -107 -58.5 -164t-146.5 -57t-117 62q-29 -35 -56 -48.5t-62 -13.5q-70 0 -112 43t-42 120q0 104 61 176.5t147 72.5q76 0 103 -60h1l13 42h97l-69 -261q-10 -50 49 -50q50 0 79.5 36
t29.5 105q0 119 -85.5 200.5t-212.5 81.5q-125 0 -212 -82t-87 -217q0 -134 87 -215.5t226 -81.5q110 0 194 49l-11 -91q-33 -19 -87 -30.5t-104 -11.5zM367 150q53 0 82 55.5t29 116.5q0 73 -58 73q-51 0 -82 -45t-31 -113q0 -87 60 -87z" />
    <glyph glyph-name="A" unicode="A" horiz-adv-x="618" 
d="M477 0l-53 186h-230l-53 -186h-151l236 741h162l240 -741h-151zM227 303h164l-80 282h-4z" />
    <glyph glyph-name="B" unicode="B" horiz-adv-x="657" 
d="M90 0v741h214q169 0 235 -52.5t66 -151.5q0 -101 -94 -153q51 -25 79.5 -70t28.5 -101q0 -94 -68 -153.5t-171 -59.5h-290zM239 440h66q35 0 58 3t45 11.5t33 27.5t11 48q0 30 -11 49.5t-33.5 29t-46.5 12.5t-58 3h-64v-184zM239 117h96q70 0 100.5 23.5t30.5 83.5
q0 59 -38 81.5t-116 22.5h-73v-211z" />
    <glyph glyph-name="C" unicode="C" horiz-adv-x="636" 
d="M340 -15q-76 0 -136.5 33.5t-96.5 89t-54.5 122.5t-18.5 139t18.5 138.5t54.5 122t96.5 89t136.5 33.5q106 0 176.5 -54.5t95.5 -155.5l-135 -68q-4 70 -39 115.5t-98 45.5q-45 0 -77.5 -27t-48 -71t-22 -85.5t-6.5 -82.5q0 -42 6.5 -83.5t22 -85.5t48 -71t77.5 -27
q62 0 97.5 46.5t39.5 116.5l134 -72q-24 -98 -95 -153t-176 -55z" />
    <glyph glyph-name="D" unicode="D" horiz-adv-x="687" 
d="M90 0v741h201q187 0 274.5 -100.5t87.5 -270.5q0 -163 -85 -266.5t-245 -103.5h-233zM239 126h72q190 0 190 262q0 116 -50.5 171.5t-155.5 55.5h-56v-489z" />
    <glyph glyph-name="E" unicode="E" horiz-adv-x="608" 
d="M90 0v741h461v-126h-312v-177h259v-126h-259v-186h330v-126h-479z" />
    <glyph glyph-name="F" unicode="F" horiz-adv-x="570" 
d="M90 0v741h461v-126h-312v-177h241v-126h-241v-312h-149z" />
    <glyph glyph-name="G" unicode="G" horiz-adv-x="653" 
d="M340 -11q-76 0 -136.5 33t-96.5 88t-54.5 121.5t-18.5 138.5q0 73 18.5 139t55 121.5t97.5 88.5t139 33q108 0 175.5 -53t88.5 -148l-128 -59q-18 143 -140 143q-45 0 -77.5 -27t-48 -70.5t-22 -84.5t-6.5 -83q0 -41 6.5 -82t22 -84.5t48 -70.5t77.5 -27q73 0 102 34.5
t29 100.5v14h-130v117h272v-372h-104l-13 59q-45 -70 -156 -70z" />
    <glyph glyph-name="H" unicode="H" horiz-adv-x="722" 
d="M90 0v741h149v-290h245v290h148v-741h-148v326h-245v-326h-149z" />
    <glyph glyph-name="I" unicode="I" horiz-adv-x="329" 
d="M90 0v741h149v-741h-149z" />
    <glyph glyph-name="J" unicode="J" horiz-adv-x="521" 
d="M214 -11q-99 0 -150.5 45.5t-47.5 138.5l134 56q-6 -55 12 -89t56 -34q31 0 50.5 24.5t19.5 70.5v540h148v-512q0 -240 -222 -240z" />
    <glyph glyph-name="K" unicode="K" horiz-adv-x="668" 
d="M665 0h-170l-180 330l-76 -100v-230h-149v741h149v-310l226 310h172l-221 -290z" />
    <glyph glyph-name="L" unicode="L" horiz-adv-x="566" 
d="M90 0v741h149v-615h308v-126h-457z" />
    <glyph glyph-name="M" unicode="M" horiz-adv-x="889" 
d="M90 0v741h170l185 -303h2l186 303h166v-741h-149v520h-2l-203 -331l-204 331h-2v-520h-149z" />
    <glyph glyph-name="N" unicode="N" horiz-adv-x="770" 
d="M90 0v741h167l275 -491h2v491h146v-741h-156l-286 510h-2v-510h-146z" />
    <glyph glyph-name="O" unicode="O" horiz-adv-x="679" 
d="M340 -15q-76 0 -136.5 33.5t-96.5 89t-54.5 122.5t-18.5 139t18.5 138.5t54.5 122t96.5 89t136.5 33.5t136 -33.5t96 -89t54.5 -122t18.5 -138.5t-18.5 -139t-54.5 -122.5t-96 -89t-136 -33.5zM340 102q45 0 77 27t47.5 71t22 85.5t6.5 83.5q0 41 -6.5 82.5t-22 85.5
t-47.5 71t-77 27t-77.5 -27t-48 -71t-22 -85.5t-6.5 -82.5q0 -42 6.5 -83.5t22 -85.5t48 -71t77.5 -27z" />
    <glyph glyph-name="P" unicode="P" horiz-adv-x="637" 
d="M90 0v741h286q109 0 176.5 -63t67.5 -164q0 -45 -14.5 -84t-45.5 -73t-87.5 -53.5t-133.5 -19.5h-100v-284h-149zM239 410h87q66 0 103.5 22.5t37.5 79.5q0 103 -118 103h-110v-205z" />
    <glyph glyph-name="Q" unicode="Q" horiz-adv-x="679" 
d="M397 -10q1 -37 20 -56t62 -19q29 0 69 9l-44 -106q-38 -6 -59 -6q-165 0 -168 179q-80 17 -136.5 76.5t-81.5 137t-25 164.5q0 72 18.5 138.5t54.5 122t96.5 89t136.5 33.5t136 -33.5t96 -89t54.5 -122t18.5 -138.5q0 -88 -25.5 -166t-83 -138t-139.5 -75zM186 369
q0 -42 6.5 -83.5t22 -85.5t48 -71t77.5 -27t77 27t47.5 71t22 85.5t6.5 83.5q0 41 -6.5 82.5t-22 85.5t-47.5 71t-77 27t-77.5 -27t-48 -71t-22 -85.5t-6.5 -82.5z" />
    <glyph glyph-name="R" unicode="R" horiz-adv-x="661" 
d="M642 0h-157l-133 302h-13h-100v-302h-149v741h293q61 0 108.5 -20.5t74.5 -53.5t40.5 -70t13.5 -74q0 -136 -125 -192zM239 428h107q121 0 121 91q0 46 -26 71t-74 25h-128v-187z" />
    <glyph glyph-name="S" unicode="S" horiz-adv-x="583" 
d="M296 -11q-212 0 -260 178l142 72q3 -58 34.5 -93.5t82.5 -35.5q46 0 76.5 24t30.5 70q0 26 -15 46t-39.5 31.5t-56 23.5t-64 21.5t-64 26.5t-56 38t-39.5 56.5t-15 80.5q0 98 71 161t170 63q91 0 153 -47.5t77 -132.5l-132 -62q-4 49 -32 84.5t-71 35.5q-37 0 -63.5 -24
t-26.5 -61q0 -29 19 -49.5t50 -33t68 -23.5t74 -27.5t68 -39.5t50 -64.5t19 -97.5q0 -36 -14 -73t-42 -71t-79 -55.5t-116 -21.5z" />
    <glyph glyph-name="T" unicode="T" horiz-adv-x="549" 
d="M200 0v615h-192v126h533v-126h-192v-615h-149z" />
    <glyph glyph-name="U" unicode="U" horiz-adv-x="692" 
d="M346 -11q-119 0 -190 63.5t-71 176.5v512h149v-465q0 -90 27 -126t85 -36q59 0 86 36t27 126v465h148v-512q0 -113 -71 -176.5t-190 -63.5z" />
    <glyph glyph-name="V" unicode="V" horiz-adv-x="567" 
d="M216 0l-226 741h153l139 -551h2l139 551h154l-226 -741h-135z" />
    <glyph glyph-name="W" unicode="W" horiz-adv-x="815" 
d="M149 0l-157 741h147l89 -522h2l92 522h164l92 -522h2l96 522h147l-169 -741h-152l-99 512h-2l-100 -512h-152z" />
    <glyph glyph-name="X" unicode="X" horiz-adv-x="614" 
d="M389 377l225 -377h-173l-133 241h-2l-141 -241h-165l226 378l-206 363h173l118 -237h2l128 237h165z" />
    <glyph glyph-name="Y" unicode="Y" horiz-adv-x="617" 
d="M233 0v299l-243 442h158l159 -324h2l165 324h153l-246 -442v-299h-148z" />
    <glyph glyph-name="Z" unicode="Z" horiz-adv-x="559" 
d="M521 741v-120l-313 -495h313v-126h-483v116l312 499h-302v126h473z" />
    <glyph glyph-name="bracketleft" unicode="[" horiz-adv-x="313" 
d="M74 -182v923h239v-102h-129v-719h129v-102h-239z" />
    <glyph glyph-name="backslash" unicode="\" horiz-adv-x="511" 
d="M406 0l-406 741h106l405 -741h-105z" />
    <glyph glyph-name="bracketright" unicode="]" horiz-adv-x="313" 
d="M239 741v-923h-239v102h129v719h-129v102h239z" />
    <glyph glyph-name="asciicircum" unicode="^" horiz-adv-x="557" 
d="M59 336l159 405h118l162 -405h-103l-117 292l-116 -292h-103z" />
    <glyph glyph-name="underscore" unicode="_" horiz-adv-x="404" 
d="M-17 -167v118h438v-118h-438z" />
    <glyph glyph-name="grave" unicode="`" horiz-adv-x="287" 
d="M146 604l-98 137h135l56 -137h-93z" />
    <glyph glyph-name="a" unicode="a" horiz-adv-x="570" 
d="M212 -11q-75 0 -123.5 44t-48.5 117q0 82 55.5 123t177.5 57q52 8 67.5 17t15.5 36q0 25 -17 40t-47 15q-79 0 -129 -74l-75 87q71 94 208 94q100 0 148.5 -45t48.5 -124v-376h-134v58q-36 -37 -68.5 -53t-78.5 -16zM240 92q60 0 112 70v82h-2l-74 -11q-98 -13 -98 -81
q0 -26 15.5 -43t46.5 -17z" />
    <glyph glyph-name="b" unicode="b" 
d="M340 -11q-42 0 -72 13t-63 43v-45h-126v722l141 57v-298q25 22 40 33t39.5 21t51.5 10q31 0 63 -14.5t63 -43.5t50 -83t19 -124q0 -156 -57.5 -223.5t-148.5 -67.5zM311 92q97 0 97 169q0 26 -4 50.5t-13.5 50t-29 41.5t-47.5 16q-44 0 -94 -58v-206q42 -63 91 -63z" />
    <glyph glyph-name="c" unicode="c" horiz-adv-x="524" 
d="M272 -11q-110 0 -172 82t-62 196q0 115 61.5 196.5t172.5 81.5q92 0 141 -41.5t76 -118.5l-119 -55q-5 24 -10 39.5t-15.5 34t-28.5 28t-44 9.5q-27 0 -46 -17t-27.5 -46t-12 -55.5t-3.5 -55.5t3.5 -56t12 -56t27.5 -46t46 -17q26 0 44 9.5t28 28.5t15 34.5t10 40.5
l121 -53q-22 -75 -80.5 -119t-137.5 -44z" />
    <glyph glyph-name="d" unicode="d" 
d="M252 -11q-91 0 -148.5 67.5t-57.5 223.5q0 70 19 124t50 83t63 43.5t63 14.5q27 0 51.5 -10t39.5 -21t40 -33v241l141 57v-779h-125v45q-34 -30 -63.5 -43t-72.5 -13zM281 109q53 0 91 61v205q-46 58 -94 58q-28 0 -47.5 -16t-29 -41.5t-13.5 -50t-4 -50.5
q0 -166 97 -166z" />
    <glyph glyph-name="e" unicode="e" horiz-adv-x="541" 
d="M272 -11q-110 0 -172 82t-62 196q0 115 64 196.5t178 81.5q225 0 225 -299v-13h-325q-4 -52 24.5 -95.5t79.5 -43.5q40 0 71.5 24.5t48.5 62.5l87 -73q-77 -119 -219 -119zM184 322h183q0 51 -22 85t-69 34q-44 0 -67 -35t-25 -84z" />
    <glyph glyph-name="f" unicode="f" horiz-adv-x="343" 
d="M94 0v416h-70v117h70v57q0 70 43 118t127 48q60 0 116 -25l-38 -107q-33 12 -54 12q-53 0 -53 -63v-40h116l-22 -117h-94v-416h-141z" />
    <glyph glyph-name="g" unicode="g" horiz-adv-x="553" 
d="M386 110q159 -9 159 -126q0 -171 -264 -171q-129 0 -188.5 39.5t-59.5 98.5q0 51 57 85q-38 31 -38 73q0 27 13.5 52.5t48.5 62.5q-62 55 -62 134q0 85 63 136t152 51q73 0 131 -37q46 43 99 43q19 0 39 -3v-99q-31 11 -45 11q-17 0 -34 -12q25 -42 25 -90
q0 -85 -63 -136t-153 -51q-35 0 -72 10q-19 -17 -19 -34q0 -15 14.5 -21.5t52.5 -8.5zM267 453q-41 0 -59 -28.5t-18 -68.5q0 -42 19 -67.5t57 -25.5q41 0 59.5 28.5t18.5 68.5q0 42 -19 67.5t-58 25.5zM282 -90q52 0 99.5 11t47.5 40q0 17 -21 22.5t-82 8.5l-143 10
q-2 0 -6 0.5t-5 0.5q-24 -13 -24 -37q0 -56 134 -56z" />
    <glyph glyph-name="h" unicode="h" horiz-adv-x="596" 
d="M79 0v722l141 57v-301q81 67 157 67q56 0 99 -39t43 -128v-378h-141v327q0 24 -1.5 39.5t-7 31.5t-17.5 24t-31 8q-42 0 -101 -54v-376h-141z" />
    <glyph glyph-name="i" unicode="i" horiz-adv-x="299" 
d="M149 591q-33 0 -57.5 24.5t-24.5 57.5q0 34 24.5 58t57.5 24q34 0 58 -24t24 -58q0 -33 -24 -57.5t-58 -24.5zM79 0v533h141v-533h-141z" />
    <glyph glyph-name="j" unicode="j" horiz-adv-x="299" 
d="M149 591q-33 0 -57.5 24.5t-24.5 57.5q0 34 24.5 58t57.5 24q34 0 58 -24t24 -58q0 -33 -24 -57.5t-58 -24.5zM42 -186q-32 0 -61 4v113q32 -4 42 -4q30 0 43 18t13 63v525h141v-529q0 -96 -41.5 -143t-136.5 -47z" />
    <glyph glyph-name="k" unicode="k" horiz-adv-x="552" 
d="M546 0h-158l-119 223l-49 -62v-161h-141v722l141 57v-328q0 -84 -2 -126h1q54 80 79 113l70 95h162l-163 -202z" />
    <glyph glyph-name="l" unicode="l" horiz-adv-x="299" 
d="M79 0v722l141 57v-779h-141z" />
    <glyph glyph-name="m" unicode="m" horiz-adv-x="906" 
d="M79 0v533h141v-55q81 67 159 67q96 0 136 -74q44 36 82 55t83 19q65 0 107 -42t42 -117v-386h-141v348q0 25 -2.5 40.5t-15.5 29t-38 13.5q-64 0 -107 -62v-369h-141v349q0 25 -2.5 40t-16 28.5t-38.5 13.5q-63 0 -107 -62v-369h-141z" />
    <glyph glyph-name="n" unicode="n" horiz-adv-x="596" 
d="M79 0v533h141v-55q81 67 157 67q56 0 99 -39t43 -128v-378h-141v327q0 24 -1.5 39.5t-7 31.5t-17.5 24t-31 8q-42 0 -101 -54v-376h-141z" />
    <glyph glyph-name="o" unicode="o" horiz-adv-x="544" 
d="M272 -11q-74 0 -128.5 40t-80 102t-25.5 136q0 116 61.5 197t172.5 81t172.5 -81t61.5 -197q0 -74 -25.5 -136t-80 -102t-128.5 -40zM272 92q27 0 46 17t28 46t12.5 56t3.5 56t-3.5 56t-12.5 55.5t-28 45.5t-46 17t-46 -17t-27.5 -46t-12 -55.5t-3.5 -55.5t3.5 -56
t12 -56t27.5 -46t46 -17z" />
    <glyph glyph-name="p" unicode="p" 
d="M79 -182v715h141v-52q25 22 40 33t39.5 21t51.5 10q31 0 63 -14.5t63 -43.5t50 -83t19 -124q0 -156 -57.5 -223.5t-148.5 -67.5q-66 0 -120 49v-220h-141zM311 92q97 0 97 169q0 26 -4 50.5t-13.5 50t-29 41.5t-47.5 16q-44 0 -94 -58v-206q42 -63 91 -63z" />
    <glyph glyph-name="q" unicode="q" 
d="M372 -201v235q-68 -45 -120 -45q-91 0 -148.5 67.5t-57.5 223.5q0 70 19 124t50 83t63 43.5t63 14.5q50 0 77 -12.5t59 -43.5v44h136v-696zM291 103q40 0 81 36v243q-30 40 -81 40q-59 0 -83 -47t-24 -112q0 -40 8.5 -73.5t33.5 -60t65 -26.5z" />
    <glyph glyph-name="r" unicode="r" horiz-adv-x="422" 
d="M79 0v533h141v-93q35 52 72.5 78.5t90.5 26.5l26 -2v-139q-15 3 -35 3q-44 0 -78.5 -23.5t-75.5 -73.5v-310h-141z" />
    <glyph glyph-name="s" unicode="s" horiz-adv-x="464" 
d="M235 -11q-130 0 -198 108l89 86q46 -85 116 -85q24 0 43.5 12t19.5 37q0 26 -26.5 40.5t-64.5 23.5t-76.5 22t-65 47t-26.5 88q0 83 56.5 130t137.5 47q104 0 172 -84l-70 -91q-58 65 -107 65q-29 0 -44 -15t-15 -36q0 -25 26.5 -40t64.5 -24.5t76 -23t64.5 -47.5
t26.5 -88q0 -84 -57.5 -128t-141.5 -44z" />
    <glyph glyph-name="t" unicode="t" horiz-adv-x="368" 
d="M253 -11q-81 0 -120.5 39.5t-39.5 125.5v262h-66v117h66v124l141 67v-191h110v-117h-110v-267q0 -53 51 -53q29 0 59 16v-110q-39 -13 -91 -13z" />
    <glyph glyph-name="u" unicode="u" horiz-adv-x="596" 
d="M217 -11q-54 0 -97 39t-43 127v378h141v-328q0 -22 1 -35.5t6 -31.5t18 -27t33 -9q46 0 100 58v373h141v-533h-141v55q-80 -66 -159 -66z" />
    <glyph glyph-name="v" unicode="v" horiz-adv-x="470" 
d="M163 0l-166 533h148l93 -382h2l92 382h141l-161 -533h-149z" />
    <glyph glyph-name="w" unicode="w" horiz-adv-x="659" 
d="M129 0l-129 533h129l64 -353h2l68 353h142l59 -353h2l72 353h121l-136 -533h-133l-62 357h-2l-65 -357h-132z" />
    <glyph glyph-name="x" unicode="x" horiz-adv-x="516" 
d="M336 279l176 -279h-159l-98 171h-2l-96 -171h-153l176 269l-166 264h159l87 -151h2l89 151h154z" />
    <glyph glyph-name="y" unicode="y" horiz-adv-x="497" 
d="M113 -196q-42 0 -90 10v121q39 -13 61 -13q44 0 66.5 22.5t36.5 68.5l-190 520h152l107 -349h2l97 349h145l-206 -576q-14 -40 -27 -65.5t-33.5 -47t-50 -31t-70.5 -9.5z" />
    <glyph glyph-name="z" unicode="z" horiz-adv-x="489" 
d="M457 533v-100l-249 -322h249v-111h-425v95l245 327h-229v111h409z" />
    <glyph glyph-name="braceleft" unicode="{" horiz-adv-x="323" 
d="M249 -182q-137 0 -137 164v166q0 39 -20.5 62t-57.5 23v93q37 0 57.5 23t20.5 62v166q0 164 137 164h74v-97h-38q-36 0 -49.5 -21.5t-13.5 -65.5v-142q0 -54 -26.5 -89.5t-65.5 -44.5v-3q39 -9 65.5 -44.5t26.5 -89.5v-142q0 -44 13.5 -65.5t49.5 -21.5h38v-97h-74z" />
    <glyph glyph-name="bar" unicode="|" horiz-adv-x="268" 
d="M79 -238v978h110v-978h-110z" />
    <glyph glyph-name="braceright" unicode="}" horiz-adv-x="323" 
d="M74 741q137 0 137 -164v-166q0 -39 20.5 -62t57.5 -23v-93q-37 0 -57.5 -23t-20.5 -62v-166q0 -164 -137 -164h-74v97h38q36 0 49.5 21.5t13.5 65.5v142q0 54 26.5 89.5t65.5 44.5v3q-39 9 -65.5 44.5t-26.5 89.5v142q0 44 -13.5 65.5t-49.5 21.5h-38v97h74z" />
    <glyph glyph-name="asciitilde" unicode="~" 
d="M147 162h-81q-5 52 33 99t93 47q35 0 113.5 -17.5t99.5 -17.5q34 0 41 35h79q3 -54 -33.5 -100t-94.5 -46q-34 0 -112 18.5t-96 18.5q-17 0 -28.5 -11t-13.5 -26z" />
    <glyph glyph-name="exclamdown" unicode="&#xa1;" horiz-adv-x="335" 
d="M168 543q34 0 59.5 -25.5t25.5 -60.5t-25 -60.5t-60 -25.5t-60.5 25.5t-25.5 60.5t25.5 60.5t60.5 25.5zM110 307h117l22 -515h-161z" />
    <glyph glyph-name="cent" unicode="&#xa2;" 
d="M529 267q-19 -61 -62 -104t-106 -55v-108h-91v106q-95 16 -144.5 96.5t-49.5 178.5q0 117 54 188t140 86v86h91v-86q118 -20 167 -156l-119 -55q-5 24 -10 39.5t-15 34t-26.5 28t-39.5 9.5q-51 0 -74 -43t-23 -131q0 -174 89 -174q26 0 44 9.5t28.5 28.5t15.5 34t10 40z
" />
    <glyph glyph-name="sterling" unicode="&#xa3;" 
d="M500 174l108 -51q-58 -134 -162 -134q-60 0 -152 69q-61 -69 -156 -69q-62 0 -102 34.5t-40 96.5q0 53 36.5 88.5t89.5 35.5q43 0 91 -20q-6 52 -30 116h-124v106h85q-13 49 -13 104q0 92 63.5 147t157.5 55q131 0 188 -106l-105 -96q-8 37 -31.5 61t-53.5 24
q-34 0 -51.5 -24.5t-17.5 -60.5q0 -45 19 -104h150v-106h-115q17 -58 17 -112q0 -40 -9 -76q62 -38 84 -38q48 0 73 60zM141 78q18 0 37 12.5t29 32.5q-41 27 -66 27q-41 0 -41 -34q0 -17 12 -27.5t29 -10.5z" />
    <glyph glyph-name="currency" unicode="&#xa4;" 
d="M543 389q0 -77 -41 -137l42 -40l-71 -72l-43 42q-63 -41 -135 -41q-73 0 -133 40l-42 -41l-71 72l40 40q-39 62 -39 135q0 72 39 134l-40 41l71 71l41 -40q63 41 136 41t136 -41l40 40l71 -71l-40 -39q39 -62 39 -134zM296 240q63 0 104.5 43t41.5 105t-41.5 104.5
t-104.5 42.5t-104.5 -42.5t-41.5 -104.5t41.5 -105t104.5 -43z" />
    <glyph glyph-name="yen" unicode="&#xa5;" 
d="M558 741l-161 -377h120v-104h-147v-70h147v-103h-147v-87h-149v87h-146v103h146v70h-146v104h119l-159 377h149l111 -305h2l117 305h144z" />
    <glyph glyph-name="brokenbar" unicode="&#xa6;" horiz-adv-x="268" 
d="M79 370v370h110v-370h-110zM79 -238v403h110v-403h-110z" />
    <glyph glyph-name="section" unicode="&#xa7;" horiz-adv-x="583" 
d="M455 123q50 -48 50 -122q0 -79 -62.5 -133t-150.5 -54q-141 0 -207 118l105 84q13 -36 39 -60.5t63 -24.5q32 0 53.5 15t21.5 44t-34 49t-82 36t-96 37t-82 64.5t-34 105.5q0 91 90 161q-51 49 -51 123q0 78 62 132t150 54q144 0 207 -118l-105 -84q-13 36 -38.5 60.5
t-63.5 24.5q-32 0 -53.5 -15t-21.5 -43q0 -29 34 -49t82 -36t96.5 -37.5t82.5 -64.5t34 -105q0 -89 -89 -162zM163 310q0 -25 20.5 -45.5t44.5 -31t70.5 -28t70.5 -28.5q51 39 51 80q0 21 -11.5 37t-34.5 28.5t-45 21.5t-57.5 22t-57.5 23q-51 -37 -51 -79z" />
    <glyph glyph-name="dieresis" unicode="&#xa8;" horiz-adv-x="423" 
d="M120 600q-30 0 -51 21t-21 51t21 51.5t51 21.5t51.5 -21.5t21.5 -51.5t-21.5 -51t-51.5 -21zM303 600q-30 0 -51.5 21t-21.5 51t21.5 51.5t51.5 21.5t51 -21.5t21 -51.5t-21 -51t-51 -21z" />
    <glyph glyph-name="copyright" unicode="&#xa9;" horiz-adv-x="833" 
d="M417 -11q-165 0 -273.5 110.5t-108.5 270.5q0 161 108.5 271.5t273.5 110.5q164 0 272.5 -110.5t108.5 -271.5q0 -160 -108.5 -270.5t-272.5 -110.5zM417 62q140 0 219 84.5t79 224.5q0 137 -82 222.5t-217 85.5q-140 0 -219 -84.5t-79 -224.5q0 -137 82 -222.5
t217 -85.5zM424 142q-92 0 -149 56.5t-57 168.5q0 106 52 169.5t154 63.5q147 0 186 -147l-103 -11q-17 88 -82 88q-90 0 -90 -160q0 -158 90 -158q65 0 82 87l103 -10q-38 -147 -186 -147z" />
    <glyph glyph-name="ordfeminine" unicode="&#xaa;" horiz-adv-x="365" 
d="M141 415q-47 0 -77 27t-30 71q0 53 38.5 77.5t128.5 37.5q23 3 23 23q0 33 -34 33q-44 0 -81 -41l-46 53q49 57 136 57q114 0 114 -103v-228h-87v28q-43 -35 -85 -35zM158 481q35 0 64 41v47l-46 -7q-51 -8 -51 -47q0 -34 33 -34z" />
    <glyph glyph-name="guillemotleft" unicode="&#xab;" horiz-adv-x="456" 
d="M125 70l-88 212l88 212h104l-80 -212l80 -212h-104zM315 70l-88 212l88 212h104l-80 -212l80 -212h-104z" />
    <glyph glyph-name="logicalnot" unicode="&#xac;" 
d="M417 0v183h-351v104h461v-287h-110z" />
    <glyph glyph-name="uni00AD" unicode="&#xad;" horiz-adv-x="316" 
d="M33 223v118h250v-118h-250z" />
    <glyph glyph-name="registered" unicode="&#xae;" horiz-adv-x="833" 
d="M417 -11q-165 0 -273.5 110.5t-108.5 270.5q0 161 108.5 271.5t273.5 110.5q164 0 272.5 -110.5t108.5 -271.5q0 -160 -108.5 -270.5t-272.5 -110.5zM417 62q140 0 219 84.5t79 224.5q0 137 -82 222.5t-217 85.5q-140 0 -219 -84.5t-79 -224.5q0 -137 82 -222.5
t217 -85.5zM255 149v444h190q83 0 125 -39.5t42 -103.5q0 -46 -25 -78.5t-69 -46.5l91 -176h-112l-76 158h-66v-158h-100zM355 390h40q23 0 35.5 1t32.5 6t29.5 18t9.5 34q0 18 -7 30t-15.5 18t-26 9t-27 3.5t-29.5 0.5h-8h-34v-120z" />
    <glyph glyph-name="macron" unicode="&#xaf;" horiz-adv-x="429" 
d="M48 651v90h333v-90h-333z" />
    <glyph glyph-name="degree" unicode="&#xb0;" horiz-adv-x="381" 
d="M190 470q-59 0 -100.5 42t-41.5 101t41 101t101 42q59 0 101 -42t42 -101t-42 -101t-101 -42zM190 550q26 0 44.5 18.5t18.5 44.5t-18.5 44.5t-44.5 18.5t-44 -18.5t-18 -44.5t18 -44.5t44 -18.5z" />
    <glyph glyph-name="plusminus" unicode="&#xb1;" 
d="M242 145v110h-176v104h176v111h109v-111h176v-104h-176v-110h-109zM66 0v104h461v-104h-461z" />
    <glyph glyph-name="uni00B2" unicode="&#xb2;" horiz-adv-x="390" 
d="M31 395v82q14 40 51.5 76t72.5 58t63 51.5t28 59.5q0 20 -13.5 33.5t-34.5 13.5q-31 0 -45.5 -28.5t-7.5 -68.5l-110 34q-2 68 44.5 107.5t118.5 39.5q80 0 121.5 -38.5t41.5 -96.5q0 -43 -29 -81.5t-64 -61.5t-68.5 -48.5t-39.5 -42.5h200v-89h-329z" />
    <glyph glyph-name="uni00B3" unicode="&#xb3;" horiz-adv-x="390" 
d="M196 389q-66 0 -115 33t-59 93l102 33q2 -36 23 -55.5t51 -19.5q25 0 42 15.5t17 41.5q0 30 -23.5 46t-61.5 16q-16 0 -32 -2v81q20 -3 37 -3q31 0 51.5 14t20.5 40q0 23 -15.5 35t-37.5 12q-25 0 -44 -17.5t-23 -46.5l-92 41q16 49 62.5 78t103.5 29q62 0 109.5 -35
t47.5 -94q0 -58 -63 -89q72 -34 72 -103q0 -64 -51 -103.5t-122 -39.5z" />
    <glyph glyph-name="acute" unicode="&#xb4;" horiz-adv-x="287" 
d="M48 604l56 137h135l-98 -137h-93z" />
    <glyph glyph-name="uni00B5" unicode="&#xb5;" horiz-adv-x="598" 
d="M378 533h141v-533h-141v55q-79 -65 -157 -66v-171h-142v715h141v-328q0 -22 1 -35.5t6 -31.5t18 -27t33 -9q46 0 100 58v373z" />
    <glyph glyph-name="paragraph" unicode="&#xb6;" horiz-adv-x="651" 
d="M267 -163v578h-51q-74 0 -123 46t-49 111q0 68 50 118.5t132 50.5h330v-904h-83v825h-123v-825h-83z" />
    <glyph glyph-name="periodcentered" unicode="&#xb7;" horiz-adv-x="277" 
d="M139 200q-35 0 -60.5 25.5t-25.5 60.5t25.5 60.5t60.5 25.5t60 -25.5t25 -60.5t-25.5 -60.5t-59.5 -25.5z" />
    <glyph glyph-name="cedilla" unicode="&#xb8;" horiz-adv-x="304" 
d="M173 -46q83 -21 83 -83q0 -46 -36 -74.5t-82 -28.5q-62 0 -90 19l15 68q45 -16 60 -16q43 0 43 31q0 42 -101 34l57 102h79z" />
    <glyph glyph-name="uni00B9" unicode="&#xb9;" horiz-adv-x="390" 
d="M65 395v84h80v236q-35 -22 -81 -29l-19 76q92 22 128 84h84v-367h79v-84h-271z" />
    <glyph glyph-name="ordmasculine" unicode="&#xba;" horiz-adv-x="365" 
d="M183 415q-68 0 -106.5 49.5t-38.5 119.5t38.5 119.5t106.5 49.5t106 -49.5t38 -119.5t-38 -119.5t-106 -49.5zM183 481q49 0 49 103t-49 103q-51 0 -51 -103t51 -103z" />
    <glyph glyph-name="guillemotright" unicode="&#xbb;" horiz-adv-x="456" 
d="M141 494l88 -212l-88 -212h-104l80 212l-80 212h104zM331 494l88 -212l-88 -212h-104l80 212l-80 212h104z" />
    <glyph glyph-name="onequarter" unicode="&#xbc;" horiz-adv-x="902" 
d="M65 290v84h80v236q-35 -22 -81 -29l-19 76q92 22 128 84h84v-367h79v-84h-271zM214 0l413 741h109l-414 -741h-108zM717 0v102h-189v72l175 277h122v-266h59v-83h-59v-102h-108zM631 185h86v138h-1z" />
    <glyph glyph-name="onehalf" unicode="&#xbd;" horiz-adv-x="950" 
d="M65 290v84h80v236q-35 -22 -81 -29l-19 76q92 22 128 84h84v-367h79v-84h-271zM214 0l413 741h109l-414 -741h-108zM591 0v82q14 40 51.5 76t72.5 58t63 51.5t28 59.5q0 20 -13.5 33.5t-34.5 13.5q-31 0 -45.5 -28.5t-7.5 -68.5l-110 34q-2 68 44.5 107.5t118.5 39.5
q80 0 121.5 -38.5t41.5 -96.5q0 -43 -29 -81.5t-64 -61.5t-68.5 -48.5t-39.5 -42.5h200v-89h-329z" />
    <glyph glyph-name="threequarters" unicode="&#xbe;" horiz-adv-x="902" 
d="M196 284q-66 0 -115 33t-59 93l102 33q2 -36 23 -55.5t51 -19.5q25 0 42 15.5t17 41.5q0 30 -23.5 46t-61.5 16q-16 0 -32 -2v81q20 -3 37 -3q31 0 51.5 14t20.5 40q0 23 -15.5 35t-37.5 12q-25 0 -44 -17.5t-23 -46.5l-92 41q16 49 62.5 78t103.5 29q62 0 109.5 -35
t47.5 -94q0 -58 -63 -89q72 -34 72 -103q0 -64 -51 -103.5t-122 -39.5zM214 0l413 741h109l-414 -741h-108zM717 0v102h-189v72l175 277h122v-266h59v-83h-59v-102h-108zM631 185h86v138h-1z" />
    <glyph glyph-name="questiondown" unicode="&#xbf;" horiz-adv-x="456" 
d="M265 545q34 0 59.5 -25.5t25.5 -60.5t-25 -60.5t-60 -25.5t-60.5 25.5t-25.5 60.5t25.5 60.5t60.5 25.5zM327 309v-31q0 -55 -26 -105t-57 -80.5t-57 -67.5t-26 -69q0 -23 16.5 -39.5t39.5 -16.5q35 0 60.5 25t29.5 67l106 -67q-16 -65 -70 -103.5t-121 -38.5
q-83 0 -136 42.5t-53 123.5q0 47 17 84t41.5 62t49.5 50t42 62t17 85v17h127z" />
    <glyph glyph-name="Agrave" unicode="&#xc0;" horiz-adv-x="618" 
d="M358 804h-93l-98 137h135zM477 0l-53 186h-230l-53 -186h-151l236 741h162l240 -741h-151zM227 303h164l-80 282h-4z" />
    <glyph glyph-name="Aacute" unicode="&#xc1;" horiz-adv-x="618" 
d="M452 941l-98 -137h-93l56 137h135zM477 0l-53 186h-230l-53 -186h-151l236 741h162l240 -741h-151zM227 303h164l-80 282h-4z" />
    <glyph glyph-name="Acircumflex" unicode="&#xc2;" horiz-adv-x="618" 
d="M309 884l-57 -80h-104l94 137h134l94 -137h-102zM477 0l-53 186h-230l-53 -186h-151l236 741h162l240 -741h-151zM227 303h164l-80 282h-4z" />
    <glyph glyph-name="Atilde" unicode="&#xc3;" horiz-adv-x="618" 
d="M248 874q-14 0 -25.5 -7t-17 -14t-14.5 -22l-42 54q47 74 102 74q21 0 60.5 -17.5t55.5 -17.5q14 0 25 6.5t16.5 13t14.5 20.5l46 -51q-44 -76 -96 -76q-22 0 -65.5 18.5t-59.5 18.5zM477 0l-53 186h-230l-53 -186h-151l236 741h162l240 -741h-151zM227 303h164l-80 282
h-4z" />
    <glyph glyph-name="Adieresis" unicode="&#xc4;" horiz-adv-x="618" 
d="M218 800q-30 0 -51 21t-21 51t21 51.5t51 21.5t51.5 -21.5t21.5 -51.5t-21.5 -51t-51.5 -21zM401 800q-30 0 -51.5 21t-21.5 51t21.5 51.5t51.5 21.5t51 -21.5t21 -51.5t-21 -51t-51 -21zM477 0l-53 186h-230l-53 -186h-151l236 741h162l240 -741h-151zM227 303h164
l-80 282h-4z" />
    <glyph glyph-name="Aring" unicode="&#xc5;" horiz-adv-x="618" 
d="M477 0l-53 186h-230l-53 -186h-151l226 710q-27 30 -27 75q0 49 35 84t84 35t84 -35t35 -84q0 -45 -28 -76l229 -709h-151zM308 829q-18 0 -31 -13.5t-13 -30.5q0 -18 13 -31t31 -13t31 13t13 31q0 17 -13 30.5t-31 13.5zM227 303h164l-80 282h-4z" />
    <glyph glyph-name="AE" unicode="&#xc6;" horiz-adv-x="973" 
d="M613 126h321v-126h-469v186h-225l-96 -186h-161l412 741h521v-126h-303v-177h250v-126h-250v-186zM300 303h165v312h-4z" />
    <glyph glyph-name="Ccedilla" unicode="&#xc7;" horiz-adv-x="636" 
d="M340 102q62 0 97.5 46.5t39.5 116.5l134 -72q-22 -89 -82 -142.5t-150 -63.5l-18 -33q83 -21 83 -83q0 -46 -36 -74.5t-82 -28.5q-62 0 -90 19l15 68q45 -16 60 -16q43 0 43 31q0 42 -101 34l47 84q-88 11 -150 70.5t-89 139t-27 171.5q0 72 18.5 138.5t54.5 122t96.5 89
t136.5 33.5q106 0 176.5 -54.5t95.5 -155.5l-135 -68q-4 70 -39 115.5t-98 45.5q-45 0 -77.5 -27t-48 -71t-22 -85.5t-6.5 -82.5q0 -42 6.5 -83.5t22 -85.5t48 -71t77.5 -27z" />
    <glyph glyph-name="Egrave" unicode="&#xc8;" horiz-adv-x="608" 
d="M277 804l-98 137h135l56 -137h-93zM90 0v741h461v-126h-312v-177h259v-126h-259v-186h330v-126h-479z" />
    <glyph glyph-name="Eacute" unicode="&#xc9;" horiz-adv-x="608" 
d="M273 804l56 137h135l-98 -137h-93zM90 0v741h461v-126h-312v-177h259v-126h-259v-186h330v-126h-479z" />
    <glyph glyph-name="Ecircumflex" unicode="&#xca;" horiz-adv-x="608" 
d="M160 804l94 137h134l94 -137h-102l-59 80l-57 -80h-104zM90 0v741h461v-126h-312v-177h259v-126h-259v-186h330v-126h-479z" />
    <glyph glyph-name="Edieresis" unicode="&#xcb;" horiz-adv-x="608" 
d="M230 800q-30 0 -51 21t-21 51t21 51.5t51 21.5t51.5 -21.5t21.5 -51.5t-21.5 -51t-51.5 -21zM413 800q-30 0 -51.5 21t-21.5 51t21.5 51.5t51.5 21.5t51 -21.5t21 -51.5t-21 -51t-51 -21zM90 0v741h461v-126h-312v-177h259v-126h-259v-186h330v-126h-479z" />
    <glyph glyph-name="Igrave" unicode="&#xcc;" horiz-adv-x="329" 
d="M121 804l-98 137h135l56 -137h-93zM90 0v741h149v-741h-149z" />
    <glyph glyph-name="Iacute" unicode="&#xcd;" horiz-adv-x="329" 
d="M117 804l56 137h135l-98 -137h-93zM90 0v741h149v-741h-149z" />
    <glyph glyph-name="Icircumflex" unicode="&#xce;" horiz-adv-x="329" 
d="M4 804l94 137h134l94 -137h-102l-59 80l-57 -80h-104zM90 0v741h149v-741h-149z" />
    <glyph glyph-name="Idieresis" unicode="&#xcf;" horiz-adv-x="329" 
d="M74 800q-30 0 -51 21t-21 51t21 51.5t51 21.5t51.5 -21.5t21.5 -51.5t-21.5 -51t-51.5 -21zM257 800q-30 0 -51.5 21t-21.5 51t21.5 51.5t51.5 21.5t51 -21.5t21 -51.5t-21 -51t-51 -21zM90 0v741h149v-741h-149z" />
    <glyph glyph-name="Eth" unicode="&#xd0;" horiz-adv-x="687" 
d="M291 741q187 0 274.5 -100.5t87.5 -270.5q0 -163 -85 -266.5t-245 -103.5h-233v330h-76v100h76v311h201zM311 126q190 0 190 262q0 116 -50.5 171.5t-155.5 55.5h-56v-185h108v-100h-108v-204h72z" />
    <glyph glyph-name="Ntilde" unicode="&#xd1;" horiz-adv-x="770" 
d="M267 831l-42 54q47 74 102 74q21 0 60.5 -17.5t55.5 -17.5q14 0 25 6.5t16.5 13t14.5 20.5l46 -51q-44 -76 -96 -76q-22 0 -65.5 18.5t-59.5 18.5q-14 0 -25.5 -7t-17 -14t-14.5 -22zM90 0v741h167l275 -491h2v491h146v-741h-156l-286 510h-2v-510h-146z" />
    <glyph glyph-name="Ograve" unicode="&#xd2;" horiz-adv-x="679" 
d="M296 804l-98 137h135l56 -137h-93zM340 -15q-76 0 -136.5 33.5t-96.5 89t-54.5 122.5t-18.5 139t18.5 138.5t54.5 122t96.5 89t136.5 33.5t136 -33.5t96 -89t54.5 -122t18.5 -138.5t-18.5 -139t-54.5 -122.5t-96 -89t-136 -33.5zM340 102q45 0 77 27t47.5 71t22 85.5
t6.5 83.5q0 41 -6.5 82.5t-22 85.5t-47.5 71t-77 27t-77.5 -27t-48 -71t-22 -85.5t-6.5 -82.5q0 -42 6.5 -83.5t22 -85.5t48 -71t77.5 -27z" />
    <glyph glyph-name="Oacute" unicode="&#xd3;" horiz-adv-x="679" 
d="M292 804l56 137h135l-98 -137h-93zM340 -15q-76 0 -136.5 33.5t-96.5 89t-54.5 122.5t-18.5 139t18.5 138.5t54.5 122t96.5 89t136.5 33.5t136 -33.5t96 -89t54.5 -122t18.5 -138.5t-18.5 -139t-54.5 -122.5t-96 -89t-136 -33.5zM340 102q45 0 77 27t47.5 71t22 85.5
t6.5 83.5q0 41 -6.5 82.5t-22 85.5t-47.5 71t-77 27t-77.5 -27t-48 -71t-22 -85.5t-6.5 -82.5q0 -42 6.5 -83.5t22 -85.5t48 -71t77.5 -27z" />
    <glyph glyph-name="Ocircumflex" unicode="&#xd4;" horiz-adv-x="679" 
d="M179 804l94 137h134l94 -137h-102l-59 80l-57 -80h-104zM340 -15q-76 0 -136.5 33.5t-96.5 89t-54.5 122.5t-18.5 139t18.5 138.5t54.5 122t96.5 89t136.5 33.5t136 -33.5t96 -89t54.5 -122t18.5 -138.5t-18.5 -139t-54.5 -122.5t-96 -89t-136 -33.5zM340 102q45 0 77 27
t47.5 71t22 85.5t6.5 83.5q0 41 -6.5 82.5t-22 85.5t-47.5 71t-77 27t-77.5 -27t-48 -71t-22 -85.5t-6.5 -82.5q0 -42 6.5 -83.5t22 -85.5t48 -71t77.5 -27z" />
    <glyph glyph-name="Otilde" unicode="&#xd5;" horiz-adv-x="679" 
d="M222 831l-42 54q47 74 102 74q21 0 60.5 -17.5t55.5 -17.5q14 0 25 6.5t16.5 13t14.5 20.5l46 -51q-44 -76 -96 -76q-22 0 -65.5 18.5t-59.5 18.5q-14 0 -25.5 -7t-17 -14t-14.5 -22zM340 -15q-76 0 -136.5 33.5t-96.5 89t-54.5 122.5t-18.5 139t18.5 138.5t54.5 122
t96.5 89t136.5 33.5t136 -33.5t96 -89t54.5 -122t18.5 -138.5t-18.5 -139t-54.5 -122.5t-96 -89t-136 -33.5zM340 102q45 0 77 27t47.5 71t22 85.5t6.5 83.5q0 41 -6.5 82.5t-22 85.5t-47.5 71t-77 27t-77.5 -27t-48 -71t-22 -85.5t-6.5 -82.5q0 -42 6.5 -83.5t22 -85.5
t48 -71t77.5 -27z" />
    <glyph glyph-name="Odieresis" unicode="&#xd6;" horiz-adv-x="679" 
d="M249 800q-30 0 -51 21t-21 51t21 51.5t51 21.5t51.5 -21.5t21.5 -51.5t-21.5 -51t-51.5 -21zM432 800q-30 0 -51.5 21t-21.5 51t21.5 51.5t51.5 21.5t51 -21.5t21 -51.5t-21 -51t-51 -21zM340 -15q-76 0 -136.5 33.5t-96.5 89t-54.5 122.5t-18.5 139t18.5 138.5t54.5 122
t96.5 89t136.5 33.5t136 -33.5t96 -89t54.5 -122t18.5 -138.5t-18.5 -139t-54.5 -122.5t-96 -89t-136 -33.5zM340 102q45 0 77 27t47.5 71t22 85.5t6.5 83.5q0 41 -6.5 82.5t-22 85.5t-47.5 71t-77 27t-77.5 -27t-48 -71t-22 -85.5t-6.5 -82.5q0 -42 6.5 -83.5t22 -85.5
t48 -71t77.5 -27z" />
    <glyph glyph-name="multiply" unicode="&#xd7;" 
d="M456 1l-160 160l-160 -160l-73 73l160 160l-160 160l73 74l160 -160l160 160l74 -74l-160 -160l160 -160z" />
    <glyph glyph-name="Oslash" unicode="&#xd8;" horiz-adv-x="679" 
d="M566 638q79 -107 79 -269q0 -72 -18.5 -139t-54.5 -122.5t-96 -89t-136 -33.5q-96 0 -165 52l-50 -77l-72 48l60 91q-79 108 -79 270q0 72 18.5 138.5t54.5 122t96.5 89t136.5 33.5q94 0 164 -51l50 76l72 -47zM186 369q0 -12 2 -45.5t0.5 -59.5t-7.5 -52l3 -2l250 384
q-41 41 -94 41q-45 0 -77.5 -27t-48 -71t-22 -85.5t-6.5 -82.5zM493 369q0 12 -2 45.5t-0.5 59t7.5 51.5l-3 2l-250 -384q41 -41 95 -41q45 0 77 27t47.5 71t22 85.5t6.5 83.5z" />
    <glyph glyph-name="Ugrave" unicode="&#xd9;" horiz-adv-x="692" 
d="M302 804l-98 137h135l56 -137h-93zM346 -11q-119 0 -190 63.5t-71 176.5v512h149v-465q0 -90 27 -126t85 -36q59 0 86 36t27 126v465h148v-512q0 -113 -71 -176.5t-190 -63.5z" />
    <glyph glyph-name="Uacute" unicode="&#xda;" horiz-adv-x="692" 
d="M298 804l56 137h135l-98 -137h-93zM346 -11q-119 0 -190 63.5t-71 176.5v512h149v-465q0 -90 27 -126t85 -36q59 0 86 36t27 126v465h148v-512q0 -113 -71 -176.5t-190 -63.5z" />
    <glyph glyph-name="Ucircumflex" unicode="&#xdb;" horiz-adv-x="692" 
d="M185 804l94 137h134l94 -137h-102l-59 80l-57 -80h-104zM346 -11q-119 0 -190 63.5t-71 176.5v512h149v-465q0 -90 27 -126t85 -36q59 0 86 36t27 126v465h148v-512q0 -113 -71 -176.5t-190 -63.5z" />
    <glyph glyph-name="Udieresis" unicode="&#xdc;" horiz-adv-x="692" 
d="M255 800q-30 0 -51 21t-21 51t21 51.5t51 21.5t51.5 -21.5t21.5 -51.5t-21.5 -51t-51.5 -21zM438 800q-30 0 -51.5 21t-21.5 51t21.5 51.5t51.5 21.5t51 -21.5t21 -51.5t-21 -51t-51 -21zM346 -11q-119 0 -190 63.5t-71 176.5v512h149v-465q0 -90 27 -126t85 -36
q59 0 86 36t27 126v465h148v-512q0 -113 -71 -176.5t-190 -63.5z" />
    <glyph glyph-name="Yacute" unicode="&#xdd;" horiz-adv-x="617" 
d="M261 804l56 137h135l-98 -137h-93zM233 0v299l-243 442h158l159 -324h2l165 324h153l-246 -442v-299h-148z" />
    <glyph glyph-name="Thorn" unicode="&#xde;" horiz-adv-x="637" 
d="M90 0v741h149v-114h137q108 0 176 -63.5t68 -163.5q0 -45 -14.5 -84t-45.5 -73t-87.5 -53.5t-133.5 -19.5h-100v-170h-149zM239 295h87q141 0 141 103t-118 103h-110v-206z" />
    <glyph glyph-name="germandbls" unicode="&#xdf;" horiz-adv-x="585" 
d="M345 -11q-26 0 -55 8v104q20 -4 27 -4q30 0 50.5 25.5t28 55.5t7.5 59q0 53 -21.5 93t-71.5 40l-20 -2v103h3q41 0 64 22t23 64q0 35 -19 56.5t-54 21.5q-29 0 -47.5 -10t-26.5 -29.5t-10.5 -38t-2.5 -46.5v-511h-141v516q0 117 63.5 176.5t156.5 59.5q105 0 162 -51
t57 -136q0 -93 -79 -136q55 -24 81 -80t26 -122q0 -100 -52.5 -169t-148.5 -69z" />
    <glyph glyph-name="agrave" unicode="&#xe0;" horiz-adv-x="570" 
d="M248 604l-98 137h135l56 -137h-93zM212 -11q-75 0 -123.5 44t-48.5 117q0 82 55.5 123t177.5 57q52 8 67.5 17t15.5 36q0 25 -17 40t-47 15q-79 0 -129 -74l-75 87q71 94 208 94q100 0 148.5 -45t48.5 -124v-376h-134v58q-36 -37 -68.5 -53t-78.5 -16zM240 92
q60 0 112 70v82h-2l-74 -11q-98 -13 -98 -81q0 -26 15.5 -43t46.5 -17z" />
    <glyph glyph-name="aacute" unicode="&#xe1;" horiz-adv-x="570" 
d="M244 604l56 137h135l-98 -137h-93zM212 -11q-75 0 -123.5 44t-48.5 117q0 82 55.5 123t177.5 57q52 8 67.5 17t15.5 36q0 25 -17 40t-47 15q-79 0 -129 -74l-75 87q71 94 208 94q100 0 148.5 -45t48.5 -124v-376h-134v58q-36 -37 -68.5 -53t-78.5 -16zM240 92
q60 0 112 70v82h-2l-74 -11q-98 -13 -98 -81q0 -26 15.5 -43t46.5 -17z" />
    <glyph glyph-name="acircumflex" unicode="&#xe2;" horiz-adv-x="570" 
d="M131 604l94 137h134l94 -137h-102l-59 80l-57 -80h-104zM212 -11q-75 0 -123.5 44t-48.5 117q0 82 55.5 123t177.5 57q52 8 67.5 17t15.5 36q0 25 -17 40t-47 15q-79 0 -129 -74l-75 87q71 94 208 94q100 0 148.5 -45t48.5 -124v-376h-134v58q-36 -37 -68.5 -53
t-78.5 -16zM240 92q60 0 112 70v82h-2l-74 -11q-98 -13 -98 -81q0 -26 15.5 -43t46.5 -17z" />
    <glyph glyph-name="atilde" unicode="&#xe3;" horiz-adv-x="570" 
d="M174 631l-42 54q47 74 102 74q21 0 60.5 -17.5t55.5 -17.5q14 0 25 6.5t16.5 13t14.5 20.5l46 -51q-44 -76 -96 -76q-22 0 -65.5 18.5t-59.5 18.5q-14 0 -25.5 -7t-17 -14t-14.5 -22zM212 -11q-75 0 -123.5 44t-48.5 117q0 82 55.5 123t177.5 57q52 8 67.5 17t15.5 36
q0 25 -17 40t-47 15q-79 0 -129 -74l-75 87q71 94 208 94q100 0 148.5 -45t48.5 -124v-376h-134v58q-36 -37 -68.5 -53t-78.5 -16zM240 92q60 0 112 70v82h-2l-74 -11q-98 -13 -98 -81q0 -26 15.5 -43t46.5 -17z" />
    <glyph glyph-name="adieresis" unicode="&#xe4;" horiz-adv-x="570" 
d="M201 600q-30 0 -51 21t-21 51t21 51.5t51 21.5t51.5 -21.5t21.5 -51.5t-21.5 -51t-51.5 -21zM384 600q-30 0 -51.5 21t-21.5 51t21.5 51.5t51.5 21.5t51 -21.5t21 -51.5t-21 -51t-51 -21zM212 -11q-75 0 -123.5 44t-48.5 117q0 82 55.5 123t177.5 57q52 8 67.5 17
t15.5 36q0 25 -17 40t-47 15q-79 0 -129 -74l-75 87q71 94 208 94q100 0 148.5 -45t48.5 -124v-376h-134v58q-36 -37 -68.5 -53t-78.5 -16zM240 92q60 0 112 70v82h-2l-74 -11q-98 -13 -98 -81q0 -26 15.5 -43t46.5 -17z" />
    <glyph glyph-name="aring" unicode="&#xe5;" horiz-adv-x="570" 
d="M292 586q-36 0 -62 26t-26 62q0 37 26 63t62 26q37 0 63 -26t26 -63q0 -36 -26 -62t-63 -26zM292 638q15 0 25.5 10.5t10.5 25.5q0 14 -10.5 25t-25.5 11t-25.5 -11t-10.5 -25q0 -15 10.5 -25.5t25.5 -10.5zM212 -11q-75 0 -123.5 44t-48.5 117q0 82 55.5 123t177.5 57
q52 8 67.5 17t15.5 36q0 25 -17 40t-47 15q-79 0 -129 -74l-75 87q71 94 208 94q100 0 148.5 -45t48.5 -124v-376h-134v58q-36 -37 -68.5 -53t-78.5 -16zM240 92q60 0 112 70v82h-2l-74 -11q-98 -13 -98 -81q0 -26 15.5 -43t46.5 -17z" />
    <glyph glyph-name="ae" unicode="&#xe6;" horiz-adv-x="850" 
d="M814 233h-326q-4 -52 24.5 -95.5t80.5 -43.5q39 0 70.5 24.5t49.5 62.5l86 -73q-75 -119 -219 -119q-112 0 -177 88q-75 -88 -182 -88q-84 0 -132.5 43.5t-48.5 117.5q0 82 55.5 123t177.5 57q52 8 67.5 17t15.5 36q0 25 -17 40t-47 15q-39 0 -76 -24t-53 -50l-75 87
q71 94 208 94q102 0 148 -49q56 49 144 49q226 0 226 -299v-13zM584 441q-44 0 -66.5 -35t-24.5 -84h183q0 51 -22.5 85t-69.5 34zM240 92q63 0 119 78q-11 36 -12 74l-76 -12q-93 -13 -93 -80q0 -26 15.5 -43t46.5 -17z" />
    <glyph glyph-name="ccedilla" unicode="&#xe7;" horiz-adv-x="524" 
d="M490 152q-18 -62 -62 -103.5t-106 -54.5l-21 -40q83 -21 83 -83q0 -46 -36 -74.5t-82 -28.5q-62 0 -90 19l15 68q45 -16 60 -16q43 0 43 31q0 42 -101 34l49 87q-96 12 -150 91.5t-54 184.5q0 115 61.5 196.5t172.5 81.5q92 0 141 -41.5t76 -118.5l-119 -55
q-5 24 -10 39.5t-15.5 34t-28.5 28t-44 9.5q-27 0 -46 -17t-27.5 -46t-12 -55.5t-3.5 -55.5t3.5 -56t12 -56t27.5 -46t46 -17q26 0 44 9.5t28 28.5t15 34.5t10 40.5z" />
    <glyph glyph-name="egrave" unicode="&#xe8;" horiz-adv-x="541" 
d="M233 604l-98 137h135l56 -137h-93zM272 -11q-110 0 -172 82t-62 196q0 115 64 196.5t178 81.5q225 0 225 -299v-13h-325q-4 -52 24.5 -95.5t79.5 -43.5q40 0 71.5 24.5t48.5 62.5l87 -73q-77 -119 -219 -119zM184 322h183q0 51 -22 85t-69 34q-44 0 -67 -35t-25 -84z" />
    <glyph glyph-name="eacute" unicode="&#xe9;" horiz-adv-x="541" 
d="M229 604l56 137h135l-98 -137h-93zM272 -11q-110 0 -172 82t-62 196q0 115 64 196.5t178 81.5q225 0 225 -299v-13h-325q-4 -52 24.5 -95.5t79.5 -43.5q40 0 71.5 24.5t48.5 62.5l87 -73q-77 -119 -219 -119zM184 322h183q0 51 -22 85t-69 34q-44 0 -67 -35t-25 -84z" />
    <glyph glyph-name="ecircumflex" unicode="&#xea;" horiz-adv-x="541" 
d="M116 604l94 137h134l94 -137h-102l-59 80l-57 -80h-104zM272 -11q-110 0 -172 82t-62 196q0 115 64 196.5t178 81.5q225 0 225 -299v-13h-325q-4 -52 24.5 -95.5t79.5 -43.5q40 0 71.5 24.5t48.5 62.5l87 -73q-77 -119 -219 -119zM184 322h183q0 51 -22 85t-69 34
q-44 0 -67 -35t-25 -84z" />
    <glyph glyph-name="edieresis" unicode="&#xeb;" horiz-adv-x="541" 
d="M186 600q-30 0 -51 21t-21 51t21 51.5t51 21.5t51.5 -21.5t21.5 -51.5t-21.5 -51t-51.5 -21zM369 600q-30 0 -51.5 21t-21.5 51t21.5 51.5t51.5 21.5t51 -21.5t21 -51.5t-21 -51t-51 -21zM272 -11q-110 0 -172 82t-62 196q0 115 64 196.5t178 81.5q225 0 225 -299v-13
h-325q-4 -52 24.5 -95.5t79.5 -43.5q40 0 71.5 24.5t48.5 62.5l87 -73q-77 -119 -219 -119zM184 322h183q0 51 -22 85t-69 34q-44 0 -67 -35t-25 -84z" />
    <glyph glyph-name="igrave" unicode="&#xec;" horiz-adv-x="299" 
d="M105 604l-98 137h135l56 -137h-93zM79 0v533h141v-533h-141z" />
    <glyph glyph-name="iacute" unicode="&#xed;" horiz-adv-x="299" 
d="M101 604l56 137h135l-98 -137h-93zM79 0v533h141v-533h-141z" />
    <glyph glyph-name="icircumflex" unicode="&#xee;" horiz-adv-x="299" 
d="M-12 604l94 137h134l94 -137h-102l-59 80l-57 -80h-104zM79 0v533h141v-533h-141z" />
    <glyph glyph-name="idieresis" unicode="&#xef;" horiz-adv-x="299" 
d="M58 600q-30 0 -51 21t-21 51t21 51.5t51 21.5t51.5 -21.5t21.5 -51.5t-21.5 -51t-51.5 -21zM241 600q-30 0 -51.5 21t-21.5 51t21.5 51.5t51.5 21.5t51 -21.5t21 -51.5t-21 -51t-51 -21zM79 0v533h141v-533h-141z" />
    <glyph glyph-name="eth" unicode="&#xf0;" horiz-adv-x="544" 
d="M290 681q113 -112 164.5 -210t51.5 -204q0 -74 -25.5 -136t-80 -102t-128.5 -40t-128.5 40t-80 102t-25.5 136q0 110 56.5 190.5t164.5 86.5q-44 47 -58 60l-57 -48l-40 48l51 43q-7 5 -20 16.5t-20 16.5l85 85l46 -41l40 33l39 -46zM272 92q27 0 46 17t28 46t12.5 56
t3.5 56t-3.5 56t-12.5 55.5t-28 45.5t-46 17t-46 -17t-27.5 -46t-12 -55.5t-3.5 -55.5t3.5 -56t12 -56t27.5 -46t46 -17z" />
    <glyph glyph-name="ntilde" unicode="&#xf1;" horiz-adv-x="596" 
d="M188 631l-42 54q47 74 102 74q21 0 60.5 -17.5t55.5 -17.5q14 0 25 6.5t16.5 13t14.5 20.5l46 -51q-44 -76 -96 -76q-22 0 -65.5 18.5t-59.5 18.5q-14 0 -25.5 -7t-17 -14t-14.5 -22zM79 0v533h141v-55q81 67 157 67q56 0 99 -39t43 -128v-378h-141v327q0 24 -1.5 39.5
t-7 31.5t-17.5 24t-31 8q-42 0 -101 -54v-376h-141z" />
    <glyph glyph-name="ograve" unicode="&#xf2;" horiz-adv-x="544" 
d="M228 604l-98 137h135l56 -137h-93zM272 -11q-74 0 -128.5 40t-80 102t-25.5 136q0 116 61.5 197t172.5 81t172.5 -81t61.5 -197q0 -74 -25.5 -136t-80 -102t-128.5 -40zM272 92q27 0 46 17t28 46t12.5 56t3.5 56t-3.5 56t-12.5 55.5t-28 45.5t-46 17t-46 -17t-27.5 -46
t-12 -55.5t-3.5 -55.5t3.5 -56t12 -56t27.5 -46t46 -17z" />
    <glyph glyph-name="oacute" unicode="&#xf3;" horiz-adv-x="544" 
d="M224 604l56 137h135l-98 -137h-93zM272 -11q-74 0 -128.5 40t-80 102t-25.5 136q0 116 61.5 197t172.5 81t172.5 -81t61.5 -197q0 -74 -25.5 -136t-80 -102t-128.5 -40zM272 92q27 0 46 17t28 46t12.5 56t3.5 56t-3.5 56t-12.5 55.5t-28 45.5t-46 17t-46 -17t-27.5 -46
t-12 -55.5t-3.5 -55.5t3.5 -56t12 -56t27.5 -46t46 -17z" />
    <glyph glyph-name="ocircumflex" unicode="&#xf4;" horiz-adv-x="544" 
d="M111 604l94 137h134l94 -137h-102l-59 80l-57 -80h-104zM272 -11q-74 0 -128.5 40t-80 102t-25.5 136q0 116 61.5 197t172.5 81t172.5 -81t61.5 -197q0 -74 -25.5 -136t-80 -102t-128.5 -40zM272 92q27 0 46 17t28 46t12.5 56t3.5 56t-3.5 56t-12.5 55.5t-28 45.5t-46 17
t-46 -17t-27.5 -46t-12 -55.5t-3.5 -55.5t3.5 -56t12 -56t27.5 -46t46 -17z" />
    <glyph glyph-name="otilde" unicode="&#xf5;" horiz-adv-x="544" 
d="M154 631l-42 54q47 74 102 74q21 0 60.5 -17.5t55.5 -17.5q14 0 25 6.5t16.5 13t14.5 20.5l46 -51q-44 -76 -96 -76q-22 0 -65.5 18.5t-59.5 18.5q-14 0 -25.5 -7t-17 -14t-14.5 -22zM272 -11q-74 0 -128.5 40t-80 102t-25.5 136q0 116 61.5 197t172.5 81t172.5 -81
t61.5 -197q0 -74 -25.5 -136t-80 -102t-128.5 -40zM272 92q27 0 46 17t28 46t12.5 56t3.5 56t-3.5 56t-12.5 55.5t-28 45.5t-46 17t-46 -17t-27.5 -46t-12 -55.5t-3.5 -55.5t3.5 -56t12 -56t27.5 -46t46 -17z" />
    <glyph glyph-name="odieresis" unicode="&#xf6;" horiz-adv-x="544" 
d="M181 600q-30 0 -51 21t-21 51t21 51.5t51 21.5t51.5 -21.5t21.5 -51.5t-21.5 -51t-51.5 -21zM364 600q-30 0 -51.5 21t-21.5 51t21.5 51.5t51.5 21.5t51 -21.5t21 -51.5t-21 -51t-51 -21zM272 -11q-74 0 -128.5 40t-80 102t-25.5 136q0 116 61.5 197t172.5 81t172.5 -81
t61.5 -197q0 -74 -25.5 -136t-80 -102t-128.5 -40zM272 92q27 0 46 17t28 46t12.5 56t3.5 56t-3.5 56t-12.5 55.5t-28 45.5t-46 17t-46 -17t-27.5 -46t-12 -55.5t-3.5 -55.5t3.5 -56t12 -56t27.5 -46t46 -17z" />
    <glyph glyph-name="divide" unicode="&#xf7;" 
d="M296 335q-32 0 -54.5 22.5t-22.5 54.5t23 55t54 23t54 -23t23 -55t-22.5 -54.5t-54.5 -22.5zM66 183v104h461v-104h-461zM296 -10q-32 0 -54.5 23t-22.5 54t22.5 54t54.5 23t54.5 -23t22.5 -54t-22.5 -54t-54.5 -23z" />
    <glyph glyph-name="oslash" unicode="&#xf8;" horiz-adv-x="544" 
d="M442 467q64 -77 64 -200q0 -74 -25.5 -136t-80 -102t-128.5 -40q-66 0 -116 31l-37 -58l-58 38l42 66q-65 79 -65 201q0 116 61.5 197t172.5 81q66 0 116 -31l37 57l59 -38zM183 267q0 -52 -9 -80l3 -2l150 234q-23 22 -55 22q-27 0 -46 -17t-27.5 -46t-12 -55.5
t-3.5 -55.5zM362 267q0 50 8 80l-3 2l-150 -235q23 -22 55 -22q27 0 46 17t28 46t12.5 56t3.5 56z" />
    <glyph glyph-name="ugrave" unicode="&#xf9;" horiz-adv-x="596" 
d="M254 604l-98 137h135l56 -137h-93zM217 -11q-54 0 -97 39t-43 127v378h141v-328q0 -22 1 -35.5t6 -31.5t18 -27t33 -9q46 0 100 58v373h141v-533h-141v55q-80 -66 -159 -66z" />
    <glyph glyph-name="uacute" unicode="&#xfa;" horiz-adv-x="596" 
d="M250 604l56 137h135l-98 -137h-93zM217 -11q-54 0 -97 39t-43 127v378h141v-328q0 -22 1 -35.5t6 -31.5t18 -27t33 -9q46 0 100 58v373h141v-533h-141v55q-80 -66 -159 -66z" />
    <glyph glyph-name="ucircumflex" unicode="&#xfb;" horiz-adv-x="596" 
d="M137 604l94 137h134l94 -137h-102l-59 80l-57 -80h-104zM217 -11q-54 0 -97 39t-43 127v378h141v-328q0 -22 1 -35.5t6 -31.5t18 -27t33 -9q46 0 100 58v373h141v-533h-141v55q-80 -66 -159 -66z" />
    <glyph glyph-name="udieresis" unicode="&#xfc;" horiz-adv-x="596" 
d="M207 600q-30 0 -51 21t-21 51t21 51.5t51 21.5t51.5 -21.5t21.5 -51.5t-21.5 -51t-51.5 -21zM390 600q-30 0 -51.5 21t-21.5 51t21.5 51.5t51.5 21.5t51 -21.5t21 -51.5t-21 -51t-51 -21zM217 -11q-54 0 -97 39t-43 127v378h141v-328q0 -22 1 -35.5t6 -31.5t18 -27t33 -9
q46 0 100 58v373h141v-533h-141v55q-80 -66 -159 -66z" />
    <glyph glyph-name="yacute" unicode="&#xfd;" horiz-adv-x="497" 
d="M211 604l56 137h135l-98 -137h-93zM113 -196q-42 0 -90 10v121q39 -13 61 -13q44 0 66.5 22.5t36.5 68.5l-190 520h152l107 -349h2l97 349h145l-206 -576q-14 -40 -27 -65.5t-33.5 -47t-50 -31t-70.5 -9.5z" />
    <glyph glyph-name="thorn" unicode="&#xfe;" 
d="M79 -182v904l141 57v-298q25 22 40 33t39.5 21t51.5 10q31 0 63 -14.5t63 -43.5t50 -83t19 -124q0 -156 -57.5 -223.5t-148.5 -67.5q-66 0 -120 49v-220h-141zM311 92q97 0 97 169q0 26 -4 50.5t-13.5 50t-29 41.5t-47.5 16q-44 0 -94 -58v-206q42 -63 91 -63z" />
    <glyph glyph-name="ydieresis" unicode="&#xff;" horiz-adv-x="497" 
d="M168 600q-30 0 -51 21t-21 51t21 51.5t51 21.5t51.5 -21.5t21.5 -51.5t-21.5 -51t-51.5 -21zM351 600q-30 0 -51.5 21t-21.5 51t21.5 51.5t51.5 21.5t51 -21.5t21 -51.5t-21 -51t-51 -21zM113 -196q-42 0 -90 10v121q39 -13 61 -13q44 0 66.5 22.5t36.5 68.5l-190 520
h152l107 -349h2l97 349h145l-206 -576q-14 -40 -27 -65.5t-33.5 -47t-50 -31t-70.5 -9.5z" />
    <glyph glyph-name="Amacron" unicode="&#x100;" horiz-adv-x="618" 
d="M476 941v-90h-333v90h333zM477 0l-53 186h-230l-53 -186h-151l236 741h162l240 -741h-151zM227 303h164l-80 282h-4z" />
    <glyph glyph-name="amacron" unicode="&#x101;" horiz-adv-x="570" 
d="M126 651v90h333v-90h-333zM212 -11q-75 0 -123.5 44t-48.5 117q0 82 55.5 123t177.5 57q52 8 67.5 17t15.5 36q0 25 -17 40t-47 15q-79 0 -129 -74l-75 87q71 94 208 94q100 0 148.5 -45t48.5 -124v-376h-134v58q-36 -37 -68.5 -53t-78.5 -16zM240 92q60 0 112 70v82h-2
l-74 -11q-98 -13 -98 -81q0 -26 15.5 -43t46.5 -17z" />
    <glyph glyph-name="Abreve" unicode="&#x102;" horiz-adv-x="618" 
d="M309 796q-70 0 -116 37.5t-50 107.5h88q4 -29 26.5 -44.5t51.5 -15.5q30 0 52.5 15.5t25.5 44.5h89q-5 -71 -50.5 -108t-116.5 -37zM477 0l-53 186h-230l-53 -186h-151l236 741h162l240 -741h-151zM227 303h164l-80 282h-4z" />
    <glyph glyph-name="abreve" unicode="&#x103;" horiz-adv-x="570" 
d="M292 596q-70 0 -116 37.5t-50 107.5h88q4 -29 26.5 -44.5t51.5 -15.5q30 0 52.5 15.5t25.5 44.5h89q-5 -71 -50.5 -108t-116.5 -37zM212 -11q-75 0 -123.5 44t-48.5 117q0 82 55.5 123t177.5 57q52 8 67.5 17t15.5 36q0 25 -17 40t-47 15q-79 0 -129 -74l-75 87
q71 94 208 94q100 0 148.5 -45t48.5 -124v-376h-134v58q-36 -37 -68.5 -53t-78.5 -16zM240 92q60 0 112 70v82h-2l-74 -11q-98 -13 -98 -81q0 -26 15.5 -43t46.5 -17z" />
    <glyph glyph-name="Aogonek" unicode="&#x104;" horiz-adv-x="618" 
d="M587 0q-42 -13 -70 -38t-28 -52q0 -14 11.5 -22.5t26.5 -8.5q29 0 59 20v-69q-32 -22 -76 -22q-46 0 -75.5 23t-29.5 64q0 66 71 107l-52 184h-230l-53 -186h-151l236 741h162l240 -741h-41zM227 303h164l-80 282h-4z" />
    <glyph glyph-name="aogonek" unicode="&#x105;" horiz-adv-x="570" 
d="M296 545q100 0 148.5 -45t48.5 -124v-376h-20q-42 -13 -70 -38t-28 -52q0 -14 11.5 -22.5t26.5 -8.5q29 0 59 20v-69q-32 -22 -76 -22q-46 0 -75.5 23t-29.5 64q0 64 68 105v58q-36 -37 -68.5 -53t-78.5 -16q-75 0 -123.5 44t-48.5 117q0 82 55.5 123t177.5 57
q52 8 67.5 17t15.5 36q0 25 -17 40t-47 15q-79 0 -129 -74l-75 87q71 94 208 94zM352 162v82h-2l-74 -11q-98 -13 -98 -81q0 -26 15.5 -43t46.5 -17q60 0 112 70z" />
    <glyph glyph-name="Cacute" unicode="&#x106;" horiz-adv-x="636" 
d="M292 804l56 137h135l-98 -137h-93zM340 -15q-76 0 -136.5 33.5t-96.5 89t-54.5 122.5t-18.5 139t18.5 138.5t54.5 122t96.5 89t136.5 33.5q106 0 176.5 -54.5t95.5 -155.5l-135 -68q-4 70 -39 115.5t-98 45.5q-45 0 -77.5 -27t-48 -71t-22 -85.5t-6.5 -82.5
q0 -42 6.5 -83.5t22 -85.5t48 -71t77.5 -27q62 0 97.5 46.5t39.5 116.5l134 -72q-24 -98 -95 -153t-176 -55z" />
    <glyph glyph-name="cacute" unicode="&#x107;" horiz-adv-x="524" 
d="M226 604l56 137h135l-98 -137h-93zM272 -11q-110 0 -172 82t-62 196q0 115 61.5 196.5t172.5 81.5q92 0 141 -41.5t76 -118.5l-119 -55q-5 24 -10 39.5t-15.5 34t-28.5 28t-44 9.5q-27 0 -46 -17t-27.5 -46t-12 -55.5t-3.5 -55.5t3.5 -56t12 -56t27.5 -46t46 -17
q26 0 44 9.5t28 28.5t15 34.5t10 40.5l121 -53q-22 -75 -80.5 -119t-137.5 -44z" />
    <glyph glyph-name="Ccircumflex" unicode="&#x108;" horiz-adv-x="636" 
d="M179 804l94 137h134l94 -137h-102l-59 80l-57 -80h-104zM340 -15q-76 0 -136.5 33.5t-96.5 89t-54.5 122.5t-18.5 139t18.5 138.5t54.5 122t96.5 89t136.5 33.5q106 0 176.5 -54.5t95.5 -155.5l-135 -68q-4 70 -39 115.5t-98 45.5q-45 0 -77.5 -27t-48 -71t-22 -85.5
t-6.5 -82.5q0 -42 6.5 -83.5t22 -85.5t48 -71t77.5 -27q62 0 97.5 46.5t39.5 116.5l134 -72q-24 -98 -95 -153t-176 -55z" />
    <glyph glyph-name="ccircumflex" unicode="&#x109;" horiz-adv-x="524" 
d="M113 604l94 137h134l94 -137h-102l-59 80l-57 -80h-104zM272 -11q-110 0 -172 82t-62 196q0 115 61.5 196.5t172.5 81.5q92 0 141 -41.5t76 -118.5l-119 -55q-5 24 -10 39.5t-15.5 34t-28.5 28t-44 9.5q-27 0 -46 -17t-27.5 -46t-12 -55.5t-3.5 -55.5t3.5 -56t12 -56
t27.5 -46t46 -17q26 0 44 9.5t28 28.5t15 34.5t10 40.5l121 -53q-22 -75 -80.5 -119t-137.5 -44z" />
    <glyph glyph-name="Cdotaccent" unicode="&#x10a;" horiz-adv-x="636" 
d="M340 794q-32 0 -55 23t-23 55t23 55t55 23t55 -23t23 -55t-23 -55t-55 -23zM340 -15q-76 0 -136.5 33.5t-96.5 89t-54.5 122.5t-18.5 139t18.5 138.5t54.5 122t96.5 89t136.5 33.5q106 0 176.5 -54.5t95.5 -155.5l-135 -68q-4 70 -39 115.5t-98 45.5q-45 0 -77.5 -27
t-48 -71t-22 -85.5t-6.5 -82.5q0 -42 6.5 -83.5t22 -85.5t48 -71t77.5 -27q62 0 97.5 46.5t39.5 116.5l134 -72q-24 -98 -95 -153t-176 -55z" />
    <glyph glyph-name="cdotaccent" unicode="&#x10b;" horiz-adv-x="524" 
d="M274 594q-32 0 -55 23t-23 55t23 55t55 23t55 -23t23 -55t-23 -55t-55 -23zM272 -11q-110 0 -172 82t-62 196q0 115 61.5 196.5t172.5 81.5q92 0 141 -41.5t76 -118.5l-119 -55q-5 24 -10 39.5t-15.5 34t-28.5 28t-44 9.5q-27 0 -46 -17t-27.5 -46t-12 -55.5t-3.5 -55.5
t3.5 -56t12 -56t27.5 -46t46 -17q26 0 44 9.5t28 28.5t15 34.5t10 40.5l121 -53q-22 -75 -80.5 -119t-137.5 -44z" />
    <glyph glyph-name="Ccaron" unicode="&#x10c;" horiz-adv-x="636" 
d="M273 804l-94 137h104l57 -80l59 80h102l-94 -137h-134zM340 -15q-76 0 -136.5 33.5t-96.5 89t-54.5 122.5t-18.5 139t18.5 138.5t54.5 122t96.5 89t136.5 33.5q106 0 176.5 -54.5t95.5 -155.5l-135 -68q-4 70 -39 115.5t-98 45.5q-45 0 -77.5 -27t-48 -71t-22 -85.5
t-6.5 -82.5q0 -42 6.5 -83.5t22 -85.5t48 -71t77.5 -27q62 0 97.5 46.5t39.5 116.5l134 -72q-24 -98 -95 -153t-176 -55z" />
    <glyph glyph-name="ccaron" unicode="&#x10d;" horiz-adv-x="524" 
d="M207 604l-94 137h104l57 -80l59 80h102l-94 -137h-134zM272 -11q-110 0 -172 82t-62 196q0 115 61.5 196.5t172.5 81.5q92 0 141 -41.5t76 -118.5l-119 -55q-5 24 -10 39.5t-15.5 34t-28.5 28t-44 9.5q-27 0 -46 -17t-27.5 -46t-12 -55.5t-3.5 -55.5t3.5 -56t12 -56
t27.5 -46t46 -17q26 0 44 9.5t28 28.5t15 34.5t10 40.5l121 -53q-22 -75 -80.5 -119t-137.5 -44z" />
    <glyph glyph-name="Dcaron" unicode="&#x10e;" horiz-adv-x="687" 
d="M276 804l-94 137h104l57 -80l59 80h102l-94 -137h-134zM90 0v741h201q187 0 274.5 -100.5t87.5 -270.5q0 -163 -85 -266.5t-245 -103.5h-233zM239 126h72q190 0 190 262q0 116 -50.5 171.5t-155.5 55.5h-56v-489z" />
    <glyph glyph-name="dcaron" unicode="&#x10f;" 
d="M252 -11q-91 0 -148.5 67.5t-57.5 223.5q0 70 19 124t50 83t63 43.5t63 14.5q27 0 51.5 -10t39.5 -21t40 -33v241l141 57v-779h-125v45q-34 -30 -63.5 -43t-72.5 -13zM545 585l9 194h126l-34 -194h-101zM281 109q53 0 91 61v205q-46 58 -94 58q-28 0 -47.5 -16t-29 -41.5
t-13.5 -50t-4 -50.5q0 -166 97 -166z" />
    <glyph glyph-name="Dcroat" unicode="&#x110;" horiz-adv-x="687" 
d="M291 741q187 0 274.5 -100.5t87.5 -270.5q0 -163 -85 -266.5t-245 -103.5h-233v330h-76v100h76v311h201zM311 126q190 0 190 262q0 116 -50.5 171.5t-155.5 55.5h-56v-185h108v-100h-108v-204h72z" />
    <glyph glyph-name="dcroat" unicode="&#x111;" 
d="M573 690v-100h-60v-590h-125v45q-34 -30 -63.5 -43t-72.5 -13q-91 0 -148.5 67.5t-57.5 223.5q0 70 19 124t50 83t63 43.5t63 14.5q27 0 51.5 -10t39.5 -21t40 -33v109h-114v100h114v32l141 57v-89h60zM372 170v205q-46 58 -94 58q-28 0 -47.5 -16t-29 -41.5t-13.5 -50
t-4 -50.5q0 -166 97 -166q53 0 91 61z" />
    <glyph glyph-name="Emacron" unicode="&#x112;" horiz-adv-x="608" 
d="M155 851v90h333v-90h-333zM90 0v741h461v-126h-312v-177h259v-126h-259v-186h330v-126h-479z" />
    <glyph glyph-name="emacron" unicode="&#x113;" horiz-adv-x="541" 
d="M111 651v90h333v-90h-333zM272 -11q-110 0 -172 82t-62 196q0 115 64 196.5t178 81.5q225 0 225 -299v-13h-325q-4 -52 24.5 -95.5t79.5 -43.5q40 0 71.5 24.5t48.5 62.5l87 -73q-77 -119 -219 -119zM184 322h183q0 51 -22 85t-69 34q-44 0 -67 -35t-25 -84z" />
    <glyph glyph-name="Ebreve" unicode="&#x114;" horiz-adv-x="608" 
d="M321 796q-70 0 -116 37.5t-50 107.5h88q4 -29 26.5 -44.5t51.5 -15.5q30 0 52.5 15.5t25.5 44.5h89q-5 -71 -50.5 -108t-116.5 -37zM90 0v741h461v-126h-312v-177h259v-126h-259v-186h330v-126h-479z" />
    <glyph glyph-name="ebreve" unicode="&#x115;" horiz-adv-x="541" 
d="M277 596q-70 0 -116 37.5t-50 107.5h88q4 -29 26.5 -44.5t51.5 -15.5q30 0 52.5 15.5t25.5 44.5h89q-5 -71 -50.5 -108t-116.5 -37zM272 -11q-110 0 -172 82t-62 196q0 115 64 196.5t178 81.5q225 0 225 -299v-13h-325q-4 -52 24.5 -95.5t79.5 -43.5q40 0 71.5 24.5
t48.5 62.5l87 -73q-77 -119 -219 -119zM184 322h183q0 51 -22 85t-69 34q-44 0 -67 -35t-25 -84z" />
    <glyph glyph-name="Edotaccent" unicode="&#x116;" horiz-adv-x="608" 
d="M321 794q-32 0 -55 23t-23 55t23 55t55 23t55 -23t23 -55t-23 -55t-55 -23zM90 0v741h461v-126h-312v-177h259v-126h-259v-186h330v-126h-479z" />
    <glyph glyph-name="edotaccent" unicode="&#x117;" horiz-adv-x="541" 
d="M277 594q-32 0 -55 23t-23 55t23 55t55 23t55 -23t23 -55t-23 -55t-55 -23zM272 -11q-110 0 -172 82t-62 196q0 115 64 196.5t178 81.5q225 0 225 -299v-13h-325q-4 -52 24.5 -95.5t79.5 -43.5q40 0 71.5 24.5t48.5 62.5l87 -73q-77 -119 -219 -119zM184 322h183
q0 51 -22 85t-69 34q-44 0 -67 -35t-25 -84z" />
    <glyph glyph-name="Eogonek" unicode="&#x118;" horiz-adv-x="608" 
d="M569 0q-42 -13 -70 -38t-28 -52q0 -14 11.5 -22.5t26.5 -8.5q29 0 59 20v-69q-32 -22 -76 -22q-46 0 -75.5 23t-29.5 64q0 64 68 105h-365v741h461v-126h-312v-177h259v-126h-259v-186h330v-126z" />
    <glyph glyph-name="eogonek" unicode="&#x119;" horiz-adv-x="541" 
d="M404 -192q-47 0 -76.5 23t-29.5 64q0 28 12 50.5t39 53.5q-34 -10 -77 -10q-110 0 -172 82t-62 196q0 115 64 196.5t178 81.5q225 0 225 -299v-13h-325q-4 -52 24.5 -95.5t79.5 -43.5q40 0 71.5 24.5t48.5 62.5l87 -73q-36 -51 -54.5 -78.5t-36 -61.5t-17.5 -52
t11.5 -27.5t26.5 -9.5q28 0 58 20v-69q-32 -22 -75 -22zM184 322h183q0 51 -22 85t-69 34q-44 0 -67 -35t-25 -84z" />
    <glyph glyph-name="Ecaron" unicode="&#x11a;" horiz-adv-x="608" 
d="M254 804l-94 137h104l57 -80l59 80h102l-94 -137h-134zM90 0v741h461v-126h-312v-177h259v-126h-259v-186h330v-126h-479z" />
    <glyph glyph-name="ecaron" unicode="&#x11b;" horiz-adv-x="541" 
d="M210 604l-94 137h104l57 -80l59 80h102l-94 -137h-134zM272 -11q-110 0 -172 82t-62 196q0 115 64 196.5t178 81.5q225 0 225 -299v-13h-325q-4 -52 24.5 -95.5t79.5 -43.5q40 0 71.5 24.5t48.5 62.5l87 -73q-77 -119 -219 -119zM184 322h183q0 51 -22 85t-69 34
q-44 0 -67 -35t-25 -84z" />
    <glyph glyph-name="Gcircumflex" unicode="&#x11c;" horiz-adv-x="653" 
d="M184 804l94 137h134l94 -137h-102l-59 80l-57 -80h-104zM340 -11q-76 0 -136.5 33t-96.5 88t-54.5 121.5t-18.5 138.5q0 73 18.5 139t55 121.5t97.5 88.5t139 33q108 0 175.5 -53t88.5 -148l-128 -59q-18 143 -140 143q-45 0 -77.5 -27t-48 -70.5t-22 -84.5t-6.5 -83
q0 -41 6.5 -82t22 -84.5t48 -70.5t77.5 -27q73 0 102 34.5t29 100.5v14h-130v117h272v-372h-104l-13 59q-45 -70 -156 -70z" />
    <glyph glyph-name="gcircumflex" unicode="&#x11d;" horiz-adv-x="553" 
d="M268 684l-57 -80h-104l94 137h134l94 -137h-102zM386 110q159 -9 159 -126q0 -171 -264 -171q-129 0 -188.5 39.5t-59.5 98.5q0 51 57 85q-38 31 -38 73q0 27 13.5 52.5t48.5 62.5q-62 55 -62 134q0 85 63 136t152 51q73 0 131 -37q46 43 99 43q19 0 39 -3v-99
q-31 11 -45 11q-17 0 -34 -12q25 -42 25 -90q0 -85 -63 -136t-153 -51q-35 0 -72 10q-19 -17 -19 -34q0 -15 14.5 -21.5t52.5 -8.5zM267 453q-41 0 -59 -28.5t-18 -68.5q0 -42 19 -67.5t57 -25.5q41 0 59.5 28.5t18.5 68.5q0 42 -19 67.5t-58 25.5zM282 -90q52 0 99.5 11
t47.5 40q0 17 -21 22.5t-82 8.5l-143 10q-2 0 -6 0.5t-5 0.5q-24 -13 -24 -37q0 -56 134 -56z" />
    <glyph glyph-name="Gbreve" unicode="&#x11e;" horiz-adv-x="653" 
d="M345 796q-70 0 -116 37.5t-50 107.5h88q4 -29 26.5 -44.5t51.5 -15.5q30 0 52.5 15.5t25.5 44.5h89q-5 -71 -50.5 -108t-116.5 -37zM340 -11q-76 0 -136.5 33t-96.5 88t-54.5 121.5t-18.5 138.5q0 73 18.5 139t55 121.5t97.5 88.5t139 33q108 0 175.5 -53t88.5 -148
l-128 -59q-18 143 -140 143q-45 0 -77.5 -27t-48 -70.5t-22 -84.5t-6.5 -83q0 -41 6.5 -82t22 -84.5t48 -70.5t77.5 -27q73 0 102 34.5t29 100.5v14h-130v117h272v-372h-104l-13 59q-45 -70 -156 -70z" />
    <glyph glyph-name="gbreve" unicode="&#x11f;" horiz-adv-x="553" 
d="M268 596q-70 0 -116 37.5t-50 107.5h88q4 -29 26.5 -44.5t51.5 -15.5q30 0 52.5 15.5t25.5 44.5h89q-5 -71 -50.5 -108t-116.5 -37zM386 110q159 -9 159 -126q0 -171 -264 -171q-129 0 -188.5 39.5t-59.5 98.5q0 51 57 85q-38 31 -38 73q0 27 13.5 52.5t48.5 62.5
q-62 55 -62 134q0 85 63 136t152 51q73 0 131 -37q46 43 99 43q19 0 39 -3v-99q-31 11 -45 11q-17 0 -34 -12q25 -42 25 -90q0 -85 -63 -136t-153 -51q-35 0 -72 10q-19 -17 -19 -34q0 -15 14.5 -21.5t52.5 -8.5zM267 453q-41 0 -59 -28.5t-18 -68.5q0 -42 19 -67.5
t57 -25.5q41 0 59.5 28.5t18.5 68.5q0 42 -19 67.5t-58 25.5zM282 -90q52 0 99.5 11t47.5 40q0 17 -21 22.5t-82 8.5l-143 10q-2 0 -6 0.5t-5 0.5q-24 -13 -24 -37q0 -56 134 -56z" />
    <glyph glyph-name="Gdotaccent" unicode="&#x120;" horiz-adv-x="653" 
d="M345 794q-32 0 -55 23t-23 55t23 55t55 23t55 -23t23 -55t-23 -55t-55 -23zM340 -11q-76 0 -136.5 33t-96.5 88t-54.5 121.5t-18.5 138.5q0 73 18.5 139t55 121.5t97.5 88.5t139 33q108 0 175.5 -53t88.5 -148l-128 -59q-18 143 -140 143q-45 0 -77.5 -27t-48 -70.5
t-22 -84.5t-6.5 -83q0 -41 6.5 -82t22 -84.5t48 -70.5t77.5 -27q73 0 102 34.5t29 100.5v14h-130v117h272v-372h-104l-13 59q-45 -70 -156 -70z" />
    <glyph glyph-name="gdotaccent" unicode="&#x121;" horiz-adv-x="553" 
d="M268 594q-32 0 -55 23t-23 55t23 55t55 23t55 -23t23 -55t-23 -55t-55 -23zM386 110q159 -9 159 -126q0 -171 -264 -171q-129 0 -188.5 39.5t-59.5 98.5q0 51 57 85q-38 31 -38 73q0 27 13.5 52.5t48.5 62.5q-62 55 -62 134q0 85 63 136t152 51q73 0 131 -37q46 43 99 43
q19 0 39 -3v-99q-31 11 -45 11q-17 0 -34 -12q25 -42 25 -90q0 -85 -63 -136t-153 -51q-35 0 -72 10q-19 -17 -19 -34q0 -15 14.5 -21.5t52.5 -8.5zM267 453q-41 0 -59 -28.5t-18 -68.5q0 -42 19 -67.5t57 -25.5q41 0 59.5 28.5t18.5 68.5q0 42 -19 67.5t-58 25.5zM282 -90
q52 0 99.5 11t47.5 40q0 17 -21 22.5t-82 8.5l-143 10q-2 0 -6 0.5t-5 0.5q-24 -13 -24 -37q0 -56 134 -56z" />
    <glyph glyph-name="uni0122" unicode="&#x122;" horiz-adv-x="653" 
d="M340 -11q-76 0 -136.5 33t-96.5 88t-54.5 121.5t-18.5 138.5q0 73 18.5 139t55 121.5t97.5 88.5t139 33q108 0 175.5 -53t88.5 -148l-128 -59q-18 143 -140 143q-45 0 -77.5 -27t-48 -70.5t-22 -84.5t-6.5 -83q0 -41 6.5 -82t22 -84.5t48 -70.5t77.5 -27q73 0 102 34.5
t29 100.5v14h-130v117h272v-372h-104l-13 59q-45 -70 -156 -70zM221 -195l56 137h135l-98 -137h-93z" />
    <glyph glyph-name="uni0123" unicode="&#x123;" horiz-adv-x="553" 
d="M388 741l-56 -137h-135l98 137h93zM386 110q159 -9 159 -126q0 -171 -264 -171q-129 0 -188.5 39.5t-59.5 98.5q0 51 57 85q-38 31 -38 73q0 27 13.5 52.5t48.5 62.5q-62 55 -62 134q0 85 63 136t152 51q73 0 131 -37q46 43 99 43q19 0 39 -3v-99q-31 11 -45 11
q-17 0 -34 -12q25 -42 25 -90q0 -85 -63 -136t-153 -51q-35 0 -72 10q-19 -17 -19 -34q0 -15 14.5 -21.5t52.5 -8.5zM267 453q-41 0 -59 -28.5t-18 -68.5q0 -42 19 -67.5t57 -25.5q41 0 59.5 28.5t18.5 68.5q0 42 -19 67.5t-58 25.5zM282 -90q52 0 99.5 11t47.5 40
q0 17 -21 22.5t-82 8.5l-143 10q-2 0 -6 0.5t-5 0.5q-24 -13 -24 -37q0 -56 134 -56z" />
    <glyph glyph-name="Hcircumflex" unicode="&#x124;" horiz-adv-x="722" 
d="M201 804l94 137h134l94 -137h-102l-59 80l-57 -80h-104zM90 0v741h149v-290h245v290h148v-741h-148v326h-245v-326h-149z" />
    <glyph glyph-name="hcircumflex" unicode="&#x125;" horiz-adv-x="596" 
d="M-9 820l94 137h134l94 -137h-102l-59 80l-57 -80h-104zM79 0v722l141 57v-301q81 67 157 67q56 0 99 -39t43 -128v-378h-141v327q0 24 -1.5 39.5t-7 31.5t-17.5 24t-31 8q-42 0 -101 -54v-376h-141z" />
    <glyph glyph-name="Hbar" unicode="&#x126;" horiz-adv-x="722" 
d="M708 648v-99h-76v-549h-148v326h-245v-326h-149v549h-76v99h76v93h149v-93h245v93h148v-93h76zM484 451v98h-245v-98h245z" />
    <glyph glyph-name="hbar" unicode="&#x127;" horiz-adv-x="596" 
d="M377 545q56 0 99 -39t43 -128v-378h-141v327q0 24 -1.5 39.5t-7 31.5t-17.5 24t-31 8q-42 0 -101 -54v-376h-141v590h-60v100h60v32l141 57v-89h113v-100h-113v-112q81 67 157 67z" />
    <glyph glyph-name="Itilde" unicode="&#x128;" horiz-adv-x="329" 
d="M47 831l-42 54q47 74 102 74q21 0 60.5 -17.5t55.5 -17.5q14 0 25 6.5t16.5 13t14.5 20.5l46 -51q-44 -76 -96 -76q-22 0 -65.5 18.5t-59.5 18.5q-14 0 -25.5 -7t-17 -14t-14.5 -22zM90 0v741h149v-741h-149z" />
    <glyph glyph-name="itilde" unicode="&#x129;" horiz-adv-x="299" 
d="M31 631l-42 54q47 74 102 74q21 0 60.5 -17.5t55.5 -17.5q14 0 25 6.5t16.5 13t14.5 20.5l46 -51q-44 -76 -96 -76q-22 0 -65.5 18.5t-59.5 18.5q-14 0 -25.5 -7t-17 -14t-14.5 -22zM79 0v533h141v-533h-141z" />
    <glyph glyph-name="Imacron" unicode="&#x12a;" horiz-adv-x="329" 
d="M-1 851v90h333v-90h-333zM90 0v741h149v-741h-149z" />
    <glyph glyph-name="imacron" unicode="&#x12b;" horiz-adv-x="299" 
d="M-17 651v90h333v-90h-333zM79 0v533h141v-533h-141z" />
    <glyph glyph-name="Ibreve" unicode="&#x12c;" horiz-adv-x="329" 
d="M165 796q-70 0 -116 37.5t-50 107.5h88q4 -29 26.5 -44.5t51.5 -15.5q30 0 52.5 15.5t25.5 44.5h89q-5 -71 -50.5 -108t-116.5 -37zM90 0v741h149v-741h-149z" />
    <glyph glyph-name="ibreve" unicode="&#x12d;" horiz-adv-x="299" 
d="M149 596q-70 0 -116 37.5t-50 107.5h88q4 -29 26.5 -44.5t51.5 -15.5q30 0 52.5 15.5t25.5 44.5h89q-5 -71 -50.5 -108t-116.5 -37zM79 0v533h141v-533h-141z" />
    <glyph glyph-name="Iogonek" unicode="&#x12e;" horiz-adv-x="329" 
d="M90 741h149v-741h-38q-42 -13 -70 -38t-28 -52q0 -14 11.5 -22.5t26.5 -8.5q29 0 59 20v-69q-32 -22 -76 -22q-46 0 -75.5 23t-29.5 64q0 65 71 107v739z" />
    <glyph glyph-name="iogonek" unicode="&#x12f;" horiz-adv-x="299" 
d="M149 591q-33 0 -57.5 24.5t-24.5 57.5q0 34 24.5 58t57.5 24q34 0 58 -24t24 -58q0 -33 -24 -57.5t-58 -24.5zM79 0v533h141v-533h-22q-42 -13 -70 -38t-28 -52q0 -14 11.5 -22.5t26.5 -8.5q29 0 59 20v-69q-32 -22 -76 -22q-46 0 -75.5 23t-29.5 64q0 64 68 105h-5z" />
    <glyph glyph-name="Idotaccent" unicode="&#x130;" horiz-adv-x="329" 
d="M165 794q-32 0 -55 23t-23 55t23 55t55 23t55 -23t23 -55t-23 -55t-55 -23zM90 0v741h149v-741h-149z" />
    <glyph glyph-name="dotlessi" unicode="&#x131;" horiz-adv-x="299" 
d="M79 0v533h141v-533h-141z" />
    <glyph glyph-name="IJ" unicode="&#x132;" horiz-adv-x="850" 
d="M90 0v741h149v-741h-149zM543 -11q-99 0 -150.5 45.5t-47.5 138.5l134 56q-6 -55 12 -89t56 -34q31 0 50.5 24.5t19.5 70.5v540h148v-512q0 -240 -222 -240z" />
    <glyph glyph-name="ij" unicode="&#x133;" horiz-adv-x="598" 
d="M149 591q-33 0 -57.5 24.5t-24.5 57.5q0 34 24.5 58t57.5 24q34 0 58 -24t24 -58q0 -33 -24 -57.5t-58 -24.5zM448 591q-33 0 -57.5 24.5t-24.5 57.5q0 34 24.5 58t57.5 24q34 0 58 -24t24 -58q0 -33 -24 -57.5t-58 -24.5zM79 0v533h141v-533h-141zM341 -186q-32 0 -61 4
v113q32 -4 42 -4q30 0 43 18t13 63v525h141v-529q0 -96 -41.5 -143t-136.5 -47z" />
    <glyph glyph-name="Jcircumflex" unicode="&#x134;" horiz-adv-x="521" 
d="M202 804l94 137h134l94 -137h-102l-59 80l-57 -80h-104zM214 -11q-99 0 -150.5 45.5t-47.5 138.5l134 56q-6 -55 12 -89t56 -34q31 0 50.5 24.5t19.5 70.5v540h148v-512q0 -240 -222 -240z" />
    <glyph glyph-name="jcircumflex" unicode="&#x135;" horiz-adv-x="299" 
d="M-12 604l94 137h134l94 -137h-102l-59 80l-57 -80h-104zM42 -186q-32 0 -61 4v113q32 -4 42 -4q30 0 43 18t13 63v525h141v-529q0 -96 -41.5 -143t-136.5 -47z" />
    <glyph glyph-name="uni0136" unicode="&#x136;" horiz-adv-x="668" 
d="M416 451l249 -451h-170l-180 330l-76 -100v-230h-149v741h149v-310l226 310h172zM250 -195l56 137h135l-98 -137h-93z" />
    <glyph glyph-name="uni0137" unicode="&#x137;" horiz-adv-x="552" 
d="M367 331l179 -331h-158l-119 223l-49 -62v-161h-141v722l141 57v-328q0 -84 -2 -126h1q54 80 79 113l70 95h162zM182 -195l56 137h135l-98 -137h-93z" />
    <glyph glyph-name="kgreenlandic" unicode="&#x138;" horiz-adv-x="552" 
d="M546 0h-158l-119 223l-49 -62v-161h-141v533h141v-82q0 -84 -2 -126h1q54 80 79 113l70 95h162l-163 -202z" />
    <glyph glyph-name="Lacute" unicode="&#x139;" horiz-adv-x="566" 
d="M117 804l56 137h135l-98 -137h-93zM90 0v741h149v-615h308v-126h-457z" />
    <glyph glyph-name="lacute" unicode="&#x13a;" horiz-adv-x="299" 
d="M105 820l56 137h135l-98 -137h-93zM79 0v722l141 57v-779h-141z" />
    <glyph glyph-name="uni013B" unicode="&#x13b;" horiz-adv-x="566" 
d="M90 0v741h149v-615h308v-126h-457zM208 -195l56 137h135l-98 -137h-93z" />
    <glyph glyph-name="uni013C" unicode="&#x13c;" horiz-adv-x="299" 
d="M79 0v722l141 57v-779h-141zM27 -195l56 137h135l-98 -137h-93z" />
    <glyph glyph-name="Lcaron" unicode="&#x13d;" horiz-adv-x="566" 
d="M297 585l9 194h126l-34 -194h-101zM90 0v741h149v-615h308v-126h-457z" />
    <glyph glyph-name="lcaron" unicode="&#x13e;" horiz-adv-x="299" 
d="M79 0v722l141 57v-779h-141zM251 585l9 194h126l-34 -194h-101z" />
    <glyph glyph-name="Ldot" unicode="&#x13f;" horiz-adv-x="574" 
d="M90 0v741h149v-615h308v-126h-457zM448 310q-35 0 -60.5 25.5t-25.5 60.5t25.5 60.5t60.5 25.5t60 -25.5t25 -60.5t-25.5 -60.5t-59.5 -25.5z" />
    <glyph glyph-name="ldot" unicode="&#x140;" horiz-adv-x="384" 
d="M79 0v722l141 57v-779h-141zM338 291q-35 0 -60.5 25.5t-25.5 60.5t25.5 60.5t60.5 25.5t60 -25.5t25 -60.5t-25.5 -60.5t-59.5 -25.5z" />
    <glyph glyph-name="Lslash" unicode="&#x141;" horiz-adv-x="566" 
d="M239 126h308v-126h-457v294l-57 -28l-36 75l93 45v355h149v-282l100 49l36 -76l-136 -66v-240z" />
    <glyph glyph-name="lslash" unicode="&#x142;" horiz-adv-x="301" 
d="M306 424l-86 -42v-382h-141v313l-52 -26l-31 74l83 41v320l141 57v-308l55 27z" />
    <glyph glyph-name="Nacute" unicode="&#x143;" horiz-adv-x="770" 
d="M337 804l56 137h135l-98 -137h-93zM90 0v741h167l275 -491h2v491h146v-741h-156l-286 510h-2v-510h-146z" />
    <glyph glyph-name="nacute" unicode="&#x144;" horiz-adv-x="596" 
d="M258 604l56 137h135l-98 -137h-93zM79 0v533h141v-55q81 67 157 67q56 0 99 -39t43 -128v-378h-141v327q0 24 -1.5 39.5t-7 31.5t-17.5 24t-31 8q-42 0 -101 -54v-376h-141z" />
    <glyph glyph-name="uni0145" unicode="&#x145;" horiz-adv-x="770" 
d="M90 0v741h167l275 -491h2v491h146v-741h-156l-286 510h-2v-510h-146zM263 -195l56 137h135l-98 -137h-93z" />
    <glyph glyph-name="uni0146" unicode="&#x146;" horiz-adv-x="596" 
d="M79 0v533h141v-55q81 67 157 67q56 0 99 -39t43 -128v-378h-141v327q0 24 -1.5 39.5t-7 31.5t-17.5 24t-31 8q-42 0 -101 -54v-376h-141zM176 -195l56 137h135l-98 -137h-93z" />
    <glyph glyph-name="Ncaron" unicode="&#x147;" horiz-adv-x="770" 
d="M318 804l-94 137h104l57 -80l59 80h102l-94 -137h-134zM90 0v741h167l275 -491h2v491h146v-741h-156l-286 510h-2v-510h-146z" />
    <glyph glyph-name="ncaron" unicode="&#x148;" horiz-adv-x="596" 
d="M239 604l-94 137h104l57 -80l59 80h102l-94 -137h-134zM79 0v533h141v-55q81 67 157 67q56 0 99 -39t43 -128v-378h-141v327q0 24 -1.5 39.5t-7 31.5t-17.5 24t-31 8q-42 0 -101 -54v-376h-141z" />
    <glyph glyph-name="napostrophe" unicode="&#x149;" horiz-adv-x="596" 
d="M77 604l37 137h145l-80 -137h-102zM79 0v533h141v-55q81 67 157 67q56 0 99 -39t43 -128v-378h-141v327q0 24 -1.5 39.5t-7 31.5t-17.5 24t-31 8q-42 0 -101 -54v-376h-141z" />
    <glyph glyph-name="Eng" unicode="&#x14a;" horiz-adv-x="770" 
d="M458 -182q-54 0 -98 23.5t-67 64.5l89 83q29 -54 80 -54q24 0 41 16.5t22 48.5l-287 510h-2v-510h-146v741h167l275 -489h2v489h146v-683q0 -240 -222 -240z" />
    <glyph glyph-name="eng" unicode="&#x14b;" horiz-adv-x="596" 
d="M341 -186q-32 0 -61 4v113q32 -4 42 -4q30 0 43 18t13 63v319q0 24 -1.5 39.5t-7 31.5t-17.5 24t-31 8q-42 0 -101 -54v-376h-141v533h141v-55q81 67 157 67q56 0 99 -39t43 -128v-374q0 -96 -41.5 -143t-136.5 -47z" />
    <glyph glyph-name="Omacron" unicode="&#x14c;" horiz-adv-x="679" 
d="M174 851v90h333v-90h-333zM340 -15q-76 0 -136.5 33.5t-96.5 89t-54.5 122.5t-18.5 139t18.5 138.5t54.5 122t96.5 89t136.5 33.5t136 -33.5t96 -89t54.5 -122t18.5 -138.5t-18.5 -139t-54.5 -122.5t-96 -89t-136 -33.5zM340 102q45 0 77 27t47.5 71t22 85.5t6.5 83.5
q0 41 -6.5 82.5t-22 85.5t-47.5 71t-77 27t-77.5 -27t-48 -71t-22 -85.5t-6.5 -82.5q0 -42 6.5 -83.5t22 -85.5t48 -71t77.5 -27z" />
    <glyph glyph-name="omacron" unicode="&#x14d;" horiz-adv-x="544" 
d="M106 651v90h333v-90h-333zM272 -11q-74 0 -128.5 40t-80 102t-25.5 136q0 116 61.5 197t172.5 81t172.5 -81t61.5 -197q0 -74 -25.5 -136t-80 -102t-128.5 -40zM272 92q27 0 46 17t28 46t12.5 56t3.5 56t-3.5 56t-12.5 55.5t-28 45.5t-46 17t-46 -17t-27.5 -46t-12 -55.5
t-3.5 -55.5t3.5 -56t12 -56t27.5 -46t46 -17z" />
    <glyph glyph-name="Obreve" unicode="&#x14e;" horiz-adv-x="679" 
d="M340 796q-70 0 -116 37.5t-50 107.5h88q4 -29 26.5 -44.5t51.5 -15.5q30 0 52.5 15.5t25.5 44.5h89q-5 -71 -50.5 -108t-116.5 -37zM340 -15q-76 0 -136.5 33.5t-96.5 89t-54.5 122.5t-18.5 139t18.5 138.5t54.5 122t96.5 89t136.5 33.5t136 -33.5t96 -89t54.5 -122
t18.5 -138.5t-18.5 -139t-54.5 -122.5t-96 -89t-136 -33.5zM340 102q45 0 77 27t47.5 71t22 85.5t6.5 83.5q0 41 -6.5 82.5t-22 85.5t-47.5 71t-77 27t-77.5 -27t-48 -71t-22 -85.5t-6.5 -82.5q0 -42 6.5 -83.5t22 -85.5t48 -71t77.5 -27z" />
    <glyph glyph-name="obreve" unicode="&#x14f;" horiz-adv-x="544" 
d="M272 596q-70 0 -116 37.5t-50 107.5h88q4 -29 26.5 -44.5t51.5 -15.5q30 0 52.5 15.5t25.5 44.5h89q-5 -71 -50.5 -108t-116.5 -37zM272 -11q-74 0 -128.5 40t-80 102t-25.5 136q0 116 61.5 197t172.5 81t172.5 -81t61.5 -197q0 -74 -25.5 -136t-80 -102t-128.5 -40z
M272 92q27 0 46 17t28 46t12.5 56t3.5 56t-3.5 56t-12.5 55.5t-28 45.5t-46 17t-46 -17t-27.5 -46t-12 -55.5t-3.5 -55.5t3.5 -56t12 -56t27.5 -46t46 -17z" />
    <glyph glyph-name="Ohungarumlaut" unicode="&#x150;" horiz-adv-x="679" 
d="M228 804l56 137h97l-79 -137h-74zM378 804l56 137h97l-79 -137h-74zM340 -15q-76 0 -136.5 33.5t-96.5 89t-54.5 122.5t-18.5 139t18.5 138.5t54.5 122t96.5 89t136.5 33.5t136 -33.5t96 -89t54.5 -122t18.5 -138.5t-18.5 -139t-54.5 -122.5t-96 -89t-136 -33.5zM340 102
q45 0 77 27t47.5 71t22 85.5t6.5 83.5q0 41 -6.5 82.5t-22 85.5t-47.5 71t-77 27t-77.5 -27t-48 -71t-22 -85.5t-6.5 -82.5q0 -42 6.5 -83.5t22 -85.5t48 -71t77.5 -27z" />
    <glyph glyph-name="ohungarumlaut" unicode="&#x151;" horiz-adv-x="544" 
d="M160 604l56 137h97l-79 -137h-74zM310 604l56 137h97l-79 -137h-74zM272 -11q-74 0 -128.5 40t-80 102t-25.5 136q0 116 61.5 197t172.5 81t172.5 -81t61.5 -197q0 -74 -25.5 -136t-80 -102t-128.5 -40zM272 92q27 0 46 17t28 46t12.5 56t3.5 56t-3.5 56t-12.5 55.5
t-28 45.5t-46 17t-46 -17t-27.5 -46t-12 -55.5t-3.5 -55.5t3.5 -56t12 -56t27.5 -46t46 -17z" />
    <glyph glyph-name="OE" unicode="&#x152;" horiz-adv-x="985" 
d="M946 126v-126h-474q-56 -15 -108 -15q-154 0 -242 102.5t-88 281.5q0 178 88 280.5t241 102.5q43 0 104 -11h461v-126h-312v-177h259v-126h-259v-186h330zM186 368q0 -118 46 -192t139 -74q49 0 96 15v502q-48 16 -99 16q-91 0 -136.5 -74.5t-45.5 -192.5z" />
    <glyph glyph-name="oe" unicode="&#x153;" horiz-adv-x="860" 
d="M272 -11q-74 0 -128.5 40t-80 102t-25.5 136q0 116 61.5 197t172.5 81q101 0 160 -72q62 72 167 72q225 0 225 -299v-13h-325q-4 -52 24.5 -95.5t80.5 -43.5q39 0 70.5 24.5t49.5 62.5l86 -73q-76 -119 -219 -119q-100 0 -159 70q-59 -70 -160 -70zM272 92q27 0 46 17
t28 46t12.5 56t3.5 56t-3.5 56t-12.5 55.5t-28 45.5t-46 17t-46 -17t-27.5 -46t-12 -55.5t-3.5 -55.5t3.5 -56t12 -56t27.5 -46t46 -17zM504 322h182q0 51 -22 85t-69 34q-44 0 -67 -35.5t-24 -83.5z" />
    <glyph glyph-name="Racute" unicode="&#x154;" horiz-adv-x="661" 
d="M484 941l-98 -137h-93l56 137h135zM642 0h-157l-133 302h-13h-100v-302h-149v741h293q61 0 108.5 -20.5t74.5 -53.5t40.5 -70t13.5 -74q0 -136 -125 -192zM239 428h107q121 0 121 91q0 46 -26 71t-74 25h-128v-187z" />
    <glyph glyph-name="racute" unicode="&#x155;" horiz-adv-x="422" 
d="M185 604l56 137h135l-98 -137h-93zM79 0v533h141v-93q35 52 72.5 78.5t90.5 26.5l26 -2v-139q-15 3 -35 3q-44 0 -78.5 -23.5t-75.5 -73.5v-310h-141z" />
    <glyph glyph-name="uni0156" unicode="&#x156;" horiz-adv-x="661" 
d="M495 331l147 -331h-157l-133 302h-13h-100v-302h-149v741h293q61 0 108.5 -20.5t74.5 -53.5t40.5 -70t13.5 -74q0 -136 -125 -192zM239 428h107q121 0 121 91q0 46 -26 71t-74 25h-128v-187zM238 -195l56 137h135l-98 -137h-93z" />
    <glyph glyph-name="uni0157" unicode="&#x157;" horiz-adv-x="422" 
d="M79 0v533h141v-93q35 52 72.5 78.5t90.5 26.5l26 -2v-139q-15 3 -35 3q-44 0 -78.5 -23.5t-75.5 -73.5v-310h-141zM33 -195l56 137h135l-98 -137h-93z" />
    <glyph glyph-name="Rcaron" unicode="&#x158;" horiz-adv-x="661" 
d="M408 804h-134l-94 137h104l57 -80l59 80h102zM642 0h-157l-133 302h-13h-100v-302h-149v741h293q61 0 108.5 -20.5t74.5 -53.5t40.5 -70t13.5 -74q0 -136 -125 -192zM239 428h107q121 0 121 91q0 46 -26 71t-74 25h-128v-187z" />
    <glyph glyph-name="rcaron" unicode="&#x159;" horiz-adv-x="422" 
d="M166 604l-94 137h104l57 -80l59 80h102l-94 -137h-134zM79 0v533h141v-93q35 52 72.5 78.5t90.5 26.5l26 -2v-139q-15 3 -35 3q-44 0 -78.5 -23.5t-75.5 -73.5v-310h-141z" />
    <glyph glyph-name="Sacute" unicode="&#x15a;" horiz-adv-x="583" 
d="M241 804l56 137h135l-98 -137h-93zM296 -11q-212 0 -260 178l142 72q3 -58 34.5 -93.5t82.5 -35.5q46 0 76.5 24t30.5 70q0 26 -15 46t-39.5 31.5t-56 23.5t-64 21.5t-64 26.5t-56 38t-39.5 56.5t-15 80.5q0 98 71 161t170 63q91 0 153 -47.5t77 -132.5l-132 -62
q-4 49 -32 84.5t-71 35.5q-37 0 -63.5 -24t-26.5 -61q0 -29 19 -49.5t50 -33t68 -23.5t74 -27.5t68 -39.5t50 -64.5t19 -97.5q0 -36 -14 -73t-42 -71t-79 -55.5t-116 -21.5z" />
    <glyph glyph-name="sacute" unicode="&#x15b;" horiz-adv-x="464" 
d="M190 604l56 137h135l-98 -137h-93zM235 -11q-130 0 -198 108l89 86q46 -85 116 -85q24 0 43.5 12t19.5 37q0 26 -26.5 40.5t-64.5 23.5t-76.5 22t-65 47t-26.5 88q0 83 56.5 130t137.5 47q104 0 172 -84l-70 -91q-58 65 -107 65q-29 0 -44 -15t-15 -36q0 -25 26.5 -40
t64.5 -24.5t76 -23t64.5 -47.5t26.5 -88q0 -84 -57.5 -128t-141.5 -44z" />
    <glyph glyph-name="Scircumflex" unicode="&#x15c;" horiz-adv-x="583" 
d="M128 804l94 137h134l94 -137h-102l-59 80l-57 -80h-104zM296 -11q-212 0 -260 178l142 72q3 -58 34.5 -93.5t82.5 -35.5q46 0 76.5 24t30.5 70q0 26 -15 46t-39.5 31.5t-56 23.5t-64 21.5t-64 26.5t-56 38t-39.5 56.5t-15 80.5q0 98 71 161t170 63q91 0 153 -47.5
t77 -132.5l-132 -62q-4 49 -32 84.5t-71 35.5q-37 0 -63.5 -24t-26.5 -61q0 -29 19 -49.5t50 -33t68 -23.5t74 -27.5t68 -39.5t50 -64.5t19 -97.5q0 -36 -14 -73t-42 -71t-79 -55.5t-116 -21.5z" />
    <glyph glyph-name="scircumflex" unicode="&#x15d;" horiz-adv-x="464" 
d="M77 604l94 137h134l94 -137h-102l-59 80l-57 -80h-104zM235 -11q-130 0 -198 108l89 86q46 -85 116 -85q24 0 43.5 12t19.5 37q0 26 -26.5 40.5t-64.5 23.5t-76.5 22t-65 47t-26.5 88q0 83 56.5 130t137.5 47q104 0 172 -84l-70 -91q-58 65 -107 65q-29 0 -44 -15
t-15 -36q0 -25 26.5 -40t64.5 -24.5t76 -23t64.5 -47.5t26.5 -88q0 -84 -57.5 -128t-141.5 -44z" />
    <glyph glyph-name="Scedilla" unicode="&#x15e;" horiz-adv-x="583" 
d="M547 210q0 -75 -55 -142t-162 -77l-20 -37q83 -21 83 -83q0 -46 -36 -74.5t-82 -28.5q-62 0 -90 19l15 68q45 -16 60 -16q43 0 43 31q0 42 -101 34l49 87q-173 19 -215 176l142 72q3 -58 34.5 -93.5t82.5 -35.5q46 0 76.5 24t30.5 70q0 26 -15 46t-39.5 31.5t-56 23.5
t-64 21.5t-64 26.5t-56 38t-39.5 56.5t-15 80.5q0 98 71 161t170 63q91 0 153 -47.5t77 -132.5l-132 -62q-4 49 -32 84.5t-71 35.5q-37 0 -63.5 -24t-26.5 -61q0 -29 19 -49.5t50 -33t68 -23.5t74 -27.5t68 -39.5t50 -64.5t19 -97.5z" />
    <glyph glyph-name="scedilla" unicode="&#x15f;" horiz-adv-x="464" 
d="M434 161q0 -71 -41.5 -113.5t-108.5 -54.5l-21 -39q83 -21 83 -83q0 -46 -36 -74.5t-82 -28.5q-62 0 -90 19l15 68q45 -16 60 -16q43 0 43 31q0 42 -101 34l48 87q-106 11 -166 106l89 86q46 -85 116 -85q24 0 43.5 12t19.5 37q0 26 -26.5 40.5t-64.5 23.5t-76.5 22
t-65 47t-26.5 88q0 83 56.5 130t137.5 47q104 0 172 -84l-70 -91q-58 65 -107 65q-29 0 -44 -15t-15 -36q0 -25 26.5 -40t64.5 -24.5t76 -23t64.5 -47.5t26.5 -88z" />
    <glyph glyph-name="Scaron" unicode="&#x160;" horiz-adv-x="583" 
d="M222 804l-94 137h104l57 -80l59 80h102l-94 -137h-134zM296 -11q-212 0 -260 178l142 72q3 -58 34.5 -93.5t82.5 -35.5q46 0 76.5 24t30.5 70q0 26 -15 46t-39.5 31.5t-56 23.5t-64 21.5t-64 26.5t-56 38t-39.5 56.5t-15 80.5q0 98 71 161t170 63q91 0 153 -47.5
t77 -132.5l-132 -62q-4 49 -32 84.5t-71 35.5q-37 0 -63.5 -24t-26.5 -61q0 -29 19 -49.5t50 -33t68 -23.5t74 -27.5t68 -39.5t50 -64.5t19 -97.5q0 -36 -14 -73t-42 -71t-79 -55.5t-116 -21.5z" />
    <glyph glyph-name="scaron" unicode="&#x161;" horiz-adv-x="464" 
d="M171 604l-94 137h104l57 -80l59 80h102l-94 -137h-134zM235 -11q-130 0 -198 108l89 86q46 -85 116 -85q24 0 43.5 12t19.5 37q0 26 -26.5 40.5t-64.5 23.5t-76.5 22t-65 47t-26.5 88q0 83 56.5 130t137.5 47q104 0 172 -84l-70 -91q-58 65 -107 65q-29 0 -44 -15
t-15 -36q0 -25 26.5 -40t64.5 -24.5t76 -23t64.5 -47.5t26.5 -88q0 -84 -57.5 -128t-141.5 -44z" />
    <glyph glyph-name="uni0162" unicode="&#x162;" horiz-adv-x="549" 
d="M200 0v615h-192v126h533v-126h-192v-615h-149zM152 -195l56 137h135l-98 -137h-93z" />
    <glyph glyph-name="uni0163" unicode="&#x163;" horiz-adv-x="368" 
d="M253 -11q-81 0 -120.5 39.5t-39.5 125.5v262h-66v117h66v124l141 67v-191h110v-117h-110v-267q0 -53 51 -53q29 0 59 16v-110q-39 -13 -91 -13zM81 -195l56 137h135l-98 -137h-93z" />
    <glyph glyph-name="Tcaron" unicode="&#x164;" horiz-adv-x="549" 
d="M207 804l-94 137h104l57 -80l59 80h102l-94 -137h-134zM200 0v615h-192v126h533v-126h-192v-615h-149z" />
    <glyph glyph-name="tcaron" unicode="&#x165;" horiz-adv-x="368" 
d="M277 584l9 194h126l-34 -194h-101zM253 -11q-81 0 -120.5 39.5t-39.5 125.5v262h-66v117h66v124l141 67v-191h110v-117h-110v-267q0 -53 51 -53q29 0 59 16v-110q-39 -13 -91 -13z" />
    <glyph glyph-name="Tbar" unicode="&#x166;" horiz-adv-x="549" 
d="M541 615h-192v-185h92v-100h-92v-330h-149v330h-92v100h92v185h-192v126h533v-126z" />
    <glyph glyph-name="tbar" unicode="&#x167;" horiz-adv-x="368" 
d="M344 416h-110v-109h100v-90h-100v-68q0 -53 51 -53q29 0 59 16v-110q-39 -13 -91 -13q-81 0 -120.5 39.5t-39.5 125.5v63h-56v90h56v109h-66v117h66v124l141 67v-191h110v-117z" />
    <glyph glyph-name="Utilde" unicode="&#x168;" horiz-adv-x="692" 
d="M228 831l-42 54q47 74 102 74q21 0 60.5 -17.5t55.5 -17.5q14 0 25 6.5t16.5 13t14.5 20.5l46 -51q-44 -76 -96 -76q-22 0 -65.5 18.5t-59.5 18.5q-14 0 -25.5 -7t-17 -14t-14.5 -22zM346 -11q-119 0 -190 63.5t-71 176.5v512h149v-465q0 -90 27 -126t85 -36q59 0 86 36
t27 126v465h148v-512q0 -113 -71 -176.5t-190 -63.5z" />
    <glyph glyph-name="utilde" unicode="&#x169;" horiz-adv-x="596" 
d="M180 631l-42 54q47 74 102 74q21 0 60.5 -17.5t55.5 -17.5q14 0 25 6.5t16.5 13t14.5 20.5l46 -51q-44 -76 -96 -76q-22 0 -65.5 18.5t-59.5 18.5q-14 0 -25.5 -7t-17 -14t-14.5 -22zM217 -11q-54 0 -97 39t-43 127v378h141v-328q0 -22 1 -35.5t6 -31.5t18 -27t33 -9
q46 0 100 58v373h141v-533h-141v55q-80 -66 -159 -66z" />
    <glyph glyph-name="Umacron" unicode="&#x16a;" horiz-adv-x="692" 
d="M180 851v90h333v-90h-333zM346 -11q-119 0 -190 63.5t-71 176.5v512h149v-465q0 -90 27 -126t85 -36q59 0 86 36t27 126v465h148v-512q0 -113 -71 -176.5t-190 -63.5z" />
    <glyph glyph-name="umacron" unicode="&#x16b;" horiz-adv-x="596" 
d="M132 651v90h333v-90h-333zM217 -11q-54 0 -97 39t-43 127v378h141v-328q0 -22 1 -35.5t6 -31.5t18 -27t33 -9q46 0 100 58v373h141v-533h-141v55q-80 -66 -159 -66z" />
    <glyph glyph-name="Ubreve" unicode="&#x16c;" horiz-adv-x="692" 
d="M346 796q-70 0 -116 37.5t-50 107.5h88q4 -29 26.5 -44.5t51.5 -15.5q30 0 52.5 15.5t25.5 44.5h89q-5 -71 -50.5 -108t-116.5 -37zM346 -11q-119 0 -190 63.5t-71 176.5v512h149v-465q0 -90 27 -126t85 -36q59 0 86 36t27 126v465h148v-512q0 -113 -71 -176.5
t-190 -63.5z" />
    <glyph glyph-name="ubreve" unicode="&#x16d;" horiz-adv-x="596" 
d="M298 596q-70 0 -116 37.5t-50 107.5h88q4 -29 26.5 -44.5t51.5 -15.5q30 0 52.5 15.5t25.5 44.5h89q-5 -71 -50.5 -108t-116.5 -37zM217 -11q-54 0 -97 39t-43 127v378h141v-328q0 -22 1 -35.5t6 -31.5t18 -27t33 -9q46 0 100 58v373h141v-533h-141v55q-80 -66 -159 -66z
" />
    <glyph glyph-name="Uring" unicode="&#x16e;" horiz-adv-x="692" 
d="M346 786q-36 0 -62 26t-26 62q0 37 26 63t62 26q37 0 63 -26t26 -63q0 -36 -26 -62t-63 -26zM346 838q15 0 25.5 10.5t10.5 25.5q0 14 -10.5 25t-25.5 11t-25.5 -11t-10.5 -25q0 -15 10.5 -25.5t25.5 -10.5zM346 -11q-119 0 -190 63.5t-71 176.5v512h149v-465
q0 -90 27 -126t85 -36q59 0 86 36t27 126v465h148v-512q0 -113 -71 -176.5t-190 -63.5z" />
    <glyph glyph-name="uring" unicode="&#x16f;" horiz-adv-x="596" 
d="M298 586q-36 0 -62 26t-26 62q0 37 26 63t62 26q37 0 63 -26t26 -63q0 -36 -26 -62t-63 -26zM298 638q15 0 25.5 10.5t10.5 25.5q0 14 -10.5 25t-25.5 11t-25.5 -11t-10.5 -25q0 -15 10.5 -25.5t25.5 -10.5zM217 -11q-54 0 -97 39t-43 127v378h141v-328q0 -22 1 -35.5
t6 -31.5t18 -27t33 -9q46 0 100 58v373h141v-533h-141v55q-80 -66 -159 -66z" />
    <glyph glyph-name="Uhungarumlaut" unicode="&#x170;" horiz-adv-x="692" 
d="M234 804l56 137h97l-79 -137h-74zM384 804l56 137h97l-79 -137h-74zM346 -11q-119 0 -190 63.5t-71 176.5v512h149v-465q0 -90 27 -126t85 -36q59 0 86 36t27 126v465h148v-512q0 -113 -71 -176.5t-190 -63.5z" />
    <glyph glyph-name="uhungarumlaut" unicode="&#x171;" horiz-adv-x="596" 
d="M186 604l56 137h97l-79 -137h-74zM336 604l56 137h97l-79 -137h-74zM217 -11q-54 0 -97 39t-43 127v378h141v-328q0 -22 1 -35.5t6 -31.5t18 -27t33 -9q46 0 100 58v373h141v-533h-141v55q-80 -66 -159 -66z" />
    <glyph glyph-name="Uogonek" unicode="&#x172;" horiz-adv-x="692" 
d="M425 -192q-46 0 -75.5 23t-29.5 64q0 53 70 96q-28 -2 -44 -2q-119 0 -190 63.5t-71 176.5v512h149v-465q0 -90 27 -126t85 -36q59 0 86 36t27 126v465h148v-512q0 -107 -65 -172q-20 -20 -58.5 -51.5t-59 -53.5t-20.5 -42q0 -14 11.5 -22.5t26.5 -8.5q29 0 59 20v-69
q-32 -22 -76 -22z" />
    <glyph glyph-name="uogonek" unicode="&#x173;" horiz-adv-x="596" 
d="M376 533h141v-533h-28q-42 -13 -70 -38t-28 -52q0 -14 11.5 -22.5t26.5 -8.5q29 0 59 20v-69q-32 -22 -76 -22q-46 0 -75.5 23t-29.5 64q0 65 69 105v55q-80 -66 -159 -66q-54 0 -97 39t-43 127v378h141v-328q0 -22 1 -35.5t6 -31.5t18 -27t33 -9q46 0 100 58v373z" />
    <glyph glyph-name="Wcircumflex" unicode="&#x174;" horiz-adv-x="815" 
d="M247 804l94 137h134l94 -137h-102l-59 80l-57 -80h-104zM149 0l-157 741h147l89 -522h2l92 522h164l92 -522h2l96 522h147l-169 -741h-152l-99 512h-2l-100 -512h-152z" />
    <glyph glyph-name="wcircumflex" unicode="&#x175;" horiz-adv-x="659" 
d="M169 604l94 137h134l94 -137h-102l-59 80l-57 -80h-104zM129 0l-129 533h129l64 -353h2l68 353h142l59 -353h2l72 353h121l-136 -533h-133l-62 357h-2l-65 -357h-132z" />
    <glyph glyph-name="Ycircumflex" unicode="&#x176;" horiz-adv-x="617" 
d="M148 804l94 137h134l94 -137h-102l-59 80l-57 -80h-104zM233 0v299l-243 442h158l159 -324h2l165 324h153l-246 -442v-299h-148z" />
    <glyph glyph-name="ycircumflex" unicode="&#x177;" horiz-adv-x="497" 
d="M98 604l94 137h134l94 -137h-102l-59 80l-57 -80h-104zM113 -196q-42 0 -90 10v121q39 -13 61 -13q44 0 66.5 22.5t36.5 68.5l-190 520h152l107 -349h2l97 349h145l-206 -576q-14 -40 -27 -65.5t-33.5 -47t-50 -31t-70.5 -9.5z" />
    <glyph glyph-name="Ydieresis" unicode="&#x178;" horiz-adv-x="617" 
d="M218 800q-30 0 -51 21t-21 51t21 51.5t51 21.5t51.5 -21.5t21.5 -51.5t-21.5 -51t-51.5 -21zM401 800q-30 0 -51.5 21t-21.5 51t21.5 51.5t51.5 21.5t51 -21.5t21 -51.5t-21 -51t-51 -21zM233 0v299l-243 442h158l159 -324h2l165 324h153l-246 -442v-299h-148z" />
    <glyph glyph-name="Zacute" unicode="&#x179;" horiz-adv-x="559" 
d="M423 941l-98 -137h-93l56 137h135zM521 741v-120l-313 -495h313v-126h-483v116l312 499h-302v126h473z" />
    <glyph glyph-name="zacute" unicode="&#x17a;" horiz-adv-x="489" 
d="M389 741l-98 -137h-93l56 137h135zM457 533v-100l-249 -322h249v-111h-425v95l245 327h-229v111h409z" />
    <glyph glyph-name="Zdotaccent" unicode="&#x17b;" horiz-adv-x="559" 
d="M280 794q-32 0 -55 23t-23 55t23 55t55 23t55 -23t23 -55t-23 -55t-55 -23zM521 741v-120l-313 -495h313v-126h-483v116l312 499h-302v126h473z" />
    <glyph glyph-name="zdotaccent" unicode="&#x17c;" horiz-adv-x="489" 
d="M246 594q-32 0 -55 23t-23 55t23 55t55 23t55 -23t23 -55t-23 -55t-55 -23zM457 533v-100l-249 -322h249v-111h-425v95l245 327h-229v111h409z" />
    <glyph glyph-name="Zcaron" unicode="&#x17d;" horiz-adv-x="559" 
d="M347 804h-134l-94 137h104l57 -80l59 80h102zM521 741v-120l-313 -495h313v-126h-483v116l312 499h-302v126h473z" />
    <glyph glyph-name="zcaron" unicode="&#x17e;" horiz-adv-x="489" 
d="M313 604h-134l-94 137h104l57 -80l59 80h102zM457 533v-100l-249 -322h249v-111h-425v95l245 327h-229v111h409z" />
    <glyph glyph-name="longs" unicode="&#x17f;" horiz-adv-x="311" 
d="M94 0v416h-70v117h70v57q0 70 43 118t127 48q60 0 116 -25l-38 -107q-33 12 -54 12q-53 0 -53 -63v-573h-141z" />
    <glyph glyph-name="florin" unicode="&#x192;" 
d="M458 624q-28 0 -43 -17.5t-20 -64.5l-11 -105h102v-106h-114l-35 -329q-10 -101 -58 -142.5t-147 -41.5l-54 4v122q27 -9 57 -9q28 0 43 17.5t20 64.5l34 314h-92v106h103l13 120q10 101 58 142.5t147 41.5l54 -4v-122q-27 9 -57 9z" />
    <glyph glyph-name="Ohorn" unicode="&#x1a0;" horiz-adv-x="679" 
d="M650 781q0 -44 -22.5 -80.5t-72.5 -48.5q90 -111 90 -283q0 -72 -18.5 -139t-54.5 -122.5t-96 -89t-136 -33.5t-136.5 33.5t-96.5 89t-54.5 122.5t-18.5 139t18.5 138.5t54.5 122t96.5 89t136.5 33.5q28 0 73.5 -5.5t66.5 -5.5q52 0 52 52q0 31 -12 70h119q11 -44 11 -82
zM340 102q45 0 77 27t47.5 71t22 85.5t6.5 83.5q0 41 -6.5 82.5t-22 85.5t-47.5 71t-77 27t-77.5 -27t-48 -71t-22 -85.5t-6.5 -82.5q0 -42 6.5 -83.5t22 -85.5t48 -71t77.5 -27z" />
    <glyph glyph-name="ohorn" unicode="&#x1a1;" horiz-adv-x="544" 
d="M521 573q0 -84 -71 -117q56 -77 56 -189q0 -74 -25.5 -136t-80 -102t-128.5 -40t-128.5 40t-80 102t-25.5 136q0 116 61.5 197t172.5 81h1h1h1q23 0 52.5 -5t36.5 -5q22 0 32.5 11.5t10.5 39.5q0 30 -11 69h113q12 -41 12 -82zM272 92q27 0 46 17t28 46t12.5 56t3.5 56
t-3.5 56t-12.5 55.5t-28 45.5t-46 17t-46 -17t-27.5 -46t-12 -55.5t-3.5 -55.5t3.5 -56t12 -56t27.5 -46t46 -17z" />
    <glyph glyph-name="Uhorn" unicode="&#x1af;" horiz-adv-x="692" 
d="M682 863q11 -44 11 -82q0 -96 -86 -128v-424q0 -113 -71 -176.5t-190 -63.5t-190 63.5t-71 176.5v512h149v-465q0 -90 27 -126t85 -36q59 0 86 36t27 126v465h63q53 0 53 52q0 31 -12 70h119z" />
    <glyph glyph-name="uhorn" unicode="&#x1b0;" horiz-adv-x="596" 
d="M603 573q0 -91 -86 -124v-449h-141v55q-80 -66 -159 -66q-54 0 -97 39t-43 127v378h141v-328q0 -22 1 -35.5t6 -31.5t18 -27t33 -9q46 0 100 58v373h57q31 0 43.5 11.5t12.5 41.5t-11 69h113q12 -41 12 -82z" />
    <glyph glyph-name="uni0218" unicode="&#x218;" horiz-adv-x="583" 
d="M296 -11q-212 0 -260 178l142 72q3 -58 34.5 -93.5t82.5 -35.5q46 0 76.5 24t30.5 70q0 26 -15 46t-39.5 31.5t-56 23.5t-64 21.5t-64 26.5t-56 38t-39.5 56.5t-15 80.5q0 98 71 161t170 63q91 0 153 -47.5t77 -132.5l-132 -62q-4 49 -32 84.5t-71 35.5q-37 0 -63.5 -24
t-26.5 -61q0 -29 19 -49.5t50 -33t68 -23.5t74 -27.5t68 -39.5t50 -64.5t19 -97.5q0 -36 -14 -73t-42 -71t-79 -55.5t-116 -21.5zM167 -195l56 137h135l-98 -137h-93z" />
    <glyph glyph-name="uni0219" unicode="&#x219;" horiz-adv-x="464" 
d="M235 -11q-130 0 -198 108l89 86q46 -85 116 -85q24 0 43.5 12t19.5 37q0 26 -26.5 40.5t-64.5 23.5t-76.5 22t-65 47t-26.5 88q0 83 56.5 130t137.5 47q104 0 172 -84l-70 -91q-58 65 -107 65q-29 0 -44 -15t-15 -36q0 -25 26.5 -40t64.5 -24.5t76 -23t64.5 -47.5
t26.5 -88q0 -84 -57.5 -128t-141.5 -44zM120 -195l56 137h135l-98 -137h-93z" />
    <glyph glyph-name="uni021A" unicode="&#x21a;" horiz-adv-x="549" 
d="M200 0v615h-192v126h533v-126h-192v-615h-149zM152 -195l56 137h135l-98 -137h-93z" />
    <glyph glyph-name="uni021B" unicode="&#x21b;" horiz-adv-x="368" 
d="M253 -11q-81 0 -120.5 39.5t-39.5 125.5v262h-66v117h66v124l141 67v-191h110v-117h-110v-267q0 -53 51 -53q29 0 59 16v-110q-39 -13 -91 -13zM81 -195l56 137h135l-98 -137h-93z" />
    <glyph glyph-name="uni0237" unicode="&#x237;" horiz-adv-x="299" 
d="M42 -186q-32 0 -61 4v113q32 -4 42 -4q30 0 43 18t13 63v525h141v-529q0 -96 -41.5 -143t-136.5 -47z" />
    <glyph glyph-name="circumflex" unicode="&#x2c6;" horiz-adv-x="418" 
d="M48 604l94 137h134l94 -137h-102l-59 80l-57 -80h-104z" />
    <glyph glyph-name="caron" unicode="&#x2c7;" horiz-adv-x="418" 
d="M142 604l-94 137h104l57 -80l59 80h102l-94 -137h-134z" />
    <glyph glyph-name="uni02C9" unicode="&#x2c9;" horiz-adv-x="429" 
d="M48 651v90h333v-90h-333z" />
    <glyph glyph-name="breve" unicode="&#x2d8;" horiz-adv-x="429" 
d="M214 596q-70 0 -116 37.5t-50 107.5h88q4 -29 26.5 -44.5t51.5 -15.5q30 0 52.5 15.5t25.5 44.5h89q-5 -71 -50.5 -108t-116.5 -37z" />
    <glyph glyph-name="dotaccent" unicode="&#x2d9;" horiz-adv-x="252" 
d="M126 594q-32 0 -55 23t-23 55t23 55t55 23t55 -23t23 -55t-23 -55t-55 -23z" />
    <glyph glyph-name="ring" unicode="&#x2da;" horiz-adv-x="273" 
d="M136 586q-36 0 -62 26t-26 62q0 37 26 63t62 26q37 0 63 -26t26 -63q0 -36 -26 -62t-63 -26zM136 638q15 0 25.5 10.5t10.5 25.5q0 14 -10.5 25t-25.5 11t-25.5 -11t-10.5 -25q0 -15 10.5 -25.5t25.5 -10.5z" />
    <glyph glyph-name="ogonek" unicode="&#x2db;" horiz-adv-x="278" 
d="M153 -192q-46 0 -75.5 23t-29.5 64q0 82 108 124l74 -19q-42 -13 -70 -38t-28 -52q0 -14 11.5 -22.5t26.5 -8.5q29 0 59 20v-69q-32 -22 -76 -22z" />
    <glyph glyph-name="tilde" unicode="&#x2dc;" horiz-adv-x="416" 
d="M90 631l-42 54q47 74 102 74q21 0 60.5 -17.5t55.5 -17.5q14 0 25 6.5t16.5 13t14.5 20.5l46 -51q-44 -76 -96 -76q-22 0 -65.5 18.5t-59.5 18.5q-14 0 -25.5 -7t-17 -14t-14.5 -22z" />
    <glyph glyph-name="hungarumlaut" unicode="&#x2dd;" horiz-adv-x="399" 
d="M48 604l56 137h97l-79 -137h-74zM198 604l56 137h97l-79 -137h-74z" />
    <glyph glyph-name="gravecomb" unicode="&#x300;" horiz-adv-x="0" 
d="M-141 604l-98 137h135l56 -137h-93z" />
    <glyph glyph-name="acutecomb" unicode="&#x301;" horiz-adv-x="0" 
d="M-239 604l56 137h135l-98 -137h-93z" />
    <glyph glyph-name="uni0302" unicode="&#x302;" horiz-adv-x="0" 
d="M-370 604l94 137h134l94 -137h-102l-59 80l-57 -80h-104z" />
    <glyph glyph-name="tildecomb" unicode="&#x303;" horiz-adv-x="0" 
d="M-326 631l-42 54q47 74 102 74q21 0 60.5 -17.5t55.5 -17.5q14 0 25 6.5t16.5 13t14.5 20.5l46 -51q-44 -76 -96 -76q-22 0 -65.5 18.5t-59.5 18.5q-14 0 -25.5 -7t-17 -14t-14.5 -22z" />
    <glyph glyph-name="uni0304" unicode="&#x304;" horiz-adv-x="0" 
d="M-381 651v90h333v-90h-333z" />
    <glyph glyph-name="uni0306" unicode="&#x306;" horiz-adv-x="0" 
d="M-215 596q-70 0 -116 37.5t-50 107.5h88q4 -29 26.5 -44.5t51.5 -15.5q30 0 52.5 15.5t25.5 44.5h89q-5 -71 -50.5 -108t-116.5 -37z" />
    <glyph glyph-name="uni0307" unicode="&#x307;" horiz-adv-x="0" 
d="M-126 594q-32 0 -55 23t-23 55t23 55t55 23t55 -23t23 -55t-23 -55t-55 -23z" />
    <glyph glyph-name="uni0308" unicode="&#x308;" horiz-adv-x="0" 
d="M-303 600q-30 0 -51 21t-21 51t21 51.5t51 21.5t51.5 -21.5t21.5 -51.5t-21.5 -51t-51.5 -21zM-120 600q-30 0 -51.5 21t-21.5 51t21.5 51.5t51.5 21.5t51 -21.5t21 -51.5t-21 -51t-51 -21z" />
    <glyph glyph-name="hookabovecomb" unicode="&#x309;" horiz-adv-x="0" 
d="M-183 604q39 30 39 51q0 26 -35 26q-30 0 -62 -16l-15 68q36 19 95 19q55 0 84 -20t29 -56q0 -38 -50 -72h-85z" />
    <glyph glyph-name="uni030A" unicode="&#x30a;" horiz-adv-x="0" 
d="M-137 586q-36 0 -62 26t-26 62q0 37 26 63t62 26q37 0 63 -26t26 -63q0 -36 -26 -62t-63 -26zM-137 638q15 0 25.5 10.5t10.5 25.5q0 14 -10.5 25t-25.5 11t-25.5 -11t-10.5 -25q0 -15 10.5 -25.5t25.5 -10.5z" />
    <glyph glyph-name="uni030B" unicode="&#x30b;" horiz-adv-x="0" 
d="M-351 604l56 137h97l-79 -137h-74zM-201 604l56 137h97l-79 -137h-74z" />
    <glyph glyph-name="uni030C" unicode="&#x30c;" horiz-adv-x="0" 
d="M-276 604l-94 137h104l57 -80l59 80h102l-94 -137h-134z" />
    <glyph glyph-name="uni0312" unicode="&#x312;" horiz-adv-x="0" 
d="M-239 604l98 137h93l-56 -137h-135z" />
    <glyph glyph-name="uni0315" unicode="&#x315;" horiz-adv-x="0" 
d="M-183 547l9 194h126l-34 -194h-101z" />
    <glyph glyph-name="dotbelowcomb" unicode="&#x323;" horiz-adv-x="0" 
d="M-126 -205q-32 0 -55 23t-23 55t23 55t55 23t55 -23t23 -55t-23 -55t-55 -23z" />
    <glyph glyph-name="uni0326" unicode="&#x326;" horiz-adv-x="0" 
d="M-239 -195l56 137h135l-98 -137h-93z" />
    <glyph glyph-name="uni0327" unicode="&#x327;" horiz-adv-x="0" 
d="M-131 -46q83 -21 83 -83q0 -46 -36 -74.5t-82 -28.5q-62 0 -90 19l15 68q45 -16 60 -16q43 0 43 31q0 42 -101 34l57 102h79z" />
    <glyph glyph-name="uni0328" unicode="&#x328;" horiz-adv-x="0" 
d="M-125 -192q-46 0 -75.5 23t-29.5 64q0 82 108 124l74 -19q-42 -13 -70 -38t-28 -52q0 -14 11.5 -22.5t26.5 -8.5q29 0 59 20v-69q-32 -22 -76 -22z" />
    <glyph glyph-name="pi" unicode="&#x3c0;" horiz-adv-x="654" 
d="M554 -11q-70 0 -115 41.5t-45 123.5v262h-164v-416h-140v416h-66v117h621v-117h-110v-267q0 -22 12.5 -37.5t39.5 -15.5t58 21v-111q-57 -17 -91 -17z" />
    <glyph glyph-name="Wgrave" unicode="&#x1e80;" horiz-adv-x="815" 
d="M364 804l-98 137h135l56 -137h-93zM149 0l-157 741h147l89 -522h2l92 522h164l92 -522h2l96 522h147l-169 -741h-152l-99 512h-2l-100 -512h-152z" />
    <glyph glyph-name="wgrave" unicode="&#x1e81;" horiz-adv-x="659" 
d="M286 604l-98 137h135l56 -137h-93zM129 0l-129 533h129l64 -353h2l68 353h142l59 -353h2l72 353h121l-136 -533h-133l-62 357h-2l-65 -357h-132z" />
    <glyph glyph-name="Wacute" unicode="&#x1e82;" horiz-adv-x="815" 
d="M360 804l56 137h135l-98 -137h-93zM149 0l-157 741h147l89 -522h2l92 522h164l92 -522h2l96 522h147l-169 -741h-152l-99 512h-2l-100 -512h-152z" />
    <glyph glyph-name="wacute" unicode="&#x1e83;" horiz-adv-x="659" 
d="M282 604l56 137h135l-98 -137h-93zM129 0l-129 533h129l64 -353h2l68 353h142l59 -353h2l72 353h121l-136 -533h-133l-62 357h-2l-65 -357h-132z" />
    <glyph glyph-name="Wdieresis" unicode="&#x1e84;" horiz-adv-x="815" 
d="M317 800q-30 0 -51 21t-21 51t21 51.5t51 21.5t51.5 -21.5t21.5 -51.5t-21.5 -51t-51.5 -21zM500 800q-30 0 -51.5 21t-21.5 51t21.5 51.5t51.5 21.5t51 -21.5t21 -51.5t-21 -51t-51 -21zM149 0l-157 741h147l89 -522h2l92 522h164l92 -522h2l96 522h147l-169 -741h-152
l-99 512h-2l-100 -512h-152z" />
    <glyph glyph-name="wdieresis" unicode="&#x1e85;" horiz-adv-x="659" 
d="M239 600q-30 0 -51 21t-21 51t21 51.5t51 21.5t51.5 -21.5t21.5 -51.5t-21.5 -51t-51.5 -21zM422 600q-30 0 -51.5 21t-21.5 51t21.5 51.5t51.5 21.5t51 -21.5t21 -51.5t-21 -51t-51 -21zM129 0l-129 533h129l64 -353h2l68 353h142l59 -353h2l72 353h121l-136 -533h-133
l-62 357h-2l-65 -357h-132z" />
    <glyph glyph-name="uni1EA0" unicode="&#x1ea0;" horiz-adv-x="618" 
d="M628 0h-151l-53 186h-230l-53 -186h-151l236 741h162zM227 303h164l-80 282h-4zM309 -49q32 0 55 -23t23 -55t-23 -55t-55 -23t-55 23t-23 55t23 55t55 23z" />
    <glyph glyph-name="uni1EA1" unicode="&#x1ea1;" horiz-adv-x="570" 
d="M212 -11q-75 0 -123.5 44t-48.5 117q0 82 55.5 123t177.5 57q52 8 67.5 17t15.5 36q0 25 -17 40t-47 15q-79 0 -129 -74l-75 87q71 94 208 94q100 0 148.5 -45t48.5 -124v-376h-134v58q-36 -37 -68.5 -53t-78.5 -16zM240 92q60 0 112 70v82h-2l-74 -11q-98 -13 -98 -81
q0 -26 15.5 -43t46.5 -17zM277 -205q-32 0 -55 23t-23 55t23 55t55 23t55 -23t23 -55t-23 -55t-55 -23z" />
    <glyph glyph-name="uni1EA2" unicode="&#x1ea2;" horiz-adv-x="618" 
d="M265 881q-30 0 -62 -16l-15 68q36 19 95 19q55 0 84 -20t29 -56q0 -38 -50 -72h-85q39 30 39 51q0 26 -35 26zM477 0l-53 186h-230l-53 -186h-151l236 741h162l240 -741h-151zM227 303h164l-80 282h-4z" />
    <glyph glyph-name="uni1EA3" unicode="&#x1ea3;" horiz-adv-x="570" 
d="M244 604q39 30 39 51q0 26 -35 26q-30 0 -62 -16l-15 68q36 19 95 19q55 0 84 -20t29 -56q0 -38 -50 -72h-85zM212 -11q-75 0 -123.5 44t-48.5 117q0 82 55.5 123t177.5 57q52 8 67.5 17t15.5 36q0 25 -17 40t-47 15q-79 0 -129 -74l-75 87q71 94 208 94q100 0 148.5 -45
t48.5 -124v-376h-134v58q-36 -37 -68.5 -53t-78.5 -16zM240 92q60 0 112 70v82h-2l-74 -11q-98 -13 -98 -81q0 -26 15.5 -43t46.5 -17z" />
    <glyph glyph-name="uni1EA4" unicode="&#x1ea4;" horiz-adv-x="618" 
d="M465 1040l-108 -105h-93l66 105h135zM309 855l-57 -51h-104l94 99h134l94 -99h-102zM477 0l-53 186h-230l-53 -186h-151l236 741h162l240 -741h-151zM227 303h164l-80 282h-4z" />
    <glyph glyph-name="uni1EA5" unicode="&#x1ea5;" horiz-adv-x="570" 
d="M247 735l66 105h135l-108 -105h-93zM131 604l94 99h134l94 -99h-102l-59 51l-57 -51h-104zM212 -11q-75 0 -123.5 44t-48.5 117q0 82 55.5 123t177.5 57q52 8 67.5 17t15.5 36q0 25 -17 40t-47 15q-79 0 -129 -74l-75 87q71 94 208 94q100 0 148.5 -45t48.5 -124v-376
h-134v58q-36 -37 -68.5 -53t-78.5 -16zM240 92q60 0 112 70v82h-2l-74 -11q-98 -13 -98 -81q0 -26 15.5 -43t46.5 -17z" />
    <glyph glyph-name="uni1EA6" unicode="&#x1ea6;" horiz-adv-x="618" 
d="M353 935h-93l-108 105h136zM309 855l-57 -51h-104l94 99h134l94 -99h-102zM477 0l-53 186h-230l-53 -186h-151l236 741h162l240 -741h-151zM227 303h164l-80 282h-4z" />
    <glyph glyph-name="uni1EA7" unicode="&#x1ea7;" horiz-adv-x="570" 
d="M243 735l-108 105h136l65 -105h-93zM131 604l94 99h134l94 -99h-102l-59 51l-57 -51h-104zM212 -11q-75 0 -123.5 44t-48.5 117q0 82 55.5 123t177.5 57q52 8 67.5 17t15.5 36q0 25 -17 40t-47 15q-79 0 -129 -74l-75 87q71 94 208 94q100 0 148.5 -45t48.5 -124v-376
h-134v58q-36 -37 -68.5 -53t-78.5 -16zM240 92q60 0 112 70v82h-2l-74 -11q-98 -13 -98 -81q0 -26 15.5 -43t46.5 -17z" />
    <glyph glyph-name="uni1EA8" unicode="&#x1ea8;" horiz-adv-x="618" 
d="M403 985q-30 0 -62 -16l-15 68q38 19 95 19q55 0 84 -20t29 -56q0 -14 -11 -32.5t-29 -31.5h-84q28 22 28 43q0 26 -35 26zM309 855l-57 -51h-104l94 99h134l94 -99h-102zM477 0l-53 186h-230l-53 -186h-151l236 741h162l240 -741h-151zM227 303h164l-80 282h-4z" />
    <glyph glyph-name="uni1EA9" unicode="&#x1ea9;" horiz-adv-x="570" 
d="M393 716q28 22 28 43q0 26 -35 26q-30 0 -62 -16l-15 68q38 19 95 19q55 0 84 -20t29 -56q0 -14 -11 -32.5t-29 -31.5h-84zM131 604l94 99h134l94 -99h-102l-59 51l-57 -51h-104zM212 -11q-75 0 -123.5 44t-48.5 117q0 82 55.5 123t177.5 57q52 8 67.5 17t15.5 36
q0 25 -17 40t-47 15q-79 0 -129 -74l-75 87q71 94 208 94q100 0 148.5 -45t48.5 -124v-376h-134v58q-36 -37 -68.5 -53t-78.5 -16zM240 92q60 0 112 70v82h-2l-74 -11q-98 -13 -98 -81q0 -26 15.5 -43t46.5 -17z" />
    <glyph glyph-name="uni1EAA" unicode="&#x1eaa;" horiz-adv-x="618" 
d="M246 970q-25 0 -55 -39l-42 49q40 63 99 63q22 0 65.5 -18t57.5 -18q28 0 55 38l43 -49q-42 -63 -99 -63q-23 0 -66.5 18.5t-57.5 18.5zM309 855l-57 -51h-104l94 99h134l94 -99h-102zM477 0l-53 186h-230l-53 -186h-151l236 741h162l240 -741h-151zM227 303h164l-80 282
h-4z" />
    <glyph glyph-name="uni1EAB" unicode="&#x1eab;" horiz-adv-x="570" 
d="M174 731l-42 49q40 63 99 63q22 0 65.5 -18t57.5 -18q28 0 55 38l43 -49q-42 -63 -99 -63q-23 0 -66.5 18.5t-57.5 18.5q-25 0 -55 -39zM131 604l94 99h134l94 -99h-102l-59 51l-57 -51h-104zM212 -11q-75 0 -123.5 44t-48.5 117q0 82 55.5 123t177.5 57q52 8 67.5 17
t15.5 36q0 25 -17 40t-47 15q-79 0 -129 -74l-75 87q71 94 208 94q100 0 148.5 -45t48.5 -124v-376h-134v58q-36 -37 -68.5 -53t-78.5 -16zM240 92q60 0 112 70v82h-2l-74 -11q-98 -13 -98 -81q0 -26 15.5 -43t46.5 -17z" />
    <glyph glyph-name="uni1EAC" unicode="&#x1eac;" horiz-adv-x="618" 
d="M309 884l-57 -80h-104l94 137h134l94 -137h-102zM628 0h-151l-53 186h-230l-53 -186h-151l236 741h162zM227 303h164l-80 282h-4zM309 -49q32 0 55 -23t23 -55t-23 -55t-55 -23t-55 23t-23 55t23 55t55 23z" />
    <glyph glyph-name="uni1EAD" unicode="&#x1ead;" horiz-adv-x="570" 
d="M131 604l94 137h134l94 -137h-102l-59 80l-57 -80h-104zM212 -11q-75 0 -123.5 44t-48.5 117q0 82 55.5 123t177.5 57q52 8 67.5 17t15.5 36q0 25 -17 40t-47 15q-79 0 -129 -74l-75 87q71 94 208 94q100 0 148.5 -45t48.5 -124v-376h-134v58q-36 -37 -68.5 -53
t-78.5 -16zM240 92q60 0 112 70v82h-2l-74 -11q-98 -13 -98 -81q0 -26 15.5 -43t46.5 -17zM277 -205q-32 0 -55 23t-23 55t23 55t55 23t55 -23t23 -55t-23 -55t-55 -23z" />
    <glyph glyph-name="uni1EAE" unicode="&#x1eae;" horiz-adv-x="618" 
d="M462 1040l-108 -105h-93l65 105h136zM309 796q-75 0 -118 29.5t-48 82.5h88q7 -33 78 -33q72 0 78 33h89q-6 -52 -50 -82t-117 -30zM477 0l-53 186h-230l-53 -186h-151l236 741h162l240 -741h-151zM227 303h164l-80 282h-4z" />
    <glyph glyph-name="uni1EAF" unicode="&#x1eaf;" horiz-adv-x="570" 
d="M244 735l65 105h136l-108 -105h-93zM292 596q-75 0 -118 29.5t-48 82.5h88q7 -33 78 -33q72 0 78 33h89q-6 -52 -50 -82t-117 -30zM212 -11q-75 0 -123.5 44t-48.5 117q0 82 55.5 123t177.5 57q52 8 67.5 17t15.5 36q0 25 -17 40t-47 15q-79 0 -129 -74l-75 87
q71 94 208 94q100 0 148.5 -45t48.5 -124v-376h-134v58q-36 -37 -68.5 -53t-78.5 -16zM240 92q60 0 112 70v82h-2l-74 -11q-98 -13 -98 -81q0 -26 15.5 -43t46.5 -17z" />
    <glyph glyph-name="uni1EB0" unicode="&#x1eb0;" horiz-adv-x="618" 
d="M358 935h-93l-108 105h135zM309 796q-75 0 -118 29.5t-48 82.5h88q7 -33 78 -33q72 0 78 33h89q-6 -52 -50 -82t-117 -30zM477 0l-53 186h-230l-53 -186h-151l236 741h162l240 -741h-151zM227 303h164l-80 282h-4z" />
    <glyph glyph-name="uni1EB1" unicode="&#x1eb1;" horiz-adv-x="570" 
d="M248 735l-108 105h135l66 -105h-93zM292 596q-75 0 -118 29.5t-48 82.5h88q7 -33 78 -33q72 0 78 33h89q-6 -52 -50 -82t-117 -30zM212 -11q-75 0 -123.5 44t-48.5 117q0 82 55.5 123t177.5 57q52 8 67.5 17t15.5 36q0 25 -17 40t-47 15q-79 0 -129 -74l-75 87
q71 94 208 94q100 0 148.5 -45t48.5 -124v-376h-134v58q-36 -37 -68.5 -53t-78.5 -16zM240 92q60 0 112 70v82h-2l-74 -11q-98 -13 -98 -81q0 -26 15.5 -43t46.5 -17z" />
    <glyph glyph-name="uni1EB2" unicode="&#x1eb2;" horiz-adv-x="618" 
d="M255 985q-30 0 -62 -16l-15 68q38 19 95 19q55 0 84 -20t29 -56q0 -14 -11 -32.5t-29 -31.5h-84q28 21 28 43q0 26 -35 26zM309 796q-75 0 -118 29.5t-48 82.5h88q7 -33 78 -33q72 0 78 33h89q-6 -52 -50 -82t-117 -30zM477 0l-53 186h-230l-53 -186h-151l236 741h162
l240 -741h-151zM227 303h164l-80 282h-4z" />
    <glyph glyph-name="uni1EB3" unicode="&#x1eb3;" horiz-adv-x="570" 
d="M245 716q28 21 28 43q0 26 -35 26q-30 0 -62 -16l-15 68q38 19 95 19q55 0 84 -20t29 -56q0 -14 -11 -32.5t-29 -31.5h-84zM292 596q-75 0 -118 29.5t-48 82.5h88q7 -33 78 -33q72 0 78 33h89q-6 -52 -50 -82t-117 -30zM212 -11q-75 0 -123.5 44t-48.5 117q0 82 55.5 123
t177.5 57q52 8 67.5 17t15.5 36q0 25 -17 40t-47 15q-79 0 -129 -74l-75 87q71 94 208 94q100 0 148.5 -45t48.5 -124v-376h-134v58q-36 -37 -68.5 -53t-78.5 -16zM240 92q60 0 112 70v82h-2l-74 -11q-98 -13 -98 -81q0 -26 15.5 -43t46.5 -17z" />
    <glyph glyph-name="uni1EB4" unicode="&#x1eb4;" horiz-adv-x="618" 
d="M246 970q-26 0 -54 -39l-43 49q42 63 99 63q23 0 66.5 -18t57.5 -18q27 0 54 38l43 -49q-42 -63 -99 -63q-23 0 -66 18.5t-58 18.5zM309 796q-75 0 -118 29.5t-48 82.5h88q7 -33 78 -33q72 0 78 33h89q-6 -52 -50 -82t-117 -30zM477 0l-53 186h-230l-53 -186h-151
l236 741h162l240 -741h-151zM227 303h164l-80 282h-4z" />
    <glyph glyph-name="uni1EB5" unicode="&#x1eb5;" horiz-adv-x="570" 
d="M175 731l-43 49q42 63 99 63q23 0 66.5 -18t57.5 -18q27 0 54 38l43 -49q-42 -63 -99 -63q-23 0 -66 18.5t-58 18.5q-26 0 -54 -39zM292 596q-75 0 -118 29.5t-48 82.5h88q7 -33 78 -33q72 0 78 33h89q-6 -52 -50 -82t-117 -30zM212 -11q-75 0 -123.5 44t-48.5 117
q0 82 55.5 123t177.5 57q52 8 67.5 17t15.5 36q0 25 -17 40t-47 15q-79 0 -129 -74l-75 87q71 94 208 94q100 0 148.5 -45t48.5 -124v-376h-134v58q-36 -37 -68.5 -53t-78.5 -16zM240 92q60 0 112 70v82h-2l-74 -11q-98 -13 -98 -81q0 -26 15.5 -43t46.5 -17z" />
    <glyph glyph-name="uni1EB6" unicode="&#x1eb6;" horiz-adv-x="618" 
d="M309 796q-70 0 -116 37.5t-50 107.5h88q4 -29 26.5 -44.5t51.5 -15.5q30 0 52.5 15.5t25.5 44.5h89q-5 -71 -50.5 -108t-116.5 -37zM628 0h-151l-53 186h-230l-53 -186h-151l236 741h162zM227 303h164l-80 282h-4zM309 -49q32 0 55 -23t23 -55t-23 -55t-55 -23t-55 23
t-23 55t23 55t55 23z" />
    <glyph glyph-name="uni1EB7" unicode="&#x1eb7;" horiz-adv-x="570" 
d="M292 596q-70 0 -116 37.5t-50 107.5h88q4 -29 26.5 -44.5t51.5 -15.5q30 0 52.5 15.5t25.5 44.5h89q-5 -71 -50.5 -108t-116.5 -37zM212 -11q-75 0 -123.5 44t-48.5 117q0 82 55.5 123t177.5 57q52 8 67.5 17t15.5 36q0 25 -17 40t-47 15q-79 0 -129 -74l-75 87
q71 94 208 94q100 0 148.5 -45t48.5 -124v-376h-134v58q-36 -37 -68.5 -53t-78.5 -16zM240 92q60 0 112 70v82h-2l-74 -11q-98 -13 -98 -81q0 -26 15.5 -43t46.5 -17zM277 -205q-32 0 -55 23t-23 55t23 55t55 23t55 -23t23 -55t-23 -55t-55 -23z" />
    <glyph glyph-name="uni1EB8" unicode="&#x1eb8;" horiz-adv-x="608" 
d="M90 0v741h461v-126h-312v-177h259v-126h-259v-186h330v-126h-479zM329 -205q-32 0 -55 23t-23 55t23 55t55 23t55 -23t23 -55t-23 -55t-55 -23z" />
    <glyph glyph-name="uni1EB9" unicode="&#x1eb9;" horiz-adv-x="541" 
d="M272 -11q-110 0 -172 82t-62 196q0 115 64 196.5t178 81.5q225 0 225 -299v-13h-325q-4 -52 24.5 -95.5t79.5 -43.5q40 0 71.5 24.5t48.5 62.5l87 -73q-77 -119 -219 -119zM184 322h183q0 51 -22 85t-69 34q-44 0 -67 -35t-25 -84zM272 -205q-32 0 -55 23t-23 55t23 55
t55 23t55 -23t23 -55t-23 -55t-55 -23z" />
    <glyph glyph-name="uni1EBA" unicode="&#x1eba;" horiz-adv-x="608" 
d="M273 804q39 30 39 51q0 26 -35 26q-30 0 -62 -16l-15 68q36 19 95 19q55 0 84 -20t29 -56q0 -38 -50 -72h-85zM90 0v741h461v-126h-312v-177h259v-126h-259v-186h330v-126h-479z" />
    <glyph glyph-name="uni1EBB" unicode="&#x1ebb;" horiz-adv-x="541" 
d="M229 604q39 30 39 51q0 26 -35 26q-30 0 -62 -16l-15 68q36 19 95 19q55 0 84 -20t29 -56q0 -38 -50 -72h-85zM272 -11q-110 0 -172 82t-62 196q0 115 64 196.5t178 81.5q225 0 225 -299v-13h-325q-4 -52 24.5 -95.5t79.5 -43.5q40 0 71.5 24.5t48.5 62.5l87 -73
q-77 -119 -219 -119zM184 322h183q0 51 -22 85t-69 34q-44 0 -67 -35t-25 -84z" />
    <glyph glyph-name="uni1EBC" unicode="&#x1ebc;" horiz-adv-x="608" 
d="M203 831l-42 54q47 74 102 74q21 0 60.5 -17.5t55.5 -17.5q14 0 25 6.5t16.5 13t14.5 20.5l46 -51q-44 -76 -96 -76q-22 0 -65.5 18.5t-59.5 18.5q-14 0 -25.5 -7t-17 -14t-14.5 -22zM90 0v741h461v-126h-312v-177h259v-126h-259v-186h330v-126h-479z" />
    <glyph glyph-name="uni1EBD" unicode="&#x1ebd;" horiz-adv-x="541" 
d="M159 631l-42 54q47 74 102 74q21 0 60.5 -17.5t55.5 -17.5q14 0 25 6.5t16.5 13t14.5 20.5l46 -51q-44 -76 -96 -76q-22 0 -65.5 18.5t-59.5 18.5q-14 0 -25.5 -7t-17 -14t-14.5 -22zM272 -11q-110 0 -172 82t-62 196q0 115 64 196.5t178 81.5q225 0 225 -299v-13h-325
q-4 -52 24.5 -95.5t79.5 -43.5q40 0 71.5 24.5t48.5 62.5l87 -73q-77 -119 -219 -119zM184 322h183q0 51 -22 85t-69 34q-44 0 -67 -35t-25 -84z" />
    <glyph glyph-name="uni1EBE" unicode="&#x1ebe;" horiz-adv-x="608" 
d="M276 935l66 105h135l-108 -105h-93zM160 804l94 99h134l94 -99h-102l-59 51l-57 -51h-104zM90 0v741h461v-126h-312v-177h259v-126h-259v-186h330v-126h-479z" />
    <glyph glyph-name="uni1EBF" unicode="&#x1ebf;" horiz-adv-x="541" 
d="M232 735l66 105h135l-108 -105h-93zM116 604l94 99h134l94 -99h-102l-59 51l-57 -51h-104zM272 -11q-110 0 -172 82t-62 196q0 115 64 196.5t178 81.5q225 0 225 -299v-13h-325q-4 -52 24.5 -95.5t79.5 -43.5q40 0 71.5 24.5t48.5 62.5l87 -73q-77 -119 -219 -119z
M184 322h183q0 51 -22 85t-69 34q-44 0 -67 -35t-25 -84z" />
    <glyph glyph-name="uni1EC0" unicode="&#x1ec0;" horiz-adv-x="608" 
d="M272 935l-108 105h136l65 -105h-93zM160 804l94 99h134l94 -99h-102l-59 51l-57 -51h-104zM90 0v741h461v-126h-312v-177h259v-126h-259v-186h330v-126h-479z" />
    <glyph glyph-name="uni1EC1" unicode="&#x1ec1;" horiz-adv-x="541" 
d="M228 735l-108 105h136l65 -105h-93zM116 604l94 99h134l94 -99h-102l-59 51l-57 -51h-104zM272 -11q-110 0 -172 82t-62 196q0 115 64 196.5t178 81.5q225 0 225 -299v-13h-325q-4 -52 24.5 -95.5t79.5 -43.5q40 0 71.5 24.5t48.5 62.5l87 -73q-77 -119 -219 -119z
M184 322h183q0 51 -22 85t-69 34q-44 0 -67 -35t-25 -84z" />
    <glyph glyph-name="uni1EC2" unicode="&#x1ec2;" horiz-adv-x="608" 
d="M422 916q28 22 28 43q0 26 -35 26q-30 0 -62 -16l-15 68q38 19 95 19q55 0 84 -20t29 -56q0 -14 -11 -32.5t-29 -31.5h-84zM160 804l94 99h134l94 -99h-102l-59 51l-57 -51h-104zM90 0v741h461v-126h-312v-177h259v-126h-259v-186h330v-126h-479z" />
    <glyph glyph-name="uni1EC3" unicode="&#x1ec3;" horiz-adv-x="541" 
d="M378 716q28 22 28 43q0 26 -35 26q-30 0 -62 -16l-15 68q38 19 95 19q55 0 84 -20t29 -56q0 -14 -11 -32.5t-29 -31.5h-84zM116 604l94 99h134l94 -99h-102l-59 51l-57 -51h-104zM272 -11q-110 0 -172 82t-62 196q0 115 64 196.5t178 81.5q225 0 225 -299v-13h-325
q-4 -52 24.5 -95.5t79.5 -43.5q40 0 71.5 24.5t48.5 62.5l87 -73q-77 -119 -219 -119zM184 322h183q0 51 -22 85t-69 34q-44 0 -67 -35t-25 -84z" />
    <glyph glyph-name="uni1EC4" unicode="&#x1ec4;" horiz-adv-x="608" 
d="M203 931l-42 49q40 63 99 63q22 0 65.5 -18t57.5 -18q28 0 55 38l43 -49q-42 -63 -99 -63q-23 0 -66.5 18.5t-57.5 18.5q-25 0 -55 -39zM160 804l94 99h134l94 -99h-102l-59 51l-57 -51h-104zM90 0v741h461v-126h-312v-177h259v-126h-259v-186h330v-126h-479z" />
    <glyph glyph-name="uni1EC5" unicode="&#x1ec5;" horiz-adv-x="541" 
d="M159 731l-42 49q40 63 99 63q22 0 65.5 -18t57.5 -18q28 0 55 38l43 -49q-42 -63 -99 -63q-23 0 -66.5 18.5t-57.5 18.5q-25 0 -55 -39zM116 604l94 99h134l94 -99h-102l-59 51l-57 -51h-104zM272 -11q-110 0 -172 82t-62 196q0 115 64 196.5t178 81.5q225 0 225 -299
v-13h-325q-4 -52 24.5 -95.5t79.5 -43.5q40 0 71.5 24.5t48.5 62.5l87 -73q-77 -119 -219 -119zM184 322h183q0 51 -22 85t-69 34q-44 0 -67 -35t-25 -84z" />
    <glyph glyph-name="uni1EC6" unicode="&#x1ec6;" horiz-adv-x="608" 
d="M160 804l94 137h134l94 -137h-102l-59 80l-57 -80h-104zM90 0v741h461v-126h-312v-177h259v-126h-259v-186h330v-126h-479zM329 -205q-32 0 -55 23t-23 55t23 55t55 23t55 -23t23 -55t-23 -55t-55 -23z" />
    <glyph glyph-name="uni1EC7" unicode="&#x1ec7;" horiz-adv-x="541" 
d="M116 604l94 137h134l94 -137h-102l-59 80l-57 -80h-104zM272 -11q-110 0 -172 82t-62 196q0 115 64 196.5t178 81.5q225 0 225 -299v-13h-325q-4 -52 24.5 -95.5t79.5 -43.5q40 0 71.5 24.5t48.5 62.5l87 -73q-77 -119 -219 -119zM184 322h183q0 51 -22 85t-69 34
q-44 0 -67 -35t-25 -84zM272 -205q-32 0 -55 23t-23 55t23 55t55 23t55 -23t23 -55t-23 -55t-55 -23z" />
    <glyph glyph-name="uni1EC8" unicode="&#x1ec8;" horiz-adv-x="329" 
d="M117 804q39 30 39 51q0 26 -35 26q-30 0 -62 -16l-15 68q36 19 95 19q55 0 84 -20t29 -56q0 -38 -50 -72h-85zM90 0v741h149v-741h-149z" />
    <glyph glyph-name="uni1EC9" unicode="&#x1ec9;" horiz-adv-x="299" 
d="M101 604q39 30 39 51q0 26 -35 26q-30 0 -62 -16l-15 68q36 19 95 19q55 0 84 -20t29 -56q0 -38 -50 -72h-85zM79 0v533h141v-533h-141z" />
    <glyph glyph-name="uni1ECA" unicode="&#x1eca;" horiz-adv-x="329" 
d="M90 0v741h149v-741h-149zM165 -205q-32 0 -55 23t-23 55t23 55t55 23t55 -23t23 -55t-23 -55t-55 -23z" />
    <glyph glyph-name="uni1ECB" unicode="&#x1ecb;" horiz-adv-x="299" 
d="M149 591q-33 0 -57.5 24.5t-24.5 57.5q0 34 24.5 58t57.5 24q34 0 58 -24t24 -58q0 -33 -24 -57.5t-58 -24.5zM79 0v533h141v-533h-141zM154 -205q-32 0 -55 23t-23 55t23 55t55 23t55 -23t23 -55t-23 -55t-55 -23z" />
    <glyph glyph-name="uni1ECC" unicode="&#x1ecc;" horiz-adv-x="679" 
d="M340 -15q-76 0 -136.5 33.5t-96.5 89t-54.5 122.5t-18.5 139t18.5 138.5t54.5 122t96.5 89t136.5 33.5t136 -33.5t96 -89t54.5 -122t18.5 -138.5t-18.5 -139t-54.5 -122.5t-96 -89t-136 -33.5zM340 102q45 0 77 27t47.5 71t22 85.5t6.5 83.5q0 41 -6.5 82.5t-22 85.5
t-47.5 71t-77 27t-77.5 -27t-48 -71t-22 -85.5t-6.5 -82.5q0 -42 6.5 -83.5t22 -85.5t48 -71t77.5 -27zM340 -205q-32 0 -55 23t-23 55t23 55t55 23t55 -23t23 -55t-23 -55t-55 -23z" />
    <glyph glyph-name="uni1ECD" unicode="&#x1ecd;" horiz-adv-x="544" 
d="M272 -11q-74 0 -128.5 40t-80 102t-25.5 136q0 116 61.5 197t172.5 81t172.5 -81t61.5 -197q0 -74 -25.5 -136t-80 -102t-128.5 -40zM272 92q27 0 46 17t28 46t12.5 56t3.5 56t-3.5 56t-12.5 55.5t-28 45.5t-46 17t-46 -17t-27.5 -46t-12 -55.5t-3.5 -55.5t3.5 -56
t12 -56t27.5 -46t46 -17zM272 -205q-32 0 -55 23t-23 55t23 55t55 23t55 -23t23 -55t-23 -55t-55 -23z" />
    <glyph glyph-name="uni1ECE" unicode="&#x1ece;" horiz-adv-x="679" 
d="M292 804q39 30 39 51q0 26 -35 26q-30 0 -62 -16l-15 68q36 19 95 19q55 0 84 -20t29 -56q0 -38 -50 -72h-85zM340 -15q-76 0 -136.5 33.5t-96.5 89t-54.5 122.5t-18.5 139t18.5 138.5t54.5 122t96.5 89t136.5 33.5t136 -33.5t96 -89t54.5 -122t18.5 -138.5t-18.5 -139
t-54.5 -122.5t-96 -89t-136 -33.5zM340 102q45 0 77 27t47.5 71t22 85.5t6.5 83.5q0 41 -6.5 82.5t-22 85.5t-47.5 71t-77 27t-77.5 -27t-48 -71t-22 -85.5t-6.5 -82.5q0 -42 6.5 -83.5t22 -85.5t48 -71t77.5 -27z" />
    <glyph glyph-name="uni1ECF" unicode="&#x1ecf;" horiz-adv-x="544" 
d="M224 604q39 30 39 51q0 26 -35 26q-30 0 -62 -16l-15 68q36 19 95 19q55 0 84 -20t29 -56q0 -38 -50 -72h-85zM272 -11q-74 0 -128.5 40t-80 102t-25.5 136q0 116 61.5 197t172.5 81t172.5 -81t61.5 -197q0 -74 -25.5 -136t-80 -102t-128.5 -40zM272 92q27 0 46 17t28 46
t12.5 56t3.5 56t-3.5 56t-12.5 55.5t-28 45.5t-46 17t-46 -17t-27.5 -46t-12 -55.5t-3.5 -55.5t3.5 -56t12 -56t27.5 -46t46 -17z" />
    <glyph glyph-name="uni1ED0" unicode="&#x1ed0;" horiz-adv-x="679" 
d="M295 935l66 105h135l-108 -105h-93zM179 804l94 99h134l94 -99h-102l-59 51l-57 -51h-104zM340 -15q-76 0 -136.5 33.5t-96.5 89t-54.5 122.5t-18.5 139t18.5 138.5t54.5 122t96.5 89t136.5 33.5t136 -33.5t96 -89t54.5 -122t18.5 -138.5t-18.5 -139t-54.5 -122.5
t-96 -89t-136 -33.5zM340 102q45 0 77 27t47.5 71t22 85.5t6.5 83.5q0 41 -6.5 82.5t-22 85.5t-47.5 71t-77 27t-77.5 -27t-48 -71t-22 -85.5t-6.5 -82.5q0 -42 6.5 -83.5t22 -85.5t48 -71t77.5 -27z" />
    <glyph glyph-name="uni1ED1" unicode="&#x1ed1;" horiz-adv-x="544" 
d="M227 735l66 105h135l-108 -105h-93zM111 604l94 99h134l94 -99h-102l-59 51l-57 -51h-104zM272 -11q-74 0 -128.5 40t-80 102t-25.5 136q0 116 61.5 197t172.5 81t172.5 -81t61.5 -197q0 -74 -25.5 -136t-80 -102t-128.5 -40zM272 92q27 0 46 17t28 46t12.5 56t3.5 56
t-3.5 56t-12.5 55.5t-28 45.5t-46 17t-46 -17t-27.5 -46t-12 -55.5t-3.5 -55.5t3.5 -56t12 -56t27.5 -46t46 -17z" />
    <glyph glyph-name="uni1ED2" unicode="&#x1ed2;" horiz-adv-x="679" 
d="M291 935l-108 105h136l65 -105h-93zM179 804l94 99h134l94 -99h-102l-59 51l-57 -51h-104zM340 -15q-76 0 -136.5 33.5t-96.5 89t-54.5 122.5t-18.5 139t18.5 138.5t54.5 122t96.5 89t136.5 33.5t136 -33.5t96 -89t54.5 -122t18.5 -138.5t-18.5 -139t-54.5 -122.5
t-96 -89t-136 -33.5zM340 102q45 0 77 27t47.5 71t22 85.5t6.5 83.5q0 41 -6.5 82.5t-22 85.5t-47.5 71t-77 27t-77.5 -27t-48 -71t-22 -85.5t-6.5 -82.5q0 -42 6.5 -83.5t22 -85.5t48 -71t77.5 -27z" />
    <glyph glyph-name="uni1ED3" unicode="&#x1ed3;" horiz-adv-x="544" 
d="M223 735l-108 105h136l65 -105h-93zM111 604l94 99h134l94 -99h-102l-59 51l-57 -51h-104zM272 -11q-74 0 -128.5 40t-80 102t-25.5 136q0 116 61.5 197t172.5 81t172.5 -81t61.5 -197q0 -74 -25.5 -136t-80 -102t-128.5 -40zM272 92q27 0 46 17t28 46t12.5 56t3.5 56
t-3.5 56t-12.5 55.5t-28 45.5t-46 17t-46 -17t-27.5 -46t-12 -55.5t-3.5 -55.5t3.5 -56t12 -56t27.5 -46t46 -17z" />
    <glyph glyph-name="uni1ED4" unicode="&#x1ed4;" horiz-adv-x="679" 
d="M441 916q28 22 28 43q0 26 -35 26q-30 0 -62 -16l-15 68q38 19 95 19q55 0 84 -20t29 -56q0 -14 -11 -32.5t-29 -31.5h-84zM179 804l94 99h134l94 -99h-102l-59 51l-57 -51h-104zM340 -15q-76 0 -136.5 33.5t-96.5 89t-54.5 122.5t-18.5 139t18.5 138.5t54.5 122t96.5 89
t136.5 33.5t136 -33.5t96 -89t54.5 -122t18.5 -138.5t-18.5 -139t-54.5 -122.5t-96 -89t-136 -33.5zM340 102q45 0 77 27t47.5 71t22 85.5t6.5 83.5q0 41 -6.5 82.5t-22 85.5t-47.5 71t-77 27t-77.5 -27t-48 -71t-22 -85.5t-6.5 -82.5q0 -42 6.5 -83.5t22 -85.5t48 -71
t77.5 -27z" />
    <glyph glyph-name="uni1ED5" unicode="&#x1ed5;" horiz-adv-x="544" 
d="M373 716q28 22 28 43q0 26 -35 26q-30 0 -62 -16l-15 68q38 19 95 19q55 0 84 -20t29 -56q0 -14 -11 -32.5t-29 -31.5h-84zM111 604l94 99h134l94 -99h-102l-59 51l-57 -51h-104zM272 -11q-74 0 -128.5 40t-80 102t-25.5 136q0 116 61.5 197t172.5 81t172.5 -81
t61.5 -197q0 -74 -25.5 -136t-80 -102t-128.5 -40zM272 92q27 0 46 17t28 46t12.5 56t3.5 56t-3.5 56t-12.5 55.5t-28 45.5t-46 17t-46 -17t-27.5 -46t-12 -55.5t-3.5 -55.5t3.5 -56t12 -56t27.5 -46t46 -17z" />
    <glyph glyph-name="uni1ED6" unicode="&#x1ed6;" horiz-adv-x="679" 
d="M222 931l-42 49q40 63 99 63q22 0 65.5 -18t57.5 -18q28 0 55 38l43 -49q-42 -63 -99 -63q-23 0 -66.5 18.5t-57.5 18.5q-25 0 -55 -39zM179 804l94 99h134l94 -99h-102l-59 51l-57 -51h-104zM340 -15q-76 0 -136.5 33.5t-96.5 89t-54.5 122.5t-18.5 139t18.5 138.5
t54.5 122t96.5 89t136.5 33.5t136 -33.5t96 -89t54.5 -122t18.5 -138.5t-18.5 -139t-54.5 -122.5t-96 -89t-136 -33.5zM340 102q45 0 77 27t47.5 71t22 85.5t6.5 83.5q0 41 -6.5 82.5t-22 85.5t-47.5 71t-77 27t-77.5 -27t-48 -71t-22 -85.5t-6.5 -82.5q0 -42 6.5 -83.5
t22 -85.5t48 -71t77.5 -27z" />
    <glyph glyph-name="uni1ED7" unicode="&#x1ed7;" horiz-adv-x="544" 
d="M154 731l-42 49q40 63 99 63q22 0 65.5 -18t57.5 -18q28 0 55 38l43 -49q-42 -63 -99 -63q-23 0 -66.5 18.5t-57.5 18.5q-25 0 -55 -39zM111 604l94 99h134l94 -99h-102l-59 51l-57 -51h-104zM272 -11q-74 0 -128.5 40t-80 102t-25.5 136q0 116 61.5 197t172.5 81
t172.5 -81t61.5 -197q0 -74 -25.5 -136t-80 -102t-128.5 -40zM272 92q27 0 46 17t28 46t12.5 56t3.5 56t-3.5 56t-12.5 55.5t-28 45.5t-46 17t-46 -17t-27.5 -46t-12 -55.5t-3.5 -55.5t3.5 -56t12 -56t27.5 -46t46 -17z" />
    <glyph glyph-name="uni1ED8" unicode="&#x1ed8;" horiz-adv-x="679" 
d="M179 804l94 137h134l94 -137h-102l-59 80l-57 -80h-104zM340 -15q-76 0 -136.5 33.5t-96.5 89t-54.5 122.5t-18.5 139t18.5 138.5t54.5 122t96.5 89t136.5 33.5t136 -33.5t96 -89t54.5 -122t18.5 -138.5t-18.5 -139t-54.5 -122.5t-96 -89t-136 -33.5zM340 102q45 0 77 27
t47.5 71t22 85.5t6.5 83.5q0 41 -6.5 82.5t-22 85.5t-47.5 71t-77 27t-77.5 -27t-48 -71t-22 -85.5t-6.5 -82.5q0 -42 6.5 -83.5t22 -85.5t48 -71t77.5 -27zM340 -205q-32 0 -55 23t-23 55t23 55t55 23t55 -23t23 -55t-23 -55t-55 -23z" />
    <glyph glyph-name="uni1ED9" unicode="&#x1ed9;" horiz-adv-x="544" 
d="M111 604l94 137h134l94 -137h-102l-59 80l-57 -80h-104zM272 -11q-74 0 -128.5 40t-80 102t-25.5 136q0 116 61.5 197t172.5 81t172.5 -81t61.5 -197q0 -74 -25.5 -136t-80 -102t-128.5 -40zM272 92q27 0 46 17t28 46t12.5 56t3.5 56t-3.5 56t-12.5 55.5t-28 45.5t-46 17
t-46 -17t-27.5 -46t-12 -55.5t-3.5 -55.5t3.5 -56t12 -56t27.5 -46t46 -17zM272 -205q-32 0 -55 23t-23 55t23 55t55 23t55 -23t23 -55t-23 -55t-55 -23z" />
    <glyph glyph-name="uni1EDA" unicode="&#x1eda;" horiz-adv-x="679" 
d="M483 947l-98 -137h-93l56 137h135zM650 781q0 -44 -22.5 -80.5t-72.5 -48.5q90 -111 90 -283q0 -72 -18.5 -139t-54.5 -122.5t-96 -89t-136 -33.5t-136.5 33.5t-96.5 89t-54.5 122.5t-18.5 139t18.5 138.5t54.5 122t96.5 89t136.5 33.5q28 0 73.5 -5.5t66.5 -5.5
q52 0 52 52q0 31 -12 70h119q11 -44 11 -82zM340 102q45 0 77 27t47.5 71t22 85.5t6.5 83.5q0 41 -6.5 82.5t-22 85.5t-47.5 71t-77 27t-77.5 -27t-48 -71t-22 -85.5t-6.5 -82.5q0 -42 6.5 -83.5t22 -85.5t48 -71t77.5 -27z" />
    <glyph glyph-name="uni1EDB" unicode="&#x1edb;" horiz-adv-x="544" 
d="M415 741l-98 -137h-93l56 137h135zM521 573q0 -84 -71 -117q56 -77 56 -189q0 -74 -25.5 -136t-80 -102t-128.5 -40t-128.5 40t-80 102t-25.5 136q0 116 61.5 197t172.5 81h1h1h1q23 0 52.5 -5t36.5 -5q22 0 32.5 11.5t10.5 39.5q0 30 -11 69h113q12 -41 12 -82zM272 92
q27 0 46 17t28 46t12.5 56t3.5 56t-3.5 56t-12.5 55.5t-28 45.5t-46 17t-46 -17t-27.5 -46t-12 -55.5t-3.5 -55.5t3.5 -56t12 -56t27.5 -46t46 -17z" />
    <glyph glyph-name="uni1EDC" unicode="&#x1edc;" horiz-adv-x="679" 
d="M389 810h-93l-98 137h135zM650 781q0 -44 -22.5 -80.5t-72.5 -48.5q90 -111 90 -283q0 -72 -18.5 -139t-54.5 -122.5t-96 -89t-136 -33.5t-136.5 33.5t-96.5 89t-54.5 122.5t-18.5 139t18.5 138.5t54.5 122t96.5 89t136.5 33.5q28 0 73.5 -5.5t66.5 -5.5q52 0 52 52
q0 31 -12 70h119q11 -44 11 -82zM340 102q45 0 77 27t47.5 71t22 85.5t6.5 83.5q0 41 -6.5 82.5t-22 85.5t-47.5 71t-77 27t-77.5 -27t-48 -71t-22 -85.5t-6.5 -82.5q0 -42 6.5 -83.5t22 -85.5t48 -71t77.5 -27z" />
    <glyph glyph-name="uni1EDD" unicode="&#x1edd;" horiz-adv-x="544" 
d="M321 604h-93l-98 137h135zM521 573q0 -84 -71 -117q56 -77 56 -189q0 -74 -25.5 -136t-80 -102t-128.5 -40t-128.5 40t-80 102t-25.5 136q0 116 61.5 197t172.5 81h1h1h1q23 0 52.5 -5t36.5 -5q22 0 32.5 11.5t10.5 39.5q0 30 -11 69h113q12 -41 12 -82zM272 92
q27 0 46 17t28 46t12.5 56t3.5 56t-3.5 56t-12.5 55.5t-28 45.5t-46 17t-46 -17t-27.5 -46t-12 -55.5t-3.5 -55.5t3.5 -56t12 -56t27.5 -46t46 -17z" />
    <glyph glyph-name="uni1EDE" unicode="&#x1ede;" horiz-adv-x="679" 
d="M296 887q-30 0 -62 -16l-15 68q36 19 95 19q55 0 84 -20t29 -56q0 -38 -50 -72h-85q39 30 39 51q0 26 -35 26zM650 781q0 -44 -22.5 -80.5t-72.5 -48.5q90 -111 90 -283q0 -72 -18.5 -139t-54.5 -122.5t-96 -89t-136 -33.5t-136.5 33.5t-96.5 89t-54.5 122.5t-18.5 139
t18.5 138.5t54.5 122t96.5 89t136.5 33.5q28 0 73.5 -5.5t66.5 -5.5q52 0 52 52q0 31 -12 70h119q11 -44 11 -82zM340 102q45 0 77 27t47.5 71t22 85.5t6.5 83.5q0 41 -6.5 82.5t-22 85.5t-47.5 71t-77 27t-77.5 -27t-48 -71t-22 -85.5t-6.5 -82.5q0 -42 6.5 -83.5t22 -85.5
t48 -71t77.5 -27z" />
    <glyph glyph-name="uni1EDF" unicode="&#x1edf;" horiz-adv-x="544" 
d="M228 681q-30 0 -62 -16l-15 68q36 19 95 19q55 0 84 -20t29 -56q0 -38 -50 -72h-85q39 30 39 51q0 26 -35 26zM521 573q0 -84 -71 -117q56 -77 56 -189q0 -74 -25.5 -136t-80 -102t-128.5 -40t-128.5 40t-80 102t-25.5 136q0 116 61.5 197t172.5 81h1h1h1q23 0 52.5 -5
t36.5 -5q22 0 32.5 11.5t10.5 39.5q0 30 -11 69h113q12 -41 12 -82zM272 92q27 0 46 17t28 46t12.5 56t3.5 56t-3.5 56t-12.5 55.5t-28 45.5t-46 17t-46 -17t-27.5 -46t-12 -55.5t-3.5 -55.5t3.5 -56t12 -56t27.5 -46t46 -17z" />
    <glyph glyph-name="uni1EE0" unicode="&#x1ee0;" horiz-adv-x="679" 
d="M279 880q-14 0 -25.5 -7t-17 -14t-14.5 -22l-42 54q47 74 102 74q21 0 60.5 -17.5t55.5 -17.5q14 0 25 6.5t16.5 13t14.5 20.5l46 -51q-44 -76 -96 -76q-22 0 -65.5 18.5t-59.5 18.5zM650 781q0 -44 -22.5 -80.5t-72.5 -48.5q90 -111 90 -283q0 -72 -18.5 -139
t-54.5 -122.5t-96 -89t-136 -33.5t-136.5 33.5t-96.5 89t-54.5 122.5t-18.5 139t18.5 138.5t54.5 122t96.5 89t136.5 33.5q28 0 73.5 -5.5t66.5 -5.5q52 0 52 52q0 31 -12 70h119q11 -44 11 -82zM340 102q45 0 77 27t47.5 71t22 85.5t6.5 83.5q0 41 -6.5 82.5t-22 85.5
t-47.5 71t-77 27t-77.5 -27t-48 -71t-22 -85.5t-6.5 -82.5q0 -42 6.5 -83.5t22 -85.5t48 -71t77.5 -27z" />
    <glyph glyph-name="uni1EE1" unicode="&#x1ee1;" horiz-adv-x="544" 
d="M211 674q-14 0 -25.5 -7t-17 -14t-14.5 -22l-42 54q47 74 102 74q21 0 60.5 -17.5t55.5 -17.5q14 0 25 6.5t16.5 13t14.5 20.5l46 -51q-44 -76 -96 -76q-22 0 -65.5 18.5t-59.5 18.5zM521 573q0 -84 -71 -117q56 -77 56 -189q0 -74 -25.5 -136t-80 -102t-128.5 -40
t-128.5 40t-80 102t-25.5 136q0 116 61.5 197t172.5 81h1h1h1q23 0 52.5 -5t36.5 -5q22 0 32.5 11.5t10.5 39.5q0 30 -11 69h113q12 -41 12 -82zM272 92q27 0 46 17t28 46t12.5 56t3.5 56t-3.5 56t-12.5 55.5t-28 45.5t-46 17t-46 -17t-27.5 -46t-12 -55.5t-3.5 -55.5
t3.5 -56t12 -56t27.5 -46t46 -17z" />
    <glyph glyph-name="uni1EE2" unicode="&#x1ee2;" horiz-adv-x="679" 
d="M650 781q0 -44 -22.5 -80.5t-72.5 -48.5q90 -111 90 -283q0 -72 -18.5 -139t-54.5 -122.5t-96 -89t-136 -33.5t-136.5 33.5t-96.5 89t-54.5 122.5t-18.5 139t18.5 138.5t54.5 122t96.5 89t136.5 33.5q28 0 73.5 -5.5t66.5 -5.5q52 0 52 52q0 31 -12 70h119q11 -44 11 -82
zM340 102q45 0 77 27t47.5 71t22 85.5t6.5 83.5q0 41 -6.5 82.5t-22 85.5t-47.5 71t-77 27t-77.5 -27t-48 -71t-22 -85.5t-6.5 -82.5q0 -42 6.5 -83.5t22 -85.5t48 -71t77.5 -27zM340 -49q32 0 55 -23t23 -55t-23 -55t-55 -23t-55 23t-23 55t23 55t55 23z" />
    <glyph glyph-name="uni1EE3" unicode="&#x1ee3;" horiz-adv-x="544" 
d="M521 573q0 -84 -71 -117q56 -77 56 -189q0 -74 -25.5 -136t-80 -102t-128.5 -40t-128.5 40t-80 102t-25.5 136q0 116 61.5 197t172.5 81h1h1h1q23 0 52.5 -5t36.5 -5q22 0 32.5 11.5t10.5 39.5q0 30 -11 69h113q12 -41 12 -82zM272 92q27 0 46 17t28 46t12.5 56t3.5 56
t-3.5 56t-12.5 55.5t-28 45.5t-46 17t-46 -17t-27.5 -46t-12 -55.5t-3.5 -55.5t3.5 -56t12 -56t27.5 -46t46 -17zM272 -49q32 0 55 -23t23 -55t-23 -55t-55 -23t-55 23t-23 55t23 55t55 23z" />
    <glyph glyph-name="uni1EE4" unicode="&#x1ee4;" horiz-adv-x="692" 
d="M346 -11q-119 0 -190 63.5t-71 176.5v512h149v-465q0 -90 27 -126t85 -36q59 0 86 36t27 126v465h148v-512q0 -113 -71 -176.5t-190 -63.5zM346 -205q-32 0 -55 23t-23 55t23 55t55 23t55 -23t23 -55t-23 -55t-55 -23z" />
    <glyph glyph-name="uni1EE5" unicode="&#x1ee5;" horiz-adv-x="596" 
d="M217 -11q-54 0 -97 39t-43 127v378h141v-328q0 -22 1 -35.5t6 -31.5t18 -27t33 -9q46 0 100 58v373h141v-533h-141v55q-80 -66 -159 -66zM298 -205q-32 0 -55 23t-23 55t23 55t55 23t55 -23t23 -55t-23 -55t-55 -23z" />
    <glyph glyph-name="uni1EE6" unicode="&#x1ee6;" horiz-adv-x="692" 
d="M298 804q39 30 39 51q0 26 -35 26q-30 0 -62 -16l-15 68q36 19 95 19q55 0 84 -20t29 -56q0 -38 -50 -72h-85zM346 -11q-119 0 -190 63.5t-71 176.5v512h149v-465q0 -90 27 -126t85 -36q59 0 86 36t27 126v465h148v-512q0 -113 -71 -176.5t-190 -63.5z" />
    <glyph glyph-name="uni1EE7" unicode="&#x1ee7;" horiz-adv-x="596" 
d="M250 604q39 30 39 51q0 26 -35 26q-30 0 -62 -16l-15 68q36 19 95 19q55 0 84 -20t29 -56q0 -38 -50 -72h-85zM217 -11q-54 0 -97 39t-43 127v378h141v-328q0 -22 1 -35.5t6 -31.5t18 -27t33 -9q46 0 100 58v373h141v-533h-141v55q-80 -66 -159 -66z" />
    <glyph glyph-name="uni1EE8" unicode="&#x1ee8;" horiz-adv-x="692" 
d="M489 941l-98 -137h-93l56 137h135zM682 863q11 -44 11 -82q0 -96 -86 -128v-424q0 -113 -71 -176.5t-190 -63.5t-190 63.5t-71 176.5v512h149v-465q0 -90 27 -126t85 -36q59 0 86 36t27 126v465h63q53 0 53 52q0 31 -12 70h119z" />
    <glyph glyph-name="uni1EE9" unicode="&#x1ee9;" horiz-adv-x="596" 
d="M441 741l-98 -137h-93l56 137h135zM603 573q0 -91 -86 -124v-449h-141v55q-80 -66 -159 -66q-54 0 -97 39t-43 127v378h141v-328q0 -22 1 -35.5t6 -31.5t18 -27t33 -9q46 0 100 58v373h57q31 0 43.5 11.5t12.5 41.5t-11 69h113q12 -41 12 -82z" />
    <glyph glyph-name="uni1EEA" unicode="&#x1eea;" horiz-adv-x="692" 
d="M395 804h-93l-98 137h135zM682 863q11 -44 11 -82q0 -96 -86 -128v-424q0 -113 -71 -176.5t-190 -63.5t-190 63.5t-71 176.5v512h149v-465q0 -90 27 -126t85 -36q59 0 86 36t27 126v465h63q53 0 53 52q0 31 -12 70h119z" />
    <glyph glyph-name="uni1EEB" unicode="&#x1eeb;" horiz-adv-x="596" 
d="M347 604h-93l-98 137h135zM603 573q0 -91 -86 -124v-449h-141v55q-80 -66 -159 -66q-54 0 -97 39t-43 127v378h141v-328q0 -22 1 -35.5t6 -31.5t18 -27t33 -9q46 0 100 58v373h57q31 0 43.5 11.5t12.5 41.5t-11 69h113q12 -41 12 -82z" />
    <glyph glyph-name="uni1EEC" unicode="&#x1eec;" horiz-adv-x="692" 
d="M302 881q-30 0 -62 -16l-15 68q36 19 95 19q55 0 84 -20t29 -56q0 -38 -50 -72h-85q39 30 39 51q0 26 -35 26zM682 863q11 -44 11 -82q0 -96 -86 -128v-424q0 -113 -71 -176.5t-190 -63.5t-190 63.5t-71 176.5v512h149v-465q0 -90 27 -126t85 -36q59 0 86 36t27 126v465
h63q53 0 53 52q0 31 -12 70h119z" />
    <glyph glyph-name="uni1EED" unicode="&#x1eed;" horiz-adv-x="596" 
d="M254 681q-30 0 -62 -16l-15 68q36 19 95 19q55 0 84 -20t29 -56q0 -38 -50 -72h-85q39 30 39 51q0 26 -35 26zM603 573q0 -91 -86 -124v-449h-141v55q-80 -66 -159 -66q-54 0 -97 39t-43 127v378h141v-328q0 -22 1 -35.5t6 -31.5t18 -27t33 -9q46 0 100 58v373h57
q31 0 43.5 11.5t12.5 41.5t-11 69h113q12 -41 12 -82z" />
    <glyph glyph-name="uni1EEE" unicode="&#x1eee;" horiz-adv-x="692" 
d="M285 874q-14 0 -25.5 -7t-17 -14t-14.5 -22l-42 54q47 74 102 74q21 0 60.5 -17.5t55.5 -17.5q14 0 25 6.5t16.5 13t14.5 20.5l46 -51q-44 -76 -96 -76q-22 0 -65.5 18.5t-59.5 18.5zM682 863q11 -44 11 -82q0 -96 -86 -128v-424q0 -113 -71 -176.5t-190 -63.5t-190 63.5
t-71 176.5v512h149v-465q0 -90 27 -126t85 -36q59 0 86 36t27 126v465h63q53 0 53 52q0 31 -12 70h119z" />
    <glyph glyph-name="uni1EEF" unicode="&#x1eef;" horiz-adv-x="596" 
d="M237 674q-14 0 -25.5 -7t-17 -14t-14.5 -22l-42 54q47 74 102 74q21 0 60.5 -17.5t55.5 -17.5q14 0 25 6.5t16.5 13t14.5 20.5l46 -51q-44 -76 -96 -76q-22 0 -65.5 18.5t-59.5 18.5zM603 573q0 -91 -86 -124v-449h-141v55q-80 -66 -159 -66q-54 0 -97 39t-43 127v378
h141v-328q0 -22 1 -35.5t6 -31.5t18 -27t33 -9q46 0 100 58v373h57q31 0 43.5 11.5t12.5 41.5t-11 69h113q12 -41 12 -82z" />
    <glyph glyph-name="uni1EF0" unicode="&#x1ef0;" horiz-adv-x="692" 
d="M682 863q11 -44 11 -82q0 -96 -86 -128v-424q0 -113 -71 -176.5t-190 -63.5t-190 63.5t-71 176.5v512h149v-465q0 -90 27 -126t85 -36q59 0 86 36t27 126v465h63q53 0 53 52q0 31 -12 70h119zM346 -49q32 0 55 -23t23 -55t-23 -55t-55 -23t-55 23t-23 55t23 55t55 23z
" />
    <glyph glyph-name="uni1EF1" unicode="&#x1ef1;" horiz-adv-x="596" 
d="M603 573q0 -91 -86 -124v-449h-141v55q-80 -66 -159 -66q-54 0 -97 39t-43 127v378h141v-328q0 -22 1 -35.5t6 -31.5t18 -27t33 -9q46 0 100 58v373h57q31 0 43.5 11.5t12.5 41.5t-11 69h113q12 -41 12 -82zM298 -49q32 0 55 -23t23 -55t-23 -55t-55 -23t-55 23t-23 55
t23 55t55 23z" />
    <glyph glyph-name="Ygrave" unicode="&#x1ef2;" horiz-adv-x="617" 
d="M265 804l-98 137h135l56 -137h-93zM233 0v299l-243 442h158l159 -324h2l165 324h153l-246 -442v-299h-148z" />
    <glyph glyph-name="ygrave" unicode="&#x1ef3;" horiz-adv-x="497" 
d="M215 604l-98 137h135l56 -137h-93zM113 -196q-42 0 -90 10v121q39 -13 61 -13q44 0 66.5 22.5t36.5 68.5l-190 520h152l107 -349h2l97 349h145l-206 -576q-14 -40 -27 -65.5t-33.5 -47t-50 -31t-70.5 -9.5z" />
    <glyph glyph-name="uni1EF4" unicode="&#x1ef4;" horiz-adv-x="617" 
d="M233 0v299l-243 442h158l159 -324h2l165 324h153l-246 -442v-299h-148zM309 -205q-32 0 -55 23t-23 55t23 55t55 23t55 -23t23 -55t-23 -55t-55 -23z" />
    <glyph glyph-name="uni1EF5" unicode="&#x1ef5;" horiz-adv-x="497" 
d="M113 -196q-42 0 -90 10v121q39 -13 61 -13q44 0 66.5 22.5t36.5 68.5l-190 520h152l107 -349h2l97 349h145l-206 -576q-14 -40 -27 -65.5t-33.5 -47t-50 -31t-70.5 -9.5zM392 -205q-32 0 -55 23t-23 55t23 55t55 23t55 -23t23 -55t-23 -55t-55 -23z" />
    <glyph glyph-name="uni1EF6" unicode="&#x1ef6;" horiz-adv-x="617" 
d="M261 804q39 30 39 51q0 26 -35 26q-30 0 -62 -16l-15 68q36 19 95 19q55 0 84 -20t29 -56q0 -38 -50 -72h-85zM233 0v299l-243 442h158l159 -324h2l165 324h153l-246 -442v-299h-148z" />
    <glyph glyph-name="uni1EF7" unicode="&#x1ef7;" horiz-adv-x="497" 
d="M211 604q39 30 39 51q0 26 -35 26q-30 0 -62 -16l-15 68q36 19 95 19q55 0 84 -20t29 -56q0 -38 -50 -72h-85zM113 -196q-42 0 -90 10v121q39 -13 61 -13q44 0 66.5 22.5t36.5 68.5l-190 520h152l107 -349h2l97 349h145l-206 -576q-14 -40 -27 -65.5t-33.5 -47t-50 -31
t-70.5 -9.5z" />
    <glyph glyph-name="uni1EF8" unicode="&#x1ef8;" horiz-adv-x="617" 
d="M191 831l-42 54q47 74 102 74q21 0 60.5 -17.5t55.5 -17.5q14 0 25 6.5t16.5 13t14.5 20.5l46 -51q-44 -76 -96 -76q-22 0 -65.5 18.5t-59.5 18.5q-14 0 -25.5 -7t-17 -14t-14.5 -22zM233 0v299l-243 442h158l159 -324h2l165 324h153l-246 -442v-299h-148z" />
    <glyph glyph-name="uni1EF9" unicode="&#x1ef9;" horiz-adv-x="497" 
d="M141 631l-42 54q47 74 102 74q21 0 60.5 -17.5t55.5 -17.5q14 0 25 6.5t16.5 13t14.5 20.5l46 -51q-44 -76 -96 -76q-22 0 -65.5 18.5t-59.5 18.5q-14 0 -25.5 -7t-17 -14t-14.5 -22zM113 -196q-42 0 -90 10v121q39 -13 61 -13q44 0 66.5 22.5t36.5 68.5l-190 520h152
l107 -349h2l97 349h145l-206 -576q-14 -40 -27 -65.5t-33.5 -47t-50 -31t-70.5 -9.5z" />
    <glyph glyph-name="endash" unicode="&#x2013;" horiz-adv-x="504" 
d="M33 223v118h438v-118h-438z" />
    <glyph glyph-name="emdash" unicode="&#x2014;" horiz-adv-x="980" 
d="M33 223v118h914v-118h-914z" />
    <glyph glyph-name="quoteleft" unicode="&#x2018;" horiz-adv-x="191" 
d="M128 760l52 -38q-52 -55 -76 -120q24 -7 39 -26.5t15 -45.5q0 -32 -21.5 -55t-52.5 -23t-52 23.5t-21 57.5q0 53 35.5 117.5t81.5 109.5z" />
    <glyph glyph-name="quoteright" unicode="&#x2019;" horiz-adv-x="191" 
d="M63 443l-52 38q52 55 76 120q-24 7 -39 26.5t-15 45.5q0 32 21.5 55t52.5 23t52 -23.5t21 -57.5q0 -53 -35.5 -117.5t-81.5 -109.5z" />
    <glyph glyph-name="quotesinglbase" unicode="&#x201a;" horiz-adv-x="191" 
d="M63 -158l-52 38q52 55 76 120q-24 7 -39 26.5t-15 45.5q0 32 21.5 55t52.5 23t52 -23.5t21 -57.5q0 -53 -35.5 -117.5t-81.5 -109.5z" />
    <glyph glyph-name="quotedblleft" unicode="&#x201c;" horiz-adv-x="377" 
d="M128 760l52 -38q-52 -55 -76 -120q24 -7 39 -26.5t15 -45.5q0 -32 -21.5 -55t-52.5 -23t-52 23.5t-21 57.5q0 53 35.5 117.5t81.5 109.5zM314 760l52 -38q-52 -55 -76 -120q24 -7 39 -26.5t15 -45.5q0 -32 -21.5 -55t-52.5 -23t-52 23.5t-21 57.5q0 53 35.5 117.5
t81.5 109.5z" />
    <glyph glyph-name="quotedblright" unicode="&#x201d;" horiz-adv-x="377" 
d="M63 443l-52 38q52 55 76 120q-24 7 -39 26.5t-15 45.5q0 32 21.5 55t52.5 23t52 -23.5t21 -57.5q0 -53 -35.5 -117.5t-81.5 -109.5zM249 443l-52 38q52 55 76 120q-24 7 -39 26.5t-15 45.5q0 32 21.5 55t52.5 23t52 -23.5t21 -57.5q0 -53 -35.5 -117.5t-81.5 -109.5z" />
    <glyph glyph-name="quotedblbase" unicode="&#x201e;" horiz-adv-x="377" 
d="M63 -158l-52 38q52 55 76 120q-24 7 -39 26.5t-15 45.5q0 32 21.5 55t52.5 23t52 -23.5t21 -57.5q0 -53 -35.5 -117.5t-81.5 -109.5zM249 -158l-52 38q52 55 76 120q-24 7 -39 26.5t-15 45.5q0 32 21.5 55t52.5 23t52 -23.5t21 -57.5q0 -53 -35.5 -117.5t-81.5 -109.5z
" />
    <glyph glyph-name="dagger" unicode="&#x2020;" 
d="M226 -182v598h-174v117h174v208h141v-208h173v-117h-173v-598h-141z" />
    <glyph glyph-name="daggerdbl" unicode="&#x2021;" 
d="M226 -182v182h-174v117h174v325h-174v117h174v182h141v-182h173v-117h-173v-325h173v-117h-173v-182h-141z" />
    <glyph glyph-name="bullet" unicode="&#x2022;" horiz-adv-x="438" 
d="M218 198q-70 0 -120 50.5t-50 120.5q0 71 50 121.5t120 50.5q71 0 121.5 -50.5t50.5 -121.5t-50.5 -121t-121.5 -50z" />
    <glyph glyph-name="ellipsis" unicode="&#x2026;" horiz-adv-x="869" 
d="M139 -10q-35 0 -60.5 25.5t-25.5 60.5t25.5 60.5t60.5 25.5t60 -25.5t25 -60.5t-25.5 -60.5t-59.5 -25.5zM435 -10q-35 0 -60.5 25.5t-25.5 60.5t25.5 60.5t60.5 25.5t60 -25.5t25 -60.5t-25.5 -60.5t-59.5 -25.5zM731 -10q-35 0 -60.5 25.5t-25.5 60.5t25.5 60.5
t60.5 25.5t60 -25.5t25 -60.5t-25.5 -60.5t-59.5 -25.5z" />
    <glyph glyph-name="perthousand" unicode="&#x2030;" horiz-adv-x="1190" 
d="M187 370q-81 0 -120 53t-39 132q0 39 7.5 72t24.5 62.5t49.5 46t77.5 16.5q85 0 122 -56.5t37 -140.5q0 -78 -39 -131.5t-120 -53.5zM173 0l376 741h89l-375 -741h-90zM187 456q49 0 49 99q0 27 -1 40t-5 33.5t-14.5 29.5t-28.5 9t-29 -9t-15 -29.5t-5 -33.5t-1 -40
q0 -20 1.5 -35t6 -31t15.5 -24.5t27 -8.5zM625 -11q-81 0 -120 53t-39 131q0 39 7.5 72t24.5 62.5t49.5 46t77.5 16.5t77.5 -16.5t49.5 -46t24.5 -62.5t7.5 -72q0 -78 -39 -131t-120 -53zM1003 -11q-81 0 -120 53t-39 131q0 39 7.5 72t24.5 62.5t49.5 46t77.5 16.5
t77.5 -16.5t49.5 -46t24.5 -62.5t7.5 -72q0 -78 -39 -131t-120 -53zM625 74q49 0 49 99q0 27 -1 40t-5 33.5t-14.5 29.5t-28.5 9t-29 -9t-15 -29.5t-5 -33.5t-1 -40q0 -99 50 -99zM1003 74q16 0 26.5 8.5t15 25t6 30.5t1.5 35q0 27 -1 40t-5 33.5t-14.5 29.5t-28.5 9t-29 -9
t-15 -29.5t-5 -33.5t-1 -40q0 -99 50 -99z" />
    <glyph glyph-name="guilsinglleft" unicode="&#x2039;" horiz-adv-x="266" 
d="M125 70l-88 212l88 212h104l-80 -212l80 -212h-104z" />
    <glyph glyph-name="guilsinglright" unicode="&#x203a;" horiz-adv-x="266" 
d="M141 494l88 -212l-88 -212h-104l80 212l-80 212h104z" />
    <glyph glyph-name="fraction" unicode="&#x2044;" horiz-adv-x="170" 
d="M-176 0l413 741h109l-414 -741h-108z" />
    <glyph glyph-name="uni2070" unicode="&#x2070;" horiz-adv-x="390" 
d="M195 389q-78 0 -131.5 56t-53.5 171q0 116 49.5 176.5t135.5 60.5q87 0 136 -60t49 -177q0 -115 -53.5 -171t-131.5 -56zM195 475q74 0 74 141q0 151 -74 151q-25 0 -41 -15t-22 -43t-7.5 -46.5t-1.5 -46.5q0 -141 72 -141z" />
    <glyph glyph-name="uni2074" unicode="&#x2074;" horiz-adv-x="390" 
d="M205 395v102h-189v72l175 277h122v-266h59v-83h-59v-102h-108zM119 580h86v138h-1z" />
    <glyph glyph-name="uni2075" unicode="&#x2075;" horiz-adv-x="390" 
d="M181 389q-57 0 -103 29.5t-59 86.5l105 38q6 -69 62 -69q29 0 46.5 22t17.5 54q0 30 -17.5 52.5t-47.5 22.5q-20 0 -36 -13t-21 -33l-99 22l9 245h281v-89h-186l-3 -64q39 21 81 21q69 0 111.5 -46.5t42.5 -110.5q0 -72 -53 -120t-131 -48z" />
    <glyph glyph-name="uni2076" unicode="&#x2076;" horiz-adv-x="390" 
d="M201 389q-78 0 -131.5 56t-53.5 171t54.5 176t137.5 61q92 0 142 -76l-69 -62q-35 49 -72 49q-31 0 -50.5 -26t-23.5 -60q40 19 78 19q56 0 104.5 -37.5t48.5 -108.5q0 -76 -53.5 -119t-111.5 -43zM193 477q30 0 45.5 20t15.5 50q0 24 -14.5 43t-38.5 19q-35 0 -70 -28
q-1 -38 13.5 -71t48.5 -33z" />
    <glyph glyph-name="uni2077" unicode="&#x2077;" horiz-adv-x="390" 
d="M64 395q17 191 159 362h-186v89h325v-57q-160 -202 -172 -394h-126z" />
    <glyph glyph-name="uni2078" unicode="&#x2078;" horiz-adv-x="391" 
d="M293 640q77 -42 77 -121q0 -56 -43.5 -93t-133.5 -37q-89 0 -130.5 37t-41.5 93q0 68 75 110q-62 39 -62 102q0 55 46.5 88.5t115.5 33.5t113.5 -33t44.5 -89q0 -53 -61 -91zM144 728q0 -17 15 -28.5t45 -22.5q41 22 41 51q0 19 -15.5 28.5t-35.5 9.5q-19 0 -34.5 -10
t-15.5 -28zM195 475q25 0 44 13t19 34t-18.5 35t-54.5 29q-53 -30 -53 -64q0 -21 19.5 -34t43.5 -13z" />
    <glyph glyph-name="uni2079" unicode="&#x2079;" horiz-adv-x="390" 
d="M181 389q-98 0 -156 85l84 55q10 -22 29 -37t40 -15q31 0 51 25t22 60q-41 -18 -77 -18q-56 0 -104 38t-48 110q0 76 53.5 118.5t117.5 42.5q72 0 125 -57t53 -171t-54 -175t-136 -61zM189 633q39 0 65 22q2 109 -63 109q-27 0 -43 -19t-16 -48q0 -26 15 -45t42 -19z" />
    <glyph glyph-name="uni2080" unicode="&#x2080;" horiz-adv-x="390" 
d="M195 -116q-78 0 -131.5 56t-53.5 171q0 116 49.5 176.5t135.5 60.5q87 0 136 -60t49 -177q0 -115 -53.5 -171t-131.5 -56zM195 -30q74 0 74 141q0 151 -74 151q-25 0 -41 -15t-22 -43t-7.5 -46.5t-1.5 -46.5q0 -141 72 -141z" />
    <glyph glyph-name="uni2081" unicode="&#x2081;" horiz-adv-x="390" 
d="M65 -110v84h80v236q-35 -22 -81 -29l-19 76q92 22 128 84h84v-367h79v-84h-271z" />
    <glyph glyph-name="uni2082" unicode="&#x2082;" horiz-adv-x="390" 
d="M31 -110v82q14 40 51.5 76t72.5 58t63 51.5t28 59.5q0 20 -13.5 33.5t-34.5 13.5q-31 0 -45.5 -28.5t-7.5 -68.5l-110 34q-2 68 44.5 107.5t118.5 39.5q80 0 121.5 -38.5t41.5 -96.5q0 -43 -29 -81.5t-64 -61.5t-68.5 -48.5t-39.5 -42.5h200v-89h-329z" />
    <glyph glyph-name="uni2083" unicode="&#x2083;" horiz-adv-x="390" 
d="M196 -116q-66 0 -115 33t-59 93l102 33q2 -36 23 -55.5t51 -19.5q25 0 42 15.5t17 41.5q0 30 -23.5 46t-61.5 16q-16 0 -32 -2v81q20 -3 37 -3q31 0 51.5 14t20.5 40q0 23 -15.5 35t-37.5 12q-25 0 -44 -17.5t-23 -46.5l-92 41q16 49 62.5 78t103.5 29q62 0 109.5 -35
t47.5 -94q0 -58 -63 -89q72 -34 72 -103q0 -64 -51 -103.5t-122 -39.5z" />
    <glyph glyph-name="uni2084" unicode="&#x2084;" horiz-adv-x="390" 
d="M205 -110v102h-189v72l175 277h122v-266h59v-83h-59v-102h-108zM119 75h86v138h-1z" />
    <glyph glyph-name="uni2085" unicode="&#x2085;" horiz-adv-x="390" 
d="M181 -116q-57 0 -103 29.5t-59 86.5l105 38q6 -69 62 -69q29 0 46.5 22t17.5 54q0 30 -17.5 52.5t-47.5 22.5q-20 0 -36 -13t-21 -33l-99 22l9 245h281v-89h-186l-3 -64q39 21 81 21q69 0 111.5 -46.5t42.5 -110.5q0 -72 -53 -120t-131 -48z" />
    <glyph glyph-name="uni2086" unicode="&#x2086;" horiz-adv-x="390" 
d="M201 -116q-78 0 -131.5 56t-53.5 171t54.5 176t137.5 61q92 0 142 -76l-69 -62q-35 49 -72 49q-31 0 -50.5 -26t-23.5 -60q40 19 78 19q56 0 104.5 -37.5t48.5 -108.5q0 -76 -53.5 -119t-111.5 -43zM193 -28q30 0 45.5 20t15.5 50q0 24 -14.5 43t-38.5 19q-35 0 -70 -28
q-1 -38 13.5 -71t48.5 -33z" />
    <glyph glyph-name="uni2087" unicode="&#x2087;" horiz-adv-x="390" 
d="M64 -110q17 191 159 362h-186v89h325v-57q-160 -202 -172 -394h-126z" />
    <glyph glyph-name="uni2088" unicode="&#x2088;" horiz-adv-x="391" 
d="M293 135q77 -42 77 -121q0 -56 -43.5 -93t-133.5 -37q-89 0 -130.5 37t-41.5 93q0 68 75 110q-62 39 -62 102q0 55 46.5 88.5t115.5 33.5t113.5 -33t44.5 -89q0 -53 -61 -91zM144 223q0 -17 15 -28.5t45 -22.5q41 22 41 51q0 19 -15.5 28.5t-35.5 9.5q-19 0 -34.5 -10
t-15.5 -28zM195 -30q25 0 44 13t19 34t-18.5 35t-54.5 29q-53 -30 -53 -64q0 -21 19.5 -34t43.5 -13z" />
    <glyph glyph-name="uni2089" unicode="&#x2089;" horiz-adv-x="390" 
d="M181 -116q-98 0 -156 85l84 55q10 -22 29 -37t40 -15q31 0 51 25t22 60q-41 -18 -77 -18q-56 0 -104 38t-48 110q0 76 53.5 118.5t117.5 42.5q72 0 125 -57t53 -171t-54 -175t-136 -61zM189 128q39 0 65 22q2 109 -63 109q-27 0 -43 -19t-16 -48q0 -26 15 -45t42 -19z
" />
    <glyph glyph-name="Euro" unicode="&#x20ac;" 
d="M490 194l89 -101q-73 -104 -206 -104q-105 0 -174 69.5t-91 194.5h-65v86h56q-1 10 -1 31q0 18 2 50h-57v86h68q23 116 89.5 181t175.5 65q103 0 169 -58l-34 -128q-74 65 -139 65q-92 0 -117 -125h241l-20 -86h-231q-1 -16 -1 -50v-31h212l-20 -86h-184
q12 -76 42 -109.5t78 -33.5q78 0 118 84z" />
    <glyph glyph-name="uni2113" unicode="&#x2113;" horiz-adv-x="481" 
d="M408 137l45 -87q-66 -63 -157 -63q-74 0 -120.5 44t-46.5 134v23q-59 -43 -69 -50l-46 97q104 73 115 80v256q0 87 46 134t123 47q70 0 111 -42t41 -120q0 -93 -44.5 -160t-159.5 -156v-84q0 -106 61 -106q48 0 101 53zM246 570v-166q58 49 81 88.5t23 90.5q0 75 -50 75
q-54 0 -54 -88z" />
    <glyph glyph-name="trademark" unicode="&#x2122;" horiz-adv-x="948" 
d="M171 356v301h-113v84h327v-84h-114v-301h-100zM431 356v385h126l92 -171h1l90 171h126v-385h-96v261h-1l-120 -212l-120 212h-2v-261h-96z" />
    <glyph glyph-name="uni2126" unicode="&#x2126;" horiz-adv-x="685" 
d="M36 0v126h96q-96 122 -96 262q0 97 31 177t102.5 133.5t173.5 53.5q76 0 136 -30.5t96.5 -82t55 -115.5t18.5 -136q0 -138 -97 -262h97v-126h-220v116q67 123 67 272q0 41 -6.5 79.5t-22 78.5t-48 64.5t-77.5 24.5t-77.5 -24.5t-47.5 -64.5t-21.5 -78.5t-6.5 -79.5
q0 -149 67 -272v-116h-220z" />
    <glyph glyph-name="estimated" unicode="&#x212e;" horiz-adv-x="943" 
d="M476 -12q-177 0 -302.5 112.5t-125.5 269.5q0 158 125 270t301 112t298.5 -114t122.5 -275h-679q-11 0 -11 -12v-167q0 -42 48 -78.5t111 -55.5t117 -19q147 0 241 109h82q-57 -71 -143 -111.5t-185 -40.5zM216 403h511q11 0 11 10v147q0 30 -19 50q-96 102 -249 102
q-155 0 -244 -102q-21 -25 -21 -50v-147q0 -10 11 -10z" />
    <glyph glyph-name="uni2150" unicode="&#x2150;" horiz-adv-x="977" 
d="M65 290v84h80v236q-35 -22 -81 -29l-19 76q92 22 128 84h84v-367h79v-84h-271zM214 0l413 741h109l-414 -741h-108zM651 0q17 191 159 362h-186v89h325v-57q-160 -202 -172 -394h-126z" />
    <glyph glyph-name="uni2151" unicode="&#x2151;" horiz-adv-x="950" 
d="M65 290v84h80v236q-35 -22 -81 -29l-19 76q92 22 128 84h84v-367h79v-84h-271zM214 0l413 741h109l-414 -741h-108zM741 -6q-98 0 -156 85l84 55q10 -22 29 -37t40 -15q31 0 51 25t22 60q-41 -18 -77 -18q-56 0 -104 38t-48 110q0 76 53.5 118.5t117.5 42.5q72 0 125 -57
t53 -171t-54 -175t-136 -61zM749 238q39 0 65 22q2 109 -63 109q-27 0 -43 -19t-16 -48q0 -26 15 -45t42 -19z" />
    <glyph glyph-name="uni2153" unicode="&#x2153;" horiz-adv-x="950" 
d="M65 290v84h80v236q-35 -22 -81 -29l-19 76q92 22 128 84h84v-367h79v-84h-271zM214 0l413 741h109l-414 -741h-108zM756 -6q-66 0 -115 33t-59 93l102 33q2 -36 23 -55.5t51 -19.5q25 0 42 15.5t17 41.5q0 30 -23.5 46t-61.5 16q-16 0 -32 -2v81q19 -3 37 -3
q31 0 51.5 14t20.5 40q0 23 -15.5 35t-37.5 12q-25 0 -44 -17.5t-23 -46.5l-92 41q16 49 62.5 78t103.5 29q62 0 109.5 -35t47.5 -94q0 -58 -63 -89q72 -34 72 -103q0 -64 -51 -103.5t-122 -39.5z" />
    <glyph glyph-name="uni2154" unicode="&#x2154;" horiz-adv-x="977" 
d="M31 290v82q14 40 51.5 76t72.5 58t63 51.5t28 59.5q0 20 -13.5 33.5t-34.5 13.5q-31 0 -45.5 -28.5t-7.5 -68.5l-110 34q-2 68 44.5 107.5t118.5 39.5q80 0 121.5 -38.5t41.5 -96.5q0 -43 -29 -81.5t-64 -61.5t-68.5 -48.5t-39.5 -42.5h200v-89h-329zM241 0l413 741h109
l-414 -741h-108zM783 -6q-66 0 -115 33t-59 93l102 33q2 -36 23 -55.5t51 -19.5q25 0 42 15.5t17 41.5q0 30 -23.5 46t-61.5 16q-16 0 -32 -2v81q20 -3 37 -3q31 0 51.5 14t20.5 40q0 23 -15.5 35t-37.5 12q-25 0 -44 -17.5t-23 -46.5l-92 41q16 49 62.5 78t103.5 29
q62 0 109.5 -35t47.5 -94q0 -58 -63 -89q72 -34 72 -103q0 -64 -51 -103.5t-122 -39.5z" />
    <glyph glyph-name="uni2155" unicode="&#x2155;" horiz-adv-x="979" 
d="M65 290v84h80v236q-35 -22 -81 -29l-19 76q92 22 128 84h84v-367h79v-84h-271zM214 0l413 741h109l-414 -741h-108zM770 -6q-57 0 -103 29.5t-59 86.5l105 38q6 -69 62 -69q29 0 46.5 22t17.5 54q0 30 -17.5 52.5t-47.5 22.5q-20 0 -36 -13t-21 -33l-99 22l9 245h281v-89
h-186l-3 -64q39 21 81 21q69 0 111.5 -46.5t42.5 -110.5q0 -72 -53 -120t-131 -48z" />
    <glyph glyph-name="uni2156" unicode="&#x2156;" horiz-adv-x="1006" 
d="M31 290v82q14 40 51.5 76t72.5 58t63 51.5t28 59.5q0 20 -13.5 33.5t-34.5 13.5q-31 0 -45.5 -28.5t-7.5 -68.5l-110 34q-2 68 44.5 107.5t118.5 39.5q80 0 121.5 -38.5t41.5 -96.5q0 -43 -29 -81.5t-64 -61.5t-68.5 -48.5t-39.5 -42.5h200v-89h-329zM241 0l413 741h109
l-414 -741h-108zM797 -6q-57 0 -103 29.5t-59 86.5l105 38q6 -69 62 -69q29 0 46.5 22t17.5 54q0 30 -17.5 52.5t-47.5 22.5q-20 0 -36 -13t-21 -33l-99 22l9 245h281v-89h-186l-3 -64q39 21 81 21q69 0 111.5 -46.5t42.5 -110.5q0 -72 -53 -120t-131 -48z" />
    <glyph glyph-name="uni2157" unicode="&#x2157;" horiz-adv-x="979" 
d="M196 284q-66 0 -115 33t-59 93l102 33q2 -36 23 -55.5t51 -19.5q25 0 42 15.5t17 41.5q0 30 -23.5 46t-61.5 16q-16 0 -32 -2v81q20 -3 37 -3q31 0 51.5 14t20.5 40q0 23 -15.5 35t-37.5 12q-25 0 -44 -17.5t-23 -46.5l-92 41q16 49 62.5 78t103.5 29q62 0 109.5 -35
t47.5 -94q0 -58 -63 -89q72 -34 72 -103q0 -64 -51 -103.5t-122 -39.5zM214 0l413 741h109l-414 -741h-108zM770 -6q-57 0 -103 29.5t-59 86.5l105 38q6 -69 62 -69q29 0 46.5 22t17.5 54q0 30 -17.5 52.5t-47.5 22.5q-20 0 -36 -13t-21 -33l-99 22l9 245h281v-89h-186
l-3 -64q39 21 81 21q69 0 111.5 -46.5t42.5 -110.5q0 -72 -53 -120t-131 -48z" />
    <glyph glyph-name="uni2158" unicode="&#x2158;" horiz-adv-x="979" 
d="M205 290v102h-189v72l175 277h122v-266h59v-83h-59v-102h-108zM214 0l413 741h109l-414 -741h-108zM119 475h86v138h-1zM770 -6q-57 0 -103 29.5t-59 86.5l105 38q6 -69 62 -69q29 0 46.5 22t17.5 54q0 30 -17.5 52.5t-47.5 22.5q-20 0 -36 -13t-21 -33l-99 22l9 245h281
v-89h-186l-3 -64q39 21 81 21q69 0 111.5 -46.5t42.5 -110.5q0 -72 -53 -120t-131 -48z" />
    <glyph glyph-name="uni2159" unicode="&#x2159;" horiz-adv-x="950" 
d="M65 290v84h80v236q-35 -22 -81 -29l-19 76q92 22 128 84h84v-367h79v-84h-271zM214 0l413 741h109l-414 -741h-108zM761 -6q-78 0 -131.5 56t-53.5 171t54.5 176t137.5 61q92 0 142 -76l-69 -62q-35 49 -72 49q-31 0 -50.5 -26t-23.5 -60q40 19 78 19q56 0 104.5 -37.5
t48.5 -108.5q0 -76 -53.5 -119t-111.5 -43zM753 82q30 0 45.5 20t15.5 50q0 24 -14.5 43t-38.5 19q-35 0 -70 -28q-1 -38 13.5 -71t48.5 -33z" />
    <glyph glyph-name="uni215A" unicode="&#x215a;" horiz-adv-x="950" 
d="M181 284q-57 0 -103 29.5t-59 86.5l105 38q6 -69 62 -69q29 0 46.5 22t17.5 54q0 30 -17.5 52.5t-47.5 22.5q-20 0 -36 -13t-21 -33l-99 22l9 245h281v-89h-186l-3 -64q39 21 81 21q69 0 111.5 -46.5t42.5 -110.5q0 -72 -53 -120t-131 -48zM214 0l413 741h109l-414 -741
h-108zM761 -6q-78 0 -131.5 56t-53.5 171t54.5 176t137.5 61q92 0 142 -76l-69 -62q-35 49 -72 49q-31 0 -50.5 -26t-23.5 -60q40 19 78 19q56 0 104.5 -37.5t48.5 -108.5q0 -76 -53.5 -119t-111.5 -43zM753 82q30 0 45.5 20t15.5 50q0 24 -14.5 43t-38.5 19q-35 0 -70 -28
q-1 -38 13.5 -71t48.5 -33z" />
    <glyph glyph-name="oneeighth" unicode="&#x215b;" horiz-adv-x="951" 
d="M65 374h80v236q-35 -22 -81 -29l-19 76q92 22 128 84h84v-367h79v-84h-271v84zM627 741h109l-414 -741h-108zM853 245q77 -42 77 -121q0 -56 -43.5 -93t-133.5 -37q-89 0 -130.5 37t-41.5 93q0 68 75 110q-62 39 -62 102q0 55 46.5 88.5t115.5 33.5t113.5 -33t44.5 -89
q0 -53 -61 -91zM704 333q0 -17 15 -28.5t45 -22.5q41 22 41 51q0 19 -15.5 28.5t-35.5 9.5q-19 0 -34.5 -10t-15.5 -28zM755 80q25 0 44 13t19 34t-18.5 35t-54.5 29q-53 -30 -53 -64q0 -21 19.5 -34t43.5 -13z" />
    <glyph glyph-name="threeeighths" unicode="&#x215c;" horiz-adv-x="951" 
d="M369 427q0 -64 -51 -103.5t-122 -39.5q-66 0 -115 33t-59 93l102 33q2 -36 23 -55.5t51 -19.5q25 0 42 15.5t17 41.5q0 30 -23.5 46t-61.5 16q-16 0 -32 -2v81q20 -3 37 -3q31 0 51.5 14t20.5 40q0 23 -15.5 35t-37.5 12q-25 0 -44 -17.5t-23 -46.5l-92 41q16 49 62.5 78
t103.5 29q62 0 109.5 -35t47.5 -94q0 -58 -63 -89q72 -34 72 -103zM627 741h109l-414 -741h-108zM853 245q77 -42 77 -121q0 -56 -43.5 -93t-133.5 -37q-89 0 -130.5 37t-41.5 93q0 68 75 110q-62 39 -62 102q0 55 46.5 88.5t115.5 33.5t113.5 -33t44.5 -89q0 -53 -61 -91z
M704 333q0 -17 15 -28.5t45 -22.5q41 22 41 51q0 19 -15.5 28.5t-35.5 9.5q-19 0 -34.5 -10t-15.5 -28zM755 80q25 0 44 13t19 34t-18.5 35t-54.5 29q-53 -30 -53 -64q0 -21 19.5 -34t43.5 -13z" />
    <glyph glyph-name="fiveeighths" unicode="&#x215d;" horiz-adv-x="951" 
d="M365 452q0 -72 -53 -120t-131 -48q-57 0 -103 29.5t-59 86.5l105 38q6 -69 62 -69q29 0 46.5 22t17.5 54q0 30 -17.5 52.5t-47.5 22.5q-20 0 -36 -13t-21 -33l-99 22l9 245h281v-89h-186l-3 -64q39 21 81 21q69 0 111.5 -46.5t42.5 -110.5zM627 741h109l-414 -741h-108z
M853 245q77 -42 77 -121q0 -56 -43.5 -93t-133.5 -37q-89 0 -130.5 37t-41.5 93q0 68 75 110q-62 39 -62 102q0 55 46.5 88.5t115.5 33.5t113.5 -33t44.5 -89q0 -53 -61 -91zM704 333q0 -17 15 -28.5t45 -22.5q41 22 41 51q0 19 -15.5 28.5t-35.5 9.5q-19 0 -34.5 -10
t-15.5 -28zM755 80q25 0 44 13t19 34t-18.5 35t-54.5 29q-53 -30 -53 -64q0 -21 19.5 -34t43.5 -13z" />
    <glyph glyph-name="seveneighths" unicode="&#x215e;" horiz-adv-x="865" 
d="M190 290h-126q17 191 159 362h-186v89h325v-57q-160 -202 -172 -394zM541 741h109l-414 -741h-108zM767 245q77 -42 77 -121q0 -56 -43.5 -93t-133.5 -37q-89 0 -130.5 37t-41.5 93q0 68 75 110q-62 39 -62 102q0 55 46.5 88.5t115.5 33.5t113.5 -33t44.5 -89
q0 -53 -61 -91zM618 333q0 -17 15 -28.5t45 -22.5q41 22 41 51q0 19 -15.5 28.5t-35.5 9.5q-19 0 -34.5 -10t-15.5 -28zM669 80q25 0 44 13t19 34t-18.5 35t-54.5 29q-53 -30 -53 -64q0 -21 19.5 -34t43.5 -13z" />
    <glyph glyph-name="partialdiff" unicode="&#x2202;" horiz-adv-x="556" 
d="M206 765q51 -44 89 -81t81 -88.5t71 -100t46.5 -108.5t18.5 -120q0 -74 -25.5 -136t-80 -102t-128.5 -40t-128.5 40t-80 102t-25.5 136q0 112 57.5 192t162.5 85q-60 67 -143 136zM278 92q27 0 46 17t28 46t12.5 56t3.5 56t-3.5 56t-12.5 55.5t-28 45.5t-46 17t-46 -17
t-27.5 -46t-12 -55.5t-3.5 -55.5t3.5 -56t12 -56t27.5 -46t46 -17z" />
    <glyph glyph-name="uni2206" unicode="&#x2206;" horiz-adv-x="618" 
d="M-10 0l236 741h162l240 -741h-638zM175 117h268l-132 468h-4z" />
    <glyph glyph-name="product" unicode="&#x220f;" horiz-adv-x="732" 
d="M95 -181v922h542v-922h-148v796h-245v-796h-149z" />
    <glyph glyph-name="summation" unicode="&#x2211;" horiz-adv-x="615" 
d="M223 -36h351v-126h-498v125l191 335l-191 317v126h480v-126h-324l175 -280v-52z" />
    <glyph glyph-name="minus" unicode="&#x2212;" 
d="M66 183v104h461v-104h-461z" />
    <glyph glyph-name="uni2215" unicode="&#x2215;" horiz-adv-x="169" 
d="M-148 0l376 741h89l-375 -741h-90z" />
    <glyph glyph-name="uni2219" unicode="&#x2219;" horiz-adv-x="277" 
d="M139 200q-35 0 -60.5 25.5t-25.5 60.5t25.5 60.5t60.5 25.5t60 -25.5t25 -60.5t-25.5 -60.5t-59.5 -25.5z" />
    <glyph glyph-name="radical" unicode="&#x221a;" 
d="M204 -156l-117 445h-87v89h170l97 -388h1l194 751h105l-242 -897h-121z" />
    <glyph glyph-name="infinity" unicode="&#x221e;" 
d="M171 160q-45 0 -79.5 30t-34.5 77q0 46 34.5 76t79.5 30q60 0 125 -68q33 34 60.5 51t63.5 17q48 0 81.5 -29t33.5 -75q0 -48 -35 -78.5t-80 -30.5q-61 0 -123 68q-26 -23 -41.5 -35.5t-38.5 -22.5t-46 -10zM178 223q23 0 72 44q-48 43 -72 43q-18 0 -31.5 -12.5
t-13.5 -29.5q0 -18 13 -31.5t32 -13.5zM414 223q18 0 31.5 13t13.5 31q0 17 -13 30t-32 13q-23 0 -71 -43q44 -44 71 -44z" />
    <glyph glyph-name="integral" unicode="&#x222b;" horiz-adv-x="593" 
d="M132 -182l-54 4v122q27 -9 57 -9q28 0 43 17.5t20 64.5l58 540q10 101 58 142.5t147 41.5l54 -4v-122q-27 9 -57 9q-28 0 -43 -17.5t-20 -64.5l-58 -540q-10 -101 -58 -142.5t-147 -41.5z" />
    <glyph glyph-name="approxequal" unicode="&#x2248;" 
d="M147 257h-81q-5 52 33 99t93 47q35 0 113.5 -17t99.5 -17q34 0 41 34h79q3 -54 -33.5 -100t-94.5 -46q-34 0 -112 18.5t-96 18.5q-17 0 -28.5 -11t-13.5 -26zM147 67h-81q-5 51 33 98t93 47q35 0 113.5 -17t99.5 -17q34 0 41 34h79q3 -53 -33.5 -99t-94.5 -46
q-34 0 -112 18.5t-96 18.5q-17 0 -28.5 -11t-13.5 -26z" />
    <glyph glyph-name="notequal" unicode="&#x2260;" horiz-adv-x="593" 
d="M527 298h-137l-74 -127h211v-103h-272l-57 -96h-113l57 96h-76v103h136l75 127h-211v104h272l56 95h114l-56 -95h75v-104z" />
    <glyph glyph-name="lessequal" unicode="&#x2264;" 
d="M527 136l-461 159v118l461 162v-103l-348 -117l348 -116v-103zM66 0v104h461v-104h-461z" />
    <glyph glyph-name="greaterequal" unicode="&#x2265;" 
d="M66 136v103l347 116l-347 117v103l461 -162v-118zM66 0v104h461v-104h-461z" />
    <glyph glyph-name="lozenge" unicode="&#x25ca;" horiz-adv-x="517" 
d="M221 -163l-198 459l198 460h71l202 -460l-202 -459h-71zM257 61h2l101 235l-101 237h-2l-98 -237z" />
    <glyph glyph-name="uni2713" unicode="&#x2713;" horiz-adv-x="645" 
d="M517 692l94 -57l-398 -585h-59l-120 254l104 42l62 -141z" />
    <glyph glyph-name="uni2764" unicode="&#x2764;" horiz-adv-x="1126" 
d="M152 -71v744l174 176v-746zM475 -71v744l174 176v-746zM801 -71v744l173 176v-746z" />
    <glyph glyph-name="NULL" horiz-adv-x="0" 
 />
    <glyph glyph-name="f.calt" horiz-adv-x="343" 
d="M94 0v416h-70v117h70v57q0 70 43 118t127 48q60 0 116 -25l-38 -107q-33 12 -54 12q-53 0 -53 -63v-40h101l-22 -117h-79v-416h-141z" />
    <glyph glyph-name="t.calt" horiz-adv-x="368" 
d="M253 -11q-81 0 -120.5 39.5t-39.5 125.5v262h-66v117h66v124l141 67v-191h110v-117h-110v-267q0 -53 51 -53q29 0 59 16v-110q-39 -13 -91 -13z" />
    <glyph glyph-name="f.calt2" horiz-adv-x="343" 
d="M94 0v416h-70v117h70v57q0 70 43 118t127 48q61 0 114 -24l-38 -107q-30 11 -53 11q-52 0 -52 -63v-40h116l-22 -117h-94v-416h-141z" />
    <glyph glyph-name="i.locl" horiz-adv-x="299" 
d="M149 591q-33 0 -57.5 24.5t-24.5 57.5q0 34 24.5 58t57.5 24q34 0 58 -24t24 -58q0 -33 -24 -57.5t-58 -24.5zM79 0v533h141v-533h-141z" />
    <glyph glyph-name="g.ss01" 
d="M266 -190q-154 0 -220 107l103 73q38 -63 117 -63q44 0 75 24.5t31 70.5v50q-39 -26 -64.5 -35.5t-59.5 -9.5q-88 0 -145 59.5t-57 199.5q0 63 13.5 111.5t33.5 75.5t48 44t53.5 22.5t53.5 5.5q77 0 140 -56l12 44h113v-492q0 -30 -6.5 -59.5t-24 -61t-44.5 -55.5
t-71.5 -39.5t-100.5 -15.5zM288 141q42 0 84 36v205q-30 40 -83 40q-105 0 -105 -138q0 -62 24 -102.5t80 -40.5z" />
    <glyph glyph-name="gbreve.ss01" 
d="M282 596q-70 0 -116 37.5t-50 107.5h88q4 -29 26.5 -44.5t51.5 -15.5q30 0 52.5 15.5t25.5 44.5h89q-5 -71 -50.5 -108t-116.5 -37zM266 -190q-154 0 -220 107l103 73q38 -63 117 -63q44 0 75 24.5t31 70.5v50q-39 -26 -64.5 -35.5t-59.5 -9.5q-88 0 -145 59.5t-57 199.5
q0 63 13.5 111.5t33.5 75.5t48 44t53.5 22.5t53.5 5.5q77 0 140 -56l12 44h113v-492q0 -30 -6.5 -59.5t-24 -61t-44.5 -55.5t-71.5 -39.5t-100.5 -15.5zM288 141q42 0 84 36v205q-30 40 -83 40q-105 0 -105 -138q0 -62 24 -102.5t80 -40.5z" />
    <glyph glyph-name="gcircumflex.ss01" 
d="M121 604l94 137h134l94 -137h-102l-59 80l-57 -80h-104zM266 -190q-154 0 -220 107l103 73q38 -63 117 -63q44 0 75 24.5t31 70.5v50q-39 -26 -64.5 -35.5t-59.5 -9.5q-88 0 -145 59.5t-57 199.5q0 63 13.5 111.5t33.5 75.5t48 44t53.5 22.5t53.5 5.5q77 0 140 -56l12 44
h113v-492q0 -30 -6.5 -59.5t-24 -61t-44.5 -55.5t-71.5 -39.5t-100.5 -15.5zM288 141q42 0 84 36v205q-30 40 -83 40q-105 0 -105 -138q0 -62 24 -102.5t80 -40.5z" />
    <glyph glyph-name="uni0123.ss01" 
d="M211 604l98 137h93l-56 -137h-135zM266 -190q-154 0 -220 107l103 73q38 -63 117 -63q44 0 75 24.5t31 70.5v50q-39 -26 -64.5 -35.5t-59.5 -9.5q-88 0 -145 59.5t-57 199.5q0 63 13.5 111.5t33.5 75.5t48 44t53.5 22.5t53.5 5.5q77 0 140 -56l12 44h113v-492
q0 -30 -6.5 -59.5t-24 -61t-44.5 -55.5t-71.5 -39.5t-100.5 -15.5zM288 141q42 0 84 36v205q-30 40 -83 40q-105 0 -105 -138q0 -62 24 -102.5t80 -40.5z" />
    <glyph glyph-name="gdotaccent.ss01" 
d="M282 594q-32 0 -55 23t-23 55t23 55t55 23t55 -23t23 -55t-23 -55t-55 -23zM266 -190q-154 0 -220 107l103 73q38 -63 117 -63q44 0 75 24.5t31 70.5v50q-39 -26 -64.5 -35.5t-59.5 -9.5q-88 0 -145 59.5t-57 199.5q0 63 13.5 111.5t33.5 75.5t48 44t53.5 22.5t53.5 5.5
q77 0 140 -56l12 44h113v-492q0 -30 -6.5 -59.5t-24 -61t-44.5 -55.5t-71.5 -39.5t-100.5 -15.5zM288 141q42 0 84 36v205q-30 40 -83 40q-105 0 -105 -138q0 -62 24 -102.5t80 -40.5z" />
    <glyph glyph-name="T_h" horiz-adv-x="1011" 
d="M792 545q56 0 99 -39t43 -128v-378h-141v327q0 24 -1.5 39.5t-7 31.5t-17.5 24t-31 8q-42 0 -101 -54v-376h-141v615h-145v-615h-149v615h-192v126h533l94 38v-301q81 67 157 67z" />
    <glyph glyph-name="zero.lf" 
d="M296 -11q-116 0 -195.5 92t-79.5 283t73.5 289.5t201.5 98.5q129 0 202 -98.5t73 -289.5t-79.5 -283t-195.5 -92zM296 110q35 0 61 18.5t38.5 44t20 64t9 65.5t1.5 62q0 31 -1 52t-4 56.5t-12 59.5t-22.5 49t-36.5 37.5t-54 12.5q-26 0 -47 -10.5t-34 -26t-23 -40.5
t-14.5 -46.5t-7 -52t-3 -48t-0.5 -43.5q0 -29 1 -50.5t4.5 -54.5t12.5 -56.5t22.5 -46t36 -34.5t52.5 -12z" />
    <glyph glyph-name="one.lf" horiz-adv-x="450" 
d="M184 0v559q-49 -45 -128 -63l-31 106q140 34 201 139h106v-741h-148z" />
    <glyph glyph-name="two.lf" 
d="M52 0v124q29 54 75.5 106.5t90 90.5t83.5 75t64.5 74t24.5 73q0 39 -25 65.5t-64 26.5q-56 0 -84.5 -46.5t-19.5 -111.5l-138 49q-5 104 64.5 165t176.5 61q120 0 181.5 -61.5t61.5 -154.5q0 -54 -25 -102t-65 -85.5t-82.5 -71t-87 -73.5t-68.5 -78h326v-126h-489z" />
    <glyph glyph-name="three.lf" 
d="M290 -15q-96 0 -169 53t-89 147l138 48q3 -60 36 -95.5t88 -35.5q43 0 74.5 32.5t31.5 76.5q0 122 -143 122q-25 0 -52 -3v115q33 -7 56 -7q55 0 90.5 27t35.5 81q0 39 -26.5 64t-67.5 25q-42 0 -73 -33.5t-33 -79.5l-129 63q24 76 91.5 121.5t151.5 45.5q91 0 161 -55
t70 -146q0 -57 -28 -93.5t-84 -64.5q58 -22 92 -67t34 -106q0 -105 -76 -170t-180 -65z" />
    <glyph glyph-name="four.lf" 
d="M321 0v172h-291v108l266 461h174v-451h92v-118h-92v-172h-149zM175 290h146v263h-2z" />
    <glyph glyph-name="five.lf" 
d="M282 -15q-85 0 -152.5 45.5t-87.5 132.5l133 61q5 -56 35.5 -89t76.5 -33q52 0 84 42t32 101q0 57 -30.5 99.5t-84.5 42.5q-37 0 -65 -20.5t-37 -54.5l-129 31l12 398h414v-126h-293l-4 -158q62 55 143 55q102 0 164 -75t62 -179q0 -117 -79 -195t-194 -78z" />
    <glyph glyph-name="six.lf" 
d="M311 -15q-54 0 -102 21.5t-87.5 65t-62.5 118.5t-23 174q0 189 81 288.5t205 99.5q141 0 206 -113l-98 -98q-33 86 -106 86q-43 0 -74 -30t-43.5 -70t-11.5 -81q79 43 137 43q81 0 152.5 -62.5t71.5 -176.5q0 -64 -24 -116.5t-61.5 -84t-79 -48t-80.5 -16.5zM301 110
q53 0 81 38t28 94q0 48 -26 84.5t-73 36.5q-58 0 -121 -56q0 -31 4.5 -62t16 -63t34.5 -52t56 -20z" />
    <glyph glyph-name="seven.lf" 
d="M108 0q25 319 262 615h-306v126h481v-81q-118 -160 -190 -332.5t-79 -327.5h-168z" />
    <glyph glyph-name="eight.lf" 
d="M425 390q61 -34 95.5 -78.5t34.5 -112.5q0 -83 -69 -148.5t-192 -65.5q-121 0 -189 64t-68 141q0 119 128 193q-106 65 -106 173q0 86 66.5 141t169.5 55q101 0 168 -52t67 -134q0 -108 -105 -176zM201 556q0 -35 25 -59.5t72 -47.5q44 24 67.5 48.5t23.5 58.5
q0 33 -26.5 53.5t-67.5 20.5t-67.5 -20.5t-26.5 -53.5zM296 107q55 0 84.5 24t29.5 68q0 42 -30 68.5t-88 53.5q-53 -26 -81 -54t-28 -68q0 -42 32 -67t81 -25z" />
    <glyph glyph-name="nine.lf" 
d="M270 -15q-72 0 -129.5 35t-94.5 94l115 76q16 -34 44 -57t64 -23q62 0 96 59.5t32 125.5q-76 -43 -137 -43q-36 0 -73.5 14t-72 41.5t-56.5 75t-22 107.5q0 52 16 96t42 74t58.5 51.5t65.5 31t63 9.5q54 0 102 -21t87.5 -63.5t62.5 -117.5t23 -173q0 -190 -81 -291
t-205 -101zM281 378q60 0 121 56q1 43 -6.5 83.5t-34.5 75t-70 34.5q-53 0 -81 -37t-28 -93q0 -48 26 -83.5t73 -35.5z" />
    <glyph glyph-name="zero.osf" horiz-adv-x="530" 
d="M265 -11q-114 0 -179 79t-65 208q0 131 64.5 209.5t179.5 78.5t179.5 -78.5t64.5 -209.5q0 -129 -65 -208t-179 -79zM265 92q36 0 59 28t31.5 67t8.5 89q0 51 -8.5 90t-31.5 66.5t-59 27.5t-59 -27.5t-31.5 -66.5t-8.5 -90q0 -50 8.5 -89t31.5 -67t59 -28z" />
    <glyph glyph-name="one.osf" horiz-adv-x="469" 
d="M68 0v114h129v247q-29 -26 -107 -53l-29 106q134 46 180 127h97v-427h113v-114h-383z" />
    <glyph glyph-name="two.osf" horiz-adv-x="535" 
d="M52 0v115q29 41 71.5 76.5t79.5 58t70.5 44t53.5 46t20 52.5q0 31 -20 48.5t-51 17.5q-45 0 -68.5 -36t-15.5 -84l-132 52q-4 74 57.5 123t165.5 49q100 0 151.5 -47t51.5 -126q0 -46 -18.5 -80.5t-50 -57.5t-65.5 -41.5t-73 -42.5t-64 -50h269v-117h-432z" />
    <glyph glyph-name="three.osf" horiz-adv-x="561" 
d="M274 -192q-97 0 -161.5 46.5t-80.5 139.5l132 49q8 -123 115 -123q43 0 69.5 31t26.5 76q0 118 -122 118q-29 0 -54 -4v115q24 -6 57 -6q106 0 106 103q0 42 -20 66.5t-59 24.5q-43 0 -71.5 -29.5t-30.5 -75.5l-123 63q23 75 84.5 114.5t146.5 39.5q90 0 151.5 -49
t61.5 -139q0 -59 -26.5 -97.5t-80.5 -65.5q120 -48 120 -170q0 -105 -68.5 -166t-172.5 -61z" />
    <glyph glyph-name="four.osf" horiz-adv-x="582" 
d="M324 -196v196h-294v108l269 437h161v-428h92v-117h-92v-196h-136zM169 117h155v252h-2z" />
    <glyph glyph-name="five.osf" horiz-adv-x="557" 
d="M266 -197q-84 0 -144 42.5t-80 130.5l127 61q5 -57 31 -89.5t70 -32.5q52 0 79.5 41t27.5 102q0 60 -26 101t-80 41q-72 0 -92 -74l-124 30l14 389h388v-117h-273l-5 -163q62 55 133 55q101 0 154.5 -71.5t53.5 -177.5q0 -118 -70.5 -193t-183.5 -75z" />
    <glyph glyph-name="six.osf" 
d="M311 -15q-54 0 -102 21.5t-87.5 65t-62.5 118.5t-23 174q0 189 81 288.5t205 99.5q141 0 206 -113l-98 -98q-33 86 -106 86q-43 0 -74 -30t-43.5 -70t-11.5 -81q79 43 137 43q81 0 152.5 -62.5t71.5 -176.5q0 -64 -24 -116.5t-61.5 -84t-79 -48t-80.5 -16.5zM301 110
q53 0 81 38t28 94q0 48 -26 84.5t-73 36.5q-58 0 -121 -56q0 -31 4.5 -62t16 -63t34.5 -52t56 -20z" />
    <glyph glyph-name="seven.osf" horiz-adv-x="573" 
d="M98 -196q25 136 98 305.5t162 309.5h-294v126h462v-81q-222 -352 -277 -660h-151z" />
    <glyph glyph-name="eight.osf" 
d="M425 390q61 -34 95.5 -78.5t34.5 -112.5q0 -83 -69 -148.5t-192 -65.5q-121 0 -189 64t-68 141q0 119 128 193q-106 65 -106 173q0 86 66.5 141t169.5 55q101 0 168 -52t67 -134q0 -108 -105 -176zM201 556q0 -35 25 -59.5t72 -47.5q44 24 67.5 48.5t23.5 58.5
q0 33 -26.5 53.5t-67.5 20.5t-67.5 -20.5t-26.5 -53.5zM296 107q55 0 84.5 24t29.5 68q0 42 -30 68.5t-88 53.5q-53 -26 -81 -54t-28 -68q0 -42 32 -67t81 -25z" />
    <glyph glyph-name="nine.osf" horiz-adv-x="572" 
d="M260 -210q-133 0 -212 127l110 73q37 -79 100 -79q65 0 94.5 55t29.5 139q-76 -48 -132 -48q-36 0 -72.5 14t-69 41t-52.5 74t-20 107q0 64 22.5 116.5t58 83t75.5 47t78 16.5q55 0 101 -21t84 -64t59.5 -117.5t21.5 -173.5q0 -191 -76.5 -290.5t-199.5 -99.5zM270 178
q61 0 119 58q1 34 -2.5 64.5t-14 63.5t-33.5 52.5t-57 19.5q-55 0 -80.5 -38t-25.5 -97q0 -50 23.5 -86.5t70.5 -36.5z" />
    <glyph glyph-name="zero.tosf" 
d="M296 -11q-114 0 -179 79t-65 208q0 131 64.5 209.5t179.5 78.5t179.5 -78.5t64.5 -209.5q0 -129 -65 -208t-179 -79zM296 92q36 0 59 28t31.5 67t8.5 89q0 51 -8.5 90t-31.5 66.5t-59 27.5t-59 -27.5t-31.5 -66.5t-8.5 -90q0 -50 8.5 -89t31.5 -67t59 -28z" />
    <glyph glyph-name="one.tosf" 
d="M123 0v114h129v247q-29 -26 -107 -53l-29 106q134 46 180 127h97v-427h113v-114h-383z" />
    <glyph glyph-name="two.tosf" 
d="M78 0v115q29 41 71.5 76.5t79.5 58t70.5 44t53.5 46t20 52.5q0 31 -20 48.5t-51 17.5q-45 0 -68.5 -36t-15.5 -84l-132 52q-4 74 57.5 123t165.5 49q100 0 151.5 -47t51.5 -126q0 -46 -18.5 -80.5t-50 -57.5t-65.5 -41.5t-73 -42.5t-64 -50h269v-117h-432z" />
    <glyph glyph-name="three.tosf" 
d="M269 -192q-97 0 -161.5 46.5t-80.5 139.5l132 49q8 -123 115 -123q43 0 69.5 31t26.5 76q0 118 -122 118q-29 0 -54 -4v115q24 -6 57 -6q106 0 106 103q0 42 -20 66.5t-59 24.5q-43 0 -71.5 -29.5t-30.5 -75.5l-123 63q23 75 84.5 114.5t146.5 39.5q90 0 151.5 -49
t61.5 -139q0 -59 -26.5 -97.5t-80.5 -65.5q120 -48 120 -170q0 -105 -68.5 -166t-172.5 -61z" />
    <glyph glyph-name="four.tosf" 
d="M340 -196v196h-294v108l269 437h161v-428h92v-117h-92v-196h-136zM185 117h155v252h-2z" />
    <glyph glyph-name="five.tosf" 
d="M283 -197q-84 0 -144 42.5t-80 130.5l127 61q5 -57 31 -89.5t70 -32.5q52 0 79.5 41t27.5 102q0 60 -26 101t-80 41q-72 0 -92 -74l-124 30l14 389h388v-117h-273l-5 -163q62 55 133 55q101 0 154.5 -71.5t53.5 -177.5q0 -118 -70.5 -193t-183.5 -75z" />
    <glyph glyph-name="six.tosf" 
d="M311 -15q-54 0 -102 21.5t-87.5 65t-62.5 118.5t-23 174q0 189 81 288.5t205 99.5q141 0 206 -113l-98 -98q-33 86 -106 86q-43 0 -74 -30t-43.5 -70t-11.5 -81q79 43 137 43q81 0 152.5 -62.5t71.5 -176.5q0 -64 -24 -116.5t-61.5 -84t-79 -48t-80.5 -16.5zM301 110
q53 0 81 38t28 94q0 48 -26 84.5t-73 36.5q-58 0 -121 -56q0 -31 4.5 -62t16 -63t34.5 -52t56 -20z" />
    <glyph glyph-name="seven.tosf" 
d="M97 -196q25 136 98 305.5t162 309.5h-294v126h462v-81q-222 -352 -277 -660h-151z" />
    <glyph glyph-name="eight.tosf" 
d="M425 390q61 -34 95.5 -78.5t34.5 -112.5q0 -83 -69 -148.5t-192 -65.5q-121 0 -189 64t-68 141q0 119 128 193q-106 65 -106 173q0 86 66.5 141t169.5 55q101 0 168 -52t67 -134q0 -108 -105 -176zM201 556q0 -35 25 -59.5t72 -47.5q44 24 67.5 48.5t23.5 58.5
q0 33 -26.5 53.5t-67.5 20.5t-67.5 -20.5t-26.5 -53.5zM296 107q55 0 84.5 24t29.5 68q0 42 -30 68.5t-88 53.5q-53 -26 -81 -54t-28 -68q0 -42 32 -67t81 -25z" />
    <glyph glyph-name="nine.tosf" 
d="M260 -210q-133 0 -212 127l110 73q37 -79 100 -79q65 0 94.5 55t29.5 139q-76 -48 -132 -48q-36 0 -72.5 14t-69 41t-52.5 74t-20 107q0 64 22.5 116.5t58 83t75.5 47t78 16.5q55 0 101 -21t84 -64t59.5 -117.5t21.5 -173.5q0 -191 -76.5 -290.5t-199.5 -99.5zM270 178
q61 0 119 58q1 34 -2.5 64.5t-14 63.5t-33.5 52.5t-57 19.5q-55 0 -80.5 -38t-25.5 -97q0 -50 23.5 -86.5t70.5 -36.5z" />
    <glyph glyph-name="zero.dnom" horiz-adv-x="390" 
d="M195 -6q-78 0 -131.5 56t-53.5 171q0 116 49.5 176.5t135.5 60.5q87 0 136 -60t49 -177q0 -115 -53.5 -171t-131.5 -56zM195 80q74 0 74 141q0 151 -74 151q-25 0 -41 -15t-22 -43t-7.5 -46.5t-1.5 -46.5q0 -141 72 -141z" />
    <glyph glyph-name="one.dnom" horiz-adv-x="390" 
d="M65 0v84h80v236q-35 -22 -81 -29l-19 76q92 22 128 84h84v-367h79v-84h-271z" />
    <glyph glyph-name="two.dnom" horiz-adv-x="390" 
d="M31 0v82q14 40 51.5 76t72.5 58t63 51.5t28 59.5q0 20 -13.5 33.5t-34.5 13.5q-31 0 -45.5 -28.5t-7.5 -68.5l-110 34q-2 68 44.5 107.5t118.5 39.5q80 0 121.5 -38.5t41.5 -96.5q0 -43 -29 -81.5t-64 -61.5t-68.5 -48.5t-39.5 -42.5h200v-89h-329z" />
    <glyph glyph-name="three.dnom" horiz-adv-x="390" 
d="M196 -6q-66 0 -115 33t-59 93l102 33q2 -36 23 -55.5t51 -19.5q25 0 42 15.5t17 41.5q0 30 -23.5 46t-61.5 16q-16 0 -32 -2v81q20 -3 37 -3q31 0 51.5 14t20.5 40q0 23 -15.5 35t-37.5 12q-25 0 -44 -17.5t-23 -46.5l-92 41q16 49 62.5 78t103.5 29q62 0 109.5 -35
t47.5 -94q0 -58 -63 -89q72 -34 72 -103q0 -64 -51 -103.5t-122 -39.5z" />
    <glyph glyph-name="four.dnom" horiz-adv-x="390" 
d="M205 0v102h-189v72l175 277h122v-266h59v-83h-59v-102h-108zM119 185h86v138h-1z" />
    <glyph glyph-name="five.dnom" horiz-adv-x="390" 
d="M181 -6q-57 0 -103 29.5t-59 86.5l105 38q6 -69 62 -69q29 0 46.5 22t17.5 54q0 30 -17.5 52.5t-47.5 22.5q-20 0 -36 -13t-21 -33l-99 22l9 245h281v-89h-186l-3 -64q39 21 81 21q69 0 111.5 -46.5t42.5 -110.5q0 -72 -53 -120t-131 -48z" />
    <glyph glyph-name="six.dnom" horiz-adv-x="390" 
d="M201 -6q-78 0 -131.5 56t-53.5 171t54.5 176t137.5 61q92 0 142 -76l-69 -62q-35 49 -72 49q-31 0 -50.5 -26t-23.5 -60q40 19 78 19q56 0 104.5 -37.5t48.5 -108.5q0 -76 -53.5 -119t-111.5 -43zM193 82q30 0 45.5 20t15.5 50q0 24 -14.5 43t-38.5 19q-35 0 -70 -28
q-1 -38 13.5 -71t48.5 -33z" />
    <glyph glyph-name="seven.dnom" horiz-adv-x="390" 
d="M64 0q17 191 159 362h-186v89h325v-57q-160 -202 -172 -394h-126z" />
    <glyph glyph-name="eight.dnom" horiz-adv-x="391" 
d="M293 245q77 -42 77 -121q0 -56 -43.5 -93t-133.5 -37q-89 0 -130.5 37t-41.5 93q0 68 75 110q-62 39 -62 102q0 55 46.5 88.5t115.5 33.5t113.5 -33t44.5 -89q0 -53 -61 -91zM144 333q0 -17 15 -28.5t45 -22.5q41 22 41 51q0 19 -15.5 28.5t-35.5 9.5q-19 0 -34.5 -10
t-15.5 -28zM195 80q25 0 44 13t19 34t-18.5 35t-54.5 29q-53 -30 -53 -64q0 -21 19.5 -34t43.5 -13z" />
    <glyph glyph-name="nine.dnom" horiz-adv-x="390" 
d="M181 -6q-98 0 -156 85l84 55q10 -22 29 -37t40 -15q31 0 51 25t22 60q-41 -18 -77 -18q-56 0 -104 38t-48 110q0 76 53.5 118.5t117.5 42.5q72 0 125 -57t53 -171t-54 -175t-136 -61zM189 238q39 0 65 22q2 109 -63 109q-27 0 -43 -19t-16 -48q0 -26 15 -45t42 -19z" />
    <glyph glyph-name="zero.numr" horiz-adv-x="390" 
d="M195 284q-78 0 -131.5 56t-53.5 171q0 116 49.5 176.5t135.5 60.5q87 0 136 -60t49 -177q0 -115 -53.5 -171t-131.5 -56zM195 370q74 0 74 141q0 151 -74 151q-25 0 -41 -15t-22 -43t-7.5 -46.5t-1.5 -46.5q0 -141 72 -141z" />
    <glyph glyph-name="one.numr" horiz-adv-x="390" 
d="M65 290v84h80v236q-35 -22 -81 -29l-19 76q92 22 128 84h84v-367h79v-84h-271z" />
    <glyph glyph-name="two.numr" horiz-adv-x="390" 
d="M31 290v82q14 40 51.5 76t72.5 58t63 51.5t28 59.5q0 20 -13.5 33.5t-34.5 13.5q-31 0 -45.5 -28.5t-7.5 -68.5l-110 34q-2 68 44.5 107.5t118.5 39.5q80 0 121.5 -38.5t41.5 -96.5q0 -43 -29 -81.5t-64 -61.5t-68.5 -48.5t-39.5 -42.5h200v-89h-329z" />
    <glyph glyph-name="three.numr" horiz-adv-x="390" 
d="M196 284q-66 0 -115 33t-59 93l102 33q2 -36 23 -55.5t51 -19.5q25 0 42 15.5t17 41.5q0 30 -23.5 46t-61.5 16q-16 0 -32 -2v81q20 -3 37 -3q31 0 51.5 14t20.5 40q0 23 -15.5 35t-37.5 12q-25 0 -44 -17.5t-23 -46.5l-92 41q16 49 62.5 78t103.5 29q62 0 109.5 -35
t47.5 -94q0 -58 -63 -89q72 -34 72 -103q0 -64 -51 -103.5t-122 -39.5z" />
    <glyph glyph-name="four.numr" horiz-adv-x="390" 
d="M205 290v102h-189v72l175 277h122v-266h59v-83h-59v-102h-108zM119 475h86v138h-1z" />
    <glyph glyph-name="five.numr" horiz-adv-x="390" 
d="M181 284q-57 0 -103 29.5t-59 86.5l105 38q6 -69 62 -69q29 0 46.5 22t17.5 54q0 30 -17.5 52.5t-47.5 22.5q-20 0 -36 -13t-21 -33l-99 22l9 245h281v-89h-186l-3 -64q39 21 81 21q69 0 111.5 -46.5t42.5 -110.5q0 -72 -53 -120t-131 -48z" />
    <glyph glyph-name="six.numr" horiz-adv-x="390" 
d="M201 284q-78 0 -131.5 56t-53.5 171t54.5 176t137.5 61q92 0 142 -76l-69 -62q-35 49 -72 49q-31 0 -50.5 -26t-23.5 -60q40 19 78 19q56 0 104.5 -37.5t48.5 -108.5q0 -76 -53.5 -119t-111.5 -43zM193 372q30 0 45.5 20t15.5 50q0 24 -14.5 43t-38.5 19q-35 0 -70 -28
q-1 -38 13.5 -71t48.5 -33z" />
    <glyph glyph-name="seven.numr" horiz-adv-x="390" 
d="M64 290q17 191 159 362h-186v89h325v-57q-160 -202 -172 -394h-126z" />
    <glyph glyph-name="eight.numr" horiz-adv-x="391" 
d="M293 535q77 -42 77 -121q0 -56 -43.5 -93t-133.5 -37q-89 0 -130.5 37t-41.5 93q0 68 75 110q-62 39 -62 102q0 55 46.5 88.5t115.5 33.5t113.5 -33t44.5 -89q0 -53 -61 -91zM144 623q0 -17 15 -28.5t45 -22.5q41 22 41 51q0 19 -15.5 28.5t-35.5 9.5q-19 0 -34.5 -10
t-15.5 -28zM195 370q25 0 44 13t19 34t-18.5 35t-54.5 29q-53 -30 -53 -64q0 -21 19.5 -34t43.5 -13z" />
    <glyph glyph-name="nine.numr" horiz-adv-x="390" 
d="M181 284q-98 0 -156 85l84 55q10 -22 29 -37t40 -15q31 0 51 25t22 60q-41 -18 -77 -18q-56 0 -104 38t-48 110q0 76 53.5 118.5t117.5 42.5q72 0 125 -57t53 -171t-54 -175t-136 -61zM189 528q39 0 65 22q2 109 -63 109q-27 0 -43 -19t-16 -48q0 -26 15 -45t42 -19z" />
    <glyph glyph-name="two_fraction_seven" horiz-adv-x="1004" 
d="M31 290v82q14 40 51.5 76t72.5 58t63 51.5t28 59.5q0 20 -13.5 33.5t-34.5 13.5q-31 0 -45.5 -28.5t-7.5 -68.5l-110 34q-2 68 44.5 107.5t118.5 39.5q80 0 121.5 -38.5t41.5 -96.5q0 -43 -29 -81.5t-64 -61.5t-68.5 -48.5t-39.5 -42.5h200v-89h-329zM241 0l413 741h109
l-414 -741h-108zM678 0q17 191 159 362h-186v89h325v-57q-160 -202 -172 -394h-126z" />
    <glyph glyph-name="three_fraction_seven" horiz-adv-x="977" 
d="M196 284q-66 0 -115 33t-59 93l102 33q2 -36 23 -55.5t51 -19.5q25 0 42 15.5t17 41.5q0 30 -23.5 46t-61.5 16q-16 0 -32 -2v81q20 -3 37 -3q31 0 51.5 14t20.5 40q0 23 -15.5 35t-37.5 12q-25 0 -44 -17.5t-23 -46.5l-92 41q16 49 62.5 78t103.5 29q62 0 109.5 -35
t47.5 -94q0 -58 -63 -89q72 -34 72 -103q0 -64 -51 -103.5t-122 -39.5zM214 0l413 741h109l-414 -741h-108zM651 0q17 191 159 362h-186v89h325v-57q-160 -202 -172 -394h-126z" />
    <glyph glyph-name="four_fraction_seven" horiz-adv-x="977" 
d="M205 290v102h-189v72l175 277h122v-266h59v-83h-59v-102h-108zM214 0l413 741h109l-414 -741h-108zM119 475h86v138h-1zM651 0q17 191 159 362h-186v89h325v-57q-160 -202 -172 -394h-126z" />
    <glyph glyph-name="five_fraction_seven" horiz-adv-x="977" 
d="M181 284q-57 0 -103 29.5t-59 86.5l105 38q6 -69 62 -69q29 0 46.5 22t17.5 54q0 30 -17.5 52.5t-47.5 22.5q-20 0 -36 -13t-21 -33l-99 22l9 245h281v-89h-186l-3 -64q39 21 81 21q69 0 111.5 -46.5t42.5 -110.5q0 -72 -53 -120t-131 -48zM214 0l413 741h109l-414 -741
h-108zM651 0q17 191 159 362h-186v89h325v-57q-160 -202 -172 -394h-126z" />
    <glyph glyph-name="six_fraction_seven" horiz-adv-x="977" 
d="M201 284q-78 0 -131.5 56t-53.5 171t54.5 176t137.5 61q92 0 142 -76l-69 -62q-35 49 -72 49q-31 0 -50.5 -26t-23.5 -60q40 19 78 19q56 0 104.5 -37.5t48.5 -108.5q0 -76 -53.5 -119t-111.5 -43zM214 0l413 741h109l-414 -741h-108zM193 372q30 0 45.5 20t15.5 50
q0 24 -14.5 43t-38.5 19q-35 0 -70 -28q-1 -38 13.5 -71t48.5 -33zM651 0q17 191 159 362h-186v89h325v-57q-160 -202 -172 -394h-126z" />
    <glyph glyph-name="two_fraction_nine" horiz-adv-x="977" 
d="M31 290v82q14 40 51.5 76t72.5 58t63 51.5t28 59.5q0 20 -13.5 33.5t-34.5 13.5q-31 0 -45.5 -28.5t-7.5 -68.5l-110 34q-2 68 44.5 107.5t118.5 39.5q80 0 121.5 -38.5t41.5 -96.5q0 -43 -29 -81.5t-64 -61.5t-68.5 -48.5t-39.5 -42.5h200v-89h-329zM241 0l413 741h109
l-414 -741h-108zM768 -6q-98 0 -156 85l84 55q10 -22 29 -37t40 -15q31 0 51 25t22 60q-41 -18 -77 -18q-56 0 -104 38t-48 110q0 76 53.5 118.5t117.5 42.5q72 0 125 -57t53 -171t-54 -175t-136 -61zM776 238q39 0 65 22q2 109 -63 109q-27 0 -43 -19t-16 -48
q0 -26 14.5 -45t42.5 -19z" />
    <glyph glyph-name="four_fraction_nine" horiz-adv-x="950" 
d="M205 290v102h-189v72l175 277h122v-266h59v-83h-59v-102h-108zM214 0l413 741h109l-414 -741h-108zM119 475h86v138h-1zM741 -6q-98 0 -156 85l84 55q10 -22 29 -37t40 -15q31 0 51 25t22 60q-41 -18 -77 -18q-56 0 -104 38t-48 110q0 76 53.5 118.5t117.5 42.5
q72 0 125 -57t53 -171t-54 -175t-136 -61zM749 238q39 0 65 22q2 109 -63 109q-27 0 -43 -19t-16 -48q0 -26 15 -45t42 -19z" />
    <glyph glyph-name="five_fraction_nine" horiz-adv-x="950" 
d="M181 284q-57 0 -103 29.5t-59 86.5l105 38q6 -69 62 -69q29 0 46.5 22t17.5 54q0 30 -17.5 52.5t-47.5 22.5q-20 0 -36 -13t-21 -33l-99 22l9 245h281v-89h-186l-3 -64q39 21 81 21q69 0 111.5 -46.5t42.5 -110.5q0 -72 -53 -120t-131 -48zM214 0l413 741h109l-414 -741
h-108zM741 -6q-98 0 -156 85l84 55q10 -22 29 -37t40 -15q31 0 51 25t22 60q-41 -18 -77 -18q-56 0 -104 38t-48 110q0 76 53.5 118.5t117.5 42.5q72 0 125 -57t53 -171t-54 -175t-136 -61zM749 238q39 0 65 22q2 109 -63 109q-27 0 -43 -19t-16 -48q0 -26 15 -45t42 -19z
" />
    <glyph glyph-name="seven_fraction_nine" horiz-adv-x="864" 
d="M64 290q17 191 159 362h-186v89h325v-57q-160 -202 -172 -394h-126zM128 0l413 741h109l-414 -741h-108zM655 -6q-98 0 -156 85l84 55q10 -22 29 -37t40 -15q31 0 51 25t22 60q-41 -18 -77 -18q-56 0 -104 38t-48 110q0 76 53.5 118.5t117.5 42.5q72 0 125 -57t53 -171
t-54 -175t-136 -61zM663 238q39 0 65 22q2 109 -63 109q-27 0 -43 -19t-16 -48q0 -26 15 -45t42 -19z" />
    <glyph glyph-name="eight_fraction_nine" horiz-adv-x="951" 
d="M370 414q0 -56 -43.5 -93t-133.5 -37q-89 0 -130.5 37t-41.5 93q0 68 75 110q-62 39 -62 102q0 55 46.5 88.5t115.5 33.5t113.5 -33t44.5 -89q0 -53 -61 -91q77 -42 77 -121zM628 741h109l-414 -741h-108zM144 623q0 -17 15 -28.5t45 -22.5q41 22 41 51q0 19 -15.5 28.5
t-35.5 9.5q-19 0 -34.5 -10t-15.5 -28zM195 370q25 0 44 13t19 34t-18.5 35t-54.5 29q-53 -30 -53 -64q0 -21 19.5 -34t43.5 -13zM754 458q72 0 125 -57t53 -171t-54 -175t-136 -61q-98 0 -156 85l84 55q10 -22 29 -37t40 -15q31 0 51 25t22 60q-41 -18 -77 -18
q-56 0 -104 38t-48 110q0 76 53.5 118.5t117.5 42.5zM815 260q2 109 -63 109q-27 0 -43 -19t-16 -48q0 -26 14.5 -45t42.5 -19q39 0 65 22z" />
    <glyph glyph-name="colon.calt" horiz-adv-x="277" 
d="M139 441q-35 0 -60.5 25.5t-25.5 60.5t25.5 60.5t60.5 25.5t60 -25.5t25 -60.5t-25.5 -60.5t-59.5 -25.5zM139 114q-35 0 -60.5 25.5t-25.5 60.5t25.5 60.5t60.5 25.5t60 -25.5t25 -60.5t-25.5 -60.5t-59.5 -25.5z" />
    <glyph glyph-name="exclamdown.case" horiz-adv-x="335" 
d="M168 751q34 0 59.5 -25.5t25.5 -60.5t-25 -60.5t-60 -25.5t-60.5 25.5t-25.5 60.5t25.5 60.5t60.5 25.5zM110 515h117l22 -515h-161z" />
    <glyph glyph-name="questiondown.case" horiz-adv-x="456" 
d="M265 753q34 0 59.5 -25.5t25.5 -60.5t-25 -60.5t-60 -25.5t-60.5 25.5t-25.5 60.5t25.5 60.5t60.5 25.5zM327 517v-31q0 -55 -26 -105t-57 -80.5t-57 -67.5t-26 -69q0 -23 16.5 -39.5t39.5 -16.5q35 0 60.5 25t29.5 67l106 -67q-16 -65 -70 -103.5t-121 -38.5
q-83 0 -136 42.5t-53 123.5q0 47 17 84t41.5 62t49.5 50t42 62t17 85v17h127z" />
    <glyph glyph-name="bullet.ss02" horiz-adv-x="438" 
d="M218 232q-56 0 -96 40.5t-40 96.5q0 57 40 97.5t96 40.5q57 0 97.5 -40.5t40.5 -97.5q0 -56 -40.5 -96.5t-97.5 -40.5z" />
    <glyph glyph-name="parenleft.case" horiz-adv-x="313" 
d="M260 -135q-93 65 -156 196t-63 295q0 165 63.5 296t155.5 194l50 -79q-71 -59 -115.5 -164.5t-44.5 -245.5q0 -143 45.5 -250t115.5 -161z" />
    <glyph glyph-name="parenright.case" horiz-adv-x="313" 
d="M53 845q93 -65 156 -196t63 -295q0 -165 -63.5 -296t-155.5 -194l-50 79q71 59 115.5 164.5t44.5 245.5q0 143 -45.5 250t-115.5 161z" />
    <glyph glyph-name="braceleft.case" horiz-adv-x="323" 
d="M249 -125q-137 0 -137 164v166q0 39 -20.5 62t-57.5 23v93q37 0 57.5 23t20.5 62v166q0 164 137 164h74v-97h-38q-36 0 -49.5 -21.5t-13.5 -65.5v-142q0 -54 -26.5 -89.5t-65.5 -44.5v-3q39 -9 65.5 -44.5t26.5 -89.5v-142q0 -44 13.5 -65.5t49.5 -21.5h38v-97h-74z" />
    <glyph glyph-name="braceright.case" horiz-adv-x="323" 
d="M74 798q137 0 137 -164v-166q0 -39 20.5 -62t57.5 -23v-93q-37 0 -57.5 -23t-20.5 -62v-166q0 -164 -137 -164h-74v97h38q36 0 49.5 21.5t13.5 65.5v142q0 54 26.5 89.5t65.5 44.5v3q-39 9 -65.5 44.5t-26.5 89.5v142q0 44 -13.5 65.5t-49.5 21.5h-38v97h74z" />
    <glyph glyph-name="bracketleft.case" horiz-adv-x="313" 
d="M74 -125v923h239v-102h-129v-719h129v-102h-239z" />
    <glyph glyph-name="bracketright.case" horiz-adv-x="313" 
d="M239 798v-923h-239v102h129v719h-129v102h239z" />
    <glyph glyph-name="hyphen.case" horiz-adv-x="316" 
d="M33 341v118h250v-118h-250z" />
    <glyph glyph-name="endash.case" horiz-adv-x="504" 
d="M33 341v118h438v-118h-438z" />
    <glyph glyph-name="emdash.case" horiz-adv-x="980" 
d="M33 341v118h914v-118h-914z" />
    <glyph glyph-name="guillemotleft.case" horiz-adv-x="456" 
d="M125 137l-88 212l88 212h104l-80 -212l80 -212h-104zM315 137l-88 212l88 212h104l-80 -212l80 -212h-104z" />
    <glyph glyph-name="guillemotright.case" horiz-adv-x="456" 
d="M141 560l88 -212l-88 -212h-104l80 212l-80 212h104zM331 560l88 -212l-88 -212h-104l80 212l-80 212h104z" />
    <glyph glyph-name="guilsinglleft.case" horiz-adv-x="266" 
d="M125 137l-88 212l88 212h104l-80 -212l80 -212h-104z" />
    <glyph glyph-name="guilsinglright.case" horiz-adv-x="266" 
d="M141 560l88 -212l-88 -212h-104l80 212l-80 212h104z" />
    <glyph glyph-name="cent.case" horiz-adv-x="644" 
d="M343 102q62 0 97.5 46.5t39.5 116.5l134 -72q-21 -86 -79 -139.5t-145 -65.5v-84h-91v84q-65 9 -116.5 45t-82.5 90t-47 116.5t-16 129.5q0 91 26.5 170t88 138.5t147.5 71.5v88h91v-88q87 -11 145 -64t80 -143l-135 -68q-4 70 -39 115.5t-98 45.5q-37 0 -65 -19
t-44.5 -47t-26.5 -65.5t-13.5 -70t-3.5 -64.5q0 -42 6.5 -83t21.5 -85.5t47.5 -71.5t77.5 -27z" />
    <glyph glyph-name="plus.case" 
d="M242 95v183h-176v104h176v183h109v-183h176v-104h-176v-183h-109z" />
    <glyph glyph-name="minus.case" 
d="M66 278v104h461v-104h-461z" />
    <glyph glyph-name="multiply.case" 
d="M456 96l-160 160l-160 -160l-73 73l160 160l-160 160l73 74l160 -160l160 160l74 -74l-160 -160l160 -160z" />
    <glyph glyph-name="divide.case" 
d="M296 430q-32 0 -54.5 23t-22.5 54q0 32 23 55t54 23t54 -23t23 -55q0 -31 -22.5 -54t-54.5 -23zM66 278v104h461v-104h-461zM296 85q-32 0 -54.5 22.5t-22.5 54.5t22.5 54.5t54.5 22.5t54.5 -22.5t22.5 -54.5t-22.5 -54.5t-54.5 -22.5z" />
    <glyph glyph-name="equal.case" 
d="M66 393v104h461v-104h-461zM66 163v103h461v-103h-461z" />
    <glyph glyph-name="notequal.case" horiz-adv-x="593" 
d="M527 393h-137l-74 -127h211v-103h-272l-57 -96h-113l57 96h-76v103h136l75 127h-211v104h272l56 95h114l-56 -95h75v-104z" />
    <glyph glyph-name="greater.case" 
d="M66 111v103l347 116l-347 117v103l461 -162v-118z" />
    <glyph glyph-name="less.case" 
d="M527 111l-461 159v118l461 162v-103l-348 -117l348 -116v-103z" />
    <glyph glyph-name="approxequal.case" 
d="M147 352h-81q-5 52 33 99t93 47q35 0 113.5 -17t99.5 -17q34 0 41 34h79q3 -54 -33.5 -100t-94.5 -46q-34 0 -112 18.5t-96 18.5q-17 0 -28.5 -11t-13.5 -26zM147 162h-81q-5 51 33 98t93 47q35 0 113.5 -17t99.5 -17q34 0 41 34h79q3 -53 -33.5 -99t-94.5 -46
q-34 0 -112 18.5t-96 18.5q-17 0 -28.5 -11t-13.5 -26z" />
    <glyph glyph-name="logicalnot.case" 
d="M417 95v183h-351v104h461v-287h-110z" />
    <glyph glyph-name="asciitilde.case" 
d="M147 257h-81q-5 52 33 99t93 47q35 0 113.5 -17.5t99.5 -17.5q34 0 41 35h79q3 -54 -33.5 -100t-94.5 -46q-34 0 -112 18.5t-96 18.5q-17 0 -28.5 -11t-13.5 -26z" />
    <glyph glyph-name="infinity.case" 
d="M171 255q-45 0 -79.5 30t-34.5 77q0 46 34.5 76t79.5 30q60 0 125 -68q33 34 60.5 51t63.5 17q48 0 81.5 -29t33.5 -75q0 -48 -35 -78.5t-80 -30.5q-61 0 -123 68q-26 -23 -41.5 -35.5t-38.5 -22.5t-46 -10zM178 318q23 0 72 44q-48 43 -72 43q-18 0 -31.5 -12.5
t-13.5 -29.5q0 -18 13 -31.5t32 -13.5zM414 318q18 0 31.5 13t13.5 31q0 17 -13 30t-32 13q-23 0 -71 -43q44 -44 71 -44z" />
    <glyph glyph-name="ampersand.alt" horiz-adv-x="679" 
d="M562 158q63 -31 110 -30l-7 -132q-84 -6 -192 60q-85 -67 -193 -67q-95 0 -169 55.5t-74 146.5q0 71 34 117.5t94 83.5q-48 96 -48 171q0 79 53 134t140 55q74 0 123.5 -48.5t49.5 -109.5l-1 -14l-130 -59q12 32 12 51q0 30 -15.5 49.5t-42.5 19.5q-29 0 -46 -20t-17 -51
q0 -74 63 -170.5t153 -171.5q48 81 51 164l120 -64q-19 -92 -68 -170zM298 106q38 0 74 25q-84 72 -150 166q-39 -36 -39 -86q0 -45 34.5 -75t80.5 -30z" />
    <glyph glyph-name="at.case" horiz-adv-x="839" 
d="M426 -14q-171 0 -279.5 110t-108.5 271t108 272t272 111t273.5 -110t109.5 -259q0 -107 -58.5 -164t-146.5 -57t-117 62q-29 -35 -56 -48.5t-62 -13.5q-70 0 -112 43t-42 120q0 104 61 176.5t147 72.5q76 0 103 -60h1l13 42h97l-69 -261q-10 -50 49 -50q50 0 79.5 36
t29.5 105q0 119 -85.5 200.5t-212.5 81.5q-125 0 -212 -82t-87 -217q0 -134 87 -215.5t226 -81.5q110 0 194 49l-11 -91q-33 -19 -87 -30.5t-104 -11.5zM377 243q53 0 82 55.5t29 116.5q0 73 -58 73q-51 0 -82 -45t-31 -113q0 -87 60 -87z" />
    <glyph glyph-name="bar.case" horiz-adv-x="268" 
d="M79 -171v978h110v-978h-110z" />
    <glyph glyph-name="brokenbar.case" horiz-adv-x="268" 
d="M79 437v370h110v-370h-110zM79 -171v403h110v-403h-110z" />
    <glyph glyph-name="circumflexcomb_hookcomb" horiz-adv-x="0" 
d="M-172 716q28 22 28 43q0 26 -35 26q-30 0 -62 -16l-15 68q38 19 95 19q55 0 84 -20t29 -56q0 -14 -11 -32.5t-29 -31.5h-84zM-434 604l94 99h134l94 -99h-102l-59 51l-57 -51h-104z" />
    <glyph glyph-name="brevecomb_hookcomb" horiz-adv-x="0" 
d="M-262 716q28 21 28 43q0 26 -35 26q-30 0 -62 -16l-15 68q38 19 95 19q55 0 84 -20t29 -56q0 -14 -11 -32.5t-29 -31.5h-84zM-215 596q-75 0 -118 29.5t-48 82.5h88q7 -33 78 -33q72 0 78 33h89q-6 -52 -50 -82t-117 -30z" />
    <glyph glyph-name="uni03060301" horiz-adv-x="0" 
d="M-263 735l65 105h136l-108 -105h-93zM-215 596q-75 0 -118 29.5t-48 82.5h88q7 -33 78 -33q72 0 78 33h89q-6 -52 -50 -82t-117 -30z" />
    <glyph glyph-name="uni03060300" horiz-adv-x="0" 
d="M-259 735l-108 105h135l66 -105h-93zM-215 596q-75 0 -118 29.5t-48 82.5h88q7 -33 78 -33q72 0 78 33h89q-6 -52 -50 -82t-117 -30z" />
    <glyph glyph-name="uni03060303" horiz-adv-x="0" 
d="M-332 731l-43 49q42 63 99 63q23 0 66.5 -18t57.5 -18q27 0 54 38l43 -49q-42 -63 -99 -63q-23 0 -66 18.5t-58 18.5q-26 0 -54 -39zM-215 596q-75 0 -118 29.5t-48 82.5h88q7 -33 78 -33q72 0 78 33h89q-6 -52 -50 -82t-117 -30z" />
    <glyph glyph-name="uni03020301" horiz-adv-x="0" 
d="M-254 735l66 105h135l-108 -105h-93zM-370 604l94 99h134l94 -99h-102l-59 51l-57 -51h-104z" />
    <glyph glyph-name="uni03020300" horiz-adv-x="0" 
d="M-258 735l-108 105h136l65 -105h-93zM-370 604l94 99h134l94 -99h-102l-59 51l-57 -51h-104z" />
    <glyph glyph-name="uni03020303" horiz-adv-x="0" 
d="M-327 731l-42 49q40 63 99 63q22 0 65.5 -18t57.5 -18q28 0 55 38l43 -49q-42 -63 -99 -63q-23 0 -66.5 18.5t-57.5 18.5q-25 0 -55 -39zM-370 604l94 99h134l94 -99h-102l-59 51l-57 -51h-104z" />
    <glyph glyph-name="ncomma" horiz-adv-x="278" 
d="M48 604l37 137h145l-80 -137h-102z" />
    </font>
</defs>
</svg>
